<?xml version="1.0" encoding="UTF-8" standalone="no"?>
<!DOCTYPE svg PUBLIC "-//W3C//DTD SVG 1.1//EN"
 "http://www.w3.org/Graphics/SVG/1.1/DTD/svg11.dtd">
<!-- Generated by graphviz version 2.43.0 (0)
 -->
<!-- Title: plugins/advanced_startup_solars/AdvancedStartupSolars.cpp Pages: 1 -->
<svg width="568pt" height="214pt"
 viewBox="0.00 0.00 568.00 214.00" xmlns="http://www.w3.org/2000/svg" xmlns:xlink="http://www.w3.org/1999/xlink">
<g id="graph0" class="graph" transform="scale(1 1) rotate(0) translate(4 210)">
<title>plugins/advanced_startup_solars/AdvancedStartupSolars.cpp</title>
<!-- Node1 -->
<g id="node1" class="node">
<title>Node1</title>
<g id="a_node1"><a xlink:title=" ">
<polygon fill="#999999" stroke="#666666" points="442,-206 254,-206 254,-176 442,-176 442,-206"/>
<text text-anchor="start" x="262" y="-194" font-family="Helvetica,sans-Serif" font-size="10.00">plugins/advanced_startup</text>
<text text-anchor="middle" x="348" y="-183" font-family="Helvetica,sans-Serif" font-size="10.00">_solars/AdvancedStartupSolars.cpp</text>
</a>
</g>
</g>
<!-- Node2 -->
<g id="node2" class="node">
<title>Node2</title>
<g id="a_node2"><a xlink:href="_advanced_startup_solars_8hpp.html" target="_top" xlink:title=" ">
<polygon fill="white" stroke="#666666" points="353.5,-140 202.5,-140 202.5,-121 353.5,-121 353.5,-140"/>
<text text-anchor="middle" x="278" y="-128" font-family="Helvetica,sans-Serif" font-size="10.00">AdvancedStartupSolars.hpp</text>
</a>
</g>
</g>
<!-- Node1&#45;&gt;Node2 -->
<g id="edge1" class="edge">
<title>Node1&#45;&gt;Node2</title>
<path fill="none" stroke="#63b8ff" d="M331.05,-175.84C320.58,-167.09 307.14,-155.85 296.41,-146.88"/>
<polygon fill="#63b8ff" stroke="#63b8ff" points="298.41,-143.99 288.49,-140.27 293.92,-149.36 298.41,-143.99"/>
</g>
<!-- Node10 -->
<g id="node10" class="node">
<title>Node10</title>
<g id="a_node10"><a xlink:title=" ">
<polygon fill="#e0e0e0" stroke="#999999" points="560,-24.5 506,-24.5 506,-5.5 560,-5.5 560,-24.5"/>
<text text-anchor="middle" x="533" y="-12.5" font-family="Helvetica,sans-Serif" font-size="10.00">random</text>
</a>
</g>
</g>
<!-- Node1&#45;&gt;Node10 -->
<g id="edge18" class="edge">
<title>Node1&#45;&gt;Node10</title>
<path fill="none" stroke="#63b8ff" d="M364.76,-175.76C387.95,-155.91 430.94,-118.57 466,-85 484.35,-67.43 504.55,-46.38 517.93,-32.18"/>
<polygon fill="#63b8ff" stroke="#63b8ff" points="520.66,-34.38 524.94,-24.7 515.55,-29.6 520.66,-34.38"/>
</g>
<!-- Node3 -->
<g id="node3" class="node">
<title>Node3</title>
<g id="a_node3"><a xlink:title=" ">
<polygon fill="#e0e0e0" stroke="#999999" points="488,-24.5 414,-24.5 414,-5.5 488,-5.5 488,-24.5"/>
<text text-anchor="middle" x="451" y="-12.5" font-family="Helvetica,sans-Serif" font-size="10.00">FLHook.hpp</text>
</a>
</g>
</g>
<!-- Node2&#45;&gt;Node3 -->
<g id="edge2" class="edge">
<title>Node2&#45;&gt;Node3</title>
<path fill="none" stroke="#63b8ff" d="M339.69,-120.96C382.14,-113.71 433.26,-101.79 447,-85 458.37,-71.1 457.81,-49.87 455.39,-34.63"/>
<polygon fill="#63b8ff" stroke="#63b8ff" points="458.81,-33.91 453.44,-24.78 451.95,-35.27 458.81,-33.91"/>
</g>
<!-- Node4 -->
<g id="node4" class="node">
<title>Node4</title>
<g id="a_node4"><a xlink:title=" ">
<polygon fill="#e0e0e0" stroke="#999999" points="56,-24.5 0,-24.5 0,-5.5 56,-5.5 56,-24.5"/>
<text text-anchor="middle" x="28" y="-12.5" font-family="Helvetica,sans-Serif" font-size="10.00">plugin.h</text>
</a>
</g>
</g>
<!-- Node2&#45;&gt;Node4 -->
<g id="edge3" class="edge">
<title>Node2&#45;&gt;Node4</title>
<path fill="none" stroke="#63b8ff" d="M202.28,-125.68C138.84,-120.77 55.17,-109.69 33,-85 20.99,-71.63 21.31,-50.3 23.66,-34.9"/>
<polygon fill="#63b8ff" stroke="#63b8ff" points="27.12,-35.41 25.57,-24.93 20.25,-34.09 27.12,-35.41"/>
</g>
<!-- Node5 -->
<g id="node5" class="node">
<title>Node5</title>
<g id="a_node5"><a xlink:title=" ">
<polygon fill="#e0e0e0" stroke="#999999" points="92,-85 42,-85 42,-66 92,-66 92,-85"/>
<text text-anchor="middle" x="67" y="-73" font-family="Helvetica,sans-Serif" font-size="10.00">ranges</text>
</a>
</g>
</g>
<!-- Node2&#45;&gt;Node5 -->
<g id="edge4" class="edge">
<title>Node2&#45;&gt;Node5</title>
<path fill="none" stroke="#63b8ff" d="M244.1,-120.98C205.09,-111.19 141.36,-95.18 101.92,-85.27"/>
<polygon fill="#63b8ff" stroke="#63b8ff" points="102.76,-81.87 92.21,-82.83 101.06,-88.66 102.76,-81.87"/>
</g>
<!-- Node6 -->
<g id="node6" class="node">
<title>Node6</title>
<g id="a_node6"><a xlink:href="_n_p_c_control_8h.html" target="_top" xlink:title=" ">
<polygon fill="white" stroke="#666666" points="438.5,-85 289.5,-85 289.5,-66 438.5,-66 438.5,-85"/>
<text text-anchor="middle" x="364" y="-73" font-family="Helvetica,sans-Serif" font-size="10.00">../npc_control/NPCControl.h</text>
</a>
</g>
</g>
<!-- Node2&#45;&gt;Node6 -->
<g id="edge5" class="edge">
<title>Node2&#45;&gt;Node6</title>
<path fill="none" stroke="#63b8ff" d="M291.82,-120.98C305.15,-112.77 325.58,-100.18 341.31,-90.49"/>
<polygon fill="#63b8ff" stroke="#63b8ff" points="343.25,-93.4 349.93,-85.17 339.58,-87.44 343.25,-93.4"/>
</g>
<!-- Node11 -->
<g id="node11" class="node">
<title>Node11</title>
<g id="a_node11"><a xlink:href="_solar_control_8h.html" target="_top" xlink:title=" ">
<polygon fill="white" stroke="#666666" points="271.5,-85 110.5,-85 110.5,-66 271.5,-66 271.5,-85"/>
<text text-anchor="middle" x="191" y="-73" font-family="Helvetica,sans-Serif" font-size="10.00">../solar_control/SolarControl.h</text>
</a>
</g>
</g>
<!-- Node2&#45;&gt;Node11 -->
<g id="edge12" class="edge">
<title>Node2&#45;&gt;Node11</title>
<path fill="none" stroke="#63b8ff" d="M264.02,-120.98C250.53,-112.77 229.87,-100.18 213.96,-90.49"/>
<polygon fill="#63b8ff" stroke="#63b8ff" points="215.59,-87.38 205.23,-85.17 211.95,-93.36 215.59,-87.38"/>
</g>
<!-- Node6&#45;&gt;Node3 -->
<g id="edge6" class="edge">
<title>Node6&#45;&gt;Node3</title>
<path fill="none" stroke="#63b8ff" d="M376.84,-65.87C390.72,-56.54 413.07,-41.51 429.61,-30.38"/>
<polygon fill="#63b8ff" stroke="#63b8ff" points="431.76,-33.15 438.11,-24.67 427.86,-27.34 431.76,-33.15"/>
</g>
<!-- Node6&#45;&gt;Node4 -->
<g id="edge7" class="edge">
<title>Node6&#45;&gt;Node4</title>
<path fill="none" stroke="#63b8ff" d="M295.08,-65.98C220.7,-56.48 107.22,-40.99 65,-30 62.7,-29.4 60.35,-28.71 58,-27.96"/>
<polygon fill="#63b8ff" stroke="#63b8ff" points="59.08,-24.63 48.49,-24.64 56.78,-31.24 59.08,-24.63"/>
</g>
<!-- Node7 -->
<g id="node7" class="node">
<title>Node7</title>
<g id="a_node7"><a xlink:title=" ">
<polygon fill="#e0e0e0" stroke="#999999" points="165.5,-24.5 74.5,-24.5 74.5,-5.5 165.5,-5.5 165.5,-24.5"/>
<text text-anchor="middle" x="120" y="-12.5" font-family="Helvetica,sans-Serif" font-size="10.00">spdlog/logger.h</text>
</a>
</g>
</g>
<!-- Node6&#45;&gt;Node7 -->
<g id="edge8" class="edge">
<title>Node6&#45;&gt;Node7</title>
<path fill="none" stroke="#63b8ff" d="M326.44,-65.98C288.07,-57.21 226.79,-43.02 174,-30 170.19,-29.06 166.24,-28.07 162.29,-27.06"/>
<polygon fill="#63b8ff" stroke="#63b8ff" points="163.08,-23.65 152.52,-24.56 161.34,-30.44 163.08,-23.65"/>
</g>
<!-- Node8 -->
<g id="node8" class="node">
<title>Node8</title>
<g id="a_node8"><a xlink:title=" ">
<polygon fill="#e0e0e0" stroke="#999999" points="272.5,-24.5 183.5,-24.5 183.5,-5.5 272.5,-5.5 272.5,-24.5"/>
<text text-anchor="middle" x="228" y="-12.5" font-family="Helvetica,sans-Serif" font-size="10.00">spdlog/async.h</text>
</a>
</g>
</g>
<!-- Node6&#45;&gt;Node8 -->
<g id="edge9" class="edge">
<title>Node6&#45;&gt;Node8</title>
<path fill="none" stroke="#63b8ff" d="M344.22,-65.99C321.36,-56.16 283.51,-39.88 257.24,-28.58"/>
<polygon fill="#63b8ff" stroke="#63b8ff" points="258.37,-25.25 247.8,-24.52 255.6,-31.68 258.37,-25.25"/>
</g>
<!-- Node9 -->
<g id="node9" class="node">
<title>Node9</title>
<g id="a_node9"><a xlink:title=" ">
<polygon fill="#e0e0e0" stroke="#999999" points="396,-30 290,-30 290,0 396,0 396,-30"/>
<text text-anchor="start" x="298" y="-18" font-family="Helvetica,sans-Serif" font-size="10.00">spdlog/sinks/basic</text>
<text text-anchor="middle" x="343" y="-7" font-family="Helvetica,sans-Serif" font-size="10.00">_file_sink.h</text>
</a>
</g>
</g>
<!-- Node6&#45;&gt;Node9 -->
<g id="edge10" class="edge">
<title>Node6&#45;&gt;Node9</title>
<path fill="none" stroke="#63b8ff" d="M360.9,-65.87C358.42,-58.96 354.82,-48.93 351.5,-39.67"/>
<polygon fill="#63b8ff" stroke="#63b8ff" points="354.74,-38.34 348.07,-30.11 348.15,-40.71 354.74,-38.34"/>
</g>
<!-- Node6&#45;&gt;Node10 -->
<g id="edge11" class="edge">
<title>Node6&#45;&gt;Node10</title>
<path fill="none" stroke="#63b8ff" d="M390.88,-65.93C417.84,-57.23 460.48,-43.2 497,-30 498.6,-29.42 500.25,-28.82 501.9,-28.2"/>
<polygon fill="#63b8ff" stroke="#63b8ff" points="503.26,-31.43 511.36,-24.61 500.77,-24.89 503.26,-31.43"/>
</g>
<!-- Node11&#45;&gt;Node3 -->
<g id="edge13" class="edge">
<title>Node11&#45;&gt;Node3</title>
<path fill="none" stroke="#63b8ff" d="M238.04,-65.99C281.58,-57.81 348.01,-44.57 405,-30 408.15,-29.19 411.42,-28.31 414.68,-27.39"/>
<polygon fill="#63b8ff" stroke="#63b8ff" points="415.74,-30.72 424.36,-24.55 413.78,-24 415.74,-30.72"/>
</g>
<!-- Node11&#45;&gt;Node4 -->
<g id="edge14" class="edge">
<title>Node11&#45;&gt;Node4</title>
<path fill="none" stroke="#63b8ff" d="M166.32,-65.96C140.87,-57.12 100.08,-42.83 65,-30 63.36,-29.4 61.68,-28.78 59.98,-28.15"/>
<polygon fill="#63b8ff" stroke="#63b8ff" points="60.87,-24.75 50.27,-24.52 58.41,-31.3 60.87,-24.75"/>
</g>
<!-- Node11&#45;&gt;Node7 -->
<g id="edge15" class="edge">
<title>Node11&#45;&gt;Node7</title>
<path fill="none" stroke="#63b8ff" d="M180.52,-65.87C169.51,-56.8 151.96,-42.34 138.59,-31.32"/>
<polygon fill="#63b8ff" stroke="#63b8ff" points="140.46,-28.33 130.52,-24.67 136.01,-33.73 140.46,-28.33"/>
</g>
<!-- Node11&#45;&gt;Node8 -->
<g id="edge16" class="edge">
<title>Node11&#45;&gt;Node8</title>
<path fill="none" stroke="#63b8ff" d="M196.46,-65.87C201.87,-57.31 210.31,-43.97 217.1,-33.24"/>
<polygon fill="#63b8ff" stroke="#63b8ff" points="220.13,-34.99 222.52,-24.67 214.21,-31.25 220.13,-34.99"/>
</g>
<!-- Node11&#45;&gt;Node9 -->
<g id="edge17" class="edge">
<title>Node11&#45;&gt;Node9</title>
<path fill="none" stroke="#63b8ff" d="M213.1,-65.99C234.98,-57.57 269.13,-44.43 296.92,-33.73"/>
<polygon fill="#63b8ff" stroke="#63b8ff" points="298.38,-36.92 306.46,-30.06 295.87,-30.39 298.38,-36.92"/>
</g>
</g>
</svg>
