<?xml version="1.0" encoding="UTF-8" standalone="no"?>
<!DOCTYPE svg PUBLIC "-//W3C//DTD SVG 1.1//EN"
 "http://www.w3.org/Graphics/SVG/1.1/DTD/svg11.dtd">
<!-- Generated by graphviz version 2.43.0 (0)
 -->
<!-- Title: plugins/advanced_startup_solars/AdvancedStartupSolars.hpp Pages: 1 -->
<svg width="568pt" height="159pt"
 viewBox="0.00 0.00 568.00 159.00" xmlns="http://www.w3.org/2000/svg" xmlns:xlink="http://www.w3.org/1999/xlink">
<g id="graph0" class="graph" transform="scale(1 1) rotate(0) translate(4 155)">
<title>plugins/advanced_startup_solars/AdvancedStartupSolars.hpp</title>
<!-- Node1 -->
<g id="node1" class="node">
<title>Node1</title>
<g id="a_node1"><a xlink:title=" ">
<polygon fill="#999999" stroke="#666666" points="278,-151 90,-151 90,-121 278,-121 278,-151"/>
<text text-anchor="start" x="98" y="-139" font-family="Helvetica,sans-Serif" font-size="10.00">plugins/advanced_startup</text>
<text text-anchor="middle" x="184" y="-128" font-family="Helvetica,sans-Serif" font-size="10.00">_solars/AdvancedStartupSolars.hpp</text>
</a>
</g>
</g>
<!-- Node2 -->
<g id="node2" class="node">
<title>Node2</title>
<g id="a_node2"><a xlink:title=" ">
<polygon fill="#e0e0e0" stroke="#999999" points="74,-24.5 0,-24.5 0,-5.5 74,-5.5 74,-24.5"/>
<text text-anchor="middle" x="37" y="-12.5" font-family="Helvetica,sans-Serif" font-size="10.00">FLHook.hpp</text>
</a>
</g>
</g>
<!-- Node1&#45;&gt;Node2 -->
<g id="edge1" class="edge">
<title>Node1&#45;&gt;Node2</title>
<path fill="none" stroke="#63b8ff" d="M146.97,-120.83C127.76,-112.32 104.67,-100.19 87,-85 69.88,-70.29 55.41,-48.6 46.51,-33.48"/>
<polygon fill="#63b8ff" stroke="#63b8ff" points="49.47,-31.61 41.49,-24.63 43.38,-35.06 49.47,-31.61"/>
</g>
<!-- Node3 -->
<g id="node3" class="node">
<title>Node3</title>
<g id="a_node3"><a xlink:title=" ">
<polygon fill="#e0e0e0" stroke="#999999" points="148,-24.5 92,-24.5 92,-5.5 148,-5.5 148,-24.5"/>
<text text-anchor="middle" x="120" y="-12.5" font-family="Helvetica,sans-Serif" font-size="10.00">plugin.h</text>
</a>
</g>
</g>
<!-- Node1&#45;&gt;Node3 -->
<g id="edge2" class="edge">
<title>Node1&#45;&gt;Node3</title>
<path fill="none" stroke="#63b8ff" d="M138.35,-120.87C121.34,-113.14 103.79,-101.64 94,-85 84.22,-68.37 94.96,-47.41 105.46,-32.97"/>
<polygon fill="#63b8ff" stroke="#63b8ff" points="108.35,-34.96 111.78,-24.93 102.85,-30.63 108.35,-34.96"/>
</g>
<!-- Node4 -->
<g id="node4" class="node">
<title>Node4</title>
<g id="a_node4"><a xlink:title=" ">
<polygon fill="#e0e0e0" stroke="#999999" points="499,-85 449,-85 449,-66 499,-66 499,-85"/>
<text text-anchor="middle" x="474" y="-73" font-family="Helvetica,sans-Serif" font-size="10.00">ranges</text>
</a>
</g>
</g>
<!-- Node1&#45;&gt;Node4 -->
<g id="edge3" class="edge">
<title>Node1&#45;&gt;Node4</title>
<path fill="none" stroke="#63b8ff" d="M262.71,-120.95C311.22,-112 374.9,-99.71 438.95,-85.38"/>
<polygon fill="#63b8ff" stroke="#63b8ff" points="439.83,-88.77 448.81,-83.15 438.29,-81.94 439.83,-88.77"/>
</g>
<!-- Node5 -->
<g id="node5" class="node">
<title>Node5</title>
<g id="a_node5"><a xlink:href="_n_p_c_control_8h.html" target="_top" xlink:title=" ">
<polygon fill="white" stroke="#666666" points="431.5,-85 282.5,-85 282.5,-66 431.5,-66 431.5,-85"/>
<text text-anchor="middle" x="357" y="-73" font-family="Helvetica,sans-Serif" font-size="10.00">../npc_control/NPCControl.h</text>
</a>
</g>
</g>
<!-- Node1&#45;&gt;Node5 -->
<g id="edge4" class="edge">
<title>Node1&#45;&gt;Node5</title>
<path fill="none" stroke="#63b8ff" d="M225.44,-120.99C254.91,-111.02 294.06,-97.78 321.97,-88.35"/>
<polygon fill="#63b8ff" stroke="#63b8ff" points="323.35,-91.57 331.7,-85.05 321.11,-84.94 323.35,-91.57"/>
</g>
<!-- Node10 -->
<g id="node10" class="node">
<title>Node10</title>
<g id="a_node10"><a xlink:href="_solar_control_8h.html" target="_top" xlink:title=" ">
<polygon fill="white" stroke="#666666" points="264.5,-85 103.5,-85 103.5,-66 264.5,-66 264.5,-85"/>
<text text-anchor="middle" x="184" y="-73" font-family="Helvetica,sans-Serif" font-size="10.00">../solar_control/SolarControl.h</text>
</a>
</g>
</g>
<!-- Node1&#45;&gt;Node10 -->
<g id="edge11" class="edge">
<title>Node1&#45;&gt;Node10</title>
<path fill="none" stroke="#63b8ff" d="M184,-120.84C184,-113.21 184,-103.7 184,-95.45"/>
<polygon fill="#63b8ff" stroke="#63b8ff" points="187.5,-95.27 184,-85.27 180.5,-95.27 187.5,-95.27"/>
</g>
<!-- Node5&#45;&gt;Node2 -->
<g id="edge5" class="edge">
<title>Node5&#45;&gt;Node2</title>
<path fill="none" stroke="#63b8ff" d="M288.38,-65.96C232.65,-58.41 152.24,-46.08 83,-30 79.65,-29.22 76.18,-28.33 72.72,-27.38"/>
<polygon fill="#63b8ff" stroke="#63b8ff" points="73.69,-24.02 63.11,-24.61 71.75,-30.74 73.69,-24.02"/>
</g>
<!-- Node5&#45;&gt;Node3 -->
<g id="edge6" class="edge">
<title>Node5&#45;&gt;Node3</title>
<path fill="none" stroke="#63b8ff" d="M309.64,-65.94C268.8,-58.1 208.46,-45.38 157,-30 154.86,-29.36 152.67,-28.66 150.47,-27.92"/>
<polygon fill="#63b8ff" stroke="#63b8ff" points="151.55,-24.59 140.95,-24.52 149.2,-31.18 151.55,-24.59"/>
</g>
<!-- Node6 -->
<g id="node6" class="node">
<title>Node6</title>
<g id="a_node6"><a xlink:title=" ">
<polygon fill="#e0e0e0" stroke="#999999" points="257.5,-24.5 166.5,-24.5 166.5,-5.5 257.5,-5.5 257.5,-24.5"/>
<text text-anchor="middle" x="212" y="-12.5" font-family="Helvetica,sans-Serif" font-size="10.00">spdlog/logger.h</text>
</a>
</g>
</g>
<!-- Node5&#45;&gt;Node6 -->
<g id="edge7" class="edge">
<title>Node5&#45;&gt;Node6</title>
<path fill="none" stroke="#63b8ff" d="M335.92,-65.99C311.32,-56.07 270.47,-39.59 242.44,-28.28"/>
<polygon fill="#63b8ff" stroke="#63b8ff" points="243.69,-25.01 233.11,-24.52 241.07,-31.5 243.69,-25.01"/>
</g>
<!-- Node7 -->
<g id="node7" class="node">
<title>Node7</title>
<g id="a_node7"><a xlink:title=" ">
<polygon fill="#e0e0e0" stroke="#999999" points="364.5,-24.5 275.5,-24.5 275.5,-5.5 364.5,-5.5 364.5,-24.5"/>
<text text-anchor="middle" x="320" y="-12.5" font-family="Helvetica,sans-Serif" font-size="10.00">spdlog/async.h</text>
</a>
</g>
</g>
<!-- Node5&#45;&gt;Node7 -->
<g id="edge8" class="edge">
<title>Node5&#45;&gt;Node7</title>
<path fill="none" stroke="#63b8ff" d="M351.54,-65.87C346.13,-57.31 337.69,-43.97 330.9,-33.24"/>
<polygon fill="#63b8ff" stroke="#63b8ff" points="333.79,-31.25 325.48,-24.67 327.87,-34.99 333.79,-31.25"/>
</g>
<!-- Node8 -->
<g id="node8" class="node">
<title>Node8</title>
<g id="a_node8"><a xlink:title=" ">
<polygon fill="#e0e0e0" stroke="#999999" points="488,-30 382,-30 382,0 488,0 488,-30"/>
<text text-anchor="start" x="390" y="-18" font-family="Helvetica,sans-Serif" font-size="10.00">spdlog/sinks/basic</text>
<text text-anchor="middle" x="435" y="-7" font-family="Helvetica,sans-Serif" font-size="10.00">_file_sink.h</text>
</a>
</g>
</g>
<!-- Node5&#45;&gt;Node8 -->
<g id="edge9" class="edge">
<title>Node5&#45;&gt;Node8</title>
<path fill="none" stroke="#63b8ff" d="M368.51,-65.87C378.9,-58.08 394.58,-46.32 408.1,-36.17"/>
<polygon fill="#63b8ff" stroke="#63b8ff" points="410.28,-38.91 416.18,-30.11 406.08,-33.31 410.28,-38.91"/>
</g>
<!-- Node9 -->
<g id="node9" class="node">
<title>Node9</title>
<g id="a_node9"><a xlink:title=" ">
<polygon fill="#e0e0e0" stroke="#999999" points="560,-24.5 506,-24.5 506,-5.5 560,-5.5 560,-24.5"/>
<text text-anchor="middle" x="533" y="-12.5" font-family="Helvetica,sans-Serif" font-size="10.00">random</text>
</a>
</g>
</g>
<!-- Node5&#45;&gt;Node9 -->
<g id="edge10" class="edge">
<title>Node5&#45;&gt;Node9</title>
<path fill="none" stroke="#63b8ff" d="M385.6,-65.99C414.02,-57.39 458.76,-43.5 497,-30 498.65,-29.42 500.34,-28.81 502.04,-28.18"/>
<polygon fill="#63b8ff" stroke="#63b8ff" points="503.64,-31.32 511.76,-24.51 501.17,-24.77 503.64,-31.32"/>
</g>
<!-- Node10&#45;&gt;Node2 -->
<g id="edge12" class="edge">
<title>Node10&#45;&gt;Node2</title>
<path fill="none" stroke="#63b8ff" d="M162.62,-65.99C137.69,-56.07 96.28,-39.59 67.86,-28.28"/>
<polygon fill="#63b8ff" stroke="#63b8ff" points="68.99,-24.96 58.4,-24.52 66.4,-31.47 68.99,-24.96"/>
</g>
<!-- Node10&#45;&gt;Node3 -->
<g id="edge13" class="edge">
<title>Node10&#45;&gt;Node3</title>
<path fill="none" stroke="#63b8ff" d="M174.56,-65.87C164.73,-56.88 149.11,-42.61 137.11,-31.64"/>
<polygon fill="#63b8ff" stroke="#63b8ff" points="139.22,-28.83 129.48,-24.67 134.5,-34 139.22,-28.83"/>
</g>
<!-- Node10&#45;&gt;Node6 -->
<g id="edge14" class="edge">
<title>Node10&#45;&gt;Node6</title>
<path fill="none" stroke="#63b8ff" d="M188.13,-65.87C192.14,-57.49 198.35,-44.51 203.44,-33.89"/>
<polygon fill="#63b8ff" stroke="#63b8ff" points="206.69,-35.2 207.85,-24.67 200.38,-32.18 206.69,-35.2"/>
</g>
<!-- Node10&#45;&gt;Node7 -->
<g id="edge15" class="edge">
<title>Node10&#45;&gt;Node7</title>
<path fill="none" stroke="#63b8ff" d="M203.78,-65.99C226.64,-56.16 264.49,-39.88 290.76,-28.58"/>
<polygon fill="#63b8ff" stroke="#63b8ff" points="292.4,-31.68 300.2,-24.52 289.63,-25.25 292.4,-31.68"/>
</g>
<!-- Node10&#45;&gt;Node8 -->
<g id="edge16" class="edge">
<title>Node10&#45;&gt;Node8</title>
<path fill="none" stroke="#63b8ff" d="M220.5,-65.99C260.1,-56.76 324.07,-41.85 371.86,-30.72"/>
<polygon fill="#63b8ff" stroke="#63b8ff" points="372.85,-34.08 381.8,-28.4 371.26,-27.26 372.85,-34.08"/>
</g>
</g>
</svg>
