<?xml version="1.0" encoding="UTF-8" standalone="no"?>
<!DOCTYPE svg PUBLIC "-//W3C//DTD SVG 1.1//EN"
 "http://www.w3.org/Graphics/SVG/1.1/DTD/svg11.dtd">
<!-- Generated by graphviz version 2.43.0 (0)
 -->
<!-- Title: plugins/autobuy/Autobuy.cpp Pages: 1 -->
<svg width="165pt" height="137pt"
 viewBox="0.00 0.00 165.00 137.00" xmlns="http://www.w3.org/2000/svg" xmlns:xlink="http://www.w3.org/1999/xlink">
<g id="graph0" class="graph" transform="scale(1 1) rotate(0) translate(4 133)">
<title>plugins/autobuy/Autobuy.cpp</title>
<!-- Node1 -->
<g id="node1" class="node">
<title>Node1</title>
<g id="a_node1"><a xlink:title=" ">
<polygon fill="#999999" stroke="#666666" points="157,-129 0,-129 0,-110 157,-110 157,-129"/>
<text text-anchor="middle" x="78.5" y="-117" font-family="Helvetica,sans-Serif" font-size="10.00">plugins/autobuy/Autobuy.cpp</text>
</a>
</g>
</g>
<!-- Node2 -->
<g id="node2" class="node">
<title>Node2</title>
<g id="a_node2"><a xlink:href="_autobuy_8h.html" target="_top" xlink:title=" ">
<polygon fill="white" stroke="#666666" points="111,-74 46,-74 46,-55 111,-55 111,-74"/>
<text text-anchor="middle" x="78.5" y="-62" font-family="Helvetica,sans-Serif" font-size="10.00">Autobuy.h</text>
</a>
</g>
</g>
<!-- Node1&#45;&gt;Node2 -->
<g id="edge1" class="edge">
<title>Node1&#45;&gt;Node2</title>
<path fill="none" stroke="#63b8ff" d="M78.5,-109.75C78.5,-102.8 78.5,-92.85 78.5,-84.13"/>
<polygon fill="#63b8ff" stroke="#63b8ff" points="82,-84.09 78.5,-74.09 75,-84.09 82,-84.09"/>
</g>
<!-- Node3 -->
<g id="node3" class="node">
<title>Node3</title>
<g id="a_node3"><a xlink:title=" ">
<polygon fill="#e0e0e0" stroke="#999999" points="74.5,-19 0.5,-19 0.5,0 74.5,0 74.5,-19"/>
<text text-anchor="middle" x="37.5" y="-7" font-family="Helvetica,sans-Serif" font-size="10.00">FLHook.hpp</text>
</a>
</g>
</g>
<!-- Node2&#45;&gt;Node3 -->
<g id="edge2" class="edge">
<title>Node2&#45;&gt;Node3</title>
<path fill="none" stroke="#63b8ff" d="M71.73,-54.75C65.94,-47.26 57.44,-36.28 50.36,-27.13"/>
<polygon fill="#63b8ff" stroke="#63b8ff" points="53.03,-24.86 44.14,-19.09 47.49,-29.14 53.03,-24.86"/>
</g>
<!-- Node4 -->
<g id="node4" class="node">
<title>Node4</title>
<g id="a_node4"><a xlink:title=" ">
<polygon fill="#e0e0e0" stroke="#999999" points="148.5,-19 92.5,-19 92.5,0 148.5,0 148.5,-19"/>
<text text-anchor="middle" x="120.5" y="-7" font-family="Helvetica,sans-Serif" font-size="10.00">plugin.h</text>
</a>
</g>
</g>
<!-- Node2&#45;&gt;Node4 -->
<g id="edge3" class="edge">
<title>Node2&#45;&gt;Node4</title>
<path fill="none" stroke="#63b8ff" d="M85.44,-54.75C91.37,-47.26 100.07,-36.28 107.32,-27.13"/>
<polygon fill="#63b8ff" stroke="#63b8ff" points="110.23,-29.1 113.69,-19.09 104.74,-24.75 110.23,-29.1"/>
</g>
</g>
</svg>
