<?xml version="1.0" encoding="UTF-8" standalone="no"?>
<!DOCTYPE svg PUBLIC "-//W3C//DTD SVG 1.1//EN"
 "http://www.w3.org/Graphics/SVG/1.1/DTD/svg11.dtd">
<!-- Generated by graphviz version 2.43.0 (0)
 -->
<!-- Title: source/CCmds.cpp Pages: 1 -->
<svg width="1716pt" height="308pt"
 viewBox="0.00 0.00 1715.50 308.00" xmlns="http://www.w3.org/2000/svg" xmlns:xlink="http://www.w3.org/1999/xlink">
<g id="graph0" class="graph" transform="scale(1 1) rotate(0) translate(4 304)">
<title>source/CCmds.cpp</title>
<!-- Node1 -->
<g id="node1" class="node">
<title>Node1</title>
<g id="a_node1"><a xlink:title=" ">
<polygon fill="#bfbfbf" stroke="black" points="772,-280.5 772,-299.5 879,-299.5 879,-280.5 772,-280.5"/>
<text text-anchor="middle" x="825.5" y="-287.5" font-family="Helvetica,sans-Serif" font-size="10.00">source/CCmds.cpp</text>
</a>
</g>
</g>
<!-- Node2 -->
<g id="node2" class="node">
<title>Node2</title>
<g id="a_node2"><a xlink:href="_c_cmds_8h.html" target="_top" xlink:title=" ">
<polygon fill="none" stroke="black" points="1006.5,-224.5 1006.5,-243.5 1066.5,-243.5 1066.5,-224.5 1006.5,-224.5"/>
<text text-anchor="middle" x="1036.5" y="-231.5" font-family="Helvetica,sans-Serif" font-size="10.00">CCmds.h</text>
</a>
</g>
</g>
<!-- Node1&#45;&gt;Node2 -->
<g id="edge1" class="edge">
<title>Node1&#45;&gt;Node2</title>
<path fill="none" stroke="midnightblue" d="M858.93,-280.44C896.24,-270.9 956.58,-255.45 996.4,-245.26"/>
<polygon fill="midnightblue" stroke="midnightblue" points="997.48,-248.6 1006.3,-242.73 995.74,-241.82 997.48,-248.6"/>
</g>
<!-- Node4 -->
<g id="node4" class="node">
<title>Node4</title>
<g id="a_node4"><a xlink:href="global_8h.html" target="_top" xlink:title=" ">
<polygon fill="none" stroke="black" points="712.5,-112.5 712.5,-131.5 768.5,-131.5 768.5,-112.5 712.5,-112.5"/>
<text text-anchor="middle" x="740.5" y="-119.5" font-family="Helvetica,sans-Serif" font-size="10.00">global.h</text>
</a>
</g>
</g>
<!-- Node1&#45;&gt;Node4 -->
<g id="edge33" class="edge">
<title>Node1&#45;&gt;Node4</title>
<path fill="none" stroke="midnightblue" d="M820.93,-280.08C807.43,-253.72 767.58,-175.88 749.54,-140.66"/>
<polygon fill="midnightblue" stroke="midnightblue" points="752.56,-138.87 744.89,-131.57 746.33,-142.06 752.56,-138.87"/>
</g>
<!-- Node3 -->
<g id="node3" class="node">
<title>Node3</title>
<g id="a_node3"><a xlink:href="_hook_8h.html" target="_top" xlink:title=" ">
<polygon fill="none" stroke="black" points="1221.5,-168.5 1221.5,-187.5 1271.5,-187.5 1271.5,-168.5 1221.5,-168.5"/>
<text text-anchor="middle" x="1246.5" y="-175.5" font-family="Helvetica,sans-Serif" font-size="10.00">hook.h</text>
</a>
</g>
</g>
<!-- Node2&#45;&gt;Node3 -->
<g id="edge2" class="edge">
<title>Node2&#45;&gt;Node3</title>
<path fill="none" stroke="midnightblue" d="M1066.59,-225.26C1104.96,-215.4 1171.18,-198.37 1211.69,-187.95"/>
<polygon fill="midnightblue" stroke="midnightblue" points="1212.59,-191.33 1221.4,-185.45 1210.84,-184.56 1212.59,-191.33"/>
</g>
<!-- Node3&#45;&gt;Node4 -->
<g id="edge3" class="edge">
<title>Node3&#45;&gt;Node4</title>
<path fill="none" stroke="midnightblue" d="M1221.41,-174.32C1139.15,-165.54 877.32,-137.6 778.63,-127.07"/>
<polygon fill="midnightblue" stroke="midnightblue" points="778.82,-123.57 768.51,-125.99 778.08,-130.53 778.82,-123.57"/>
</g>
<!-- Node18 -->
<g id="node18" class="node">
<title>Node18</title>
<g id="a_node18"><a xlink:title=" ">
<polygon fill="none" stroke="#bfbfbf" points="1556,-56.5 1556,-75.5 1607,-75.5 1607,-56.5 1556,-56.5"/>
<text text-anchor="middle" x="1581.5" y="-63.5" font-family="Helvetica,sans-Serif" font-size="10.00">variant</text>
</a>
</g>
</g>
<!-- Node3&#45;&gt;Node18 -->
<g id="edge31" class="edge">
<title>Node3&#45;&gt;Node18</title>
<path fill="none" stroke="midnightblue" d="M1234.59,-168.31C1217.95,-155.15 1191.48,-129.81 1207.5,-112 1256.23,-57.82 1455.9,-87.03 1545.83,-75.58"/>
<polygon fill="midnightblue" stroke="midnightblue" points="1546.63,-79 1555.98,-74.02 1545.57,-72.08 1546.63,-79"/>
</g>
<!-- Node28 -->
<g id="node28" class="node">
<title>Node28</title>
<g id="a_node28"><a xlink:href="flcodec_8h.html" target="_top" xlink:title=" ">
<polygon fill="none" stroke="black" points="1216.5,-112.5 1216.5,-131.5 1276.5,-131.5 1276.5,-112.5 1216.5,-112.5"/>
<text text-anchor="middle" x="1246.5" y="-119.5" font-family="Helvetica,sans-Serif" font-size="10.00">flcodec.h</text>
</a>
</g>
</g>
<!-- Node3&#45;&gt;Node28 -->
<g id="edge27" class="edge">
<title>Node3&#45;&gt;Node28</title>
<path fill="none" stroke="midnightblue" d="M1246.5,-168.08C1246.5,-161.01 1246.5,-150.86 1246.5,-141.99"/>
<polygon fill="midnightblue" stroke="midnightblue" points="1250,-141.75 1246.5,-131.75 1243,-141.75 1250,-141.75"/>
</g>
<!-- Node30 -->
<g id="node30" class="node">
<title>Node30</title>
<g id="a_node30"><a xlink:title=" ">
<polygon fill="none" stroke="#bfbfbf" points="1295,-112.5 1295,-131.5 1386,-131.5 1386,-112.5 1295,-112.5"/>
<text text-anchor="middle" x="1340.5" y="-119.5" font-family="Helvetica,sans-Serif" font-size="10.00">spdlog/logger.h</text>
</a>
</g>
</g>
<!-- Node3&#45;&gt;Node30 -->
<g id="edge29" class="edge">
<title>Node3&#45;&gt;Node30</title>
<path fill="none" stroke="midnightblue" d="M1261.6,-168.32C1276.4,-159.82 1299.19,-146.73 1316.48,-136.8"/>
<polygon fill="midnightblue" stroke="midnightblue" points="1318.51,-139.67 1325.43,-131.65 1315.02,-133.6 1318.51,-139.67"/>
</g>
<!-- Node31 -->
<g id="node31" class="node">
<title>Node31</title>
<g id="a_node31"><a xlink:title=" ">
<polygon fill="none" stroke="#bfbfbf" points="1404.5,-112.5 1404.5,-131.5 1452.5,-131.5 1452.5,-112.5 1404.5,-112.5"/>
<text text-anchor="middle" x="1428.5" y="-119.5" font-family="Helvetica,sans-Serif" font-size="10.00">time.h</text>
</a>
</g>
</g>
<!-- Node3&#45;&gt;Node31 -->
<g id="edge30" class="edge">
<title>Node3&#45;&gt;Node31</title>
<path fill="none" stroke="midnightblue" d="M1271.81,-169.49C1303.72,-160.02 1358.72,-143.7 1394.34,-133.14"/>
<polygon fill="midnightblue" stroke="midnightblue" points="1395.69,-136.39 1404.28,-130.19 1393.7,-129.68 1395.69,-136.39"/>
</g>
<!-- Node32 -->
<g id="node32" class="node">
<title>Node32</title>
<g id="a_node32"><a xlink:title=" ">
<polygon fill="none" stroke="#bfbfbf" points="1470.5,-112.5 1470.5,-131.5 1526.5,-131.5 1526.5,-112.5 1470.5,-112.5"/>
<text text-anchor="middle" x="1498.5" y="-119.5" font-family="Helvetica,sans-Serif" font-size="10.00">plugin.h</text>
</a>
</g>
</g>
<!-- Node3&#45;&gt;Node32 -->
<g id="edge32" class="edge">
<title>Node3&#45;&gt;Node32</title>
<path fill="none" stroke="midnightblue" d="M1271.71,-172C1310.21,-164.3 1386.16,-148.88 1460.27,-132.22"/>
<polygon fill="midnightblue" stroke="midnightblue" points="1461.26,-135.59 1470.24,-129.97 1459.71,-128.76 1461.26,-135.59"/>
</g>
<!-- Node5 -->
<g id="node5" class="node">
<title>Node5</title>
<g id="a_node5"><a xlink:href="_singleton_8h.html" target="_top" xlink:title=" ">
<polygon fill="none" stroke="black" points="0,-56.5 0,-75.5 71,-75.5 71,-56.5 0,-56.5"/>
<text text-anchor="middle" x="35.5" y="-63.5" font-family="Helvetica,sans-Serif" font-size="10.00">Singleton.h</text>
</a>
</g>
</g>
<!-- Node4&#45;&gt;Node5 -->
<g id="edge4" class="edge">
<title>Node4&#45;&gt;Node5</title>
<path fill="none" stroke="midnightblue" d="M712.39,-120.38C622.15,-118.13 331.63,-108.74 81.3,-75.92"/>
<polygon fill="midnightblue" stroke="midnightblue" points="81.66,-72.44 71.29,-74.59 80.74,-79.38 81.66,-72.44"/>
</g>
<!-- Node7 -->
<g id="node7" class="node">
<title>Node7</title>
<g id="a_node7"><a xlink:href="blowfish_8h.html" target="_top" xlink:title=" ">
<polygon fill="none" stroke="black" points="89.5,-56.5 89.5,-75.5 155.5,-75.5 155.5,-56.5 89.5,-56.5"/>
<text text-anchor="middle" x="122.5" y="-63.5" font-family="Helvetica,sans-Serif" font-size="10.00">blowfish.h</text>
</a>
</g>
</g>
<!-- Node4&#45;&gt;Node7 -->
<g id="edge6" class="edge">
<title>Node4&#45;&gt;Node7</title>
<path fill="none" stroke="midnightblue" d="M712.48,-120.13C630.09,-117.3 381.37,-106.77 165.81,-76.01"/>
<polygon fill="midnightblue" stroke="midnightblue" points="166.3,-72.54 155.9,-74.58 165.29,-79.47 166.3,-72.54"/>
</g>
<!-- Node8 -->
<g id="node8" class="node">
<title>Node8</title>
<g id="a_node8"><a xlink:title=" ">
<polygon fill="none" stroke="#bfbfbf" points="173.5,-56.5 173.5,-75.5 237.5,-75.5 237.5,-56.5 173.5,-56.5"/>
<text text-anchor="middle" x="205.5" y="-63.5" font-family="Helvetica,sans-Serif" font-size="10.00">algorithm</text>
</a>
</g>
</g>
<!-- Node4&#45;&gt;Node8 -->
<g id="edge7" class="edge">
<title>Node4&#45;&gt;Node8</title>
<path fill="none" stroke="midnightblue" d="M712.5,-119.68C638.29,-115.92 430.37,-103.7 247.71,-76"/>
<polygon fill="midnightblue" stroke="midnightblue" points="248.07,-72.52 237.66,-74.46 247.01,-79.44 248.07,-72.52"/>
</g>
<!-- Node9 -->
<g id="node9" class="node">
<title>Node9</title>
<g id="a_node9"><a xlink:title=" ">
<polygon fill="none" stroke="#bfbfbf" points="255.5,-56.5 255.5,-75.5 297.5,-75.5 297.5,-56.5 255.5,-56.5"/>
<text text-anchor="middle" x="276.5" y="-63.5" font-family="Helvetica,sans-Serif" font-size="10.00">array</text>
</a>
</g>
</g>
<!-- Node4&#45;&gt;Node9 -->
<g id="edge8" class="edge">
<title>Node4&#45;&gt;Node9</title>
<path fill="none" stroke="midnightblue" d="M712.3,-119.91C644.17,-116.9 465.2,-106.66 307.55,-75.85"/>
<polygon fill="midnightblue" stroke="midnightblue" points="308.17,-72.41 297.68,-73.89 306.81,-79.27 308.17,-72.41"/>
</g>
<!-- Node10 -->
<g id="node10" class="node">
<title>Node10</title>
<g id="a_node10"><a xlink:title=" ">
<polygon fill="none" stroke="#bfbfbf" points="315.5,-56.5 315.5,-75.5 383.5,-75.5 383.5,-56.5 315.5,-56.5"/>
<text text-anchor="middle" x="349.5" y="-63.5" font-family="Helvetica,sans-Serif" font-size="10.00">filesystem</text>
</a>
</g>
</g>
<!-- Node4&#45;&gt;Node10 -->
<g id="edge9" class="edge">
<title>Node4&#45;&gt;Node10</title>
<path fill="none" stroke="midnightblue" d="M712.42,-118.12C654.69,-112.03 518.28,-96.83 393.81,-76.11"/>
<polygon fill="midnightblue" stroke="midnightblue" points="394.16,-72.62 383.72,-74.41 393,-79.52 394.16,-72.62"/>
</g>
<!-- Node11 -->
<g id="node11" class="node">
<title>Node11</title>
<g id="a_node11"><a xlink:title=" ">
<polygon fill="none" stroke="#bfbfbf" points="402,-56.5 402,-75.5 467,-75.5 467,-56.5 402,-56.5"/>
<text text-anchor="middle" x="434.5" y="-63.5" font-family="Helvetica,sans-Serif" font-size="10.00">functional</text>
</a>
</g>
</g>
<!-- Node4&#45;&gt;Node11 -->
<g id="edge10" class="edge">
<title>Node4&#45;&gt;Node11</title>
<path fill="none" stroke="midnightblue" d="M712.3,-116.59C665.63,-109.22 569.2,-93.61 477.08,-76.04"/>
<polygon fill="midnightblue" stroke="midnightblue" points="477.51,-72.56 467.03,-74.11 476.19,-79.43 477.51,-72.56"/>
</g>
<!-- Node12 -->
<g id="node12" class="node">
<title>Node12</title>
<g id="a_node12"><a xlink:title=" ">
<polygon fill="none" stroke="#bfbfbf" points="485.5,-56.5 485.5,-75.5 517.5,-75.5 517.5,-56.5 485.5,-56.5"/>
<text text-anchor="middle" x="501.5" y="-63.5" font-family="Helvetica,sans-Serif" font-size="10.00">list</text>
</a>
</g>
</g>
<!-- Node4&#45;&gt;Node12 -->
<g id="edge11" class="edge">
<title>Node4&#45;&gt;Node12</title>
<path fill="none" stroke="midnightblue" d="M712.5,-116.39C673.1,-109.62 598.97,-95.9 527.18,-75.88"/>
<polygon fill="midnightblue" stroke="midnightblue" points="528.11,-72.5 517.53,-73.14 526.2,-79.23 528.11,-72.5"/>
</g>
<!-- Node13 -->
<g id="node13" class="node">
<title>Node13</title>
<g id="a_node13"><a xlink:title=" ">
<polygon fill="none" stroke="#bfbfbf" points="535.5,-56.5 535.5,-75.5 573.5,-75.5 573.5,-56.5 535.5,-56.5"/>
<text text-anchor="middle" x="554.5" y="-63.5" font-family="Helvetica,sans-Serif" font-size="10.00">map</text>
</a>
</g>
</g>
<!-- Node4&#45;&gt;Node13 -->
<g id="edge12" class="edge">
<title>Node4&#45;&gt;Node13</title>
<path fill="none" stroke="midnightblue" d="M712.45,-113.32C682.71,-105.1 634.15,-91.51 583.56,-76.25"/>
<polygon fill="midnightblue" stroke="midnightblue" points="584.34,-72.83 573.75,-73.28 582.31,-79.53 584.34,-72.83"/>
</g>
<!-- Node14 -->
<g id="node14" class="node">
<title>Node14</title>
<g id="a_node14"><a xlink:title=" ">
<polygon fill="none" stroke="#bfbfbf" points="591.5,-56.5 591.5,-75.5 623.5,-75.5 623.5,-56.5 591.5,-56.5"/>
<text text-anchor="middle" x="607.5" y="-63.5" font-family="Helvetica,sans-Serif" font-size="10.00">set</text>
</a>
</g>
</g>
<!-- Node4&#45;&gt;Node14 -->
<g id="edge13" class="edge">
<title>Node4&#45;&gt;Node14</title>
<path fill="none" stroke="midnightblue" d="M719.43,-112.44C696.12,-102.98 658.56,-87.73 633.46,-77.54"/>
<polygon fill="midnightblue" stroke="midnightblue" points="634.45,-74.16 623.86,-73.64 631.81,-80.65 634.45,-74.16"/>
</g>
<!-- Node15 -->
<g id="node15" class="node">
<title>Node15</title>
<g id="a_node15"><a xlink:title=" ">
<polygon fill="none" stroke="#bfbfbf" points="641.5,-56.5 641.5,-75.5 697.5,-75.5 697.5,-56.5 641.5,-56.5"/>
<text text-anchor="middle" x="669.5" y="-63.5" font-family="Helvetica,sans-Serif" font-size="10.00">sstream</text>
</a>
</g>
</g>
<!-- Node4&#45;&gt;Node15 -->
<g id="edge14" class="edge">
<title>Node4&#45;&gt;Node15</title>
<path fill="none" stroke="midnightblue" d="M729.09,-112.32C718.39,-104.18 702.16,-91.84 689.34,-82.09"/>
<polygon fill="midnightblue" stroke="midnightblue" points="691.19,-79.1 681.11,-75.83 686.96,-84.67 691.19,-79.1"/>
</g>
<!-- Node16 -->
<g id="node16" class="node">
<title>Node16</title>
<g id="a_node16"><a xlink:title=" ">
<polygon fill="none" stroke="#bfbfbf" points="715.5,-56.5 715.5,-75.5 765.5,-75.5 765.5,-56.5 715.5,-56.5"/>
<text text-anchor="middle" x="740.5" y="-63.5" font-family="Helvetica,sans-Serif" font-size="10.00">stdio.h</text>
</a>
</g>
</g>
<!-- Node4&#45;&gt;Node16 -->
<g id="edge15" class="edge">
<title>Node4&#45;&gt;Node16</title>
<path fill="none" stroke="midnightblue" d="M740.5,-112.08C740.5,-105.01 740.5,-94.86 740.5,-85.99"/>
<polygon fill="midnightblue" stroke="midnightblue" points="744,-85.75 740.5,-75.75 737,-85.75 744,-85.75"/>
</g>
<!-- Node17 -->
<g id="node17" class="node">
<title>Node17</title>
<g id="a_node17"><a xlink:title=" ">
<polygon fill="none" stroke="#bfbfbf" points="783.5,-56.5 783.5,-75.5 827.5,-75.5 827.5,-56.5 783.5,-56.5"/>
<text text-anchor="middle" x="805.5" y="-63.5" font-family="Helvetica,sans-Serif" font-size="10.00">string</text>
</a>
</g>
</g>
<!-- Node4&#45;&gt;Node17 -->
<g id="edge16" class="edge">
<title>Node4&#45;&gt;Node17</title>
<path fill="none" stroke="midnightblue" d="M750.94,-112.32C760.65,-104.26 775.32,-92.08 787,-82.37"/>
<polygon fill="midnightblue" stroke="midnightblue" points="789.41,-84.92 794.87,-75.83 784.94,-79.53 789.41,-84.92"/>
</g>
<!-- Node4&#45;&gt;Node18 -->
<g id="edge17" class="edge">
<title>Node4&#45;&gt;Node18</title>
<path fill="none" stroke="midnightblue" d="M768.69,-120.17C890.44,-116.46 1372.39,-100.62 1545.64,-75.75"/>
<polygon fill="midnightblue" stroke="midnightblue" points="1546.25,-79.2 1555.62,-74.26 1545.22,-72.28 1546.25,-79.2"/>
</g>
<!-- Node19 -->
<g id="node19" class="node">
<title>Node19</title>
<g id="a_node19"><a xlink:title=" ">
<polygon fill="none" stroke="#bfbfbf" points="845.5,-56.5 845.5,-75.5 913.5,-75.5 913.5,-56.5 845.5,-56.5"/>
<text text-anchor="middle" x="879.5" y="-63.5" font-family="Helvetica,sans-Serif" font-size="10.00">windows.h</text>
</a>
</g>
</g>
<!-- Node4&#45;&gt;Node19 -->
<g id="edge18" class="edge">
<title>Node4&#45;&gt;Node19</title>
<path fill="none" stroke="midnightblue" d="M762.52,-112.44C785.6,-103.48 822.06,-89.31 848.14,-79.18"/>
<polygon fill="midnightblue" stroke="midnightblue" points="849.52,-82.4 857.58,-75.52 846.99,-75.88 849.52,-82.4"/>
</g>
<!-- Node20 -->
<g id="node20" class="node">
<title>Node20</title>
<g id="a_node20"><a xlink:title=" ">
<polygon fill="none" stroke="#bfbfbf" points="931.5,-56.5 931.5,-75.5 1035.5,-75.5 1035.5,-56.5 931.5,-56.5"/>
<text text-anchor="middle" x="983.5" y="-63.5" font-family="Helvetica,sans-Serif" font-size="10.00">FLCoreCommon.h</text>
</a>
</g>
</g>
<!-- Node4&#45;&gt;Node20 -->
<g id="edge19" class="edge">
<title>Node4&#45;&gt;Node20</title>
<path fill="none" stroke="midnightblue" d="M768.85,-114.7C809.61,-105.64 885.33,-88.82 935.06,-77.76"/>
<polygon fill="midnightblue" stroke="midnightblue" points="935.95,-81.15 944.95,-75.57 934.43,-74.32 935.95,-81.15"/>
</g>
<!-- Node21 -->
<g id="node21" class="node">
<title>Node21</title>
<g id="a_node21"><a xlink:title=" ">
<polygon fill="none" stroke="#bfbfbf" points="1053.5,-56.5 1053.5,-75.5 1141.5,-75.5 1141.5,-56.5 1053.5,-56.5"/>
<text text-anchor="middle" x="1097.5" y="-63.5" font-family="Helvetica,sans-Serif" font-size="10.00">FLCoreDALib.h</text>
</a>
</g>
</g>
<!-- Node4&#45;&gt;Node21 -->
<g id="edge20" class="edge">
<title>Node4&#45;&gt;Node21</title>
<path fill="none" stroke="midnightblue" d="M768.61,-117.04C820.66,-109.67 935.82,-93.16 1043.23,-76.18"/>
<polygon fill="midnightblue" stroke="midnightblue" points="1043.94,-79.61 1053.27,-74.58 1042.84,-72.69 1043.94,-79.61"/>
</g>
<!-- Node22 -->
<g id="node22" class="node">
<title>Node22</title>
<g id="a_node22"><a xlink:title=" ">
<polygon fill="none" stroke="#bfbfbf" points="1159.5,-56.5 1159.5,-75.5 1285.5,-75.5 1285.5,-56.5 1159.5,-56.5"/>
<text text-anchor="middle" x="1222.5" y="-63.5" font-family="Helvetica,sans-Serif" font-size="10.00">FLCoreRemoteClient.h</text>
</a>
</g>
</g>
<!-- Node4&#45;&gt;Node22 -->
<g id="edge21" class="edge">
<title>Node4&#45;&gt;Node22</title>
<path fill="none" stroke="midnightblue" d="M768.85,-118.04C833.97,-111.2 999.53,-93.63 1149.01,-76.16"/>
<polygon fill="midnightblue" stroke="midnightblue" points="1149.77,-79.6 1159.29,-74.96 1148.95,-72.64 1149.77,-79.6"/>
</g>
<!-- Node23 -->
<g id="node23" class="node">
<title>Node23</title>
<g id="a_node23"><a xlink:title=" ">
<polygon fill="none" stroke="#bfbfbf" points="1303.5,-56.5 1303.5,-75.5 1393.5,-75.5 1393.5,-56.5 1303.5,-56.5"/>
<text text-anchor="middle" x="1348.5" y="-63.5" font-family="Helvetica,sans-Serif" font-size="10.00">FLCoreServer.h</text>
</a>
</g>
</g>
<!-- Node4&#45;&gt;Node23 -->
<g id="edge22" class="edge">
<title>Node4&#45;&gt;Node23</title>
<path fill="none" stroke="midnightblue" d="M768.54,-119.56C848.7,-115.26 1085.82,-101.31 1293.29,-76.05"/>
<polygon fill="midnightblue" stroke="midnightblue" points="1293.96,-79.49 1303.46,-74.8 1293.11,-72.54 1293.96,-79.49"/>
</g>
<!-- Node24 -->
<g id="node24" class="node">
<title>Node24</title>
<g id="a_node24"><a xlink:href="_serialization_8hpp.html" target="_top" xlink:title=" ">
<polygon fill="none" stroke="black" points="1411.5,-56.5 1411.5,-75.5 1537.5,-75.5 1537.5,-56.5 1411.5,-56.5"/>
<text text-anchor="middle" x="1474.5" y="-63.5" font-family="Helvetica,sans-Serif" font-size="10.00">Tools/Serialization.hpp</text>
</a>
</g>
</g>
<!-- Node4&#45;&gt;Node24 -->
<g id="edge23" class="edge">
<title>Node4&#45;&gt;Node24</title>
<path fill="none" stroke="midnightblue" d="M768.62,-119.66C858.87,-115.23 1149.6,-100.04 1401.24,-76.07"/>
<polygon fill="midnightblue" stroke="midnightblue" points="1401.69,-79.54 1411.31,-75.1 1401.02,-72.57 1401.69,-79.54"/>
</g>
<!-- Node6 -->
<g id="node6" class="node">
<title>Node6</title>
<g id="a_node6"><a xlink:title=" ">
<polygon fill="none" stroke="#bfbfbf" points="6.5,-0.5 6.5,-19.5 64.5,-19.5 64.5,-0.5 6.5,-0.5"/>
<text text-anchor="middle" x="35.5" y="-7.5" font-family="Helvetica,sans-Serif" font-size="10.00">memory</text>
</a>
</g>
</g>
<!-- Node5&#45;&gt;Node6 -->
<g id="edge5" class="edge">
<title>Node5&#45;&gt;Node6</title>
<path fill="none" stroke="midnightblue" d="M35.5,-56.08C35.5,-49.01 35.5,-38.86 35.5,-29.99"/>
<polygon fill="midnightblue" stroke="midnightblue" points="39,-29.75 35.5,-19.75 32,-29.75 39,-29.75"/>
</g>
<!-- Node25 -->
<g id="node25" class="node">
<title>Node25</title>
<g id="a_node25"><a xlink:title=" ">
<polygon fill="none" stroke="#bfbfbf" points="1346,-0.5 1346,-19.5 1401,-19.5 1401,-0.5 1346,-0.5"/>
<text text-anchor="middle" x="1373.5" y="-7.5" font-family="Helvetica,sans-Serif" font-size="10.00">fstream</text>
</a>
</g>
</g>
<!-- Node24&#45;&gt;Node25 -->
<g id="edge24" class="edge">
<title>Node24&#45;&gt;Node25</title>
<path fill="none" stroke="midnightblue" d="M1458.27,-56.32C1442.15,-47.7 1417.2,-34.36 1398.54,-24.39"/>
<polygon fill="midnightblue" stroke="midnightblue" points="1400.16,-21.28 1389.69,-19.65 1396.86,-27.46 1400.16,-21.28"/>
</g>
<!-- Node26 -->
<g id="node26" class="node">
<title>Node26</title>
<g id="a_node26"><a xlink:title=" ">
<polygon fill="none" stroke="#bfbfbf" points="1419.5,-0.5 1419.5,-19.5 1529.5,-19.5 1529.5,-0.5 1419.5,-0.5"/>
<text text-anchor="middle" x="1474.5" y="-7.5" font-family="Helvetica,sans-Serif" font-size="10.00">nlohmann/json.hpp</text>
</a>
</g>
</g>
<!-- Node24&#45;&gt;Node26 -->
<g id="edge25" class="edge">
<title>Node24&#45;&gt;Node26</title>
<path fill="none" stroke="midnightblue" d="M1474.5,-56.08C1474.5,-49.01 1474.5,-38.86 1474.5,-29.99"/>
<polygon fill="midnightblue" stroke="midnightblue" points="1478,-29.75 1474.5,-19.75 1471,-29.75 1478,-29.75"/>
</g>
<!-- Node27 -->
<g id="node27" class="node">
<title>Node27</title>
<g id="a_node27"><a xlink:title=" ">
<polygon fill="none" stroke="#bfbfbf" points="1548,-0.5 1548,-19.5 1601,-19.5 1601,-0.5 1548,-0.5"/>
<text text-anchor="middle" x="1574.5" y="-7.5" font-family="Helvetica,sans-Serif" font-size="10.00">refl.hpp</text>
</a>
</g>
</g>
<!-- Node24&#45;&gt;Node27 -->
<g id="edge26" class="edge">
<title>Node24&#45;&gt;Node27</title>
<path fill="none" stroke="midnightblue" d="M1490.57,-56.32C1506.46,-47.74 1531.01,-34.49 1549.46,-24.52"/>
<polygon fill="midnightblue" stroke="midnightblue" points="1551.34,-27.49 1558.47,-19.65 1548.01,-21.33 1551.34,-27.49"/>
</g>
<!-- Node29 -->
<g id="node29" class="node">
<title>Node29</title>
<g id="a_node29"><a xlink:title=" ">
<polygon fill="none" stroke="#bfbfbf" points="1625.5,-56.5 1625.5,-75.5 1707.5,-75.5 1707.5,-56.5 1625.5,-56.5"/>
<text text-anchor="middle" x="1666.5" y="-63.5" font-family="Helvetica,sans-Serif" font-size="10.00">FLCoreDefs.h</text>
</a>
</g>
</g>
<!-- Node28&#45;&gt;Node29 -->
<g id="edge28" class="edge">
<title>Node28&#45;&gt;Node29</title>
<path fill="none" stroke="midnightblue" d="M1276.57,-113.85C1279.91,-113.17 1283.27,-112.54 1286.5,-112 1428.76,-88.31 1468.7,-96.68 1615.07,-76.11"/>
<polygon fill="midnightblue" stroke="midnightblue" points="1615.93,-79.52 1625.34,-74.64 1614.94,-72.59 1615.93,-79.52"/>
</g>
</g>
</svg>
