<?xml version="1.0" encoding="UTF-8" standalone="no"?>
<!DOCTYPE svg PUBLIC "-//W3C//DTD SVG 1.1//EN"
 "http://www.w3.org/Graphics/SVG/1.1/DTD/svg11.dtd">
<!-- Generated by graphviz version 2.43.0 (0)
 -->
<!-- Title: source/CCmds.h Pages: 1 -->
<svg width="687pt" height="196pt"
 viewBox="0.00 0.00 687.00 196.00" xmlns="http://www.w3.org/2000/svg" xmlns:xlink="http://www.w3.org/1999/xlink">
<g id="graph0" class="graph" transform="scale(1 1) rotate(0) translate(4 192)">
<title>source/CCmds.h</title>
<!-- Node1 -->
<g id="node1" class="node">
<title>Node1</title>
<g id="a_node1"><a xlink:title=" ">
<polygon fill="#bfbfbf" stroke="black" points="269.5,-168.5 269.5,-187.5 364.5,-187.5 364.5,-168.5 269.5,-168.5"/>
<text text-anchor="middle" x="317" y="-175.5" font-family="Helvetica,sans-Serif" font-size="10.00">source/CCmds.h</text>
</a>
</g>
</g>
<!-- Node2 -->
<g id="node2" class="node">
<title>Node2</title>
<g id="a_node2"><a xlink:href="_c_cmds_8cpp.html" target="_top" xlink:title=" ">
<polygon fill="none" stroke="black" points="13.5,-112.5 13.5,-131.5 120.5,-131.5 120.5,-112.5 13.5,-112.5"/>
<text text-anchor="middle" x="67" y="-119.5" font-family="Helvetica,sans-Serif" font-size="10.00">source/CCmds.cpp</text>
</a>
</g>
</g>
<!-- Node1&#45;&gt;Node2 -->
<g id="edge1" class="edge">
<title>Node1&#45;&gt;Node2</title>
<path fill="none" stroke="midnightblue" d="M267.38,-166.28C220.13,-156.08 149.96,-140.92 106.43,-131.52"/>
<polygon fill="midnightblue" stroke="midnightblue" points="266.87,-169.75 277.39,-168.44 268.35,-162.91 266.87,-169.75"/>
</g>
<!-- Node3 -->
<g id="node3" class="node">
<title>Node3</title>
<g id="a_node3"><a xlink:href="_c_console_8h.html" target="_top" xlink:title=" ">
<polygon fill="none" stroke="black" points="138.5,-112.5 138.5,-131.5 245.5,-131.5 245.5,-112.5 138.5,-112.5"/>
<text text-anchor="middle" x="192" y="-119.5" font-family="Helvetica,sans-Serif" font-size="10.00">source/CConsole.h</text>
</a>
</g>
</g>
<!-- Node1&#45;&gt;Node3 -->
<g id="edge2" class="edge">
<title>Node1&#45;&gt;Node3</title>
<path fill="none" stroke="midnightblue" d="M287.76,-164.37C264.35,-154.26 232.16,-140.35 211.71,-131.52"/>
<polygon fill="midnightblue" stroke="midnightblue" points="286.63,-167.69 297.19,-168.44 289.4,-161.26 286.63,-167.69"/>
</g>
<!-- Node6 -->
<g id="node6" class="node">
<title>Node6</title>
<g id="a_node6"><a xlink:href="_c_in_game_8h.html" target="_top" xlink:title=" ">
<polygon fill="none" stroke="black" points="397,-112.5 397,-131.5 503,-131.5 503,-112.5 397,-112.5"/>
<text text-anchor="middle" x="450" y="-119.5" font-family="Helvetica,sans-Serif" font-size="10.00">source/CInGame.h</text>
</a>
</g>
</g>
<!-- Node1&#45;&gt;Node6 -->
<g id="edge5" class="edge">
<title>Node1&#45;&gt;Node6</title>
<path fill="none" stroke="midnightblue" d="M347.45,-164.64C372.41,-154.5 407.08,-140.43 429.02,-131.52"/>
<polygon fill="midnightblue" stroke="midnightblue" points="346.02,-161.44 338.07,-168.44 348.66,-167.92 346.02,-161.44"/>
</g>
<!-- Node10 -->
<g id="node10" class="node">
<title>Node10</title>
<g id="a_node10"><a xlink:href="_c_socket_8h.html" target="_top" xlink:title=" ">
<polygon fill="none" stroke="black" points="267,-112.5 267,-131.5 367,-131.5 367,-112.5 267,-112.5"/>
<text text-anchor="middle" x="317" y="-119.5" font-family="Helvetica,sans-Serif" font-size="10.00">source/CSocket.h</text>
</a>
</g>
</g>
<!-- Node1&#45;&gt;Node10 -->
<g id="edge9" class="edge">
<title>Node1&#45;&gt;Node10</title>
<path fill="none" stroke="midnightblue" d="M317,-157.8C317,-148.91 317,-138.78 317,-131.75"/>
<polygon fill="midnightblue" stroke="midnightblue" points="313.5,-158.08 317,-168.08 320.5,-158.08 313.5,-158.08"/>
</g>
<!-- Node12 -->
<g id="node12" class="node">
<title>Node12</title>
<g id="a_node12"><a xlink:href="_hk_plugin_manager_8cpp.html" target="_top" xlink:title=" ">
<polygon fill="none" stroke="black" points="521,-112.5 521,-131.5 679,-131.5 679,-112.5 521,-112.5"/>
<text text-anchor="middle" x="600" y="-119.5" font-family="Helvetica,sans-Serif" font-size="10.00">source/HkPluginManager.cpp</text>
</a>
</g>
</g>
<!-- Node1&#45;&gt;Node12 -->
<g id="edge12" class="edge">
<title>Node1&#45;&gt;Node12</title>
<path fill="none" stroke="midnightblue" d="M371.83,-166.54C425.32,-156.33 505.67,-141 555.37,-131.52"/>
<polygon fill="midnightblue" stroke="midnightblue" points="371.01,-163.13 361.84,-168.44 372.32,-170.01 371.01,-163.13"/>
</g>
<!-- Node4 -->
<g id="node4" class="node">
<title>Node4</title>
<g id="a_node4"><a xlink:href="_c_console_8cpp.html" target="_top" xlink:title=" ">
<polygon fill="none" stroke="black" points="0,-56.5 0,-75.5 118,-75.5 118,-56.5 0,-56.5"/>
<text text-anchor="middle" x="59" y="-63.5" font-family="Helvetica,sans-Serif" font-size="10.00">source/CConsole.cpp</text>
</a>
</g>
</g>
<!-- Node3&#45;&gt;Node4 -->
<g id="edge3" class="edge">
<title>Node3&#45;&gt;Node4</title>
<path fill="none" stroke="midnightblue" d="M161.55,-108.64C136.59,-98.5 101.92,-84.43 79.98,-75.52"/>
<polygon fill="midnightblue" stroke="midnightblue" points="160.34,-111.92 170.93,-112.44 162.98,-105.44 160.34,-111.92"/>
</g>
<!-- Node5 -->
<g id="node5" class="node">
<title>Node5</title>
<g id="a_node5"><a xlink:href="_f_l_hook_8cpp.html" target="_top" xlink:title=" ">
<polygon fill="none" stroke="black" points="136.5,-56.5 136.5,-75.5 245.5,-75.5 245.5,-56.5 136.5,-56.5"/>
<text text-anchor="middle" x="191" y="-63.5" font-family="Helvetica,sans-Serif" font-size="10.00">source/FLHook.cpp</text>
</a>
</g>
</g>
<!-- Node3&#45;&gt;Node5 -->
<g id="edge4" class="edge">
<title>Node3&#45;&gt;Node5</title>
<path fill="none" stroke="midnightblue" d="M191.64,-101.8C191.48,-92.91 191.29,-82.78 191.16,-75.75"/>
<polygon fill="midnightblue" stroke="midnightblue" points="188.15,-102.15 191.83,-112.08 195.15,-102.02 188.15,-102.15"/>
</g>
<!-- Node7 -->
<g id="node7" class="node">
<title>Node7</title>
<g id="a_node7"><a xlink:href="_c_in_game_8cpp.html" target="_top" xlink:title=" ">
<polygon fill="none" stroke="black" points="547.5,-56.5 547.5,-75.5 664.5,-75.5 664.5,-56.5 547.5,-56.5"/>
<text text-anchor="middle" x="606" y="-63.5" font-family="Helvetica,sans-Serif" font-size="10.00">source/CInGame.cpp</text>
</a>
</g>
</g>
<!-- Node6&#45;&gt;Node7 -->
<g id="edge6" class="edge">
<title>Node6&#45;&gt;Node7</title>
<path fill="none" stroke="midnightblue" d="M484.17,-109.17C513.54,-99 555.2,-84.59 581.4,-75.52"/>
<polygon fill="midnightblue" stroke="midnightblue" points="483.02,-105.86 474.72,-112.44 485.31,-112.48 483.02,-105.86"/>
</g>
<!-- Node8 -->
<g id="node8" class="node">
<title>Node8</title>
<g id="a_node8"><a xlink:href="_hk_i_server_impl_8inl.html" target="_top" xlink:title=" ">
<polygon fill="none" stroke="black" points="392.5,-56.5 392.5,-75.5 529.5,-75.5 529.5,-56.5 392.5,-56.5"/>
<text text-anchor="middle" x="461" y="-63.5" font-family="Helvetica,sans-Serif" font-size="10.00">source/HkIServerImpl.inl</text>
</a>
</g>
</g>
<!-- Node6&#45;&gt;Node8 -->
<g id="edge7" class="edge">
<title>Node6&#45;&gt;Node8</title>
<path fill="none" stroke="midnightblue" d="M453.85,-102.1C455.68,-93.14 457.77,-82.86 459.22,-75.75"/>
<polygon fill="midnightblue" stroke="midnightblue" points="450.38,-101.59 451.82,-112.08 457.24,-102.98 450.38,-101.59"/>
</g>
<!-- Node9 -->
<g id="node9" class="node">
<title>Node9</title>
<g id="a_node9"><a xlink:href="_hk_client_server_interface_8cpp.html" target="_top" xlink:title=" ">
<polygon fill="none" stroke="black" points="366.5,-0.5 366.5,-19.5 555.5,-19.5 555.5,-0.5 366.5,-0.5"/>
<text text-anchor="middle" x="461" y="-7.5" font-family="Helvetica,sans-Serif" font-size="10.00">source/HkClientServerInterface.cpp</text>
</a>
</g>
</g>
<!-- Node8&#45;&gt;Node9 -->
<g id="edge8" class="edge">
<title>Node8&#45;&gt;Node9</title>
<path fill="none" stroke="midnightblue" d="M461,-45.8C461,-36.91 461,-26.78 461,-19.75"/>
<polygon fill="midnightblue" stroke="midnightblue" points="457.5,-46.08 461,-56.08 464.5,-46.08 457.5,-46.08"/>
</g>
<!-- Node10&#45;&gt;Node5 -->
<g id="edge11" class="edge">
<title>Node10&#45;&gt;Node5</title>
<path fill="none" stroke="midnightblue" d="M287.84,-108.5C264.22,-98.38 231.57,-84.39 210.87,-75.52"/>
<polygon fill="midnightblue" stroke="midnightblue" points="286.46,-111.72 297.03,-112.44 289.22,-105.29 286.46,-111.72"/>
</g>
<!-- Node11 -->
<g id="node11" class="node">
<title>Node11</title>
<g id="a_node11"><a xlink:href="_c_socket_8cpp.html" target="_top" xlink:title=" ">
<polygon fill="none" stroke="black" points="263.5,-56.5 263.5,-75.5 374.5,-75.5 374.5,-56.5 263.5,-56.5"/>
<text text-anchor="middle" x="319" y="-63.5" font-family="Helvetica,sans-Serif" font-size="10.00">source/CSocket.cpp</text>
</a>
</g>
</g>
<!-- Node10&#45;&gt;Node11 -->
<g id="edge10" class="edge">
<title>Node10&#45;&gt;Node11</title>
<path fill="none" stroke="midnightblue" d="M317.71,-101.8C318.04,-92.91 318.42,-82.78 318.68,-75.75"/>
<polygon fill="midnightblue" stroke="midnightblue" points="314.2,-101.96 317.33,-112.08 321.2,-102.22 314.2,-101.96"/>
</g>
</g>
</svg>
