<?xml version="1.0" encoding="UTF-8" standalone="no"?>
<!DOCTYPE svg PUBLIC "-//W3C//DTD SVG 1.1//EN"
 "http://www.w3.org/Graphics/SVG/1.1/DTD/svg11.dtd">
<!-- Generated by graphviz version 2.43.0 (0)
 -->
<!-- Title: source/CSocket.cpp Pages: 1 -->
<svg width="119pt" height="137pt"
 viewBox="0.00 0.00 119.00 137.00" xmlns="http://www.w3.org/2000/svg" xmlns:xlink="http://www.w3.org/1999/xlink">
<g id="graph0" class="graph" transform="scale(1 1) rotate(0) translate(4 133)">
<title>source/CSocket.cpp</title>
<!-- Node1 -->
<g id="node1" class="node">
<title>Node1</title>
<g id="a_node1"><a xlink:title=" ">
<polygon fill="#999999" stroke="#666666" points="111,-129 0,-129 0,-110 111,-110 111,-129"/>
<text text-anchor="middle" x="55.5" y="-117" font-family="Helvetica,sans-Serif" font-size="10.00">source/CSocket.cpp</text>
</a>
</g>
</g>
<!-- Node2 -->
<g id="node2" class="node">
<title>Node2</title>
<g id="a_node2"><a xlink:href="_c_socket_8h.html" target="_top" xlink:title=" ">
<polygon fill="white" stroke="#666666" points="88,-74 23,-74 23,-55 88,-55 88,-74"/>
<text text-anchor="middle" x="55.5" y="-62" font-family="Helvetica,sans-Serif" font-size="10.00">CSocket.h</text>
</a>
</g>
</g>
<!-- Node1&#45;&gt;Node2 -->
<g id="edge1" class="edge">
<title>Node1&#45;&gt;Node2</title>
<path fill="none" stroke="#63b8ff" d="M55.5,-109.75C55.5,-102.8 55.5,-92.85 55.5,-84.13"/>
<polygon fill="#63b8ff" stroke="#63b8ff" points="59,-84.09 55.5,-74.09 52,-84.09 59,-84.09"/>
</g>
<!-- Node3 -->
<g id="node3" class="node">
<title>Node3</title>
<g id="a_node3"><a xlink:title=" ">
<polygon fill="#e0e0e0" stroke="#999999" points="92.5,-19 18.5,-19 18.5,0 92.5,0 92.5,-19"/>
<text text-anchor="middle" x="55.5" y="-7" font-family="Helvetica,sans-Serif" font-size="10.00">FLHook.hpp</text>
</a>
</g>
</g>
<!-- Node2&#45;&gt;Node3 -->
<g id="edge2" class="edge">
<title>Node2&#45;&gt;Node3</title>
<path fill="none" stroke="#63b8ff" d="M55.5,-54.75C55.5,-47.8 55.5,-37.85 55.5,-29.13"/>
<polygon fill="#63b8ff" stroke="#63b8ff" points="59,-29.09 55.5,-19.09 52,-29.09 59,-29.09"/>
</g>
</g>
</svg>
