<?xml version="1.0" encoding="UTF-8" standalone="no"?>
<!DOCTYPE svg PUBLIC "-//W3C//DTD SVG 1.1//EN"
 "http://www.w3.org/Graphics/SVG/1.1/DTD/svg11.dtd">
<!-- Generated by graphviz version 2.43.0 (0)
 -->
<!-- Title: plugins/cash_manager/CashManager.h Pages: 1 -->
<svg width="278pt" height="104pt"
 viewBox="0.00 0.00 278.00 104.00" xmlns="http://www.w3.org/2000/svg" xmlns:xlink="http://www.w3.org/1999/xlink">
<g id="graph0" class="graph" transform="scale(1 1) rotate(0) translate(4 100)">
<title>plugins/cash_manager/CashManager.h</title>
<!-- Node1 -->
<g id="node1" class="node">
<title>Node1</title>
<g id="a_node1"><a xlink:title=" ">
<polygon fill="#999999" stroke="#666666" points="198,-96 72,-96 72,-66 198,-66 198,-96"/>
<text text-anchor="start" x="80" y="-84" font-family="Helvetica,sans-Serif" font-size="10.00">plugins/cash_manager</text>
<text text-anchor="middle" x="135" y="-73" font-family="Helvetica,sans-Serif" font-size="10.00">/CashManager.h</text>
</a>
</g>
</g>
<!-- Node2 -->
<g id="node2" class="node">
<title>Node2</title>
<g id="a_node2"><a xlink:href="_cash_manager_8cpp.html" target="_top" xlink:title=" ">
<polygon fill="white" stroke="#666666" points="126,-30 0,-30 0,0 126,0 126,-30"/>
<text text-anchor="start" x="8" y="-18" font-family="Helvetica,sans-Serif" font-size="10.00">plugins/cash_manager</text>
<text text-anchor="middle" x="63" y="-7" font-family="Helvetica,sans-Serif" font-size="10.00">/CashManager.cpp</text>
</a>
</g>
</g>
<!-- Node1&#45;&gt;Node2 -->
<g id="edge1" class="edge">
<title>Node1&#45;&gt;Node2</title>
<path fill="none" stroke="#63b8ff" d="M111.29,-58.92C100.67,-49.49 88.43,-38.61 78.93,-30.16"/>
<polygon fill="#63b8ff" stroke="#63b8ff" points="109.22,-61.77 119.02,-65.8 113.87,-56.54 109.22,-61.77"/>
</g>
<!-- Node3 -->
<g id="node3" class="node">
<title>Node3</title>
<g id="a_node3"><a xlink:href="cash__manager_2_sql_8cpp.html" target="_top" xlink:title=" ">
<polygon fill="white" stroke="#666666" points="270,-30 144,-30 144,0 270,0 270,-30"/>
<text text-anchor="start" x="152" y="-18" font-family="Helvetica,sans-Serif" font-size="10.00">plugins/cash_manager</text>
<text text-anchor="middle" x="207" y="-7" font-family="Helvetica,sans-Serif" font-size="10.00">/Sql.cpp</text>
</a>
</g>
</g>
<!-- Node1&#45;&gt;Node3 -->
<g id="edge2" class="edge">
<title>Node1&#45;&gt;Node3</title>
<path fill="none" stroke="#63b8ff" d="M158.71,-58.92C169.33,-49.49 181.57,-38.61 191.07,-30.16"/>
<polygon fill="#63b8ff" stroke="#63b8ff" points="156.13,-56.54 150.98,-65.8 160.78,-61.77 156.13,-56.54"/>
</g>
</g>
</svg>
