<?xml version="1.0" encoding="UTF-8" standalone="no"?>
<!DOCTYPE svg PUBLIC "-//W3C//DTD SVG 1.1//EN"
 "http://www.w3.org/Graphics/SVG/1.1/DTD/svg11.dtd">
<!-- Generated by graphviz version 2.43.0 (0)
 -->
<!-- Title: source/Tools/Console.cpp Pages: 1 -->
<svg width="1679pt" height="196pt"
 viewBox="0.00 0.00 1679.00 196.00" xmlns="http://www.w3.org/2000/svg" xmlns:xlink="http://www.w3.org/1999/xlink">
<g id="graph0" class="graph" transform="scale(1 1) rotate(0) translate(4 192)">
<title>source/Tools/Console.cpp</title>
<!-- Node1 -->
<g id="node1" class="node">
<title>Node1</title>
<g id="a_node1"><a xlink:title=" ">
<polygon fill="#bfbfbf" stroke="black" points="636,-168.5 636,-187.5 775,-187.5 775,-168.5 636,-168.5"/>
<text text-anchor="middle" x="705.5" y="-175.5" font-family="Helvetica,sans-Serif" font-size="10.00">source/Tools/Console.cpp</text>
</a>
</g>
</g>
<!-- Node2 -->
<g id="node2" class="node">
<title>Node2</title>
<g id="a_node2"><a xlink:href="global_8h.html" target="_top" xlink:title=" ">
<polygon fill="none" stroke="black" points="641.5,-112.5 641.5,-131.5 697.5,-131.5 697.5,-112.5 641.5,-112.5"/>
<text text-anchor="middle" x="669.5" y="-119.5" font-family="Helvetica,sans-Serif" font-size="10.00">global.h</text>
</a>
</g>
</g>
<!-- Node1&#45;&gt;Node2 -->
<g id="edge1" class="edge">
<title>Node1&#45;&gt;Node2</title>
<path fill="none" stroke="midnightblue" d="M699.56,-168.08C694.52,-160.53 687.16,-149.49 680.99,-140.23"/>
<polygon fill="midnightblue" stroke="midnightblue" points="683.79,-138.13 675.33,-131.75 677.97,-142.01 683.79,-138.13"/>
</g>
<!-- Node26 -->
<g id="node26" class="node">
<title>Node26</title>
<g id="a_node26"><a xlink:title=" ">
<polygon fill="none" stroke="#bfbfbf" points="716,-112.5 716,-131.5 767,-131.5 767,-112.5 716,-112.5"/>
<text text-anchor="middle" x="741.5" y="-119.5" font-family="Helvetica,sans-Serif" font-size="10.00">intrin.h</text>
</a>
</g>
</g>
<!-- Node1&#45;&gt;Node26 -->
<g id="edge25" class="edge">
<title>Node1&#45;&gt;Node26</title>
<path fill="none" stroke="midnightblue" d="M711.44,-168.08C716.48,-160.53 723.84,-149.49 730.01,-140.23"/>
<polygon fill="midnightblue" stroke="midnightblue" points="733.03,-142.01 735.67,-131.75 727.21,-138.13 733.03,-142.01"/>
</g>
<!-- Node3 -->
<g id="node3" class="node">
<title>Node3</title>
<g id="a_node3"><a xlink:href="_singleton_8h.html" target="_top" xlink:title=" ">
<polygon fill="none" stroke="black" points="0,-56.5 0,-75.5 71,-75.5 71,-56.5 0,-56.5"/>
<text text-anchor="middle" x="35.5" y="-63.5" font-family="Helvetica,sans-Serif" font-size="10.00">Singleton.h</text>
</a>
</g>
</g>
<!-- Node2&#45;&gt;Node3 -->
<g id="edge2" class="edge">
<title>Node2&#45;&gt;Node3</title>
<path fill="none" stroke="midnightblue" d="M641.47,-120.06C557.9,-117.02 303,-105.89 81.48,-75.96"/>
<polygon fill="midnightblue" stroke="midnightblue" points="81.68,-72.45 71.3,-74.57 80.73,-79.39 81.68,-72.45"/>
</g>
<!-- Node5 -->
<g id="node5" class="node">
<title>Node5</title>
<g id="a_node5"><a xlink:href="blowfish_8h.html" target="_top" xlink:title=" ">
<polygon fill="none" stroke="black" points="89.5,-56.5 89.5,-75.5 155.5,-75.5 155.5,-56.5 89.5,-56.5"/>
<text text-anchor="middle" x="122.5" y="-63.5" font-family="Helvetica,sans-Serif" font-size="10.00">blowfish.h</text>
</a>
</g>
</g>
<!-- Node2&#45;&gt;Node5 -->
<g id="edge4" class="edge">
<title>Node2&#45;&gt;Node5</title>
<path fill="none" stroke="midnightblue" d="M641.44,-119.71C566.05,-115.97 352.77,-103.73 165.91,-76.04"/>
<polygon fill="midnightblue" stroke="midnightblue" points="166.31,-72.57 155.9,-74.54 165.27,-79.49 166.31,-72.57"/>
</g>
<!-- Node6 -->
<g id="node6" class="node">
<title>Node6</title>
<g id="a_node6"><a xlink:title=" ">
<polygon fill="none" stroke="#bfbfbf" points="173.5,-56.5 173.5,-75.5 237.5,-75.5 237.5,-56.5 173.5,-56.5"/>
<text text-anchor="middle" x="205.5" y="-63.5" font-family="Helvetica,sans-Serif" font-size="10.00">algorithm</text>
</a>
</g>
</g>
<!-- Node2&#45;&gt;Node6 -->
<g id="edge5" class="edge">
<title>Node2&#45;&gt;Node6</title>
<path fill="none" stroke="midnightblue" d="M641.39,-119.09C574.78,-114.32 401.94,-100.61 247.79,-76.05"/>
<polygon fill="midnightblue" stroke="midnightblue" points="248.09,-72.55 237.66,-74.41 246.98,-79.46 248.09,-72.55"/>
</g>
<!-- Node7 -->
<g id="node7" class="node">
<title>Node7</title>
<g id="a_node7"><a xlink:title=" ">
<polygon fill="none" stroke="#bfbfbf" points="255.5,-56.5 255.5,-75.5 297.5,-75.5 297.5,-56.5 255.5,-56.5"/>
<text text-anchor="middle" x="276.5" y="-63.5" font-family="Helvetica,sans-Serif" font-size="10.00">array</text>
</a>
</g>
</g>
<!-- Node2&#45;&gt;Node7 -->
<g id="edge6" class="edge">
<title>Node2&#45;&gt;Node7</title>
<path fill="none" stroke="midnightblue" d="M641.46,-119.14C581.72,-114.83 437.43,-102.6 307.79,-75.95"/>
<polygon fill="midnightblue" stroke="midnightblue" points="308.2,-72.46 297.69,-73.84 306.76,-79.31 308.2,-72.46"/>
</g>
<!-- Node8 -->
<g id="node8" class="node">
<title>Node8</title>
<g id="a_node8"><a xlink:title=" ">
<polygon fill="none" stroke="#bfbfbf" points="315.5,-56.5 315.5,-75.5 383.5,-75.5 383.5,-56.5 315.5,-56.5"/>
<text text-anchor="middle" x="349.5" y="-63.5" font-family="Helvetica,sans-Serif" font-size="10.00">filesystem</text>
</a>
</g>
</g>
<!-- Node2&#45;&gt;Node8 -->
<g id="edge7" class="edge">
<title>Node2&#45;&gt;Node8</title>
<path fill="none" stroke="midnightblue" d="M641.11,-116.82C592.54,-109.58 490.13,-93.91 393.66,-76.15"/>
<polygon fill="midnightblue" stroke="midnightblue" points="394.21,-72.69 383.74,-74.31 392.94,-79.57 394.21,-72.69"/>
</g>
<!-- Node9 -->
<g id="node9" class="node">
<title>Node9</title>
<g id="a_node9"><a xlink:title=" ">
<polygon fill="none" stroke="#bfbfbf" points="402,-56.5 402,-75.5 467,-75.5 467,-56.5 402,-56.5"/>
<text text-anchor="middle" x="434.5" y="-63.5" font-family="Helvetica,sans-Serif" font-size="10.00">functional</text>
</a>
</g>
</g>
<!-- Node2&#45;&gt;Node9 -->
<g id="edge8" class="edge">
<title>Node2&#45;&gt;Node9</title>
<path fill="none" stroke="midnightblue" d="M641.15,-114.49C600.32,-105.1 524.65,-87.72 477.08,-76.79"/>
<polygon fill="midnightblue" stroke="midnightblue" points="477.62,-73.32 467.09,-74.49 476.05,-80.14 477.62,-73.32"/>
</g>
<!-- Node10 -->
<g id="node10" class="node">
<title>Node10</title>
<g id="a_node10"><a xlink:title=" ">
<polygon fill="none" stroke="#bfbfbf" points="485.5,-56.5 485.5,-75.5 517.5,-75.5 517.5,-56.5 485.5,-56.5"/>
<text text-anchor="middle" x="501.5" y="-63.5" font-family="Helvetica,sans-Serif" font-size="10.00">list</text>
</a>
</g>
</g>
<!-- Node2&#45;&gt;Node10 -->
<g id="edge9" class="edge">
<title>Node2&#45;&gt;Node10</title>
<path fill="none" stroke="midnightblue" d="M641.44,-112.54C614.45,-104.32 572.28,-91.27 527.25,-76.16"/>
<polygon fill="midnightblue" stroke="midnightblue" points="528.2,-72.79 517.6,-72.91 525.96,-79.42 528.2,-72.79"/>
</g>
<!-- Node11 -->
<g id="node11" class="node">
<title>Node11</title>
<g id="a_node11"><a xlink:title=" ">
<polygon fill="none" stroke="#bfbfbf" points="535.5,-56.5 535.5,-75.5 573.5,-75.5 573.5,-56.5 535.5,-56.5"/>
<text text-anchor="middle" x="554.5" y="-63.5" font-family="Helvetica,sans-Serif" font-size="10.00">map</text>
</a>
</g>
</g>
<!-- Node2&#45;&gt;Node11 -->
<g id="edge10" class="edge">
<title>Node2&#45;&gt;Node11</title>
<path fill="none" stroke="midnightblue" d="M651.28,-112.44C632.6,-103.68 603.34,-89.94 581.88,-79.86"/>
<polygon fill="midnightblue" stroke="midnightblue" points="583.18,-76.6 572.64,-75.52 580.2,-82.93 583.18,-76.6"/>
</g>
<!-- Node12 -->
<g id="node12" class="node">
<title>Node12</title>
<g id="a_node12"><a xlink:title=" ">
<polygon fill="none" stroke="#bfbfbf" points="591.5,-56.5 591.5,-75.5 623.5,-75.5 623.5,-56.5 591.5,-56.5"/>
<text text-anchor="middle" x="607.5" y="-63.5" font-family="Helvetica,sans-Serif" font-size="10.00">set</text>
</a>
</g>
</g>
<!-- Node2&#45;&gt;Node12 -->
<g id="edge11" class="edge">
<title>Node2&#45;&gt;Node12</title>
<path fill="none" stroke="midnightblue" d="M659.54,-112.32C650.37,-104.34 636.56,-92.31 625.47,-82.65"/>
<polygon fill="midnightblue" stroke="midnightblue" points="627.48,-79.76 617.64,-75.83 622.88,-85.04 627.48,-79.76"/>
</g>
<!-- Node13 -->
<g id="node13" class="node">
<title>Node13</title>
<g id="a_node13"><a xlink:title=" ">
<polygon fill="none" stroke="#bfbfbf" points="641.5,-56.5 641.5,-75.5 697.5,-75.5 697.5,-56.5 641.5,-56.5"/>
<text text-anchor="middle" x="669.5" y="-63.5" font-family="Helvetica,sans-Serif" font-size="10.00">sstream</text>
</a>
</g>
</g>
<!-- Node2&#45;&gt;Node13 -->
<g id="edge12" class="edge">
<title>Node2&#45;&gt;Node13</title>
<path fill="none" stroke="midnightblue" d="M669.5,-112.08C669.5,-105.01 669.5,-94.86 669.5,-85.99"/>
<polygon fill="midnightblue" stroke="midnightblue" points="673,-85.75 669.5,-75.75 666,-85.75 673,-85.75"/>
</g>
<!-- Node14 -->
<g id="node14" class="node">
<title>Node14</title>
<g id="a_node14"><a xlink:title=" ">
<polygon fill="none" stroke="#bfbfbf" points="715.5,-56.5 715.5,-75.5 765.5,-75.5 765.5,-56.5 715.5,-56.5"/>
<text text-anchor="middle" x="740.5" y="-63.5" font-family="Helvetica,sans-Serif" font-size="10.00">stdio.h</text>
</a>
</g>
</g>
<!-- Node2&#45;&gt;Node14 -->
<g id="edge13" class="edge">
<title>Node2&#45;&gt;Node14</title>
<path fill="none" stroke="midnightblue" d="M680.91,-112.32C691.61,-104.18 707.84,-91.84 720.66,-82.09"/>
<polygon fill="midnightblue" stroke="midnightblue" points="723.04,-84.67 728.89,-75.83 718.81,-79.1 723.04,-84.67"/>
</g>
<!-- Node15 -->
<g id="node15" class="node">
<title>Node15</title>
<g id="a_node15"><a xlink:title=" ">
<polygon fill="none" stroke="#bfbfbf" points="783.5,-56.5 783.5,-75.5 827.5,-75.5 827.5,-56.5 783.5,-56.5"/>
<text text-anchor="middle" x="805.5" y="-63.5" font-family="Helvetica,sans-Serif" font-size="10.00">string</text>
</a>
</g>
</g>
<!-- Node2&#45;&gt;Node15 -->
<g id="edge14" class="edge">
<title>Node2&#45;&gt;Node15</title>
<path fill="none" stroke="midnightblue" d="M691.05,-112.44C713.53,-103.52 748.99,-89.44 774.48,-79.32"/>
<polygon fill="midnightblue" stroke="midnightblue" points="776.05,-82.46 784.05,-75.52 773.47,-75.95 776.05,-82.46"/>
</g>
<!-- Node16 -->
<g id="node16" class="node">
<title>Node16</title>
<g id="a_node16"><a xlink:title=" ">
<polygon fill="none" stroke="#bfbfbf" points="846,-56.5 846,-75.5 897,-75.5 897,-56.5 846,-56.5"/>
<text text-anchor="middle" x="871.5" y="-63.5" font-family="Helvetica,sans-Serif" font-size="10.00">variant</text>
</a>
</g>
</g>
<!-- Node2&#45;&gt;Node16 -->
<g id="edge15" class="edge">
<title>Node2&#45;&gt;Node16</title>
<path fill="none" stroke="midnightblue" d="M697.59,-113.49C733.79,-103.81 796.75,-86.98 836.16,-76.45"/>
<polygon fill="midnightblue" stroke="midnightblue" points="837.13,-79.81 845.88,-73.85 835.32,-73.05 837.13,-79.81"/>
</g>
<!-- Node17 -->
<g id="node17" class="node">
<title>Node17</title>
<g id="a_node17"><a xlink:title=" ">
<polygon fill="none" stroke="#bfbfbf" points="915.5,-56.5 915.5,-75.5 983.5,-75.5 983.5,-56.5 915.5,-56.5"/>
<text text-anchor="middle" x="949.5" y="-63.5" font-family="Helvetica,sans-Serif" font-size="10.00">windows.h</text>
</a>
</g>
</g>
<!-- Node2&#45;&gt;Node17 -->
<g id="edge16" class="edge">
<title>Node2&#45;&gt;Node17</title>
<path fill="none" stroke="midnightblue" d="M697.74,-113.95C700.69,-113.26 703.65,-112.6 706.5,-112 794.43,-93.37 817.24,-93.01 905.5,-76 905.6,-75.98 905.7,-75.96 905.8,-75.94"/>
<polygon fill="midnightblue" stroke="midnightblue" points="906.27,-79.42 915.41,-74.05 904.92,-72.55 906.27,-79.42"/>
</g>
<!-- Node18 -->
<g id="node18" class="node">
<title>Node18</title>
<g id="a_node18"><a xlink:title=" ">
<polygon fill="none" stroke="#bfbfbf" points="1001.5,-56.5 1001.5,-75.5 1105.5,-75.5 1105.5,-56.5 1001.5,-56.5"/>
<text text-anchor="middle" x="1053.5" y="-63.5" font-family="Helvetica,sans-Serif" font-size="10.00">FLCoreCommon.h</text>
</a>
</g>
</g>
<!-- Node2&#45;&gt;Node18 -->
<g id="edge17" class="edge">
<title>Node2&#45;&gt;Node18</title>
<path fill="none" stroke="midnightblue" d="M697.71,-113.79C700.67,-113.14 703.64,-112.53 706.5,-112 829.3,-89.41 863.83,-93.14 991.13,-76.15"/>
<polygon fill="midnightblue" stroke="midnightblue" points="991.83,-79.59 1001.27,-74.78 990.89,-72.65 991.83,-79.59"/>
</g>
<!-- Node19 -->
<g id="node19" class="node">
<title>Node19</title>
<g id="a_node19"><a xlink:title=" ">
<polygon fill="none" stroke="#bfbfbf" points="1123.5,-56.5 1123.5,-75.5 1211.5,-75.5 1211.5,-56.5 1123.5,-56.5"/>
<text text-anchor="middle" x="1167.5" y="-63.5" font-family="Helvetica,sans-Serif" font-size="10.00">FLCoreDALib.h</text>
</a>
</g>
</g>
<!-- Node2&#45;&gt;Node19 -->
<g id="edge18" class="edge">
<title>Node2&#45;&gt;Node19</title>
<path fill="none" stroke="midnightblue" d="M697.69,-113.68C700.65,-113.05 703.63,-112.47 706.5,-112 882.87,-82.94 932.18,-98.66 1113.17,-76.07"/>
<polygon fill="midnightblue" stroke="midnightblue" points="1113.81,-79.51 1123.29,-74.78 1112.93,-72.57 1113.81,-79.51"/>
</g>
<!-- Node20 -->
<g id="node20" class="node">
<title>Node20</title>
<g id="a_node20"><a xlink:title=" ">
<polygon fill="none" stroke="#bfbfbf" points="1229.5,-56.5 1229.5,-75.5 1355.5,-75.5 1355.5,-56.5 1229.5,-56.5"/>
<text text-anchor="middle" x="1292.5" y="-63.5" font-family="Helvetica,sans-Serif" font-size="10.00">FLCoreRemoteClient.h</text>
</a>
</g>
</g>
<!-- Node2&#45;&gt;Node20 -->
<g id="edge19" class="edge">
<title>Node2&#45;&gt;Node20</title>
<path fill="none" stroke="midnightblue" d="M697.68,-113.63C700.65,-113.01 703.63,-112.45 706.5,-112 929.47,-77.33 990.79,-97.6 1219.02,-76.08"/>
<polygon fill="midnightblue" stroke="midnightblue" points="1219.69,-79.54 1229.31,-75.1 1219.02,-72.57 1219.69,-79.54"/>
</g>
<!-- Node21 -->
<g id="node21" class="node">
<title>Node21</title>
<g id="a_node21"><a xlink:title=" ">
<polygon fill="none" stroke="#bfbfbf" points="1373.5,-56.5 1373.5,-75.5 1463.5,-75.5 1463.5,-56.5 1373.5,-56.5"/>
<text text-anchor="middle" x="1418.5" y="-63.5" font-family="Helvetica,sans-Serif" font-size="10.00">FLCoreServer.h</text>
</a>
</g>
</g>
<!-- Node2&#45;&gt;Node21 -->
<g id="edge20" class="edge">
<title>Node2&#45;&gt;Node21</title>
<path fill="none" stroke="midnightblue" d="M697.68,-113.58C700.64,-112.97 703.62,-112.42 706.5,-112 992.98,-69.69 1071.63,-107.26 1363.44,-75.98"/>
<polygon fill="midnightblue" stroke="midnightblue" points="1363.91,-79.45 1373.47,-74.89 1363.15,-72.49 1363.91,-79.45"/>
</g>
<!-- Node22 -->
<g id="node22" class="node">
<title>Node22</title>
<g id="a_node22"><a xlink:href="_serialization_8hpp.html" target="_top" xlink:title=" ">
<polygon fill="none" stroke="black" points="1481.5,-56.5 1481.5,-75.5 1607.5,-75.5 1607.5,-56.5 1481.5,-56.5"/>
<text text-anchor="middle" x="1544.5" y="-63.5" font-family="Helvetica,sans-Serif" font-size="10.00">Tools/Serialization.hpp</text>
</a>
</g>
</g>
<!-- Node2&#45;&gt;Node22 -->
<g id="edge21" class="edge">
<title>Node2&#45;&gt;Node22</title>
<path fill="none" stroke="midnightblue" d="M697.67,-113.56C700.64,-112.95 703.62,-112.41 706.5,-112 1040.56,-63.97 1131.17,-104.35 1471.18,-76.04"/>
<polygon fill="midnightblue" stroke="midnightblue" points="1471.64,-79.51 1481.31,-75.18 1471.05,-72.54 1471.64,-79.51"/>
</g>
<!-- Node4 -->
<g id="node4" class="node">
<title>Node4</title>
<g id="a_node4"><a xlink:title=" ">
<polygon fill="none" stroke="#bfbfbf" points="6.5,-0.5 6.5,-19.5 64.5,-19.5 64.5,-0.5 6.5,-0.5"/>
<text text-anchor="middle" x="35.5" y="-7.5" font-family="Helvetica,sans-Serif" font-size="10.00">memory</text>
</a>
</g>
</g>
<!-- Node3&#45;&gt;Node4 -->
<g id="edge3" class="edge">
<title>Node3&#45;&gt;Node4</title>
<path fill="none" stroke="midnightblue" d="M35.5,-56.08C35.5,-49.01 35.5,-38.86 35.5,-29.99"/>
<polygon fill="midnightblue" stroke="midnightblue" points="39,-29.75 35.5,-19.75 32,-29.75 39,-29.75"/>
</g>
<!-- Node23 -->
<g id="node23" class="node">
<title>Node23</title>
<g id="a_node23"><a xlink:title=" ">
<polygon fill="none" stroke="#bfbfbf" points="1416,-0.5 1416,-19.5 1471,-19.5 1471,-0.5 1416,-0.5"/>
<text text-anchor="middle" x="1443.5" y="-7.5" font-family="Helvetica,sans-Serif" font-size="10.00">fstream</text>
</a>
</g>
</g>
<!-- Node22&#45;&gt;Node23 -->
<g id="edge22" class="edge">
<title>Node22&#45;&gt;Node23</title>
<path fill="none" stroke="midnightblue" d="M1528.27,-56.32C1512.15,-47.7 1487.2,-34.36 1468.54,-24.39"/>
<polygon fill="midnightblue" stroke="midnightblue" points="1470.16,-21.28 1459.69,-19.65 1466.86,-27.46 1470.16,-21.28"/>
</g>
<!-- Node24 -->
<g id="node24" class="node">
<title>Node24</title>
<g id="a_node24"><a xlink:title=" ">
<polygon fill="none" stroke="#bfbfbf" points="1489.5,-0.5 1489.5,-19.5 1599.5,-19.5 1599.5,-0.5 1489.5,-0.5"/>
<text text-anchor="middle" x="1544.5" y="-7.5" font-family="Helvetica,sans-Serif" font-size="10.00">nlohmann/json.hpp</text>
</a>
</g>
</g>
<!-- Node22&#45;&gt;Node24 -->
<g id="edge23" class="edge">
<title>Node22&#45;&gt;Node24</title>
<path fill="none" stroke="midnightblue" d="M1544.5,-56.08C1544.5,-49.01 1544.5,-38.86 1544.5,-29.99"/>
<polygon fill="midnightblue" stroke="midnightblue" points="1548,-29.75 1544.5,-19.75 1541,-29.75 1548,-29.75"/>
</g>
<!-- Node25 -->
<g id="node25" class="node">
<title>Node25</title>
<g id="a_node25"><a xlink:title=" ">
<polygon fill="none" stroke="#bfbfbf" points="1618,-0.5 1618,-19.5 1671,-19.5 1671,-0.5 1618,-0.5"/>
<text text-anchor="middle" x="1644.5" y="-7.5" font-family="Helvetica,sans-Serif" font-size="10.00">refl.hpp</text>
</a>
</g>
</g>
<!-- Node22&#45;&gt;Node25 -->
<g id="edge24" class="edge">
<title>Node22&#45;&gt;Node25</title>
<path fill="none" stroke="midnightblue" d="M1560.57,-56.32C1576.46,-47.74 1601.01,-34.49 1619.46,-24.52"/>
<polygon fill="midnightblue" stroke="midnightblue" points="1621.34,-27.49 1628.47,-19.65 1618.01,-21.33 1621.34,-27.49"/>
</g>
</g>
</svg>
