<?xml version="1.0" encoding="UTF-8" standalone="no"?>
<!DOCTYPE svg PUBLIC "-//W3C//DTD SVG 1.1//EN"
 "http://www.w3.org/Graphics/SVG/1.1/DTD/svg11.dtd">
<!-- Generated by graphviz version 2.43.0 (0)
 -->
<!-- Title: plugins/daily_tasks/DailyTasks.hpp Pages: 1 -->
<svg width="296pt" height="93pt"
 viewBox="0.00 0.00 296.00 93.00" xmlns="http://www.w3.org/2000/svg" xmlns:xlink="http://www.w3.org/1999/xlink">
<g id="graph0" class="graph" transform="scale(1 1) rotate(0) translate(4 89)">
<title>plugins/daily_tasks/DailyTasks.hpp</title>
<!-- Node1 -->
<g id="node1" class="node">
<title>Node1</title>
<g id="a_node1"><a xlink:title=" ">
<polygon fill="#999999" stroke="#666666" points="210,-85 100,-85 100,-55 210,-55 210,-85"/>
<text text-anchor="start" x="108" y="-73" font-family="Helvetica,sans-Serif" font-size="10.00">plugins/daily_tasks</text>
<text text-anchor="middle" x="155" y="-62" font-family="Helvetica,sans-Serif" font-size="10.00">/DailyTasks.hpp</text>
</a>
</g>
</g>
<!-- Node2 -->
<g id="node2" class="node">
<title>Node2</title>
<g id="a_node2"><a xlink:title=" ">
<polygon fill="#e0e0e0" stroke="#999999" points="74,-19 0,-19 0,0 74,0 74,-19"/>
<text text-anchor="middle" x="37" y="-7" font-family="Helvetica,sans-Serif" font-size="10.00">FLHook.hpp</text>
</a>
</g>
</g>
<!-- Node1&#45;&gt;Node2 -->
<g id="edge1" class="edge">
<title>Node1&#45;&gt;Node2</title>
<path fill="none" stroke="#63b8ff" d="M126.74,-54.99C107.58,-45.49 82.42,-33.02 63.61,-23.69"/>
<polygon fill="#63b8ff" stroke="#63b8ff" points="64.94,-20.45 54.43,-19.14 61.83,-26.72 64.94,-20.45"/>
</g>
<!-- Node3 -->
<g id="node3" class="node">
<title>Node3</title>
<g id="a_node3"><a xlink:title=" ">
<polygon fill="#e0e0e0" stroke="#999999" points="148,-19 92,-19 92,0 148,0 148,-19"/>
<text text-anchor="middle" x="120" y="-7" font-family="Helvetica,sans-Serif" font-size="10.00">plugin.h</text>
</a>
</g>
</g>
<!-- Node1&#45;&gt;Node3 -->
<g id="edge2" class="edge">
<title>Node1&#45;&gt;Node3</title>
<path fill="none" stroke="#63b8ff" d="M146.53,-54.84C141.71,-46.78 135.63,-36.62 130.5,-28.06"/>
<polygon fill="#63b8ff" stroke="#63b8ff" points="133.38,-26.05 125.24,-19.27 127.38,-29.64 133.38,-26.05"/>
</g>
<!-- Node4 -->
<g id="node4" class="node">
<title>Node4</title>
<g id="a_node4"><a xlink:title=" ">
<polygon fill="#e0e0e0" stroke="#999999" points="216,-19 166,-19 166,0 216,0 216,-19"/>
<text text-anchor="middle" x="191" y="-7" font-family="Helvetica,sans-Serif" font-size="10.00">ranges</text>
</a>
</g>
</g>
<!-- Node1&#45;&gt;Node4 -->
<g id="edge3" class="edge">
<title>Node1&#45;&gt;Node4</title>
<path fill="none" stroke="#63b8ff" d="M163.71,-54.84C168.67,-46.78 174.93,-36.62 180.2,-28.06"/>
<polygon fill="#63b8ff" stroke="#63b8ff" points="183.35,-29.62 185.61,-19.27 177.38,-25.95 183.35,-29.62"/>
</g>
<!-- Node5 -->
<g id="node5" class="node">
<title>Node5</title>
<g id="a_node5"><a xlink:title=" ">
<polygon fill="#e0e0e0" stroke="#999999" points="288,-19 234,-19 234,0 288,0 288,-19"/>
<text text-anchor="middle" x="261" y="-7" font-family="Helvetica,sans-Serif" font-size="10.00">random</text>
</a>
</g>
</g>
<!-- Node1&#45;&gt;Node5 -->
<g id="edge4" class="edge">
<title>Node1&#45;&gt;Node5</title>
<path fill="none" stroke="#63b8ff" d="M180.39,-54.99C197.29,-45.66 219.38,-33.47 236.16,-24.21"/>
<polygon fill="#63b8ff" stroke="#63b8ff" points="238.28,-27.04 245.35,-19.14 234.9,-20.91 238.28,-27.04"/>
</g>
</g>
</svg>
