<?xml version="1.0" encoding="UTF-8" standalone="no"?>
<!DOCTYPE svg PUBLIC "-//W3C//DTD SVG 1.1//EN"
 "http://www.w3.org/Graphics/SVG/1.1/DTD/svg11.dtd">
<!-- Generated by graphviz version 2.43.0 (0)
 -->
<!-- Title: plugins/daily_tasks/DailyTasks.cpp Pages: 1 -->
<svg width="296pt" height="148pt"
 viewBox="0.00 0.00 296.00 148.00" xmlns="http://www.w3.org/2000/svg" xmlns:xlink="http://www.w3.org/1999/xlink">
<g id="graph0" class="graph" transform="scale(1 1) rotate(0) translate(4 144)">
<title>plugins/daily_tasks/DailyTasks.cpp</title>
<!-- Node1 -->
<g id="node1" class="node">
<title>Node1</title>
<g id="a_node1"><a xlink:title=" ">
<polygon fill="#999999" stroke="#666666" points="210,-140 100,-140 100,-110 210,-110 210,-140"/>
<text text-anchor="start" x="108" y="-128" font-family="Helvetica,sans-Serif" font-size="10.00">plugins/daily_tasks</text>
<text text-anchor="middle" x="155" y="-117" font-family="Helvetica,sans-Serif" font-size="10.00">/DailyTasks.cpp</text>
</a>
</g>
</g>
<!-- Node2 -->
<g id="node2" class="node">
<title>Node2</title>
<g id="a_node2"><a xlink:href="_daily_tasks_8hpp.html" target="_top" xlink:title=" ">
<polygon fill="white" stroke="#666666" points="200,-74 110,-74 110,-55 200,-55 200,-74"/>
<text text-anchor="middle" x="155" y="-62" font-family="Helvetica,sans-Serif" font-size="10.00">DailyTasks.hpp</text>
</a>
</g>
</g>
<!-- Node1&#45;&gt;Node2 -->
<g id="edge1" class="edge">
<title>Node1&#45;&gt;Node2</title>
<path fill="none" stroke="#63b8ff" d="M155,-109.84C155,-102.21 155,-92.7 155,-84.45"/>
<polygon fill="#63b8ff" stroke="#63b8ff" points="158.5,-84.27 155,-74.27 151.5,-84.27 158.5,-84.27"/>
</g>
<!-- Node3 -->
<g id="node3" class="node">
<title>Node3</title>
<g id="a_node3"><a xlink:title=" ">
<polygon fill="#e0e0e0" stroke="#999999" points="74,-19 0,-19 0,0 74,0 74,-19"/>
<text text-anchor="middle" x="37" y="-7" font-family="Helvetica,sans-Serif" font-size="10.00">FLHook.hpp</text>
</a>
</g>
</g>
<!-- Node2&#45;&gt;Node3 -->
<g id="edge2" class="edge">
<title>Node2&#45;&gt;Node3</title>
<path fill="none" stroke="#63b8ff" d="M136.04,-54.98C116.97,-46.42 87.34,-33.11 65.45,-23.28"/>
<polygon fill="#63b8ff" stroke="#63b8ff" points="66.86,-20.07 56.3,-19.17 63.99,-26.46 66.86,-20.07"/>
</g>
<!-- Node4 -->
<g id="node4" class="node">
<title>Node4</title>
<g id="a_node4"><a xlink:title=" ">
<polygon fill="#e0e0e0" stroke="#999999" points="148,-19 92,-19 92,0 148,0 148,-19"/>
<text text-anchor="middle" x="120" y="-7" font-family="Helvetica,sans-Serif" font-size="10.00">plugin.h</text>
</a>
</g>
</g>
<!-- Node2&#45;&gt;Node4 -->
<g id="edge3" class="edge">
<title>Node2&#45;&gt;Node4</title>
<path fill="none" stroke="#63b8ff" d="M149.22,-54.75C144.38,-47.42 137.32,-36.73 131.36,-27.7"/>
<polygon fill="#63b8ff" stroke="#63b8ff" points="134.1,-25.5 125.67,-19.09 128.26,-29.36 134.1,-25.5"/>
</g>
<!-- Node5 -->
<g id="node5" class="node">
<title>Node5</title>
<g id="a_node5"><a xlink:title=" ">
<polygon fill="#e0e0e0" stroke="#999999" points="216,-19 166,-19 166,0 216,0 216,-19"/>
<text text-anchor="middle" x="191" y="-7" font-family="Helvetica,sans-Serif" font-size="10.00">ranges</text>
</a>
</g>
</g>
<!-- Node2&#45;&gt;Node5 -->
<g id="edge4" class="edge">
<title>Node2&#45;&gt;Node5</title>
<path fill="none" stroke="#63b8ff" d="M160.94,-54.75C165.98,-47.34 173.34,-36.5 179.51,-27.41"/>
<polygon fill="#63b8ff" stroke="#63b8ff" points="182.44,-29.33 185.17,-19.09 176.65,-25.39 182.44,-29.33"/>
</g>
<!-- Node6 -->
<g id="node6" class="node">
<title>Node6</title>
<g id="a_node6"><a xlink:title=" ">
<polygon fill="#e0e0e0" stroke="#999999" points="288,-19 234,-19 234,0 288,0 288,-19"/>
<text text-anchor="middle" x="261" y="-7" font-family="Helvetica,sans-Serif" font-size="10.00">random</text>
</a>
</g>
</g>
<!-- Node2&#45;&gt;Node6 -->
<g id="edge5" class="edge">
<title>Node2&#45;&gt;Node6</title>
<path fill="none" stroke="#63b8ff" d="M172.03,-54.98C188.93,-46.54 215.06,-33.47 234.64,-23.68"/>
<polygon fill="#63b8ff" stroke="#63b8ff" points="236.28,-26.77 243.66,-19.17 233.15,-20.51 236.28,-26.77"/>
</g>
</g>
</svg>
