<?xml version="1.0" encoding="UTF-8" standalone="no"?>
<!DOCTYPE svg PUBLIC "-//W3C//DTD SVG 1.1//EN"
 "http://www.w3.org/Graphics/SVG/1.1/DTD/svg11.dtd">
<!-- Generated by graphviz version 2.43.0 (0)
 -->
<!-- Title: source/Debug.cpp Pages: 1 -->
<svg width="537pt" height="148pt"
 viewBox="0.00 0.00 537.00 148.00" xmlns="http://www.w3.org/2000/svg" xmlns:xlink="http://www.w3.org/1999/xlink">
<g id="graph0" class="graph" transform="scale(1 1) rotate(0) translate(4 144)">
<title>source/Debug.cpp</title>
<!-- Node1 -->
<g id="node1" class="node">
<title>Node1</title>
<g id="a_node1"><a xlink:title=" ">
<polygon fill="#999999" stroke="#666666" points="297,-140 193,-140 193,-121 297,-121 297,-140"/>
<text text-anchor="middle" x="245" y="-128" font-family="Helvetica,sans-Serif" font-size="10.00">source/Debug.cpp</text>
</a>
</g>
</g>
<!-- Node2 -->
<g id="node2" class="node">
<title>Node2</title>
<g id="a_node2"><a xlink:href="_global_8hpp.html" target="_top" xlink:title=" ">
<polygon fill="white" stroke="#666666" points="71.5,-79.5 2.5,-79.5 2.5,-60.5 71.5,-60.5 71.5,-79.5"/>
<text text-anchor="middle" x="37" y="-67.5" font-family="Helvetica,sans-Serif" font-size="10.00">Global.hpp</text>
</a>
</g>
</g>
<!-- Node1&#45;&gt;Node2 -->
<g id="edge1" class="edge">
<title>Node1&#45;&gt;Node2</title>
<path fill="none" stroke="#63b8ff" d="M211.9,-120.97C178.69,-112.3 126.14,-98.3 81,-85 78.42,-84.24 75.76,-83.44 73.09,-82.62"/>
<polygon fill="#63b8ff" stroke="#63b8ff" points="74.06,-79.26 63.47,-79.62 71.98,-85.94 74.06,-79.26"/>
</g>
<!-- Node4 -->
<g id="node4" class="node">
<title>Node4</title>
<g id="a_node4"><a xlink:title=" ">
<polygon fill="#e0e0e0" stroke="#999999" points="182.5,-79.5 89.5,-79.5 89.5,-60.5 182.5,-60.5 182.5,-79.5"/>
<text text-anchor="middle" x="136" y="-67.5" font-family="Helvetica,sans-Serif" font-size="10.00">spdlog/spdlog.h</text>
</a>
</g>
</g>
<!-- Node1&#45;&gt;Node4 -->
<g id="edge3" class="edge">
<title>Node1&#45;&gt;Node4</title>
<path fill="none" stroke="#63b8ff" d="M228.92,-120.87C211.05,-111.28 181.96,-95.67 161.09,-84.47"/>
<polygon fill="#63b8ff" stroke="#63b8ff" points="162.62,-81.31 152.15,-79.67 159.31,-87.48 162.62,-81.31"/>
</g>
<!-- Node5 -->
<g id="node5" class="node">
<title>Node5</title>
<g id="a_node5"><a xlink:title=" ">
<polygon fill="#e0e0e0" stroke="#999999" points="289.5,-79.5 200.5,-79.5 200.5,-60.5 289.5,-60.5 289.5,-79.5"/>
<text text-anchor="middle" x="245" y="-67.5" font-family="Helvetica,sans-Serif" font-size="10.00">spdlog/async.h</text>
</a>
</g>
</g>
<!-- Node1&#45;&gt;Node5 -->
<g id="edge4" class="edge">
<title>Node1&#45;&gt;Node5</title>
<path fill="none" stroke="#63b8ff" d="M245,-120.87C245,-112.75 245,-100.31 245,-89.89"/>
<polygon fill="#63b8ff" stroke="#63b8ff" points="248.5,-89.67 245,-79.67 241.5,-89.67 248.5,-89.67"/>
</g>
<!-- Node6 -->
<g id="node6" class="node">
<title>Node6</title>
<g id="a_node6"><a xlink:title=" ">
<polygon fill="#e0e0e0" stroke="#999999" points="413,-85 307,-85 307,-55 413,-55 413,-85"/>
<text text-anchor="start" x="315" y="-73" font-family="Helvetica,sans-Serif" font-size="10.00">spdlog/sinks/basic</text>
<text text-anchor="middle" x="360" y="-62" font-family="Helvetica,sans-Serif" font-size="10.00">_file_sink.h</text>
</a>
</g>
</g>
<!-- Node1&#45;&gt;Node6 -->
<g id="edge5" class="edge">
<title>Node1&#45;&gt;Node6</title>
<path fill="none" stroke="#63b8ff" d="M261.97,-120.87C278.01,-112.71 302.6,-100.2 323.15,-89.75"/>
<polygon fill="#63b8ff" stroke="#63b8ff" points="324.93,-92.77 332.25,-85.11 321.75,-86.53 324.93,-92.77"/>
</g>
<!-- Node7 -->
<g id="node7" class="node">
<title>Node7</title>
<g id="a_node7"><a xlink:title=" ">
<polygon fill="#e0e0e0" stroke="#999999" points="529,-79.5 431,-79.5 431,-60.5 529,-60.5 529,-79.5"/>
<text text-anchor="middle" x="480" y="-67.5" font-family="Helvetica,sans-Serif" font-size="10.00">Tools/Detour.hpp</text>
</a>
</g>
</g>
<!-- Node1&#45;&gt;Node7 -->
<g id="edge6" class="edge">
<title>Node1&#45;&gt;Node7</title>
<path fill="none" stroke="#63b8ff" d="M279.17,-120.99C320.59,-110.68 390.48,-93.28 435.92,-81.97"/>
<polygon fill="#63b8ff" stroke="#63b8ff" points="436.93,-85.33 445.79,-79.52 435.24,-78.54 436.93,-85.33"/>
</g>
<!-- Node3 -->
<g id="node3" class="node">
<title>Node3</title>
<g id="a_node3"><a xlink:title=" ">
<polygon fill="#e0e0e0" stroke="#999999" points="74,-19 0,-19 0,0 74,0 74,-19"/>
<text text-anchor="middle" x="37" y="-7" font-family="Helvetica,sans-Serif" font-size="10.00">FLHook.hpp</text>
</a>
</g>
</g>
<!-- Node2&#45;&gt;Node3 -->
<g id="edge2" class="edge">
<title>Node2&#45;&gt;Node3</title>
<path fill="none" stroke="#63b8ff" d="M37,-60.37C37,-52.25 37,-39.81 37,-29.39"/>
<polygon fill="#63b8ff" stroke="#63b8ff" points="40.5,-29.17 37,-19.17 33.5,-29.17 40.5,-29.17"/>
</g>
</g>
</svg>
