<?xml version="1.0" encoding="UTF-8" standalone="no"?>
<!DOCTYPE svg PUBLIC "-//W3C//DTD SVG 1.1//EN"
 "http://www.w3.org/Graphics/SVG/1.1/DTD/svg11.dtd">
<!-- Generated by graphviz version 2.43.0 (0)
 -->
<!-- Title: source/Exceptions.cpp Pages: 1 -->
<svg width="1716pt" height="252pt"
 viewBox="0.00 0.00 1716.00 252.00" xmlns="http://www.w3.org/2000/svg" xmlns:xlink="http://www.w3.org/1999/xlink">
<g id="graph0" class="graph" transform="scale(1 1) rotate(0) translate(4 248)">
<title>source/Exceptions.cpp</title>
<!-- Node1 -->
<g id="node1" class="node">
<title>Node1</title>
<g id="a_node1"><a xlink:title=" ">
<polygon fill="#bfbfbf" stroke="black" points="619.5,-224.5 619.5,-243.5 744.5,-243.5 744.5,-224.5 619.5,-224.5"/>
<text text-anchor="middle" x="682" y="-231.5" font-family="Helvetica,sans-Serif" font-size="10.00">source/Exceptions.cpp</text>
</a>
</g>
</g>
<!-- Node2 -->
<g id="node2" class="node">
<title>Node2</title>
<g id="a_node2"><a xlink:href="global_8h.html" target="_top" xlink:title=" ">
<polygon fill="none" stroke="black" points="654,-112.5 654,-131.5 710,-131.5 710,-112.5 654,-112.5"/>
<text text-anchor="middle" x="682" y="-119.5" font-family="Helvetica,sans-Serif" font-size="10.00">global.h</text>
</a>
</g>
</g>
<!-- Node1&#45;&gt;Node2 -->
<g id="edge1" class="edge">
<title>Node1&#45;&gt;Node2</title>
<path fill="none" stroke="midnightblue" d="M682,-224.37C682,-206.62 682,-165.67 682,-141.6"/>
<polygon fill="midnightblue" stroke="midnightblue" points="685.5,-141.59 682,-131.59 678.5,-141.59 685.5,-141.59"/>
</g>
<!-- Node26 -->
<g id="node26" class="node">
<title>Node26</title>
<g id="a_node26"><a xlink:href="_exception_info_8h.html" target="_top" xlink:title=" ">
<polygon fill="none" stroke="black" points="430,-168.5 430,-187.5 522,-187.5 522,-168.5 430,-168.5"/>
<text text-anchor="middle" x="476" y="-175.5" font-family="Helvetica,sans-Serif" font-size="10.00">ExceptionInfo.h</text>
</a>
</g>
</g>
<!-- Node1&#45;&gt;Node26 -->
<g id="edge25" class="edge">
<title>Node1&#45;&gt;Node26</title>
<path fill="none" stroke="midnightblue" d="M649.36,-224.44C613.95,-215.16 557.29,-200.31 518.45,-190.13"/>
<polygon fill="midnightblue" stroke="midnightblue" points="519.05,-186.67 508.49,-187.52 517.27,-193.44 519.05,-186.67"/>
</g>
<!-- Node27 -->
<g id="node27" class="node">
<title>Node27</title>
<g id="a_node27"><a xlink:href="_hook_8h.html" target="_top" xlink:title=" ">
<polygon fill="none" stroke="black" points="1157,-168.5 1157,-187.5 1207,-187.5 1207,-168.5 1157,-168.5"/>
<text text-anchor="middle" x="1182" y="-175.5" font-family="Helvetica,sans-Serif" font-size="10.00">hook.h</text>
</a>
</g>
</g>
<!-- Node1&#45;&gt;Node27 -->
<g id="edge27" class="edge">
<title>Node1&#45;&gt;Node27</title>
<path fill="none" stroke="midnightblue" d="M744.57,-226.24C850.86,-214.76 1063.31,-191.82 1146.98,-182.78"/>
<polygon fill="midnightblue" stroke="midnightblue" points="1147.42,-186.25 1156.99,-181.7 1146.67,-179.3 1147.42,-186.25"/>
</g>
<!-- Node3 -->
<g id="node3" class="node">
<title>Node3</title>
<g id="a_node3"><a xlink:href="_singleton_8h.html" target="_top" xlink:title=" ">
<polygon fill="none" stroke="black" points="1300.5,-56.5 1300.5,-75.5 1371.5,-75.5 1371.5,-56.5 1300.5,-56.5"/>
<text text-anchor="middle" x="1336" y="-63.5" font-family="Helvetica,sans-Serif" font-size="10.00">Singleton.h</text>
</a>
</g>
</g>
<!-- Node2&#45;&gt;Node3 -->
<g id="edge2" class="edge">
<title>Node2&#45;&gt;Node3</title>
<path fill="none" stroke="midnightblue" d="M710.05,-120.16C795.53,-117.35 1060.39,-106.7 1289.99,-75.96"/>
<polygon fill="midnightblue" stroke="midnightblue" points="1290.77,-79.38 1300.21,-74.57 1289.83,-72.45 1290.77,-79.38"/>
</g>
<!-- Node5 -->
<g id="node5" class="node">
<title>Node5</title>
<g id="a_node5"><a xlink:href="blowfish_8h.html" target="_top" xlink:title=" ">
<polygon fill="none" stroke="black" points="1390,-56.5 1390,-75.5 1456,-75.5 1456,-56.5 1390,-56.5"/>
<text text-anchor="middle" x="1423" y="-63.5" font-family="Helvetica,sans-Serif" font-size="10.00">blowfish.h</text>
</a>
</g>
</g>
<!-- Node2&#45;&gt;Node5 -->
<g id="edge4" class="edge">
<title>Node2&#45;&gt;Node5</title>
<path fill="none" stroke="midnightblue" d="M710.12,-120.67C803.81,-119.25 1114.01,-112.07 1379.39,-76.02"/>
<polygon fill="midnightblue" stroke="midnightblue" points="1380.18,-79.45 1389.61,-74.62 1379.22,-72.51 1380.18,-79.45"/>
</g>
<!-- Node6 -->
<g id="node6" class="node">
<title>Node6</title>
<g id="a_node6"><a xlink:title=" ">
<polygon fill="none" stroke="#bfbfbf" points="1474,-56.5 1474,-75.5 1538,-75.5 1538,-56.5 1474,-56.5"/>
<text text-anchor="middle" x="1506" y="-63.5" font-family="Helvetica,sans-Serif" font-size="10.00">algorithm</text>
</a>
</g>
</g>
<!-- Node2&#45;&gt;Node6 -->
<g id="edge5" class="edge">
<title>Node2&#45;&gt;Node6</title>
<path fill="none" stroke="midnightblue" d="M710.18,-119.98C829.64,-115.57 1295.42,-97.44 1463.91,-75.89"/>
<polygon fill="midnightblue" stroke="midnightblue" points="1464.41,-79.35 1473.86,-74.56 1463.48,-72.41 1464.41,-79.35"/>
</g>
<!-- Node7 -->
<g id="node7" class="node">
<title>Node7</title>
<g id="a_node7"><a xlink:title=" ">
<polygon fill="none" stroke="#bfbfbf" points="86,-56.5 86,-75.5 128,-75.5 128,-56.5 86,-56.5"/>
<text text-anchor="middle" x="107" y="-63.5" font-family="Helvetica,sans-Serif" font-size="10.00">array</text>
</a>
</g>
</g>
<!-- Node2&#45;&gt;Node7 -->
<g id="edge6" class="edge">
<title>Node2&#45;&gt;Node7</title>
<path fill="none" stroke="midnightblue" d="M653.93,-120.74C574.3,-119.58 340.15,-113.17 138.07,-75.81"/>
<polygon fill="midnightblue" stroke="midnightblue" points="138.64,-72.36 128.17,-73.95 137.35,-79.24 138.64,-72.36"/>
</g>
<!-- Node8 -->
<g id="node8" class="node">
<title>Node8</title>
<g id="a_node8"><a xlink:title=" ">
<polygon fill="none" stroke="#bfbfbf" points="146,-56.5 146,-75.5 214,-75.5 214,-56.5 146,-56.5"/>
<text text-anchor="middle" x="180" y="-63.5" font-family="Helvetica,sans-Serif" font-size="10.00">filesystem</text>
</a>
</g>
</g>
<!-- Node2&#45;&gt;Node8 -->
<g id="edge7" class="edge">
<title>Node2&#45;&gt;Node8</title>
<path fill="none" stroke="midnightblue" d="M653.93,-119.31C583.39,-114.85 392.89,-101.4 224.26,-76.04"/>
<polygon fill="midnightblue" stroke="midnightblue" points="224.62,-72.55 214.21,-74.51 223.57,-79.47 224.62,-72.55"/>
</g>
<!-- Node9 -->
<g id="node9" class="node">
<title>Node9</title>
<g id="a_node9"><a xlink:title=" ">
<polygon fill="none" stroke="#bfbfbf" points="232.5,-56.5 232.5,-75.5 297.5,-75.5 297.5,-56.5 232.5,-56.5"/>
<text text-anchor="middle" x="265" y="-63.5" font-family="Helvetica,sans-Serif" font-size="10.00">functional</text>
</a>
</g>
</g>
<!-- Node2&#45;&gt;Node9 -->
<g id="edge8" class="edge">
<title>Node2&#45;&gt;Node9</title>
<path fill="none" stroke="midnightblue" d="M653.65,-118.49C592.45,-112.89 443.23,-98.21 307.65,-75.96"/>
<polygon fill="midnightblue" stroke="midnightblue" points="307.94,-72.46 297.5,-74.27 306.8,-79.36 307.94,-72.46"/>
</g>
<!-- Node10 -->
<g id="node10" class="node">
<title>Node10</title>
<g id="a_node10"><a xlink:title=" ">
<polygon fill="none" stroke="#bfbfbf" points="316,-56.5 316,-75.5 348,-75.5 348,-56.5 316,-56.5"/>
<text text-anchor="middle" x="332" y="-63.5" font-family="Helvetica,sans-Serif" font-size="10.00">list</text>
</a>
</g>
</g>
<!-- Node2&#45;&gt;Node10 -->
<g id="edge9" class="edge">
<title>Node2&#45;&gt;Node10</title>
<path fill="none" stroke="midnightblue" d="M653.81,-119.08C598.58,-114.9 472.27,-103.26 358.2,-75.84"/>
<polygon fill="midnightblue" stroke="midnightblue" points="358.8,-72.38 348.26,-73.4 357.14,-79.18 358.8,-72.38"/>
</g>
<!-- Node11 -->
<g id="node11" class="node">
<title>Node11</title>
<g id="a_node11"><a xlink:title=" ">
<polygon fill="none" stroke="#bfbfbf" points="366,-56.5 366,-75.5 404,-75.5 404,-56.5 366,-56.5"/>
<text text-anchor="middle" x="385" y="-63.5" font-family="Helvetica,sans-Serif" font-size="10.00">map</text>
</a>
</g>
</g>
<!-- Node2&#45;&gt;Node11 -->
<g id="edge10" class="edge">
<title>Node2&#45;&gt;Node11</title>
<path fill="none" stroke="midnightblue" d="M653.85,-117.66C606.27,-111.72 506.83,-98.05 414,-75.95"/>
<polygon fill="midnightblue" stroke="midnightblue" points="414.72,-72.52 404.17,-73.57 413.07,-79.32 414.72,-72.52"/>
</g>
<!-- Node12 -->
<g id="node12" class="node">
<title>Node12</title>
<g id="a_node12"><a xlink:title=" ">
<polygon fill="none" stroke="#bfbfbf" points="422,-56.5 422,-75.5 454,-75.5 454,-56.5 422,-56.5"/>
<text text-anchor="middle" x="438" y="-63.5" font-family="Helvetica,sans-Serif" font-size="10.00">set</text>
</a>
</g>
</g>
<!-- Node2&#45;&gt;Node12 -->
<g id="edge11" class="edge">
<title>Node2&#45;&gt;Node12</title>
<path fill="none" stroke="midnightblue" d="M653.69,-116.52C613.46,-109.86 537.35,-96.2 463.9,-75.92"/>
<polygon fill="midnightblue" stroke="midnightblue" points="464.6,-72.49 454.03,-73.15 462.71,-79.22 464.6,-72.49"/>
</g>
<!-- Node13 -->
<g id="node13" class="node">
<title>Node13</title>
<g id="a_node13"><a xlink:title=" ">
<polygon fill="none" stroke="#bfbfbf" points="472,-56.5 472,-75.5 528,-75.5 528,-56.5 472,-56.5"/>
<text text-anchor="middle" x="500" y="-63.5" font-family="Helvetica,sans-Serif" font-size="10.00">sstream</text>
</a>
</g>
</g>
<!-- Node2&#45;&gt;Node13 -->
<g id="edge12" class="edge">
<title>Node2&#45;&gt;Node13</title>
<path fill="none" stroke="midnightblue" d="M653.96,-112.68C622.83,-103.44 572.43,-88.49 537.82,-78.22"/>
<polygon fill="midnightblue" stroke="midnightblue" points="538.65,-74.82 528.07,-75.33 536.66,-81.53 538.65,-74.82"/>
</g>
<!-- Node14 -->
<g id="node14" class="node">
<title>Node14</title>
<g id="a_node14"><a xlink:title=" ">
<polygon fill="none" stroke="#bfbfbf" points="546,-56.5 546,-75.5 596,-75.5 596,-56.5 546,-56.5"/>
<text text-anchor="middle" x="571" y="-63.5" font-family="Helvetica,sans-Serif" font-size="10.00">stdio.h</text>
</a>
</g>
</g>
<!-- Node2&#45;&gt;Node14 -->
<g id="edge13" class="edge">
<title>Node2&#45;&gt;Node14</title>
<path fill="none" stroke="midnightblue" d="M664.17,-112.32C646.28,-103.62 618.52,-90.12 597.95,-80.11"/>
<polygon fill="midnightblue" stroke="midnightblue" points="599.31,-76.88 588.79,-75.65 596.25,-83.18 599.31,-76.88"/>
</g>
<!-- Node15 -->
<g id="node15" class="node">
<title>Node15</title>
<g id="a_node15"><a xlink:title=" ">
<polygon fill="none" stroke="#bfbfbf" points="614,-56.5 614,-75.5 658,-75.5 658,-56.5 614,-56.5"/>
<text text-anchor="middle" x="636" y="-63.5" font-family="Helvetica,sans-Serif" font-size="10.00">string</text>
</a>
</g>
</g>
<!-- Node2&#45;&gt;Node15 -->
<g id="edge14" class="edge">
<title>Node2&#45;&gt;Node15</title>
<path fill="none" stroke="midnightblue" d="M674.4,-112.08C667.77,-104.3 657.98,-92.8 649.94,-83.37"/>
<polygon fill="midnightblue" stroke="midnightblue" points="652.6,-81.09 643.45,-75.75 647.27,-85.63 652.6,-81.09"/>
</g>
<!-- Node16 -->
<g id="node16" class="node">
<title>Node16</title>
<g id="a_node16"><a xlink:title=" ">
<polygon fill="none" stroke="#bfbfbf" points="1556.5,-56.5 1556.5,-75.5 1607.5,-75.5 1607.5,-56.5 1556.5,-56.5"/>
<text text-anchor="middle" x="1582" y="-63.5" font-family="Helvetica,sans-Serif" font-size="10.00">variant</text>
</a>
</g>
</g>
<!-- Node2&#45;&gt;Node16 -->
<g id="edge15" class="edge">
<title>Node2&#45;&gt;Node16</title>
<path fill="none" stroke="midnightblue" d="M710.05,-120.29C837.17,-116.99 1360.56,-102.11 1546.23,-75.73"/>
<polygon fill="midnightblue" stroke="midnightblue" points="1546.75,-79.2 1556.13,-74.27 1545.72,-72.27 1546.75,-79.2"/>
</g>
<!-- Node17 -->
<g id="node17" class="node">
<title>Node17</title>
<g id="a_node17"><a xlink:title=" ">
<polygon fill="none" stroke="#bfbfbf" points="0,-56.5 0,-75.5 68,-75.5 68,-56.5 0,-56.5"/>
<text text-anchor="middle" x="34" y="-63.5" font-family="Helvetica,sans-Serif" font-size="10.00">windows.h</text>
</a>
</g>
</g>
<!-- Node2&#45;&gt;Node17 -->
<g id="edge16" class="edge">
<title>Node2&#45;&gt;Node17</title>
<path fill="none" stroke="midnightblue" d="M653.82,-120.23C568.54,-117.61 305.69,-107.49 78.31,-76"/>
<polygon fill="midnightblue" stroke="midnightblue" points="78.58,-72.5 68.2,-74.58 77.61,-79.44 78.58,-72.5"/>
</g>
<!-- Node18 -->
<g id="node18" class="node">
<title>Node18</title>
<g id="a_node18"><a xlink:title=" ">
<polygon fill="none" stroke="#bfbfbf" points="676,-56.5 676,-75.5 780,-75.5 780,-56.5 676,-56.5"/>
<text text-anchor="middle" x="728" y="-63.5" font-family="Helvetica,sans-Serif" font-size="10.00">FLCoreCommon.h</text>
</a>
</g>
</g>
<!-- Node2&#45;&gt;Node18 -->
<g id="edge17" class="edge">
<title>Node2&#45;&gt;Node18</title>
<path fill="none" stroke="midnightblue" d="M689.6,-112.08C696.23,-104.3 706.02,-92.8 714.06,-83.37"/>
<polygon fill="midnightblue" stroke="midnightblue" points="716.73,-85.63 720.55,-75.75 711.4,-81.09 716.73,-85.63"/>
</g>
<!-- Node19 -->
<g id="node19" class="node">
<title>Node19</title>
<g id="a_node19"><a xlink:title=" ">
<polygon fill="none" stroke="#bfbfbf" points="798,-56.5 798,-75.5 886,-75.5 886,-56.5 798,-56.5"/>
<text text-anchor="middle" x="842" y="-63.5" font-family="Helvetica,sans-Serif" font-size="10.00">FLCoreDALib.h</text>
</a>
</g>
</g>
<!-- Node2&#45;&gt;Node19 -->
<g id="edge18" class="edge">
<title>Node2&#45;&gt;Node19</title>
<path fill="none" stroke="midnightblue" d="M707.35,-112.44C734.27,-103.36 777,-88.94 807.09,-78.78"/>
<polygon fill="midnightblue" stroke="midnightblue" points="808.41,-82.03 816.77,-75.52 806.17,-75.4 808.41,-82.03"/>
</g>
<!-- Node20 -->
<g id="node20" class="node">
<title>Node20</title>
<g id="a_node20"><a xlink:title=" ">
<polygon fill="none" stroke="#bfbfbf" points="904,-56.5 904,-75.5 1030,-75.5 1030,-56.5 904,-56.5"/>
<text text-anchor="middle" x="967" y="-63.5" font-family="Helvetica,sans-Serif" font-size="10.00">FLCoreRemoteClient.h</text>
</a>
</g>
</g>
<!-- Node2&#45;&gt;Node20 -->
<g id="edge19" class="edge">
<title>Node2&#45;&gt;Node20</title>
<path fill="none" stroke="midnightblue" d="M710.11,-115.67C756.84,-106.82 851.33,-88.92 911.77,-77.46"/>
<polygon fill="midnightblue" stroke="midnightblue" points="912.73,-80.85 921.9,-75.55 911.42,-73.97 912.73,-80.85"/>
</g>
<!-- Node21 -->
<g id="node21" class="node">
<title>Node21</title>
<g id="a_node21"><a xlink:title=" ">
<polygon fill="none" stroke="#bfbfbf" points="1048,-56.5 1048,-75.5 1138,-75.5 1138,-56.5 1048,-56.5"/>
<text text-anchor="middle" x="1093" y="-63.5" font-family="Helvetica,sans-Serif" font-size="10.00">FLCoreServer.h</text>
</a>
</g>
</g>
<!-- Node2&#45;&gt;Node21 -->
<g id="edge20" class="edge">
<title>Node2&#45;&gt;Node21</title>
<path fill="none" stroke="midnightblue" d="M710.28,-117.82C769.19,-111.12 909.55,-94.72 1037.93,-76.11"/>
<polygon fill="midnightblue" stroke="midnightblue" points="1038.55,-79.55 1047.94,-74.65 1037.54,-72.63 1038.55,-79.55"/>
</g>
<!-- Node22 -->
<g id="node22" class="node">
<title>Node22</title>
<g id="a_node22"><a xlink:href="_serialization_8hpp.html" target="_top" xlink:title=" ">
<polygon fill="none" stroke="black" points="1156,-56.5 1156,-75.5 1282,-75.5 1282,-56.5 1156,-56.5"/>
<text text-anchor="middle" x="1219" y="-63.5" font-family="Helvetica,sans-Serif" font-size="10.00">Tools/Serialization.hpp</text>
</a>
</g>
</g>
<!-- Node2&#45;&gt;Node22 -->
<g id="edge21" class="edge">
<title>Node2&#45;&gt;Node22</title>
<path fill="none" stroke="midnightblue" d="M710.07,-118.56C781.11,-112.32 974.01,-95.02 1145.81,-76.1"/>
<polygon fill="midnightblue" stroke="midnightblue" points="1146.24,-79.58 1155.8,-75 1145.47,-72.62 1146.24,-79.58"/>
</g>
<!-- Node4 -->
<g id="node4" class="node">
<title>Node4</title>
<g id="a_node4"><a xlink:title=" ">
<polygon fill="none" stroke="#bfbfbf" points="1335,-0.5 1335,-19.5 1393,-19.5 1393,-0.5 1335,-0.5"/>
<text text-anchor="middle" x="1364" y="-7.5" font-family="Helvetica,sans-Serif" font-size="10.00">memory</text>
</a>
</g>
</g>
<!-- Node3&#45;&gt;Node4 -->
<g id="edge3" class="edge">
<title>Node3&#45;&gt;Node4</title>
<path fill="none" stroke="midnightblue" d="M1340.62,-56.08C1344.46,-48.69 1350.02,-37.95 1354.76,-28.81"/>
<polygon fill="midnightblue" stroke="midnightblue" points="1357.97,-30.24 1359.46,-19.75 1351.75,-27.02 1357.97,-30.24"/>
</g>
<!-- Node23 -->
<g id="node23" class="node">
<title>Node23</title>
<g id="a_node23"><a xlink:title=" ">
<polygon fill="none" stroke="#bfbfbf" points="1061.5,-0.5 1061.5,-19.5 1116.5,-19.5 1116.5,-0.5 1061.5,-0.5"/>
<text text-anchor="middle" x="1089" y="-7.5" font-family="Helvetica,sans-Serif" font-size="10.00">fstream</text>
</a>
</g>
</g>
<!-- Node22&#45;&gt;Node23 -->
<g id="edge22" class="edge">
<title>Node22&#45;&gt;Node23</title>
<path fill="none" stroke="midnightblue" d="M1198.4,-56.44C1177.01,-47.56 1143.32,-33.56 1118.98,-23.45"/>
<polygon fill="midnightblue" stroke="midnightblue" points="1120.08,-20.12 1109.5,-19.52 1117.39,-26.58 1120.08,-20.12"/>
</g>
<!-- Node24 -->
<g id="node24" class="node">
<title>Node24</title>
<g id="a_node24"><a xlink:title=" ">
<polygon fill="none" stroke="#bfbfbf" points="1135,-0.5 1135,-19.5 1245,-19.5 1245,-0.5 1135,-0.5"/>
<text text-anchor="middle" x="1190" y="-7.5" font-family="Helvetica,sans-Serif" font-size="10.00">nlohmann/json.hpp</text>
</a>
</g>
</g>
<!-- Node22&#45;&gt;Node24 -->
<g id="edge23" class="edge">
<title>Node22&#45;&gt;Node24</title>
<path fill="none" stroke="midnightblue" d="M1214.21,-56.08C1210.24,-48.69 1204.47,-37.95 1199.57,-28.81"/>
<polygon fill="midnightblue" stroke="midnightblue" points="1202.51,-26.91 1194.7,-19.75 1196.35,-30.22 1202.51,-26.91"/>
</g>
<!-- Node25 -->
<g id="node25" class="node">
<title>Node25</title>
<g id="a_node25"><a xlink:title=" ">
<polygon fill="none" stroke="#bfbfbf" points="1263.5,-0.5 1263.5,-19.5 1316.5,-19.5 1316.5,-0.5 1263.5,-0.5"/>
<text text-anchor="middle" x="1290" y="-7.5" font-family="Helvetica,sans-Serif" font-size="10.00">refl.hpp</text>
</a>
</g>
</g>
<!-- Node22&#45;&gt;Node25 -->
<g id="edge24" class="edge">
<title>Node22&#45;&gt;Node25</title>
<path fill="none" stroke="midnightblue" d="M1230.41,-56.32C1241.11,-48.18 1257.34,-35.84 1270.16,-26.09"/>
<polygon fill="midnightblue" stroke="midnightblue" points="1272.54,-28.67 1278.39,-19.83 1268.31,-23.1 1272.54,-28.67"/>
</g>
<!-- Node26&#45;&gt;Node17 -->
<g id="edge26" class="edge">
<title>Node26&#45;&gt;Node17</title>
<path fill="none" stroke="midnightblue" d="M441.68,-168.46C362.37,-148.72 166.42,-99.96 78.25,-78.01"/>
<polygon fill="midnightblue" stroke="midnightblue" points="78.84,-74.55 68.29,-75.53 77.15,-81.35 78.84,-74.55"/>
</g>
<!-- Node27&#45;&gt;Node2 -->
<g id="edge28" class="edge">
<title>Node27&#45;&gt;Node2</title>
<path fill="none" stroke="midnightblue" d="M1156.86,-174.29C1075.37,-165.48 818.13,-137.7 720.28,-127.13"/>
<polygon fill="midnightblue" stroke="midnightblue" points="720.56,-123.64 710.24,-126.05 719.8,-130.6 720.56,-123.64"/>
</g>
<!-- Node27&#45;&gt;Node16 -->
<g id="edge33" class="edge">
<title>Node27&#45;&gt;Node16</title>
<path fill="none" stroke="midnightblue" d="M1207.02,-170.12C1275.61,-151.26 1466.77,-98.69 1546.44,-76.78"/>
<polygon fill="midnightblue" stroke="midnightblue" points="1547.76,-80.05 1556.47,-74.02 1545.9,-73.3 1547.76,-80.05"/>
</g>
<!-- Node28 -->
<g id="node28" class="node">
<title>Node28</title>
<g id="a_node28"><a xlink:href="flcodec_8h.html" target="_top" xlink:title=" ">
<polygon fill="none" stroke="black" points="1589,-112.5 1589,-131.5 1649,-131.5 1649,-112.5 1589,-112.5"/>
<text text-anchor="middle" x="1619" y="-119.5" font-family="Helvetica,sans-Serif" font-size="10.00">flcodec.h</text>
</a>
</g>
</g>
<!-- Node27&#45;&gt;Node28 -->
<g id="edge29" class="edge">
<title>Node27&#45;&gt;Node28</title>
<path fill="none" stroke="midnightblue" d="M1207.06,-173.9C1279.64,-164.93 1490.39,-138.89 1579.01,-127.94"/>
<polygon fill="midnightblue" stroke="midnightblue" points="1579.45,-131.41 1588.94,-126.71 1578.59,-124.47 1579.45,-131.41"/>
</g>
<!-- Node30 -->
<g id="node30" class="node">
<title>Node30</title>
<g id="a_node30"><a xlink:title=" ">
<polygon fill="none" stroke="#bfbfbf" points="1048.5,-112.5 1048.5,-131.5 1139.5,-131.5 1139.5,-112.5 1048.5,-112.5"/>
<text text-anchor="middle" x="1094" y="-119.5" font-family="Helvetica,sans-Serif" font-size="10.00">spdlog/logger.h</text>
</a>
</g>
</g>
<!-- Node27&#45;&gt;Node30 -->
<g id="edge31" class="edge">
<title>Node27&#45;&gt;Node30</title>
<path fill="none" stroke="midnightblue" d="M1167.86,-168.32C1154.13,-159.9 1133.06,-146.97 1116.94,-137.07"/>
<polygon fill="midnightblue" stroke="midnightblue" points="1118.46,-133.9 1108.1,-131.65 1114.8,-139.87 1118.46,-133.9"/>
</g>
<!-- Node31 -->
<g id="node31" class="node">
<title>Node31</title>
<g id="a_node31"><a xlink:title=" ">
<polygon fill="none" stroke="#bfbfbf" points="1158,-112.5 1158,-131.5 1206,-131.5 1206,-112.5 1158,-112.5"/>
<text text-anchor="middle" x="1182" y="-119.5" font-family="Helvetica,sans-Serif" font-size="10.00">time.h</text>
</a>
</g>
</g>
<!-- Node27&#45;&gt;Node31 -->
<g id="edge32" class="edge">
<title>Node27&#45;&gt;Node31</title>
<path fill="none" stroke="midnightblue" d="M1182,-168.08C1182,-161.01 1182,-150.86 1182,-141.99"/>
<polygon fill="midnightblue" stroke="midnightblue" points="1185.5,-141.75 1182,-131.75 1178.5,-141.75 1185.5,-141.75"/>
</g>
<!-- Node32 -->
<g id="node32" class="node">
<title>Node32</title>
<g id="a_node32"><a xlink:title=" ">
<polygon fill="none" stroke="#bfbfbf" points="1224,-112.5 1224,-131.5 1280,-131.5 1280,-112.5 1224,-112.5"/>
<text text-anchor="middle" x="1252" y="-119.5" font-family="Helvetica,sans-Serif" font-size="10.00">plugin.h</text>
</a>
</g>
</g>
<!-- Node27&#45;&gt;Node32 -->
<g id="edge34" class="edge">
<title>Node27&#45;&gt;Node32</title>
<path fill="none" stroke="midnightblue" d="M1193.25,-168.32C1203.8,-160.18 1219.8,-147.84 1232.44,-138.09"/>
<polygon fill="midnightblue" stroke="midnightblue" points="1234.77,-140.71 1240.55,-131.83 1230.49,-135.17 1234.77,-140.71"/>
</g>
<!-- Node29 -->
<g id="node29" class="node">
<title>Node29</title>
<g id="a_node29"><a xlink:title=" ">
<polygon fill="none" stroke="#bfbfbf" points="1626,-56.5 1626,-75.5 1708,-75.5 1708,-56.5 1626,-56.5"/>
<text text-anchor="middle" x="1667" y="-63.5" font-family="Helvetica,sans-Serif" font-size="10.00">FLCoreDefs.h</text>
</a>
</g>
</g>
<!-- Node28&#45;&gt;Node29 -->
<g id="edge30" class="edge">
<title>Node28&#45;&gt;Node29</title>
<path fill="none" stroke="midnightblue" d="M1626.93,-112.08C1633.85,-104.3 1644.07,-92.8 1652.45,-83.37"/>
<polygon fill="midnightblue" stroke="midnightblue" points="1655.19,-85.55 1659.22,-75.75 1649.96,-80.9 1655.19,-85.55"/>
</g>
</g>
</svg>
