<?xml version="1.0" encoding="UTF-8" standalone="no"?>
<!DOCTYPE svg PUBLIC "-//W3C//DTD SVG 1.1//EN"
 "http://www.w3.org/Graphics/SVG/1.1/DTD/svg11.dtd">
<!-- Generated by graphviz version 2.43.0 (0)
 -->
<!-- Title: source/Exceptions.cpp Pages: 1 -->
<svg width="620pt" height="137pt"
 viewBox="0.00 0.00 619.50 137.00" xmlns="http://www.w3.org/2000/svg" xmlns:xlink="http://www.w3.org/1999/xlink">
<g id="graph0" class="graph" transform="scale(1 1) rotate(0) translate(4 133)">
<title>source/Exceptions.cpp</title>
<!-- Node1 -->
<g id="node1" class="node">
<title>Node1</title>
<g id="a_node1"><a xlink:title=" ">
<polygon fill="#999999" stroke="#666666" points="403.5,-129 278.5,-129 278.5,-110 403.5,-110 403.5,-129"/>
<text text-anchor="middle" x="341" y="-117" font-family="Helvetica,sans-Serif" font-size="10.00">source/Exceptions.cpp</text>
</a>
</g>
</g>
<!-- Node2 -->
<g id="node2" class="node">
<title>Node2</title>
<g id="a_node2"><a xlink:href="_global_8hpp.html" target="_top" xlink:title=" ">
<polygon fill="white" stroke="#666666" points="71.5,-74 2.5,-74 2.5,-55 71.5,-55 71.5,-74"/>
<text text-anchor="middle" x="37" y="-62" font-family="Helvetica,sans-Serif" font-size="10.00">Global.hpp</text>
</a>
</g>
</g>
<!-- Node1&#45;&gt;Node2 -->
<g id="edge1" class="edge">
<title>Node1&#45;&gt;Node2</title>
<path fill="none" stroke="#63b8ff" d="M289.15,-109.96C238.78,-101.59 159.89,-88.28 81.61,-74.08"/>
<polygon fill="#63b8ff" stroke="#63b8ff" points="82.04,-70.6 71.57,-72.25 80.79,-77.49 82.04,-70.6"/>
</g>
<!-- Node4 -->
<g id="node4" class="node">
<title>Node4</title>
<g id="a_node4"><a xlink:href="_exception_info_8h.html" target="_top" xlink:title=" ">
<polygon fill="white" stroke="#666666" points="182,-74 90,-74 90,-55 182,-55 182,-74"/>
<text text-anchor="middle" x="136" y="-62" font-family="Helvetica,sans-Serif" font-size="10.00">ExceptionInfo.h</text>
</a>
</g>
</g>
<!-- Node1&#45;&gt;Node4 -->
<g id="edge3" class="edge">
<title>Node1&#45;&gt;Node4</title>
<path fill="none" stroke="#63b8ff" d="M308.06,-109.98C273.05,-100.93 217.53,-86.58 179.07,-76.64"/>
<polygon fill="#63b8ff" stroke="#63b8ff" points="179.75,-73.2 169.19,-74.08 178,-79.97 179.75,-73.2"/>
</g>
<!-- Node6 -->
<g id="node6" class="node">
<title>Node6</title>
<g id="a_node6"><a xlink:title=" ">
<polygon fill="#e0e0e0" stroke="#999999" points="252,-74 200,-74 200,-55 252,-55 252,-74"/>
<text text-anchor="middle" x="226" y="-62" font-family="Helvetica,sans-Serif" font-size="10.00">psapi.h</text>
</a>
</g>
</g>
<!-- Node1&#45;&gt;Node6 -->
<g id="edge5" class="edge">
<title>Node1&#45;&gt;Node6</title>
<path fill="none" stroke="#63b8ff" d="M322.52,-109.98C304.02,-101.46 275.32,-88.23 254.02,-78.41"/>
<polygon fill="#63b8ff" stroke="#63b8ff" points="255.36,-75.18 244.81,-74.17 252.43,-81.53 255.36,-75.18"/>
</g>
<!-- Node7 -->
<g id="node7" class="node">
<title>Node7</title>
<g id="a_node7"><a xlink:title=" ">
<polygon fill="#e0e0e0" stroke="#999999" points="335.5,-74 270.5,-74 270.5,-55 335.5,-55 335.5,-74"/>
<text text-anchor="middle" x="303" y="-62" font-family="Helvetica,sans-Serif" font-size="10.00">dbghelp.h</text>
</a>
</g>
</g>
<!-- Node1&#45;&gt;Node7 -->
<g id="edge6" class="edge">
<title>Node1&#45;&gt;Node7</title>
<path fill="none" stroke="#63b8ff" d="M334.73,-109.75C329.41,-102.34 321.64,-91.5 315.12,-82.41"/>
<polygon fill="#63b8ff" stroke="#63b8ff" points="317.83,-80.18 309.16,-74.09 312.14,-84.26 317.83,-80.18"/>
</g>
<!-- Node8 -->
<g id="node8" class="node">
<title>Node8</title>
<g id="a_node8"><a xlink:title=" ">
<polygon fill="#e0e0e0" stroke="#999999" points="406.5,-74 353.5,-74 353.5,-55 406.5,-55 406.5,-74"/>
<text text-anchor="middle" x="380" y="-62" font-family="Helvetica,sans-Serif" font-size="10.00">string.h</text>
</a>
</g>
</g>
<!-- Node1&#45;&gt;Node8 -->
<g id="edge7" class="edge">
<title>Node1&#45;&gt;Node8</title>
<path fill="none" stroke="#63b8ff" d="M347.44,-109.75C352.89,-102.34 360.86,-91.5 367.56,-82.41"/>
<polygon fill="#63b8ff" stroke="#63b8ff" points="370.57,-84.22 373.68,-74.09 364.93,-80.07 370.57,-84.22"/>
</g>
<!-- Node9 -->
<g id="node9" class="node">
<title>Node9</title>
<g id="a_node9"><a xlink:title=" ">
<polygon fill="#e0e0e0" stroke="#999999" points="477,-74 425,-74 425,-55 477,-55 477,-74"/>
<text text-anchor="middle" x="451" y="-62" font-family="Helvetica,sans-Serif" font-size="10.00">Psapi.h</text>
</a>
</g>
</g>
<!-- Node1&#45;&gt;Node9 -->
<g id="edge8" class="edge">
<title>Node1&#45;&gt;Node9</title>
<path fill="none" stroke="#63b8ff" d="M358.67,-109.98C376.29,-101.5 403.58,-88.35 423.93,-78.54"/>
<polygon fill="#63b8ff" stroke="#63b8ff" points="425.52,-81.66 433.01,-74.17 422.48,-75.36 425.52,-81.66"/>
</g>
<!-- Node10 -->
<g id="node10" class="node">
<title>Node10</title>
<g id="a_node10"><a xlink:title=" ">
<polygon fill="#e0e0e0" stroke="#999999" points="530.5,-74 495.5,-74 495.5,-55 530.5,-55 530.5,-74"/>
<text text-anchor="middle" x="513" y="-62" font-family="Helvetica,sans-Serif" font-size="10.00">io.h</text>
</a>
</g>
</g>
<!-- Node1&#45;&gt;Node10 -->
<g id="edge9" class="edge">
<title>Node1&#45;&gt;Node10</title>
<path fill="none" stroke="#63b8ff" d="M369.09,-109.95C396.43,-101.6 439.4,-88.46 485.68,-74.08"/>
<polygon fill="#63b8ff" stroke="#63b8ff" points="486.78,-77.41 495.29,-71.1 484.7,-70.72 486.78,-77.41"/>
</g>
<!-- Node11 -->
<g id="node11" class="node">
<title>Node11</title>
<g id="a_node11"><a xlink:title=" ">
<polygon fill="#e0e0e0" stroke="#999999" points="611.5,-74 548.5,-74 548.5,-55 611.5,-55 611.5,-74"/>
<text text-anchor="middle" x="580" y="-62" font-family="Helvetica,sans-Serif" font-size="10.00">shlwapi.h</text>
</a>
</g>
</g>
<!-- Node1&#45;&gt;Node11 -->
<g id="edge10" class="edge">
<title>Node1&#45;&gt;Node11</title>
<path fill="none" stroke="#63b8ff" d="M379.4,-109.98C422.86,-100.35 493.41,-84.7 538.22,-74.77"/>
<polygon fill="#63b8ff" stroke="#63b8ff" points="539.19,-78.14 548.2,-72.55 537.67,-71.3 539.19,-78.14"/>
</g>
<!-- Node3 -->
<g id="node3" class="node">
<title>Node3</title>
<g id="a_node3"><a xlink:title=" ">
<polygon fill="#e0e0e0" stroke="#999999" points="74,-19 0,-19 0,0 74,0 74,-19"/>
<text text-anchor="middle" x="37" y="-7" font-family="Helvetica,sans-Serif" font-size="10.00">FLHook.hpp</text>
</a>
</g>
</g>
<!-- Node2&#45;&gt;Node3 -->
<g id="edge2" class="edge">
<title>Node2&#45;&gt;Node3</title>
<path fill="none" stroke="#63b8ff" d="M37,-54.75C37,-47.8 37,-37.85 37,-29.13"/>
<polygon fill="#63b8ff" stroke="#63b8ff" points="40.5,-29.09 37,-19.09 33.5,-29.09 40.5,-29.09"/>
</g>
<!-- Node5 -->
<g id="node5" class="node">
<title>Node5</title>
<g id="a_node5"><a xlink:title=" ">
<polygon fill="#e0e0e0" stroke="#999999" points="170,-19 102,-19 102,0 170,0 170,-19"/>
<text text-anchor="middle" x="136" y="-7" font-family="Helvetica,sans-Serif" font-size="10.00">windows.h</text>
</a>
</g>
</g>
<!-- Node4&#45;&gt;Node5 -->
<g id="edge4" class="edge">
<title>Node4&#45;&gt;Node5</title>
<path fill="none" stroke="#63b8ff" d="M136,-54.75C136,-47.8 136,-37.85 136,-29.13"/>
<polygon fill="#63b8ff" stroke="#63b8ff" points="139.5,-29.09 136,-19.09 132.5,-29.09 139.5,-29.09"/>
</g>
</g>
</svg>
