<?xml version="1.0" encoding="UTF-8" standalone="no"?>
<!DOCTYPE svg PUBLIC "-//W3C//DTD SVG 1.1//EN"
 "http://www.w3.org/Graphics/SVG/1.1/DTD/svg11.dtd">
<!-- Generated by graphviz version 2.43.0 (0)
 -->
<!-- Title: source/FLHook.cpp Pages: 1 -->
<svg width="496pt" height="192pt"
 viewBox="0.00 0.00 495.50 192.00" xmlns="http://www.w3.org/2000/svg" xmlns:xlink="http://www.w3.org/1999/xlink">
<g id="graph0" class="graph" transform="scale(1 1) rotate(0) translate(4 188)">
<title>source/FLHook.cpp</title>
<!-- Node1 -->
<g id="node1" class="node">
<title>Node1</title>
<g id="a_node1"><a xlink:title=" ">
<polygon fill="#999999" stroke="#666666" points="229,-184 120,-184 120,-165 229,-165 229,-184"/>
<text text-anchor="middle" x="174.5" y="-172" font-family="Helvetica,sans-Serif" font-size="10.00">source/FLHook.cpp</text>
</a>
</g>
</g>
<!-- Node2 -->
<g id="node2" class="node">
<title>Node2</title>
<g id="a_node2"><a xlink:href="_global_8hpp.html" target="_top" xlink:title=" ">
<polygon fill="white" stroke="#666666" points="241,-74 172,-74 172,-55 241,-55 241,-74"/>
<text text-anchor="middle" x="206.5" y="-62" font-family="Helvetica,sans-Serif" font-size="10.00">Global.hpp</text>
</a>
</g>
</g>
<!-- Node1&#45;&gt;Node2 -->
<g id="edge1" class="edge">
<title>Node1&#45;&gt;Node2</title>
<path fill="none" stroke="#63b8ff" d="M170.91,-164.97C166.2,-152.48 159.34,-128.68 166.5,-110 170.74,-98.94 179.14,-88.91 187.14,-81.18"/>
<polygon fill="#63b8ff" stroke="#63b8ff" points="189.75,-83.55 194.86,-74.27 185.08,-78.33 189.75,-83.55"/>
</g>
<!-- Node4 -->
<g id="node4" class="node">
<title>Node4</title>
<g id="a_node4"><a xlink:href="_c_console_8h.html" target="_top" xlink:title=" ">
<polygon fill="white" stroke="#666666" points="71,-74 0,-74 0,-55 71,-55 71,-74"/>
<text text-anchor="middle" x="35.5" y="-62" font-family="Helvetica,sans-Serif" font-size="10.00">CConsole.h</text>
</a>
</g>
</g>
<!-- Node1&#45;&gt;Node4 -->
<g id="edge3" class="edge">
<title>Node1&#45;&gt;Node4</title>
<path fill="none" stroke="#63b8ff" d="M163.13,-164.66C139.39,-146.22 84.34,-103.45 54.9,-80.57"/>
<polygon fill="#63b8ff" stroke="#63b8ff" points="56.69,-77.53 46.64,-74.16 52.39,-83.06 56.69,-77.53"/>
</g>
<!-- Node5 -->
<g id="node5" class="node">
<title>Node5</title>
<g id="a_node5"><a xlink:href="_c_socket_8h.html" target="_top" xlink:title=" ">
<polygon fill="white" stroke="#666666" points="154,-74 89,-74 89,-55 154,-55 154,-74"/>
<text text-anchor="middle" x="121.5" y="-62" font-family="Helvetica,sans-Serif" font-size="10.00">CSocket.h</text>
</a>
</g>
</g>
<!-- Node1&#45;&gt;Node5 -->
<g id="edge5" class="edge">
<title>Node1&#45;&gt;Node5</title>
<path fill="none" stroke="#63b8ff" d="M170.16,-164.66C161.46,-146.93 141.73,-106.73 130.24,-83.32"/>
<polygon fill="#63b8ff" stroke="#63b8ff" points="133.3,-81.59 125.75,-74.16 127.01,-84.68 133.3,-81.59"/>
</g>
<!-- Node6 -->
<g id="node6" class="node">
<title>Node6</title>
<g id="a_node6"><a xlink:title=" ">
<polygon fill="#e0e0e0" stroke="#999999" points="227.5,-129 175.5,-129 175.5,-110 227.5,-110 227.5,-129"/>
<text text-anchor="middle" x="201.5" y="-117" font-family="Helvetica,sans-Serif" font-size="10.00">Psapi.h</text>
</a>
</g>
</g>
<!-- Node1&#45;&gt;Node6 -->
<g id="edge7" class="edge">
<title>Node1&#45;&gt;Node6</title>
<path fill="none" stroke="#63b8ff" d="M178.96,-164.75C182.62,-157.57 187.91,-147.18 192.45,-138.27"/>
<polygon fill="#63b8ff" stroke="#63b8ff" points="195.7,-139.59 197.12,-129.09 189.47,-136.41 195.7,-139.59"/>
</g>
<!-- Node7 -->
<g id="node7" class="node">
<title>Node7</title>
<g id="a_node7"><a xlink:title=" ">
<polygon fill="#e0e0e0" stroke="#999999" points="305.5,-129 245.5,-129 245.5,-110 305.5,-110 305.5,-129"/>
<text text-anchor="middle" x="275.5" y="-117" font-family="Helvetica,sans-Serif" font-size="10.00">iostream</text>
</a>
</g>
</g>
<!-- Node1&#45;&gt;Node7 -->
<g id="edge8" class="edge">
<title>Node1&#45;&gt;Node7</title>
<path fill="none" stroke="#63b8ff" d="M190.73,-164.98C206.68,-156.61 231.28,-143.7 249.88,-133.95"/>
<polygon fill="#63b8ff" stroke="#63b8ff" points="251.75,-136.92 258.98,-129.17 248.5,-130.72 251.75,-136.92"/>
</g>
<!-- Node8 -->
<g id="node8" class="node">
<title>Node8</title>
<g id="a_node8"><a xlink:href="_memory_manager_8hpp.html" target="_top" xlink:title=" ">
<polygon fill="white" stroke="#666666" points="487.5,-129 323.5,-129 323.5,-110 487.5,-110 487.5,-129"/>
<text text-anchor="middle" x="405.5" y="-117" font-family="Helvetica,sans-Serif" font-size="10.00">Memory/MemoryManager.hpp</text>
</a>
</g>
</g>
<!-- Node1&#45;&gt;Node8 -->
<g id="edge9" class="edge">
<title>Node1&#45;&gt;Node8</title>
<path fill="none" stroke="#63b8ff" d="M211.61,-164.98C251.49,-155.84 314.96,-141.27 358.34,-131.32"/>
<polygon fill="#63b8ff" stroke="#63b8ff" points="359.13,-134.73 368.09,-129.08 357.57,-127.91 359.13,-134.73"/>
</g>
<!-- Node3 -->
<g id="node3" class="node">
<title>Node3</title>
<g id="a_node3"><a xlink:title=" ">
<polygon fill="#e0e0e0" stroke="#999999" points="158.5,-19 84.5,-19 84.5,0 158.5,0 158.5,-19"/>
<text text-anchor="middle" x="121.5" y="-7" font-family="Helvetica,sans-Serif" font-size="10.00">FLHook.hpp</text>
</a>
</g>
</g>
<!-- Node2&#45;&gt;Node3 -->
<g id="edge2" class="edge">
<title>Node2&#45;&gt;Node3</title>
<path fill="none" stroke="#63b8ff" d="M192.84,-54.98C179.66,-46.77 159.47,-34.18 143.93,-24.49"/>
<polygon fill="#63b8ff" stroke="#63b8ff" points="145.74,-21.49 135.41,-19.17 142.04,-27.43 145.74,-21.49"/>
</g>
<!-- Node4&#45;&gt;Node3 -->
<g id="edge4" class="edge">
<title>Node4&#45;&gt;Node3</title>
<path fill="none" stroke="#63b8ff" d="M49.32,-54.98C62.65,-46.77 83.08,-34.18 98.81,-24.49"/>
<polygon fill="#63b8ff" stroke="#63b8ff" points="100.75,-27.4 107.43,-19.17 97.08,-21.44 100.75,-27.4"/>
</g>
<!-- Node5&#45;&gt;Node3 -->
<g id="edge6" class="edge">
<title>Node5&#45;&gt;Node3</title>
<path fill="none" stroke="#63b8ff" d="M121.5,-54.75C121.5,-47.8 121.5,-37.85 121.5,-29.13"/>
<polygon fill="#63b8ff" stroke="#63b8ff" points="125,-29.09 121.5,-19.09 118,-29.09 125,-29.09"/>
</g>
<!-- Node8&#45;&gt;Node2 -->
<g id="edge10" class="edge">
<title>Node8&#45;&gt;Node2</title>
<path fill="none" stroke="#63b8ff" d="M373.53,-109.98C339.68,-100.97 286.1,-86.7 248.79,-76.76"/>
<polygon fill="#63b8ff" stroke="#63b8ff" points="249.29,-73.27 238.72,-74.08 247.49,-80.04 249.29,-73.27"/>
</g>
</g>
</svg>
