<?xml version="1.0" encoding="UTF-8" standalone="no"?>
<!DOCTYPE svg PUBLIC "-//W3C//DTD SVG 1.1//EN"
 "http://www.w3.org/Graphics/SVG/1.1/DTD/svg11.dtd">
<!-- Generated by graphviz version 2.43.0 (0)
 -->
<!-- Title: source/FLHook.cpp Pages: 1 -->
<svg width="238pt" height="192pt"
 viewBox="0.00 0.00 237.50 192.00" xmlns="http://www.w3.org/2000/svg" xmlns:xlink="http://www.w3.org/1999/xlink">
<g id="graph0" class="graph" transform="scale(1 1) rotate(0) translate(4 188)">
<title>source/FLHook.cpp</title>
<!-- Node1 -->
<g id="node1" class="node">
<title>Node1</title>
<g id="a_node1"><a xlink:title=" ">
<polygon fill="#999999" stroke="#666666" points="149.5,-184 40.5,-184 40.5,-165 149.5,-165 149.5,-184"/>
<text text-anchor="middle" x="95" y="-172" font-family="Helvetica,sans-Serif" font-size="10.00">source/FLHook.cpp</text>
</a>
</g>
</g>
<!-- Node2 -->
<g id="node2" class="node">
<title>Node2</title>
<g id="a_node2"><a xlink:href="_global_8hpp.html" target="_top" xlink:title=" ">
<polygon fill="white" stroke="#666666" points="129.5,-74 60.5,-74 60.5,-55 129.5,-55 129.5,-74"/>
<text text-anchor="middle" x="95" y="-62" font-family="Helvetica,sans-Serif" font-size="10.00">Global.hpp</text>
</a>
</g>
</g>
<!-- Node1&#45;&gt;Node2 -->
<g id="edge1" class="edge">
<title>Node1&#45;&gt;Node2</title>
<path fill="none" stroke="#63b8ff" d="M56.58,-164.96C37.26,-158.52 15.55,-147.5 4,-129 -11,-104.96 21.27,-87.59 51.45,-77.15"/>
<polygon fill="#63b8ff" stroke="#63b8ff" points="52.69,-80.43 61.11,-74.01 50.52,-73.77 52.69,-80.43"/>
</g>
<!-- Node4 -->
<g id="node4" class="node">
<title>Node4</title>
<g id="a_node4"><a xlink:href="_c_console_8h.html" target="_top" xlink:title=" ">
<polygon fill="white" stroke="#666666" points="229.5,-74 158.5,-74 158.5,-55 229.5,-55 229.5,-74"/>
<text text-anchor="middle" x="194" y="-62" font-family="Helvetica,sans-Serif" font-size="10.00">CConsole.h</text>
</a>
</g>
</g>
<!-- Node1&#45;&gt;Node4 -->
<g id="edge3" class="edge">
<title>Node1&#45;&gt;Node4</title>
<path fill="none" stroke="#63b8ff" d="M130.68,-164.98C150.16,-158.44 172.91,-147.31 186,-129 195.19,-116.15 196.64,-97.98 196.11,-84.37"/>
<polygon fill="#63b8ff" stroke="#63b8ff" points="199.59,-83.93 195.33,-74.23 192.61,-84.47 199.59,-83.93"/>
</g>
<!-- Node5 -->
<g id="node5" class="node">
<title>Node5</title>
<g id="a_node5"><a xlink:href="_memory_manager_8hpp.html" target="_top" xlink:title=" ">
<polygon fill="white" stroke="#666666" points="177,-129 13,-129 13,-110 177,-110 177,-129"/>
<text text-anchor="middle" x="95" y="-117" font-family="Helvetica,sans-Serif" font-size="10.00">Memory/MemoryManager.hpp</text>
</a>
</g>
</g>
<!-- Node1&#45;&gt;Node5 -->
<g id="edge5" class="edge">
<title>Node1&#45;&gt;Node5</title>
<path fill="none" stroke="#63b8ff" d="M95,-164.75C95,-157.8 95,-147.85 95,-139.13"/>
<polygon fill="#63b8ff" stroke="#63b8ff" points="98.5,-139.09 95,-129.09 91.5,-139.09 98.5,-139.09"/>
</g>
<!-- Node3 -->
<g id="node3" class="node">
<title>Node3</title>
<g id="a_node3"><a xlink:title=" ">
<polygon fill="#e0e0e0" stroke="#999999" points="176,-19 102,-19 102,0 176,0 176,-19"/>
<text text-anchor="middle" x="139" y="-7" font-family="Helvetica,sans-Serif" font-size="10.00">FLHook.hpp</text>
</a>
</g>
</g>
<!-- Node2&#45;&gt;Node3 -->
<g id="edge2" class="edge">
<title>Node2&#45;&gt;Node3</title>
<path fill="none" stroke="#63b8ff" d="M102.27,-54.75C108.55,-47.18 117.79,-36.05 125.43,-26.84"/>
<polygon fill="#63b8ff" stroke="#63b8ff" points="128.18,-29.02 131.87,-19.09 122.79,-24.55 128.18,-29.02"/>
</g>
<!-- Node4&#45;&gt;Node3 -->
<g id="edge4" class="edge">
<title>Node4&#45;&gt;Node3</title>
<path fill="none" stroke="#63b8ff" d="M184.92,-54.75C176.91,-47.03 165.04,-35.6 155.38,-26.28"/>
<polygon fill="#63b8ff" stroke="#63b8ff" points="157.54,-23.51 147.91,-19.09 152.69,-28.55 157.54,-23.51"/>
</g>
<!-- Node5&#45;&gt;Node2 -->
<g id="edge6" class="edge">
<title>Node5&#45;&gt;Node2</title>
<path fill="none" stroke="#63b8ff" d="M95,-109.75C95,-102.8 95,-92.85 95,-84.13"/>
<polygon fill="#63b8ff" stroke="#63b8ff" points="98.5,-84.09 95,-74.09 91.5,-84.09 98.5,-84.09"/>
</g>
</g>
</svg>
