<?xml version="1.0" encoding="UTF-8" standalone="no"?>
<!DOCTYPE svg PUBLIC "-//W3C//DTD SVG 1.1//EN"
 "http://www.w3.org/Graphics/SVG/1.1/DTD/svg11.dtd">
<!-- Generated by graphviz version 2.43.0 (0)
 -->
<!-- Title: source/FLHook.cpp Pages: 1 -->
<svg width="1716pt" height="364pt"
 viewBox="0.00 0.00 1716.00 364.00" xmlns="http://www.w3.org/2000/svg" xmlns:xlink="http://www.w3.org/1999/xlink">
<g id="graph0" class="graph" transform="scale(1 1) rotate(0) translate(4 360)">
<title>source/FLHook.cpp</title>
<!-- Node1 -->
<g id="node1" class="node">
<title>Node1</title>
<g id="a_node1"><a xlink:title=" ">
<polygon fill="#bfbfbf" stroke="black" points="531.5,-336.5 531.5,-355.5 640.5,-355.5 640.5,-336.5 531.5,-336.5"/>
<text text-anchor="middle" x="586" y="-343.5" font-family="Helvetica,sans-Serif" font-size="10.00">source/FLHook.cpp</text>
</a>
</g>
</g>
<!-- Node2 -->
<g id="node2" class="node">
<title>Node2</title>
<g id="a_node2"><a xlink:href="_c_console_8h.html" target="_top" xlink:title=" ">
<polygon fill="none" stroke="black" points="384.5,-280.5 384.5,-299.5 455.5,-299.5 455.5,-280.5 384.5,-280.5"/>
<text text-anchor="middle" x="420" y="-287.5" font-family="Helvetica,sans-Serif" font-size="10.00">CConsole.h</text>
</a>
</g>
</g>
<!-- Node1&#45;&gt;Node2 -->
<g id="edge1" class="edge">
<title>Node1&#45;&gt;Node2</title>
<path fill="none" stroke="midnightblue" d="M559.7,-336.44C531.65,-327.32 487.06,-312.81 455.82,-302.65"/>
<polygon fill="midnightblue" stroke="midnightblue" points="456.77,-299.28 446.18,-299.52 454.61,-305.94 456.77,-299.28"/>
</g>
<!-- Node4 -->
<g id="node4" class="node">
<title>Node4</title>
<g id="a_node4"><a xlink:href="_hook_8h.html" target="_top" xlink:title=" ">
<polygon fill="none" stroke="black" points="438,-168.5 438,-187.5 488,-187.5 488,-168.5 438,-168.5"/>
<text text-anchor="middle" x="463" y="-175.5" font-family="Helvetica,sans-Serif" font-size="10.00">hook.h</text>
</a>
</g>
</g>
<!-- Node1&#45;&gt;Node4 -->
<g id="edge37" class="edge">
<title>Node1&#45;&gt;Node4</title>
<path fill="none" stroke="midnightblue" d="M581.5,-336.32C574.77,-323.6 561.45,-299.31 548,-280 529.59,-253.57 522.77,-248.62 502,-224 493.9,-214.4 484.7,-203.78 477.28,-195.26"/>
<polygon fill="midnightblue" stroke="midnightblue" points="479.76,-192.79 470.54,-187.57 474.5,-197.4 479.76,-192.79"/>
</g>
<!-- Node5 -->
<g id="node5" class="node">
<title>Node5</title>
<g id="a_node5"><a xlink:href="global_8h.html" target="_top" xlink:title=" ">
<polygon fill="none" stroke="black" points="638,-112.5 638,-131.5 694,-131.5 694,-112.5 638,-112.5"/>
<text text-anchor="middle" x="666" y="-119.5" font-family="Helvetica,sans-Serif" font-size="10.00">global.h</text>
</a>
</g>
</g>
<!-- Node1&#45;&gt;Node5 -->
<g id="edge36" class="edge">
<title>Node1&#45;&gt;Node5</title>
<path fill="none" stroke="midnightblue" d="M589.14,-336.3C600.96,-303.49 642.98,-186.88 659.38,-141.38"/>
<polygon fill="midnightblue" stroke="midnightblue" points="662.7,-142.48 662.8,-131.88 656.12,-140.1 662.7,-142.48"/>
</g>
<!-- Node34 -->
<g id="node34" class="node">
<title>Node34</title>
<g id="a_node34"><a xlink:href="_c_socket_8h.html" target="_top" xlink:title=" ">
<polygon fill="none" stroke="black" points="473.5,-280.5 473.5,-299.5 538.5,-299.5 538.5,-280.5 473.5,-280.5"/>
<text text-anchor="middle" x="506" y="-287.5" font-family="Helvetica,sans-Serif" font-size="10.00">CSocket.h</text>
</a>
</g>
</g>
<!-- Node1&#45;&gt;Node34 -->
<g id="edge34" class="edge">
<title>Node1&#45;&gt;Node34</title>
<path fill="none" stroke="midnightblue" d="M573.15,-336.32C560.78,-327.98 541.87,-315.21 527.26,-305.35"/>
<polygon fill="midnightblue" stroke="midnightblue" points="529.07,-302.35 518.82,-299.65 525.15,-308.15 529.07,-302.35"/>
</g>
<!-- Node35 -->
<g id="node35" class="node">
<title>Node35</title>
<g id="a_node35"><a xlink:title=" ">
<polygon fill="none" stroke="#bfbfbf" points="633,-280.5 633,-299.5 685,-299.5 685,-280.5 633,-280.5"/>
<text text-anchor="middle" x="659" y="-287.5" font-family="Helvetica,sans-Serif" font-size="10.00">Psapi.h</text>
</a>
</g>
</g>
<!-- Node1&#45;&gt;Node35 -->
<g id="edge38" class="edge">
<title>Node1&#45;&gt;Node35</title>
<path fill="none" stroke="midnightblue" d="M597.73,-336.32C608.84,-328.11 625.74,-315.6 638.98,-305.81"/>
<polygon fill="midnightblue" stroke="midnightblue" points="641.1,-308.59 647.06,-299.83 636.94,-302.97 641.1,-308.59"/>
</g>
<!-- Node36 -->
<g id="node36" class="node">
<title>Node36</title>
<g id="a_node36"><a xlink:title=" ">
<polygon fill="none" stroke="#bfbfbf" points="703,-280.5 703,-299.5 763,-299.5 763,-280.5 703,-280.5"/>
<text text-anchor="middle" x="733" y="-287.5" font-family="Helvetica,sans-Serif" font-size="10.00">iostream</text>
</a>
</g>
</g>
<!-- Node1&#45;&gt;Node36 -->
<g id="edge39" class="edge">
<title>Node1&#45;&gt;Node36</title>
<path fill="none" stroke="midnightblue" d="M609.29,-336.44C633.81,-327.44 672.6,-313.19 700.2,-303.05"/>
<polygon fill="midnightblue" stroke="midnightblue" points="701.64,-306.25 709.82,-299.52 699.22,-299.68 701.64,-306.25"/>
</g>
<!-- Node3 -->
<g id="node3" class="node">
<title>Node3</title>
<g id="a_node3"><a xlink:href="_c_cmds_8h.html" target="_top" xlink:title=" ">
<polygon fill="none" stroke="black" points="433,-224.5 433,-243.5 493,-243.5 493,-224.5 433,-224.5"/>
<text text-anchor="middle" x="463" y="-231.5" font-family="Helvetica,sans-Serif" font-size="10.00">CCmds.h</text>
</a>
</g>
</g>
<!-- Node2&#45;&gt;Node3 -->
<g id="edge2" class="edge">
<title>Node2&#45;&gt;Node3</title>
<path fill="none" stroke="midnightblue" d="M427.1,-280.08C433.24,-272.38 442.27,-261.03 449.74,-251.65"/>
<polygon fill="midnightblue" stroke="midnightblue" points="452.54,-253.75 456.03,-243.75 447.06,-249.39 452.54,-253.75"/>
</g>
<!-- Node3&#45;&gt;Node4 -->
<g id="edge3" class="edge">
<title>Node3&#45;&gt;Node4</title>
<path fill="none" stroke="midnightblue" d="M463,-224.08C463,-217.01 463,-206.86 463,-197.99"/>
<polygon fill="midnightblue" stroke="midnightblue" points="466.5,-197.75 463,-187.75 459.5,-197.75 466.5,-197.75"/>
</g>
<!-- Node4&#45;&gt;Node5 -->
<g id="edge4" class="edge">
<title>Node4&#45;&gt;Node5</title>
<path fill="none" stroke="midnightblue" d="M488.3,-170.27C523.38,-160.94 587.07,-144 627.91,-133.13"/>
<polygon fill="midnightblue" stroke="midnightblue" points="629,-136.46 637.77,-130.51 627.21,-129.7 629,-136.46"/>
</g>
<!-- Node19 -->
<g id="node19" class="node">
<title>Node19</title>
<g id="a_node19"><a xlink:title=" ">
<polygon fill="none" stroke="#bfbfbf" points="100.5,-56.5 100.5,-75.5 151.5,-75.5 151.5,-56.5 100.5,-56.5"/>
<text text-anchor="middle" x="126" y="-63.5" font-family="Helvetica,sans-Serif" font-size="10.00">variant</text>
</a>
</g>
</g>
<!-- Node4&#45;&gt;Node19 -->
<g id="edge32" class="edge">
<title>Node4&#45;&gt;Node19</title>
<path fill="none" stroke="midnightblue" d="M437.9,-169.25C409.31,-160.4 361.21,-145.39 320,-132 264.18,-113.87 199.6,-92.06 160.82,-78.88"/>
<polygon fill="midnightblue" stroke="midnightblue" points="161.66,-75.47 151.06,-75.56 159.4,-82.1 161.66,-75.47"/>
</g>
<!-- Node29 -->
<g id="node29" class="node">
<title>Node29</title>
<g id="a_node29"><a xlink:href="flcodec_8h.html" target="_top" xlink:title=" ">
<polygon fill="none" stroke="black" points="83,-112.5 83,-131.5 143,-131.5 143,-112.5 83,-112.5"/>
<text text-anchor="middle" x="113" y="-119.5" font-family="Helvetica,sans-Serif" font-size="10.00">flcodec.h</text>
</a>
</g>
</g>
<!-- Node4&#45;&gt;Node29 -->
<g id="edge28" class="edge">
<title>Node4&#45;&gt;Node29</title>
<path fill="none" stroke="midnightblue" d="M437.91,-173.18C387.26,-165.47 269.16,-147.44 170,-132 164.56,-131.15 158.82,-130.25 153.17,-129.36"/>
<polygon fill="midnightblue" stroke="midnightblue" points="153.59,-125.89 143.17,-127.79 152.5,-132.8 153.59,-125.89"/>
</g>
<!-- Node31 -->
<g id="node31" class="node">
<title>Node31</title>
<g id="a_node31"><a xlink:title=" ">
<polygon fill="none" stroke="#bfbfbf" points="329.5,-112.5 329.5,-131.5 420.5,-131.5 420.5,-112.5 329.5,-112.5"/>
<text text-anchor="middle" x="375" y="-119.5" font-family="Helvetica,sans-Serif" font-size="10.00">spdlog/logger.h</text>
</a>
</g>
</g>
<!-- Node4&#45;&gt;Node31 -->
<g id="edge30" class="edge">
<title>Node4&#45;&gt;Node31</title>
<path fill="none" stroke="midnightblue" d="M448.86,-168.32C435.13,-159.9 414.06,-146.97 397.94,-137.07"/>
<polygon fill="midnightblue" stroke="midnightblue" points="399.46,-133.9 389.1,-131.65 395.8,-139.87 399.46,-133.9"/>
</g>
<!-- Node32 -->
<g id="node32" class="node">
<title>Node32</title>
<g id="a_node32"><a xlink:title=" ">
<polygon fill="none" stroke="#bfbfbf" points="439,-112.5 439,-131.5 487,-131.5 487,-112.5 439,-112.5"/>
<text text-anchor="middle" x="463" y="-119.5" font-family="Helvetica,sans-Serif" font-size="10.00">time.h</text>
</a>
</g>
</g>
<!-- Node4&#45;&gt;Node32 -->
<g id="edge31" class="edge">
<title>Node4&#45;&gt;Node32</title>
<path fill="none" stroke="midnightblue" d="M463,-168.08C463,-161.01 463,-150.86 463,-141.99"/>
<polygon fill="midnightblue" stroke="midnightblue" points="466.5,-141.75 463,-131.75 459.5,-141.75 466.5,-141.75"/>
</g>
<!-- Node33 -->
<g id="node33" class="node">
<title>Node33</title>
<g id="a_node33"><a xlink:title=" ">
<polygon fill="none" stroke="#bfbfbf" points="505,-112.5 505,-131.5 561,-131.5 561,-112.5 505,-112.5"/>
<text text-anchor="middle" x="533" y="-119.5" font-family="Helvetica,sans-Serif" font-size="10.00">plugin.h</text>
</a>
</g>
</g>
<!-- Node4&#45;&gt;Node33 -->
<g id="edge33" class="edge">
<title>Node4&#45;&gt;Node33</title>
<path fill="none" stroke="midnightblue" d="M474.25,-168.32C484.8,-160.18 500.8,-147.84 513.44,-138.09"/>
<polygon fill="midnightblue" stroke="midnightblue" points="515.77,-140.71 521.55,-131.83 511.49,-135.17 515.77,-140.71"/>
</g>
<!-- Node6 -->
<g id="node6" class="node">
<title>Node6</title>
<g id="a_node6"><a xlink:href="_singleton_8h.html" target="_top" xlink:title=" ">
<polygon fill="none" stroke="black" points="1552.5,-56.5 1552.5,-75.5 1623.5,-75.5 1623.5,-56.5 1552.5,-56.5"/>
<text text-anchor="middle" x="1588" y="-63.5" font-family="Helvetica,sans-Serif" font-size="10.00">Singleton.h</text>
</a>
</g>
</g>
<!-- Node5&#45;&gt;Node6 -->
<g id="edge5" class="edge">
<title>Node5&#45;&gt;Node6</title>
<path fill="none" stroke="midnightblue" d="M694.15,-121.05C802.5,-120.92 1203.01,-117.57 1542.2,-75.89"/>
<polygon fill="midnightblue" stroke="midnightblue" points="1542.72,-79.35 1552.22,-74.65 1541.86,-72.41 1542.72,-79.35"/>
</g>
<!-- Node8 -->
<g id="node8" class="node">
<title>Node8</title>
<g id="a_node8"><a xlink:href="blowfish_8h.html" target="_top" xlink:title=" ">
<polygon fill="none" stroke="black" points="1642,-56.5 1642,-75.5 1708,-75.5 1708,-56.5 1642,-56.5"/>
<text text-anchor="middle" x="1675" y="-63.5" font-family="Helvetica,sans-Serif" font-size="10.00">blowfish.h</text>
</a>
</g>
</g>
<!-- Node5&#45;&gt;Node8 -->
<g id="edge7" class="edge">
<title>Node5&#45;&gt;Node8</title>
<path fill="none" stroke="midnightblue" d="M694.23,-121.38C809.57,-122.57 1256.29,-123.74 1631.65,-75.95"/>
<polygon fill="midnightblue" stroke="midnightblue" points="1632.14,-79.42 1641.62,-74.67 1631.25,-72.48 1632.14,-79.42"/>
</g>
<!-- Node9 -->
<g id="node9" class="node">
<title>Node9</title>
<g id="a_node9"><a xlink:title=" ">
<polygon fill="none" stroke="#bfbfbf" points="170,-56.5 170,-75.5 234,-75.5 234,-56.5 170,-56.5"/>
<text text-anchor="middle" x="202" y="-63.5" font-family="Helvetica,sans-Serif" font-size="10.00">algorithm</text>
</a>
</g>
</g>
<!-- Node5&#45;&gt;Node9 -->
<g id="edge8" class="edge">
<title>Node5&#45;&gt;Node9</title>
<path fill="none" stroke="midnightblue" d="M637.8,-118.18C554.5,-109.84 311.61,-85.32 244.31,-75.93"/>
<polygon fill="midnightblue" stroke="midnightblue" points="244.57,-72.43 234.16,-74.41 243.54,-79.35 244.57,-72.43"/>
</g>
<!-- Node10 -->
<g id="node10" class="node">
<title>Node10</title>
<g id="a_node10"><a xlink:title=" ">
<polygon fill="none" stroke="#bfbfbf" points="252,-56.5 252,-75.5 294,-75.5 294,-56.5 252,-56.5"/>
<text text-anchor="middle" x="273" y="-63.5" font-family="Helvetica,sans-Serif" font-size="10.00">array</text>
</a>
</g>
</g>
<!-- Node5&#45;&gt;Node10 -->
<g id="edge9" class="edge">
<title>Node5&#45;&gt;Node10</title>
<path fill="none" stroke="midnightblue" d="M638,-118.15C567.64,-110.88 383.96,-91.3 304.28,-75.89"/>
<polygon fill="midnightblue" stroke="midnightblue" points="304.69,-72.4 294.19,-73.84 303.29,-79.26 304.69,-72.4"/>
</g>
<!-- Node11 -->
<g id="node11" class="node">
<title>Node11</title>
<g id="a_node11"><a xlink:title=" ">
<polygon fill="none" stroke="#bfbfbf" points="312,-56.5 312,-75.5 380,-75.5 380,-56.5 312,-56.5"/>
<text text-anchor="middle" x="346" y="-63.5" font-family="Helvetica,sans-Serif" font-size="10.00">filesystem</text>
</a>
</g>
</g>
<!-- Node5&#45;&gt;Node11 -->
<g id="edge10" class="edge">
<title>Node5&#45;&gt;Node11</title>
<path fill="none" stroke="midnightblue" d="M637.61,-116.82C589.04,-109.58 486.63,-93.91 390.16,-76.15"/>
<polygon fill="midnightblue" stroke="midnightblue" points="390.71,-72.69 380.24,-74.31 389.44,-79.57 390.71,-72.69"/>
</g>
<!-- Node12 -->
<g id="node12" class="node">
<title>Node12</title>
<g id="a_node12"><a xlink:title=" ">
<polygon fill="none" stroke="#bfbfbf" points="398.5,-56.5 398.5,-75.5 463.5,-75.5 463.5,-56.5 398.5,-56.5"/>
<text text-anchor="middle" x="431" y="-63.5" font-family="Helvetica,sans-Serif" font-size="10.00">functional</text>
</a>
</g>
</g>
<!-- Node5&#45;&gt;Node12 -->
<g id="edge11" class="edge">
<title>Node5&#45;&gt;Node12</title>
<path fill="none" stroke="midnightblue" d="M637.65,-114.49C596.82,-105.1 521.15,-87.72 473.58,-76.79"/>
<polygon fill="midnightblue" stroke="midnightblue" points="474.12,-73.32 463.59,-74.49 472.55,-80.14 474.12,-73.32"/>
</g>
<!-- Node13 -->
<g id="node13" class="node">
<title>Node13</title>
<g id="a_node13"><a xlink:title=" ">
<polygon fill="none" stroke="#bfbfbf" points="482,-56.5 482,-75.5 514,-75.5 514,-56.5 482,-56.5"/>
<text text-anchor="middle" x="498" y="-63.5" font-family="Helvetica,sans-Serif" font-size="10.00">list</text>
</a>
</g>
</g>
<!-- Node5&#45;&gt;Node13 -->
<g id="edge12" class="edge">
<title>Node5&#45;&gt;Node13</title>
<path fill="none" stroke="midnightblue" d="M637.94,-112.54C610.95,-104.32 568.78,-91.27 523.75,-76.16"/>
<polygon fill="midnightblue" stroke="midnightblue" points="524.7,-72.79 514.1,-72.91 522.46,-79.42 524.7,-72.79"/>
</g>
<!-- Node14 -->
<g id="node14" class="node">
<title>Node14</title>
<g id="a_node14"><a xlink:title=" ">
<polygon fill="none" stroke="#bfbfbf" points="532,-56.5 532,-75.5 570,-75.5 570,-56.5 532,-56.5"/>
<text text-anchor="middle" x="551" y="-63.5" font-family="Helvetica,sans-Serif" font-size="10.00">map</text>
</a>
</g>
</g>
<!-- Node5&#45;&gt;Node14 -->
<g id="edge13" class="edge">
<title>Node5&#45;&gt;Node14</title>
<path fill="none" stroke="midnightblue" d="M647.78,-112.44C629.1,-103.68 599.84,-89.94 578.38,-79.86"/>
<polygon fill="midnightblue" stroke="midnightblue" points="579.68,-76.6 569.14,-75.52 576.7,-82.93 579.68,-76.6"/>
</g>
<!-- Node15 -->
<g id="node15" class="node">
<title>Node15</title>
<g id="a_node15"><a xlink:title=" ">
<polygon fill="none" stroke="#bfbfbf" points="588,-56.5 588,-75.5 620,-75.5 620,-56.5 588,-56.5"/>
<text text-anchor="middle" x="604" y="-63.5" font-family="Helvetica,sans-Serif" font-size="10.00">set</text>
</a>
</g>
</g>
<!-- Node5&#45;&gt;Node15 -->
<g id="edge14" class="edge">
<title>Node5&#45;&gt;Node15</title>
<path fill="none" stroke="midnightblue" d="M656.04,-112.32C646.87,-104.34 633.06,-92.31 621.97,-82.65"/>
<polygon fill="midnightblue" stroke="midnightblue" points="623.98,-79.76 614.14,-75.83 619.38,-85.04 623.98,-79.76"/>
</g>
<!-- Node16 -->
<g id="node16" class="node">
<title>Node16</title>
<g id="a_node16"><a xlink:title=" ">
<polygon fill="none" stroke="#bfbfbf" points="638,-56.5 638,-75.5 694,-75.5 694,-56.5 638,-56.5"/>
<text text-anchor="middle" x="666" y="-63.5" font-family="Helvetica,sans-Serif" font-size="10.00">sstream</text>
</a>
</g>
</g>
<!-- Node5&#45;&gt;Node16 -->
<g id="edge15" class="edge">
<title>Node5&#45;&gt;Node16</title>
<path fill="none" stroke="midnightblue" d="M666,-112.08C666,-105.01 666,-94.86 666,-85.99"/>
<polygon fill="midnightblue" stroke="midnightblue" points="669.5,-85.75 666,-75.75 662.5,-85.75 669.5,-85.75"/>
</g>
<!-- Node17 -->
<g id="node17" class="node">
<title>Node17</title>
<g id="a_node17"><a xlink:title=" ">
<polygon fill="none" stroke="#bfbfbf" points="712,-56.5 712,-75.5 762,-75.5 762,-56.5 712,-56.5"/>
<text text-anchor="middle" x="737" y="-63.5" font-family="Helvetica,sans-Serif" font-size="10.00">stdio.h</text>
</a>
</g>
</g>
<!-- Node5&#45;&gt;Node17 -->
<g id="edge16" class="edge">
<title>Node5&#45;&gt;Node17</title>
<path fill="none" stroke="midnightblue" d="M677.41,-112.32C688.11,-104.18 704.34,-91.84 717.16,-82.09"/>
<polygon fill="midnightblue" stroke="midnightblue" points="719.54,-84.67 725.39,-75.83 715.31,-79.1 719.54,-84.67"/>
</g>
<!-- Node18 -->
<g id="node18" class="node">
<title>Node18</title>
<g id="a_node18"><a xlink:title=" ">
<polygon fill="none" stroke="#bfbfbf" points="780,-56.5 780,-75.5 824,-75.5 824,-56.5 780,-56.5"/>
<text text-anchor="middle" x="802" y="-63.5" font-family="Helvetica,sans-Serif" font-size="10.00">string</text>
</a>
</g>
</g>
<!-- Node5&#45;&gt;Node18 -->
<g id="edge17" class="edge">
<title>Node5&#45;&gt;Node18</title>
<path fill="none" stroke="midnightblue" d="M687.55,-112.44C710.03,-103.52 745.49,-89.44 770.98,-79.32"/>
<polygon fill="midnightblue" stroke="midnightblue" points="772.55,-82.46 780.55,-75.52 769.97,-75.95 772.55,-82.46"/>
</g>
<!-- Node5&#45;&gt;Node19 -->
<g id="edge18" class="edge">
<title>Node5&#45;&gt;Node19</title>
<path fill="none" stroke="midnightblue" d="M637.86,-118.32C618.73,-116.51 592.84,-114.08 570,-112 391.55,-95.78 342.61,-106.43 161.63,-75.81"/>
<polygon fill="midnightblue" stroke="midnightblue" points="161.96,-72.31 151.51,-74.07 160.78,-79.21 161.96,-72.31"/>
</g>
<!-- Node20 -->
<g id="node20" class="node">
<title>Node20</title>
<g id="a_node20"><a xlink:title=" ">
<polygon fill="none" stroke="#bfbfbf" points="842,-56.5 842,-75.5 910,-75.5 910,-56.5 842,-56.5"/>
<text text-anchor="middle" x="876" y="-63.5" font-family="Helvetica,sans-Serif" font-size="10.00">windows.h</text>
</a>
</g>
</g>
<!-- Node5&#45;&gt;Node20 -->
<g id="edge19" class="edge">
<title>Node5&#45;&gt;Node20</title>
<path fill="none" stroke="midnightblue" d="M694.32,-113.72C729.9,-104.57 791.31,-88.78 832.77,-78.12"/>
<polygon fill="midnightblue" stroke="midnightblue" points="833.78,-81.47 842.59,-75.59 832.04,-74.69 833.78,-81.47"/>
</g>
<!-- Node21 -->
<g id="node21" class="node">
<title>Node21</title>
<g id="a_node21"><a xlink:title=" ">
<polygon fill="none" stroke="#bfbfbf" points="928,-56.5 928,-75.5 1032,-75.5 1032,-56.5 928,-56.5"/>
<text text-anchor="middle" x="980" y="-63.5" font-family="Helvetica,sans-Serif" font-size="10.00">FLCoreCommon.h</text>
</a>
</g>
</g>
<!-- Node5&#45;&gt;Node21 -->
<g id="edge20" class="edge">
<title>Node5&#45;&gt;Node21</title>
<path fill="none" stroke="midnightblue" d="M694.14,-116.16C744.83,-107.44 852.48,-88.93 920.25,-77.28"/>
<polygon fill="midnightblue" stroke="midnightblue" points="921.1,-80.68 930.36,-75.54 919.91,-73.78 921.1,-80.68"/>
</g>
<!-- Node22 -->
<g id="node22" class="node">
<title>Node22</title>
<g id="a_node22"><a xlink:title=" ">
<polygon fill="none" stroke="#bfbfbf" points="1050,-56.5 1050,-75.5 1138,-75.5 1138,-56.5 1050,-56.5"/>
<text text-anchor="middle" x="1094" y="-63.5" font-family="Helvetica,sans-Serif" font-size="10.00">FLCoreDALib.h</text>
</a>
</g>
</g>
<!-- Node5&#45;&gt;Node22 -->
<g id="edge21" class="edge">
<title>Node5&#45;&gt;Node22</title>
<path fill="none" stroke="midnightblue" d="M694.29,-118.08C755.37,-111.68 904.35,-95.52 1039.65,-76.14"/>
<polygon fill="midnightblue" stroke="midnightblue" points="1040.38,-79.57 1049.78,-74.68 1039.38,-72.64 1040.38,-79.57"/>
</g>
<!-- Node23 -->
<g id="node23" class="node">
<title>Node23</title>
<g id="a_node23"><a xlink:title=" ">
<polygon fill="none" stroke="#bfbfbf" points="1156,-56.5 1156,-75.5 1282,-75.5 1282,-56.5 1156,-56.5"/>
<text text-anchor="middle" x="1219" y="-63.5" font-family="Helvetica,sans-Serif" font-size="10.00">FLCoreRemoteClient.h</text>
</a>
</g>
</g>
<!-- Node5&#45;&gt;Node23 -->
<g id="edge22" class="edge">
<title>Node5&#45;&gt;Node23</title>
<path fill="none" stroke="midnightblue" d="M694.22,-118.67C767.07,-112.58 967.62,-95.42 1145.72,-76.11"/>
<polygon fill="midnightblue" stroke="midnightblue" points="1146.23,-79.58 1155.8,-75.01 1145.48,-72.62 1146.23,-79.58"/>
</g>
<!-- Node24 -->
<g id="node24" class="node">
<title>Node24</title>
<g id="a_node24"><a xlink:title=" ">
<polygon fill="none" stroke="#bfbfbf" points="1300,-56.5 1300,-75.5 1390,-75.5 1390,-56.5 1300,-56.5"/>
<text text-anchor="middle" x="1345" y="-63.5" font-family="Helvetica,sans-Serif" font-size="10.00">FLCoreServer.h</text>
</a>
</g>
</g>
<!-- Node5&#45;&gt;Node24 -->
<g id="edge23" class="edge">
<title>Node5&#45;&gt;Node24</title>
<path fill="none" stroke="midnightblue" d="M694.12,-119.91C781.1,-116.35 1053.58,-103.7 1289.81,-76.03"/>
<polygon fill="midnightblue" stroke="midnightblue" points="1290.44,-79.48 1299.96,-74.83 1289.62,-72.53 1290.44,-79.48"/>
</g>
<!-- Node25 -->
<g id="node25" class="node">
<title>Node25</title>
<g id="a_node25"><a xlink:href="_serialization_8hpp.html" target="_top" xlink:title=" ">
<polygon fill="none" stroke="black" points="1408,-56.5 1408,-75.5 1534,-75.5 1534,-56.5 1408,-56.5"/>
<text text-anchor="middle" x="1471" y="-63.5" font-family="Helvetica,sans-Serif" font-size="10.00">Tools/Serialization.hpp</text>
</a>
</g>
</g>
<!-- Node5&#45;&gt;Node25 -->
<g id="edge24" class="edge">
<title>Node5&#45;&gt;Node25</title>
<path fill="none" stroke="midnightblue" d="M694.01,-119.92C790.34,-116.06 1117.01,-101.87 1397.84,-76.05"/>
<polygon fill="midnightblue" stroke="midnightblue" points="1398.17,-79.53 1407.81,-75.13 1397.53,-72.56 1398.17,-79.53"/>
</g>
<!-- Node7 -->
<g id="node7" class="node">
<title>Node7</title>
<g id="a_node7"><a xlink:title=" ">
<polygon fill="none" stroke="#bfbfbf" points="1587,-0.5 1587,-19.5 1645,-19.5 1645,-0.5 1587,-0.5"/>
<text text-anchor="middle" x="1616" y="-7.5" font-family="Helvetica,sans-Serif" font-size="10.00">memory</text>
</a>
</g>
</g>
<!-- Node6&#45;&gt;Node7 -->
<g id="edge6" class="edge">
<title>Node6&#45;&gt;Node7</title>
<path fill="none" stroke="midnightblue" d="M1592.62,-56.08C1596.46,-48.69 1602.02,-37.95 1606.76,-28.81"/>
<polygon fill="midnightblue" stroke="midnightblue" points="1609.97,-30.24 1611.46,-19.75 1603.75,-27.02 1609.97,-30.24"/>
</g>
<!-- Node26 -->
<g id="node26" class="node">
<title>Node26</title>
<g id="a_node26"><a xlink:title=" ">
<polygon fill="none" stroke="#bfbfbf" points="1313.5,-0.5 1313.5,-19.5 1368.5,-19.5 1368.5,-0.5 1313.5,-0.5"/>
<text text-anchor="middle" x="1341" y="-7.5" font-family="Helvetica,sans-Serif" font-size="10.00">fstream</text>
</a>
</g>
</g>
<!-- Node25&#45;&gt;Node26 -->
<g id="edge25" class="edge">
<title>Node25&#45;&gt;Node26</title>
<path fill="none" stroke="midnightblue" d="M1450.4,-56.44C1429.01,-47.56 1395.32,-33.56 1370.98,-23.45"/>
<polygon fill="midnightblue" stroke="midnightblue" points="1372.08,-20.12 1361.5,-19.52 1369.39,-26.58 1372.08,-20.12"/>
</g>
<!-- Node27 -->
<g id="node27" class="node">
<title>Node27</title>
<g id="a_node27"><a xlink:title=" ">
<polygon fill="none" stroke="#bfbfbf" points="1387,-0.5 1387,-19.5 1497,-19.5 1497,-0.5 1387,-0.5"/>
<text text-anchor="middle" x="1442" y="-7.5" font-family="Helvetica,sans-Serif" font-size="10.00">nlohmann/json.hpp</text>
</a>
</g>
</g>
<!-- Node25&#45;&gt;Node27 -->
<g id="edge26" class="edge">
<title>Node25&#45;&gt;Node27</title>
<path fill="none" stroke="midnightblue" d="M1466.21,-56.08C1462.24,-48.69 1456.47,-37.95 1451.57,-28.81"/>
<polygon fill="midnightblue" stroke="midnightblue" points="1454.51,-26.91 1446.7,-19.75 1448.35,-30.22 1454.51,-26.91"/>
</g>
<!-- Node28 -->
<g id="node28" class="node">
<title>Node28</title>
<g id="a_node28"><a xlink:title=" ">
<polygon fill="none" stroke="#bfbfbf" points="1515.5,-0.5 1515.5,-19.5 1568.5,-19.5 1568.5,-0.5 1515.5,-0.5"/>
<text text-anchor="middle" x="1542" y="-7.5" font-family="Helvetica,sans-Serif" font-size="10.00">refl.hpp</text>
</a>
</g>
</g>
<!-- Node25&#45;&gt;Node28 -->
<g id="edge27" class="edge">
<title>Node25&#45;&gt;Node28</title>
<path fill="none" stroke="midnightblue" d="M1482.41,-56.32C1493.11,-48.18 1509.34,-35.84 1522.16,-26.09"/>
<polygon fill="midnightblue" stroke="midnightblue" points="1524.54,-28.67 1530.39,-19.83 1520.31,-23.1 1524.54,-28.67"/>
</g>
<!-- Node30 -->
<g id="node30" class="node">
<title>Node30</title>
<g id="a_node30"><a xlink:title=" ">
<polygon fill="none" stroke="#bfbfbf" points="0,-56.5 0,-75.5 82,-75.5 82,-56.5 0,-56.5"/>
<text text-anchor="middle" x="41" y="-63.5" font-family="Helvetica,sans-Serif" font-size="10.00">FLCoreDefs.h</text>
</a>
</g>
</g>
<!-- Node29&#45;&gt;Node30 -->
<g id="edge29" class="edge">
<title>Node29&#45;&gt;Node30</title>
<path fill="none" stroke="midnightblue" d="M101.43,-112.32C90.58,-104.18 74.12,-91.84 61.12,-82.09"/>
<polygon fill="midnightblue" stroke="midnightblue" points="62.88,-79.03 52.78,-75.83 58.68,-84.63 62.88,-79.03"/>
</g>
<!-- Node34&#45;&gt;Node3 -->
<g id="edge35" class="edge">
<title>Node34&#45;&gt;Node3</title>
<path fill="none" stroke="midnightblue" d="M498.9,-280.08C492.76,-272.38 483.73,-261.03 476.26,-251.65"/>
<polygon fill="midnightblue" stroke="midnightblue" points="478.94,-249.39 469.97,-243.75 473.46,-253.75 478.94,-249.39"/>
</g>
</g>
</svg>
