<?xml version="1.0" encoding="UTF-8" standalone="no"?>
<!DOCTYPE svg PUBLIC "-//W3C//DTD SVG 1.1//EN"
 "http://www.w3.org/Graphics/SVG/1.1/DTD/svg11.dtd">
<!-- Generated by graphviz version 2.43.0 (0)
 -->
<!-- Title: source/Global.hpp Pages: 1 -->
<svg width="6157pt" height="137pt"
 viewBox="0.00 0.00 6157.00 137.00" xmlns="http://www.w3.org/2000/svg" xmlns:xlink="http://www.w3.org/1999/xlink">
<g id="graph0" class="graph" transform="scale(1 1) rotate(0) translate(4 133)">
<title>source/Global.hpp</title>
<!-- Node1 -->
<g id="node1" class="node">
<title>Node1</title>
<g id="a_node1"><a xlink:title=" ">
<polygon fill="#999999" stroke="#666666" points="3066.5,-129 2962.5,-129 2962.5,-110 3066.5,-110 3066.5,-129"/>
<text text-anchor="middle" x="3014.5" y="-117" font-family="Helvetica,sans-Serif" font-size="10.00">source/Global.hpp</text>
</a>
</g>
</g>
<!-- Node2 -->
<g id="node2" class="node">
<title>Node2</title>
<g id="a_node2"><a xlink:href="_c_cmds_8cpp.html" target="_top" xlink:title=" ">
<polygon fill="white" stroke="#666666" points="107,-74 0,-74 0,-55 107,-55 107,-74"/>
<text text-anchor="middle" x="53.5" y="-62" font-family="Helvetica,sans-Serif" font-size="10.00">source/CCmds.cpp</text>
</a>
</g>
</g>
<!-- Node1&#45;&gt;Node2 -->
<g id="edge1" class="edge">
<title>Node1&#45;&gt;Node2</title>
<path fill="none" stroke="#63b8ff" d="M2952.23,-118.55C2584.72,-118.7 695.35,-117.34 116.5,-74 113.42,-73.77 110.26,-73.49 107.07,-73.17"/>
<polygon fill="#63b8ff" stroke="#63b8ff" points="2952.41,-122.05 2962.41,-118.55 2952.41,-115.05 2952.41,-122.05"/>
</g>
<!-- Node3 -->
<g id="node3" class="node">
<title>Node3</title>
<g id="a_node3"><a xlink:href="_lights_8cpp.html" target="_top" xlink:title=" ">
<polygon fill="white" stroke="#666666" points="253.5,-74 125.5,-74 125.5,-55 253.5,-55 253.5,-74"/>
<text text-anchor="middle" x="189.5" y="-62" font-family="Helvetica,sans-Serif" font-size="10.00">source/Data/Lights.cpp</text>
</a>
</g>
</g>
<!-- Node1&#45;&gt;Node3 -->
<g id="edge2" class="edge">
<title>Node1&#45;&gt;Node3</title>
<path fill="none" stroke="#63b8ff" d="M2952.28,-118.34C2595.94,-117.29 810.92,-110.27 262.5,-74 259.57,-73.81 256.58,-73.58 253.56,-73.33"/>
<polygon fill="#63b8ff" stroke="#63b8ff" points="2952.39,-121.84 2962.4,-118.37 2952.41,-114.84 2952.39,-121.84"/>
</g>
<!-- Node4 -->
<g id="node4" class="node">
<title>Node4</title>
<g id="a_node4"><a xlink:href="_debug_8cpp.html" target="_top" xlink:title=" ">
<polygon fill="white" stroke="#666666" points="375.5,-74 271.5,-74 271.5,-55 375.5,-55 375.5,-74"/>
<text text-anchor="middle" x="323.5" y="-62" font-family="Helvetica,sans-Serif" font-size="10.00">source/Debug.cpp</text>
</a>
</g>
</g>
<!-- Node1&#45;&gt;Node4 -->
<g id="edge3" class="edge">
<title>Node1&#45;&gt;Node4</title>
<path fill="none" stroke="#63b8ff" d="M2952.27,-118.48C2605.32,-118.18 906.78,-114.66 384.5,-74 381.62,-73.78 378.67,-73.5 375.7,-73.2"/>
<polygon fill="#63b8ff" stroke="#63b8ff" points="2952.37,-121.98 2962.37,-118.48 2952.38,-114.98 2952.37,-121.98"/>
</g>
<!-- Node5 -->
<g id="node5" class="node">
<title>Node5</title>
<g id="a_node5"><a xlink:href="_exceptions_8cpp.html" target="_top" xlink:title=" ">
<polygon fill="white" stroke="#666666" points="519,-74 394,-74 394,-55 519,-55 519,-74"/>
<text text-anchor="middle" x="456.5" y="-62" font-family="Helvetica,sans-Serif" font-size="10.00">source/Exceptions.cpp</text>
</a>
</g>
</g>
<!-- Node1&#45;&gt;Node5 -->
<g id="edge4" class="edge">
<title>Node1&#45;&gt;Node5</title>
<path fill="none" stroke="#63b8ff" d="M2952.34,-118.16C2617.46,-116.22 1024.96,-105.47 533.5,-74 528.8,-73.7 523.95,-73.32 519.07,-72.89"/>
<polygon fill="#63b8ff" stroke="#63b8ff" points="2952.33,-121.66 2962.35,-118.22 2952.37,-114.66 2952.33,-121.66"/>
</g>
<!-- Node6 -->
<g id="node6" class="node">
<title>Node6</title>
<g id="a_node6"><a xlink:href="_f_l_hook_8cpp.html" target="_top" xlink:title=" ">
<polygon fill="white" stroke="#666666" points="2826,-19 2717,-19 2717,0 2826,0 2826,-19"/>
<text text-anchor="middle" x="2771.5" y="-7" font-family="Helvetica,sans-Serif" font-size="10.00">source/FLHook.cpp</text>
</a>
</g>
</g>
<!-- Node1&#45;&gt;Node6 -->
<g id="edge5" class="edge">
<title>Node1&#45;&gt;Node6</title>
<path fill="none" stroke="#63b8ff" d="M2952.2,-118.56C2574.83,-118.79 609.57,-117.86 566.5,-74 560.58,-67.97 560.59,-61.03 566.5,-55 605.32,-15.39 2380.9,-11.03 2716.94,-10.56"/>
<polygon fill="#63b8ff" stroke="#63b8ff" points="2952.38,-122.06 2962.38,-118.55 2952.38,-115.06 2952.38,-122.06"/>
</g>
<!-- Node7 -->
<g id="node7" class="node">
<title>Node7</title>
<g id="a_node7"><a xlink:href="_error_8cpp.html" target="_top" xlink:title=" ">
<polygon fill="white" stroke="#666666" points="715.5,-74 575.5,-74 575.5,-55 715.5,-55 715.5,-74"/>
<text text-anchor="middle" x="645.5" y="-62" font-family="Helvetica,sans-Serif" font-size="10.00">source/Features/Error.cpp</text>
</a>
</g>
</g>
<!-- Node1&#45;&gt;Node7 -->
<g id="edge6" class="edge">
<title>Node1&#45;&gt;Node7</title>
<path fill="none" stroke="#63b8ff" d="M2952.06,-118.03C2632.3,-115.5 1175.73,-102.6 724.5,-74 721.61,-73.82 718.66,-73.61 715.68,-73.37"/>
<polygon fill="#63b8ff" stroke="#63b8ff" points="2952.04,-121.53 2962.07,-118.11 2952.1,-114.53 2952.04,-121.53"/>
</g>
<!-- Node8 -->
<g id="node8" class="node">
<title>Node8</title>
<g id="a_node8"><a xlink:href="_logging_8cpp.html" target="_top" xlink:title=" ">
<polygon fill="white" stroke="#666666" points="889,-74 734,-74 734,-55 889,-55 889,-74"/>
<text text-anchor="middle" x="811.5" y="-62" font-family="Helvetica,sans-Serif" font-size="10.00">source/Features/Logging.cpp</text>
</a>
</g>
</g>
<!-- Node1&#45;&gt;Node8 -->
<g id="edge7" class="edge">
<title>Node1&#45;&gt;Node8</title>
<path fill="none" stroke="#63b8ff" d="M2952.33,-118.93C2697.66,-120.3 1709.35,-122.07 898.5,-74 895.47,-73.82 892.38,-73.62 889.27,-73.39"/>
<polygon fill="#63b8ff" stroke="#63b8ff" points="2952.51,-122.42 2962.49,-118.87 2952.47,-115.42 2952.51,-122.42"/>
</g>
<!-- Node9 -->
<g id="node9" class="node">
<title>Node9</title>
<g id="a_node9"><a xlink:href="_mail_8cpp.html" target="_top" xlink:title=" ">
<polygon fill="white" stroke="#666666" points="1045.5,-74 907.5,-74 907.5,-55 1045.5,-55 1045.5,-74"/>
<text text-anchor="middle" x="976.5" y="-62" font-family="Helvetica,sans-Serif" font-size="10.00">source/Features/Mail.cpp</text>
</a>
</g>
</g>
<!-- Node1&#45;&gt;Node9 -->
<g id="edge8" class="edge">
<title>Node1&#45;&gt;Node9</title>
<path fill="none" stroke="#63b8ff" d="M2951.93,-117.8C2660.76,-114.45 1436.54,-99.11 1054.5,-74 1051.65,-73.81 1048.73,-73.6 1045.8,-73.36"/>
<polygon fill="#63b8ff" stroke="#63b8ff" points="2952.25,-121.31 2962.29,-117.92 2952.33,-114.31 2952.25,-121.31"/>
</g>
<!-- Node10 -->
<g id="node10" class="node">
<title>Node10</title>
<g id="a_node10"><a xlink:href="_plugin_manager_8cpp.html" target="_top" xlink:title=" ">
<polygon fill="white" stroke="#666666" points="1253,-74 1064,-74 1064,-55 1253,-55 1253,-74"/>
<text text-anchor="middle" x="1158.5" y="-62" font-family="Helvetica,sans-Serif" font-size="10.00">source/Features/PluginManager.cpp</text>
</a>
</g>
</g>
<!-- Node1&#45;&gt;Node10 -->
<g id="edge9" class="edge">
<title>Node1&#45;&gt;Node10</title>
<path fill="none" stroke="#63b8ff" d="M2952.09,-118.18C2725.25,-116.75 1923.05,-109.35 1262.5,-74 1259.42,-73.84 1256.3,-73.66 1253.14,-73.46"/>
<polygon fill="#63b8ff" stroke="#63b8ff" points="2952.12,-121.68 2962.14,-118.24 2952.17,-114.68 2952.12,-121.68"/>
</g>
<!-- Node11 -->
<g id="node11" class="node">
<title>Node11</title>
<g id="a_node11"><a xlink:href="_startup_cache_8cpp.html" target="_top" xlink:title=" ">
<polygon fill="white" stroke="#666666" points="1453.5,-74 1271.5,-74 1271.5,-55 1453.5,-55 1453.5,-74"/>
<text text-anchor="middle" x="1362.5" y="-62" font-family="Helvetica,sans-Serif" font-size="10.00">source/Features/StartupCache.cpp</text>
</a>
</g>
</g>
<!-- Node1&#45;&gt;Node11 -->
<g id="edge10" class="edge">
<title>Node1&#45;&gt;Node11</title>
<path fill="none" stroke="#63b8ff" d="M2951.98,-117.97C2741.69,-115.9 2040.77,-106.84 1462.5,-74 1459.54,-73.83 1456.54,-73.65 1453.5,-73.45"/>
<polygon fill="#63b8ff" stroke="#63b8ff" points="2952.17,-121.47 2962.2,-118.06 2952.24,-114.47 2952.17,-121.47"/>
</g>
<!-- Node12 -->
<g id="node12" class="node">
<title>Node12</title>
<g id="a_node12"><a xlink:href="source_2_features_2_timers_8cpp.html" target="_top" xlink:title=" ">
<polygon fill="white" stroke="#666666" points="1623,-74 1472,-74 1472,-55 1623,-55 1623,-74"/>
<text text-anchor="middle" x="1547.5" y="-62" font-family="Helvetica,sans-Serif" font-size="10.00">source/Features/Timers.cpp</text>
</a>
</g>
</g>
<!-- Node1&#45;&gt;Node12 -->
<g id="edge11" class="edge">
<title>Node1&#45;&gt;Node12</title>
<path fill="none" stroke="#63b8ff" d="M2952.25,-118.02C2757.23,-116.19 2140.73,-107.92 1631.5,-74 1628.72,-73.81 1625.89,-73.61 1623.04,-73.39"/>
<polygon fill="#63b8ff" stroke="#63b8ff" points="2952.28,-121.52 2962.31,-118.11 2952.35,-114.52 2952.28,-121.52"/>
</g>
<!-- Node13 -->
<g id="node13" class="node">
<title>Node13</title>
<g id="a_node13"><a xlink:href="source_2_features_2_user_commands_8cpp.html" target="_top" xlink:title=" ">
<polygon fill="white" stroke="#666666" points="1836,-74 1641,-74 1641,-55 1836,-55 1836,-74"/>
<text text-anchor="middle" x="1738.5" y="-62" font-family="Helvetica,sans-Serif" font-size="10.00">source/Features/UserCommands.cpp</text>
</a>
</g>
</g>
<!-- Node1&#45;&gt;Node13 -->
<g id="edge12" class="edge">
<title>Node1&#45;&gt;Node13</title>
<path fill="none" stroke="#63b8ff" d="M2952.29,-117.03C2777.67,-112.73 2268.18,-98.82 1845.5,-74 1842.43,-73.82 1839.31,-73.63 1836.16,-73.43"/>
<polygon fill="#63b8ff" stroke="#63b8ff" points="2952.24,-120.53 2962.32,-117.28 2952.41,-113.54 2952.24,-120.53"/>
</g>
<!-- Node14 -->
<g id="node14" class="node">
<title>Node14</title>
<g id="a_node14"><a xlink:href="_admin_8cpp.html" target="_top" xlink:title=" ">
<polygon fill="white" stroke="#666666" points="1998.5,-74 1854.5,-74 1854.5,-55 1998.5,-55 1998.5,-74"/>
<text text-anchor="middle" x="1926.5" y="-62" font-family="Helvetica,sans-Serif" font-size="10.00">source/Helpers/Admin.cpp</text>
</a>
</g>
</g>
<!-- Node1&#45;&gt;Node14 -->
<g id="edge13" class="edge">
<title>Node1&#45;&gt;Node14</title>
<path fill="none" stroke="#63b8ff" d="M2952.27,-117.06C2794.24,-113.11 2364.61,-100.6 2007.5,-74 2004.68,-73.79 2001.81,-73.56 1998.9,-73.32"/>
<polygon fill="#63b8ff" stroke="#63b8ff" points="2952.2,-120.56 2962.29,-117.31 2952.37,-113.56 2952.2,-120.56"/>
</g>
<!-- Node15 -->
<g id="node15" class="node">
<title>Node15</title>
<g id="a_node15"><a xlink:href="_client_8cpp.html" target="_top" xlink:title=" ">
<polygon fill="white" stroke="#666666" points="2158,-74 2017,-74 2017,-55 2158,-55 2158,-74"/>
<text text-anchor="middle" x="2087.5" y="-62" font-family="Helvetica,sans-Serif" font-size="10.00">source/Helpers/Client.cpp</text>
</a>
</g>
</g>
<!-- Node1&#45;&gt;Node15 -->
<g id="edge14" class="edge">
<title>Node1&#45;&gt;Node15</title>
<path fill="none" stroke="#63b8ff" d="M2952.19,-116.4C2811.79,-111.41 2460.05,-97.48 2166.5,-74 2163.75,-73.78 2160.95,-73.54 2158.12,-73.29"/>
<polygon fill="#63b8ff" stroke="#63b8ff" points="2952.21,-119.9 2962.33,-116.76 2952.46,-112.91 2952.21,-119.9"/>
</g>
<!-- Node16 -->
<g id="node16" class="node">
<title>Node16</title>
<g id="a_node16"><a xlink:href="_ini_8cpp.html" target="_top" xlink:title=" ">
<polygon fill="white" stroke="#666666" points="2301,-74 2176,-74 2176,-55 2301,-55 2301,-74"/>
<text text-anchor="middle" x="2238.5" y="-62" font-family="Helvetica,sans-Serif" font-size="10.00">source/Helpers/Ini.cpp</text>
</a>
</g>
</g>
<!-- Node1&#45;&gt;Node16 -->
<g id="edge15" class="edge">
<title>Node1&#45;&gt;Node16</title>
<path fill="none" stroke="#63b8ff" d="M2951.88,-115.73C2828.7,-110.02 2546.25,-95.63 2309.5,-74 2306.78,-73.75 2304,-73.48 2301.2,-73.2"/>
<polygon fill="#63b8ff" stroke="#63b8ff" points="2952.09,-119.24 2962.24,-116.21 2952.41,-112.25 2952.09,-119.24"/>
</g>
<!-- Node17 -->
<g id="node17" class="node">
<title>Node17</title>
<g id="a_node17"><a xlink:href="_math_8cpp.html" target="_top" xlink:title=" ">
<polygon fill="white" stroke="#666666" points="2456,-74 2319,-74 2319,-55 2456,-55 2456,-74"/>
<text text-anchor="middle" x="2387.5" y="-62" font-family="Helvetica,sans-Serif" font-size="10.00">source/Helpers/Math.cpp</text>
</a>
</g>
</g>
<!-- Node1&#45;&gt;Node17 -->
<g id="edge16" class="edge">
<title>Node1&#45;&gt;Node17</title>
<path fill="none" stroke="#63b8ff" d="M2952.11,-114.01C2850.21,-106.54 2641.75,-90.74 2465.5,-74 2462.52,-73.72 2459.47,-73.42 2456.39,-73.11"/>
<polygon fill="#63b8ff" stroke="#63b8ff" points="2952,-117.51 2962.23,-114.75 2952.51,-110.53 2952,-117.51"/>
</g>
<!-- Node18 -->
<g id="node18" class="node">
<title>Node18</title>
<g id="a_node18"><a xlink:href="source_2_helpers_2_message_8cpp.html" target="_top" xlink:title=" ">
<polygon fill="white" stroke="#666666" points="2630.5,-74 2474.5,-74 2474.5,-55 2630.5,-55 2630.5,-74"/>
<text text-anchor="middle" x="2552.5" y="-62" font-family="Helvetica,sans-Serif" font-size="10.00">source/Helpers/Message.cpp</text>
</a>
</g>
</g>
<!-- Node1&#45;&gt;Node18 -->
<g id="edge17" class="edge">
<title>Node1&#45;&gt;Node18</title>
<path fill="none" stroke="#63b8ff" d="M2952.44,-111.38C2868.03,-101.7 2717.21,-84.4 2626.85,-74.03"/>
<polygon fill="#63b8ff" stroke="#63b8ff" points="2952.07,-114.86 2962.4,-112.52 2952.86,-107.91 2952.07,-114.86"/>
</g>
<!-- Node19 -->
<g id="node19" class="node">
<title>Node19</title>
<g id="a_node19"><a xlink:href="_pilot_personalities_8cpp.html" target="_top" xlink:title=" ">
<polygon fill="white" stroke="#666666" points="2846,-74 2649,-74 2649,-55 2846,-55 2846,-74"/>
<text text-anchor="middle" x="2747.5" y="-62" font-family="Helvetica,sans-Serif" font-size="10.00">source/Helpers/PilotPersonalities.cpp</text>
</a>
</g>
</g>
<!-- Node1&#45;&gt;Node19 -->
<g id="edge18" class="edge">
<title>Node1&#45;&gt;Node19</title>
<path fill="none" stroke="#63b8ff" d="M2961.62,-108C2911.57,-98.07 2837.34,-83.33 2790.73,-74.08"/>
<polygon fill="#63b8ff" stroke="#63b8ff" points="2961.11,-111.47 2971.6,-109.98 2962.47,-104.6 2961.11,-111.47"/>
</g>
<!-- Node20 -->
<g id="node20" class="node">
<title>Node20</title>
<g id="a_node20"><a xlink:href="_player_8cpp.html" target="_top" xlink:title=" ">
<polygon fill="white" stroke="#666666" points="3007,-74 2864,-74 2864,-55 3007,-55 3007,-74"/>
<text text-anchor="middle" x="2935.5" y="-62" font-family="Helvetica,sans-Serif" font-size="10.00">source/Helpers/Player.cpp</text>
</a>
</g>
</g>
<!-- Node1&#45;&gt;Node20 -->
<g id="edge19" class="edge">
<title>Node1&#45;&gt;Node20</title>
<path fill="none" stroke="#63b8ff" d="M2993.11,-104.15C2978.83,-94.57 2960.53,-82.29 2948.42,-74.17"/>
<polygon fill="#63b8ff" stroke="#63b8ff" points="2991.55,-107.32 3001.81,-109.98 2995.45,-101.51 2991.55,-107.32"/>
</g>
<!-- Node21 -->
<g id="node21" class="node">
<title>Node21</title>
<g id="a_node21"><a xlink:href="_solar_8cpp.html" target="_top" xlink:title=" ">
<polygon fill="white" stroke="#666666" points="3162,-74 3025,-74 3025,-55 3162,-55 3162,-74"/>
<text text-anchor="middle" x="3093.5" y="-62" font-family="Helvetica,sans-Serif" font-size="10.00">source/Helpers/Solar.cpp</text>
</a>
</g>
</g>
<!-- Node1&#45;&gt;Node21 -->
<g id="edge20" class="edge">
<title>Node1&#45;&gt;Node21</title>
<path fill="none" stroke="#63b8ff" d="M3035.89,-104.15C3050.17,-94.57 3068.47,-82.29 3080.58,-74.17"/>
<polygon fill="#63b8ff" stroke="#63b8ff" points="3033.55,-101.51 3027.19,-109.98 3037.45,-107.32 3033.55,-101.51"/>
</g>
<!-- Node22 -->
<g id="node22" class="node">
<title>Node22</title>
<g id="a_node22"><a xlink:href="_time_8cpp.html" target="_top" xlink:title=" ">
<polygon fill="white" stroke="#666666" points="3317,-74 3180,-74 3180,-55 3317,-55 3317,-74"/>
<text text-anchor="middle" x="3248.5" y="-62" font-family="Helvetica,sans-Serif" font-size="10.00">source/Helpers/Time.cpp</text>
</a>
</g>
</g>
<!-- Node1&#45;&gt;Node22 -->
<g id="edge21" class="edge">
<title>Node1&#45;&gt;Node22</title>
<path fill="none" stroke="#63b8ff" d="M3061.95,-107.75C3105.8,-97.82 3170.1,-83.26 3210.61,-74.08"/>
<polygon fill="#63b8ff" stroke="#63b8ff" points="3061.08,-104.36 3052.1,-109.98 3062.62,-111.19 3061.08,-104.36"/>
</g>
<!-- Node23 -->
<g id="node23" class="node">
<title>Node23</title>
<g id="a_node23"><a xlink:href="_zone_utilities_8cpp.html" target="_top" xlink:title=" ">
<polygon fill="white" stroke="#666666" points="3511.5,-74 3335.5,-74 3335.5,-55 3511.5,-55 3511.5,-74"/>
<text text-anchor="middle" x="3423.5" y="-62" font-family="Helvetica,sans-Serif" font-size="10.00">source/Helpers/ZoneUtilities.cpp</text>
</a>
</g>
</g>
<!-- Node1&#45;&gt;Node23 -->
<g id="edge22" class="edge">
<title>Node1&#45;&gt;Node23</title>
<path fill="none" stroke="#63b8ff" d="M3077.08,-110.39C3153,-100.55 3280.42,-84.04 3357.75,-74.02"/>
<polygon fill="#63b8ff" stroke="#63b8ff" points="3076.18,-106.98 3066.72,-111.73 3077.08,-113.92 3076.18,-106.98"/>
</g>
<!-- Node24 -->
<g id="node24" class="node">
<title>Node24</title>
<g id="a_node24"><a xlink:href="_hk_client_server_interface_8cpp.html" target="_top" xlink:title=" ">
<polygon fill="white" stroke="#666666" points="3719,-74 3530,-74 3530,-55 3719,-55 3719,-74"/>
<text text-anchor="middle" x="3624.5" y="-62" font-family="Helvetica,sans-Serif" font-size="10.00">source/HkClientServerInterface.cpp</text>
</a>
</g>
</g>
<!-- Node1&#45;&gt;Node24 -->
<g id="edge23" class="edge">
<title>Node1&#45;&gt;Node24</title>
<path fill="none" stroke="#63b8ff" d="M3076.5,-113.11C3183.51,-103.82 3403.5,-84.7 3529.78,-73.73"/>
<polygon fill="#63b8ff" stroke="#63b8ff" points="3076.17,-109.63 3066.51,-113.98 3076.77,-116.6 3076.17,-109.63"/>
</g>
<!-- Node25 -->
<g id="node25" class="node">
<title>Node25</title>
<g id="a_node25"><a xlink:href="_hk_data_base_market_8cpp.html" target="_top" xlink:title=" ">
<polygon fill="white" stroke="#666666" points="3904,-74 3737,-74 3737,-55 3904,-55 3904,-74"/>
<text text-anchor="middle" x="3820.5" y="-62" font-family="Helvetica,sans-Serif" font-size="10.00">source/HkDataBaseMarket.cpp</text>
</a>
</g>
</g>
<!-- Node1&#45;&gt;Node25 -->
<g id="edge24" class="edge">
<title>Node1&#45;&gt;Node25</title>
<path fill="none" stroke="#63b8ff" d="M3076.94,-115.21C3200.99,-108.54 3487.24,-92.47 3727.5,-74 3730.57,-73.76 3733.7,-73.52 3736.86,-73.26"/>
<polygon fill="#63b8ff" stroke="#63b8ff" points="3076.66,-111.72 3066.87,-115.75 3077.04,-118.71 3076.66,-111.72"/>
</g>
<!-- Node26 -->
<g id="node26" class="node">
<title>Node26</title>
<g id="a_node26"><a xlink:href="_hk_i_chat_server_8cpp.html" target="_top" xlink:title=" ">
<polygon fill="white" stroke="#666666" points="4064.5,-74 3922.5,-74 3922.5,-55 4064.5,-55 4064.5,-74"/>
<text text-anchor="middle" x="3993.5" y="-62" font-family="Helvetica,sans-Serif" font-size="10.00">source/HkIChatServer.cpp</text>
</a>
</g>
</g>
<!-- Node1&#45;&gt;Node26 -->
<g id="edge25" class="edge">
<title>Node1&#45;&gt;Node26</title>
<path fill="none" stroke="#63b8ff" d="M3076.81,-116.59C3222.94,-111.86 3599.03,-98.2 3912.5,-74 3915.74,-73.75 3919.06,-73.48 3922.4,-73.18"/>
<polygon fill="#63b8ff" stroke="#63b8ff" points="3076.58,-113.1 3066.69,-116.92 3076.8,-120.1 3076.58,-113.1"/>
</g>
<!-- Node27 -->
<g id="node27" class="node">
<title>Node27</title>
<g id="a_node27"><a xlink:href="_hk_i_engine_8cpp.html" target="_top" xlink:title=" ">
<polygon fill="white" stroke="#666666" points="4204.5,-74 4082.5,-74 4082.5,-55 4204.5,-55 4204.5,-74"/>
<text text-anchor="middle" x="4143.5" y="-62" font-family="Helvetica,sans-Serif" font-size="10.00">source/HkIEngine.cpp</text>
</a>
</g>
</g>
<!-- Node1&#45;&gt;Node27 -->
<g id="edge26" class="edge">
<title>Node1&#45;&gt;Node27</title>
<path fill="none" stroke="#63b8ff" d="M3077.02,-117.59C3240.83,-114.84 3695.95,-104.81 4073.5,-74 4076.43,-73.76 4079.42,-73.49 4082.45,-73.2"/>
<polygon fill="#63b8ff" stroke="#63b8ff" points="3076.6,-114.1 3066.66,-117.76 3076.71,-121.1 3076.6,-114.1"/>
</g>
<!-- Node28 -->
<g id="node28" class="node">
<title>Node28</title>
<g id="a_node28"><a xlink:href="_hk_i_engine_damage_8cpp.html" target="_top" xlink:title=" ">
<polygon fill="white" stroke="#666666" points="4386,-74 4223,-74 4223,-55 4386,-55 4386,-74"/>
<text text-anchor="middle" x="4304.5" y="-62" font-family="Helvetica,sans-Serif" font-size="10.00">source/HkIEngineDamage.cpp</text>
</a>
</g>
</g>
<!-- Node1&#45;&gt;Node28 -->
<g id="edge27" class="edge">
<title>Node1&#45;&gt;Node28</title>
<path fill="none" stroke="#63b8ff" d="M3076.76,-117.42C3254.4,-114.07 3778.89,-102.34 4213.5,-74 4216.51,-73.8 4219.57,-73.59 4222.66,-73.36"/>
<polygon fill="#63b8ff" stroke="#63b8ff" points="3076.49,-113.92 3066.56,-117.61 3076.62,-120.92 3076.49,-113.92"/>
</g>
<!-- Node29 -->
<g id="node29" class="node">
<title>Node29</title>
<g id="a_node29"><a xlink:href="_hk_i_engine_death_8cpp.html" target="_top" xlink:title=" ">
<polygon fill="white" stroke="#666666" points="4555,-74 4404,-74 4404,-55 4555,-55 4555,-74"/>
<text text-anchor="middle" x="4479.5" y="-62" font-family="Helvetica,sans-Serif" font-size="10.00">source/HkIEngineDeath.cpp</text>
</a>
</g>
</g>
<!-- Node1&#45;&gt;Node29 -->
<g id="edge28" class="edge">
<title>Node1&#45;&gt;Node29</title>
<path fill="none" stroke="#63b8ff" d="M3076.61,-117.99C3271.2,-116.07 3886.35,-107.56 4394.5,-74 4397.61,-73.79 4400.78,-73.57 4403.98,-73.32"/>
<polygon fill="#63b8ff" stroke="#63b8ff" points="3076.54,-114.49 3066.57,-118.09 3076.6,-121.49 3076.54,-114.49"/>
</g>
<!-- Node30 -->
<g id="node30" class="node">
<title>Node30</title>
<g id="a_node30"><a xlink:href="_hk_i_engine_disconnect_8cpp.html" target="_top" xlink:title=" ">
<polygon fill="white" stroke="#666666" points="4749.5,-74 4573.5,-74 4573.5,-55 4749.5,-55 4749.5,-74"/>
<text text-anchor="middle" x="4661.5" y="-62" font-family="Helvetica,sans-Serif" font-size="10.00">source/HkIEngineDisconnect.cpp</text>
</a>
</g>
</g>
<!-- Node1&#45;&gt;Node30 -->
<g id="edge29" class="edge">
<title>Node1&#45;&gt;Node30</title>
<path fill="none" stroke="#63b8ff" d="M3076.91,-118C3286.79,-116.05 3986.38,-107.29 4563.5,-74 4566.74,-73.81 4570.04,-73.61 4573.37,-73.39"/>
<polygon fill="#63b8ff" stroke="#63b8ff" points="3076.67,-114.5 3066.7,-118.09 3076.73,-121.5 3076.67,-114.5"/>
</g>
<!-- Node31 -->
<g id="node31" class="node">
<title>Node31</title>
<g id="a_node31"><a xlink:href="_hk_init_8cpp.html" target="_top" xlink:title=" ">
<polygon fill="white" stroke="#666666" points="4869,-74 4768,-74 4768,-55 4869,-55 4869,-74"/>
<text text-anchor="middle" x="4818.5" y="-62" font-family="Helvetica,sans-Serif" font-size="10.00">source/HkInit.cpp</text>
</a>
</g>
</g>
<!-- Node1&#45;&gt;Node31 -->
<g id="edge30" class="edge">
<title>Node1&#45;&gt;Node31</title>
<path fill="none" stroke="#63b8ff" d="M3076.71,-117.88C3347.12,-115.01 4421.76,-102.05 4758.5,-74 4761.54,-73.75 4764.66,-73.44 4767.81,-73.1"/>
<polygon fill="#63b8ff" stroke="#63b8ff" points="3076.65,-114.38 3066.69,-117.98 3076.72,-121.38 3076.65,-114.38"/>
</g>
<!-- Node32 -->
<g id="node32" class="node">
<title>Node32</title>
<g id="a_node32"><a xlink:href="_send_comm_8cpp.html" target="_top" xlink:title=" ">
<polygon fill="white" stroke="#666666" points="5049.5,-74 4887.5,-74 4887.5,-55 5049.5,-55 5049.5,-74"/>
<text text-anchor="middle" x="4968.5" y="-62" font-family="Helvetica,sans-Serif" font-size="10.00">source/Hooks/SendComm.cpp</text>
</a>
</g>
</g>
<!-- Node1&#45;&gt;Node32 -->
<g id="edge31" class="edge">
<title>Node1&#45;&gt;Node32</title>
<path fill="none" stroke="#63b8ff" d="M3076.88,-118.58C3312.6,-118.53 4171.39,-115.36 4877.5,-74 4880.67,-73.81 4883.9,-73.61 4887.16,-73.38"/>
<polygon fill="#63b8ff" stroke="#63b8ff" points="3076.79,-115.08 3066.79,-118.58 3076.79,-122.08 3076.79,-115.08"/>
</g>
<!-- Node33 -->
<g id="node33" class="node">
<title>Node33</title>
<g id="a_node33"><a xlink:href="_memory_manager_8hpp.html" target="_top" xlink:title=" ">
<polygon fill="white" stroke="#666666" points="5267,-74 5068,-74 5068,-55 5267,-55 5267,-74"/>
<text text-anchor="middle" x="5167.5" y="-62" font-family="Helvetica,sans-Serif" font-size="10.00">source/Memory/MemoryManager.hpp</text>
</a>
</g>
</g>
<!-- Node1&#45;&gt;Node33 -->
<g id="edge32" class="edge">
<title>Node1&#45;&gt;Node33</title>
<path fill="none" stroke="#63b8ff" d="M3076.98,-118.42C3326.71,-117.81 4277.4,-112.93 5058.5,-74 5061.53,-73.85 5064.61,-73.68 5067.72,-73.51"/>
<polygon fill="#63b8ff" stroke="#63b8ff" points="3076.65,-114.92 3066.66,-118.44 3076.66,-121.92 3076.65,-114.92"/>
</g>
<!-- Node36 -->
<g id="node36" class="node">
<title>Node36</title>
<g id="a_node36"><a xlink:href="_settings_8cpp.html" target="_top" xlink:title=" ">
<polygon fill="white" stroke="#666666" points="5397.5,-74 5285.5,-74 5285.5,-55 5397.5,-55 5397.5,-74"/>
<text text-anchor="middle" x="5341.5" y="-62" font-family="Helvetica,sans-Serif" font-size="10.00">source/Settings.cpp</text>
</a>
</g>
</g>
<!-- Node1&#45;&gt;Node36 -->
<g id="edge36" class="edge">
<title>Node1&#45;&gt;Node36</title>
<path fill="none" stroke="#63b8ff" d="M3077.18,-118.2C3395.09,-116.56 4831.61,-107.36 5276.5,-74 5279.34,-73.79 5282.24,-73.53 5285.17,-73.25"/>
<polygon fill="#63b8ff" stroke="#63b8ff" points="3076.76,-114.71 3066.78,-118.26 3076.8,-121.71 3076.76,-114.71"/>
</g>
<!-- Node37 -->
<g id="node37" class="node">
<title>Node37</title>
<g id="a_node37"><a xlink:href="_tools_8cpp.html" target="_top" xlink:title=" ">
<polygon fill="white" stroke="#666666" points="5513,-74 5416,-74 5416,-55 5513,-55 5513,-74"/>
<text text-anchor="middle" x="5464.5" y="-62" font-family="Helvetica,sans-Serif" font-size="10.00">source/Tools.cpp</text>
</a>
</g>
</g>
<!-- Node1&#45;&gt;Node37 -->
<g id="edge37" class="edge">
<title>Node1&#45;&gt;Node37</title>
<path fill="none" stroke="#63b8ff" d="M3077.05,-118.41C3405.58,-117.79 4934.55,-112.82 5406.5,-74 5409.54,-73.75 5412.67,-73.44 5415.82,-73.09"/>
<polygon fill="#63b8ff" stroke="#63b8ff" points="3076.77,-114.91 3066.77,-118.43 3076.78,-121.91 3076.77,-114.91"/>
</g>
<!-- Node38 -->
<g id="node38" class="node">
<title>Node38</title>
<g id="a_node38"><a xlink:href="_console_8cpp.html" target="_top" xlink:title=" ">
<polygon fill="white" stroke="#666666" points="5670,-74 5531,-74 5531,-55 5670,-55 5670,-74"/>
<text text-anchor="middle" x="5600.5" y="-62" font-family="Helvetica,sans-Serif" font-size="10.00">source/Tools/Console.cpp</text>
</a>
</g>
</g>
<!-- Node1&#45;&gt;Node38 -->
<g id="edge38" class="edge">
<title>Node1&#45;&gt;Node38</title>
<path fill="none" stroke="#63b8ff" d="M3076.78,-118.16C3414.11,-116.22 5025.4,-105.43 5522.5,-74 5525.22,-73.83 5527.99,-73.63 5530.79,-73.41"/>
<polygon fill="#63b8ff" stroke="#63b8ff" points="3076.69,-114.66 3066.71,-118.22 3076.73,-121.66 3076.69,-114.66"/>
</g>
<!-- Node39 -->
<g id="node39" class="node">
<title>Node39</title>
<g id="a_node39"><a xlink:href="_generate_certificate_8cpp.html" target="_top" xlink:title=" ">
<polygon fill="white" stroke="#666666" points="5883,-74 5688,-74 5688,-55 5883,-55 5883,-74"/>
<text text-anchor="middle" x="5785.5" y="-62" font-family="Helvetica,sans-Serif" font-size="10.00">source/Tools/GenerateCertificate.cpp</text>
</a>
</g>
</g>
<!-- Node1&#45;&gt;Node39 -->
<g id="edge39" class="edge">
<title>Node1&#45;&gt;Node39</title>
<path fill="none" stroke="#63b8ff" d="M3076.68,-118C3426.14,-115.09 5148.86,-99.68 5679.5,-74 5682.27,-73.87 5685.07,-73.72 5687.9,-73.56"/>
<polygon fill="#63b8ff" stroke="#63b8ff" points="3076.47,-114.5 3066.5,-118.08 3076.53,-121.5 3076.47,-114.5"/>
</g>
<!-- Node40 -->
<g id="node40" class="node">
<title>Node40</title>
<g id="a_node40"><a xlink:href="_mqtt_8cpp.html" target="_top" xlink:title=" ">
<polygon fill="white" stroke="#666666" points="6023.5,-74 5901.5,-74 5901.5,-55 6023.5,-55 6023.5,-74"/>
<text text-anchor="middle" x="5962.5" y="-62" font-family="Helvetica,sans-Serif" font-size="10.00">source/Tools/Mqtt.cpp</text>
</a>
</g>
</g>
<!-- Node1&#45;&gt;Node40 -->
<g id="edge40" class="edge">
<title>Node1&#45;&gt;Node40</title>
<path fill="none" stroke="#63b8ff" d="M3076.92,-118.43C3443.27,-117.89 5317.68,-113.23 5892.5,-74 5895.43,-73.8 5898.43,-73.56 5901.45,-73.3"/>
<polygon fill="#63b8ff" stroke="#63b8ff" points="3076.77,-114.93 3066.77,-118.45 3076.78,-121.93 3076.77,-114.93"/>
</g>
<!-- Node41 -->
<g id="node41" class="node">
<title>Node41</title>
<g id="a_node41"><a xlink:href="flcodec_8cpp.html" target="_top" xlink:title=" ">
<polygon fill="white" stroke="#666666" points="6149,-74 6042,-74 6042,-55 6149,-55 6149,-74"/>
<text text-anchor="middle" x="6095.5" y="-62" font-family="Helvetica,sans-Serif" font-size="10.00">source/flcodec.cpp</text>
</a>
</g>
</g>
<!-- Node1&#45;&gt;Node41 -->
<g id="edge41" class="edge">
<title>Node1&#45;&gt;Node41</title>
<path fill="none" stroke="#63b8ff" d="M3076.93,-118.6C3453.7,-119.02 5428.39,-119.05 6032.5,-74 6035.58,-73.77 6038.74,-73.49 6041.93,-73.17"/>
<polygon fill="#63b8ff" stroke="#63b8ff" points="3076.77,-115.1 3066.76,-118.58 3076.76,-122.1 3076.77,-115.1"/>
</g>
<!-- Node33&#45;&gt;Node6 -->
<g id="edge33" class="edge">
<title>Node33&#45;&gt;Node6</title>
<path fill="none" stroke="#63b8ff" d="M5057.5,-54.99C4159.79,-11.64 3079.58,-10.11 2826.41,-10.39"/>
<polygon fill="#63b8ff" stroke="#63b8ff" points="5057.56,-58.5 5067.72,-55.48 5057.9,-51.5 5057.56,-58.5"/>
</g>
<!-- Node34 -->
<g id="node34" class="node">
<title>Node34</title>
<g id="a_node34"><a xlink:href="_memory_manager_8cpp.html" target="_top" xlink:title=" ">
<polygon fill="white" stroke="#666666" points="5166.5,-19 4968.5,-19 4968.5,0 5166.5,0 5166.5,-19"/>
<text text-anchor="middle" x="5067.5" y="-7" font-family="Helvetica,sans-Serif" font-size="10.00">source/Memory/MemoryManager.cpp</text>
</a>
</g>
</g>
<!-- Node33&#45;&gt;Node34 -->
<g id="edge34" class="edge">
<title>Node33&#45;&gt;Node34</title>
<path fill="none" stroke="#63b8ff" d="M5142.47,-50.23C5124.13,-40.51 5099.76,-27.6 5083.86,-19.17"/>
<polygon fill="#63b8ff" stroke="#63b8ff" points="5140.96,-53.39 5151.43,-54.98 5144.24,-47.21 5140.96,-53.39"/>
</g>
<!-- Node35 -->
<g id="node35" class="node">
<title>Node35</title>
<g id="a_node35"><a xlink:href="_save_data_8cpp.html" target="_top" xlink:title=" ">
<polygon fill="white" stroke="#666666" points="5348,-19 5185,-19 5185,0 5348,0 5348,-19"/>
<text text-anchor="middle" x="5266.5" y="-7" font-family="Helvetica,sans-Serif" font-size="10.00">source/Memory/SaveData.cpp</text>
</a>
</g>
</g>
<!-- Node33&#45;&gt;Node35 -->
<g id="edge35" class="edge">
<title>Node33&#45;&gt;Node35</title>
<path fill="none" stroke="#63b8ff" d="M5192.28,-50.23C5210.44,-40.51 5234.56,-27.6 5250.3,-19.17"/>
<polygon fill="#63b8ff" stroke="#63b8ff" points="5190.57,-47.18 5183.41,-54.98 5193.87,-53.35 5190.57,-47.18"/>
</g>
</g>
</svg>
