<?xml version="1.0" encoding="UTF-8" standalone="no"?>
<!DOCTYPE svg PUBLIC "-//W3C//DTD SVG 1.1//EN"
 "http://www.w3.org/Graphics/SVG/1.1/DTD/svg11.dtd">
<!-- Generated by graphviz version 2.43.0 (0)
 -->
<!-- Title: source/Global.hpp Pages: 1 -->
<svg width="5976pt" height="137pt"
 viewBox="0.00 0.00 5976.00 137.00" xmlns="http://www.w3.org/2000/svg" xmlns:xlink="http://www.w3.org/1999/xlink">
<g id="graph0" class="graph" transform="scale(1 1) rotate(0) translate(4 133)">
<title>source/Global.hpp</title>
<!-- Node1 -->
<g id="node1" class="node">
<title>Node1</title>
<g id="a_node1"><a xlink:title=" ">
<polygon fill="#999999" stroke="#666666" points="2987.5,-129 2883.5,-129 2883.5,-110 2987.5,-110 2987.5,-129"/>
<text text-anchor="middle" x="2935.5" y="-117" font-family="Helvetica,sans-Serif" font-size="10.00">source/Global.hpp</text>
</a>
</g>
</g>
<!-- Node2 -->
<g id="node2" class="node">
<title>Node2</title>
<g id="a_node2"><a xlink:href="_c_cmds_8cpp.html" target="_top" xlink:title=" ">
<polygon fill="white" stroke="#666666" points="107,-74 0,-74 0,-55 107,-55 107,-74"/>
<text text-anchor="middle" x="53.5" y="-62" font-family="Helvetica,sans-Serif" font-size="10.00">source/CCmds.cpp</text>
</a>
</g>
</g>
<!-- Node1&#45;&gt;Node2 -->
<g id="edge1" class="edge">
<title>Node1&#45;&gt;Node2</title>
<path fill="none" stroke="#63b8ff" d="M2873.22,-118.52C2511.6,-118.49 678.67,-116.21 116.5,-74 113.42,-73.77 110.26,-73.49 107.07,-73.17"/>
<polygon fill="#63b8ff" stroke="#63b8ff" points="2873.48,-122.02 2883.48,-118.52 2873.48,-115.02 2873.48,-122.02"/>
</g>
<!-- Node3 -->
<g id="node3" class="node">
<title>Node3</title>
<g id="a_node3"><a xlink:href="_lights_8cpp.html" target="_top" xlink:title=" ">
<polygon fill="white" stroke="#666666" points="253.5,-74 125.5,-74 125.5,-55 253.5,-55 253.5,-74"/>
<text text-anchor="middle" x="189.5" y="-62" font-family="Helvetica,sans-Serif" font-size="10.00">source/Data/Lights.cpp</text>
</a>
</g>
</g>
<!-- Node1&#45;&gt;Node3 -->
<g id="edge2" class="edge">
<title>Node1&#45;&gt;Node3</title>
<path fill="none" stroke="#63b8ff" d="M2873.12,-118.3C2522.51,-117.07 794.18,-109.29 262.5,-74 259.57,-73.81 256.58,-73.58 253.56,-73.32"/>
<polygon fill="#63b8ff" stroke="#63b8ff" points="2873.31,-121.8 2883.33,-118.34 2873.34,-114.8 2873.31,-121.8"/>
</g>
<!-- Node4 -->
<g id="node4" class="node">
<title>Node4</title>
<g id="a_node4"><a xlink:href="_debug_8cpp.html" target="_top" xlink:title=" ">
<polygon fill="white" stroke="#666666" points="375.5,-74 271.5,-74 271.5,-55 375.5,-55 375.5,-74"/>
<text text-anchor="middle" x="323.5" y="-62" font-family="Helvetica,sans-Serif" font-size="10.00">source/Debug.cpp</text>
</a>
</g>
</g>
<!-- Node1&#45;&gt;Node4 -->
<g id="edge3" class="edge">
<title>Node1&#45;&gt;Node4</title>
<path fill="none" stroke="#63b8ff" d="M2873.24,-118.44C2532.47,-117.94 890.14,-113.49 384.5,-74 381.62,-73.78 378.67,-73.5 375.7,-73.2"/>
<polygon fill="#63b8ff" stroke="#63b8ff" points="2873.41,-121.94 2883.41,-118.45 2873.42,-114.94 2873.41,-121.94"/>
</g>
<!-- Node5 -->
<g id="node5" class="node">
<title>Node5</title>
<g id="a_node5"><a xlink:href="_exceptions_8cpp.html" target="_top" xlink:title=" ">
<polygon fill="white" stroke="#666666" points="519,-74 394,-74 394,-55 519,-55 519,-74"/>
<text text-anchor="middle" x="456.5" y="-62" font-family="Helvetica,sans-Serif" font-size="10.00">source/Exceptions.cpp</text>
</a>
</g>
</g>
<!-- Node1&#45;&gt;Node5 -->
<g id="edge4" class="edge">
<title>Node1&#45;&gt;Node5</title>
<path fill="none" stroke="#63b8ff" d="M2872.71,-118.12C2542.92,-115.98 1008.05,-104.52 533.5,-74 528.8,-73.7 523.95,-73.32 519.07,-72.89"/>
<polygon fill="#63b8ff" stroke="#63b8ff" points="2873.01,-121.62 2883.03,-118.18 2873.05,-114.62 2873.01,-121.62"/>
</g>
<!-- Node6 -->
<g id="node6" class="node">
<title>Node6</title>
<g id="a_node6"><a xlink:href="_f_l_hook_8cpp.html" target="_top" xlink:title=" ">
<polygon fill="white" stroke="#666666" points="2735,-19 2626,-19 2626,0 2735,0 2735,-19"/>
<text text-anchor="middle" x="2680.5" y="-7" font-family="Helvetica,sans-Serif" font-size="10.00">source/FLHook.cpp</text>
</a>
</g>
</g>
<!-- Node1&#45;&gt;Node6 -->
<g id="edge5" class="edge">
<title>Node1&#45;&gt;Node6</title>
<path fill="none" stroke="#63b8ff" d="M2873.17,-118.52C2502.98,-118.51 608.09,-116.38 566.5,-74 560.59,-67.97 560.59,-61.03 566.5,-55 603.61,-17.1 2297.76,-11.36 2625.82,-10.6"/>
<polygon fill="#63b8ff" stroke="#63b8ff" points="2873.42,-122.02 2883.42,-118.52 2873.42,-115.02 2873.42,-122.02"/>
</g>
<!-- Node7 -->
<g id="node7" class="node">
<title>Node7</title>
<g id="a_node7"><a xlink:href="_error_8cpp.html" target="_top" xlink:title=" ">
<polygon fill="white" stroke="#666666" points="715.5,-74 575.5,-74 575.5,-55 715.5,-55 715.5,-74"/>
<text text-anchor="middle" x="645.5" y="-62" font-family="Helvetica,sans-Serif" font-size="10.00">source/Features/Error.cpp</text>
</a>
</g>
</g>
<!-- Node1&#45;&gt;Node7 -->
<g id="edge6" class="edge">
<title>Node1&#45;&gt;Node7</title>
<path fill="none" stroke="#63b8ff" d="M2873.23,-117.98C2560.51,-115.26 1159.23,-101.71 724.5,-74 721.61,-73.82 718.66,-73.6 715.68,-73.37"/>
<polygon fill="#63b8ff" stroke="#63b8ff" points="2873.43,-121.48 2883.46,-118.07 2873.49,-114.48 2873.43,-121.48"/>
</g>
<!-- Node8 -->
<g id="node8" class="node">
<title>Node8</title>
<g id="a_node8"><a xlink:href="_logging_8cpp.html" target="_top" xlink:title=" ">
<polygon fill="white" stroke="#666666" points="889,-74 734,-74 734,-55 889,-55 889,-74"/>
<text text-anchor="middle" x="811.5" y="-62" font-family="Helvetica,sans-Serif" font-size="10.00">source/Features/Logging.cpp</text>
</a>
</g>
</g>
<!-- Node1&#45;&gt;Node8 -->
<g id="edge7" class="edge">
<title>Node1&#45;&gt;Node8</title>
<path fill="none" stroke="#63b8ff" d="M2872.79,-118.86C2623.18,-119.9 1676.07,-120.41 898.5,-74 895.47,-73.82 892.38,-73.61 889.27,-73.39"/>
<polygon fill="#63b8ff" stroke="#63b8ff" points="2873.13,-122.35 2883.11,-118.81 2873.1,-115.35 2873.13,-122.35"/>
</g>
<!-- Node9 -->
<g id="node9" class="node">
<title>Node9</title>
<g id="a_node9"><a xlink:href="_mail_8cpp.html" target="_top" xlink:title=" ">
<polygon fill="white" stroke="#666666" points="1045.5,-74 907.5,-74 907.5,-55 1045.5,-55 1045.5,-74"/>
<text text-anchor="middle" x="976.5" y="-62" font-family="Helvetica,sans-Serif" font-size="10.00">source/Features/Mail.cpp</text>
</a>
</g>
</g>
<!-- Node1&#45;&gt;Node9 -->
<g id="edge8" class="edge">
<title>Node1&#45;&gt;Node9</title>
<path fill="none" stroke="#63b8ff" d="M2873.3,-118.94C2636.38,-120.23 1767.89,-121.22 1054.5,-74 1051.65,-73.81 1048.73,-73.6 1045.8,-73.36"/>
<polygon fill="#63b8ff" stroke="#63b8ff" points="2873.46,-122.44 2883.44,-118.89 2873.42,-115.44 2873.46,-122.44"/>
</g>
<!-- Node10 -->
<g id="node10" class="node">
<title>Node10</title>
<g id="a_node10"><a xlink:href="_plugin_manager_8cpp.html" target="_top" xlink:title=" ">
<polygon fill="white" stroke="#666666" points="1253,-74 1064,-74 1064,-55 1253,-55 1253,-74"/>
<text text-anchor="middle" x="1158.5" y="-62" font-family="Helvetica,sans-Serif" font-size="10.00">source/Features/PluginManager.cpp</text>
</a>
</g>
</g>
<!-- Node1&#45;&gt;Node10 -->
<g id="edge9" class="edge">
<title>Node1&#45;&gt;Node10</title>
<path fill="none" stroke="#63b8ff" d="M2873.35,-118.08C2653.33,-116.32 1890.81,-108.01 1262.5,-74 1259.42,-73.83 1256.3,-73.65 1253.14,-73.46"/>
<polygon fill="#63b8ff" stroke="#63b8ff" points="2873.39,-121.58 2883.42,-118.16 2873.45,-114.58 2873.39,-121.58"/>
</g>
<!-- Node11 -->
<g id="node11" class="node">
<title>Node11</title>
<g id="a_node11"><a xlink:href="_startup_cache_8cpp.html" target="_top" xlink:title=" ">
<polygon fill="white" stroke="#666666" points="1453.5,-74 1271.5,-74 1271.5,-55 1453.5,-55 1453.5,-74"/>
<text text-anchor="middle" x="1362.5" y="-62" font-family="Helvetica,sans-Serif" font-size="10.00">source/Features/StartupCache.cpp</text>
</a>
</g>
</g>
<!-- Node1&#45;&gt;Node11 -->
<g id="edge10" class="edge">
<title>Node1&#45;&gt;Node11</title>
<path fill="none" stroke="#63b8ff" d="M2873.09,-117.83C2669.83,-115.4 2008.55,-105.43 1462.5,-74 1459.54,-73.83 1456.54,-73.64 1453.5,-73.45"/>
<polygon fill="#63b8ff" stroke="#63b8ff" points="2873.23,-121.33 2883.27,-117.95 2873.31,-114.34 2873.23,-121.33"/>
</g>
<!-- Node12 -->
<g id="node12" class="node">
<title>Node12</title>
<g id="a_node12"><a xlink:href="source_2_features_2_timers_8cpp.html" target="_top" xlink:title=" ">
<polygon fill="white" stroke="#666666" points="1623,-74 1472,-74 1472,-55 1623,-55 1623,-74"/>
<text text-anchor="middle" x="1547.5" y="-62" font-family="Helvetica,sans-Serif" font-size="10.00">source/Features/Timers.cpp</text>
</a>
</g>
</g>
<!-- Node1&#45;&gt;Node12 -->
<g id="edge11" class="edge">
<title>Node1&#45;&gt;Node12</title>
<path fill="none" stroke="#63b8ff" d="M2873.02,-117.85C2685.06,-115.56 2108.4,-106.23 1631.5,-74 1628.72,-73.81 1625.89,-73.61 1623.04,-73.38"/>
<polygon fill="#63b8ff" stroke="#63b8ff" points="2873.22,-121.35 2883.26,-117.97 2873.3,-114.35 2873.22,-121.35"/>
</g>
<!-- Node13 -->
<g id="node13" class="node">
<title>Node13</title>
<g id="a_node13"><a xlink:href="source_2_features_2_user_commands_8cpp.html" target="_top" xlink:title=" ">
<polygon fill="white" stroke="#666666" points="1836,-74 1641,-74 1641,-55 1836,-55 1836,-74"/>
<text text-anchor="middle" x="1738.5" y="-62" font-family="Helvetica,sans-Serif" font-size="10.00">source/Features/UserCommands.cpp</text>
</a>
</g>
</g>
<!-- Node1&#45;&gt;Node13 -->
<g id="edge12" class="edge">
<title>Node1&#45;&gt;Node13</title>
<path fill="none" stroke="#63b8ff" d="M2873.21,-116.8C2706.49,-112.05 2236.22,-97.49 1845.5,-74 1842.43,-73.82 1839.31,-73.62 1836.16,-73.41"/>
<polygon fill="#63b8ff" stroke="#63b8ff" points="2873.18,-120.3 2883.28,-117.08 2873.38,-113.3 2873.18,-120.3"/>
</g>
<!-- Node14 -->
<g id="node14" class="node">
<title>Node14</title>
<g id="a_node14"><a xlink:href="_admin_8cpp.html" target="_top" xlink:title=" ">
<polygon fill="white" stroke="#666666" points="1998.5,-74 1854.5,-74 1854.5,-55 1998.5,-55 1998.5,-74"/>
<text text-anchor="middle" x="1926.5" y="-62" font-family="Helvetica,sans-Serif" font-size="10.00">source/Helpers/Admin.cpp</text>
</a>
</g>
</g>
<!-- Node1&#45;&gt;Node14 -->
<g id="edge13" class="edge">
<title>Node1&#45;&gt;Node14</title>
<path fill="none" stroke="#63b8ff" d="M2873.01,-116.73C2723.39,-112.21 2332.81,-98.85 2007.5,-74 2004.68,-73.78 2001.81,-73.55 1998.91,-73.3"/>
<polygon fill="#63b8ff" stroke="#63b8ff" points="2873.27,-120.23 2883.37,-117.04 2873.47,-113.24 2873.27,-120.23"/>
</g>
<!-- Node15 -->
<g id="node15" class="node">
<title>Node15</title>
<g id="a_node15"><a xlink:href="_client_8cpp.html" target="_top" xlink:title=" ">
<polygon fill="white" stroke="#666666" points="2158,-74 2017,-74 2017,-55 2158,-55 2158,-74"/>
<text text-anchor="middle" x="2087.5" y="-62" font-family="Helvetica,sans-Serif" font-size="10.00">source/Helpers/Client.cpp</text>
</a>
</g>
</g>
<!-- Node1&#45;&gt;Node15 -->
<g id="edge14" class="edge">
<title>Node1&#45;&gt;Node15</title>
<path fill="none" stroke="#63b8ff" d="M2872.98,-115.93C2741.87,-110.31 2428.62,-95.67 2166.5,-74 2163.75,-73.77 2160.95,-73.53 2158.12,-73.27"/>
<polygon fill="#63b8ff" stroke="#63b8ff" points="2873.08,-119.44 2883.22,-116.37 2873.38,-112.44 2873.08,-119.44"/>
</g>
<!-- Node16 -->
<g id="node16" class="node">
<title>Node16</title>
<g id="a_node16"><a xlink:href="_ini_8cpp.html" target="_top" xlink:title=" ">
<polygon fill="white" stroke="#666666" points="2301,-74 2176,-74 2176,-55 2301,-55 2301,-74"/>
<text text-anchor="middle" x="2238.5" y="-62" font-family="Helvetica,sans-Serif" font-size="10.00">source/Helpers/Ini.cpp</text>
</a>
</g>
</g>
<!-- Node1&#45;&gt;Node16 -->
<g id="edge15" class="edge">
<title>Node1&#45;&gt;Node16</title>
<path fill="none" stroke="#63b8ff" d="M2873.34,-115.08C2760.76,-108.65 2515.65,-93.66 2309.5,-74 2306.78,-73.74 2304.01,-73.46 2301.2,-73.17"/>
<polygon fill="#63b8ff" stroke="#63b8ff" points="2873.31,-118.58 2883.49,-115.65 2873.71,-111.59 2873.31,-118.58"/>
</g>
<!-- Node17 -->
<g id="node17" class="node">
<title>Node17</title>
<g id="a_node17"><a xlink:href="_math_8cpp.html" target="_top" xlink:title=" ">
<polygon fill="white" stroke="#666666" points="2456,-74 2319,-74 2319,-55 2456,-55 2456,-74"/>
<text text-anchor="middle" x="2387.5" y="-62" font-family="Helvetica,sans-Serif" font-size="10.00">source/Helpers/Math.cpp</text>
</a>
</g>
</g>
<!-- Node1&#45;&gt;Node17 -->
<g id="edge16" class="edge">
<title>Node1&#45;&gt;Node17</title>
<path fill="none" stroke="#63b8ff" d="M2873.28,-112.89C2783.28,-104.71 2611.54,-88.87 2465.5,-74 2462.52,-73.7 2459.47,-73.38 2456.4,-73.06"/>
<polygon fill="#63b8ff" stroke="#63b8ff" points="2873.04,-116.38 2883.31,-113.8 2873.67,-109.41 2873.04,-116.38"/>
</g>
<!-- Node18 -->
<g id="node18" class="node">
<title>Node18</title>
<g id="a_node18"><a xlink:href="_message_8cpp.html" target="_top" xlink:title=" ">
<polygon fill="white" stroke="#666666" points="2630.5,-74 2474.5,-74 2474.5,-55 2630.5,-55 2630.5,-74"/>
<text text-anchor="middle" x="2552.5" y="-62" font-family="Helvetica,sans-Serif" font-size="10.00">source/Helpers/Message.cpp</text>
</a>
</g>
</g>
<!-- Node1&#45;&gt;Node18 -->
<g id="edge17" class="edge">
<title>Node1&#45;&gt;Node18</title>
<path fill="none" stroke="#63b8ff" d="M2873.23,-109.88C2801.72,-99.99 2685.11,-83.85 2613.94,-74"/>
<polygon fill="#63b8ff" stroke="#63b8ff" points="2873.06,-113.39 2883.45,-111.3 2874.02,-106.46 2873.06,-113.39"/>
</g>
<!-- Node19 -->
<g id="node19" class="node">
<title>Node19</title>
<g id="a_node19"><a xlink:href="_pilot_personalities_8cpp.html" target="_top" xlink:title=" ">
<polygon fill="white" stroke="#666666" points="2846,-74 2649,-74 2649,-55 2846,-55 2846,-74"/>
<text text-anchor="middle" x="2747.5" y="-62" font-family="Helvetica,sans-Serif" font-size="10.00">source/Helpers/PilotPersonalities.cpp</text>
</a>
</g>
</g>
<!-- Node1&#45;&gt;Node19 -->
<g id="edge18" class="edge">
<title>Node1&#45;&gt;Node19</title>
<path fill="none" stroke="#63b8ff" d="M2895.36,-107.18C2860.2,-97.27 2809.87,-83.08 2777.94,-74.08"/>
<polygon fill="#63b8ff" stroke="#63b8ff" points="2894.72,-110.64 2905.29,-109.98 2896.62,-103.9 2894.72,-110.64"/>
</g>
<!-- Node20 -->
<g id="node20" class="node">
<title>Node20</title>
<g id="a_node20"><a xlink:href="_player_8cpp.html" target="_top" xlink:title=" ">
<polygon fill="white" stroke="#666666" points="3007,-74 2864,-74 2864,-55 3007,-55 3007,-74"/>
<text text-anchor="middle" x="2935.5" y="-62" font-family="Helvetica,sans-Serif" font-size="10.00">source/Helpers/Player.cpp</text>
</a>
</g>
</g>
<!-- Node1&#45;&gt;Node20 -->
<g id="edge19" class="edge">
<title>Node1&#45;&gt;Node20</title>
<path fill="none" stroke="#63b8ff" d="M2935.5,-99.66C2935.5,-90.93 2935.5,-80.99 2935.5,-74.09"/>
<polygon fill="#63b8ff" stroke="#63b8ff" points="2932,-99.75 2935.5,-109.75 2939,-99.75 2932,-99.75"/>
</g>
<!-- Node21 -->
<g id="node21" class="node">
<title>Node21</title>
<g id="a_node21"><a xlink:href="_solar_8cpp.html" target="_top" xlink:title=" ">
<polygon fill="white" stroke="#666666" points="3162,-74 3025,-74 3025,-55 3162,-55 3162,-74"/>
<text text-anchor="middle" x="3093.5" y="-62" font-family="Helvetica,sans-Serif" font-size="10.00">source/Helpers/Solar.cpp</text>
</a>
</g>
</g>
<!-- Node1&#45;&gt;Node21 -->
<g id="edge20" class="edge">
<title>Node1&#45;&gt;Node21</title>
<path fill="none" stroke="#63b8ff" d="M2970.38,-106.8C2999.87,-96.91 3041.43,-82.97 3067.92,-74.08"/>
<polygon fill="#63b8ff" stroke="#63b8ff" points="2969.25,-103.49 2960.89,-109.98 2971.48,-110.12 2969.25,-103.49"/>
</g>
<!-- Node22 -->
<g id="node22" class="node">
<title>Node22</title>
<g id="a_node22"><a xlink:href="_time_8cpp.html" target="_top" xlink:title=" ">
<polygon fill="white" stroke="#666666" points="3317,-74 3180,-74 3180,-55 3317,-55 3317,-74"/>
<text text-anchor="middle" x="3248.5" y="-62" font-family="Helvetica,sans-Serif" font-size="10.00">source/Helpers/Time.cpp</text>
</a>
</g>
</g>
<!-- Node1&#45;&gt;Node22 -->
<g id="edge21" class="edge">
<title>Node1&#45;&gt;Node22</title>
<path fill="none" stroke="#63b8ff" d="M2995.68,-108.31C3054.46,-98.36 3142.89,-83.38 3198.08,-74.04"/>
<polygon fill="#63b8ff" stroke="#63b8ff" points="2995.06,-104.86 2985.79,-109.98 2996.23,-111.77 2995.06,-104.86"/>
</g>
<!-- Node23 -->
<g id="node23" class="node">
<title>Node23</title>
<g id="a_node23"><a xlink:href="_zone_utilities_8cpp.html" target="_top" xlink:title=" ">
<polygon fill="white" stroke="#666666" points="3511.5,-74 3335.5,-74 3335.5,-55 3511.5,-55 3511.5,-74"/>
<text text-anchor="middle" x="3423.5" y="-62" font-family="Helvetica,sans-Serif" font-size="10.00">source/Helpers/ZoneUtilities.cpp</text>
</a>
</g>
</g>
<!-- Node1&#45;&gt;Node23 -->
<g id="edge22" class="edge">
<title>Node1&#45;&gt;Node23</title>
<path fill="none" stroke="#63b8ff" d="M2997.89,-111.72C3086.48,-102.1 3248.66,-84.49 3345.21,-74"/>
<polygon fill="#63b8ff" stroke="#63b8ff" points="2997.29,-108.27 2987.72,-112.83 2998.04,-115.23 2997.29,-108.27"/>
</g>
<!-- Node24 -->
<g id="node24" class="node">
<title>Node24</title>
<g id="a_node24"><a xlink:href="_hk_client_server_interface_8cpp.html" target="_top" xlink:title=" ">
<polygon fill="white" stroke="#666666" points="3719,-74 3530,-74 3530,-55 3719,-55 3719,-74"/>
<text text-anchor="middle" x="3624.5" y="-62" font-family="Helvetica,sans-Serif" font-size="10.00">source/HkClientServerInterface.cpp</text>
</a>
</g>
</g>
<!-- Node1&#45;&gt;Node24 -->
<g id="edge23" class="edge">
<title>Node1&#45;&gt;Node24</title>
<path fill="none" stroke="#63b8ff" d="M2997.83,-113.87C3104.78,-105.91 3330.11,-89.02 3520.5,-74 3523.57,-73.76 3526.69,-73.51 3529.84,-73.26"/>
<polygon fill="#63b8ff" stroke="#63b8ff" points="2997.26,-110.41 2987.55,-114.64 2997.78,-117.39 2997.26,-110.41"/>
</g>
<!-- Node25 -->
<g id="node25" class="node">
<title>Node25</title>
<g id="a_node25"><a xlink:href="_hk_data_base_market_8cpp.html" target="_top" xlink:title=" ">
<polygon fill="white" stroke="#666666" points="3904,-74 3737,-74 3737,-55 3904,-55 3904,-74"/>
<text text-anchor="middle" x="3820.5" y="-62" font-family="Helvetica,sans-Serif" font-size="10.00">source/HkDataBaseMarket.cpp</text>
</a>
</g>
</g>
<!-- Node1&#45;&gt;Node25 -->
<g id="edge24" class="edge">
<title>Node1&#45;&gt;Node25</title>
<path fill="none" stroke="#63b8ff" d="M2997.97,-115.73C3131.8,-109.65 3456.11,-94.02 3727.5,-74 3730.57,-73.77 3733.7,-73.53 3736.86,-73.28"/>
<polygon fill="#63b8ff" stroke="#63b8ff" points="2997.73,-112.24 2987.9,-116.19 2998.05,-119.23 2997.73,-112.24"/>
</g>
<!-- Node26 -->
<g id="node26" class="node">
<title>Node26</title>
<g id="a_node26"><a xlink:href="_hk_i_chat_server_8cpp.html" target="_top" xlink:title=" ">
<polygon fill="white" stroke="#666666" points="4064.5,-74 3922.5,-74 3922.5,-55 4064.5,-55 4064.5,-74"/>
<text text-anchor="middle" x="3993.5" y="-62" font-family="Helvetica,sans-Serif" font-size="10.00">source/HkIChatServer.cpp</text>
</a>
</g>
</g>
<!-- Node1&#45;&gt;Node26 -->
<g id="edge25" class="edge">
<title>Node1&#45;&gt;Node26</title>
<path fill="none" stroke="#63b8ff" d="M2998,-116.93C3153.02,-112.77 3567.61,-99.93 3912.5,-74 3915.74,-73.76 3919.06,-73.49 3922.4,-73.2"/>
<polygon fill="#63b8ff" stroke="#63b8ff" points="2997.63,-113.44 2987.73,-117.21 2997.82,-120.44 2997.63,-113.44"/>
</g>
<!-- Node27 -->
<g id="node27" class="node">
<title>Node27</title>
<g id="a_node27"><a xlink:href="_hk_i_engine_8cpp.html" target="_top" xlink:title=" ">
<polygon fill="white" stroke="#666666" points="4204.5,-74 4082.5,-74 4082.5,-55 4204.5,-55 4204.5,-74"/>
<text text-anchor="middle" x="4143.5" y="-62" font-family="Helvetica,sans-Serif" font-size="10.00">source/HkIEngine.cpp</text>
</a>
</g>
</g>
<!-- Node1&#45;&gt;Node27 -->
<g id="edge26" class="edge">
<title>Node1&#45;&gt;Node27</title>
<path fill="none" stroke="#63b8ff" d="M2997.89,-117.85C3169.68,-115.67 3664.04,-106.81 4073.5,-74 4076.43,-73.77 4079.42,-73.5 4082.45,-73.21"/>
<polygon fill="#63b8ff" stroke="#63b8ff" points="2997.72,-114.35 2987.77,-117.98 2997.81,-121.35 2997.72,-114.35"/>
</g>
<!-- Node28 -->
<g id="node28" class="node">
<title>Node28</title>
<g id="a_node28"><a xlink:href="_hk_i_engine_damage_8cpp.html" target="_top" xlink:title=" ">
<polygon fill="white" stroke="#666666" points="4386,-74 4223,-74 4223,-55 4386,-55 4386,-74"/>
<text text-anchor="middle" x="4304.5" y="-62" font-family="Helvetica,sans-Serif" font-size="10.00">source/HkIEngineDamage.cpp</text>
</a>
</g>
</g>
<!-- Node1&#45;&gt;Node28 -->
<g id="edge27" class="edge">
<title>Node1&#45;&gt;Node28</title>
<path fill="none" stroke="#63b8ff" d="M2997.69,-117.62C3182.87,-114.72 3746.81,-103.9 4213.5,-74 4216.51,-73.81 4219.57,-73.6 4222.67,-73.37"/>
<polygon fill="#63b8ff" stroke="#63b8ff" points="2997.54,-114.12 2987.6,-117.78 2997.65,-121.12 2997.54,-114.12"/>
</g>
<!-- Node29 -->
<g id="node29" class="node">
<title>Node29</title>
<g id="a_node29"><a xlink:href="_hk_i_engine_death_8cpp.html" target="_top" xlink:title=" ">
<polygon fill="white" stroke="#666666" points="4555,-74 4404,-74 4404,-55 4555,-55 4555,-74"/>
<text text-anchor="middle" x="4479.5" y="-62" font-family="Helvetica,sans-Serif" font-size="10.00">source/HkIEngineDeath.cpp</text>
</a>
</g>
</g>
<!-- Node1&#45;&gt;Node29 -->
<g id="edge28" class="edge">
<title>Node1&#45;&gt;Node29</title>
<path fill="none" stroke="#63b8ff" d="M2997.69,-118.14C3199.48,-116.65 3854.2,-109.21 4394.5,-74 4397.61,-73.8 4400.78,-73.57 4403.98,-73.33"/>
<polygon fill="#63b8ff" stroke="#63b8ff" points="2997.55,-114.64 2987.58,-118.21 2997.6,-121.64 2997.55,-114.64"/>
</g>
<!-- Node30 -->
<g id="node30" class="node">
<title>Node30</title>
<g id="a_node30"><a xlink:href="_hk_i_engine_disconnect_8cpp.html" target="_top" xlink:title=" ">
<polygon fill="white" stroke="#666666" points="4749.5,-74 4573.5,-74 4573.5,-55 4749.5,-55 4749.5,-74"/>
<text text-anchor="middle" x="4661.5" y="-62" font-family="Helvetica,sans-Serif" font-size="10.00">source/HkIEngineDisconnect.cpp</text>
</a>
</g>
</g>
<!-- Node1&#45;&gt;Node30 -->
<g id="edge29" class="edge">
<title>Node1&#45;&gt;Node30</title>
<path fill="none" stroke="#63b8ff" d="M2997.77,-118.12C3214.21,-116.54 3953.87,-108.74 4563.5,-74 4566.74,-73.82 4570.04,-73.61 4573.37,-73.39"/>
<polygon fill="#63b8ff" stroke="#63b8ff" points="2997.53,-114.63 2987.56,-118.2 2997.58,-121.63 2997.53,-114.63"/>
</g>
<!-- Node31 -->
<g id="node31" class="node">
<title>Node31</title>
<g id="a_node31"><a xlink:href="_hk_init_8cpp.html" target="_top" xlink:title=" ">
<polygon fill="white" stroke="#666666" points="4869,-74 4768,-74 4768,-55 4869,-55 4869,-74"/>
<text text-anchor="middle" x="4818.5" y="-62" font-family="Helvetica,sans-Serif" font-size="10.00">source/HkInit.cpp</text>
</a>
</g>
</g>
<!-- Node1&#45;&gt;Node31 -->
<g id="edge30" class="edge">
<title>Node1&#45;&gt;Node31</title>
<path fill="none" stroke="#63b8ff" d="M2998.21,-117.95C3276.97,-115.35 4405.53,-103.21 4758.5,-74 4761.54,-73.75 4764.66,-73.44 4767.81,-73.1"/>
<polygon fill="#63b8ff" stroke="#63b8ff" points="2997.85,-114.45 2987.88,-118.05 2997.91,-121.45 2997.85,-114.45"/>
</g>
<!-- Node32 -->
<g id="node32" class="node">
<title>Node32</title>
<g id="a_node32"><a xlink:href="_memory_manager_8hpp.html" target="_top" xlink:title=" ">
<polygon fill="white" stroke="#666666" points="5086,-74 4887,-74 4887,-55 5086,-55 5086,-74"/>
<text text-anchor="middle" x="4986.5" y="-62" font-family="Helvetica,sans-Serif" font-size="10.00">source/Memory/MemoryManager.hpp</text>
</a>
</g>
</g>
<!-- Node1&#45;&gt;Node32 -->
<g id="edge31" class="edge">
<title>Node1&#45;&gt;Node32</title>
<path fill="none" stroke="#63b8ff" d="M2997.71,-118.33C3239.36,-117.42 4138.92,-111.54 4878.5,-74 4881.22,-73.86 4883.99,-73.71 4886.77,-73.55"/>
<polygon fill="#63b8ff" stroke="#63b8ff" points="2997.7,-114.83 2987.71,-118.37 2997.72,-121.83 2997.7,-114.83"/>
</g>
<!-- Node35 -->
<g id="node35" class="node">
<title>Node35</title>
<g id="a_node35"><a xlink:href="_settings_8cpp.html" target="_top" xlink:title=" ">
<polygon fill="white" stroke="#666666" points="5216.5,-74 5104.5,-74 5104.5,-55 5216.5,-55 5216.5,-74"/>
<text text-anchor="middle" x="5160.5" y="-62" font-family="Helvetica,sans-Serif" font-size="10.00">source/Settings.cpp</text>
</a>
</g>
</g>
<!-- Node1&#45;&gt;Node35 -->
<g id="edge35" class="edge">
<title>Node1&#45;&gt;Node35</title>
<path fill="none" stroke="#63b8ff" d="M2997.85,-118.14C3306.38,-116.21 4671.83,-105.97 5095.5,-74 5098.34,-73.79 5101.24,-73.53 5104.17,-73.25"/>
<polygon fill="#63b8ff" stroke="#63b8ff" points="2997.73,-114.64 2987.75,-118.2 2997.77,-121.64 2997.73,-114.64"/>
</g>
<!-- Node36 -->
<g id="node36" class="node">
<title>Node36</title>
<g id="a_node36"><a xlink:href="_tools_8cpp.html" target="_top" xlink:title=" ">
<polygon fill="white" stroke="#666666" points="5332,-74 5235,-74 5235,-55 5332,-55 5332,-74"/>
<text text-anchor="middle" x="5283.5" y="-62" font-family="Helvetica,sans-Serif" font-size="10.00">source/Tools.cpp</text>
</a>
</g>
</g>
<!-- Node1&#45;&gt;Node36 -->
<g id="edge36" class="edge">
<title>Node1&#45;&gt;Node36</title>
<path fill="none" stroke="#63b8ff" d="M2997.96,-118.35C3317.84,-117.43 4774.9,-111.25 5225.5,-74 5228.54,-73.75 5231.67,-73.44 5234.82,-73.09"/>
<polygon fill="#63b8ff" stroke="#63b8ff" points="2997.94,-114.85 2987.95,-118.38 2997.96,-121.85 2997.94,-114.85"/>
</g>
<!-- Node37 -->
<g id="node37" class="node">
<title>Node37</title>
<g id="a_node37"><a xlink:href="_console_8cpp.html" target="_top" xlink:title=" ">
<polygon fill="white" stroke="#666666" points="5489,-74 5350,-74 5350,-55 5489,-55 5489,-74"/>
<text text-anchor="middle" x="5419.5" y="-62" font-family="Helvetica,sans-Serif" font-size="10.00">source/Tools/Console.cpp</text>
</a>
</g>
</g>
<!-- Node1&#45;&gt;Node37 -->
<g id="edge37" class="edge">
<title>Node1&#45;&gt;Node37</title>
<path fill="none" stroke="#63b8ff" d="M2997.85,-118.11C3327.07,-115.93 4865.88,-104.25 5341.5,-74 5344.22,-73.83 5346.99,-73.63 5349.79,-73.41"/>
<polygon fill="#63b8ff" stroke="#63b8ff" points="2997.54,-114.61 2987.56,-118.18 2997.58,-121.61 2997.54,-114.61"/>
</g>
<!-- Node38 -->
<g id="node38" class="node">
<title>Node38</title>
<g id="a_node38"><a xlink:href="_generate_certificate_8cpp.html" target="_top" xlink:title=" ">
<polygon fill="white" stroke="#666666" points="5702,-74 5507,-74 5507,-55 5702,-55 5702,-74"/>
<text text-anchor="middle" x="5604.5" y="-62" font-family="Helvetica,sans-Serif" font-size="10.00">source/Tools/GenerateCertificate.cpp</text>
</a>
</g>
</g>
<!-- Node1&#45;&gt;Node38 -->
<g id="edge38" class="edge">
<title>Node1&#45;&gt;Node38</title>
<path fill="none" stroke="#63b8ff" d="M2998.07,-118.86C3284.79,-120.19 4501.79,-122.57 5498.5,-74 5501.27,-73.87 5504.07,-73.72 5506.9,-73.56"/>
<polygon fill="#63b8ff" stroke="#63b8ff" points="2997.89,-115.36 2987.87,-118.81 2997.86,-122.36 2997.89,-115.36"/>
</g>
<!-- Node39 -->
<g id="node39" class="node">
<title>Node39</title>
<g id="a_node39"><a xlink:href="_mqtt_8cpp.html" target="_top" xlink:title=" ">
<polygon fill="white" stroke="#666666" points="5842.5,-74 5720.5,-74 5720.5,-55 5842.5,-55 5842.5,-74"/>
<text text-anchor="middle" x="5781.5" y="-62" font-family="Helvetica,sans-Serif" font-size="10.00">source/Tools/Mqtt.cpp</text>
</a>
</g>
</g>
<!-- Node1&#45;&gt;Node39 -->
<g id="edge39" class="edge">
<title>Node1&#45;&gt;Node39</title>
<path fill="none" stroke="#63b8ff" d="M2997.69,-118.39C3355.79,-117.63 5158.09,-111.93 5711.5,-74 5714.43,-73.8 5717.43,-73.56 5720.45,-73.29"/>
<polygon fill="#63b8ff" stroke="#63b8ff" points="2997.51,-114.89 2987.52,-118.41 2997.53,-121.89 2997.51,-114.89"/>
</g>
<!-- Node40 -->
<g id="node40" class="node">
<title>Node40</title>
<g id="a_node40"><a xlink:href="flcodec_8cpp.html" target="_top" xlink:title=" ">
<polygon fill="white" stroke="#666666" points="5968,-74 5861,-74 5861,-55 5968,-55 5968,-74"/>
<text text-anchor="middle" x="5914.5" y="-62" font-family="Helvetica,sans-Serif" font-size="10.00">source/flcodec.cpp</text>
</a>
</g>
</g>
<!-- Node1&#45;&gt;Node40 -->
<g id="edge40" class="edge">
<title>Node1&#45;&gt;Node40</title>
<path fill="none" stroke="#63b8ff" d="M2997.86,-118.56C3366.93,-118.75 5268.89,-117.59 5851.5,-74 5854.58,-73.77 5857.74,-73.49 5860.93,-73.17"/>
<polygon fill="#63b8ff" stroke="#63b8ff" points="2997.64,-115.06 2987.64,-118.55 2997.64,-122.06 2997.64,-115.06"/>
</g>
<!-- Node32&#45;&gt;Node6 -->
<g id="edge32" class="edge">
<title>Node32&#45;&gt;Node6</title>
<path fill="none" stroke="#63b8ff" d="M4876.67,-54.94C4016.94,-12.79 2982.37,-10.38 2735.33,-10.43"/>
<polygon fill="#63b8ff" stroke="#63b8ff" points="4876.61,-58.44 4886.77,-55.44 4876.96,-51.45 4876.61,-58.44"/>
</g>
<!-- Node33 -->
<g id="node33" class="node">
<title>Node33</title>
<g id="a_node33"><a xlink:href="_memory_manager_8cpp.html" target="_top" xlink:title=" ">
<polygon fill="white" stroke="#666666" points="4985.5,-19 4787.5,-19 4787.5,0 4985.5,0 4985.5,-19"/>
<text text-anchor="middle" x="4886.5" y="-7" font-family="Helvetica,sans-Serif" font-size="10.00">source/Memory/MemoryManager.cpp</text>
</a>
</g>
</g>
<!-- Node32&#45;&gt;Node33 -->
<g id="edge33" class="edge">
<title>Node32&#45;&gt;Node33</title>
<path fill="none" stroke="#63b8ff" d="M4961.47,-50.23C4943.13,-40.51 4918.76,-27.6 4902.86,-19.17"/>
<polygon fill="#63b8ff" stroke="#63b8ff" points="4959.96,-53.39 4970.43,-54.98 4963.24,-47.21 4959.96,-53.39"/>
</g>
<!-- Node34 -->
<g id="node34" class="node">
<title>Node34</title>
<g id="a_node34"><a xlink:href="_save_data_8cpp.html" target="_top" xlink:title=" ">
<polygon fill="white" stroke="#666666" points="5167,-19 5004,-19 5004,0 5167,0 5167,-19"/>
<text text-anchor="middle" x="5085.5" y="-7" font-family="Helvetica,sans-Serif" font-size="10.00">source/Memory/SaveData.cpp</text>
</a>
</g>
</g>
<!-- Node32&#45;&gt;Node34 -->
<g id="edge34" class="edge">
<title>Node32&#45;&gt;Node34</title>
<path fill="none" stroke="#63b8ff" d="M5011.28,-50.23C5029.44,-40.51 5053.56,-27.6 5069.3,-19.17"/>
<polygon fill="#63b8ff" stroke="#63b8ff" points="5009.57,-47.18 5002.41,-54.98 5012.87,-53.35 5009.57,-47.18"/>
</g>
</g>
</svg>
