<?xml version="1.0" encoding="UTF-8" standalone="no"?>
<!DOCTYPE svg PUBLIC "-//W3C//DTD SVG 1.1//EN"
 "http://www.w3.org/Graphics/SVG/1.1/DTD/svg11.dtd">
<!-- Generated by graphviz version 2.43.0 (0)
 -->
<!-- Title: source/Global.hpp Pages: 1 -->
<svg width="6156pt" height="137pt"
 viewBox="0.00 0.00 6156.00 137.00" xmlns="http://www.w3.org/2000/svg" xmlns:xlink="http://www.w3.org/1999/xlink">
<g id="graph0" class="graph" transform="scale(1 1) rotate(0) translate(4 133)">
<title>source/Global.hpp</title>
<!-- Node1 -->
<g id="node1" class="node">
<title>Node1</title>
<g id="a_node1"><a xlink:title=" ">
<polygon fill="#999999" stroke="#666666" points="3073.5,-129 2969.5,-129 2969.5,-110 3073.5,-110 3073.5,-129"/>
<text text-anchor="middle" x="3021.5" y="-117" font-family="Helvetica,sans-Serif" font-size="10.00">source/Global.hpp</text>
</a>
</g>
</g>
<!-- Node2 -->
<g id="node2" class="node">
<title>Node2</title>
<g id="a_node2"><a xlink:href="_c_cmds_8cpp.html" target="_top" xlink:title=" ">
<polygon fill="white" stroke="#666666" points="107,-74 0,-74 0,-55 107,-55 107,-74"/>
<text text-anchor="middle" x="53.5" y="-62" font-family="Helvetica,sans-Serif" font-size="10.00">source/CCmds.cpp</text>
</a>
</g>
</g>
<!-- Node1&#45;&gt;Node2 -->
<g id="edge1" class="edge">
<title>Node1&#45;&gt;Node2</title>
<path fill="none" stroke="#63b8ff" d="M2959.08,-118.55C2590.68,-118.72 696.75,-117.43 116.5,-74 113.42,-73.77 110.26,-73.49 107.07,-73.17"/>
<polygon fill="#63b8ff" stroke="#63b8ff" points="2959.28,-122.05 2969.28,-118.55 2959.28,-115.05 2959.28,-122.05"/>
</g>
<!-- Node3 -->
<g id="node3" class="node">
<title>Node3</title>
<g id="a_node3"><a xlink:href="_lights_8cpp.html" target="_top" xlink:title=" ">
<polygon fill="white" stroke="#666666" points="253.5,-74 125.5,-74 125.5,-55 253.5,-55 253.5,-74"/>
<text text-anchor="middle" x="189.5" y="-62" font-family="Helvetica,sans-Serif" font-size="10.00">source/Data/Lights.cpp</text>
</a>
</g>
</g>
<!-- Node1&#45;&gt;Node3 -->
<g id="edge2" class="edge">
<title>Node1&#45;&gt;Node3</title>
<path fill="none" stroke="#63b8ff" d="M2959.12,-118.34C2601.88,-117.31 812.32,-110.35 262.5,-74 259.57,-73.81 256.58,-73.58 253.56,-73.33"/>
<polygon fill="#63b8ff" stroke="#63b8ff" points="2959.26,-121.84 2969.27,-118.37 2959.28,-114.84 2959.26,-121.84"/>
</g>
<!-- Node4 -->
<g id="node4" class="node">
<title>Node4</title>
<g id="a_node4"><a xlink:href="_debug_8cpp.html" target="_top" xlink:title=" ">
<polygon fill="white" stroke="#666666" points="375.5,-74 271.5,-74 271.5,-55 375.5,-55 375.5,-74"/>
<text text-anchor="middle" x="323.5" y="-62" font-family="Helvetica,sans-Serif" font-size="10.00">source/Debug.cpp</text>
</a>
</g>
</g>
<!-- Node1&#45;&gt;Node4 -->
<g id="edge3" class="edge">
<title>Node1&#45;&gt;Node4</title>
<path fill="none" stroke="#63b8ff" d="M2959.38,-118.48C2612.15,-118.2 908.31,-114.76 384.5,-74 381.62,-73.78 378.67,-73.5 375.7,-73.2"/>
<polygon fill="#63b8ff" stroke="#63b8ff" points="2959.49,-121.98 2969.5,-118.49 2959.5,-114.98 2959.49,-121.98"/>
</g>
<!-- Node5 -->
<g id="node5" class="node">
<title>Node5</title>
<g id="a_node5"><a xlink:href="_exceptions_8cpp.html" target="_top" xlink:title=" ">
<polygon fill="white" stroke="#666666" points="519,-74 394,-74 394,-55 519,-55 519,-74"/>
<text text-anchor="middle" x="456.5" y="-62" font-family="Helvetica,sans-Serif" font-size="10.00">source/Exceptions.cpp</text>
</a>
</g>
</g>
<!-- Node1&#45;&gt;Node5 -->
<g id="edge4" class="edge">
<title>Node1&#45;&gt;Node5</title>
<path fill="none" stroke="#63b8ff" d="M2959.44,-118.17C2624.2,-116.24 1026.48,-105.55 533.5,-74 528.8,-73.7 523.95,-73.32 519.07,-72.89"/>
<polygon fill="#63b8ff" stroke="#63b8ff" points="2959.43,-121.67 2969.45,-118.22 2959.47,-114.67 2959.43,-121.67"/>
</g>
<!-- Node6 -->
<g id="node6" class="node">
<title>Node6</title>
<g id="a_node6"><a xlink:href="_f_l_hook_8cpp.html" target="_top" xlink:title=" ">
<polygon fill="white" stroke="#666666" points="2825,-19 2716,-19 2716,0 2825,0 2825,-19"/>
<text text-anchor="middle" x="2770.5" y="-7" font-family="Helvetica,sans-Serif" font-size="10.00">source/FLHook.cpp</text>
</a>
</g>
</g>
<!-- Node1&#45;&gt;Node6 -->
<g id="edge5" class="edge">
<title>Node1&#45;&gt;Node6</title>
<path fill="none" stroke="#63b8ff" d="M2959.02,-118.56C2580.58,-118.81 609.7,-117.99 566.5,-74 560.58,-67.98 560.59,-61.03 566.5,-55 605.3,-15.41 2380.07,-11.03 2715.96,-10.56"/>
<polygon fill="#63b8ff" stroke="#63b8ff" points="2959.24,-122.06 2969.23,-118.56 2959.23,-115.06 2959.24,-122.06"/>
</g>
<!-- Node7 -->
<g id="node7" class="node">
<title>Node7</title>
<g id="a_node7"><a xlink:href="_error_8cpp.html" target="_top" xlink:title=" ">
<polygon fill="white" stroke="#666666" points="715.5,-74 575.5,-74 575.5,-55 715.5,-55 715.5,-74"/>
<text text-anchor="middle" x="645.5" y="-62" font-family="Helvetica,sans-Serif" font-size="10.00">source/Features/Error.cpp</text>
</a>
</g>
</g>
<!-- Node1&#45;&gt;Node7 -->
<g id="edge6" class="edge">
<title>Node1&#45;&gt;Node7</title>
<path fill="none" stroke="#63b8ff" d="M2959.39,-118.04C2639.72,-115.53 1177.35,-102.69 724.5,-74 721.61,-73.82 718.66,-73.61 715.68,-73.37"/>
<polygon fill="#63b8ff" stroke="#63b8ff" points="2959.37,-121.54 2969.4,-118.11 2959.43,-114.54 2959.37,-121.54"/>
</g>
<!-- Node8 -->
<g id="node8" class="node">
<title>Node8</title>
<g id="a_node8"><a xlink:href="_logging_8cpp.html" target="_top" xlink:title=" ">
<polygon fill="white" stroke="#666666" points="889,-74 734,-74 734,-55 889,-55 889,-74"/>
<text text-anchor="middle" x="811.5" y="-62" font-family="Helvetica,sans-Serif" font-size="10.00">source/Features/Logging.cpp</text>
</a>
</g>
</g>
<!-- Node1&#45;&gt;Node8 -->
<g id="edge7" class="edge">
<title>Node1&#45;&gt;Node8</title>
<path fill="none" stroke="#63b8ff" d="M2959.12,-118.93C2703.61,-120.34 1712.03,-122.2 898.5,-74 895.47,-73.82 892.38,-73.62 889.27,-73.39"/>
<polygon fill="#63b8ff" stroke="#63b8ff" points="2959.34,-122.43 2969.32,-118.87 2959.3,-115.43 2959.34,-122.43"/>
</g>
<!-- Node9 -->
<g id="node9" class="node">
<title>Node9</title>
<g id="a_node9"><a xlink:href="_mail_8cpp.html" target="_top" xlink:title=" ">
<polygon fill="white" stroke="#666666" points="1045.5,-74 907.5,-74 907.5,-55 1045.5,-55 1045.5,-74"/>
<text text-anchor="middle" x="976.5" y="-62" font-family="Helvetica,sans-Serif" font-size="10.00">source/Features/Mail.cpp</text>
</a>
</g>
</g>
<!-- Node1&#45;&gt;Node9 -->
<g id="edge8" class="edge">
<title>Node1&#45;&gt;Node9</title>
<path fill="none" stroke="#63b8ff" d="M2958.71,-117.81C2666.5,-114.47 1437.9,-99.18 1054.5,-74 1051.65,-73.81 1048.73,-73.6 1045.8,-73.36"/>
<polygon fill="#63b8ff" stroke="#63b8ff" points="2959.07,-121.31 2969.11,-117.93 2959.15,-114.31 2959.07,-121.31"/>
</g>
<!-- Node10 -->
<g id="node10" class="node">
<title>Node10</title>
<g id="a_node10"><a xlink:href="_plugin_manager_8cpp.html" target="_top" xlink:title=" ">
<polygon fill="white" stroke="#666666" points="1253,-74 1064,-74 1064,-55 1253,-55 1253,-74"/>
<text text-anchor="middle" x="1158.5" y="-62" font-family="Helvetica,sans-Serif" font-size="10.00">source/Features/PluginManager.cpp</text>
</a>
</g>
</g>
<!-- Node1&#45;&gt;Node10 -->
<g id="edge9" class="edge">
<title>Node1&#45;&gt;Node10</title>
<path fill="none" stroke="#63b8ff" d="M2959.23,-118.19C2732,-116.79 1926.07,-109.48 1262.5,-74 1259.42,-73.84 1256.3,-73.66 1253.14,-73.46"/>
<polygon fill="#63b8ff" stroke="#63b8ff" points="2959.28,-121.69 2969.3,-118.25 2959.32,-114.69 2959.28,-121.69"/>
</g>
<!-- Node11 -->
<g id="node11" class="node">
<title>Node11</title>
<g id="a_node11"><a xlink:href="_startup_cache_8cpp.html" target="_top" xlink:title=" ">
<polygon fill="white" stroke="#666666" points="1453.5,-74 1271.5,-74 1271.5,-55 1453.5,-55 1453.5,-74"/>
<text text-anchor="middle" x="1362.5" y="-62" font-family="Helvetica,sans-Serif" font-size="10.00">source/Features/StartupCache.cpp</text>
</a>
</g>
</g>
<!-- Node1&#45;&gt;Node11 -->
<g id="edge10" class="edge">
<title>Node1&#45;&gt;Node11</title>
<path fill="none" stroke="#63b8ff" d="M2959.06,-117.98C2748.26,-115.95 2043.71,-106.97 1462.5,-74 1459.54,-73.83 1456.54,-73.65 1453.5,-73.45"/>
<polygon fill="#63b8ff" stroke="#63b8ff" points="2959.27,-121.48 2969.31,-118.08 2959.34,-114.48 2959.27,-121.48"/>
</g>
<!-- Node12 -->
<g id="node12" class="node">
<title>Node12</title>
<g id="a_node12"><a xlink:href="_temp_ban_8cpp.html" target="_top" xlink:title=" ">
<polygon fill="white" stroke="#666666" points="1633.5,-74 1471.5,-74 1471.5,-55 1633.5,-55 1633.5,-74"/>
<text text-anchor="middle" x="1552.5" y="-62" font-family="Helvetica,sans-Serif" font-size="10.00">source/Features/TempBan.cpp</text>
</a>
</g>
</g>
<!-- Node1&#45;&gt;Node12 -->
<g id="edge11" class="edge">
<title>Node1&#45;&gt;Node12</title>
<path fill="none" stroke="#63b8ff" d="M2959.44,-117.87C2765.01,-115.58 2150.37,-106.15 1642.5,-74 1639.68,-73.82 1636.81,-73.63 1633.92,-73.42"/>
<polygon fill="#63b8ff" stroke="#63b8ff" points="2959.43,-121.37 2969.47,-117.98 2959.51,-114.37 2959.43,-121.37"/>
</g>
<!-- Node13 -->
<g id="node13" class="node">
<title>Node13</title>
<g id="a_node13"><a xlink:href="source_2_features_2_timers_8cpp.html" target="_top" xlink:title=" ">
<polygon fill="white" stroke="#666666" points="1803,-74 1652,-74 1652,-55 1803,-55 1803,-74"/>
<text text-anchor="middle" x="1727.5" y="-62" font-family="Helvetica,sans-Serif" font-size="10.00">source/Features/Timers.cpp</text>
</a>
</g>
</g>
<!-- Node1&#45;&gt;Node13 -->
<g id="edge12" class="edge">
<title>Node1&#45;&gt;Node13</title>
<path fill="none" stroke="#63b8ff" d="M2959.24,-117.62C2780.51,-114.78 2250.46,-104.25 1811.5,-74 1808.72,-73.81 1805.89,-73.6 1803.04,-73.37"/>
<polygon fill="#63b8ff" stroke="#63b8ff" points="2959.2,-121.12 2969.25,-117.77 2959.31,-114.12 2959.2,-121.12"/>
</g>
<!-- Node14 -->
<g id="node14" class="node">
<title>Node14</title>
<g id="a_node14"><a xlink:href="source_2_features_2_user_commands_8cpp.html" target="_top" xlink:title=" ">
<polygon fill="white" stroke="#666666" points="2016,-74 1821,-74 1821,-55 2016,-55 2016,-74"/>
<text text-anchor="middle" x="1918.5" y="-62" font-family="Helvetica,sans-Serif" font-size="10.00">source/Features/UserCommands.cpp</text>
</a>
</g>
</g>
<!-- Node1&#45;&gt;Node14 -->
<g id="edge13" class="edge">
<title>Node1&#45;&gt;Node14</title>
<path fill="none" stroke="#63b8ff" d="M2958.96,-116.46C2801.9,-111.17 2378.24,-95.88 2025.5,-74 2022.43,-73.81 2019.31,-73.61 2016.17,-73.4"/>
<polygon fill="#63b8ff" stroke="#63b8ff" points="2959.25,-119.97 2969.36,-116.81 2959.48,-112.97 2959.25,-119.97"/>
</g>
<!-- Node15 -->
<g id="node15" class="node">
<title>Node15</title>
<g id="a_node15"><a xlink:href="_admin_8cpp.html" target="_top" xlink:title=" ">
<polygon fill="white" stroke="#666666" points="2178.5,-74 2034.5,-74 2034.5,-55 2178.5,-55 2178.5,-74"/>
<text text-anchor="middle" x="2106.5" y="-62" font-family="Helvetica,sans-Serif" font-size="10.00">source/Helpers/Admin.cpp</text>
</a>
</g>
</g>
<!-- Node1&#45;&gt;Node15 -->
<g id="edge14" class="edge">
<title>Node1&#45;&gt;Node15</title>
<path fill="none" stroke="#63b8ff" d="M2959.21,-116.27C2820.46,-111.06 2475.53,-96.78 2187.5,-74 2184.68,-73.78 2181.81,-73.54 2178.91,-73.28"/>
<polygon fill="#63b8ff" stroke="#63b8ff" points="2959.11,-119.77 2969.23,-116.64 2959.37,-112.77 2959.11,-119.77"/>
</g>
<!-- Node16 -->
<g id="node16" class="node">
<title>Node16</title>
<g id="a_node16"><a xlink:href="_client_8cpp.html" target="_top" xlink:title=" ">
<polygon fill="white" stroke="#666666" points="2338,-74 2197,-74 2197,-55 2338,-55 2338,-74"/>
<text text-anchor="middle" x="2267.5" y="-62" font-family="Helvetica,sans-Serif" font-size="10.00">source/Helpers/Client.cpp</text>
</a>
</g>
</g>
<!-- Node1&#45;&gt;Node16 -->
<g id="edge15" class="edge">
<title>Node1&#45;&gt;Node16</title>
<path fill="none" stroke="#63b8ff" d="M2959.34,-115.26C2840.28,-108.87 2571.89,-93.55 2346.5,-74 2343.75,-73.76 2340.95,-73.51 2338.12,-73.24"/>
<polygon fill="#63b8ff" stroke="#63b8ff" points="2959.19,-118.76 2969.36,-115.8 2959.56,-111.77 2959.19,-118.76"/>
</g>
<!-- Node17 -->
<g id="node17" class="node">
<title>Node17</title>
<g id="a_node17"><a xlink:href="_ini_8cpp.html" target="_top" xlink:title=" ">
<polygon fill="white" stroke="#666666" points="2481,-74 2356,-74 2356,-55 2481,-55 2481,-74"/>
<text text-anchor="middle" x="2418.5" y="-62" font-family="Helvetica,sans-Serif" font-size="10.00">source/Helpers/Ini.cpp</text>
</a>
</g>
</g>
<!-- Node1&#45;&gt;Node17 -->
<g id="edge16" class="edge">
<title>Node1&#45;&gt;Node17</title>
<path fill="none" stroke="#63b8ff" d="M2959.17,-114.01C2859.74,-106.69 2659.15,-91.25 2489.5,-74 2486.78,-73.72 2484.01,-73.43 2481.21,-73.13"/>
<polygon fill="#63b8ff" stroke="#63b8ff" points="2959.11,-117.52 2969.34,-114.76 2959.62,-110.53 2959.11,-117.52"/>
</g>
<!-- Node18 -->
<g id="node18" class="node">
<title>Node18</title>
<g id="a_node18"><a xlink:href="_math_8cpp.html" target="_top" xlink:title=" ">
<polygon fill="white" stroke="#666666" points="2636,-74 2499,-74 2499,-55 2636,-55 2636,-74"/>
<text text-anchor="middle" x="2567.5" y="-62" font-family="Helvetica,sans-Serif" font-size="10.00">source/Helpers/Math.cpp</text>
</a>
</g>
</g>
<!-- Node1&#45;&gt;Node18 -->
<g id="edge17" class="edge">
<title>Node1&#45;&gt;Node18</title>
<path fill="none" stroke="#63b8ff" d="M2959.45,-111.26C2874.96,-101.39 2724.18,-83.79 2636.31,-73.53"/>
<polygon fill="#63b8ff" stroke="#63b8ff" points="2959.08,-114.74 2969.42,-112.42 2959.89,-107.78 2959.08,-114.74"/>
</g>
<!-- Node19 -->
<g id="node19" class="node">
<title>Node19</title>
<g id="a_node19"><a xlink:href="source_2_helpers_2_message_8cpp.html" target="_top" xlink:title=" ">
<polygon fill="white" stroke="#666666" points="2810.5,-74 2654.5,-74 2654.5,-55 2810.5,-55 2810.5,-74"/>
<text text-anchor="middle" x="2732.5" y="-62" font-family="Helvetica,sans-Serif" font-size="10.00">source/Helpers/Message.cpp</text>
</a>
</g>
</g>
<!-- Node1&#45;&gt;Node19 -->
<g id="edge18" class="edge">
<title>Node1&#45;&gt;Node19</title>
<path fill="none" stroke="#63b8ff" d="M2964.94,-108.13C2910.76,-98.19 2829.96,-83.37 2779.3,-74.08"/>
<polygon fill="#63b8ff" stroke="#63b8ff" points="2964.6,-111.62 2975.07,-109.98 2965.86,-104.74 2964.6,-111.62"/>
</g>
<!-- Node20 -->
<g id="node20" class="node">
<title>Node20</title>
<g id="a_node20"><a xlink:href="_pilot_personalities_8cpp.html" target="_top" xlink:title=" ">
<polygon fill="white" stroke="#666666" points="3026,-74 2829,-74 2829,-55 3026,-55 3026,-74"/>
<text text-anchor="middle" x="2927.5" y="-62" font-family="Helvetica,sans-Serif" font-size="10.00">source/Helpers/PilotPersonalities.cpp</text>
</a>
</g>
</g>
<!-- Node1&#45;&gt;Node20 -->
<g id="edge19" class="edge">
<title>Node1&#45;&gt;Node20</title>
<path fill="none" stroke="#63b8ff" d="M2997.5,-104.97C2980.31,-95.28 2957.69,-82.52 2942.88,-74.17"/>
<polygon fill="#63b8ff" stroke="#63b8ff" points="2995.97,-108.12 3006.4,-109.98 2999.41,-102.02 2995.97,-108.12"/>
</g>
<!-- Node21 -->
<g id="node21" class="node">
<title>Node21</title>
<g id="a_node21"><a xlink:href="_player_8cpp.html" target="_top" xlink:title=" ">
<polygon fill="white" stroke="#666666" points="3187,-74 3044,-74 3044,-55 3187,-55 3187,-74"/>
<text text-anchor="middle" x="3115.5" y="-62" font-family="Helvetica,sans-Serif" font-size="10.00">source/Helpers/Player.cpp</text>
</a>
</g>
</g>
<!-- Node1&#45;&gt;Node21 -->
<g id="edge20" class="edge">
<title>Node1&#45;&gt;Node21</title>
<path fill="none" stroke="#63b8ff" d="M3045.5,-104.97C3062.69,-95.28 3085.31,-82.52 3100.12,-74.17"/>
<polygon fill="#63b8ff" stroke="#63b8ff" points="3043.59,-102.02 3036.6,-109.98 3047.03,-108.12 3043.59,-102.02"/>
</g>
<!-- Node22 -->
<g id="node22" class="node">
<title>Node22</title>
<g id="a_node22"><a xlink:href="_solar_8cpp.html" target="_top" xlink:title=" ">
<polygon fill="white" stroke="#666666" points="3342,-74 3205,-74 3205,-55 3342,-55 3342,-74"/>
<text text-anchor="middle" x="3273.5" y="-62" font-family="Helvetica,sans-Serif" font-size="10.00">source/Helpers/Solar.cpp</text>
</a>
</g>
</g>
<!-- Node1&#45;&gt;Node22 -->
<g id="edge21" class="edge">
<title>Node1&#45;&gt;Node22</title>
<path fill="none" stroke="#63b8ff" d="M3072,-107.88C3119.24,-97.94 3188.89,-83.3 3232.69,-74.08"/>
<polygon fill="#63b8ff" stroke="#63b8ff" points="3071.05,-104.5 3061.99,-109.98 3072.49,-111.35 3071.05,-104.5"/>
</g>
<!-- Node23 -->
<g id="node23" class="node">
<title>Node23</title>
<g id="a_node23"><a xlink:href="_time_8cpp.html" target="_top" xlink:title=" ">
<polygon fill="white" stroke="#666666" points="3497,-74 3360,-74 3360,-55 3497,-55 3497,-74"/>
<text text-anchor="middle" x="3428.5" y="-62" font-family="Helvetica,sans-Serif" font-size="10.00">source/Helpers/Time.cpp</text>
</a>
</g>
</g>
<!-- Node1&#45;&gt;Node23 -->
<g id="edge22" class="edge">
<title>Node1&#45;&gt;Node23</title>
<path fill="none" stroke="#63b8ff" d="M3084.2,-110.33C3159.85,-100.48 3286.43,-84 3363.22,-74"/>
<polygon fill="#63b8ff" stroke="#63b8ff" points="3083.34,-106.92 3073.87,-111.68 3084.24,-113.86 3083.34,-106.92"/>
</g>
<!-- Node24 -->
<g id="node24" class="node">
<title>Node24</title>
<g id="a_node24"><a xlink:href="_zone_utilities_8cpp.html" target="_top" xlink:title=" ">
<polygon fill="white" stroke="#666666" points="3691.5,-74 3515.5,-74 3515.5,-55 3691.5,-55 3691.5,-74"/>
<text text-anchor="middle" x="3603.5" y="-62" font-family="Helvetica,sans-Serif" font-size="10.00">source/Helpers/ZoneUtilities.cpp</text>
</a>
</g>
</g>
<!-- Node1&#45;&gt;Node24 -->
<g id="edge23" class="edge">
<title>Node1&#45;&gt;Node24</title>
<path fill="none" stroke="#63b8ff" d="M3083.68,-112.84C3187.49,-103.38 3396.44,-84.36 3515.38,-73.52"/>
<polygon fill="#63b8ff" stroke="#63b8ff" points="3083.3,-109.36 3073.66,-113.75 3083.94,-116.33 3083.3,-109.36"/>
</g>
<!-- Node25 -->
<g id="node25" class="node">
<title>Node25</title>
<g id="a_node25"><a xlink:href="_hk_client_server_interface_8cpp.html" target="_top" xlink:title=" ">
<polygon fill="white" stroke="#666666" points="3899,-74 3710,-74 3710,-55 3899,-55 3899,-74"/>
<text text-anchor="middle" x="3804.5" y="-62" font-family="Helvetica,sans-Serif" font-size="10.00">source/HkClientServerInterface.cpp</text>
</a>
</g>
</g>
<!-- Node1&#45;&gt;Node25 -->
<g id="edge24" class="edge">
<title>Node1&#45;&gt;Node25</title>
<path fill="none" stroke="#63b8ff" d="M3083.99,-114.74C3203.68,-107.47 3473.54,-90.71 3700.5,-74 3703.57,-73.77 3706.69,-73.54 3709.85,-73.3"/>
<polygon fill="#63b8ff" stroke="#63b8ff" points="3083.68,-111.25 3073.91,-115.35 3084.11,-118.24 3083.68,-111.25"/>
</g>
<!-- Node26 -->
<g id="node26" class="node">
<title>Node26</title>
<g id="a_node26"><a xlink:href="_hk_data_base_market_8cpp.html" target="_top" xlink:title=" ">
<polygon fill="white" stroke="#666666" points="4084,-74 3917,-74 3917,-55 4084,-55 4084,-74"/>
<text text-anchor="middle" x="4000.5" y="-62" font-family="Helvetica,sans-Serif" font-size="10.00">source/HkDataBaseMarket.cpp</text>
</a>
</g>
</g>
<!-- Node1&#45;&gt;Node26 -->
<g id="edge25" class="edge">
<title>Node1&#45;&gt;Node26</title>
<path fill="none" stroke="#63b8ff" d="M3083.75,-116.25C3228.44,-110.83 3598.63,-95.86 3907.5,-74 3910.57,-73.78 3913.7,-73.55 3916.86,-73.31"/>
<polygon fill="#63b8ff" stroke="#63b8ff" points="3083.59,-112.75 3073.72,-116.62 3083.85,-119.75 3083.59,-112.75"/>
</g>
<!-- Node27 -->
<g id="node27" class="node">
<title>Node27</title>
<g id="a_node27"><a xlink:href="_hk_i_chat_server_8cpp.html" target="_top" xlink:title=" ">
<polygon fill="white" stroke="#666666" points="4244.5,-74 4102.5,-74 4102.5,-55 4244.5,-55 4244.5,-74"/>
<text text-anchor="middle" x="4173.5" y="-62" font-family="Helvetica,sans-Serif" font-size="10.00">source/HkIChatServer.cpp</text>
</a>
</g>
</g>
<!-- Node1&#45;&gt;Node27 -->
<g id="edge26" class="edge">
<title>Node1&#45;&gt;Node27</title>
<path fill="none" stroke="#63b8ff" d="M3084.11,-117.28C3249.21,-113.75 3709.98,-101.99 4092.5,-74 4095.74,-73.76 4099.06,-73.5 4102.4,-73.22"/>
<polygon fill="#63b8ff" stroke="#63b8ff" points="3083.59,-113.79 3073.67,-117.5 3083.74,-120.79 3083.59,-113.79"/>
</g>
<!-- Node28 -->
<g id="node28" class="node">
<title>Node28</title>
<g id="a_node28"><a xlink:href="_hk_i_engine_8cpp.html" target="_top" xlink:title=" ">
<polygon fill="white" stroke="#666666" points="4384.5,-74 4262.5,-74 4262.5,-55 4384.5,-55 4384.5,-74"/>
<text text-anchor="middle" x="4323.5" y="-62" font-family="Helvetica,sans-Serif" font-size="10.00">source/HkIEngine.cpp</text>
</a>
</g>
</g>
<!-- Node1&#45;&gt;Node28 -->
<g id="edge27" class="edge">
<title>Node1&#45;&gt;Node28</title>
<path fill="none" stroke="#63b8ff" d="M3083.65,-118.11C3264.47,-116.59 3805.85,-109.2 4253.5,-74 4256.43,-73.77 4259.42,-73.51 4262.45,-73.22"/>
<polygon fill="#63b8ff" stroke="#63b8ff" points="3083.5,-114.62 3073.53,-118.2 3083.56,-121.62 3083.5,-114.62"/>
</g>
<!-- Node29 -->
<g id="node29" class="node">
<title>Node29</title>
<g id="a_node29"><a xlink:href="_hk_i_engine_damage_8cpp.html" target="_top" xlink:title=" ">
<polygon fill="white" stroke="#666666" points="4566,-74 4403,-74 4403,-55 4566,-55 4566,-74"/>
<text text-anchor="middle" x="4484.5" y="-62" font-family="Helvetica,sans-Serif" font-size="10.00">source/HkIEngineDamage.cpp</text>
</a>
</g>
</g>
<!-- Node1&#45;&gt;Node29 -->
<g id="edge28" class="edge">
<title>Node1&#45;&gt;Node29</title>
<path fill="none" stroke="#63b8ff" d="M3083.58,-117.83C3277.39,-115.44 3888.48,-105.75 4393.5,-74 4396.51,-73.81 4399.57,-73.6 4402.67,-73.38"/>
<polygon fill="#63b8ff" stroke="#63b8ff" points="3083.53,-114.33 3073.58,-117.95 3083.62,-121.33 3083.53,-114.33"/>
</g>
<!-- Node30 -->
<g id="node30" class="node">
<title>Node30</title>
<g id="a_node30"><a xlink:href="_hk_i_engine_death_8cpp.html" target="_top" xlink:title=" ">
<polygon fill="white" stroke="#666666" points="4735,-74 4584,-74 4584,-55 4735,-55 4735,-74"/>
<text text-anchor="middle" x="4659.5" y="-62" font-family="Helvetica,sans-Serif" font-size="10.00">source/HkIEngineDeath.cpp</text>
</a>
</g>
</g>
<!-- Node1&#45;&gt;Node30 -->
<g id="edge29" class="edge">
<title>Node1&#45;&gt;Node30</title>
<path fill="none" stroke="#63b8ff" d="M3083.72,-118.3C3293.77,-117.3 3995.79,-111.18 4574.5,-74 4577.61,-73.8 4580.78,-73.58 4583.98,-73.33"/>
<polygon fill="#63b8ff" stroke="#63b8ff" points="3083.49,-114.8 3073.51,-118.35 3083.53,-121.8 3083.49,-114.8"/>
</g>
<!-- Node31 -->
<g id="node31" class="node">
<title>Node31</title>
<g id="a_node31"><a xlink:href="_hk_i_engine_disconnect_8cpp.html" target="_top" xlink:title=" ">
<polygon fill="white" stroke="#666666" points="4929.5,-74 4753.5,-74 4753.5,-55 4929.5,-55 4929.5,-74"/>
<text text-anchor="middle" x="4841.5" y="-62" font-family="Helvetica,sans-Serif" font-size="10.00">source/HkIEngineDisconnect.cpp</text>
</a>
</g>
</g>
<!-- Node1&#45;&gt;Node31 -->
<g id="edge30" class="edge">
<title>Node1&#45;&gt;Node31</title>
<path fill="none" stroke="#63b8ff" d="M3083.94,-118.25C3308.39,-117.08 4095.4,-110.45 4743.5,-74 4746.74,-73.82 4750.04,-73.62 4753.37,-73.4"/>
<polygon fill="#63b8ff" stroke="#63b8ff" points="3083.66,-114.76 3073.68,-118.31 3083.69,-121.76 3083.66,-114.76"/>
</g>
<!-- Node32 -->
<g id="node32" class="node">
<title>Node32</title>
<g id="a_node32"><a xlink:href="_hk_init_8cpp.html" target="_top" xlink:title=" ">
<polygon fill="white" stroke="#666666" points="5049,-74 4948,-74 4948,-55 5049,-55 5049,-74"/>
<text text-anchor="middle" x="4998.5" y="-62" font-family="Helvetica,sans-Serif" font-size="10.00">source/HkInit.cpp</text>
</a>
</g>
</g>
<!-- Node1&#45;&gt;Node32 -->
<g id="edge31" class="edge">
<title>Node1&#45;&gt;Node32</title>
<path fill="none" stroke="#63b8ff" d="M3084.13,-118.04C3371.53,-115.76 4565.91,-104.61 4938.5,-74 4941.54,-73.75 4944.66,-73.45 4947.81,-73.11"/>
<polygon fill="#63b8ff" stroke="#63b8ff" points="3083.87,-114.54 3073.9,-118.12 3083.92,-121.54 3083.87,-114.54"/>
</g>
<!-- Node33 -->
<g id="node33" class="node">
<title>Node33</title>
<g id="a_node33"><a xlink:href="_memory_manager_8hpp.html" target="_top" xlink:title=" ">
<polygon fill="white" stroke="#666666" points="5266,-74 5067,-74 5067,-55 5266,-55 5266,-74"/>
<text text-anchor="middle" x="5166.5" y="-62" font-family="Helvetica,sans-Serif" font-size="10.00">source/Memory/MemoryManager.hpp</text>
</a>
</g>
</g>
<!-- Node1&#45;&gt;Node33 -->
<g id="edge32" class="edge">
<title>Node1&#45;&gt;Node33</title>
<path fill="none" stroke="#63b8ff" d="M3084.19,-118.43C3333.71,-117.85 4280.52,-113.08 5058.5,-74 5061.22,-73.86 5063.99,-73.71 5066.77,-73.56"/>
<polygon fill="#63b8ff" stroke="#63b8ff" points="3083.86,-114.93 3073.87,-118.45 3083.88,-121.93 3083.86,-114.93"/>
</g>
<!-- Node36 -->
<g id="node36" class="node">
<title>Node36</title>
<g id="a_node36"><a xlink:href="_settings_8cpp.html" target="_top" xlink:title=" ">
<polygon fill="white" stroke="#666666" points="5396.5,-74 5284.5,-74 5284.5,-55 5396.5,-55 5396.5,-74"/>
<text text-anchor="middle" x="5340.5" y="-62" font-family="Helvetica,sans-Serif" font-size="10.00">source/Settings.cpp</text>
</a>
</g>
</g>
<!-- Node1&#45;&gt;Node36 -->
<g id="edge36" class="edge">
<title>Node1&#45;&gt;Node36</title>
<path fill="none" stroke="#63b8ff" d="M3083.95,-118.2C3400.74,-116.53 4832.18,-107.26 5275.5,-74 5278.34,-73.79 5281.24,-73.53 5284.17,-73.25"/>
<polygon fill="#63b8ff" stroke="#63b8ff" points="3083.58,-114.7 3073.59,-118.25 3083.61,-121.7 3083.58,-114.7"/>
</g>
<!-- Node37 -->
<g id="node37" class="node">
<title>Node37</title>
<g id="a_node37"><a xlink:href="_tools_8cpp.html" target="_top" xlink:title=" ">
<polygon fill="white" stroke="#666666" points="5512,-74 5415,-74 5415,-55 5512,-55 5512,-74"/>
<text text-anchor="middle" x="5463.5" y="-62" font-family="Helvetica,sans-Serif" font-size="10.00">source/Tools.cpp</text>
</a>
</g>
</g>
<!-- Node1&#45;&gt;Node37 -->
<g id="edge37" class="edge">
<title>Node1&#45;&gt;Node37</title>
<path fill="none" stroke="#63b8ff" d="M3083.84,-118.41C3411.28,-117.76 4935.12,-112.7 5405.5,-74 5408.54,-73.75 5411.67,-73.44 5414.82,-73.09"/>
<polygon fill="#63b8ff" stroke="#63b8ff" points="3083.59,-114.91 3073.6,-118.43 3083.6,-121.91 3083.59,-114.91"/>
</g>
<!-- Node38 -->
<g id="node38" class="node">
<title>Node38</title>
<g id="a_node38"><a xlink:href="_console_8cpp.html" target="_top" xlink:title=" ">
<polygon fill="white" stroke="#666666" points="5669,-74 5530,-74 5530,-55 5669,-55 5669,-74"/>
<text text-anchor="middle" x="5599.5" y="-62" font-family="Helvetica,sans-Serif" font-size="10.00">source/Tools/Console.cpp</text>
</a>
</g>
</g>
<!-- Node1&#45;&gt;Node38 -->
<g id="edge38" class="edge">
<title>Node1&#45;&gt;Node38</title>
<path fill="none" stroke="#63b8ff" d="M3083.58,-118.16C3419.84,-116.2 5025.98,-105.34 5521.5,-74 5524.22,-73.83 5526.99,-73.63 5529.79,-73.41"/>
<polygon fill="#63b8ff" stroke="#63b8ff" points="3083.52,-114.66 3073.54,-118.22 3083.56,-121.66 3083.52,-114.66"/>
</g>
<!-- Node39 -->
<g id="node39" class="node">
<title>Node39</title>
<g id="a_node39"><a xlink:href="_generate_certificate_8cpp.html" target="_top" xlink:title=" ">
<polygon fill="white" stroke="#666666" points="5882,-74 5687,-74 5687,-55 5882,-55 5882,-74"/>
<text text-anchor="middle" x="5784.5" y="-62" font-family="Helvetica,sans-Serif" font-size="10.00">source/Tools/GenerateCertificate.cpp</text>
</a>
</g>
</g>
<!-- Node1&#45;&gt;Node39 -->
<g id="edge39" class="edge">
<title>Node1&#45;&gt;Node39</title>
<path fill="none" stroke="#63b8ff" d="M3083.77,-117.99C3432.83,-115.07 5149.6,-99.61 5678.5,-74 5681.27,-73.87 5684.07,-73.72 5686.9,-73.56"/>
<polygon fill="#63b8ff" stroke="#63b8ff" points="3083.58,-114.49 3073.61,-118.08 3083.64,-121.49 3083.58,-114.49"/>
</g>
<!-- Node40 -->
<g id="node40" class="node">
<title>Node40</title>
<g id="a_node40"><a xlink:href="_mqtt_8cpp.html" target="_top" xlink:title=" ">
<polygon fill="white" stroke="#666666" points="6022.5,-74 5900.5,-74 5900.5,-55 6022.5,-55 6022.5,-74"/>
<text text-anchor="middle" x="5961.5" y="-62" font-family="Helvetica,sans-Serif" font-size="10.00">source/Tools/Mqtt.cpp</text>
</a>
</g>
</g>
<!-- Node1&#45;&gt;Node40 -->
<g id="edge40" class="edge">
<title>Node1&#45;&gt;Node40</title>
<path fill="none" stroke="#63b8ff" d="M3083.74,-118.43C3449.08,-117.87 5318.28,-113.14 5891.5,-74 5894.43,-73.8 5897.43,-73.56 5900.45,-73.3"/>
<polygon fill="#63b8ff" stroke="#63b8ff" points="3083.62,-114.93 3073.63,-118.44 3083.63,-121.93 3083.62,-114.93"/>
</g>
<!-- Node41 -->
<g id="node41" class="node">
<title>Node41</title>
<g id="a_node41"><a xlink:href="flcodec_8cpp.html" target="_top" xlink:title=" ">
<polygon fill="white" stroke="#666666" points="6148,-74 6041,-74 6041,-55 6148,-55 6148,-74"/>
<text text-anchor="middle" x="6094.5" y="-62" font-family="Helvetica,sans-Serif" font-size="10.00">source/flcodec.cpp</text>
</a>
</g>
</g>
<!-- Node1&#45;&gt;Node41 -->
<g id="edge41" class="edge">
<title>Node1&#45;&gt;Node41</title>
<path fill="none" stroke="#63b8ff" d="M3083.76,-118.59C3459.54,-119 5428.99,-118.94 6031.5,-74 6034.58,-73.77 6037.74,-73.49 6040.93,-73.17"/>
<polygon fill="#63b8ff" stroke="#63b8ff" points="3083.63,-115.09 3073.63,-118.58 3083.62,-122.09 3083.63,-115.09"/>
</g>
<!-- Node33&#45;&gt;Node6 -->
<g id="edge33" class="edge">
<title>Node33&#45;&gt;Node6</title>
<path fill="none" stroke="#63b8ff" d="M5056.55,-54.94C4158.91,-11.28 3077.51,-10.03 2825.01,-10.37"/>
<polygon fill="#63b8ff" stroke="#63b8ff" points="5056.61,-58.44 5066.77,-55.44 5056.96,-51.45 5056.61,-58.44"/>
</g>
<!-- Node34 -->
<g id="node34" class="node">
<title>Node34</title>
<g id="a_node34"><a xlink:href="_memory_manager_8cpp.html" target="_top" xlink:title=" ">
<polygon fill="white" stroke="#666666" points="5165.5,-19 4967.5,-19 4967.5,0 5165.5,0 5165.5,-19"/>
<text text-anchor="middle" x="5066.5" y="-7" font-family="Helvetica,sans-Serif" font-size="10.00">source/Memory/MemoryManager.cpp</text>
</a>
</g>
</g>
<!-- Node33&#45;&gt;Node34 -->
<g id="edge34" class="edge">
<title>Node33&#45;&gt;Node34</title>
<path fill="none" stroke="#63b8ff" d="M5141.47,-50.23C5123.13,-40.51 5098.76,-27.6 5082.86,-19.17"/>
<polygon fill="#63b8ff" stroke="#63b8ff" points="5139.96,-53.39 5150.43,-54.98 5143.24,-47.21 5139.96,-53.39"/>
</g>
<!-- Node35 -->
<g id="node35" class="node">
<title>Node35</title>
<g id="a_node35"><a xlink:href="_save_data_8cpp.html" target="_top" xlink:title=" ">
<polygon fill="white" stroke="#666666" points="5347,-19 5184,-19 5184,0 5347,0 5347,-19"/>
<text text-anchor="middle" x="5265.5" y="-7" font-family="Helvetica,sans-Serif" font-size="10.00">source/Memory/SaveData.cpp</text>
</a>
</g>
</g>
<!-- Node33&#45;&gt;Node35 -->
<g id="edge35" class="edge">
<title>Node33&#45;&gt;Node35</title>
<path fill="none" stroke="#63b8ff" d="M5191.28,-50.23C5209.44,-40.51 5233.56,-27.6 5249.3,-19.17"/>
<polygon fill="#63b8ff" stroke="#63b8ff" points="5189.57,-47.18 5182.41,-54.98 5192.87,-53.35 5189.57,-47.18"/>
</g>
</g>
</svg>
