<?xml version="1.0" encoding="UTF-8" standalone="no"?>
<!DOCTYPE svg PUBLIC "-//W3C//DTD SVG 1.1//EN"
 "http://www.w3.org/Graphics/SVG/1.1/DTD/svg11.dtd">
<!-- Generated by graphviz version 2.43.0 (0)
 -->
<!-- Title: source/Global.hpp Pages: 1 -->
<svg width="5848pt" height="82pt"
 viewBox="0.00 0.00 5848.00 82.00" xmlns="http://www.w3.org/2000/svg" xmlns:xlink="http://www.w3.org/1999/xlink">
<g id="graph0" class="graph" transform="scale(1 1) rotate(0) translate(4 78)">
<title>source/Global.hpp</title>
<!-- Node1 -->
<g id="node1" class="node">
<title>Node1</title>
<g id="a_node1"><a xlink:title=" ">
<polygon fill="#999999" stroke="#666666" points="2982.5,-74 2878.5,-74 2878.5,-55 2982.5,-55 2982.5,-74"/>
<text text-anchor="middle" x="2930.5" y="-62" font-family="Helvetica,sans-Serif" font-size="10.00">source/Global.hpp</text>
</a>
</g>
</g>
<!-- Node2 -->
<g id="node2" class="node">
<title>Node2</title>
<g id="a_node2"><a xlink:href="_c_cmds_8cpp.html" target="_top" xlink:title=" ">
<polygon fill="white" stroke="#666666" points="107,-19 0,-19 0,0 107,0 107,-19"/>
<text text-anchor="middle" x="53.5" y="-7" font-family="Helvetica,sans-Serif" font-size="10.00">source/CCmds.cpp</text>
</a>
</g>
</g>
<!-- Node1&#45;&gt;Node2 -->
<g id="edge1" class="edge">
<title>Node1&#45;&gt;Node2</title>
<path fill="none" stroke="#63b8ff" d="M2868.3,-63.52C2507.27,-63.47 677.66,-61.14 116.5,-19 113.42,-18.77 110.26,-18.49 107.07,-18.17"/>
<polygon fill="#63b8ff" stroke="#63b8ff" points="2868.31,-67.02 2878.31,-63.52 2868.31,-60.02 2868.31,-67.02"/>
</g>
<!-- Node3 -->
<g id="node3" class="node">
<title>Node3</title>
<g id="a_node3"><a xlink:href="_lights_8cpp.html" target="_top" xlink:title=" ">
<polygon fill="white" stroke="#666666" points="253.5,-19 125.5,-19 125.5,0 253.5,0 253.5,-19"/>
<text text-anchor="middle" x="189.5" y="-7" font-family="Helvetica,sans-Serif" font-size="10.00">source/Data/Lights.cpp</text>
</a>
</g>
</g>
<!-- Node1&#45;&gt;Node3 -->
<g id="edge2" class="edge">
<title>Node1&#45;&gt;Node3</title>
<path fill="none" stroke="#63b8ff" d="M2868.23,-63.3C2518.28,-62.06 793.19,-54.23 262.5,-19 259.57,-18.81 256.58,-18.58 253.56,-18.32"/>
<polygon fill="#63b8ff" stroke="#63b8ff" points="2868.41,-66.8 2878.42,-63.34 2868.44,-59.8 2868.41,-66.8"/>
</g>
<!-- Node4 -->
<g id="node4" class="node">
<title>Node4</title>
<g id="a_node4"><a xlink:href="_debug_8cpp.html" target="_top" xlink:title=" ">
<polygon fill="white" stroke="#666666" points="375.5,-19 271.5,-19 271.5,0 375.5,0 375.5,-19"/>
<text text-anchor="middle" x="323.5" y="-7" font-family="Helvetica,sans-Serif" font-size="10.00">source/Debug.cpp</text>
</a>
</g>
</g>
<!-- Node1&#45;&gt;Node4 -->
<g id="edge3" class="edge">
<title>Node1&#45;&gt;Node4</title>
<path fill="none" stroke="#63b8ff" d="M2868.09,-63.43C2527.37,-62.92 889.01,-58.41 384.5,-19 381.62,-18.78 378.67,-18.5 375.7,-18.2"/>
<polygon fill="#63b8ff" stroke="#63b8ff" points="2868.25,-66.93 2878.26,-63.45 2868.26,-59.93 2868.25,-66.93"/>
</g>
<!-- Node5 -->
<g id="node5" class="node">
<title>Node5</title>
<g id="a_node5"><a xlink:href="_exceptions_8cpp.html" target="_top" xlink:title=" ">
<polygon fill="white" stroke="#666666" points="519,-19 394,-19 394,0 519,0 519,-19"/>
<text text-anchor="middle" x="456.5" y="-7" font-family="Helvetica,sans-Serif" font-size="10.00">source/Exceptions.cpp</text>
</a>
</g>
</g>
<!-- Node1&#45;&gt;Node5 -->
<g id="edge4" class="edge">
<title>Node1&#45;&gt;Node5</title>
<path fill="none" stroke="#63b8ff" d="M2867.68,-63.19C2537.72,-61.46 1002.1,-51.72 527.5,-19 524.78,-18.81 521.99,-18.59 519.19,-18.35"/>
<polygon fill="#63b8ff" stroke="#63b8ff" points="2867.98,-66.7 2878,-63.25 2868.02,-59.7 2867.98,-66.7"/>
</g>
<!-- Node6 -->
<g id="node6" class="node">
<title>Node6</title>
<g id="a_node6"><a xlink:href="_f_l_hook_8cpp.html" target="_top" xlink:title=" ">
<polygon fill="white" stroke="#666666" points="646,-19 537,-19 537,0 646,0 646,-19"/>
<text text-anchor="middle" x="591.5" y="-7" font-family="Helvetica,sans-Serif" font-size="10.00">source/FLHook.cpp</text>
</a>
</g>
</g>
<!-- Node1&#45;&gt;Node6 -->
<g id="edge5" class="edge">
<title>Node1&#45;&gt;Node6</title>
<path fill="none" stroke="#63b8ff" d="M2867.98,-63.23C2549.29,-61.7 1103.16,-53 655.5,-19 652.48,-18.77 649.39,-18.5 646.27,-18.19"/>
<polygon fill="#63b8ff" stroke="#63b8ff" points="2868.39,-66.73 2878.4,-63.28 2868.42,-59.73 2868.39,-66.73"/>
</g>
<!-- Node7 -->
<g id="node7" class="node">
<title>Node7</title>
<g id="a_node7"><a xlink:href="_error_8cpp.html" target="_top" xlink:title=" ">
<polygon fill="white" stroke="#666666" points="804.5,-19 664.5,-19 664.5,0 804.5,0 804.5,-19"/>
<text text-anchor="middle" x="734.5" y="-7" font-family="Helvetica,sans-Serif" font-size="10.00">source/Features/Error.cpp</text>
</a>
</g>
</g>
<!-- Node1&#45;&gt;Node7 -->
<g id="edge6" class="edge">
<title>Node1&#45;&gt;Node7</title>
<path fill="none" stroke="#63b8ff" d="M2867.96,-62.91C2562.84,-59.94 1228.41,-45.63 813.5,-19 810.61,-18.81 807.66,-18.6 804.68,-18.37"/>
<polygon fill="#63b8ff" stroke="#63b8ff" points="2868.34,-66.42 2878.37,-63.01 2868.41,-59.42 2868.34,-66.42"/>
</g>
<!-- Node8 -->
<g id="node8" class="node">
<title>Node8</title>
<g id="a_node8"><a xlink:href="_logging_8cpp.html" target="_top" xlink:title=" ">
<polygon fill="white" stroke="#666666" points="978,-19 823,-19 823,0 978,0 978,-19"/>
<text text-anchor="middle" x="900.5" y="-7" font-family="Helvetica,sans-Serif" font-size="10.00">source/Features/Logging.cpp</text>
</a>
</g>
</g>
<!-- Node1&#45;&gt;Node8 -->
<g id="edge7" class="edge">
<title>Node1&#45;&gt;Node8</title>
<path fill="none" stroke="#63b8ff" d="M2868.26,-63.76C2626.53,-64.41 1726.69,-63.51 987.5,-19 984.47,-18.82 981.38,-18.61 978.27,-18.39"/>
<polygon fill="#63b8ff" stroke="#63b8ff" points="2868.28,-67.26 2878.27,-63.73 2868.26,-60.26 2868.28,-67.26"/>
</g>
<!-- Node9 -->
<g id="node9" class="node">
<title>Node9</title>
<g id="a_node9"><a xlink:href="_mail_8cpp.html" target="_top" xlink:title=" ">
<polygon fill="white" stroke="#666666" points="1134.5,-19 996.5,-19 996.5,0 1134.5,0 1134.5,-19"/>
<text text-anchor="middle" x="1065.5" y="-7" font-family="Helvetica,sans-Serif" font-size="10.00">source/Features/Mail.cpp</text>
</a>
</g>
</g>
<!-- Node1&#45;&gt;Node9 -->
<g id="edge8" class="edge">
<title>Node1&#45;&gt;Node9</title>
<path fill="none" stroke="#63b8ff" d="M2867.99,-63.83C2638.09,-64.66 1817.85,-64.06 1143.5,-19 1140.65,-18.81 1137.73,-18.59 1134.8,-18.36"/>
<polygon fill="#63b8ff" stroke="#63b8ff" points="2868.18,-67.33 2878.16,-63.79 2868.15,-60.33 2868.18,-67.33"/>
</g>
<!-- Node10 -->
<g id="node10" class="node">
<title>Node10</title>
<g id="a_node10"><a xlink:href="_plugin_manager_8cpp.html" target="_top" xlink:title=" ">
<polygon fill="white" stroke="#666666" points="1342,-19 1153,-19 1153,0 1342,0 1342,-19"/>
<text text-anchor="middle" x="1247.5" y="-7" font-family="Helvetica,sans-Serif" font-size="10.00">source/Features/PluginManager.cpp</text>
</a>
</g>
</g>
<!-- Node1&#45;&gt;Node10 -->
<g id="edge9" class="edge">
<title>Node1&#45;&gt;Node10</title>
<path fill="none" stroke="#63b8ff" d="M2868.31,-62.94C2656.12,-60.77 1941.18,-51.38 1351.5,-19 1348.42,-18.83 1345.3,-18.65 1342.14,-18.45"/>
<polygon fill="#63b8ff" stroke="#63b8ff" points="2868.29,-66.44 2878.32,-63.04 2868.36,-59.44 2868.29,-66.44"/>
</g>
<!-- Node11 -->
<g id="node11" class="node">
<title>Node11</title>
<g id="a_node11"><a xlink:href="_startup_cache_8cpp.html" target="_top" xlink:title=" ">
<polygon fill="white" stroke="#666666" points="1542.5,-19 1360.5,-19 1360.5,0 1542.5,0 1542.5,-19"/>
<text text-anchor="middle" x="1451.5" y="-7" font-family="Helvetica,sans-Serif" font-size="10.00">source/Features/StartupCache.cpp</text>
</a>
</g>
</g>
<!-- Node1&#45;&gt;Node11 -->
<g id="edge10" class="edge">
<title>Node1&#45;&gt;Node11</title>
<path fill="none" stroke="#63b8ff" d="M2868.46,-62.66C2674.06,-59.78 2059.52,-48.77 1551.5,-19 1548.54,-18.83 1545.54,-18.64 1542.5,-18.44"/>
<polygon fill="#63b8ff" stroke="#63b8ff" points="2868.43,-66.16 2878.48,-62.81 2868.54,-59.16 2868.43,-66.16"/>
</g>
<!-- Node12 -->
<g id="node12" class="node">
<title>Node12</title>
<g id="a_node12"><a xlink:href="source_2_features_2_timers_8cpp.html" target="_top" xlink:title=" ">
<polygon fill="white" stroke="#666666" points="1712,-19 1561,-19 1561,0 1712,0 1712,-19"/>
<text text-anchor="middle" x="1636.5" y="-7" font-family="Helvetica,sans-Serif" font-size="10.00">source/Features/Timers.cpp</text>
</a>
</g>
</g>
<!-- Node1&#45;&gt;Node12 -->
<g id="edge11" class="edge">
<title>Node1&#45;&gt;Node12</title>
<path fill="none" stroke="#63b8ff" d="M2868.24,-62.62C2689.51,-59.78 2159.46,-49.25 1720.5,-19 1717.72,-18.81 1714.89,-18.6 1712.04,-18.37"/>
<polygon fill="#63b8ff" stroke="#63b8ff" points="2868.2,-66.12 2878.25,-62.77 2868.31,-59.12 2868.2,-66.12"/>
</g>
<!-- Node13 -->
<g id="node13" class="node">
<title>Node13</title>
<g id="a_node13"><a xlink:href="source_2_features_2_user_commands_8cpp.html" target="_top" xlink:title=" ">
<polygon fill="white" stroke="#666666" points="1925,-19 1730,-19 1730,0 1925,0 1925,-19"/>
<text text-anchor="middle" x="1827.5" y="-7" font-family="Helvetica,sans-Serif" font-size="10.00">source/Features/UserCommands.cpp</text>
</a>
</g>
</g>
<!-- Node1&#45;&gt;Node13 -->
<g id="edge12" class="edge">
<title>Node1&#45;&gt;Node13</title>
<path fill="none" stroke="#63b8ff" d="M2867.96,-61.46C2710.9,-56.17 2287.24,-40.88 1934.5,-19 1931.43,-18.81 1928.31,-18.61 1925.17,-18.4"/>
<polygon fill="#63b8ff" stroke="#63b8ff" points="2868.25,-64.97 2878.36,-61.81 2868.48,-57.97 2868.25,-64.97"/>
</g>
<!-- Node14 -->
<g id="node14" class="node">
<title>Node14</title>
<g id="a_node14"><a xlink:href="_admin_8cpp.html" target="_top" xlink:title=" ">
<polygon fill="white" stroke="#666666" points="2087.5,-19 1943.5,-19 1943.5,0 2087.5,0 2087.5,-19"/>
<text text-anchor="middle" x="2015.5" y="-7" font-family="Helvetica,sans-Serif" font-size="10.00">source/Helpers/Admin.cpp</text>
</a>
</g>
</g>
<!-- Node1&#45;&gt;Node14 -->
<g id="edge13" class="edge">
<title>Node1&#45;&gt;Node14</title>
<path fill="none" stroke="#63b8ff" d="M2868.21,-61.27C2729.46,-56.06 2384.53,-41.78 2096.5,-19 2093.68,-18.78 2090.81,-18.54 2087.91,-18.28"/>
<polygon fill="#63b8ff" stroke="#63b8ff" points="2868.11,-64.77 2878.23,-61.64 2868.37,-57.77 2868.11,-64.77"/>
</g>
<!-- Node15 -->
<g id="node15" class="node">
<title>Node15</title>
<g id="a_node15"><a xlink:href="_client_8cpp.html" target="_top" xlink:title=" ">
<polygon fill="white" stroke="#666666" points="2247,-19 2106,-19 2106,0 2247,0 2247,-19"/>
<text text-anchor="middle" x="2176.5" y="-7" font-family="Helvetica,sans-Serif" font-size="10.00">source/Helpers/Client.cpp</text>
</a>
</g>
</g>
<!-- Node1&#45;&gt;Node15 -->
<g id="edge14" class="edge">
<title>Node1&#45;&gt;Node15</title>
<path fill="none" stroke="#63b8ff" d="M2868.34,-60.26C2749.28,-53.87 2480.89,-38.55 2255.5,-19 2252.75,-18.76 2249.95,-18.51 2247.12,-18.24"/>
<polygon fill="#63b8ff" stroke="#63b8ff" points="2868.19,-63.76 2878.36,-60.8 2868.56,-56.77 2868.19,-63.76"/>
</g>
<!-- Node16 -->
<g id="node16" class="node">
<title>Node16</title>
<g id="a_node16"><a xlink:href="_ini_8cpp.html" target="_top" xlink:title=" ">
<polygon fill="white" stroke="#666666" points="2390,-19 2265,-19 2265,0 2390,0 2390,-19"/>
<text text-anchor="middle" x="2327.5" y="-7" font-family="Helvetica,sans-Serif" font-size="10.00">source/Helpers/Ini.cpp</text>
</a>
</g>
</g>
<!-- Node1&#45;&gt;Node16 -->
<g id="edge15" class="edge">
<title>Node1&#45;&gt;Node16</title>
<path fill="none" stroke="#63b8ff" d="M2868.17,-59.01C2768.74,-51.69 2568.15,-36.25 2398.5,-19 2395.78,-18.72 2393.01,-18.43 2390.21,-18.13"/>
<polygon fill="#63b8ff" stroke="#63b8ff" points="2868.11,-62.52 2878.34,-59.76 2868.62,-55.53 2868.11,-62.52"/>
</g>
<!-- Node17 -->
<g id="node17" class="node">
<title>Node17</title>
<g id="a_node17"><a xlink:href="_math_8cpp.html" target="_top" xlink:title=" ">
<polygon fill="white" stroke="#666666" points="2545,-19 2408,-19 2408,0 2545,0 2545,-19"/>
<text text-anchor="middle" x="2476.5" y="-7" font-family="Helvetica,sans-Serif" font-size="10.00">source/Helpers/Math.cpp</text>
</a>
</g>
</g>
<!-- Node1&#45;&gt;Node17 -->
<g id="edge16" class="edge">
<title>Node1&#45;&gt;Node17</title>
<path fill="none" stroke="#63b8ff" d="M2868.45,-56.26C2783.96,-46.39 2633.18,-28.79 2545.31,-18.53"/>
<polygon fill="#63b8ff" stroke="#63b8ff" points="2868.08,-59.74 2878.42,-57.42 2868.89,-52.78 2868.08,-59.74"/>
</g>
<!-- Node18 -->
<g id="node18" class="node">
<title>Node18</title>
<g id="a_node18"><a xlink:href="_message_8cpp.html" target="_top" xlink:title=" ">
<polygon fill="white" stroke="#666666" points="2719.5,-19 2563.5,-19 2563.5,0 2719.5,0 2719.5,-19"/>
<text text-anchor="middle" x="2641.5" y="-7" font-family="Helvetica,sans-Serif" font-size="10.00">source/Helpers/Message.cpp</text>
</a>
</g>
</g>
<!-- Node1&#45;&gt;Node18 -->
<g id="edge17" class="edge">
<title>Node1&#45;&gt;Node18</title>
<path fill="none" stroke="#63b8ff" d="M2873.94,-53.13C2819.76,-43.19 2738.96,-28.37 2688.3,-19.08"/>
<polygon fill="#63b8ff" stroke="#63b8ff" points="2873.6,-56.62 2884.07,-54.98 2874.86,-49.74 2873.6,-56.62"/>
</g>
<!-- Node19 -->
<g id="node19" class="node">
<title>Node19</title>
<g id="a_node19"><a xlink:href="_pilot_personalities_8cpp.html" target="_top" xlink:title=" ">
<polygon fill="white" stroke="#666666" points="2935,-19 2738,-19 2738,0 2935,0 2935,-19"/>
<text text-anchor="middle" x="2836.5" y="-7" font-family="Helvetica,sans-Serif" font-size="10.00">source/Helpers/PilotPersonalities.cpp</text>
</a>
</g>
</g>
<!-- Node1&#45;&gt;Node19 -->
<g id="edge18" class="edge">
<title>Node1&#45;&gt;Node19</title>
<path fill="none" stroke="#63b8ff" d="M2906.5,-49.97C2889.31,-40.28 2866.69,-27.52 2851.88,-19.17"/>
<polygon fill="#63b8ff" stroke="#63b8ff" points="2904.97,-53.12 2915.4,-54.98 2908.41,-47.02 2904.97,-53.12"/>
</g>
<!-- Node20 -->
<g id="node20" class="node">
<title>Node20</title>
<g id="a_node20"><a xlink:href="_player_8cpp.html" target="_top" xlink:title=" ">
<polygon fill="white" stroke="#666666" points="3096,-19 2953,-19 2953,0 3096,0 3096,-19"/>
<text text-anchor="middle" x="3024.5" y="-7" font-family="Helvetica,sans-Serif" font-size="10.00">source/Helpers/Player.cpp</text>
</a>
</g>
</g>
<!-- Node1&#45;&gt;Node20 -->
<g id="edge19" class="edge">
<title>Node1&#45;&gt;Node20</title>
<path fill="none" stroke="#63b8ff" d="M2954.5,-49.97C2971.69,-40.28 2994.31,-27.52 3009.12,-19.17"/>
<polygon fill="#63b8ff" stroke="#63b8ff" points="2952.59,-47.02 2945.6,-54.98 2956.03,-53.12 2952.59,-47.02"/>
</g>
<!-- Node21 -->
<g id="node21" class="node">
<title>Node21</title>
<g id="a_node21"><a xlink:href="_solar_8cpp.html" target="_top" xlink:title=" ">
<polygon fill="white" stroke="#666666" points="3251,-19 3114,-19 3114,0 3251,0 3251,-19"/>
<text text-anchor="middle" x="3182.5" y="-7" font-family="Helvetica,sans-Serif" font-size="10.00">source/Helpers/Solar.cpp</text>
</a>
</g>
</g>
<!-- Node1&#45;&gt;Node21 -->
<g id="edge20" class="edge">
<title>Node1&#45;&gt;Node21</title>
<path fill="none" stroke="#63b8ff" d="M2981,-52.88C3028.24,-42.94 3097.89,-28.3 3141.69,-19.08"/>
<polygon fill="#63b8ff" stroke="#63b8ff" points="2980.05,-49.5 2970.99,-54.98 2981.49,-56.35 2980.05,-49.5"/>
</g>
<!-- Node22 -->
<g id="node22" class="node">
<title>Node22</title>
<g id="a_node22"><a xlink:href="_time_8cpp.html" target="_top" xlink:title=" ">
<polygon fill="white" stroke="#666666" points="3406,-19 3269,-19 3269,0 3406,0 3406,-19"/>
<text text-anchor="middle" x="3337.5" y="-7" font-family="Helvetica,sans-Serif" font-size="10.00">source/Helpers/Time.cpp</text>
</a>
</g>
</g>
<!-- Node1&#45;&gt;Node22 -->
<g id="edge21" class="edge">
<title>Node1&#45;&gt;Node22</title>
<path fill="none" stroke="#63b8ff" d="M2993.2,-55.33C3068.85,-45.48 3195.43,-29 3272.22,-19"/>
<polygon fill="#63b8ff" stroke="#63b8ff" points="2992.34,-51.92 2982.87,-56.68 2993.24,-58.86 2992.34,-51.92"/>
</g>
<!-- Node23 -->
<g id="node23" class="node">
<title>Node23</title>
<g id="a_node23"><a xlink:href="_zone_utilities_8cpp.html" target="_top" xlink:title=" ">
<polygon fill="white" stroke="#666666" points="3600.5,-19 3424.5,-19 3424.5,0 3600.5,0 3600.5,-19"/>
<text text-anchor="middle" x="3512.5" y="-7" font-family="Helvetica,sans-Serif" font-size="10.00">source/Helpers/ZoneUtilities.cpp</text>
</a>
</g>
</g>
<!-- Node1&#45;&gt;Node23 -->
<g id="edge22" class="edge">
<title>Node1&#45;&gt;Node23</title>
<path fill="none" stroke="#63b8ff" d="M2992.68,-57.84C3096.49,-48.38 3305.44,-29.36 3424.38,-18.52"/>
<polygon fill="#63b8ff" stroke="#63b8ff" points="2992.3,-54.36 2982.66,-58.75 2992.94,-61.33 2992.3,-54.36"/>
</g>
<!-- Node24 -->
<g id="node24" class="node">
<title>Node24</title>
<g id="a_node24"><a xlink:href="_hk_client_server_interface_8cpp.html" target="_top" xlink:title=" ">
<polygon fill="white" stroke="#666666" points="3808,-19 3619,-19 3619,0 3808,0 3808,-19"/>
<text text-anchor="middle" x="3713.5" y="-7" font-family="Helvetica,sans-Serif" font-size="10.00">source/HkClientServerInterface.cpp</text>
</a>
</g>
</g>
<!-- Node1&#45;&gt;Node24 -->
<g id="edge23" class="edge">
<title>Node1&#45;&gt;Node24</title>
<path fill="none" stroke="#63b8ff" d="M2992.99,-59.74C3112.68,-52.47 3382.54,-35.71 3609.5,-19 3612.57,-18.77 3615.69,-18.54 3618.85,-18.3"/>
<polygon fill="#63b8ff" stroke="#63b8ff" points="2992.68,-56.25 2982.91,-60.35 2993.11,-63.24 2992.68,-56.25"/>
</g>
<!-- Node25 -->
<g id="node25" class="node">
<title>Node25</title>
<g id="a_node25"><a xlink:href="_hk_data_base_market_8cpp.html" target="_top" xlink:title=" ">
<polygon fill="white" stroke="#666666" points="3993,-19 3826,-19 3826,0 3993,0 3993,-19"/>
<text text-anchor="middle" x="3909.5" y="-7" font-family="Helvetica,sans-Serif" font-size="10.00">source/HkDataBaseMarket.cpp</text>
</a>
</g>
</g>
<!-- Node1&#45;&gt;Node25 -->
<g id="edge24" class="edge">
<title>Node1&#45;&gt;Node25</title>
<path fill="none" stroke="#63b8ff" d="M2992.56,-61.28C3137.23,-55.92 3508.1,-41.04 3817.5,-19 3820.22,-18.81 3822.98,-18.6 3825.78,-18.39"/>
<polygon fill="#63b8ff" stroke="#63b8ff" points="2992.4,-57.79 2982.53,-61.65 2992.66,-64.78 2992.4,-57.79"/>
</g>
<!-- Node26 -->
<g id="node26" class="node">
<title>Node26</title>
<g id="a_node26"><a xlink:href="_hk_i_chat_server_8cpp.html" target="_top" xlink:title=" ">
<polygon fill="white" stroke="#666666" points="4153.5,-19 4011.5,-19 4011.5,0 4153.5,0 4153.5,-19"/>
<text text-anchor="middle" x="4082.5" y="-7" font-family="Helvetica,sans-Serif" font-size="10.00">source/HkIChatServer.cpp</text>
</a>
</g>
</g>
<!-- Node1&#45;&gt;Node26 -->
<g id="edge25" class="edge">
<title>Node1&#45;&gt;Node26</title>
<path fill="none" stroke="#63b8ff" d="M2993.17,-62.31C3158.43,-58.86 3619.64,-47.26 4002.5,-19 4005.43,-18.78 4008.41,-18.55 4011.42,-18.29"/>
<polygon fill="#63b8ff" stroke="#63b8ff" points="2992.64,-58.82 2982.72,-62.52 2992.79,-65.82 2992.64,-58.82"/>
</g>
<!-- Node27 -->
<g id="node27" class="node">
<title>Node27</title>
<g id="a_node27"><a xlink:href="_hk_i_engine_8cpp.html" target="_top" xlink:title=" ">
<polygon fill="white" stroke="#666666" points="4293.5,-19 4171.5,-19 4171.5,0 4293.5,0 4293.5,-19"/>
<text text-anchor="middle" x="4232.5" y="-7" font-family="Helvetica,sans-Serif" font-size="10.00">source/HkIEngine.cpp</text>
</a>
</g>
</g>
<!-- Node1&#45;&gt;Node27 -->
<g id="edge26" class="edge">
<title>Node1&#45;&gt;Node27</title>
<path fill="none" stroke="#63b8ff" d="M2992.65,-63.11C3173.47,-61.59 3714.85,-54.2 4162.5,-19 4165.43,-18.77 4168.42,-18.51 4171.45,-18.22"/>
<polygon fill="#63b8ff" stroke="#63b8ff" points="2992.5,-59.62 2982.53,-63.2 2992.56,-66.62 2992.5,-59.62"/>
</g>
<!-- Node28 -->
<g id="node28" class="node">
<title>Node28</title>
<g id="a_node28"><a xlink:href="_hk_i_engine_damage_8cpp.html" target="_top" xlink:title=" ">
<polygon fill="white" stroke="#666666" points="4475,-19 4312,-19 4312,0 4475,0 4475,-19"/>
<text text-anchor="middle" x="4393.5" y="-7" font-family="Helvetica,sans-Serif" font-size="10.00">source/HkIEngineDamage.cpp</text>
</a>
</g>
</g>
<!-- Node1&#45;&gt;Node28 -->
<g id="edge27" class="edge">
<title>Node1&#45;&gt;Node28</title>
<path fill="none" stroke="#63b8ff" d="M2992.58,-62.83C3186.39,-60.44 3797.48,-50.75 4302.5,-19 4305.51,-18.81 4308.57,-18.6 4311.67,-18.38"/>
<polygon fill="#63b8ff" stroke="#63b8ff" points="2992.53,-59.33 2982.58,-62.95 2992.62,-66.33 2992.53,-59.33"/>
</g>
<!-- Node29 -->
<g id="node29" class="node">
<title>Node29</title>
<g id="a_node29"><a xlink:href="_hk_i_engine_death_8cpp.html" target="_top" xlink:title=" ">
<polygon fill="white" stroke="#666666" points="4644,-19 4493,-19 4493,0 4644,0 4644,-19"/>
<text text-anchor="middle" x="4568.5" y="-7" font-family="Helvetica,sans-Serif" font-size="10.00">source/HkIEngineDeath.cpp</text>
</a>
</g>
</g>
<!-- Node1&#45;&gt;Node29 -->
<g id="edge28" class="edge">
<title>Node1&#45;&gt;Node29</title>
<path fill="none" stroke="#63b8ff" d="M2992.77,-63.33C3202.95,-62.41 3905.44,-56.54 4484.5,-19 4487.28,-18.82 4490.11,-18.62 4492.97,-18.4"/>
<polygon fill="#63b8ff" stroke="#63b8ff" points="2992.53,-59.83 2982.55,-63.37 2992.56,-66.83 2992.53,-59.83"/>
</g>
<!-- Node30 -->
<g id="node30" class="node">
<title>Node30</title>
<g id="a_node30"><a xlink:href="_hk_i_engine_disconnect_8cpp.html" target="_top" xlink:title=" ">
<polygon fill="white" stroke="#666666" points="4838.5,-19 4662.5,-19 4662.5,0 4838.5,0 4838.5,-19"/>
<text text-anchor="middle" x="4750.5" y="-7" font-family="Helvetica,sans-Serif" font-size="10.00">source/HkIEngineDisconnect.cpp</text>
</a>
</g>
</g>
<!-- Node1&#45;&gt;Node30 -->
<g id="edge29" class="edge">
<title>Node1&#45;&gt;Node30</title>
<path fill="none" stroke="#63b8ff" d="M2992.97,-63.28C3217.56,-62.17 4005.04,-55.75 4653.5,-19 4656.45,-18.83 4659.46,-18.65 4662.49,-18.45"/>
<polygon fill="#63b8ff" stroke="#63b8ff" points="2992.69,-59.78 2982.71,-63.32 2992.72,-66.78 2992.69,-59.78"/>
</g>
<!-- Node31 -->
<g id="node31" class="node">
<title>Node31</title>
<g id="a_node31"><a xlink:href="_hk_init_8cpp.html" target="_top" xlink:title=" ">
<polygon fill="white" stroke="#666666" points="4958,-19 4857,-19 4857,0 4958,0 4958,-19"/>
<text text-anchor="middle" x="4907.5" y="-7" font-family="Helvetica,sans-Serif" font-size="10.00">source/HkInit.cpp</text>
</a>
</g>
</g>
<!-- Node1&#45;&gt;Node31 -->
<g id="edge30" class="edge">
<title>Node1&#45;&gt;Node31</title>
<path fill="none" stroke="#63b8ff" d="M2993.13,-63.04C3280.53,-60.76 4474.91,-49.61 4847.5,-19 4850.54,-18.75 4853.66,-18.45 4856.81,-18.11"/>
<polygon fill="#63b8ff" stroke="#63b8ff" points="2992.87,-59.54 2982.9,-63.12 2992.92,-66.54 2992.87,-59.54"/>
</g>
<!-- Node32 -->
<g id="node32" class="node">
<title>Node32</title>
<g id="a_node32"><a xlink:href="_settings_8cpp.html" target="_top" xlink:title=" ">
<polygon fill="white" stroke="#666666" points="5088.5,-19 4976.5,-19 4976.5,0 5088.5,0 5088.5,-19"/>
<text text-anchor="middle" x="5032.5" y="-7" font-family="Helvetica,sans-Serif" font-size="10.00">source/Settings.cpp</text>
</a>
</g>
</g>
<!-- Node1&#45;&gt;Node32 -->
<g id="edge31" class="edge">
<title>Node1&#45;&gt;Node32</title>
<path fill="none" stroke="#63b8ff" d="M2993.12,-63.05C3291.35,-60.75 4569.69,-49.27 4967.5,-19 4970.34,-18.78 4973.24,-18.53 4976.17,-18.25"/>
<polygon fill="#63b8ff" stroke="#63b8ff" points="2992.9,-59.55 2982.93,-63.12 2992.95,-66.55 2992.9,-59.55"/>
</g>
<!-- Node33 -->
<g id="node33" class="node">
<title>Node33</title>
<g id="a_node33"><a xlink:href="_tools_8cpp.html" target="_top" xlink:title=" ">
<polygon fill="white" stroke="#666666" points="5204,-19 5107,-19 5107,0 5204,0 5204,-19"/>
<text text-anchor="middle" x="5155.5" y="-7" font-family="Helvetica,sans-Serif" font-size="10.00">source/Tools.cpp</text>
</a>
</g>
</g>
<!-- Node1&#45;&gt;Node33 -->
<g id="edge32" class="edge">
<title>Node1&#45;&gt;Node33</title>
<path fill="none" stroke="#63b8ff" d="M2993.06,-63.27C3302.65,-61.98 4672.72,-54.35 5097.5,-19 5100.54,-18.75 5103.67,-18.44 5106.82,-18.09"/>
<polygon fill="#63b8ff" stroke="#63b8ff" points="2992.91,-59.77 2982.93,-63.31 2992.94,-66.77 2992.91,-59.77"/>
</g>
<!-- Node34 -->
<g id="node34" class="node">
<title>Node34</title>
<g id="a_node34"><a xlink:href="_console_8cpp.html" target="_top" xlink:title=" ">
<polygon fill="white" stroke="#666666" points="5361,-19 5222,-19 5222,0 5361,0 5361,-19"/>
<text text-anchor="middle" x="5291.5" y="-7" font-family="Helvetica,sans-Serif" font-size="10.00">source/Tools/Console.cpp</text>
</a>
</g>
</g>
<!-- Node1&#45;&gt;Node34 -->
<g id="edge33" class="edge">
<title>Node1&#45;&gt;Node34</title>
<path fill="none" stroke="#63b8ff" d="M2993.22,-63.03C3312.97,-60.54 4763.89,-47.82 5213.5,-19 5216.22,-18.83 5218.99,-18.63 5221.79,-18.41"/>
<polygon fill="#63b8ff" stroke="#63b8ff" points="2992.74,-59.54 2982.77,-63.11 2992.8,-66.54 2992.74,-59.54"/>
</g>
<!-- Node35 -->
<g id="node35" class="node">
<title>Node35</title>
<g id="a_node35"><a xlink:href="_generate_certificate_8cpp.html" target="_top" xlink:title=" ">
<polygon fill="white" stroke="#666666" points="5574,-19 5379,-19 5379,0 5574,0 5574,-19"/>
<text text-anchor="middle" x="5476.5" y="-7" font-family="Helvetica,sans-Serif" font-size="10.00">source/Tools/GenerateCertificate.cpp</text>
</a>
</g>
</g>
<!-- Node1&#45;&gt;Node35 -->
<g id="edge34" class="edge">
<title>Node1&#45;&gt;Node35</title>
<path fill="none" stroke="#63b8ff" d="M2993.22,-63.78C3271.83,-64.73 4425.23,-65.48 5370.5,-19 5373.27,-18.86 5376.07,-18.71 5378.9,-18.55"/>
<polygon fill="#63b8ff" stroke="#63b8ff" points="2992.92,-60.28 2982.91,-63.74 2992.9,-67.28 2992.92,-60.28"/>
</g>
<!-- Node36 -->
<g id="node36" class="node">
<title>Node36</title>
<g id="a_node36"><a xlink:href="_mqtt_8cpp.html" target="_top" xlink:title=" ">
<polygon fill="white" stroke="#666666" points="5714.5,-19 5592.5,-19 5592.5,0 5714.5,0 5714.5,-19"/>
<text text-anchor="middle" x="5653.5" y="-7" font-family="Helvetica,sans-Serif" font-size="10.00">source/Tools/Mqtt.cpp</text>
</a>
</g>
</g>
<!-- Node1&#45;&gt;Node36 -->
<g id="edge35" class="edge">
<title>Node1&#45;&gt;Node36</title>
<path fill="none" stroke="#63b8ff" d="M2992.7,-63.34C3341.34,-62.29 5056.02,-55.35 5583.5,-19 5586.43,-18.8 5589.43,-18.56 5592.45,-18.29"/>
<polygon fill="#63b8ff" stroke="#63b8ff" points="2992.54,-59.84 2982.55,-63.37 2992.56,-66.84 2992.54,-59.84"/>
</g>
<!-- Node37 -->
<g id="node37" class="node">
<title>Node37</title>
<g id="a_node37"><a xlink:href="flcodec_8cpp.html" target="_top" xlink:title=" ">
<polygon fill="white" stroke="#666666" points="5840,-19 5733,-19 5733,0 5840,0 5840,-19"/>
<text text-anchor="middle" x="5786.5" y="-7" font-family="Helvetica,sans-Serif" font-size="10.00">source/flcodec.cpp</text>
</a>
</g>
</g>
<!-- Node1&#45;&gt;Node37 -->
<g id="edge36" class="edge">
<title>Node1&#45;&gt;Node37</title>
<path fill="none" stroke="#63b8ff" d="M2992.79,-63.51C3352.44,-63.42 5166.81,-60.84 5723.5,-19 5726.58,-18.77 5729.74,-18.49 5732.93,-18.17"/>
<polygon fill="#63b8ff" stroke="#63b8ff" points="2992.57,-60.01 2982.57,-63.51 2992.57,-67.01 2992.57,-60.01"/>
</g>
</g>
</svg>
