<?xml version="1.0" encoding="UTF-8" standalone="no"?>
<!DOCTYPE svg PUBLIC "-//W3C//DTD SVG 1.1//EN"
 "http://www.w3.org/Graphics/SVG/1.1/DTD/svg11.dtd">
<!-- Generated by graphviz version 2.43.0 (0)
 -->
<!-- Title: source/HkInit.cpp Pages: 1 -->
<svg width="161pt" height="137pt"
 viewBox="0.00 0.00 160.50 137.00" xmlns="http://www.w3.org/2000/svg" xmlns:xlink="http://www.w3.org/1999/xlink">
<g id="graph0" class="graph" transform="scale(1 1) rotate(0) translate(4 133)">
<title>source/HkInit.cpp</title>
<!-- Node1 -->
<g id="node1" class="node">
<title>Node1</title>
<g id="a_node1"><a xlink:title=" ">
<polygon fill="#999999" stroke="#666666" points="129.5,-129 28.5,-129 28.5,-110 129.5,-110 129.5,-129"/>
<text text-anchor="middle" x="79" y="-117" font-family="Helvetica,sans-Serif" font-size="10.00">source/HkInit.cpp</text>
</a>
</g>
</g>
<!-- Node2 -->
<g id="node2" class="node">
<title>Node2</title>
<g id="a_node2"><a xlink:href="_global_8hpp.html" target="_top" xlink:title=" ">
<polygon fill="white" stroke="#666666" points="71.5,-74 2.5,-74 2.5,-55 71.5,-55 71.5,-74"/>
<text text-anchor="middle" x="37" y="-62" font-family="Helvetica,sans-Serif" font-size="10.00">Global.hpp</text>
</a>
</g>
</g>
<!-- Node1&#45;&gt;Node2 -->
<g id="edge1" class="edge">
<title>Node1&#45;&gt;Node2</title>
<path fill="none" stroke="#63b8ff" d="M72.06,-109.75C66.13,-102.26 57.43,-91.28 50.18,-82.13"/>
<polygon fill="#63b8ff" stroke="#63b8ff" points="52.76,-79.75 43.81,-74.09 47.27,-84.1 52.76,-79.75"/>
</g>
<!-- Node4 -->
<g id="node4" class="node">
<title>Node4</title>
<g id="a_node4"><a xlink:title=" ">
<polygon fill="#e0e0e0" stroke="#999999" points="152.5,-74 89.5,-74 89.5,-55 152.5,-55 152.5,-74"/>
<text text-anchor="middle" x="121" y="-62" font-family="Helvetica,sans-Serif" font-size="10.00">process.h</text>
</a>
</g>
</g>
<!-- Node1&#45;&gt;Node4 -->
<g id="edge3" class="edge">
<title>Node1&#45;&gt;Node4</title>
<path fill="none" stroke="#63b8ff" d="M85.94,-109.75C91.87,-102.26 100.57,-91.28 107.82,-82.13"/>
<polygon fill="#63b8ff" stroke="#63b8ff" points="110.73,-84.1 114.19,-74.09 105.24,-79.75 110.73,-84.1"/>
</g>
<!-- Node3 -->
<g id="node3" class="node">
<title>Node3</title>
<g id="a_node3"><a xlink:title=" ">
<polygon fill="#e0e0e0" stroke="#999999" points="74,-19 0,-19 0,0 74,0 74,-19"/>
<text text-anchor="middle" x="37" y="-7" font-family="Helvetica,sans-Serif" font-size="10.00">FLHook.hpp</text>
</a>
</g>
</g>
<!-- Node2&#45;&gt;Node3 -->
<g id="edge2" class="edge">
<title>Node2&#45;&gt;Node3</title>
<path fill="none" stroke="#63b8ff" d="M37,-54.75C37,-47.8 37,-37.85 37,-29.13"/>
<polygon fill="#63b8ff" stroke="#63b8ff" points="40.5,-29.09 37,-19.09 33.5,-29.09 40.5,-29.09"/>
</g>
</g>
</svg>
