<?xml version="1.0" encoding="UTF-8" standalone="no"?>
<!DOCTYPE svg PUBLIC "-//W3C//DTD SVG 1.1//EN"
 "http://www.w3.org/Graphics/SVG/1.1/DTD/svg11.dtd">
<!-- Generated by graphviz version 2.43.0 (0)
 -->
<!-- Title: source/HkFuncPlayers.cpp Pages: 1 -->
<svg width="1834pt" height="252pt"
 viewBox="0.00 0.00 1833.94 252.00" xmlns="http://www.w3.org/2000/svg" xmlns:xlink="http://www.w3.org/1999/xlink">
<g id="graph0" class="graph" transform="scale(1 1) rotate(0) translate(4 248)">
<title>source/HkFuncPlayers.cpp</title>
<!-- Node1 -->
<g id="node1" class="node">
<title>Node1</title>
<g id="a_node1"><a xlink:title=" ">
<polygon fill="#bfbfbf" stroke="black" points="1662.5,-224.5 1662.5,-243.5 1806.5,-243.5 1806.5,-224.5 1662.5,-224.5"/>
<text text-anchor="middle" x="1734.5" y="-231.5" font-family="Helvetica,sans-Serif" font-size="10.00">source/HkFuncPlayers.cpp</text>
</a>
</g>
</g>
<!-- Node2 -->
<g id="node2" class="node">
<title>Node2</title>
<g id="a_node2"><a xlink:href="_hook_8h.html" target="_top" xlink:title=" ">
<polygon fill="none" stroke="black" points="1602.5,-168.5 1602.5,-187.5 1652.5,-187.5 1652.5,-168.5 1602.5,-168.5"/>
<text text-anchor="middle" x="1627.5" y="-175.5" font-family="Helvetica,sans-Serif" font-size="10.00">hook.h</text>
</a>
</g>
</g>
<!-- Node1&#45;&gt;Node2 -->
<g id="edge1" class="edge">
<title>Node1&#45;&gt;Node2</title>
<path fill="none" stroke="midnightblue" d="M1717.31,-224.32C1700.15,-215.66 1673.55,-202.24 1653.75,-192.25"/>
<polygon fill="midnightblue" stroke="midnightblue" points="1655.15,-189.04 1644.65,-187.65 1652,-195.28 1655.15,-189.04"/>
</g>
<!-- Node24 -->
<g id="node24" class="node">
<title>Node24</title>
<g id="a_node24"><a xlink:title=" ">
<polygon fill="none" stroke="#bfbfbf" points="1716,-0.5 1716,-19.5 1771,-19.5 1771,-0.5 1716,-0.5"/>
<text text-anchor="middle" x="1743.5" y="-7.5" font-family="Helvetica,sans-Serif" font-size="10.00">fstream</text>
</a>
</g>
</g>
<!-- Node1&#45;&gt;Node24 -->
<g id="edge32" class="edge">
<title>Node1&#45;&gt;Node24</title>
<path fill="none" stroke="midnightblue" d="M1746.26,-224.33C1766.47,-208.6 1807.08,-173.16 1822.5,-132 1838.29,-89.84 1793.13,-47.34 1764.71,-25.68"/>
<polygon fill="midnightblue" stroke="midnightblue" points="1766.64,-22.76 1756.51,-19.66 1762.49,-28.4 1766.64,-22.76"/>
</g>
<!-- Node3 -->
<g id="node3" class="node">
<title>Node3</title>
<g id="a_node3"><a xlink:href="global_8h.html" target="_top" xlink:title=" ">
<polygon fill="none" stroke="black" points="677.5,-112.5 677.5,-131.5 733.5,-131.5 733.5,-112.5 677.5,-112.5"/>
<text text-anchor="middle" x="705.5" y="-119.5" font-family="Helvetica,sans-Serif" font-size="10.00">global.h</text>
</a>
</g>
</g>
<!-- Node2&#45;&gt;Node3 -->
<g id="edge2" class="edge">
<title>Node2&#45;&gt;Node3</title>
<path fill="none" stroke="midnightblue" d="M1602.36,-175.53C1474.82,-168.06 899.36,-134.35 744.17,-125.26"/>
<polygon fill="midnightblue" stroke="midnightblue" points="743.92,-121.74 733.73,-124.65 743.51,-128.73 743.92,-121.74"/>
</g>
<!-- Node17 -->
<g id="node17" class="node">
<title>Node17</title>
<g id="a_node17"><a xlink:title=" ">
<polygon fill="none" stroke="#bfbfbf" points="1556,-56.5 1556,-75.5 1607,-75.5 1607,-56.5 1556,-56.5"/>
<text text-anchor="middle" x="1581.5" y="-63.5" font-family="Helvetica,sans-Serif" font-size="10.00">variant</text>
</a>
</g>
</g>
<!-- Node2&#45;&gt;Node17 -->
<g id="edge30" class="edge">
<title>Node2&#45;&gt;Node17</title>
<path fill="none" stroke="midnightblue" d="M1602.38,-176.68C1571.18,-174.77 1519.08,-166.27 1494.5,-132 1477,-107.6 1514.94,-88.4 1546.12,-77.38"/>
<polygon fill="midnightblue" stroke="midnightblue" points="1547.56,-80.59 1555.93,-74.09 1545.33,-73.95 1547.56,-80.59"/>
</g>
<!-- Node27 -->
<g id="node27" class="node">
<title>Node27</title>
<g id="a_node27"><a xlink:href="flcodec_8h.html" target="_top" xlink:title=" ">
<polygon fill="none" stroke="black" points="1503.5,-112.5 1503.5,-131.5 1563.5,-131.5 1563.5,-112.5 1503.5,-112.5"/>
<text text-anchor="middle" x="1533.5" y="-119.5" font-family="Helvetica,sans-Serif" font-size="10.00">flcodec.h</text>
</a>
</g>
</g>
<!-- Node2&#45;&gt;Node27 -->
<g id="edge26" class="edge">
<title>Node2&#45;&gt;Node27</title>
<path fill="none" stroke="midnightblue" d="M1612.4,-168.32C1597.6,-159.82 1574.81,-146.73 1557.52,-136.8"/>
<polygon fill="midnightblue" stroke="midnightblue" points="1558.98,-133.6 1548.57,-131.65 1555.49,-139.67 1558.98,-133.6"/>
</g>
<!-- Node29 -->
<g id="node29" class="node">
<title>Node29</title>
<g id="a_node29"><a xlink:title=" ">
<polygon fill="none" stroke="#bfbfbf" points="1582,-112.5 1582,-131.5 1673,-131.5 1673,-112.5 1582,-112.5"/>
<text text-anchor="middle" x="1627.5" y="-119.5" font-family="Helvetica,sans-Serif" font-size="10.00">spdlog/logger.h</text>
</a>
</g>
</g>
<!-- Node2&#45;&gt;Node29 -->
<g id="edge28" class="edge">
<title>Node2&#45;&gt;Node29</title>
<path fill="none" stroke="midnightblue" d="M1627.5,-168.08C1627.5,-161.01 1627.5,-150.86 1627.5,-141.99"/>
<polygon fill="midnightblue" stroke="midnightblue" points="1631,-141.75 1627.5,-131.75 1624,-141.75 1631,-141.75"/>
</g>
<!-- Node30 -->
<g id="node30" class="node">
<title>Node30</title>
<g id="a_node30"><a xlink:title=" ">
<polygon fill="none" stroke="#bfbfbf" points="1691.5,-112.5 1691.5,-131.5 1739.5,-131.5 1739.5,-112.5 1691.5,-112.5"/>
<text text-anchor="middle" x="1715.5" y="-119.5" font-family="Helvetica,sans-Serif" font-size="10.00">time.h</text>
</a>
</g>
</g>
<!-- Node2&#45;&gt;Node30 -->
<g id="edge29" class="edge">
<title>Node2&#45;&gt;Node30</title>
<path fill="none" stroke="midnightblue" d="M1641.64,-168.32C1655.37,-159.9 1676.44,-146.97 1692.56,-137.07"/>
<polygon fill="midnightblue" stroke="midnightblue" points="1694.7,-139.87 1701.4,-131.65 1691.04,-133.9 1694.7,-139.87"/>
</g>
<!-- Node31 -->
<g id="node31" class="node">
<title>Node31</title>
<g id="a_node31"><a xlink:title=" ">
<polygon fill="none" stroke="#bfbfbf" points="1757.5,-112.5 1757.5,-131.5 1813.5,-131.5 1813.5,-112.5 1757.5,-112.5"/>
<text text-anchor="middle" x="1785.5" y="-119.5" font-family="Helvetica,sans-Serif" font-size="10.00">plugin.h</text>
</a>
</g>
</g>
<!-- Node2&#45;&gt;Node31 -->
<g id="edge31" class="edge">
<title>Node2&#45;&gt;Node31</title>
<path fill="none" stroke="midnightblue" d="M1652.54,-168.44C1679.12,-159.36 1721.31,-144.94 1751.02,-134.78"/>
<polygon fill="midnightblue" stroke="midnightblue" points="1752.25,-138.06 1760.58,-131.52 1749.99,-131.44 1752.25,-138.06"/>
</g>
<!-- Node4 -->
<g id="node4" class="node">
<title>Node4</title>
<g id="a_node4"><a xlink:href="_singleton_8h.html" target="_top" xlink:title=" ">
<polygon fill="none" stroke="black" points="0,-56.5 0,-75.5 71,-75.5 71,-56.5 0,-56.5"/>
<text text-anchor="middle" x="35.5" y="-63.5" font-family="Helvetica,sans-Serif" font-size="10.00">Singleton.h</text>
</a>
</g>
</g>
<!-- Node3&#45;&gt;Node4 -->
<g id="edge3" class="edge">
<title>Node3&#45;&gt;Node4</title>
<path fill="none" stroke="midnightblue" d="M677.34,-120.23C590.25,-117.59 317.46,-107.33 81.44,-75.95"/>
<polygon fill="midnightblue" stroke="midnightblue" points="81.67,-72.44 71.29,-74.58 80.74,-79.38 81.67,-72.44"/>
</g>
<!-- Node6 -->
<g id="node6" class="node">
<title>Node6</title>
<g id="a_node6"><a xlink:href="blowfish_8h.html" target="_top" xlink:title=" ">
<polygon fill="none" stroke="black" points="89.5,-56.5 89.5,-75.5 155.5,-75.5 155.5,-56.5 89.5,-56.5"/>
<text text-anchor="middle" x="122.5" y="-63.5" font-family="Helvetica,sans-Serif" font-size="10.00">blowfish.h</text>
</a>
</g>
</g>
<!-- Node3&#45;&gt;Node6 -->
<g id="edge5" class="edge">
<title>Node3&#45;&gt;Node6</title>
<path fill="none" stroke="midnightblue" d="M677.48,-119.94C598.53,-116.67 367.43,-105.28 166.07,-76.06"/>
<polygon fill="midnightblue" stroke="midnightblue" points="166.3,-72.55 155.9,-74.56 165.28,-79.48 166.3,-72.55"/>
</g>
<!-- Node7 -->
<g id="node7" class="node">
<title>Node7</title>
<g id="a_node7"><a xlink:title=" ">
<polygon fill="none" stroke="#bfbfbf" points="173.5,-56.5 173.5,-75.5 237.5,-75.5 237.5,-56.5 173.5,-56.5"/>
<text text-anchor="middle" x="205.5" y="-63.5" font-family="Helvetica,sans-Serif" font-size="10.00">algorithm</text>
</a>
</g>
</g>
<!-- Node3&#45;&gt;Node7 -->
<g id="edge6" class="edge">
<title>Node3&#45;&gt;Node7</title>
<path fill="none" stroke="midnightblue" d="M677.41,-119.41C606.84,-115.16 416.27,-102.17 247.71,-76.02"/>
<polygon fill="midnightblue" stroke="midnightblue" points="248.08,-72.53 237.66,-74.44 247,-79.45 248.08,-72.53"/>
</g>
<!-- Node8 -->
<g id="node8" class="node">
<title>Node8</title>
<g id="a_node8"><a xlink:title=" ">
<polygon fill="none" stroke="#bfbfbf" points="255.5,-56.5 255.5,-75.5 297.5,-75.5 297.5,-56.5 255.5,-56.5"/>
<text text-anchor="middle" x="276.5" y="-63.5" font-family="Helvetica,sans-Serif" font-size="10.00">array</text>
</a>
</g>
</g>
<!-- Node3&#45;&gt;Node8 -->
<g id="edge7" class="edge">
<title>Node3&#45;&gt;Node8</title>
<path fill="none" stroke="midnightblue" d="M677.17,-119.55C612.93,-115.9 451.25,-104.62 307.56,-75.88"/>
<polygon fill="midnightblue" stroke="midnightblue" points="308.18,-72.43 297.69,-73.87 306.79,-79.29 308.18,-72.43"/>
</g>
<!-- Node9 -->
<g id="node9" class="node">
<title>Node9</title>
<g id="a_node9"><a xlink:title=" ">
<polygon fill="none" stroke="#bfbfbf" points="315.5,-56.5 315.5,-75.5 383.5,-75.5 383.5,-56.5 315.5,-56.5"/>
<text text-anchor="middle" x="349.5" y="-63.5" font-family="Helvetica,sans-Serif" font-size="10.00">filesystem</text>
</a>
</g>
</g>
<!-- Node3&#45;&gt;Node9 -->
<g id="edge8" class="edge">
<title>Node3&#45;&gt;Node9</title>
<path fill="none" stroke="midnightblue" d="M677.35,-117.56C624.02,-110.92 504.4,-95.39 393.72,-76.12"/>
<polygon fill="midnightblue" stroke="midnightblue" points="394.18,-72.65 383.73,-74.37 392.97,-79.55 394.18,-72.65"/>
</g>
<!-- Node10 -->
<g id="node10" class="node">
<title>Node10</title>
<g id="a_node10"><a xlink:title=" ">
<polygon fill="none" stroke="#bfbfbf" points="402,-56.5 402,-75.5 467,-75.5 467,-56.5 402,-56.5"/>
<text text-anchor="middle" x="434.5" y="-63.5" font-family="Helvetica,sans-Serif" font-size="10.00">functional</text>
</a>
</g>
</g>
<!-- Node3&#45;&gt;Node10 -->
<g id="edge9" class="edge">
<title>Node3&#45;&gt;Node10</title>
<path fill="none" stroke="midnightblue" d="M677.27,-115.61C635.78,-107.66 555.66,-92.17 477.11,-76.1"/>
<polygon fill="midnightblue" stroke="midnightblue" points="477.55,-72.61 467.05,-74.03 476.14,-79.47 477.55,-72.61"/>
</g>
<!-- Node11 -->
<g id="node11" class="node">
<title>Node11</title>
<g id="a_node11"><a xlink:title=" ">
<polygon fill="none" stroke="#bfbfbf" points="485.5,-56.5 485.5,-75.5 517.5,-75.5 517.5,-56.5 485.5,-56.5"/>
<text text-anchor="middle" x="501.5" y="-63.5" font-family="Helvetica,sans-Serif" font-size="10.00">list</text>
</a>
</g>
</g>
<!-- Node3&#45;&gt;Node11 -->
<g id="edge10" class="edge">
<title>Node3&#45;&gt;Node11</title>
<path fill="none" stroke="midnightblue" d="M677.36,-114.84C643.77,-107.28 585.75,-93.61 527.32,-76.02"/>
<polygon fill="midnightblue" stroke="midnightblue" points="528.15,-72.61 517.56,-73.05 526.1,-79.31 528.15,-72.61"/>
</g>
<!-- Node12 -->
<g id="node12" class="node">
<title>Node12</title>
<g id="a_node12"><a xlink:title=" ">
<polygon fill="none" stroke="#bfbfbf" points="535.5,-56.5 535.5,-75.5 573.5,-75.5 573.5,-56.5 535.5,-56.5"/>
<text text-anchor="middle" x="554.5" y="-63.5" font-family="Helvetica,sans-Serif" font-size="10.00">map</text>
</a>
</g>
</g>
<!-- Node3&#45;&gt;Node12 -->
<g id="edge11" class="edge">
<title>Node3&#45;&gt;Node12</title>
<path fill="none" stroke="midnightblue" d="M681.57,-112.44C654.91,-102.91 611.81,-87.49 583.31,-77.3"/>
<polygon fill="midnightblue" stroke="midnightblue" points="584.13,-73.88 573.53,-73.81 581.77,-80.47 584.13,-73.88"/>
</g>
<!-- Node13 -->
<g id="node13" class="node">
<title>Node13</title>
<g id="a_node13"><a xlink:title=" ">
<polygon fill="none" stroke="#bfbfbf" points="591.5,-56.5 591.5,-75.5 623.5,-75.5 623.5,-56.5 591.5,-56.5"/>
<text text-anchor="middle" x="607.5" y="-63.5" font-family="Helvetica,sans-Serif" font-size="10.00">set</text>
</a>
</g>
</g>
<!-- Node3&#45;&gt;Node13 -->
<g id="edge12" class="edge">
<title>Node3&#45;&gt;Node13</title>
<path fill="none" stroke="midnightblue" d="M689.75,-112.32C674.18,-103.74 650.12,-90.49 632.04,-80.52"/>
<polygon fill="midnightblue" stroke="midnightblue" points="633.65,-77.42 623.21,-75.65 630.28,-83.55 633.65,-77.42"/>
</g>
<!-- Node14 -->
<g id="node14" class="node">
<title>Node14</title>
<g id="a_node14"><a xlink:title=" ">
<polygon fill="none" stroke="#bfbfbf" points="641.5,-56.5 641.5,-75.5 697.5,-75.5 697.5,-56.5 641.5,-56.5"/>
<text text-anchor="middle" x="669.5" y="-63.5" font-family="Helvetica,sans-Serif" font-size="10.00">sstream</text>
</a>
</g>
</g>
<!-- Node3&#45;&gt;Node14 -->
<g id="edge13" class="edge">
<title>Node3&#45;&gt;Node14</title>
<path fill="none" stroke="midnightblue" d="M699.56,-112.08C694.52,-104.53 687.16,-93.49 680.99,-84.23"/>
<polygon fill="midnightblue" stroke="midnightblue" points="683.79,-82.13 675.33,-75.75 677.97,-86.01 683.79,-82.13"/>
</g>
<!-- Node15 -->
<g id="node15" class="node">
<title>Node15</title>
<g id="a_node15"><a xlink:title=" ">
<polygon fill="none" stroke="#bfbfbf" points="715.5,-56.5 715.5,-75.5 765.5,-75.5 765.5,-56.5 715.5,-56.5"/>
<text text-anchor="middle" x="740.5" y="-63.5" font-family="Helvetica,sans-Serif" font-size="10.00">stdio.h</text>
</a>
</g>
</g>
<!-- Node3&#45;&gt;Node15 -->
<g id="edge14" class="edge">
<title>Node3&#45;&gt;Node15</title>
<path fill="none" stroke="midnightblue" d="M711.28,-112.08C716.17,-104.53 723.33,-93.49 729.33,-84.23"/>
<polygon fill="midnightblue" stroke="midnightblue" points="732.33,-86.05 734.83,-75.75 726.45,-82.24 732.33,-86.05"/>
</g>
<!-- Node16 -->
<g id="node16" class="node">
<title>Node16</title>
<g id="a_node16"><a xlink:title=" ">
<polygon fill="none" stroke="#bfbfbf" points="783.5,-56.5 783.5,-75.5 827.5,-75.5 827.5,-56.5 783.5,-56.5"/>
<text text-anchor="middle" x="805.5" y="-63.5" font-family="Helvetica,sans-Serif" font-size="10.00">string</text>
</a>
</g>
</g>
<!-- Node3&#45;&gt;Node16 -->
<g id="edge15" class="edge">
<title>Node3&#45;&gt;Node16</title>
<path fill="none" stroke="midnightblue" d="M721.57,-112.32C737.46,-103.74 762.01,-90.49 780.46,-80.52"/>
<polygon fill="midnightblue" stroke="midnightblue" points="782.34,-83.49 789.47,-75.65 779.01,-77.33 782.34,-83.49"/>
</g>
<!-- Node3&#45;&gt;Node17 -->
<g id="edge16" class="edge">
<title>Node3&#45;&gt;Node17</title>
<path fill="none" stroke="midnightblue" d="M733.62,-120.24C858.55,-116.78 1364.67,-101.51 1545.47,-75.77"/>
<polygon fill="midnightblue" stroke="midnightblue" points="1546.25,-79.2 1555.62,-74.26 1545.22,-72.27 1546.25,-79.2"/>
</g>
<!-- Node18 -->
<g id="node18" class="node">
<title>Node18</title>
<g id="a_node18"><a xlink:title=" ">
<polygon fill="none" stroke="#bfbfbf" points="845.5,-56.5 845.5,-75.5 913.5,-75.5 913.5,-56.5 845.5,-56.5"/>
<text text-anchor="middle" x="879.5" y="-63.5" font-family="Helvetica,sans-Serif" font-size="10.00">windows.h</text>
</a>
</g>
</g>
<!-- Node3&#45;&gt;Node18 -->
<g id="edge17" class="edge">
<title>Node3&#45;&gt;Node18</title>
<path fill="none" stroke="midnightblue" d="M733.07,-112.44C762.6,-103.28 809.62,-88.69 842.38,-78.52"/>
<polygon fill="midnightblue" stroke="midnightblue" points="843.54,-81.82 852.06,-75.52 841.47,-75.14 843.54,-81.82"/>
</g>
<!-- Node19 -->
<g id="node19" class="node">
<title>Node19</title>
<g id="a_node19"><a xlink:title=" ">
<polygon fill="none" stroke="#bfbfbf" points="931.5,-56.5 931.5,-75.5 1035.5,-75.5 1035.5,-56.5 931.5,-56.5"/>
<text text-anchor="middle" x="983.5" y="-63.5" font-family="Helvetica,sans-Serif" font-size="10.00">FLCoreCommon.h</text>
</a>
</g>
</g>
<!-- Node3&#45;&gt;Node19 -->
<g id="edge18" class="edge">
<title>Node3&#45;&gt;Node19</title>
<path fill="none" stroke="midnightblue" d="M733.69,-115.53C779.49,-106.63 870.84,-88.88 929.47,-77.49"/>
<polygon fill="midnightblue" stroke="midnightblue" points="930.15,-80.93 939.3,-75.59 928.82,-74.06 930.15,-80.93"/>
</g>
<!-- Node20 -->
<g id="node20" class="node">
<title>Node20</title>
<g id="a_node20"><a xlink:title=" ">
<polygon fill="none" stroke="#bfbfbf" points="1053.5,-56.5 1053.5,-75.5 1141.5,-75.5 1141.5,-56.5 1053.5,-56.5"/>
<text text-anchor="middle" x="1097.5" y="-63.5" font-family="Helvetica,sans-Serif" font-size="10.00">FLCoreDALib.h</text>
</a>
</g>
</g>
<!-- Node3&#45;&gt;Node20 -->
<g id="edge19" class="edge">
<title>Node3&#45;&gt;Node20</title>
<path fill="none" stroke="midnightblue" d="M733.68,-117.61C790.26,-110.73 921.98,-94.33 1043.09,-76.17"/>
<polygon fill="midnightblue" stroke="midnightblue" points="1043.91,-79.59 1053.27,-74.63 1042.86,-72.66 1043.91,-79.59"/>
</g>
<!-- Node21 -->
<g id="node21" class="node">
<title>Node21</title>
<g id="a_node21"><a xlink:title=" ">
<polygon fill="none" stroke="#bfbfbf" points="1159.5,-56.5 1159.5,-75.5 1285.5,-75.5 1285.5,-56.5 1159.5,-56.5"/>
<text text-anchor="middle" x="1222.5" y="-63.5" font-family="Helvetica,sans-Serif" font-size="10.00">FLCoreRemoteClient.h</text>
</a>
</g>
</g>
<!-- Node3&#45;&gt;Node21 -->
<g id="edge20" class="edge">
<title>Node3&#45;&gt;Node21</title>
<path fill="none" stroke="midnightblue" d="M733.64,-118.39C802.53,-111.94 985.39,-94.53 1149.04,-76.14"/>
<polygon fill="midnightblue" stroke="midnightblue" points="1149.75,-79.58 1159.29,-74.99 1148.96,-72.63 1149.75,-79.58"/>
</g>
<!-- Node22 -->
<g id="node22" class="node">
<title>Node22</title>
<g id="a_node22"><a xlink:title=" ">
<polygon fill="none" stroke="#bfbfbf" points="1303.5,-56.5 1303.5,-75.5 1393.5,-75.5 1393.5,-56.5 1303.5,-56.5"/>
<text text-anchor="middle" x="1348.5" y="-63.5" font-family="Helvetica,sans-Serif" font-size="10.00">FLCoreServer.h</text>
</a>
</g>
</g>
<!-- Node3&#45;&gt;Node22 -->
<g id="edge21" class="edge">
<title>Node3&#45;&gt;Node22</title>
<path fill="none" stroke="midnightblue" d="M733.79,-119.73C817.56,-115.79 1071.83,-102.47 1293.28,-76.04"/>
<polygon fill="midnightblue" stroke="midnightblue" points="1293.95,-79.49 1303.46,-74.81 1293.12,-72.54 1293.95,-79.49"/>
</g>
<!-- Node23 -->
<g id="node23" class="node">
<title>Node23</title>
<g id="a_node23"><a xlink:href="_serialization_8hpp.html" target="_top" xlink:title=" ">
<polygon fill="none" stroke="black" points="1411.5,-56.5 1411.5,-75.5 1537.5,-75.5 1537.5,-56.5 1411.5,-56.5"/>
<text text-anchor="middle" x="1474.5" y="-63.5" font-family="Helvetica,sans-Serif" font-size="10.00">Tools/Serialization.hpp</text>
</a>
</g>
</g>
<!-- Node3&#45;&gt;Node23 -->
<g id="edge22" class="edge">
<title>Node3&#45;&gt;Node23</title>
<path fill="none" stroke="midnightblue" d="M733.77,-119.78C827.27,-115.63 1135.3,-100.93 1401.08,-76.08"/>
<polygon fill="midnightblue" stroke="midnightblue" points="1401.68,-79.54 1411.31,-75.12 1401.02,-72.57 1401.68,-79.54"/>
</g>
<!-- Node5 -->
<g id="node5" class="node">
<title>Node5</title>
<g id="a_node5"><a xlink:title=" ">
<polygon fill="none" stroke="#bfbfbf" points="6.5,-0.5 6.5,-19.5 64.5,-19.5 64.5,-0.5 6.5,-0.5"/>
<text text-anchor="middle" x="35.5" y="-7.5" font-family="Helvetica,sans-Serif" font-size="10.00">memory</text>
</a>
</g>
</g>
<!-- Node4&#45;&gt;Node5 -->
<g id="edge4" class="edge">
<title>Node4&#45;&gt;Node5</title>
<path fill="none" stroke="midnightblue" d="M35.5,-56.08C35.5,-49.01 35.5,-38.86 35.5,-29.99"/>
<polygon fill="midnightblue" stroke="midnightblue" points="39,-29.75 35.5,-19.75 32,-29.75 39,-29.75"/>
</g>
<!-- Node23&#45;&gt;Node24 -->
<g id="edge23" class="edge">
<title>Node23&#45;&gt;Node24</title>
<path fill="none" stroke="midnightblue" d="M1517.12,-56.44C1569.13,-46 1656.23,-28.52 1705.86,-18.56"/>
<polygon fill="midnightblue" stroke="midnightblue" points="1706.74,-21.95 1715.86,-16.55 1705.37,-15.09 1706.74,-21.95"/>
</g>
<!-- Node25 -->
<g id="node25" class="node">
<title>Node25</title>
<g id="a_node25"><a xlink:title=" ">
<polygon fill="none" stroke="#bfbfbf" points="1369.5,-0.5 1369.5,-19.5 1479.5,-19.5 1479.5,-0.5 1369.5,-0.5"/>
<text text-anchor="middle" x="1424.5" y="-7.5" font-family="Helvetica,sans-Serif" font-size="10.00">nlohmann/json.hpp</text>
</a>
</g>
</g>
<!-- Node23&#45;&gt;Node25 -->
<g id="edge24" class="edge">
<title>Node23&#45;&gt;Node25</title>
<path fill="none" stroke="midnightblue" d="M1466.24,-56.08C1459.04,-48.3 1448.39,-36.8 1439.65,-27.37"/>
<polygon fill="midnightblue" stroke="midnightblue" points="1441.97,-24.71 1432.6,-19.75 1436.83,-29.47 1441.97,-24.71"/>
</g>
<!-- Node26 -->
<g id="node26" class="node">
<title>Node26</title>
<g id="a_node26"><a xlink:title=" ">
<polygon fill="none" stroke="#bfbfbf" points="1498,-0.5 1498,-19.5 1551,-19.5 1551,-0.5 1498,-0.5"/>
<text text-anchor="middle" x="1524.5" y="-7.5" font-family="Helvetica,sans-Serif" font-size="10.00">refl.hpp</text>
</a>
</g>
</g>
<!-- Node23&#45;&gt;Node26 -->
<g id="edge25" class="edge">
<title>Node23&#45;&gt;Node26</title>
<path fill="none" stroke="midnightblue" d="M1482.76,-56.08C1489.96,-48.3 1500.61,-36.8 1509.35,-27.37"/>
<polygon fill="midnightblue" stroke="midnightblue" points="1512.17,-29.47 1516.4,-19.75 1507.03,-24.71 1512.17,-29.47"/>
</g>
<!-- Node28 -->
<g id="node28" class="node">
<title>Node28</title>
<g id="a_node28"><a xlink:title=" ">
<polygon fill="none" stroke="#bfbfbf" points="1625.5,-56.5 1625.5,-75.5 1707.5,-75.5 1707.5,-56.5 1625.5,-56.5"/>
<text text-anchor="middle" x="1666.5" y="-63.5" font-family="Helvetica,sans-Serif" font-size="10.00">FLCoreDefs.h</text>
</a>
</g>
</g>
<!-- Node27&#45;&gt;Node28 -->
<g id="edge27" class="edge">
<title>Node27&#45;&gt;Node28</title>
<path fill="none" stroke="midnightblue" d="M1554.57,-112.44C1576.56,-103.52 1611.23,-89.44 1636.16,-79.32"/>
<polygon fill="midnightblue" stroke="midnightblue" points="1637.58,-82.52 1645.52,-75.52 1634.94,-76.04 1637.58,-82.52"/>
</g>
</g>
</svg>
