<?xml version="1.0" encoding="UTF-8" standalone="no"?>
<!DOCTYPE svg PUBLIC "-//W3C//DTD SVG 1.1//EN"
 "http://www.w3.org/Graphics/SVG/1.1/DTD/svg11.dtd">
<!-- Generated by graphviz version 2.43.0 (0)
 -->
<!-- Title: source/HkFLIni.cpp Pages: 1 -->
<svg width="1716pt" height="252pt"
 viewBox="0.00 0.00 1716.00 252.00" xmlns="http://www.w3.org/2000/svg" xmlns:xlink="http://www.w3.org/1999/xlink">
<g id="graph0" class="graph" transform="scale(1 1) rotate(0) translate(4 248)">
<title>source/HkFLIni.cpp</title>
<!-- Node1 -->
<g id="node1" class="node">
<title>Node1</title>
<g id="a_node1"><a xlink:title=" ">
<polygon fill="#bfbfbf" stroke="black" points="79.5,-224.5 79.5,-243.5 188.5,-243.5 188.5,-224.5 79.5,-224.5"/>
<text text-anchor="middle" x="134" y="-231.5" font-family="Helvetica,sans-Serif" font-size="10.00">source/HkFLIni.cpp</text>
</a>
</g>
</g>
<!-- Node2 -->
<g id="node2" class="node">
<title>Node2</title>
<g id="a_node2"><a xlink:href="_hook_8h.html" target="_top" xlink:title=" ">
<polygon fill="none" stroke="black" points="174.5,-168.5 174.5,-187.5 225.5,-187.5 225.5,-168.5 174.5,-168.5"/>
<text text-anchor="middle" x="200" y="-175.5" font-family="Helvetica,sans-Serif" font-size="10.00">Hook.h</text>
</a>
</g>
</g>
<!-- Node1&#45;&gt;Node2 -->
<g id="edge1" class="edge">
<title>Node1&#45;&gt;Node2</title>
<path fill="none" stroke="midnightblue" d="M144.6,-224.32C154.46,-216.26 169.35,-204.08 181.22,-194.37"/>
<polygon fill="midnightblue" stroke="midnightblue" points="183.68,-196.88 189.2,-187.83 179.25,-191.46 183.68,-196.88"/>
</g>
<!-- Node27 -->
<g id="node27" class="node">
<title>Node27</title>
<g id="a_node27"><a xlink:href="flcodec_8h.html" target="_top" xlink:title=" ">
<polygon fill="none" stroke="black" points="38,-112.5 38,-131.5 98,-131.5 98,-112.5 38,-112.5"/>
<text text-anchor="middle" x="68" y="-119.5" font-family="Helvetica,sans-Serif" font-size="10.00">flcodec.h</text>
</a>
</g>
</g>
<!-- Node1&#45;&gt;Node27 -->
<g id="edge32" class="edge">
<title>Node1&#45;&gt;Node27</title>
<path fill="none" stroke="midnightblue" d="M128.82,-224.37C117.98,-206.3 92.71,-164.18 78.38,-140.31"/>
<polygon fill="midnightblue" stroke="midnightblue" points="81.3,-138.37 73.15,-131.59 75.3,-141.97 81.3,-138.37"/>
</g>
<!-- Node3 -->
<g id="node3" class="node">
<title>Node3</title>
<g id="a_node3"><a xlink:href="global_8h.html" target="_top" xlink:title=" ">
<polygon fill="none" stroke="black" points="673,-112.5 673,-131.5 729,-131.5 729,-112.5 673,-112.5"/>
<text text-anchor="middle" x="701" y="-119.5" font-family="Helvetica,sans-Serif" font-size="10.00">global.h</text>
</a>
</g>
</g>
<!-- Node2&#45;&gt;Node3 -->
<g id="edge2" class="edge">
<title>Node2&#45;&gt;Node3</title>
<path fill="none" stroke="midnightblue" d="M225.53,-174.25C307.59,-165.4 564.88,-137.67 662.72,-127.13"/>
<polygon fill="midnightblue" stroke="midnightblue" points="663.2,-130.59 672.77,-126.04 662.45,-123.64 663.2,-130.59"/>
</g>
<!-- Node17 -->
<g id="node17" class="node">
<title>Node17</title>
<g id="a_node17"><a xlink:title=" ">
<polygon fill="none" stroke="#bfbfbf" points="100.5,-56.5 100.5,-75.5 151.5,-75.5 151.5,-56.5 100.5,-56.5"/>
<text text-anchor="middle" x="126" y="-63.5" font-family="Helvetica,sans-Serif" font-size="10.00">variant</text>
</a>
</g>
</g>
<!-- Node2&#45;&gt;Node17 -->
<g id="edge30" class="edge">
<title>Node2&#45;&gt;Node17</title>
<path fill="none" stroke="midnightblue" d="M185.27,-168.5C172.8,-160.57 155.35,-147.64 145,-132 135.77,-118.06 130.93,-99.55 128.46,-85.85"/>
<polygon fill="midnightblue" stroke="midnightblue" points="131.87,-85.03 126.88,-75.68 124.95,-86.1 131.87,-85.03"/>
</g>
<!-- Node2&#45;&gt;Node27 -->
<g id="edge26" class="edge">
<title>Node2&#45;&gt;Node27</title>
<path fill="none" stroke="midnightblue" d="M179.08,-168.44C157.26,-159.52 122.85,-145.44 98.11,-135.32"/>
<polygon fill="midnightblue" stroke="midnightblue" points="99.4,-132.06 88.82,-131.52 96.75,-138.54 99.4,-132.06"/>
</g>
<!-- Node29 -->
<g id="node29" class="node">
<title>Node29</title>
<g id="a_node29"><a xlink:title=" ">
<polygon fill="none" stroke="#bfbfbf" points="154.5,-112.5 154.5,-131.5 245.5,-131.5 245.5,-112.5 154.5,-112.5"/>
<text text-anchor="middle" x="200" y="-119.5" font-family="Helvetica,sans-Serif" font-size="10.00">spdlog/logger.h</text>
</a>
</g>
</g>
<!-- Node2&#45;&gt;Node29 -->
<g id="edge28" class="edge">
<title>Node2&#45;&gt;Node29</title>
<path fill="none" stroke="midnightblue" d="M200,-168.08C200,-161.01 200,-150.86 200,-141.99"/>
<polygon fill="midnightblue" stroke="midnightblue" points="203.5,-141.75 200,-131.75 196.5,-141.75 203.5,-141.75"/>
</g>
<!-- Node30 -->
<g id="node30" class="node">
<title>Node30</title>
<g id="a_node30"><a xlink:title=" ">
<polygon fill="none" stroke="#bfbfbf" points="264,-112.5 264,-131.5 312,-131.5 312,-112.5 264,-112.5"/>
<text text-anchor="middle" x="288" y="-119.5" font-family="Helvetica,sans-Serif" font-size="10.00">time.h</text>
</a>
</g>
</g>
<!-- Node2&#45;&gt;Node30 -->
<g id="edge29" class="edge">
<title>Node2&#45;&gt;Node30</title>
<path fill="none" stroke="midnightblue" d="M214.14,-168.32C227.87,-159.9 248.94,-146.97 265.06,-137.07"/>
<polygon fill="midnightblue" stroke="midnightblue" points="267.2,-139.87 273.9,-131.65 263.54,-133.9 267.2,-139.87"/>
</g>
<!-- Node31 -->
<g id="node31" class="node">
<title>Node31</title>
<g id="a_node31"><a xlink:title=" ">
<polygon fill="none" stroke="#bfbfbf" points="330,-112.5 330,-131.5 386,-131.5 386,-112.5 330,-112.5"/>
<text text-anchor="middle" x="358" y="-119.5" font-family="Helvetica,sans-Serif" font-size="10.00">plugin.h</text>
</a>
</g>
</g>
<!-- Node2&#45;&gt;Node31 -->
<g id="edge31" class="edge">
<title>Node2&#45;&gt;Node31</title>
<path fill="none" stroke="midnightblue" d="M225.04,-168.44C251.62,-159.36 293.81,-144.94 323.52,-134.78"/>
<polygon fill="midnightblue" stroke="midnightblue" points="324.75,-138.06 333.08,-131.52 322.49,-131.44 324.75,-138.06"/>
</g>
<!-- Node4 -->
<g id="node4" class="node">
<title>Node4</title>
<g id="a_node4"><a xlink:href="_singleton_8h.html" target="_top" xlink:title=" ">
<polygon fill="none" stroke="black" points="1552.5,-56.5 1552.5,-75.5 1623.5,-75.5 1623.5,-56.5 1552.5,-56.5"/>
<text text-anchor="middle" x="1588" y="-63.5" font-family="Helvetica,sans-Serif" font-size="10.00">Singleton.h</text>
</a>
</g>
</g>
<!-- Node3&#45;&gt;Node4 -->
<g id="edge3" class="edge">
<title>Node3&#45;&gt;Node4</title>
<path fill="none" stroke="midnightblue" d="M729.11,-120.96C834.66,-120.52 1217.33,-116.14 1542.14,-75.9"/>
<polygon fill="midnightblue" stroke="midnightblue" points="1542.73,-79.36 1552.21,-74.64 1541.86,-72.41 1542.73,-79.36"/>
</g>
<!-- Node6 -->
<g id="node6" class="node">
<title>Node6</title>
<g id="a_node6"><a xlink:href="blowfish_8h.html" target="_top" xlink:title=" ">
<polygon fill="none" stroke="black" points="1642,-56.5 1642,-75.5 1708,-75.5 1708,-56.5 1642,-56.5"/>
<text text-anchor="middle" x="1675" y="-63.5" font-family="Helvetica,sans-Serif" font-size="10.00">blowfish.h</text>
</a>
</g>
</g>
<!-- Node3&#45;&gt;Node6 -->
<g id="edge5" class="edge">
<title>Node3&#45;&gt;Node6</title>
<path fill="none" stroke="midnightblue" d="M729.36,-121.31C842.27,-122.19 1270.75,-122.19 1631.5,-75.98"/>
<polygon fill="midnightblue" stroke="midnightblue" points="1632.15,-79.42 1641.61,-74.67 1631.25,-72.48 1632.15,-79.42"/>
</g>
<!-- Node7 -->
<g id="node7" class="node">
<title>Node7</title>
<g id="a_node7"><a xlink:title=" ">
<polygon fill="none" stroke="#bfbfbf" points="170,-56.5 170,-75.5 234,-75.5 234,-56.5 170,-56.5"/>
<text text-anchor="middle" x="202" y="-63.5" font-family="Helvetica,sans-Serif" font-size="10.00">algorithm</text>
</a>
</g>
</g>
<!-- Node3&#45;&gt;Node7 -->
<g id="edge6" class="edge">
<title>Node3&#45;&gt;Node7</title>
<path fill="none" stroke="midnightblue" d="M672.97,-119.4C602.55,-115.15 412.4,-102.13 244.19,-76.01"/>
<polygon fill="midnightblue" stroke="midnightblue" points="244.58,-72.53 234.16,-74.44 243.5,-79.45 244.58,-72.53"/>
</g>
<!-- Node8 -->
<g id="node8" class="node">
<title>Node8</title>
<g id="a_node8"><a xlink:title=" ">
<polygon fill="none" stroke="#bfbfbf" points="252,-56.5 252,-75.5 294,-75.5 294,-56.5 252,-56.5"/>
<text text-anchor="middle" x="273" y="-63.5" font-family="Helvetica,sans-Serif" font-size="10.00">array</text>
</a>
</g>
</g>
<!-- Node3&#45;&gt;Node8 -->
<g id="edge7" class="edge">
<title>Node3&#45;&gt;Node8</title>
<path fill="none" stroke="midnightblue" d="M672.74,-119.54C608.66,-115.88 447.39,-104.57 304.04,-75.87"/>
<polygon fill="midnightblue" stroke="midnightblue" points="304.68,-72.43 294.19,-73.87 303.29,-79.29 304.68,-72.43"/>
</g>
<!-- Node9 -->
<g id="node9" class="node">
<title>Node9</title>
<g id="a_node9"><a xlink:title=" ">
<polygon fill="none" stroke="#bfbfbf" points="312,-56.5 312,-75.5 380,-75.5 380,-56.5 312,-56.5"/>
<text text-anchor="middle" x="346" y="-63.5" font-family="Helvetica,sans-Serif" font-size="10.00">filesystem</text>
</a>
</g>
</g>
<!-- Node3&#45;&gt;Node9 -->
<g id="edge8" class="edge">
<title>Node3&#45;&gt;Node9</title>
<path fill="none" stroke="midnightblue" d="M672.94,-117.56C619.78,-110.9 500.54,-95.36 390.19,-76.12"/>
<polygon fill="midnightblue" stroke="midnightblue" points="390.68,-72.65 380.23,-74.37 389.47,-79.55 390.68,-72.65"/>
</g>
<!-- Node10 -->
<g id="node10" class="node">
<title>Node10</title>
<g id="a_node10"><a xlink:title=" ">
<polygon fill="none" stroke="#bfbfbf" points="398.5,-56.5 398.5,-75.5 463.5,-75.5 463.5,-56.5 398.5,-56.5"/>
<text text-anchor="middle" x="431" y="-63.5" font-family="Helvetica,sans-Serif" font-size="10.00">functional</text>
</a>
</g>
</g>
<!-- Node3&#45;&gt;Node10 -->
<g id="edge9" class="edge">
<title>Node3&#45;&gt;Node10</title>
<path fill="none" stroke="midnightblue" d="M672.89,-115.6C631.59,-107.64 551.82,-92.14 473.58,-76.09"/>
<polygon fill="midnightblue" stroke="midnightblue" points="474.05,-72.62 463.55,-74.03 472.64,-79.47 474.05,-72.62"/>
</g>
<!-- Node11 -->
<g id="node11" class="node">
<title>Node11</title>
<g id="a_node11"><a xlink:title=" ">
<polygon fill="none" stroke="#bfbfbf" points="482,-56.5 482,-75.5 514,-75.5 514,-56.5 482,-56.5"/>
<text text-anchor="middle" x="498" y="-63.5" font-family="Helvetica,sans-Serif" font-size="10.00">list</text>
</a>
</g>
</g>
<!-- Node3&#45;&gt;Node11 -->
<g id="edge10" class="edge">
<title>Node3&#45;&gt;Node11</title>
<path fill="none" stroke="midnightblue" d="M672.71,-114.75C639.26,-107.17 581.76,-93.52 523.75,-76"/>
<polygon fill="midnightblue" stroke="midnightblue" points="524.65,-72.62 514.06,-73.04 522.6,-79.31 524.65,-72.62"/>
</g>
<!-- Node12 -->
<g id="node12" class="node">
<title>Node12</title>
<g id="a_node12"><a xlink:title=" ">
<polygon fill="none" stroke="#bfbfbf" points="532,-56.5 532,-75.5 570,-75.5 570,-56.5 532,-56.5"/>
<text text-anchor="middle" x="551" y="-63.5" font-family="Helvetica,sans-Serif" font-size="10.00">map</text>
</a>
</g>
</g>
<!-- Node3&#45;&gt;Node12 -->
<g id="edge11" class="edge">
<title>Node3&#45;&gt;Node12</title>
<path fill="none" stroke="midnightblue" d="M677.23,-112.44C650.89,-102.96 608.4,-87.67 580.1,-77.47"/>
<polygon fill="midnightblue" stroke="midnightblue" points="580.96,-74.07 570.36,-73.97 578.59,-80.65 580.96,-74.07"/>
</g>
<!-- Node13 -->
<g id="node13" class="node">
<title>Node13</title>
<g id="a_node13"><a xlink:title=" ">
<polygon fill="none" stroke="#bfbfbf" points="588,-56.5 588,-75.5 620,-75.5 620,-56.5 588,-56.5"/>
<text text-anchor="middle" x="604" y="-63.5" font-family="Helvetica,sans-Serif" font-size="10.00">set</text>
</a>
</g>
</g>
<!-- Node3&#45;&gt;Node13 -->
<g id="edge12" class="edge">
<title>Node3&#45;&gt;Node13</title>
<path fill="none" stroke="midnightblue" d="M685.42,-112.32C670,-103.74 646.19,-90.49 628.29,-80.52"/>
<polygon fill="midnightblue" stroke="midnightblue" points="629.99,-77.46 619.55,-75.65 626.58,-83.58 629.99,-77.46"/>
</g>
<!-- Node14 -->
<g id="node14" class="node">
<title>Node14</title>
<g id="a_node14"><a xlink:title=" ">
<polygon fill="none" stroke="#bfbfbf" points="638,-56.5 638,-75.5 694,-75.5 694,-56.5 638,-56.5"/>
<text text-anchor="middle" x="666" y="-63.5" font-family="Helvetica,sans-Serif" font-size="10.00">sstream</text>
</a>
</g>
</g>
<!-- Node3&#45;&gt;Node14 -->
<g id="edge13" class="edge">
<title>Node3&#45;&gt;Node14</title>
<path fill="none" stroke="midnightblue" d="M695.22,-112.08C690.33,-104.53 683.17,-93.49 677.17,-84.23"/>
<polygon fill="midnightblue" stroke="midnightblue" points="680.05,-82.24 671.67,-75.75 674.17,-86.05 680.05,-82.24"/>
</g>
<!-- Node15 -->
<g id="node15" class="node">
<title>Node15</title>
<g id="a_node15"><a xlink:title=" ">
<polygon fill="none" stroke="#bfbfbf" points="712,-56.5 712,-75.5 762,-75.5 762,-56.5 712,-56.5"/>
<text text-anchor="middle" x="737" y="-63.5" font-family="Helvetica,sans-Serif" font-size="10.00">stdio.h</text>
</a>
</g>
</g>
<!-- Node3&#45;&gt;Node15 -->
<g id="edge14" class="edge">
<title>Node3&#45;&gt;Node15</title>
<path fill="none" stroke="midnightblue" d="M706.94,-112.08C711.98,-104.53 719.34,-93.49 725.51,-84.23"/>
<polygon fill="midnightblue" stroke="midnightblue" points="728.53,-86.01 731.17,-75.75 722.71,-82.13 728.53,-86.01"/>
</g>
<!-- Node16 -->
<g id="node16" class="node">
<title>Node16</title>
<g id="a_node16"><a xlink:title=" ">
<polygon fill="none" stroke="#bfbfbf" points="780,-56.5 780,-75.5 824,-75.5 824,-56.5 780,-56.5"/>
<text text-anchor="middle" x="802" y="-63.5" font-family="Helvetica,sans-Serif" font-size="10.00">string</text>
</a>
</g>
</g>
<!-- Node3&#45;&gt;Node16 -->
<g id="edge15" class="edge">
<title>Node3&#45;&gt;Node16</title>
<path fill="none" stroke="midnightblue" d="M717.23,-112.32C733.35,-103.7 758.3,-90.36 776.96,-80.39"/>
<polygon fill="midnightblue" stroke="midnightblue" points="778.64,-83.46 785.81,-75.65 775.34,-77.28 778.64,-83.46"/>
</g>
<!-- Node3&#45;&gt;Node17 -->
<g id="edge16" class="edge">
<title>Node3&#45;&gt;Node17</title>
<path fill="none" stroke="midnightblue" d="M672.97,-120.33C593.97,-118.08 362.71,-109.1 161.37,-75.75"/>
<polygon fill="midnightblue" stroke="midnightblue" points="161.95,-72.29 151.51,-74.09 160.79,-79.2 161.95,-72.29"/>
</g>
<!-- Node18 -->
<g id="node18" class="node">
<title>Node18</title>
<g id="a_node18"><a xlink:title=" ">
<polygon fill="none" stroke="#bfbfbf" points="842,-56.5 842,-75.5 910,-75.5 910,-56.5 842,-56.5"/>
<text text-anchor="middle" x="876" y="-63.5" font-family="Helvetica,sans-Serif" font-size="10.00">windows.h</text>
</a>
</g>
</g>
<!-- Node3&#45;&gt;Node18 -->
<g id="edge17" class="edge">
<title>Node3&#45;&gt;Node18</title>
<path fill="none" stroke="midnightblue" d="M728.73,-112.44C758.43,-103.28 805.72,-88.69 838.67,-78.52"/>
<polygon fill="midnightblue" stroke="midnightblue" points="839.88,-81.81 848.4,-75.52 837.81,-75.12 839.88,-81.81"/>
</g>
<!-- Node19 -->
<g id="node19" class="node">
<title>Node19</title>
<g id="a_node19"><a xlink:title=" ">
<polygon fill="none" stroke="#bfbfbf" points="928,-56.5 928,-75.5 1032,-75.5 1032,-56.5 928,-56.5"/>
<text text-anchor="middle" x="980" y="-63.5" font-family="Helvetica,sans-Serif" font-size="10.00">FLCoreCommon.h</text>
</a>
</g>
</g>
<!-- Node3&#45;&gt;Node19 -->
<g id="edge18" class="edge">
<title>Node3&#45;&gt;Node19</title>
<path fill="none" stroke="midnightblue" d="M729.03,-115.58C775.01,-106.68 867.23,-88.83 926.16,-77.42"/>
<polygon fill="midnightblue" stroke="midnightblue" points="926.89,-80.84 936.04,-75.51 925.56,-73.97 926.89,-80.84"/>
</g>
<!-- Node20 -->
<g id="node20" class="node">
<title>Node20</title>
<g id="a_node20"><a xlink:title=" ">
<polygon fill="none" stroke="#bfbfbf" points="1050,-56.5 1050,-75.5 1138,-75.5 1138,-56.5 1050,-56.5"/>
<text text-anchor="middle" x="1094" y="-63.5" font-family="Helvetica,sans-Serif" font-size="10.00">FLCoreDALib.h</text>
</a>
</g>
</g>
<!-- Node3&#45;&gt;Node20 -->
<g id="edge19" class="edge">
<title>Node3&#45;&gt;Node20</title>
<path fill="none" stroke="midnightblue" d="M729.26,-117.62C786.01,-110.74 918.12,-94.36 1039.56,-76.17"/>
<polygon fill="midnightblue" stroke="midnightblue" points="1040.41,-79.58 1049.77,-74.63 1039.36,-72.66 1040.41,-79.58"/>
</g>
<!-- Node21 -->
<g id="node21" class="node">
<title>Node21</title>
<g id="a_node21"><a xlink:title=" ">
<polygon fill="none" stroke="#bfbfbf" points="1156,-56.5 1156,-75.5 1282,-75.5 1282,-56.5 1156,-56.5"/>
<text text-anchor="middle" x="1219" y="-63.5" font-family="Helvetica,sans-Serif" font-size="10.00">FLCoreRemoteClient.h</text>
</a>
</g>
</g>
<!-- Node3&#45;&gt;Node21 -->
<g id="edge20" class="edge">
<title>Node3&#45;&gt;Node21</title>
<path fill="none" stroke="midnightblue" d="M729.2,-118.39C798.25,-111.95 981.52,-94.55 1145.52,-76.14"/>
<polygon fill="midnightblue" stroke="midnightblue" points="1146.25,-79.58 1155.79,-74.99 1145.47,-72.63 1146.25,-79.58"/>
</g>
<!-- Node22 -->
<g id="node22" class="node">
<title>Node22</title>
<g id="a_node22"><a xlink:title=" ">
<polygon fill="none" stroke="#bfbfbf" points="1300,-56.5 1300,-75.5 1390,-75.5 1390,-56.5 1300,-56.5"/>
<text text-anchor="middle" x="1345" y="-63.5" font-family="Helvetica,sans-Serif" font-size="10.00">FLCoreServer.h</text>
</a>
</g>
</g>
<!-- Node3&#45;&gt;Node22 -->
<g id="edge21" class="edge">
<title>Node3&#45;&gt;Node22</title>
<path fill="none" stroke="midnightblue" d="M729.03,-119.75C812.64,-115.83 1067.68,-102.53 1289.75,-76.04"/>
<polygon fill="midnightblue" stroke="midnightblue" points="1290.45,-79.49 1299.96,-74.81 1289.62,-72.54 1290.45,-79.49"/>
</g>
<!-- Node23 -->
<g id="node23" class="node">
<title>Node23</title>
<g id="a_node23"><a xlink:href="_serialization_8hpp.html" target="_top" xlink:title=" ">
<polygon fill="none" stroke="black" points="1408,-56.5 1408,-75.5 1534,-75.5 1534,-56.5 1408,-56.5"/>
<text text-anchor="middle" x="1471" y="-63.5" font-family="Helvetica,sans-Serif" font-size="10.00">Tools/Serialization.hpp</text>
</a>
</g>
</g>
<!-- Node3&#45;&gt;Node23 -->
<g id="edge22" class="edge">
<title>Node3&#45;&gt;Node23</title>
<path fill="none" stroke="midnightblue" d="M729.31,-119.79C822.95,-115.64 1131.42,-100.95 1397.56,-76.08"/>
<polygon fill="midnightblue" stroke="midnightblue" points="1398.18,-79.54 1407.81,-75.12 1397.52,-72.57 1398.18,-79.54"/>
</g>
<!-- Node5 -->
<g id="node5" class="node">
<title>Node5</title>
<g id="a_node5"><a xlink:title=" ">
<polygon fill="none" stroke="#bfbfbf" points="1587,-0.5 1587,-19.5 1645,-19.5 1645,-0.5 1587,-0.5"/>
<text text-anchor="middle" x="1616" y="-7.5" font-family="Helvetica,sans-Serif" font-size="10.00">memory</text>
</a>
</g>
</g>
<!-- Node4&#45;&gt;Node5 -->
<g id="edge4" class="edge">
<title>Node4&#45;&gt;Node5</title>
<path fill="none" stroke="midnightblue" d="M1592.62,-56.08C1596.46,-48.69 1602.02,-37.95 1606.76,-28.81"/>
<polygon fill="midnightblue" stroke="midnightblue" points="1609.97,-30.24 1611.46,-19.75 1603.75,-27.02 1609.97,-30.24"/>
</g>
<!-- Node24 -->
<g id="node24" class="node">
<title>Node24</title>
<g id="a_node24"><a xlink:title=" ">
<polygon fill="none" stroke="#bfbfbf" points="1313.5,-0.5 1313.5,-19.5 1368.5,-19.5 1368.5,-0.5 1313.5,-0.5"/>
<text text-anchor="middle" x="1341" y="-7.5" font-family="Helvetica,sans-Serif" font-size="10.00">fstream</text>
</a>
</g>
</g>
<!-- Node23&#45;&gt;Node24 -->
<g id="edge23" class="edge">
<title>Node23&#45;&gt;Node24</title>
<path fill="none" stroke="midnightblue" d="M1450.4,-56.44C1429.01,-47.56 1395.32,-33.56 1370.98,-23.45"/>
<polygon fill="midnightblue" stroke="midnightblue" points="1372.08,-20.12 1361.5,-19.52 1369.39,-26.58 1372.08,-20.12"/>
</g>
<!-- Node25 -->
<g id="node25" class="node">
<title>Node25</title>
<g id="a_node25"><a xlink:title=" ">
<polygon fill="none" stroke="#bfbfbf" points="1387,-0.5 1387,-19.5 1497,-19.5 1497,-0.5 1387,-0.5"/>
<text text-anchor="middle" x="1442" y="-7.5" font-family="Helvetica,sans-Serif" font-size="10.00">nlohmann/json.hpp</text>
</a>
</g>
</g>
<!-- Node23&#45;&gt;Node25 -->
<g id="edge24" class="edge">
<title>Node23&#45;&gt;Node25</title>
<path fill="none" stroke="midnightblue" d="M1466.21,-56.08C1462.24,-48.69 1456.47,-37.95 1451.57,-28.81"/>
<polygon fill="midnightblue" stroke="midnightblue" points="1454.51,-26.91 1446.7,-19.75 1448.35,-30.22 1454.51,-26.91"/>
</g>
<!-- Node26 -->
<g id="node26" class="node">
<title>Node26</title>
<g id="a_node26"><a xlink:title=" ">
<polygon fill="none" stroke="#bfbfbf" points="1515.5,-0.5 1515.5,-19.5 1568.5,-19.5 1568.5,-0.5 1515.5,-0.5"/>
<text text-anchor="middle" x="1542" y="-7.5" font-family="Helvetica,sans-Serif" font-size="10.00">refl.hpp</text>
</a>
</g>
</g>
<!-- Node23&#45;&gt;Node26 -->
<g id="edge25" class="edge">
<title>Node23&#45;&gt;Node26</title>
<path fill="none" stroke="midnightblue" d="M1482.41,-56.32C1493.11,-48.18 1509.34,-35.84 1522.16,-26.09"/>
<polygon fill="midnightblue" stroke="midnightblue" points="1524.54,-28.67 1530.39,-19.83 1520.31,-23.1 1524.54,-28.67"/>
</g>
<!-- Node28 -->
<g id="node28" class="node">
<title>Node28</title>
<g id="a_node28"><a xlink:title=" ">
<polygon fill="none" stroke="#bfbfbf" points="0,-56.5 0,-75.5 82,-75.5 82,-56.5 0,-56.5"/>
<text text-anchor="middle" x="41" y="-63.5" font-family="Helvetica,sans-Serif" font-size="10.00">FLCoreDefs.h</text>
</a>
</g>
</g>
<!-- Node27&#45;&gt;Node28 -->
<g id="edge27" class="edge">
<title>Node27&#45;&gt;Node28</title>
<path fill="none" stroke="midnightblue" d="M63.54,-112.08C59.85,-104.69 54.48,-93.95 49.91,-84.81"/>
<polygon fill="midnightblue" stroke="midnightblue" points="52.98,-83.13 45.38,-75.75 46.72,-86.26 52.98,-83.13"/>
</g>
</g>
</svg>
