<?xml version="1.0" encoding="UTF-8" standalone="no"?>
<!DOCTYPE svg PUBLIC "-//W3C//DTD SVG 1.1//EN"
 "http://www.w3.org/Graphics/SVG/1.1/DTD/svg11.dtd">
<!-- Generated by graphviz version 2.43.0 (0)
 -->
<!-- Title: source/Hook.h Pages: 1 -->
<svg width="4471pt" height="252pt"
 viewBox="0.00 0.00 4471.00 252.00" xmlns="http://www.w3.org/2000/svg" xmlns:xlink="http://www.w3.org/1999/xlink">
<g id="graph0" class="graph" transform="scale(1 1) rotate(0) translate(4 248)">
<title>source/Hook.h</title>
<!-- Node1 -->
<g id="node1" class="node">
<title>Node1</title>
<g id="a_node1"><a xlink:title=" ">
<polygon fill="#bfbfbf" stroke="black" points="2114.5,-224.5 2114.5,-243.5 2200.5,-243.5 2200.5,-224.5 2114.5,-224.5"/>
<text text-anchor="middle" x="2157.5" y="-231.5" font-family="Helvetica,sans-Serif" font-size="10.00">source/Hook.h</text>
</a>
</g>
</g>
<!-- Node2 -->
<g id="node2" class="node">
<title>Node2</title>
<g id="a_node2"><a xlink:href="_c_cmds_8h.html" target="_top" xlink:title=" ">
<polygon fill="none" stroke="black" points="395,-168.5 395,-187.5 490,-187.5 490,-168.5 395,-168.5"/>
<text text-anchor="middle" x="442.5" y="-175.5" font-family="Helvetica,sans-Serif" font-size="10.00">source/CCmds.h</text>
</a>
</g>
</g>
<!-- Node1&#45;&gt;Node2 -->
<g id="edge1" class="edge">
<title>Node1&#45;&gt;Node2</title>
<path fill="none" stroke="midnightblue" d="M2104.34,-231.54C1912.02,-226.24 1234.4,-207.28 675.5,-188 611.37,-185.79 537.34,-182.87 490.24,-180.96"/>
<polygon fill="midnightblue" stroke="midnightblue" points="2104.36,-235.05 2114.45,-231.82 2104.56,-228.05 2104.36,-235.05"/>
</g>
<!-- Node6 -->
<g id="node6" class="node">
<title>Node6</title>
<g id="a_node6"><a xlink:href="_f_l_hook_8cpp.html" target="_top" xlink:title=" ">
<polygon fill="none" stroke="black" points="0,-56.5 0,-75.5 109,-75.5 109,-56.5 0,-56.5"/>
<text text-anchor="middle" x="54.5" y="-63.5" font-family="Helvetica,sans-Serif" font-size="10.00">source/FLHook.cpp</text>
</a>
</g>
</g>
<!-- Node1&#45;&gt;Node6 -->
<g id="edge16" class="edge">
<title>Node1&#45;&gt;Node6</title>
<path fill="none" stroke="midnightblue" d="M2104.01,-232.74C1846.31,-231.32 731.25,-223.21 385.5,-188 245.34,-173.73 178.29,-226.16 73.5,-132 57.23,-117.38 54.57,-89.69 54.34,-75.64"/>
<polygon fill="midnightblue" stroke="midnightblue" points="2104.2,-236.24 2114.22,-232.8 2104.24,-229.24 2104.2,-236.24"/>
</g>
<!-- Node8 -->
<g id="node8" class="node">
<title>Node8</title>
<g id="a_node8"><a xlink:href="_c_in_game_8cpp.html" target="_top" xlink:title=" ">
<polygon fill="none" stroke="black" points="492,-56.5 492,-75.5 609,-75.5 609,-56.5 492,-56.5"/>
<text text-anchor="middle" x="550.5" y="-63.5" font-family="Helvetica,sans-Serif" font-size="10.00">source/CInGame.cpp</text>
</a>
</g>
</g>
<!-- Node1&#45;&gt;Node8 -->
<g id="edge14" class="edge">
<title>Node1&#45;&gt;Node8</title>
<path fill="none" stroke="midnightblue" d="M2104.38,-232.54C1860.45,-230.29 857.06,-219.14 798.5,-188 761.69,-168.42 778.22,-135.08 743.5,-112 703.53,-85.43 649.81,-74.45 609.2,-69.97"/>
<polygon fill="midnightblue" stroke="midnightblue" points="2104.38,-236.04 2114.42,-232.64 2104.45,-229.05 2104.38,-236.04"/>
</g>
<!-- Node9 -->
<g id="node9" class="node">
<title>Node9</title>
<g id="a_node9"><a xlink:href="_hk_i_server_impl_8inl.html" target="_top" xlink:title=" ">
<polygon fill="none" stroke="black" points="673,-56.5 673,-75.5 810,-75.5 810,-56.5 673,-56.5"/>
<text text-anchor="middle" x="741.5" y="-63.5" font-family="Helvetica,sans-Serif" font-size="10.00">source/HkIServerImpl.inl</text>
</a>
</g>
</g>
<!-- Node1&#45;&gt;Node9 -->
<g id="edge37" class="edge">
<title>Node1&#45;&gt;Node9</title>
<path fill="none" stroke="midnightblue" d="M2104.2,-232.59C1862.76,-230.55 880.85,-220.31 824.5,-188 789.84,-168.13 799.46,-144.7 776.5,-112 767.4,-99.04 756,-84.7 748.74,-75.77"/>
<polygon fill="midnightblue" stroke="midnightblue" points="2104.45,-236.09 2114.47,-232.67 2104.5,-229.09 2104.45,-236.09"/>
</g>
<!-- Node10 -->
<g id="node10" class="node">
<title>Node10</title>
<g id="a_node10"><a xlink:href="_hk_client_server_interface_8cpp.html" target="_top" xlink:title=" ">
<polygon fill="none" stroke="black" points="744,-0.5 744,-19.5 933,-19.5 933,-0.5 744,-0.5"/>
<text text-anchor="middle" x="838.5" y="-7.5" font-family="Helvetica,sans-Serif" font-size="10.00">source/HkClientServerInterface.cpp</text>
</a>
</g>
</g>
<!-- Node1&#45;&gt;Node10 -->
<g id="edge19" class="edge">
<title>Node1&#45;&gt;Node10</title>
<path fill="none" stroke="midnightblue" d="M2103.97,-232.6C1869.04,-230.68 938.64,-220.99 886.5,-188 828.39,-151.23 834.17,-50.5 837.39,-19.92"/>
<polygon fill="midnightblue" stroke="midnightblue" points="2104.27,-236.11 2114.3,-232.69 2104.33,-229.11 2104.27,-236.11"/>
</g>
<!-- Node13 -->
<g id="node13" class="node">
<title>Node13</title>
<g id="a_node13"><a xlink:href="_hk_plugin_manager_8cpp.html" target="_top" xlink:title=" ">
<polygon fill="none" stroke="black" points="576.5,-112.5 576.5,-131.5 734.5,-131.5 734.5,-112.5 576.5,-112.5"/>
<text text-anchor="middle" x="655.5" y="-119.5" font-family="Helvetica,sans-Serif" font-size="10.00">source/HkPluginManager.cpp</text>
</a>
</g>
</g>
<!-- Node1&#45;&gt;Node13 -->
<g id="edge39" class="edge">
<title>Node1&#45;&gt;Node13</title>
<path fill="none" stroke="midnightblue" d="M2104,-233.09C1862.33,-233.27 878.73,-231.29 748.5,-188 713.36,-176.32 679.68,-146.74 664.26,-131.85"/>
<polygon fill="midnightblue" stroke="midnightblue" points="2104.28,-236.59 2114.28,-233.08 2104.27,-229.59 2104.28,-236.59"/>
</g>
<!-- Node14 -->
<g id="node14" class="node">
<title>Node14</title>
<g id="a_node14"><a xlink:href="_exceptions_8cpp.html" target="_top" xlink:title=" ">
<polygon fill="none" stroke="black" points="905,-168.5 905,-187.5 1030,-187.5 1030,-168.5 905,-168.5"/>
<text text-anchor="middle" x="967.5" y="-175.5" font-family="Helvetica,sans-Serif" font-size="10.00">source/Exceptions.cpp</text>
</a>
</g>
</g>
<!-- Node1&#45;&gt;Node14 -->
<g id="edge15" class="edge">
<title>Node1&#45;&gt;Node14</title>
<path fill="none" stroke="midnightblue" d="M2104.14,-232.44C1943.15,-230.42 1448.21,-221.71 1039.5,-188 1036.49,-187.75 1033.41,-187.47 1030.3,-187.17"/>
<polygon fill="midnightblue" stroke="midnightblue" points="2104.21,-235.94 2114.25,-232.57 2104.3,-228.95 2104.21,-235.94"/>
</g>
<!-- Node15 -->
<g id="node15" class="node">
<title>Node15</title>
<g id="a_node15"><a xlink:href="_hk_cb_other_8cpp.html" target="_top" xlink:title=" ">
<polygon fill="none" stroke="black" points="1048,-168.5 1048,-187.5 1173,-187.5 1173,-168.5 1048,-168.5"/>
<text text-anchor="middle" x="1110.5" y="-175.5" font-family="Helvetica,sans-Serif" font-size="10.00">source/HkCbOther.cpp</text>
</a>
</g>
</g>
<!-- Node1&#45;&gt;Node15 -->
<g id="edge17" class="edge">
<title>Node1&#45;&gt;Node15</title>
<path fill="none" stroke="midnightblue" d="M2104.06,-232C1956.88,-228.93 1533.28,-217.97 1182.5,-188 1179.49,-187.74 1176.41,-187.45 1173.3,-187.14"/>
<polygon fill="midnightblue" stroke="midnightblue" points="2104.1,-235.5 2114.17,-232.21 2104.25,-228.5 2104.1,-235.5"/>
</g>
<!-- Node16 -->
<g id="node16" class="node">
<title>Node16</title>
<g id="a_node16"><a xlink:href="_hk_character_ini_8cpp.html" target="_top" xlink:title=" ">
<polygon fill="none" stroke="black" points="1191,-168.5 1191,-187.5 1336,-187.5 1336,-168.5 1191,-168.5"/>
<text text-anchor="middle" x="1263.5" y="-175.5" font-family="Helvetica,sans-Serif" font-size="10.00">source/HkCharacterIni.cpp</text>
</a>
</g>
</g>
<!-- Node1&#45;&gt;Node16 -->
<g id="edge18" class="edge">
<title>Node1&#45;&gt;Node16</title>
<path fill="none" stroke="midnightblue" d="M2104.23,-231.04C1974.37,-226.06 1631.15,-211.57 1345.5,-188 1342.5,-187.75 1339.45,-187.49 1336.36,-187.2"/>
<polygon fill="midnightblue" stroke="midnightblue" points="2104.18,-234.54 2114.31,-231.43 2104.45,-227.55 2104.18,-234.54"/>
</g>
<!-- Node17 -->
<g id="node17" class="node">
<title>Node17</title>
<g id="a_node17"><a xlink:href="_hk_data_base_market_8cpp.html" target="_top" xlink:title=" ">
<polygon fill="none" stroke="black" points="1354,-168.5 1354,-187.5 1521,-187.5 1521,-168.5 1354,-168.5"/>
<text text-anchor="middle" x="1437.5" y="-175.5" font-family="Helvetica,sans-Serif" font-size="10.00">source/HkDataBaseMarket.cpp</text>
</a>
</g>
</g>
<!-- Node1&#45;&gt;Node17 -->
<g id="edge20" class="edge">
<title>Node1&#45;&gt;Node17</title>
<path fill="none" stroke="midnightblue" d="M2104.13,-229.62C1995.88,-222.66 1742.78,-205.89 1530.5,-188 1527.43,-187.74 1524.3,-187.47 1521.14,-187.19"/>
<polygon fill="midnightblue" stroke="midnightblue" points="2103.94,-233.11 2114.14,-230.26 2104.39,-226.13 2103.94,-233.11"/>
</g>
<!-- Node18 -->
<g id="node18" class="node">
<title>Node18</title>
<g id="a_node18"><a xlink:href="_hk_error_8cpp.html" target="_top" xlink:title=" ">
<polygon fill="none" stroke="black" points="1539.5,-168.5 1539.5,-187.5 1647.5,-187.5 1647.5,-168.5 1539.5,-168.5"/>
<text text-anchor="middle" x="1593.5" y="-175.5" font-family="Helvetica,sans-Serif" font-size="10.00">source/HkError.cpp</text>
</a>
</g>
</g>
<!-- Node1&#45;&gt;Node18 -->
<g id="edge21" class="edge">
<title>Node1&#45;&gt;Node18</title>
<path fill="none" stroke="midnightblue" d="M2104.17,-229.08C2012.65,-222.16 1819.86,-206.71 1657.5,-188 1654.27,-187.63 1650.95,-187.22 1647.6,-186.8"/>
<polygon fill="midnightblue" stroke="midnightblue" points="2104.05,-232.58 2114.29,-229.84 2104.58,-225.6 2104.05,-232.58"/>
</g>
<!-- Node19 -->
<g id="node19" class="node">
<title>Node19</title>
<g id="a_node19"><a xlink:href="_hk_f_l_ini_8cpp.html" target="_top" xlink:title=" ">
<polygon fill="none" stroke="black" points="1666,-168.5 1666,-187.5 1775,-187.5 1775,-168.5 1666,-168.5"/>
<text text-anchor="middle" x="1720.5" y="-175.5" font-family="Helvetica,sans-Serif" font-size="10.00">source/HkFLIni.cpp</text>
</a>
</g>
</g>
<!-- Node1&#45;&gt;Node19 -->
<g id="edge22" class="edge">
<title>Node1&#45;&gt;Node19</title>
<path fill="none" stroke="midnightblue" d="M2104.15,-226.9C2031.72,-218.54 1898.24,-202.86 1784.5,-188 1781.5,-187.61 1778.41,-187.2 1775.3,-186.78"/>
<polygon fill="midnightblue" stroke="midnightblue" points="2104.05,-230.41 2114.39,-228.08 2104.86,-223.46 2104.05,-230.41"/>
</g>
<!-- Node20 -->
<g id="node20" class="node">
<title>Node20</title>
<g id="a_node20"><a xlink:href="_hk_func_cache_8cpp.html" target="_top" xlink:title=" ">
<polygon fill="none" stroke="black" points="1793.5,-168.5 1793.5,-187.5 1931.5,-187.5 1931.5,-168.5 1793.5,-168.5"/>
<text text-anchor="middle" x="1862.5" y="-175.5" font-family="Helvetica,sans-Serif" font-size="10.00">source/HkFuncCache.cpp</text>
</a>
</g>
</g>
<!-- Node1&#45;&gt;Node20 -->
<g id="edge23" class="edge">
<title>Node1&#45;&gt;Node20</title>
<path fill="none" stroke="midnightblue" d="M2104.28,-223.26C2048.67,-213.08 1962.3,-197.27 1909.24,-187.56"/>
<polygon fill="midnightblue" stroke="midnightblue" points="2103.82,-226.73 2114.29,-225.09 2105.08,-219.85 2103.82,-226.73"/>
</g>
<!-- Node21 -->
<g id="node21" class="node">
<title>Node21</title>
<g id="a_node21"><a xlink:href="_hk_func_log_8cpp.html" target="_top" xlink:title=" ">
<polygon fill="none" stroke="black" points="1950,-168.5 1950,-187.5 2075,-187.5 2075,-168.5 1950,-168.5"/>
<text text-anchor="middle" x="2012.5" y="-175.5" font-family="Helvetica,sans-Serif" font-size="10.00">source/HkFuncLog.cpp</text>
</a>
</g>
</g>
<!-- Node1&#45;&gt;Node21 -->
<g id="edge24" class="edge">
<title>Node1&#45;&gt;Node21</title>
<path fill="none" stroke="midnightblue" d="M2125.02,-220.91C2097.76,-210.75 2059.51,-196.51 2035.37,-187.52"/>
<polygon fill="midnightblue" stroke="midnightblue" points="2123.93,-224.23 2134.52,-224.44 2126.37,-217.67 2123.93,-224.23"/>
</g>
<!-- Node22 -->
<g id="node22" class="node">
<title>Node22</title>
<g id="a_node22"><a xlink:href="_hk_func_msg_8cpp.html" target="_top" xlink:title=" ">
<polygon fill="none" stroke="black" points="2093.5,-168.5 2093.5,-187.5 2221.5,-187.5 2221.5,-168.5 2093.5,-168.5"/>
<text text-anchor="middle" x="2157.5" y="-175.5" font-family="Helvetica,sans-Serif" font-size="10.00">source/HkFuncMsg.cpp</text>
</a>
</g>
</g>
<!-- Node1&#45;&gt;Node22 -->
<g id="edge25" class="edge">
<title>Node1&#45;&gt;Node22</title>
<path fill="none" stroke="midnightblue" d="M2157.5,-213.8C2157.5,-204.91 2157.5,-194.78 2157.5,-187.75"/>
<polygon fill="midnightblue" stroke="midnightblue" points="2154,-214.08 2157.5,-224.08 2161,-214.08 2154,-214.08"/>
</g>
<!-- Node23 -->
<g id="node23" class="node">
<title>Node23</title>
<g id="a_node23"><a xlink:href="_hk_func_other_8cpp.html" target="_top" xlink:title=" ">
<polygon fill="none" stroke="black" points="2239.5,-168.5 2239.5,-187.5 2373.5,-187.5 2373.5,-168.5 2239.5,-168.5"/>
<text text-anchor="middle" x="2306.5" y="-175.5" font-family="Helvetica,sans-Serif" font-size="10.00">source/HkFuncOther.cpp</text>
</a>
</g>
</g>
<!-- Node1&#45;&gt;Node23 -->
<g id="edge26" class="edge">
<title>Node1&#45;&gt;Node23</title>
<path fill="none" stroke="midnightblue" d="M2190.87,-220.91C2218.88,-210.75 2258.2,-196.51 2283,-187.52"/>
<polygon fill="midnightblue" stroke="midnightblue" points="2189.32,-217.75 2181.11,-224.44 2191.7,-224.33 2189.32,-217.75"/>
</g>
<!-- Node24 -->
<g id="node24" class="node">
<title>Node24</title>
<g id="a_node24"><a xlink:href="_hk_func_players_8cpp.html" target="_top" xlink:title=" ">
<polygon fill="none" stroke="black" points="2391.5,-168.5 2391.5,-187.5 2535.5,-187.5 2535.5,-168.5 2391.5,-168.5"/>
<text text-anchor="middle" x="2463.5" y="-175.5" font-family="Helvetica,sans-Serif" font-size="10.00">source/HkFuncPlayers.cpp</text>
</a>
</g>
</g>
<!-- Node1&#45;&gt;Node24 -->
<g id="edge27" class="edge">
<title>Node1&#45;&gt;Node24</title>
<path fill="none" stroke="midnightblue" d="M2210.7,-223.61C2268.36,-213.44 2359.57,-197.34 2415.23,-187.52"/>
<polygon fill="midnightblue" stroke="midnightblue" points="2209.93,-220.19 2200.69,-225.38 2211.15,-227.09 2209.93,-220.19"/>
</g>
<!-- Node25 -->
<g id="node25" class="node">
<title>Node25</title>
<g id="a_node25"><a xlink:href="_hk_func_tools_8cpp.html" target="_top" xlink:title=" ">
<polygon fill="none" stroke="black" points="2554,-168.5 2554,-187.5 2687,-187.5 2687,-168.5 2554,-168.5"/>
<text text-anchor="middle" x="2620.5" y="-175.5" font-family="Helvetica,sans-Serif" font-size="10.00">source/HkFuncTools.cpp</text>
</a>
</g>
</g>
<!-- Node1&#45;&gt;Node25 -->
<g id="edge28" class="edge">
<title>Node1&#45;&gt;Node25</title>
<path fill="none" stroke="midnightblue" d="M2210.83,-226.83C2285.47,-218.2 2425.32,-201.99 2544.5,-188 2547.54,-187.64 2550.64,-187.28 2553.77,-186.91"/>
<polygon fill="midnightblue" stroke="midnightblue" points="2210.27,-223.38 2200.74,-228 2211.08,-230.33 2210.27,-223.38"/>
</g>
<!-- Node26 -->
<g id="node26" class="node">
<title>Node26</title>
<g id="a_node26"><a xlink:href="_hk_help_8cpp.html" target="_top" xlink:title=" ">
<polygon fill="none" stroke="black" points="2705.5,-168.5 2705.5,-187.5 2813.5,-187.5 2813.5,-168.5 2705.5,-168.5"/>
<text text-anchor="middle" x="2759.5" y="-175.5" font-family="Helvetica,sans-Serif" font-size="10.00">source/HkHelp.cpp</text>
</a>
</g>
</g>
<!-- Node1&#45;&gt;Node26 -->
<g id="edge29" class="edge">
<title>Node1&#45;&gt;Node26</title>
<path fill="none" stroke="midnightblue" d="M2210.67,-229.6C2307.48,-223.17 2518.92,-208.08 2696.5,-188 2699.35,-187.68 2702.28,-187.33 2705.23,-186.96"/>
<polygon fill="midnightblue" stroke="midnightblue" points="2210.3,-226.12 2200.55,-230.27 2210.76,-233.1 2210.3,-226.12"/>
</g>
<!-- Node27 -->
<g id="node27" class="node">
<title>Node27</title>
<g id="a_node27"><a xlink:href="_hk_i_chat_server_8cpp.html" target="_top" xlink:title=" ">
<polygon fill="none" stroke="black" points="2831.5,-168.5 2831.5,-187.5 2973.5,-187.5 2973.5,-168.5 2831.5,-168.5"/>
<text text-anchor="middle" x="2902.5" y="-175.5" font-family="Helvetica,sans-Serif" font-size="10.00">source/HkIChatServer.cpp</text>
</a>
</g>
</g>
<!-- Node1&#45;&gt;Node27 -->
<g id="edge30" class="edge">
<title>Node1&#45;&gt;Node27</title>
<path fill="none" stroke="midnightblue" d="M2210.84,-230.2C2323.78,-224.09 2595.35,-208.45 2822.5,-188 2825.42,-187.74 2828.41,-187.46 2831.42,-187.16"/>
<polygon fill="midnightblue" stroke="midnightblue" points="2210.53,-226.71 2200.73,-230.74 2210.91,-233.7 2210.53,-226.71"/>
</g>
<!-- Node28 -->
<g id="node28" class="node">
<title>Node28</title>
<g id="a_node28"><a xlink:href="_hk_i_client_impl_8inl.html" target="_top" xlink:title=" ">
<polygon fill="none" stroke="black" points="866.5,-112.5 866.5,-131.5 1000.5,-131.5 1000.5,-112.5 866.5,-112.5"/>
<text text-anchor="middle" x="933.5" y="-119.5" font-family="Helvetica,sans-Serif" font-size="10.00">source/HkIClientImpl.inl</text>
</a>
</g>
</g>
<!-- Node1&#45;&gt;Node28 -->
<g id="edge31" class="edge">
<title>Node1&#45;&gt;Node28</title>
<path fill="none" stroke="midnightblue" d="M2103.95,-233.14C1868.97,-233.48 939.01,-232.05 896.5,-188 880,-170.9 906,-145.03 922.16,-131.67"/>
<polygon fill="midnightblue" stroke="midnightblue" points="2104.29,-236.64 2114.28,-233.12 2104.28,-229.64 2104.29,-236.64"/>
</g>
<!-- Node29 -->
<g id="node29" class="node">
<title>Node29</title>
<g id="a_node29"><a xlink:href="_hk_i_engine_8cpp.html" target="_top" xlink:title=" ">
<polygon fill="none" stroke="black" points="2991.5,-168.5 2991.5,-187.5 3113.5,-187.5 3113.5,-168.5 2991.5,-168.5"/>
<text text-anchor="middle" x="3052.5" y="-175.5" font-family="Helvetica,sans-Serif" font-size="10.00">source/HkIEngine.cpp</text>
</a>
</g>
</g>
<!-- Node1&#45;&gt;Node29 -->
<g id="edge33" class="edge">
<title>Node1&#45;&gt;Node29</title>
<path fill="none" stroke="midnightblue" d="M2210.7,-231.45C2341.99,-227.34 2691.82,-214.58 2982.5,-188 2985.43,-187.73 2988.42,-187.44 2991.45,-187.12"/>
<polygon fill="midnightblue" stroke="midnightblue" points="2210.41,-227.96 2200.52,-231.77 2210.63,-234.96 2210.41,-227.96"/>
</g>
<!-- Node30 -->
<g id="node30" class="node">
<title>Node30</title>
<g id="a_node30"><a xlink:href="_hk_i_engine_damage_8cpp.html" target="_top" xlink:title=" ">
<polygon fill="none" stroke="black" points="3132,-168.5 3132,-187.5 3295,-187.5 3295,-168.5 3132,-168.5"/>
<text text-anchor="middle" x="3213.5" y="-175.5" font-family="Helvetica,sans-Serif" font-size="10.00">source/HkIEngineDamage.cpp</text>
</a>
</g>
</g>
<!-- Node1&#45;&gt;Node30 -->
<g id="edge34" class="edge">
<title>Node1&#45;&gt;Node30</title>
<path fill="none" stroke="midnightblue" d="M2210.87,-231.49C2356.91,-227.13 2775.37,-213.24 3122.5,-188 3125.51,-187.78 3128.57,-187.55 3131.66,-187.3"/>
<polygon fill="midnightblue" stroke="midnightblue" points="2210.72,-227.99 2200.83,-231.78 2210.93,-234.99 2210.72,-227.99"/>
</g>
<!-- Node31 -->
<g id="node31" class="node">
<title>Node31</title>
<g id="a_node31"><a xlink:href="_hk_i_engine_death_8cpp.html" target="_top" xlink:title=" ">
<polygon fill="none" stroke="black" points="3313,-168.5 3313,-187.5 3464,-187.5 3464,-168.5 3313,-168.5"/>
<text text-anchor="middle" x="3388.5" y="-175.5" font-family="Helvetica,sans-Serif" font-size="10.00">source/HkIEngineDeath.cpp</text>
</a>
</g>
</g>
<!-- Node1&#45;&gt;Node31 -->
<g id="edge35" class="edge">
<title>Node1&#45;&gt;Node31</title>
<path fill="none" stroke="midnightblue" d="M2210.79,-232.19C2374.37,-229.42 2883.68,-218.76 3304.5,-188 3307.28,-187.8 3310.11,-187.57 3312.97,-187.34"/>
<polygon fill="midnightblue" stroke="midnightblue" points="2210.46,-228.69 2200.52,-232.36 2210.58,-235.69 2210.46,-228.69"/>
</g>
<!-- Node32 -->
<g id="node32" class="node">
<title>Node32</title>
<g id="a_node32"><a xlink:href="_hk_i_engine_disconnect_8cpp.html" target="_top" xlink:title=" ">
<polygon fill="none" stroke="black" points="3482.5,-168.5 3482.5,-187.5 3658.5,-187.5 3658.5,-168.5 3482.5,-168.5"/>
<text text-anchor="middle" x="3570.5" y="-175.5" font-family="Helvetica,sans-Serif" font-size="10.00">source/HkIEngineDisconnect.cpp</text>
</a>
</g>
</g>
<!-- Node1&#45;&gt;Node32 -->
<g id="edge36" class="edge">
<title>Node1&#45;&gt;Node32</title>
<path fill="none" stroke="midnightblue" d="M2210.9,-232.29C2389.69,-229.68 2983.62,-219.08 3473.5,-188 3476.45,-187.81 3479.46,-187.61 3482.49,-187.39"/>
<polygon fill="midnightblue" stroke="midnightblue" points="2210.66,-228.79 2200.71,-232.44 2210.76,-235.79 2210.66,-228.79"/>
</g>
<!-- Node33 -->
<g id="node33" class="node">
<title>Node33</title>
<g id="a_node33"><a xlink:href="_hk_init_8cpp.html" target="_top" xlink:title=" ">
<polygon fill="none" stroke="black" points="3677,-168.5 3677,-187.5 3778,-187.5 3778,-168.5 3677,-168.5"/>
<text text-anchor="middle" x="3727.5" y="-175.5" font-family="Helvetica,sans-Serif" font-size="10.00">source/HkInit.cpp</text>
</a>
</g>
</g>
<!-- Node1&#45;&gt;Node33 -->
<g id="edge38" class="edge">
<title>Node1&#45;&gt;Node33</title>
<path fill="none" stroke="midnightblue" d="M2210.79,-232.26C2443.96,-228.91 3375.82,-214.13 3667.5,-188 3670.54,-187.73 3673.67,-187.4 3676.81,-187.04"/>
<polygon fill="midnightblue" stroke="midnightblue" points="2210.48,-228.77 2200.53,-232.41 2210.58,-235.77 2210.48,-228.77"/>
</g>
<!-- Node34 -->
<g id="node34" class="node">
<title>Node34</title>
<g id="a_node34"><a xlink:href="_hk_timers_8cpp.html" target="_top" xlink:title=" ">
<polygon fill="none" stroke="black" points="3796,-168.5 3796,-187.5 3915,-187.5 3915,-168.5 3796,-168.5"/>
<text text-anchor="middle" x="3855.5" y="-175.5" font-family="Helvetica,sans-Serif" font-size="10.00">source/HkTimers.cpp</text>
</a>
</g>
</g>
<!-- Node1&#45;&gt;Node34 -->
<g id="edge40" class="edge">
<title>Node1&#45;&gt;Node34</title>
<path fill="none" stroke="midnightblue" d="M2210.59,-232.28C2454.66,-228.85 3470.52,-213.28 3787.5,-188 3790.23,-187.78 3793.02,-187.53 3795.83,-187.25"/>
<polygon fill="midnightblue" stroke="midnightblue" points="2210.51,-228.78 2200.56,-232.42 2210.6,-235.78 2210.51,-228.78"/>
</g>
<!-- Node35 -->
<g id="node35" class="node">
<title>Node35</title>
<g id="a_node35"><a xlink:href="_hk_user_cmd_8cpp.html" target="_top" xlink:title=" ">
<polygon fill="none" stroke="black" points="3933,-168.5 3933,-187.5 4064,-187.5 4064,-168.5 3933,-168.5"/>
<text text-anchor="middle" x="3998.5" y="-175.5" font-family="Helvetica,sans-Serif" font-size="10.00">source/HkUserCmd.cpp</text>
</a>
</g>
</g>
<!-- Node1&#45;&gt;Node35 -->
<g id="edge41" class="edge">
<title>Node1&#45;&gt;Node35</title>
<path fill="none" stroke="midnightblue" d="M2210.81,-232.33C2467.61,-229 3578.87,-213.36 3924.5,-188 3927.21,-187.8 3929.97,-187.57 3932.76,-187.33"/>
<polygon fill="midnightblue" stroke="midnightblue" points="2210.58,-228.83 2200.63,-232.46 2210.67,-235.83 2210.58,-228.83"/>
</g>
<!-- Node36 -->
<g id="node36" class="node">
<title>Node36</title>
<g id="a_node36"><a xlink:href="_settings_8cpp.html" target="_top" xlink:title=" ">
<polygon fill="none" stroke="black" points="4082.5,-168.5 4082.5,-187.5 4194.5,-187.5 4194.5,-168.5 4082.5,-168.5"/>
<text text-anchor="middle" x="4138.5" y="-175.5" font-family="Helvetica,sans-Serif" font-size="10.00">source/Settings.cpp</text>
</a>
</g>
</g>
<!-- Node1&#45;&gt;Node36 -->
<g id="edge42" class="edge">
<title>Node1&#45;&gt;Node36</title>
<path fill="none" stroke="midnightblue" d="M2210.87,-232.57C2480.75,-230.27 3696.92,-218.39 4073.5,-188 4076.34,-187.77 4079.24,-187.5 4082.17,-187.2"/>
<polygon fill="midnightblue" stroke="midnightblue" points="2210.54,-229.07 2200.57,-232.66 2210.6,-236.07 2210.54,-229.07"/>
</g>
<!-- Node37 -->
<g id="node37" class="node">
<title>Node37</title>
<g id="a_node37"><a xlink:href="_tools_8cpp.html" target="_top" xlink:title=" ">
<polygon fill="none" stroke="black" points="4213,-168.5 4213,-187.5 4310,-187.5 4310,-168.5 4213,-168.5"/>
<text text-anchor="middle" x="4261.5" y="-175.5" font-family="Helvetica,sans-Serif" font-size="10.00">source/Tools.cpp</text>
</a>
</g>
</g>
<!-- Node1&#45;&gt;Node37 -->
<g id="edge43" class="edge">
<title>Node1&#45;&gt;Node37</title>
<path fill="none" stroke="midnightblue" d="M2210.85,-232.78C2491.55,-231.48 3799.91,-223.59 4203.5,-188 4206.55,-187.73 4209.67,-187.4 4212.82,-187.03"/>
<polygon fill="midnightblue" stroke="midnightblue" points="2210.51,-229.28 2200.53,-232.83 2210.55,-236.28 2210.51,-229.28"/>
</g>
<!-- Node38 -->
<g id="node38" class="node">
<title>Node38</title>
<g id="a_node38"><a xlink:href="_zone_utilities_8cpp.html" target="_top" xlink:title=" ">
<polygon fill="none" stroke="black" points="4328,-168.5 4328,-187.5 4463,-187.5 4463,-168.5 4328,-168.5"/>
<text text-anchor="middle" x="4395.5" y="-175.5" font-family="Helvetica,sans-Serif" font-size="10.00">source/ZoneUtilities.cpp</text>
</a>
</g>
</g>
<!-- Node1&#45;&gt;Node38 -->
<g id="edge44" class="edge">
<title>Node1&#45;&gt;Node38</title>
<path fill="none" stroke="midnightblue" d="M2211.03,-232.59C2501.5,-230.27 3891.05,-217.76 4319.5,-188 4322.28,-187.81 4325.12,-187.58 4327.99,-187.34"/>
<polygon fill="midnightblue" stroke="midnightblue" points="2210.74,-229.09 2200.77,-232.67 2210.8,-236.09 2210.74,-229.09"/>
</g>
<!-- Node3 -->
<g id="node3" class="node">
<title>Node3</title>
<g id="a_node3"><a xlink:href="_c_cmds_8cpp.html" target="_top" xlink:title=" ">
<polygon fill="none" stroke="black" points="327,-112.5 327,-131.5 434,-131.5 434,-112.5 327,-112.5"/>
<text text-anchor="middle" x="380.5" y="-119.5" font-family="Helvetica,sans-Serif" font-size="10.00">source/CCmds.cpp</text>
</a>
</g>
</g>
<!-- Node2&#45;&gt;Node3 -->
<g id="edge2" class="edge">
<title>Node2&#45;&gt;Node3</title>
<path fill="none" stroke="midnightblue" d="M424.75,-161.54C413.69,-151.91 399.87,-139.87 390.64,-131.83"/>
<polygon fill="midnightblue" stroke="midnightblue" points="422.7,-164.4 432.54,-168.32 427.3,-159.12 422.7,-164.4"/>
</g>
<!-- Node4 -->
<g id="node4" class="node">
<title>Node4</title>
<g id="a_node4"><a xlink:href="_c_console_8h.html" target="_top" xlink:title=" ">
<polygon fill="none" stroke="black" points="83,-112.5 83,-131.5 190,-131.5 190,-112.5 83,-112.5"/>
<text text-anchor="middle" x="136.5" y="-119.5" font-family="Helvetica,sans-Serif" font-size="10.00">source/CConsole.h</text>
</a>
</g>
</g>
<!-- Node2&#45;&gt;Node4 -->
<g id="edge3" class="edge">
<title>Node2&#45;&gt;Node4</title>
<path fill="none" stroke="midnightblue" d="M384.61,-166.78C326.78,-156.58 238.9,-141.07 184.73,-131.51"/>
<polygon fill="midnightblue" stroke="midnightblue" points="384.23,-170.27 394.69,-168.56 385.45,-163.38 384.23,-170.27"/>
</g>
<!-- Node7 -->
<g id="node7" class="node">
<title>Node7</title>
<g id="a_node7"><a xlink:href="_c_in_game_8h.html" target="_top" xlink:title=" ">
<polygon fill="none" stroke="black" points="452.5,-112.5 452.5,-131.5 558.5,-131.5 558.5,-112.5 452.5,-112.5"/>
<text text-anchor="middle" x="505.5" y="-119.5" font-family="Helvetica,sans-Serif" font-size="10.00">source/CInGame.h</text>
</a>
</g>
</g>
<!-- Node2&#45;&gt;Node7 -->
<g id="edge6" class="edge">
<title>Node2&#45;&gt;Node7</title>
<path fill="none" stroke="midnightblue" d="M460.54,-161.54C471.77,-151.91 485.82,-139.87 495.19,-131.83"/>
<polygon fill="midnightblue" stroke="midnightblue" points="457.94,-159.16 452.62,-168.32 462.49,-164.47 457.94,-159.16"/>
</g>
<!-- Node11 -->
<g id="node11" class="node">
<title>Node11</title>
<g id="a_node11"><a xlink:href="_c_socket_8h.html" target="_top" xlink:title=" ">
<polygon fill="none" stroke="black" points="208.5,-112.5 208.5,-131.5 308.5,-131.5 308.5,-112.5 208.5,-112.5"/>
<text text-anchor="middle" x="258.5" y="-119.5" font-family="Helvetica,sans-Serif" font-size="10.00">source/CSocket.h</text>
</a>
</g>
</g>
<!-- Node2&#45;&gt;Node11 -->
<g id="edge10" class="edge">
<title>Node2&#45;&gt;Node11</title>
<path fill="none" stroke="midnightblue" d="M403.55,-165.57C368.84,-155.38 318.82,-140.7 287.52,-131.52"/>
<polygon fill="midnightblue" stroke="midnightblue" points="402.76,-168.99 413.34,-168.44 404.73,-162.27 402.76,-168.99"/>
</g>
<!-- Node2&#45;&gt;Node13 -->
<g id="edge13" class="edge">
<title>Node2&#45;&gt;Node13</title>
<path fill="none" stroke="midnightblue" d="M486.05,-165.96C526.28,-155.76 585.2,-140.82 621.91,-131.52"/>
<polygon fill="midnightblue" stroke="midnightblue" points="485.08,-162.59 476.25,-168.44 486.8,-169.38 485.08,-162.59"/>
</g>
<!-- Node5 -->
<g id="node5" class="node">
<title>Node5</title>
<g id="a_node5"><a xlink:href="_c_console_8cpp.html" target="_top" xlink:title=" ">
<polygon fill="none" stroke="black" points="127.5,-56.5 127.5,-75.5 245.5,-75.5 245.5,-56.5 127.5,-56.5"/>
<text text-anchor="middle" x="186.5" y="-63.5" font-family="Helvetica,sans-Serif" font-size="10.00">source/CConsole.cpp</text>
</a>
</g>
</g>
<!-- Node4&#45;&gt;Node5 -->
<g id="edge4" class="edge">
<title>Node4&#45;&gt;Node5</title>
<path fill="none" stroke="midnightblue" d="M151.58,-104.72C160.39,-95.2 171.17,-83.56 178.4,-75.75"/>
<polygon fill="midnightblue" stroke="midnightblue" points="148.98,-102.37 144.76,-112.08 154.12,-107.12 148.98,-102.37"/>
</g>
<!-- Node4&#45;&gt;Node6 -->
<g id="edge5" class="edge">
<title>Node4&#45;&gt;Node6</title>
<path fill="none" stroke="midnightblue" d="M114.67,-106.62C99.69,-96.76 80.3,-83.99 67.64,-75.65"/>
<polygon fill="midnightblue" stroke="midnightblue" points="113.05,-109.75 123.33,-112.32 116.9,-103.9 113.05,-109.75"/>
</g>
<!-- Node7&#45;&gt;Node8 -->
<g id="edge7" class="edge">
<title>Node7&#45;&gt;Node8</title>
<path fill="none" stroke="midnightblue" d="M519.55,-104.14C527.39,-94.74 536.83,-83.4 543.21,-75.75"/>
<polygon fill="midnightblue" stroke="midnightblue" points="516.64,-102.16 512.93,-112.08 522.02,-106.64 516.64,-102.16"/>
</g>
<!-- Node7&#45;&gt;Node9 -->
<g id="edge8" class="edge">
<title>Node7&#45;&gt;Node9</title>
<path fill="none" stroke="midnightblue" d="M552.91,-110.15C597.5,-99.95 663.35,-84.88 704.28,-75.52"/>
<polygon fill="midnightblue" stroke="midnightblue" points="551.86,-106.8 542.89,-112.44 553.42,-113.62 551.86,-106.8"/>
</g>
<!-- Node9&#45;&gt;Node10 -->
<g id="edge9" class="edge">
<title>Node9&#45;&gt;Node10</title>
<path fill="none" stroke="midnightblue" d="M765.84,-51.45C783.74,-41.48 807.55,-28.23 822.95,-19.65"/>
<polygon fill="midnightblue" stroke="midnightblue" points="764.12,-48.4 757.08,-56.32 767.52,-54.52 764.12,-48.4"/>
</g>
<!-- Node11&#45;&gt;Node6 -->
<g id="edge12" class="edge">
<title>Node11&#45;&gt;Node6</title>
<path fill="none" stroke="midnightblue" d="M216.3,-109.83C177.78,-99.63 121.68,-84.78 86.67,-75.52"/>
<polygon fill="midnightblue" stroke="midnightblue" points="215.61,-113.27 226.18,-112.44 217.4,-106.5 215.61,-113.27"/>
</g>
<!-- Node12 -->
<g id="node12" class="node">
<title>Node12</title>
<g id="a_node12"><a xlink:href="_c_socket_8cpp.html" target="_top" xlink:title=" ">
<polygon fill="none" stroke="black" points="264,-56.5 264,-75.5 375,-75.5 375,-56.5 264,-56.5"/>
<text text-anchor="middle" x="319.5" y="-63.5" font-family="Helvetica,sans-Serif" font-size="10.00">source/CSocket.cpp</text>
</a>
</g>
</g>
<!-- Node11&#45;&gt;Node12 -->
<g id="edge11" class="edge">
<title>Node11&#45;&gt;Node12</title>
<path fill="none" stroke="midnightblue" d="M275.97,-105.54C286.84,-95.91 300.44,-83.87 309.52,-75.83"/>
<polygon fill="midnightblue" stroke="midnightblue" points="273.47,-103.07 268.3,-112.32 278.11,-108.32 273.47,-103.07"/>
</g>
<!-- Node28&#45;&gt;Node10 -->
<g id="edge32" class="edge">
<title>Node28&#45;&gt;Node10</title>
<path fill="none" stroke="midnightblue" d="M919.32,-104.59C898.84,-80.87 861.71,-37.87 845.92,-19.59"/>
<polygon fill="midnightblue" stroke="midnightblue" points="916.86,-107.09 926.05,-112.37 922.16,-102.51 916.86,-107.09"/>
</g>
</g>
</svg>
