<?xml version="1.0" encoding="UTF-8" standalone="no"?>
<!DOCTYPE svg PUBLIC "-//W3C//DTD SVG 1.1//EN"
 "http://www.w3.org/Graphics/SVG/1.1/DTD/svg11.dtd">
<!-- Generated by graphviz version 2.43.0 (0)
 -->
<!-- Title: plugins/light_control/LightControl.cpp Pages: 1 -->
<svg width="200pt" height="148pt"
 viewBox="0.00 0.00 199.50 148.00" xmlns="http://www.w3.org/2000/svg" xmlns:xlink="http://www.w3.org/1999/xlink">
<g id="graph0" class="graph" transform="scale(1 1) rotate(0) translate(4 144)">
<title>plugins/light_control/LightControl.cpp</title>
<!-- Node1 -->
<g id="node1" class="node">
<title>Node1</title>
<g id="a_node1"><a xlink:title=" ">
<polygon fill="#999999" stroke="#666666" points="179,-140 63,-140 63,-110 179,-110 179,-140"/>
<text text-anchor="start" x="71" y="-128" font-family="Helvetica,sans-Serif" font-size="10.00">plugins/light_control</text>
<text text-anchor="middle" x="121" y="-117" font-family="Helvetica,sans-Serif" font-size="10.00">/LightControl.cpp</text>
</a>
</g>
</g>
<!-- Node2 -->
<g id="node2" class="node">
<title>Node2</title>
<g id="a_node2"><a xlink:href="_light_control_8h.html" target="_top" xlink:title=" ">
<polygon fill="white" stroke="#666666" points="120.5,-74 35.5,-74 35.5,-55 120.5,-55 120.5,-74"/>
<text text-anchor="middle" x="78" y="-62" font-family="Helvetica,sans-Serif" font-size="10.00">LightControl.h</text>
</a>
</g>
</g>
<!-- Node1&#45;&gt;Node2 -->
<g id="edge1" class="edge">
<title>Node1&#45;&gt;Node2</title>
<path fill="none" stroke="#63b8ff" d="M110.59,-109.84C104.54,-101.61 96.88,-91.18 90.5,-82.51"/>
<polygon fill="#63b8ff" stroke="#63b8ff" points="93.19,-80.25 84.44,-74.27 87.55,-84.4 93.19,-80.25"/>
</g>
<!-- Node5 -->
<g id="node5" class="node">
<title>Node5</title>
<g id="a_node5"><a xlink:title=" ">
<polygon fill="#e0e0e0" stroke="#999999" points="191.5,-74 138.5,-74 138.5,-55 191.5,-55 191.5,-74"/>
<text text-anchor="middle" x="165" y="-62" font-family="Helvetica,sans-Serif" font-size="10.00">refl.hpp</text>
</a>
</g>
</g>
<!-- Node1&#45;&gt;Node5 -->
<g id="edge4" class="edge">
<title>Node1&#45;&gt;Node5</title>
<path fill="none" stroke="#63b8ff" d="M131.65,-109.84C137.84,-101.61 145.69,-91.18 152.21,-82.51"/>
<polygon fill="#63b8ff" stroke="#63b8ff" points="155.19,-84.36 158.41,-74.27 149.6,-80.15 155.19,-84.36"/>
</g>
<!-- Node3 -->
<g id="node3" class="node">
<title>Node3</title>
<g id="a_node3"><a xlink:title=" ">
<polygon fill="#e0e0e0" stroke="#999999" points="74,-19 0,-19 0,0 74,0 74,-19"/>
<text text-anchor="middle" x="37" y="-7" font-family="Helvetica,sans-Serif" font-size="10.00">FLHook.hpp</text>
</a>
</g>
</g>
<!-- Node2&#45;&gt;Node3 -->
<g id="edge2" class="edge">
<title>Node2&#45;&gt;Node3</title>
<path fill="none" stroke="#63b8ff" d="M71.23,-54.75C65.44,-47.26 56.94,-36.28 49.86,-27.13"/>
<polygon fill="#63b8ff" stroke="#63b8ff" points="52.53,-24.86 43.64,-19.09 46.99,-29.14 52.53,-24.86"/>
</g>
<!-- Node4 -->
<g id="node4" class="node">
<title>Node4</title>
<g id="a_node4"><a xlink:title=" ">
<polygon fill="#e0e0e0" stroke="#999999" points="148,-19 92,-19 92,0 148,0 148,-19"/>
<text text-anchor="middle" x="120" y="-7" font-family="Helvetica,sans-Serif" font-size="10.00">plugin.h</text>
</a>
</g>
</g>
<!-- Node2&#45;&gt;Node4 -->
<g id="edge3" class="edge">
<title>Node2&#45;&gt;Node4</title>
<path fill="none" stroke="#63b8ff" d="M84.94,-54.75C90.87,-47.26 99.57,-36.28 106.82,-27.13"/>
<polygon fill="#63b8ff" stroke="#63b8ff" points="109.73,-29.1 113.19,-19.09 104.24,-24.75 109.73,-29.1"/>
</g>
</g>
</svg>
