<?xml version="1.0" encoding="UTF-8" standalone="no"?>
<!DOCTYPE svg PUBLIC "-//W3C//DTD SVG 1.1//EN"
 "http://www.w3.org/Graphics/SVG/1.1/DTD/svg11.dtd">
<!-- Generated by graphviz version 2.43.0 (0)
 -->
<!-- Title: source/Features/Logging.cpp Pages: 1 -->
<svg width="581pt" height="148pt"
 viewBox="0.00 0.00 580.50 148.00" xmlns="http://www.w3.org/2000/svg" xmlns:xlink="http://www.w3.org/1999/xlink">
<g id="graph0" class="graph" transform="scale(1 1) rotate(0) translate(4 144)">
<title>source/Features/Logging.cpp</title>
<!-- Node1 -->
<g id="node1" class="node">
<title>Node1</title>
<g id="a_node1"><a xlink:title=" ">
<polygon fill="#999999" stroke="#666666" points="326.5,-140 171.5,-140 171.5,-121 326.5,-121 326.5,-140"/>
<text text-anchor="middle" x="249" y="-128" font-family="Helvetica,sans-Serif" font-size="10.00">source/Features/Logging.cpp</text>
</a>
</g>
</g>
<!-- Node2 -->
<g id="node2" class="node">
<title>Node2</title>
<g id="a_node2"><a xlink:href="_global_8hpp.html" target="_top" xlink:title=" ">
<polygon fill="white" stroke="#666666" points="71.5,-79.5 2.5,-79.5 2.5,-60.5 71.5,-60.5 71.5,-79.5"/>
<text text-anchor="middle" x="37" y="-67.5" font-family="Helvetica,sans-Serif" font-size="10.00">Global.hpp</text>
</a>
</g>
</g>
<!-- Node1&#45;&gt;Node2 -->
<g id="edge1" class="edge">
<title>Node1&#45;&gt;Node2</title>
<path fill="none" stroke="#63b8ff" d="M214.76,-120.95C180.71,-112.34 127.06,-98.42 81,-85 78.26,-84.2 75.43,-83.35 72.59,-82.49"/>
<polygon fill="#63b8ff" stroke="#63b8ff" points="73.58,-79.13 62.99,-79.5 71.5,-85.82 73.58,-79.13"/>
</g>
<!-- Node4 -->
<g id="node4" class="node">
<title>Node4</title>
<g id="a_node4"><a xlink:title=" ">
<polygon fill="#e0e0e0" stroke="#999999" points="178.5,-79.5 89.5,-79.5 89.5,-60.5 178.5,-60.5 178.5,-79.5"/>
<text text-anchor="middle" x="134" y="-67.5" font-family="Helvetica,sans-Serif" font-size="10.00">spdlog/async.h</text>
</a>
</g>
</g>
<!-- Node1&#45;&gt;Node4 -->
<g id="edge3" class="edge">
<title>Node1&#45;&gt;Node4</title>
<path fill="none" stroke="#63b8ff" d="M232.03,-120.87C213.09,-111.23 182.21,-95.53 160.17,-84.31"/>
<polygon fill="#63b8ff" stroke="#63b8ff" points="161.54,-81.08 151.04,-79.67 158.36,-87.32 161.54,-81.08"/>
</g>
<!-- Node5 -->
<g id="node5" class="node">
<title>Node5</title>
<g id="a_node5"><a xlink:title=" ">
<polygon fill="#e0e0e0" stroke="#999999" points="302,-85 196,-85 196,-55 302,-55 302,-85"/>
<text text-anchor="start" x="204" y="-73" font-family="Helvetica,sans-Serif" font-size="10.00">spdlog/sinks/basic</text>
<text text-anchor="middle" x="249" y="-62" font-family="Helvetica,sans-Serif" font-size="10.00">_file_sink.h</text>
</a>
</g>
</g>
<!-- Node1&#45;&gt;Node5 -->
<g id="edge4" class="edge">
<title>Node1&#45;&gt;Node5</title>
<path fill="none" stroke="#63b8ff" d="M249,-120.87C249,-114.11 249,-104.35 249,-95.26"/>
<polygon fill="#63b8ff" stroke="#63b8ff" points="252.5,-95.11 249,-85.11 245.5,-95.11 252.5,-95.11"/>
</g>
<!-- Node6 -->
<g id="node6" class="node">
<title>Node6</title>
<g id="a_node6"><a xlink:title=" ">
<polygon fill="#e0e0e0" stroke="#999999" points="461.5,-79.5 320.5,-79.5 320.5,-60.5 461.5,-60.5 461.5,-79.5"/>
<text text-anchor="middle" x="391" y="-67.5" font-family="Helvetica,sans-Serif" font-size="10.00">spdlog/sinks/msvc_sink.h</text>
</a>
</g>
</g>
<!-- Node1&#45;&gt;Node6 -->
<g id="edge5" class="edge">
<title>Node1&#45;&gt;Node6</title>
<path fill="none" stroke="#63b8ff" d="M269.65,-120.99C293.63,-111.12 333.39,-94.73 360.83,-83.43"/>
<polygon fill="#63b8ff" stroke="#63b8ff" points="362.41,-86.56 370.33,-79.52 359.75,-80.09 362.41,-86.56"/>
</g>
<!-- Node7 -->
<g id="node7" class="node">
<title>Node7</title>
<g id="a_node7"><a xlink:title=" ">
<polygon fill="#e0e0e0" stroke="#999999" points="572.5,-79.5 479.5,-79.5 479.5,-60.5 572.5,-60.5 572.5,-79.5"/>
<text text-anchor="middle" x="526" y="-67.5" font-family="Helvetica,sans-Serif" font-size="10.00">spdlog/spdlog.h</text>
</a>
</g>
</g>
<!-- Node1&#45;&gt;Node7 -->
<g id="edge6" class="edge">
<title>Node1&#45;&gt;Node7</title>
<path fill="none" stroke="#63b8ff" d="M295.07,-120.98C340.07,-112.49 410.44,-98.77 471,-85 475.11,-84.07 479.38,-83.05 483.64,-82.02"/>
<polygon fill="#63b8ff" stroke="#63b8ff" points="484.63,-85.38 493.49,-79.57 482.95,-78.58 484.63,-85.38"/>
</g>
<!-- Node3 -->
<g id="node3" class="node">
<title>Node3</title>
<g id="a_node3"><a xlink:title=" ">
<polygon fill="#e0e0e0" stroke="#999999" points="74,-19 0,-19 0,0 74,0 74,-19"/>
<text text-anchor="middle" x="37" y="-7" font-family="Helvetica,sans-Serif" font-size="10.00">FLHook.hpp</text>
</a>
</g>
</g>
<!-- Node2&#45;&gt;Node3 -->
<g id="edge2" class="edge">
<title>Node2&#45;&gt;Node3</title>
<path fill="none" stroke="#63b8ff" d="M37,-60.37C37,-52.25 37,-39.81 37,-29.39"/>
<polygon fill="#63b8ff" stroke="#63b8ff" points="40.5,-29.17 37,-19.17 33.5,-29.17 40.5,-29.17"/>
</g>
</g>
</svg>
