<?xml version="1.0" encoding="UTF-8" standalone="no"?>
<!DOCTYPE svg PUBLIC "-//W3C//DTD SVG 1.1//EN"
 "http://www.w3.org/Graphics/SVG/1.1/DTD/svg11.dtd">
<!-- Generated by graphviz version 2.43.0 (0)
 -->
<!-- Title: source/Memory/MemoryManager.cpp Pages: 1 -->
<svg width="206pt" height="192pt"
 viewBox="0.00 0.00 206.00 192.00" xmlns="http://www.w3.org/2000/svg" xmlns:xlink="http://www.w3.org/1999/xlink">
<g id="graph0" class="graph" transform="scale(1 1) rotate(0) translate(4 188)">
<title>source/Memory/MemoryManager.cpp</title>
<!-- Node1 -->
<g id="node1" class="node">
<title>Node1</title>
<g id="a_node1"><a xlink:title=" ">
<polygon fill="#999999" stroke="#666666" points="198,-184 0,-184 0,-165 198,-165 198,-184"/>
<text text-anchor="middle" x="99" y="-172" font-family="Helvetica,sans-Serif" font-size="10.00">source/Memory/MemoryManager.cpp</text>
</a>
</g>
</g>
<!-- Node2 -->
<g id="node2" class="node">
<title>Node2</title>
<g id="a_node2"><a xlink:href="_memory_manager_8hpp.html" target="_top" xlink:title=" ">
<polygon fill="white" stroke="#666666" points="159,-129 39,-129 39,-110 159,-110 159,-129"/>
<text text-anchor="middle" x="99" y="-117" font-family="Helvetica,sans-Serif" font-size="10.00">MemoryManager.hpp</text>
</a>
</g>
</g>
<!-- Node1&#45;&gt;Node2 -->
<g id="edge1" class="edge">
<title>Node1&#45;&gt;Node2</title>
<path fill="none" stroke="#63b8ff" d="M99,-164.75C99,-157.8 99,-147.85 99,-139.13"/>
<polygon fill="#63b8ff" stroke="#63b8ff" points="102.5,-139.09 99,-129.09 95.5,-139.09 102.5,-139.09"/>
</g>
<!-- Node3 -->
<g id="node3" class="node">
<title>Node3</title>
<g id="a_node3"><a xlink:href="_global_8hpp.html" target="_top" xlink:title=" ">
<polygon fill="white" stroke="#666666" points="133.5,-74 64.5,-74 64.5,-55 133.5,-55 133.5,-74"/>
<text text-anchor="middle" x="99" y="-62" font-family="Helvetica,sans-Serif" font-size="10.00">Global.hpp</text>
</a>
</g>
</g>
<!-- Node2&#45;&gt;Node3 -->
<g id="edge2" class="edge">
<title>Node2&#45;&gt;Node3</title>
<path fill="none" stroke="#63b8ff" d="M99,-109.75C99,-102.8 99,-92.85 99,-84.13"/>
<polygon fill="#63b8ff" stroke="#63b8ff" points="102.5,-84.09 99,-74.09 95.5,-84.09 102.5,-84.09"/>
</g>
<!-- Node4 -->
<g id="node4" class="node">
<title>Node4</title>
<g id="a_node4"><a xlink:title=" ">
<polygon fill="#e0e0e0" stroke="#999999" points="136,-19 62,-19 62,0 136,0 136,-19"/>
<text text-anchor="middle" x="99" y="-7" font-family="Helvetica,sans-Serif" font-size="10.00">FLHook.hpp</text>
</a>
</g>
</g>
<!-- Node3&#45;&gt;Node4 -->
<g id="edge3" class="edge">
<title>Node3&#45;&gt;Node4</title>
<path fill="none" stroke="#63b8ff" d="M99,-54.75C99,-47.8 99,-37.85 99,-29.13"/>
<polygon fill="#63b8ff" stroke="#63b8ff" points="102.5,-29.09 99,-19.09 95.5,-29.09 102.5,-29.09"/>
</g>
</g>
</svg>
