<?xml version="1.0" encoding="UTF-8" standalone="no"?>
<!DOCTYPE svg PUBLIC "-//W3C//DTD SVG 1.1//EN"
 "http://www.w3.org/Graphics/SVG/1.1/DTD/svg11.dtd">
<!-- Generated by graphviz version 2.43.0 (0)
 -->
<!-- Title: source/Helpers/Player.cpp Pages: 1 -->
<svg width="226pt" height="137pt"
 viewBox="0.00 0.00 226.00 137.00" xmlns="http://www.w3.org/2000/svg" xmlns:xlink="http://www.w3.org/1999/xlink">
<g id="graph0" class="graph" transform="scale(1 1) rotate(0) translate(4 133)">
<title>source/Helpers/Player.cpp</title>
<!-- Node1 -->
<g id="node1" class="node">
<title>Node1</title>
<g id="a_node1"><a xlink:title=" ">
<polygon fill="#999999" stroke="#666666" points="166.5,-129 23.5,-129 23.5,-110 166.5,-110 166.5,-129"/>
<text text-anchor="middle" x="95" y="-117" font-family="Helvetica,sans-Serif" font-size="10.00">source/Helpers/Player.cpp</text>
</a>
</g>
</g>
<!-- Node2 -->
<g id="node2" class="node">
<title>Node2</title>
<g id="a_node2"><a xlink:href="_global_8hpp.html" target="_top" xlink:title=" ">
<polygon fill="white" stroke="#666666" points="71.5,-74 2.5,-74 2.5,-55 71.5,-55 71.5,-74"/>
<text text-anchor="middle" x="37" y="-62" font-family="Helvetica,sans-Serif" font-size="10.00">Global.hpp</text>
</a>
</g>
</g>
<!-- Node1&#45;&gt;Node2 -->
<g id="edge1" class="edge">
<title>Node1&#45;&gt;Node2</title>
<path fill="none" stroke="#63b8ff" d="M85.68,-109.98C77.19,-102.23 64.44,-90.58 54.12,-81.14"/>
<polygon fill="#63b8ff" stroke="#63b8ff" points="56.23,-78.33 46.49,-74.17 51.51,-83.5 56.23,-78.33"/>
</g>
<!-- Node4 -->
<g id="node4" class="node">
<title>Node4</title>
<g id="a_node4"><a xlink:title=" ">
<polygon fill="#e0e0e0" stroke="#999999" points="218,-74 90,-74 90,-55 218,-55 218,-74"/>
<text text-anchor="middle" x="154" y="-62" font-family="Helvetica,sans-Serif" font-size="10.00">Features/TempBan.hpp</text>
</a>
</g>
</g>
<!-- Node1&#45;&gt;Node4 -->
<g id="edge3" class="edge">
<title>Node1&#45;&gt;Node4</title>
<path fill="none" stroke="#63b8ff" d="M104.48,-109.98C113.2,-102.15 126.34,-90.34 136.9,-80.86"/>
<polygon fill="#63b8ff" stroke="#63b8ff" points="139.25,-83.46 144.35,-74.17 134.57,-78.25 139.25,-83.46"/>
</g>
<!-- Node3 -->
<g id="node3" class="node">
<title>Node3</title>
<g id="a_node3"><a xlink:title=" ">
<polygon fill="#e0e0e0" stroke="#999999" points="74,-19 0,-19 0,0 74,0 74,-19"/>
<text text-anchor="middle" x="37" y="-7" font-family="Helvetica,sans-Serif" font-size="10.00">FLHook.hpp</text>
</a>
</g>
</g>
<!-- Node2&#45;&gt;Node3 -->
<g id="edge2" class="edge">
<title>Node2&#45;&gt;Node3</title>
<path fill="none" stroke="#63b8ff" d="M37,-54.75C37,-47.8 37,-37.85 37,-29.13"/>
<polygon fill="#63b8ff" stroke="#63b8ff" points="40.5,-29.09 37,-19.09 33.5,-29.09 40.5,-29.09"/>
</g>
</g>
</svg>
