<?xml version="1.0" encoding="UTF-8" standalone="no"?>
<!DOCTYPE svg PUBLIC "-//W3C//DTD SVG 1.1//EN"
 "http://www.w3.org/Graphics/SVG/1.1/DTD/svg11.dtd">
<!-- Generated by graphviz version 2.43.0 (0)
 -->
<!-- Title: plugins/_plugin_template/PluginTemplate.hpp Pages: 1 -->
<svg width="156pt" height="93pt"
 viewBox="0.00 0.00 156.00 93.00" xmlns="http://www.w3.org/2000/svg" xmlns:xlink="http://www.w3.org/1999/xlink">
<g id="graph0" class="graph" transform="scale(1 1) rotate(0) translate(4 89)">
<title>plugins/_plugin_template/PluginTemplate.hpp</title>
<!-- Node1 -->
<g id="node1" class="node">
<title>Node1</title>
<g id="a_node1"><a xlink:title=" ">
<polygon fill="#999999" stroke="#666666" points="148,-85 8,-85 8,-55 148,-55 148,-85"/>
<text text-anchor="start" x="16" y="-73" font-family="Helvetica,sans-Serif" font-size="10.00">plugins/_plugin_template</text>
<text text-anchor="middle" x="78" y="-62" font-family="Helvetica,sans-Serif" font-size="10.00">/PluginTemplate.hpp</text>
</a>
</g>
</g>
<!-- Node2 -->
<g id="node2" class="node">
<title>Node2</title>
<g id="a_node2"><a xlink:title=" ">
<polygon fill="#e0e0e0" stroke="#999999" points="74,-19 0,-19 0,0 74,0 74,-19"/>
<text text-anchor="middle" x="37" y="-7" font-family="Helvetica,sans-Serif" font-size="10.00">FLHook.hpp</text>
</a>
</g>
</g>
<!-- Node1&#45;&gt;Node2 -->
<g id="edge1" class="edge">
<title>Node1&#45;&gt;Node2</title>
<path fill="none" stroke="#63b8ff" d="M68.08,-54.84C62.31,-46.61 55,-36.18 48.92,-27.51"/>
<polygon fill="#63b8ff" stroke="#63b8ff" points="51.75,-25.45 43.14,-19.27 46.02,-29.46 51.75,-25.45"/>
</g>
<!-- Node3 -->
<g id="node3" class="node">
<title>Node3</title>
<g id="a_node3"><a xlink:title=" ">
<polygon fill="#e0e0e0" stroke="#999999" points="148,-19 92,-19 92,0 148,0 148,-19"/>
<text text-anchor="middle" x="120" y="-7" font-family="Helvetica,sans-Serif" font-size="10.00">plugin.h</text>
</a>
</g>
</g>
<!-- Node1&#45;&gt;Node3 -->
<g id="edge2" class="edge">
<title>Node1&#45;&gt;Node3</title>
<path fill="none" stroke="#63b8ff" d="M88.17,-54.84C94.08,-46.61 101.56,-36.18 107.79,-27.51"/>
<polygon fill="#63b8ff" stroke="#63b8ff" points="110.72,-29.43 113.71,-19.27 105.03,-25.35 110.72,-29.43"/>
</g>
</g>
</svg>
