<?xml version="1.0" encoding="UTF-8" standalone="no"?>
<!DOCTYPE svg PUBLIC "-//W3C//DTD SVG 1.1//EN"
 "http://www.w3.org/Graphics/SVG/1.1/DTD/svg11.dtd">
<!-- Generated by graphviz version 2.43.0 (0)
 -->
<!-- Title: plugins/purchase_restrictions/PurchaseRestrictions.cpp Pages: 1 -->
<svg width="167pt" height="148pt"
 viewBox="0.00 0.00 167.00 148.00" xmlns="http://www.w3.org/2000/svg" xmlns:xlink="http://www.w3.org/1999/xlink">
<g id="graph0" class="graph" transform="scale(1 1) rotate(0) translate(4 144)">
<title>plugins/purchase_restrictions/PurchaseRestrictions.cpp</title>
<!-- Node1 -->
<g id="node1" class="node">
<title>Node1</title>
<g id="a_node1"><a xlink:title=" ">
<polygon fill="#999999" stroke="#666666" points="159,-140 0,-140 0,-110 159,-110 159,-140"/>
<text text-anchor="start" x="8" y="-128" font-family="Helvetica,sans-Serif" font-size="10.00">plugins/purchase_restrictions</text>
<text text-anchor="middle" x="79.5" y="-117" font-family="Helvetica,sans-Serif" font-size="10.00">/PurchaseRestrictions.cpp</text>
</a>
</g>
</g>
<!-- Node2 -->
<g id="node2" class="node">
<title>Node2</title>
<g id="a_node2"><a xlink:href="_purchase_restrictions_8h.html" target="_top" xlink:title=" ">
<polygon fill="white" stroke="#666666" points="143.5,-74 15.5,-74 15.5,-55 143.5,-55 143.5,-74"/>
<text text-anchor="middle" x="79.5" y="-62" font-family="Helvetica,sans-Serif" font-size="10.00">PurchaseRestrictions.h</text>
</a>
</g>
</g>
<!-- Node1&#45;&gt;Node2 -->
<g id="edge1" class="edge">
<title>Node1&#45;&gt;Node2</title>
<path fill="none" stroke="#63b8ff" d="M79.5,-109.84C79.5,-102.21 79.5,-92.7 79.5,-84.45"/>
<polygon fill="#63b8ff" stroke="#63b8ff" points="83,-84.27 79.5,-74.27 76,-84.27 83,-84.27"/>
</g>
<!-- Node3 -->
<g id="node3" class="node">
<title>Node3</title>
<g id="a_node3"><a xlink:title=" ">
<polygon fill="#e0e0e0" stroke="#999999" points="75.5,-19 1.5,-19 1.5,0 75.5,0 75.5,-19"/>
<text text-anchor="middle" x="38.5" y="-7" font-family="Helvetica,sans-Serif" font-size="10.00">FLHook.hpp</text>
</a>
</g>
</g>
<!-- Node2&#45;&gt;Node3 -->
<g id="edge2" class="edge">
<title>Node2&#45;&gt;Node3</title>
<path fill="none" stroke="#63b8ff" d="M72.73,-54.75C66.94,-47.26 58.44,-36.28 51.36,-27.13"/>
<polygon fill="#63b8ff" stroke="#63b8ff" points="54.03,-24.86 45.14,-19.09 48.49,-29.14 54.03,-24.86"/>
</g>
<!-- Node4 -->
<g id="node4" class="node">
<title>Node4</title>
<g id="a_node4"><a xlink:title=" ">
<polygon fill="#e0e0e0" stroke="#999999" points="149.5,-19 93.5,-19 93.5,0 149.5,0 149.5,-19"/>
<text text-anchor="middle" x="121.5" y="-7" font-family="Helvetica,sans-Serif" font-size="10.00">plugin.h</text>
</a>
</g>
</g>
<!-- Node2&#45;&gt;Node4 -->
<g id="edge3" class="edge">
<title>Node2&#45;&gt;Node4</title>
<path fill="none" stroke="#63b8ff" d="M86.44,-54.75C92.37,-47.26 101.07,-36.28 108.32,-27.13"/>
<polygon fill="#63b8ff" stroke="#63b8ff" points="111.23,-29.1 114.69,-19.09 105.74,-24.75 111.23,-29.1"/>
</g>
</g>
</svg>
