<?xml version="1.0" encoding="UTF-8" standalone="no"?>
<!DOCTYPE svg PUBLIC "-//W3C//DTD SVG 1.1//EN"
 "http://www.w3.org/Graphics/SVG/1.1/DTD/svg11.dtd">
<!-- Generated by graphviz version 2.43.0 (0)
 -->
<!-- Title: plugins/rename/Rename.cpp Pages: 1 -->
<svg width="241pt" height="137pt"
 viewBox="0.00 0.00 241.00 137.00" xmlns="http://www.w3.org/2000/svg" xmlns:xlink="http://www.w3.org/1999/xlink">
<g id="graph0" class="graph" transform="scale(1 1) rotate(0) translate(4 133)">
<title>plugins/rename/Rename.cpp</title>
<!-- Node1 -->
<g id="node1" class="node">
<title>Node1</title>
<g id="a_node1"><a xlink:title=" ">
<polygon fill="#999999" stroke="#666666" points="207,-129 51,-129 51,-110 207,-110 207,-129"/>
<text text-anchor="middle" x="129" y="-117" font-family="Helvetica,sans-Serif" font-size="10.00">plugins/rename/Rename.cpp</text>
</a>
</g>
</g>
<!-- Node2 -->
<g id="node2" class="node">
<title>Node2</title>
<g id="a_node2"><a xlink:href="_rename_8h.html" target="_top" xlink:title=" ">
<polygon fill="white" stroke="#666666" points="111,-74 45,-74 45,-55 111,-55 111,-74"/>
<text text-anchor="middle" x="78" y="-62" font-family="Helvetica,sans-Serif" font-size="10.00">Rename.h</text>
</a>
</g>
</g>
<!-- Node1&#45;&gt;Node2 -->
<g id="edge1" class="edge">
<title>Node1&#45;&gt;Node2</title>
<path fill="none" stroke="#63b8ff" d="M120.58,-109.75C113.23,-102.11 102.37,-90.82 93.46,-81.56"/>
<polygon fill="#63b8ff" stroke="#63b8ff" points="95.72,-78.87 86.26,-74.09 90.68,-83.72 95.72,-78.87"/>
</g>
<!-- Node5 -->
<g id="node5" class="node">
<title>Node5</title>
<g id="a_node5"><a xlink:title=" ">
<polygon fill="#e0e0e0" stroke="#999999" points="233,-74 129,-74 129,-55 233,-55 233,-74"/>
<text text-anchor="middle" x="181" y="-62" font-family="Helvetica,sans-Serif" font-size="10.00">Features/Mail.hpp</text>
</a>
</g>
</g>
<!-- Node1&#45;&gt;Node5 -->
<g id="edge4" class="edge">
<title>Node1&#45;&gt;Node5</title>
<path fill="none" stroke="#63b8ff" d="M137.59,-109.75C145.16,-102.03 156.38,-90.6 165.51,-81.28"/>
<polygon fill="#63b8ff" stroke="#63b8ff" points="168.07,-83.68 172.57,-74.09 163.07,-78.78 168.07,-83.68"/>
</g>
<!-- Node3 -->
<g id="node3" class="node">
<title>Node3</title>
<g id="a_node3"><a xlink:title=" ">
<polygon fill="#e0e0e0" stroke="#999999" points="74,-19 0,-19 0,0 74,0 74,-19"/>
<text text-anchor="middle" x="37" y="-7" font-family="Helvetica,sans-Serif" font-size="10.00">FLHook.hpp</text>
</a>
</g>
</g>
<!-- Node2&#45;&gt;Node3 -->
<g id="edge2" class="edge">
<title>Node2&#45;&gt;Node3</title>
<path fill="none" stroke="#63b8ff" d="M71.23,-54.75C65.44,-47.26 56.94,-36.28 49.86,-27.13"/>
<polygon fill="#63b8ff" stroke="#63b8ff" points="52.53,-24.86 43.64,-19.09 46.99,-29.14 52.53,-24.86"/>
</g>
<!-- Node4 -->
<g id="node4" class="node">
<title>Node4</title>
<g id="a_node4"><a xlink:title=" ">
<polygon fill="#e0e0e0" stroke="#999999" points="148,-19 92,-19 92,0 148,0 148,-19"/>
<text text-anchor="middle" x="120" y="-7" font-family="Helvetica,sans-Serif" font-size="10.00">plugin.h</text>
</a>
</g>
</g>
<!-- Node2&#45;&gt;Node4 -->
<g id="edge3" class="edge">
<title>Node2&#45;&gt;Node4</title>
<path fill="none" stroke="#63b8ff" d="M84.94,-54.75C90.87,-47.26 99.57,-36.28 106.82,-27.13"/>
<polygon fill="#63b8ff" stroke="#63b8ff" points="109.73,-29.1 113.19,-19.09 104.24,-24.75 109.73,-29.1"/>
</g>
</g>
</svg>
