<?xml version="1.0" encoding="UTF-8" standalone="no"?>
<!DOCTYPE svg PUBLIC "-//W3C//DTD SVG 1.1//EN"
 "http://www.w3.org/Graphics/SVG/1.1/DTD/svg11.dtd">
<!-- Generated by graphviz version 2.43.0 (0)
 -->
<!-- Title: plugins/system_sensor/SystemSensor.cpp Pages: 1 -->
<svg width="257pt" height="159pt"
 viewBox="0.00 0.00 256.50 159.00" xmlns="http://www.w3.org/2000/svg" xmlns:xlink="http://www.w3.org/1999/xlink">
<g id="graph0" class="graph" transform="scale(1 1) rotate(0) translate(4 155)">
<title>plugins/system_sensor/SystemSensor.cpp</title>
<!-- Node1 -->
<g id="node1" class="node">
<title>Node1</title>
<g id="a_node1"><a xlink:title=" ">
<polygon fill="#999999" stroke="#666666" points="201,-151 73,-151 73,-121 201,-121 201,-151"/>
<text text-anchor="start" x="81" y="-139" font-family="Helvetica,sans-Serif" font-size="10.00">plugins/system_sensor</text>
<text text-anchor="middle" x="137" y="-128" font-family="Helvetica,sans-Serif" font-size="10.00">/SystemSensor.cpp</text>
</a>
</g>
</g>
<!-- Node2 -->
<g id="node2" class="node">
<title>Node2</title>
<g id="a_node2"><a xlink:href="_system_sensor_8h.html" target="_top" xlink:title=" ">
<polygon fill="white" stroke="#666666" points="125.5,-79.5 30.5,-79.5 30.5,-60.5 125.5,-60.5 125.5,-79.5"/>
<text text-anchor="middle" x="78" y="-67.5" font-family="Helvetica,sans-Serif" font-size="10.00">SystemSensor.h</text>
</a>
</g>
</g>
<!-- Node1&#45;&gt;Node2 -->
<g id="edge1" class="edge">
<title>Node1&#45;&gt;Node2</title>
<path fill="none" stroke="#63b8ff" d="M123.91,-120.8C114.8,-110.92 102.63,-97.72 93.11,-87.39"/>
<polygon fill="#63b8ff" stroke="#63b8ff" points="95.5,-84.82 86.15,-79.84 90.36,-89.57 95.5,-84.82"/>
</g>
<!-- Node5 -->
<g id="node5" class="node">
<title>Node5</title>
<g id="a_node5"><a xlink:title=" ">
<polygon fill="#e0e0e0" stroke="#999999" points="248.5,-85 143.5,-85 143.5,-55 248.5,-55 248.5,-85"/>
<text text-anchor="start" x="151.5" y="-73" font-family="Helvetica,sans-Serif" font-size="10.00">Tools/Serialization</text>
<text text-anchor="middle" x="196" y="-62" font-family="Helvetica,sans-Serif" font-size="10.00">/Attributes.hpp</text>
</a>
</g>
</g>
<!-- Node1&#45;&gt;Node5 -->
<g id="edge4" class="edge">
<title>Node1&#45;&gt;Node5</title>
<path fill="none" stroke="#63b8ff" d="M150.09,-120.8C157.73,-112.51 167.52,-101.89 176.1,-92.59"/>
<polygon fill="#63b8ff" stroke="#63b8ff" points="178.74,-94.89 182.94,-85.16 173.59,-90.14 178.74,-94.89"/>
</g>
<!-- Node3 -->
<g id="node3" class="node">
<title>Node3</title>
<g id="a_node3"><a xlink:title=" ">
<polygon fill="#e0e0e0" stroke="#999999" points="74,-19 0,-19 0,0 74,0 74,-19"/>
<text text-anchor="middle" x="37" y="-7" font-family="Helvetica,sans-Serif" font-size="10.00">FLHook.hpp</text>
</a>
</g>
</g>
<!-- Node2&#45;&gt;Node3 -->
<g id="edge2" class="edge">
<title>Node2&#45;&gt;Node3</title>
<path fill="none" stroke="#63b8ff" d="M71.95,-60.37C65.89,-51.73 56.41,-38.2 48.86,-27.42"/>
<polygon fill="#63b8ff" stroke="#63b8ff" points="51.68,-25.35 43.07,-19.17 45.95,-29.37 51.68,-25.35"/>
</g>
<!-- Node4 -->
<g id="node4" class="node">
<title>Node4</title>
<g id="a_node4"><a xlink:title=" ">
<polygon fill="#e0e0e0" stroke="#999999" points="148,-19 92,-19 92,0 148,0 148,-19"/>
<text text-anchor="middle" x="120" y="-7" font-family="Helvetica,sans-Serif" font-size="10.00">plugin.h</text>
</a>
</g>
</g>
<!-- Node2&#45;&gt;Node4 -->
<g id="edge3" class="edge">
<title>Node2&#45;&gt;Node4</title>
<path fill="none" stroke="#63b8ff" d="M84.2,-60.37C90.4,-51.73 100.11,-38.2 107.86,-27.42"/>
<polygon fill="#63b8ff" stroke="#63b8ff" points="110.79,-29.33 113.78,-19.17 105.1,-25.25 110.79,-29.33"/>
</g>
</g>
</svg>
