<?xml version="1.0" encoding="UTF-8" standalone="no"?>
<!DOCTYPE svg PUBLIC "-//W3C//DTD SVG 1.1//EN"
 "http://www.w3.org/Graphics/SVG/1.1/DTD/svg11.dtd">
<!-- Generated by graphviz version 2.43.0 (0)
 -->
<!-- Title: plugins/tax/Tax.cpp Pages: 1 -->
<svg width="231pt" height="148pt"
 viewBox="0.00 0.00 230.50 148.00" xmlns="http://www.w3.org/2000/svg" xmlns:xlink="http://www.w3.org/1999/xlink">
<g id="graph0" class="graph" transform="scale(1 1) rotate(0) translate(4 144)">
<title>plugins/tax/Tax.cpp</title>
<!-- Node1 -->
<g id="node1" class="node">
<title>Node1</title>
<g id="a_node1"><a xlink:title=" ">
<polygon fill="#999999" stroke="#666666" points="179,-140 69,-140 69,-121 179,-121 179,-140"/>
<text text-anchor="middle" x="124" y="-128" font-family="Helvetica,sans-Serif" font-size="10.00">plugins/tax/Tax.cpp</text>
</a>
</g>
</g>
<!-- Node2 -->
<g id="node2" class="node">
<title>Node2</title>
<g id="a_node2"><a xlink:href="_tax_8h.html" target="_top" xlink:title=" ">
<polygon fill="white" stroke="#666666" points="99,-79.5 57,-79.5 57,-60.5 99,-60.5 99,-79.5"/>
<text text-anchor="middle" x="78" y="-67.5" font-family="Helvetica,sans-Serif" font-size="10.00">Tax.h</text>
</a>
</g>
</g>
<!-- Node1&#45;&gt;Node2 -->
<g id="edge1" class="edge">
<title>Node1&#45;&gt;Node2</title>
<path fill="none" stroke="#63b8ff" d="M117.21,-120.87C110.35,-112.14 99.57,-98.43 91.05,-87.59"/>
<polygon fill="#63b8ff" stroke="#63b8ff" points="93.75,-85.36 84.82,-79.67 88.25,-89.69 93.75,-85.36"/>
</g>
<!-- Node5 -->
<g id="node5" class="node">
<title>Node5</title>
<g id="a_node5"><a xlink:title=" ">
<polygon fill="#e0e0e0" stroke="#999999" points="222.5,-85 117.5,-85 117.5,-55 222.5,-55 222.5,-85"/>
<text text-anchor="start" x="125.5" y="-73" font-family="Helvetica,sans-Serif" font-size="10.00">Tools/Serialization</text>
<text text-anchor="middle" x="170" y="-62" font-family="Helvetica,sans-Serif" font-size="10.00">/Attributes.hpp</text>
</a>
</g>
</g>
<!-- Node1&#45;&gt;Node5 -->
<g id="edge4" class="edge">
<title>Node1&#45;&gt;Node5</title>
<path fill="none" stroke="#63b8ff" d="M130.79,-120.87C136.51,-113.59 144.95,-102.85 152.54,-93.2"/>
<polygon fill="#63b8ff" stroke="#63b8ff" points="155.47,-95.14 158.9,-85.11 149.97,-90.81 155.47,-95.14"/>
</g>
<!-- Node3 -->
<g id="node3" class="node">
<title>Node3</title>
<g id="a_node3"><a xlink:title=" ">
<polygon fill="#e0e0e0" stroke="#999999" points="74,-19 0,-19 0,0 74,0 74,-19"/>
<text text-anchor="middle" x="37" y="-7" font-family="Helvetica,sans-Serif" font-size="10.00">FLHook.hpp</text>
</a>
</g>
</g>
<!-- Node2&#45;&gt;Node3 -->
<g id="edge2" class="edge">
<title>Node2&#45;&gt;Node3</title>
<path fill="none" stroke="#63b8ff" d="M71.95,-60.37C65.89,-51.73 56.41,-38.2 48.86,-27.42"/>
<polygon fill="#63b8ff" stroke="#63b8ff" points="51.68,-25.35 43.07,-19.17 45.95,-29.37 51.68,-25.35"/>
</g>
<!-- Node4 -->
<g id="node4" class="node">
<title>Node4</title>
<g id="a_node4"><a xlink:title=" ">
<polygon fill="#e0e0e0" stroke="#999999" points="148,-19 92,-19 92,0 148,0 148,-19"/>
<text text-anchor="middle" x="120" y="-7" font-family="Helvetica,sans-Serif" font-size="10.00">plugin.h</text>
</a>
</g>
</g>
<!-- Node2&#45;&gt;Node4 -->
<g id="edge3" class="edge">
<title>Node2&#45;&gt;Node4</title>
<path fill="none" stroke="#63b8ff" d="M84.2,-60.37C90.4,-51.73 100.11,-38.2 107.86,-27.42"/>
<polygon fill="#63b8ff" stroke="#63b8ff" points="110.79,-29.33 113.78,-19.17 105.1,-25.25 110.79,-29.33"/>
</g>
</g>
</svg>
