<?xml version="1.0" encoding="UTF-8" standalone="no"?>
<!DOCTYPE svg PUBLIC "-//W3C//DTD SVG 1.1//EN"
 "http://www.w3.org/Graphics/SVG/1.1/DTD/svg11.dtd">
<!-- Generated by graphviz version 2.43.0 (0)
 -->
<!-- Title: source/Tools.cpp Pages: 1 -->
<svg width="1716pt" height="252pt"
 viewBox="0.00 0.00 1716.00 252.00" xmlns="http://www.w3.org/2000/svg" xmlns:xlink="http://www.w3.org/1999/xlink">
<g id="graph0" class="graph" transform="scale(1 1) rotate(0) translate(4 248)">
<title>source/Tools.cpp</title>
<!-- Node1 -->
<g id="node1" class="node">
<title>Node1</title>
<g id="a_node1"><a xlink:title=" ">
<polygon fill="#bfbfbf" stroke="black" points="741.5,-224.5 741.5,-243.5 838.5,-243.5 838.5,-224.5 741.5,-224.5"/>
<text text-anchor="middle" x="790" y="-231.5" font-family="Helvetica,sans-Serif" font-size="10.00">source/Tools.cpp</text>
</a>
</g>
</g>
<!-- Node2 -->
<g id="node2" class="node">
<title>Node2</title>
<g id="a_node2"><a xlink:href="global_8h.html" target="_top" xlink:title=" ">
<polygon fill="none" stroke="black" points="677,-112.5 677,-131.5 733,-131.5 733,-112.5 677,-112.5"/>
<text text-anchor="middle" x="705" y="-119.5" font-family="Helvetica,sans-Serif" font-size="10.00">global.h</text>
</a>
</g>
</g>
<!-- Node1&#45;&gt;Node2 -->
<g id="edge1" class="edge">
<title>Node1&#45;&gt;Node2</title>
<path fill="none" stroke="midnightblue" d="M783.33,-224.37C769.24,-206.14 736.24,-163.43 717.89,-139.68"/>
<polygon fill="midnightblue" stroke="midnightblue" points="720.52,-137.36 711.64,-131.59 714.98,-141.64 720.52,-137.36"/>
</g>
<!-- Node6 -->
<g id="node6" class="node">
<title>Node6</title>
<g id="a_node6"><a xlink:title=" ">
<polygon fill="none" stroke="#bfbfbf" points="0,-56.5 0,-75.5 64,-75.5 64,-56.5 0,-56.5"/>
<text text-anchor="middle" x="32" y="-63.5" font-family="Helvetica,sans-Serif" font-size="10.00">algorithm</text>
</a>
</g>
</g>
<!-- Node1&#45;&gt;Node6 -->
<g id="edge33" class="edge">
<title>Node1&#45;&gt;Node6</title>
<path fill="none" stroke="midnightblue" d="M751.14,-224.5C644.74,-201.22 339.48,-134.42 74.05,-76.23"/>
<polygon fill="midnightblue" stroke="midnightblue" points="74.75,-72.8 64.23,-74.08 73.25,-79.64 74.75,-72.8"/>
</g>
<!-- Node26 -->
<g id="node26" class="node">
<title>Node26</title>
<g id="a_node26"><a xlink:href="_hook_8h.html" target="_top" xlink:title=" ">
<polygon fill="none" stroke="black" points="794,-168.5 794,-187.5 844,-187.5 844,-168.5 794,-168.5"/>
<text text-anchor="middle" x="819" y="-175.5" font-family="Helvetica,sans-Serif" font-size="10.00">hook.h</text>
</a>
</g>
</g>
<!-- Node1&#45;&gt;Node26 -->
<g id="edge25" class="edge">
<title>Node1&#45;&gt;Node26</title>
<path fill="none" stroke="midnightblue" d="M794.79,-224.08C798.76,-216.69 804.53,-205.95 809.43,-196.81"/>
<polygon fill="midnightblue" stroke="midnightblue" points="812.65,-198.22 814.3,-187.75 806.49,-194.91 812.65,-198.22"/>
</g>
<!-- Node30 -->
<g id="node30" class="node">
<title>Node30</title>
<g id="a_node30"><a xlink:title=" ">
<polygon fill="none" stroke="#bfbfbf" points="1051,-112.5 1051,-131.5 1099,-131.5 1099,-112.5 1051,-112.5"/>
<text text-anchor="middle" x="1075" y="-119.5" font-family="Helvetica,sans-Serif" font-size="10.00">time.h</text>
</a>
</g>
</g>
<!-- Node1&#45;&gt;Node30 -->
<g id="edge34" class="edge">
<title>Node1&#45;&gt;Node30</title>
<path fill="none" stroke="midnightblue" d="M812.36,-224.37C862.73,-204.93 985.16,-157.67 1043.32,-135.23"/>
<polygon fill="midnightblue" stroke="midnightblue" points="1044.67,-138.46 1052.74,-131.59 1042.15,-131.93 1044.67,-138.46"/>
</g>
<!-- Node3 -->
<g id="node3" class="node">
<title>Node3</title>
<g id="a_node3"><a xlink:href="_singleton_8h.html" target="_top" xlink:title=" ">
<polygon fill="none" stroke="black" points="82.5,-56.5 82.5,-75.5 153.5,-75.5 153.5,-56.5 82.5,-56.5"/>
<text text-anchor="middle" x="118" y="-63.5" font-family="Helvetica,sans-Serif" font-size="10.00">Singleton.h</text>
</a>
</g>
</g>
<!-- Node2&#45;&gt;Node3 -->
<g id="edge2" class="edge">
<title>Node2&#45;&gt;Node3</title>
<path fill="none" stroke="midnightblue" d="M676.95,-119.81C597.87,-116.2 366.27,-104 163.72,-75.94"/>
<polygon fill="midnightblue" stroke="midnightblue" points="164.19,-72.47 153.8,-74.54 163.22,-79.4 164.19,-72.47"/>
</g>
<!-- Node5 -->
<g id="node5" class="node">
<title>Node5</title>
<g id="a_node5"><a xlink:href="blowfish_8h.html" target="_top" xlink:title=" ">
<polygon fill="none" stroke="black" points="172,-56.5 172,-75.5 238,-75.5 238,-56.5 172,-56.5"/>
<text text-anchor="middle" x="205" y="-63.5" font-family="Helvetica,sans-Serif" font-size="10.00">blowfish.h</text>
</a>
</g>
</g>
<!-- Node2&#45;&gt;Node5 -->
<g id="edge4" class="edge">
<title>Node2&#45;&gt;Node5</title>
<path fill="none" stroke="midnightblue" d="M676.98,-119.35C606.58,-114.99 416.46,-101.74 248.42,-76.06"/>
<polygon fill="midnightblue" stroke="midnightblue" points="248.82,-72.59 238.41,-74.52 247.75,-79.5 248.82,-72.59"/>
</g>
<!-- Node2&#45;&gt;Node6 -->
<g id="edge5" class="edge">
<title>Node2&#45;&gt;Node6</title>
<path fill="none" stroke="midnightblue" d="M676.81,-120.45C589.01,-118.42 312.6,-109.74 74.39,-75.99"/>
<polygon fill="midnightblue" stroke="midnightblue" points="74.54,-72.48 64.15,-74.52 73.55,-79.4 74.54,-72.48"/>
</g>
<!-- Node7 -->
<g id="node7" class="node">
<title>Node7</title>
<g id="a_node7"><a xlink:title=" ">
<polygon fill="none" stroke="#bfbfbf" points="256,-56.5 256,-75.5 298,-75.5 298,-56.5 256,-56.5"/>
<text text-anchor="middle" x="277" y="-63.5" font-family="Helvetica,sans-Serif" font-size="10.00">array</text>
</a>
</g>
</g>
<!-- Node2&#45;&gt;Node7 -->
<g id="edge6" class="edge">
<title>Node2&#45;&gt;Node7</title>
<path fill="none" stroke="midnightblue" d="M676.74,-119.54C612.66,-115.88 451.39,-104.57 308.04,-75.87"/>
<polygon fill="midnightblue" stroke="midnightblue" points="308.68,-72.43 298.19,-73.87 307.29,-79.29 308.68,-72.43"/>
</g>
<!-- Node8 -->
<g id="node8" class="node">
<title>Node8</title>
<g id="a_node8"><a xlink:title=" ">
<polygon fill="none" stroke="#bfbfbf" points="316,-56.5 316,-75.5 384,-75.5 384,-56.5 316,-56.5"/>
<text text-anchor="middle" x="350" y="-63.5" font-family="Helvetica,sans-Serif" font-size="10.00">filesystem</text>
</a>
</g>
</g>
<!-- Node2&#45;&gt;Node8 -->
<g id="edge7" class="edge">
<title>Node2&#45;&gt;Node8</title>
<path fill="none" stroke="midnightblue" d="M676.94,-117.56C623.78,-110.9 504.54,-95.36 394.19,-76.12"/>
<polygon fill="midnightblue" stroke="midnightblue" points="394.68,-72.65 384.23,-74.37 393.47,-79.55 394.68,-72.65"/>
</g>
<!-- Node9 -->
<g id="node9" class="node">
<title>Node9</title>
<g id="a_node9"><a xlink:title=" ">
<polygon fill="none" stroke="#bfbfbf" points="402.5,-56.5 402.5,-75.5 467.5,-75.5 467.5,-56.5 402.5,-56.5"/>
<text text-anchor="middle" x="435" y="-63.5" font-family="Helvetica,sans-Serif" font-size="10.00">functional</text>
</a>
</g>
</g>
<!-- Node2&#45;&gt;Node9 -->
<g id="edge8" class="edge">
<title>Node2&#45;&gt;Node9</title>
<path fill="none" stroke="midnightblue" d="M676.89,-115.6C635.59,-107.64 555.82,-92.14 477.58,-76.09"/>
<polygon fill="midnightblue" stroke="midnightblue" points="478.05,-72.62 467.55,-74.03 476.64,-79.47 478.05,-72.62"/>
</g>
<!-- Node10 -->
<g id="node10" class="node">
<title>Node10</title>
<g id="a_node10"><a xlink:title=" ">
<polygon fill="none" stroke="#bfbfbf" points="486,-56.5 486,-75.5 518,-75.5 518,-56.5 486,-56.5"/>
<text text-anchor="middle" x="502" y="-63.5" font-family="Helvetica,sans-Serif" font-size="10.00">list</text>
</a>
</g>
</g>
<!-- Node2&#45;&gt;Node10 -->
<g id="edge9" class="edge">
<title>Node2&#45;&gt;Node10</title>
<path fill="none" stroke="midnightblue" d="M676.71,-114.75C643.26,-107.17 585.76,-93.52 527.75,-76"/>
<polygon fill="midnightblue" stroke="midnightblue" points="528.65,-72.62 518.06,-73.04 526.6,-79.31 528.65,-72.62"/>
</g>
<!-- Node11 -->
<g id="node11" class="node">
<title>Node11</title>
<g id="a_node11"><a xlink:title=" ">
<polygon fill="none" stroke="#bfbfbf" points="536,-56.5 536,-75.5 574,-75.5 574,-56.5 536,-56.5"/>
<text text-anchor="middle" x="555" y="-63.5" font-family="Helvetica,sans-Serif" font-size="10.00">map</text>
</a>
</g>
</g>
<!-- Node2&#45;&gt;Node11 -->
<g id="edge10" class="edge">
<title>Node2&#45;&gt;Node11</title>
<path fill="none" stroke="midnightblue" d="M681.23,-112.44C654.89,-102.96 612.4,-87.67 584.1,-77.47"/>
<polygon fill="midnightblue" stroke="midnightblue" points="584.96,-74.07 574.36,-73.97 582.59,-80.65 584.96,-74.07"/>
</g>
<!-- Node12 -->
<g id="node12" class="node">
<title>Node12</title>
<g id="a_node12"><a xlink:title=" ">
<polygon fill="none" stroke="#bfbfbf" points="592,-56.5 592,-75.5 624,-75.5 624,-56.5 592,-56.5"/>
<text text-anchor="middle" x="608" y="-63.5" font-family="Helvetica,sans-Serif" font-size="10.00">set</text>
</a>
</g>
</g>
<!-- Node2&#45;&gt;Node12 -->
<g id="edge11" class="edge">
<title>Node2&#45;&gt;Node12</title>
<path fill="none" stroke="midnightblue" d="M689.42,-112.32C674,-103.74 650.19,-90.49 632.29,-80.52"/>
<polygon fill="midnightblue" stroke="midnightblue" points="633.99,-77.46 623.55,-75.65 630.58,-83.58 633.99,-77.46"/>
</g>
<!-- Node13 -->
<g id="node13" class="node">
<title>Node13</title>
<g id="a_node13"><a xlink:title=" ">
<polygon fill="none" stroke="#bfbfbf" points="642,-56.5 642,-75.5 698,-75.5 698,-56.5 642,-56.5"/>
<text text-anchor="middle" x="670" y="-63.5" font-family="Helvetica,sans-Serif" font-size="10.00">sstream</text>
</a>
</g>
</g>
<!-- Node2&#45;&gt;Node13 -->
<g id="edge12" class="edge">
<title>Node2&#45;&gt;Node13</title>
<path fill="none" stroke="midnightblue" d="M699.22,-112.08C694.33,-104.53 687.17,-93.49 681.17,-84.23"/>
<polygon fill="midnightblue" stroke="midnightblue" points="684.05,-82.24 675.67,-75.75 678.17,-86.05 684.05,-82.24"/>
</g>
<!-- Node14 -->
<g id="node14" class="node">
<title>Node14</title>
<g id="a_node14"><a xlink:title=" ">
<polygon fill="none" stroke="#bfbfbf" points="716,-56.5 716,-75.5 766,-75.5 766,-56.5 716,-56.5"/>
<text text-anchor="middle" x="741" y="-63.5" font-family="Helvetica,sans-Serif" font-size="10.00">stdio.h</text>
</a>
</g>
</g>
<!-- Node2&#45;&gt;Node14 -->
<g id="edge13" class="edge">
<title>Node2&#45;&gt;Node14</title>
<path fill="none" stroke="midnightblue" d="M710.94,-112.08C715.98,-104.53 723.34,-93.49 729.51,-84.23"/>
<polygon fill="midnightblue" stroke="midnightblue" points="732.53,-86.01 735.17,-75.75 726.71,-82.13 732.53,-86.01"/>
</g>
<!-- Node15 -->
<g id="node15" class="node">
<title>Node15</title>
<g id="a_node15"><a xlink:title=" ">
<polygon fill="none" stroke="#bfbfbf" points="784,-56.5 784,-75.5 828,-75.5 828,-56.5 784,-56.5"/>
<text text-anchor="middle" x="806" y="-63.5" font-family="Helvetica,sans-Serif" font-size="10.00">string</text>
</a>
</g>
</g>
<!-- Node2&#45;&gt;Node15 -->
<g id="edge14" class="edge">
<title>Node2&#45;&gt;Node15</title>
<path fill="none" stroke="midnightblue" d="M721.23,-112.32C737.35,-103.7 762.3,-90.36 780.96,-80.39"/>
<polygon fill="midnightblue" stroke="midnightblue" points="782.64,-83.46 789.81,-75.65 779.34,-77.28 782.64,-83.46"/>
</g>
<!-- Node16 -->
<g id="node16" class="node">
<title>Node16</title>
<g id="a_node16"><a xlink:title=" ">
<polygon fill="none" stroke="#bfbfbf" points="1556.5,-56.5 1556.5,-75.5 1607.5,-75.5 1607.5,-56.5 1556.5,-56.5"/>
<text text-anchor="middle" x="1582" y="-63.5" font-family="Helvetica,sans-Serif" font-size="10.00">variant</text>
</a>
</g>
</g>
<!-- Node2&#45;&gt;Node16 -->
<g id="edge15" class="edge">
<title>Node2&#45;&gt;Node16</title>
<path fill="none" stroke="midnightblue" d="M733.36,-114.26C737.9,-113.37 742.56,-112.57 747,-112 1096.73,-66.98 1193.21,-127.46 1546.15,-75.77"/>
<polygon fill="midnightblue" stroke="midnightblue" points="1546.75,-79.22 1556.13,-74.29 1545.72,-72.29 1546.75,-79.22"/>
</g>
<!-- Node17 -->
<g id="node17" class="node">
<title>Node17</title>
<g id="a_node17"><a xlink:title=" ">
<polygon fill="none" stroke="#bfbfbf" points="846,-56.5 846,-75.5 914,-75.5 914,-56.5 846,-56.5"/>
<text text-anchor="middle" x="880" y="-63.5" font-family="Helvetica,sans-Serif" font-size="10.00">windows.h</text>
</a>
</g>
</g>
<!-- Node2&#45;&gt;Node17 -->
<g id="edge16" class="edge">
<title>Node2&#45;&gt;Node17</title>
<path fill="none" stroke="midnightblue" d="M732.73,-112.44C762.43,-103.28 809.72,-88.69 842.67,-78.52"/>
<polygon fill="midnightblue" stroke="midnightblue" points="843.88,-81.81 852.4,-75.52 841.81,-75.12 843.88,-81.81"/>
</g>
<!-- Node18 -->
<g id="node18" class="node">
<title>Node18</title>
<g id="a_node18"><a xlink:title=" ">
<polygon fill="none" stroke="#bfbfbf" points="932,-56.5 932,-75.5 1036,-75.5 1036,-56.5 932,-56.5"/>
<text text-anchor="middle" x="984" y="-63.5" font-family="Helvetica,sans-Serif" font-size="10.00">FLCoreCommon.h</text>
</a>
</g>
</g>
<!-- Node2&#45;&gt;Node18 -->
<g id="edge17" class="edge">
<title>Node2&#45;&gt;Node18</title>
<path fill="none" stroke="midnightblue" d="M733.45,-114.81C737.98,-113.85 742.61,-112.89 747,-112 808.51,-99.57 879.21,-86.28 927.27,-77.39"/>
<polygon fill="midnightblue" stroke="midnightblue" points="927.97,-80.81 937.17,-75.56 926.7,-73.93 927.97,-80.81"/>
</g>
<!-- Node19 -->
<g id="node19" class="node">
<title>Node19</title>
<g id="a_node19"><a xlink:title=" ">
<polygon fill="none" stroke="#bfbfbf" points="1054,-56.5 1054,-75.5 1142,-75.5 1142,-56.5 1054,-56.5"/>
<text text-anchor="middle" x="1098" y="-63.5" font-family="Helvetica,sans-Serif" font-size="10.00">FLCoreDALib.h</text>
</a>
</g>
</g>
<!-- Node2&#45;&gt;Node19 -->
<g id="edge18" class="edge">
<title>Node2&#45;&gt;Node19</title>
<path fill="none" stroke="midnightblue" d="M733.4,-114.55C737.94,-113.62 742.59,-112.74 747,-112 875.37,-90.54 911.24,-94.94 1043.65,-76.13"/>
<polygon fill="midnightblue" stroke="midnightblue" points="1044.38,-79.56 1053.78,-74.67 1043.38,-72.63 1044.38,-79.56"/>
</g>
<!-- Node20 -->
<g id="node20" class="node">
<title>Node20</title>
<g id="a_node20"><a xlink:title=" ">
<polygon fill="none" stroke="#bfbfbf" points="1160,-56.5 1160,-75.5 1286,-75.5 1286,-56.5 1160,-56.5"/>
<text text-anchor="middle" x="1223" y="-63.5" font-family="Helvetica,sans-Serif" font-size="10.00">FLCoreRemoteClient.h</text>
</a>
</g>
</g>
<!-- Node2&#45;&gt;Node20 -->
<g id="edge19" class="edge">
<title>Node2&#45;&gt;Node20</title>
<path fill="none" stroke="midnightblue" d="M733.38,-114.43C737.92,-113.52 742.58,-112.67 747,-112 922.02,-85.55 970.03,-94.83 1149.74,-76.09"/>
<polygon fill="midnightblue" stroke="midnightblue" points="1150.22,-79.56 1159.8,-75.03 1149.49,-72.6 1150.22,-79.56"/>
</g>
<!-- Node21 -->
<g id="node21" class="node">
<title>Node21</title>
<g id="a_node21"><a xlink:title=" ">
<polygon fill="none" stroke="#bfbfbf" points="1304,-56.5 1304,-75.5 1394,-75.5 1394,-56.5 1304,-56.5"/>
<text text-anchor="middle" x="1349" y="-63.5" font-family="Helvetica,sans-Serif" font-size="10.00">FLCoreServer.h</text>
</a>
</g>
</g>
<!-- Node2&#45;&gt;Node21 -->
<g id="edge20" class="edge">
<title>Node2&#45;&gt;Node21</title>
<path fill="none" stroke="midnightblue" d="M733.37,-114.34C737.91,-113.44 742.57,-112.62 747,-112 985.44,-78.8 1050.76,-103.4 1293.76,-76.02"/>
<polygon fill="midnightblue" stroke="midnightblue" points="1294.43,-79.47 1303.97,-74.85 1293.63,-72.51 1294.43,-79.47"/>
</g>
<!-- Node22 -->
<g id="node22" class="node">
<title>Node22</title>
<g id="a_node22"><a xlink:href="_serialization_8hpp.html" target="_top" xlink:title=" ">
<polygon fill="none" stroke="black" points="1412,-56.5 1412,-75.5 1538,-75.5 1538,-56.5 1412,-56.5"/>
<text text-anchor="middle" x="1475" y="-63.5" font-family="Helvetica,sans-Serif" font-size="10.00">Tools/Serialization.hpp</text>
</a>
</g>
</g>
<!-- Node2&#45;&gt;Node22 -->
<g id="edge21" class="edge">
<title>Node2&#45;&gt;Node22</title>
<path fill="none" stroke="midnightblue" d="M733.36,-114.29C737.9,-113.4 742.57,-112.59 747,-112 1033.17,-73.73 1110.45,-101.49 1401.8,-76.04"/>
<polygon fill="midnightblue" stroke="midnightblue" points="1402.16,-79.52 1411.81,-75.15 1401.54,-72.55 1402.16,-79.52"/>
</g>
<!-- Node4 -->
<g id="node4" class="node">
<title>Node4</title>
<g id="a_node4"><a xlink:title=" ">
<polygon fill="none" stroke="#bfbfbf" points="89,-0.5 89,-19.5 147,-19.5 147,-0.5 89,-0.5"/>
<text text-anchor="middle" x="118" y="-7.5" font-family="Helvetica,sans-Serif" font-size="10.00">memory</text>
</a>
</g>
</g>
<!-- Node3&#45;&gt;Node4 -->
<g id="edge3" class="edge">
<title>Node3&#45;&gt;Node4</title>
<path fill="none" stroke="midnightblue" d="M118,-56.08C118,-49.01 118,-38.86 118,-29.99"/>
<polygon fill="midnightblue" stroke="midnightblue" points="121.5,-29.75 118,-19.75 114.5,-29.75 121.5,-29.75"/>
</g>
<!-- Node23 -->
<g id="node23" class="node">
<title>Node23</title>
<g id="a_node23"><a xlink:title=" ">
<polygon fill="none" stroke="#bfbfbf" points="1346.5,-0.5 1346.5,-19.5 1401.5,-19.5 1401.5,-0.5 1346.5,-0.5"/>
<text text-anchor="middle" x="1374" y="-7.5" font-family="Helvetica,sans-Serif" font-size="10.00">fstream</text>
</a>
</g>
</g>
<!-- Node22&#45;&gt;Node23 -->
<g id="edge22" class="edge">
<title>Node22&#45;&gt;Node23</title>
<path fill="none" stroke="midnightblue" d="M1458.77,-56.32C1442.65,-47.7 1417.7,-34.36 1399.04,-24.39"/>
<polygon fill="midnightblue" stroke="midnightblue" points="1400.66,-21.28 1390.19,-19.65 1397.36,-27.46 1400.66,-21.28"/>
</g>
<!-- Node24 -->
<g id="node24" class="node">
<title>Node24</title>
<g id="a_node24"><a xlink:title=" ">
<polygon fill="none" stroke="#bfbfbf" points="1420,-0.5 1420,-19.5 1530,-19.5 1530,-0.5 1420,-0.5"/>
<text text-anchor="middle" x="1475" y="-7.5" font-family="Helvetica,sans-Serif" font-size="10.00">nlohmann/json.hpp</text>
</a>
</g>
</g>
<!-- Node22&#45;&gt;Node24 -->
<g id="edge23" class="edge">
<title>Node22&#45;&gt;Node24</title>
<path fill="none" stroke="midnightblue" d="M1475,-56.08C1475,-49.01 1475,-38.86 1475,-29.99"/>
<polygon fill="midnightblue" stroke="midnightblue" points="1478.5,-29.75 1475,-19.75 1471.5,-29.75 1478.5,-29.75"/>
</g>
<!-- Node25 -->
<g id="node25" class="node">
<title>Node25</title>
<g id="a_node25"><a xlink:title=" ">
<polygon fill="none" stroke="#bfbfbf" points="1548.5,-0.5 1548.5,-19.5 1601.5,-19.5 1601.5,-0.5 1548.5,-0.5"/>
<text text-anchor="middle" x="1575" y="-7.5" font-family="Helvetica,sans-Serif" font-size="10.00">refl.hpp</text>
</a>
</g>
</g>
<!-- Node22&#45;&gt;Node25 -->
<g id="edge24" class="edge">
<title>Node22&#45;&gt;Node25</title>
<path fill="none" stroke="midnightblue" d="M1491.07,-56.32C1506.96,-47.74 1531.51,-34.49 1549.96,-24.52"/>
<polygon fill="midnightblue" stroke="midnightblue" points="1551.84,-27.49 1558.97,-19.65 1548.51,-21.33 1551.84,-27.49"/>
</g>
<!-- Node26&#45;&gt;Node2 -->
<g id="edge26" class="edge">
<title>Node26&#45;&gt;Node2</title>
<path fill="none" stroke="midnightblue" d="M800.94,-168.44C782.43,-159.68 753.42,-145.94 732.14,-135.86"/>
<polygon fill="midnightblue" stroke="midnightblue" points="733.51,-132.63 722.98,-131.52 730.52,-138.96 733.51,-132.63"/>
</g>
<!-- Node26&#45;&gt;Node16 -->
<g id="edge31" class="edge">
<title>Node26&#45;&gt;Node16</title>
<path fill="none" stroke="midnightblue" d="M807.24,-168.41C790.45,-155.15 763.37,-129.42 780,-112 808.18,-82.46 1446.29,-82.3 1546.05,-75.27"/>
<polygon fill="midnightblue" stroke="midnightblue" points="1546.52,-78.74 1556.13,-74.28 1545.83,-71.78 1546.52,-78.74"/>
</g>
<!-- Node27 -->
<g id="node27" class="node">
<title>Node27</title>
<g id="a_node27"><a xlink:href="flcodec_8h.html" target="_top" xlink:title=" ">
<polygon fill="none" stroke="black" points="789,-112.5 789,-131.5 849,-131.5 849,-112.5 789,-112.5"/>
<text text-anchor="middle" x="819" y="-119.5" font-family="Helvetica,sans-Serif" font-size="10.00">flcodec.h</text>
</a>
</g>
</g>
<!-- Node26&#45;&gt;Node27 -->
<g id="edge27" class="edge">
<title>Node26&#45;&gt;Node27</title>
<path fill="none" stroke="midnightblue" d="M819,-168.08C819,-161.01 819,-150.86 819,-141.99"/>
<polygon fill="midnightblue" stroke="midnightblue" points="822.5,-141.75 819,-131.75 815.5,-141.75 822.5,-141.75"/>
</g>
<!-- Node29 -->
<g id="node29" class="node">
<title>Node29</title>
<g id="a_node29"><a xlink:title=" ">
<polygon fill="none" stroke="#bfbfbf" points="867.5,-112.5 867.5,-131.5 958.5,-131.5 958.5,-112.5 867.5,-112.5"/>
<text text-anchor="middle" x="913" y="-119.5" font-family="Helvetica,sans-Serif" font-size="10.00">spdlog/logger.h</text>
</a>
</g>
</g>
<!-- Node26&#45;&gt;Node29 -->
<g id="edge29" class="edge">
<title>Node26&#45;&gt;Node29</title>
<path fill="none" stroke="midnightblue" d="M834.1,-168.32C848.9,-159.82 871.69,-146.73 888.98,-136.8"/>
<polygon fill="midnightblue" stroke="midnightblue" points="891.01,-139.67 897.93,-131.65 887.52,-133.6 891.01,-139.67"/>
</g>
<!-- Node26&#45;&gt;Node30 -->
<g id="edge30" class="edge">
<title>Node26&#45;&gt;Node30</title>
<path fill="none" stroke="midnightblue" d="M844.2,-172.49C883.95,-165.24 963.81,-150.2 1041.01,-132.11"/>
<polygon fill="midnightblue" stroke="midnightblue" points="1041.97,-135.48 1050.9,-129.77 1040.36,-128.67 1041.97,-135.48"/>
</g>
<!-- Node31 -->
<g id="node31" class="node">
<title>Node31</title>
<g id="a_node31"><a xlink:title=" ">
<polygon fill="none" stroke="#bfbfbf" points="977,-112.5 977,-131.5 1033,-131.5 1033,-112.5 977,-112.5"/>
<text text-anchor="middle" x="1005" y="-119.5" font-family="Helvetica,sans-Serif" font-size="10.00">plugin.h</text>
</a>
</g>
</g>
<!-- Node26&#45;&gt;Node31 -->
<g id="edge32" class="edge">
<title>Node26&#45;&gt;Node31</title>
<path fill="none" stroke="midnightblue" d="M844.08,-169.72C875.72,-160.53 930.4,-144.66 967.13,-133.99"/>
<polygon fill="midnightblue" stroke="midnightblue" points="968.35,-137.28 976.98,-131.14 966.4,-130.56 968.35,-137.28"/>
</g>
<!-- Node28 -->
<g id="node28" class="node">
<title>Node28</title>
<g id="a_node28"><a xlink:title=" ">
<polygon fill="none" stroke="#bfbfbf" points="1626,-56.5 1626,-75.5 1708,-75.5 1708,-56.5 1626,-56.5"/>
<text text-anchor="middle" x="1667" y="-63.5" font-family="Helvetica,sans-Serif" font-size="10.00">FLCoreDefs.h</text>
</a>
</g>
</g>
<!-- Node27&#45;&gt;Node28 -->
<g id="edge28" class="edge">
<title>Node27&#45;&gt;Node28</title>
<path fill="none" stroke="midnightblue" d="M849.13,-113.48C852.12,-112.91 855.11,-112.4 858,-112 1189.28,-66.3 1279.67,-113.06 1615.84,-75.97"/>
<polygon fill="midnightblue" stroke="midnightblue" points="1616.31,-79.44 1625.86,-74.84 1615.53,-72.48 1616.31,-79.44"/>
</g>
</g>
</svg>
