<?xml version="1.0" encoding="UTF-8" standalone="no"?>
<!DOCTYPE svg PUBLIC "-//W3C//DTD SVG 1.1//EN"
 "http://www.w3.org/Graphics/SVG/1.1/DTD/svg11.dtd">
<!-- Generated by graphviz version 2.43.0 (0)
 -->
<!-- Title: plugins/warehouse/Warehouse.cpp Pages: 1 -->
<svg width="212pt" height="148pt"
 viewBox="0.00 0.00 211.50 148.00" xmlns="http://www.w3.org/2000/svg" xmlns:xlink="http://www.w3.org/1999/xlink">
<g id="graph0" class="graph" transform="scale(1 1) rotate(0) translate(4 144)">
<title>plugins/warehouse/Warehouse.cpp</title>
<!-- Node1 -->
<g id="node1" class="node">
<title>Node1</title>
<g id="a_node1"><a xlink:title=" ">
<polygon fill="#999999" stroke="#666666" points="187.5,-140 2.5,-140 2.5,-121 187.5,-121 187.5,-140"/>
<text text-anchor="middle" x="95" y="-128" font-family="Helvetica,sans-Serif" font-size="10.00">plugins/warehouse/Warehouse.cpp</text>
</a>
</g>
</g>
<!-- Node2 -->
<g id="node2" class="node">
<title>Node2</title>
<g id="a_node2"><a xlink:href="_warehouse_8h.html" target="_top" xlink:title=" ">
<polygon fill="white" stroke="#666666" points="80,-79.5 0,-79.5 0,-60.5 80,-60.5 80,-79.5"/>
<text text-anchor="middle" x="40" y="-67.5" font-family="Helvetica,sans-Serif" font-size="10.00">Warehouse.h</text>
</a>
</g>
</g>
<!-- Node1&#45;&gt;Node2 -->
<g id="edge1" class="edge">
<title>Node1&#45;&gt;Node2</title>
<path fill="none" stroke="#63b8ff" d="M86.88,-120.87C78.6,-112.05 65.53,-98.16 55.3,-87.27"/>
<polygon fill="#63b8ff" stroke="#63b8ff" points="57.55,-84.56 48.15,-79.67 52.45,-89.35 57.55,-84.56"/>
</g>
<!-- Node4 -->
<g id="node4" class="node">
<title>Node4</title>
<g id="a_node4"><a xlink:title=" ">
<polygon fill="#e0e0e0" stroke="#999999" points="203.5,-85 98.5,-85 98.5,-55 203.5,-55 203.5,-85"/>
<text text-anchor="start" x="106.5" y="-73" font-family="Helvetica,sans-Serif" font-size="10.00">Tools/Serialization</text>
<text text-anchor="middle" x="151" y="-62" font-family="Helvetica,sans-Serif" font-size="10.00">/Attributes.hpp</text>
</a>
</g>
</g>
<!-- Node1&#45;&gt;Node4 -->
<g id="edge3" class="edge">
<title>Node1&#45;&gt;Node4</title>
<path fill="none" stroke="#63b8ff" d="M103.26,-120.87C110.37,-113.44 120.93,-102.42 130.31,-92.62"/>
<polygon fill="#63b8ff" stroke="#63b8ff" points="133.1,-94.76 137.49,-85.11 128.05,-89.92 133.1,-94.76"/>
</g>
<!-- Node3 -->
<g id="node3" class="node">
<title>Node3</title>
<g id="a_node3"><a xlink:title=" ">
<polygon fill="#e0e0e0" stroke="#999999" points="77,-19 3,-19 3,0 77,0 77,-19"/>
<text text-anchor="middle" x="40" y="-7" font-family="Helvetica,sans-Serif" font-size="10.00">FLHook.hpp</text>
</a>
</g>
</g>
<!-- Node2&#45;&gt;Node3 -->
<g id="edge2" class="edge">
<title>Node2&#45;&gt;Node3</title>
<path fill="none" stroke="#63b8ff" d="M40,-60.37C40,-52.25 40,-39.81 40,-29.39"/>
<polygon fill="#63b8ff" stroke="#63b8ff" points="43.5,-29.17 40,-19.17 36.5,-29.17 43.5,-29.17"/>
</g>
</g>
</svg>
