<?xml version="1.0" encoding="UTF-8" standalone="no"?>
<!DOCTYPE svg PUBLIC "-//W3C//DTD SVG 1.1//EN"
 "http://www.w3.org/Graphics/SVG/1.1/DTD/svg11.dtd">
<!-- Generated by graphviz version 2.43.0 (0)
 -->
<!-- Title: source/ZoneUtilities.cpp Pages: 1 -->
<svg width="1716pt" height="252pt"
 viewBox="0.00 0.00 1716.00 252.00" xmlns="http://www.w3.org/2000/svg" xmlns:xlink="http://www.w3.org/1999/xlink">
<g id="graph0" class="graph" transform="scale(1 1) rotate(0) translate(4 248)">
<title>source/ZoneUtilities.cpp</title>
<!-- Node1 -->
<g id="node1" class="node">
<title>Node1</title>
<g id="a_node1"><a xlink:title=" ">
<polygon fill="#bfbfbf" stroke="black" points="783.5,-224.5 783.5,-243.5 918.5,-243.5 918.5,-224.5 783.5,-224.5"/>
<text text-anchor="middle" x="851" y="-231.5" font-family="Helvetica,sans-Serif" font-size="10.00">source/ZoneUtilities.cpp</text>
</a>
</g>
</g>
<!-- Node2 -->
<g id="node2" class="node">
<title>Node2</title>
<g id="a_node2"><a xlink:href="_hook_8h.html" target="_top" xlink:title=" ">
<polygon fill="none" stroke="black" points="917.5,-168.5 917.5,-187.5 968.5,-187.5 968.5,-168.5 917.5,-168.5"/>
<text text-anchor="middle" x="943" y="-175.5" font-family="Helvetica,sans-Serif" font-size="10.00">Hook.h</text>
</a>
</g>
</g>
<!-- Node1&#45;&gt;Node2 -->
<g id="edge1" class="edge">
<title>Node1&#45;&gt;Node2</title>
<path fill="none" stroke="midnightblue" d="M865.78,-224.32C880.27,-215.82 902.57,-202.73 919.49,-192.8"/>
<polygon fill="midnightblue" stroke="midnightblue" points="921.4,-195.74 928.26,-187.65 917.86,-189.7 921.4,-195.74"/>
</g>
<!-- Node3 -->
<g id="node3" class="node">
<title>Node3</title>
<g id="a_node3"><a xlink:href="global_8h.html" target="_top" xlink:title=" ">
<polygon fill="none" stroke="black" points="691,-112.5 691,-131.5 747,-131.5 747,-112.5 691,-112.5"/>
<text text-anchor="middle" x="719" y="-119.5" font-family="Helvetica,sans-Serif" font-size="10.00">global.h</text>
</a>
</g>
</g>
<!-- Node1&#45;&gt;Node3 -->
<g id="edge32" class="edge">
<title>Node1&#45;&gt;Node3</title>
<path fill="none" stroke="midnightblue" d="M825.55,-224.49C806.24,-217.09 779.87,-204.9 761,-188 746.18,-174.73 734.45,-155.07 727.2,-140.84"/>
<polygon fill="midnightblue" stroke="midnightblue" points="730.24,-139.09 722.73,-131.62 723.94,-142.14 730.24,-139.09"/>
</g>
<!-- Node7 -->
<g id="node7" class="node">
<title>Node7</title>
<g id="a_node7"><a xlink:title=" ">
<polygon fill="none" stroke="#bfbfbf" points="0,-56.5 0,-75.5 64,-75.5 64,-56.5 0,-56.5"/>
<text text-anchor="middle" x="32" y="-63.5" font-family="Helvetica,sans-Serif" font-size="10.00">algorithm</text>
</a>
</g>
</g>
<!-- Node1&#45;&gt;Node7 -->
<g id="edge33" class="edge">
<title>Node1&#45;&gt;Node7</title>
<path fill="none" stroke="midnightblue" d="M783.22,-225.61C714.62,-217.75 605.6,-204.23 512,-188 395.1,-167.73 365.95,-161.34 251,-132 186.07,-115.43 111.46,-92.42 68.22,-78.69"/>
<polygon fill="midnightblue" stroke="midnightblue" points="69.04,-75.27 58.45,-75.57 66.91,-81.94 69.04,-75.27"/>
</g>
<!-- Node11 -->
<g id="node11" class="node">
<title>Node11</title>
<g id="a_node11"><a xlink:title=" ">
<polygon fill="none" stroke="#bfbfbf" points="82,-56.5 82,-75.5 114,-75.5 114,-56.5 82,-56.5"/>
<text text-anchor="middle" x="98" y="-63.5" font-family="Helvetica,sans-Serif" font-size="10.00">list</text>
</a>
</g>
</g>
<!-- Node1&#45;&gt;Node11 -->
<g id="edge36" class="edge">
<title>Node1&#45;&gt;Node11</title>
<path fill="none" stroke="midnightblue" d="M800.87,-224.43C751.45,-215.83 673.85,-201.89 607,-188 393.99,-143.74 336.47,-138.54 123.64,-75.92"/>
<polygon fill="midnightblue" stroke="midnightblue" points="124.63,-72.56 114.05,-73.09 122.65,-79.28 124.63,-72.56"/>
</g>
<!-- Node12 -->
<g id="node12" class="node">
<title>Node12</title>
<g id="a_node12"><a xlink:title=" ">
<polygon fill="none" stroke="#bfbfbf" points="132,-56.5 132,-75.5 170,-75.5 170,-56.5 132,-56.5"/>
<text text-anchor="middle" x="151" y="-63.5" font-family="Helvetica,sans-Serif" font-size="10.00">map</text>
</a>
</g>
</g>
<!-- Node1&#45;&gt;Node12 -->
<g id="edge37" class="edge">
<title>Node1&#45;&gt;Node12</title>
<path fill="none" stroke="midnightblue" d="M818.21,-224.42C783.77,-215.4 728.06,-200.78 680,-188 554.14,-154.54 524.29,-139.53 397,-112 304.11,-91.91 276.23,-98.61 180.02,-75.94"/>
<polygon fill="midnightblue" stroke="midnightblue" points="180.71,-72.51 170.17,-73.57 179.08,-79.31 180.71,-72.51"/>
</g>
<!-- Node13 -->
<g id="node13" class="node">
<title>Node13</title>
<g id="a_node13"><a xlink:title=" ">
<polygon fill="none" stroke="#bfbfbf" points="188,-56.5 188,-75.5 220,-75.5 220,-56.5 188,-56.5"/>
<text text-anchor="middle" x="204" y="-63.5" font-family="Helvetica,sans-Serif" font-size="10.00">set</text>
</a>
</g>
</g>
<!-- Node1&#45;&gt;Node13 -->
<g id="edge40" class="edge">
<title>Node1&#45;&gt;Node13</title>
<path fill="none" stroke="midnightblue" d="M830.42,-224.49C776.21,-202.42 624.57,-142.91 493,-112 380.87,-85.66 345.91,-103.19 230.21,-75.82"/>
<polygon fill="midnightblue" stroke="midnightblue" points="230.8,-72.37 220.26,-73.41 229.15,-79.17 230.8,-72.37"/>
</g>
<!-- Node15 -->
<g id="node15" class="node">
<title>Node15</title>
<g id="a_node15"><a xlink:title=" ">
<polygon fill="none" stroke="#bfbfbf" points="1340,-56.5 1340,-75.5 1390,-75.5 1390,-56.5 1340,-56.5"/>
<text text-anchor="middle" x="1365" y="-63.5" font-family="Helvetica,sans-Serif" font-size="10.00">stdio.h</text>
</a>
</g>
</g>
<!-- Node1&#45;&gt;Node15 -->
<g id="edge41" class="edge">
<title>Node1&#45;&gt;Node15</title>
<path fill="none" stroke="midnightblue" d="M835.22,-224.47C822.8,-216.77 806.39,-204.18 799,-188 784.96,-157.28 775.94,-136.68 799,-112 837.8,-70.49 1237.67,-84.34 1329.79,-75.49"/>
<polygon fill="midnightblue" stroke="midnightblue" points="1330.38,-78.95 1339.87,-74.23 1329.51,-72 1330.38,-78.95"/>
</g>
<!-- Node16 -->
<g id="node16" class="node">
<title>Node16</title>
<g id="a_node16"><a xlink:title=" ">
<polygon fill="none" stroke="#bfbfbf" points="1408,-56.5 1408,-75.5 1452,-75.5 1452,-56.5 1408,-56.5"/>
<text text-anchor="middle" x="1430" y="-63.5" font-family="Helvetica,sans-Serif" font-size="10.00">string</text>
</a>
</g>
</g>
<!-- Node1&#45;&gt;Node16 -->
<g id="edge42" class="edge">
<title>Node1&#45;&gt;Node16</title>
<path fill="none" stroke="midnightblue" d="M851.41,-224.38C853.03,-201.5 860.9,-139.14 899,-112 987.26,-49.14 1273.12,-93.08 1397.67,-75.68"/>
<polygon fill="midnightblue" stroke="midnightblue" points="1398.46,-79.09 1407.78,-74.06 1397.35,-72.18 1398.46,-79.09"/>
</g>
<!-- Node18 -->
<g id="node18" class="node">
<title>Node18</title>
<g id="a_node18"><a xlink:title=" ">
<polygon fill="none" stroke="#bfbfbf" points="1540,-56.5 1540,-75.5 1608,-75.5 1608,-56.5 1540,-56.5"/>
<text text-anchor="middle" x="1574" y="-63.5" font-family="Helvetica,sans-Serif" font-size="10.00">windows.h</text>
</a>
</g>
</g>
<!-- Node1&#45;&gt;Node18 -->
<g id="edge44" class="edge">
<title>Node1&#45;&gt;Node18</title>
<path fill="none" stroke="midnightblue" d="M855.54,-224.44C860.28,-215.43 867.86,-200.82 874,-188 889.98,-154.63 877.54,-133.01 908,-112 963.01,-74.05 1426.91,-84.29 1529.8,-75.68"/>
<polygon fill="midnightblue" stroke="midnightblue" points="1530.23,-79.16 1539.81,-74.63 1529.5,-72.2 1530.23,-79.16"/>
</g>
<!-- Node30 -->
<g id="node30" class="node">
<title>Node30</title>
<g id="a_node30"><a xlink:title=" ">
<polygon fill="none" stroke="#bfbfbf" points="1105,-112.5 1105,-131.5 1153,-131.5 1153,-112.5 1105,-112.5"/>
<text text-anchor="middle" x="1129" y="-119.5" font-family="Helvetica,sans-Serif" font-size="10.00">time.h</text>
</a>
</g>
</g>
<!-- Node1&#45;&gt;Node30 -->
<g id="edge43" class="edge">
<title>Node1&#45;&gt;Node30</title>
<path fill="none" stroke="midnightblue" d="M876.82,-224.49C902.45,-215.87 942.77,-201.86 977,-188 996.91,-179.94 1001.31,-176.58 1021,-168 1047,-156.68 1076.76,-144.32 1098.45,-135.42"/>
<polygon fill="midnightblue" stroke="midnightblue" points="1099.88,-138.62 1107.81,-131.6 1097.23,-132.14 1099.88,-138.62"/>
</g>
<!-- Node31 -->
<g id="node31" class="node">
<title>Node31</title>
<g id="a_node31"><a xlink:title=" ">
<polygon fill="none" stroke="#bfbfbf" points="1171,-112.5 1171,-131.5 1227,-131.5 1227,-112.5 1171,-112.5"/>
<text text-anchor="middle" x="1199" y="-119.5" font-family="Helvetica,sans-Serif" font-size="10.00">plugin.h</text>
</a>
</g>
</g>
<!-- Node1&#45;&gt;Node31 -->
<g id="edge39" class="edge">
<title>Node1&#45;&gt;Node31</title>
<path fill="none" stroke="midnightblue" d="M888.91,-224.44C922.12,-216.49 971.44,-203.53 1013,-188 1032.37,-180.76 1035.75,-175.55 1055,-168 1090.34,-154.15 1131.81,-141.56 1161.15,-133.24"/>
<polygon fill="midnightblue" stroke="midnightblue" points="1162.31,-136.55 1170.99,-130.48 1160.42,-129.81 1162.31,-136.55"/>
</g>
<!-- Node32 -->
<g id="node32" class="node">
<title>Node32</title>
<g id="a_node32"><a xlink:title=" ">
<polygon fill="none" stroke="#bfbfbf" points="1063.5,-168.5 1063.5,-187.5 1110.5,-187.5 1110.5,-168.5 1063.5,-168.5"/>
<text text-anchor="middle" x="1087" y="-175.5" font-family="Helvetica,sans-Serif" font-size="10.00">cmath</text>
</a>
</g>
</g>
<!-- Node1&#45;&gt;Node32 -->
<g id="edge34" class="edge">
<title>Node1&#45;&gt;Node32</title>
<path fill="none" stroke="midnightblue" d="M888.98,-224.48C928.86,-215.5 993.37,-200.91 1049,-188 1050.44,-187.66 1051.92,-187.32 1053.41,-186.97"/>
<polygon fill="midnightblue" stroke="midnightblue" points="1054.36,-190.35 1063.29,-184.65 1052.76,-183.53 1054.36,-190.35"/>
</g>
<!-- Node33 -->
<g id="node33" class="node">
<title>Node33</title>
<g id="a_node33"><a xlink:title=" ">
<polygon fill="none" stroke="#bfbfbf" points="1128.5,-168.5 1128.5,-187.5 1175.5,-187.5 1175.5,-168.5 1128.5,-168.5"/>
<text text-anchor="middle" x="1152" y="-175.5" font-family="Helvetica,sans-Serif" font-size="10.00">float.h</text>
</a>
</g>
</g>
<!-- Node1&#45;&gt;Node33 -->
<g id="edge35" class="edge">
<title>Node1&#45;&gt;Node33</title>
<path fill="none" stroke="midnightblue" d="M913.61,-224.49C966.01,-216.92 1042.92,-204.78 1118.18,-188.23"/>
<polygon fill="midnightblue" stroke="midnightblue" points="1119.31,-191.56 1128.31,-185.97 1117.79,-184.73 1119.31,-191.56"/>
</g>
<!-- Node34 -->
<g id="node34" class="node">
<title>Node34</title>
<g id="a_node34"><a xlink:title=" ">
<polygon fill="none" stroke="#bfbfbf" points="1193.5,-168.5 1193.5,-187.5 1244.5,-187.5 1244.5,-168.5 1193.5,-168.5"/>
<text text-anchor="middle" x="1219" y="-175.5" font-family="Helvetica,sans-Serif" font-size="10.00">math.h</text>
</a>
</g>
</g>
<!-- Node1&#45;&gt;Node34 -->
<g id="edge38" class="edge">
<title>Node1&#45;&gt;Node34</title>
<path fill="none" stroke="midnightblue" d="M918.58,-226.4C984.09,-219.43 1086.4,-207.06 1183.48,-188.1"/>
<polygon fill="midnightblue" stroke="midnightblue" points="1184.33,-191.5 1193.46,-186.13 1182.97,-184.64 1184.33,-191.5"/>
</g>
<!-- Node2&#45;&gt;Node3 -->
<g id="edge2" class="edge">
<title>Node2&#45;&gt;Node3</title>
<path fill="none" stroke="midnightblue" d="M917.3,-170.81C877.99,-161.33 802.67,-143.17 757.02,-132.17"/>
<polygon fill="midnightblue" stroke="midnightblue" points="757.74,-128.74 747.2,-129.8 756.1,-135.54 757.74,-128.74"/>
</g>
<!-- Node17 -->
<g id="node17" class="node">
<title>Node17</title>
<g id="a_node17"><a xlink:title=" ">
<polygon fill="none" stroke="#bfbfbf" points="1470.5,-56.5 1470.5,-75.5 1521.5,-75.5 1521.5,-56.5 1470.5,-56.5"/>
<text text-anchor="middle" x="1496" y="-63.5" font-family="Helvetica,sans-Serif" font-size="10.00">variant</text>
</a>
</g>
</g>
<!-- Node2&#45;&gt;Node17 -->
<g id="edge30" class="edge">
<title>Node2&#45;&gt;Node17</title>
<path fill="none" stroke="midnightblue" d="M932.17,-168.33C916.74,-154.98 891.96,-129.12 908,-112 948.42,-68.87 1364.81,-84.32 1459.94,-75.47"/>
<polygon fill="midnightblue" stroke="midnightblue" points="1460.62,-78.91 1470.12,-74.23 1459.77,-71.96 1460.62,-78.91"/>
</g>
<!-- Node27 -->
<g id="node27" class="node">
<title>Node27</title>
<g id="a_node27"><a xlink:href="flcodec_8h.html" target="_top" xlink:title=" ">
<polygon fill="none" stroke="black" points="917,-112.5 917,-131.5 977,-131.5 977,-112.5 917,-112.5"/>
<text text-anchor="middle" x="947" y="-119.5" font-family="Helvetica,sans-Serif" font-size="10.00">flcodec.h</text>
</a>
</g>
</g>
<!-- Node2&#45;&gt;Node27 -->
<g id="edge26" class="edge">
<title>Node2&#45;&gt;Node27</title>
<path fill="none" stroke="midnightblue" d="M943.66,-168.08C944.18,-161.01 944.94,-150.86 945.59,-141.99"/>
<polygon fill="midnightblue" stroke="midnightblue" points="949.1,-141.98 946.35,-131.75 942.12,-141.47 949.1,-141.98"/>
</g>
<!-- Node29 -->
<g id="node29" class="node">
<title>Node29</title>
<g id="a_node29"><a xlink:title=" ">
<polygon fill="none" stroke="#bfbfbf" points="995.5,-112.5 995.5,-131.5 1086.5,-131.5 1086.5,-112.5 995.5,-112.5"/>
<text text-anchor="middle" x="1041" y="-119.5" font-family="Helvetica,sans-Serif" font-size="10.00">spdlog/logger.h</text>
</a>
</g>
</g>
<!-- Node2&#45;&gt;Node29 -->
<g id="edge28" class="edge">
<title>Node2&#45;&gt;Node29</title>
<path fill="none" stroke="midnightblue" d="M958.75,-168.32C974.32,-159.74 998.38,-146.49 1016.46,-136.52"/>
<polygon fill="midnightblue" stroke="midnightblue" points="1018.22,-139.55 1025.29,-131.65 1014.85,-133.42 1018.22,-139.55"/>
</g>
<!-- Node2&#45;&gt;Node30 -->
<g id="edge29" class="edge">
<title>Node2&#45;&gt;Node30</title>
<path fill="none" stroke="midnightblue" d="M968.86,-169.49C1001.8,-159.93 1058.8,-143.38 1095.16,-132.82"/>
<polygon fill="midnightblue" stroke="midnightblue" points="1096.21,-136.17 1104.83,-130.02 1094.25,-129.44 1096.21,-136.17"/>
</g>
<!-- Node2&#45;&gt;Node31 -->
<g id="edge31" class="edge">
<title>Node2&#45;&gt;Node31</title>
<path fill="none" stroke="midnightblue" d="M968.69,-172.03C1007.9,-164.38 1085.29,-149.02 1160.61,-132.25"/>
<polygon fill="midnightblue" stroke="midnightblue" points="1161.75,-135.58 1170.74,-129.98 1160.22,-128.75 1161.75,-135.58"/>
</g>
<!-- Node4 -->
<g id="node4" class="node">
<title>Node4</title>
<g id="a_node4"><a xlink:href="_singleton_8h.html" target="_top" xlink:title=" ">
<polygon fill="none" stroke="black" points="238.5,-56.5 238.5,-75.5 309.5,-75.5 309.5,-56.5 238.5,-56.5"/>
<text text-anchor="middle" x="274" y="-63.5" font-family="Helvetica,sans-Serif" font-size="10.00">Singleton.h</text>
</a>
</g>
</g>
<!-- Node3&#45;&gt;Node4 -->
<g id="edge3" class="edge">
<title>Node3&#45;&gt;Node4</title>
<path fill="none" stroke="midnightblue" d="M690.68,-117.3C677.68,-115.63 662.07,-113.66 648,-112 505.2,-95.14 466.11,-98.29 320.05,-76.03"/>
<polygon fill="midnightblue" stroke="midnightblue" points="320.23,-72.52 309.81,-74.46 319.16,-79.44 320.23,-72.52"/>
</g>
<!-- Node6 -->
<g id="node6" class="node">
<title>Node6</title>
<g id="a_node6"><a xlink:href="blowfish_8h.html" target="_top" xlink:title=" ">
<polygon fill="none" stroke="black" points="328,-56.5 328,-75.5 394,-75.5 394,-56.5 328,-56.5"/>
<text text-anchor="middle" x="361" y="-63.5" font-family="Helvetica,sans-Serif" font-size="10.00">blowfish.h</text>
</a>
</g>
</g>
<!-- Node3&#45;&gt;Node6 -->
<g id="edge5" class="edge">
<title>Node3&#45;&gt;Node6</title>
<path fill="none" stroke="midnightblue" d="M690.6,-117.21C627.07,-108.71 474.17,-88 404.48,-76.14"/>
<polygon fill="midnightblue" stroke="midnightblue" points="404.88,-72.65 394.43,-74.38 403.68,-79.55 404.88,-72.65"/>
</g>
<!-- Node3&#45;&gt;Node7 -->
<g id="edge6" class="edge">
<title>Node3&#45;&gt;Node7</title>
<path fill="none" stroke="midnightblue" d="M690.83,-120.51C601.75,-118.65 318.2,-110.35 74.27,-75.97"/>
<polygon fill="midnightblue" stroke="midnightblue" points="74.54,-72.47 64.15,-74.52 73.55,-79.4 74.54,-72.47"/>
</g>
<!-- Node8 -->
<g id="node8" class="node">
<title>Node8</title>
<g id="a_node8"><a xlink:title=" ">
<polygon fill="none" stroke="#bfbfbf" points="412,-56.5 412,-75.5 454,-75.5 454,-56.5 412,-56.5"/>
<text text-anchor="middle" x="433" y="-63.5" font-family="Helvetica,sans-Serif" font-size="10.00">array</text>
</a>
</g>
</g>
<!-- Node3&#45;&gt;Node8 -->
<g id="edge7" class="edge">
<title>Node3&#45;&gt;Node8</title>
<path fill="none" stroke="midnightblue" d="M690.75,-117.14C645.05,-110.67 551.94,-96.48 464.08,-76.03"/>
<polygon fill="midnightblue" stroke="midnightblue" points="464.76,-72.59 454.22,-73.7 463.15,-79.41 464.76,-72.59"/>
</g>
<!-- Node9 -->
<g id="node9" class="node">
<title>Node9</title>
<g id="a_node9"><a xlink:title=" ">
<polygon fill="none" stroke="#bfbfbf" points="472,-56.5 472,-75.5 540,-75.5 540,-56.5 472,-56.5"/>
<text text-anchor="middle" x="506" y="-63.5" font-family="Helvetica,sans-Serif" font-size="10.00">filesystem</text>
</a>
</g>
</g>
<!-- Node3&#45;&gt;Node9 -->
<g id="edge8" class="edge">
<title>Node3&#45;&gt;Node9</title>
<path fill="none" stroke="midnightblue" d="M690.72,-113.83C654.57,-104.67 591.64,-88.71 549.41,-78"/>
<polygon fill="midnightblue" stroke="midnightblue" points="550.23,-74.6 539.67,-75.54 548.51,-81.39 550.23,-74.6"/>
</g>
<!-- Node10 -->
<g id="node10" class="node">
<title>Node10</title>
<g id="a_node10"><a xlink:title=" ">
<polygon fill="none" stroke="#bfbfbf" points="558.5,-56.5 558.5,-75.5 623.5,-75.5 623.5,-56.5 558.5,-56.5"/>
<text text-anchor="middle" x="591" y="-63.5" font-family="Helvetica,sans-Serif" font-size="10.00">functional</text>
</a>
</g>
</g>
<!-- Node3&#45;&gt;Node10 -->
<g id="edge9" class="edge">
<title>Node3&#45;&gt;Node10</title>
<path fill="none" stroke="midnightblue" d="M698.72,-112.44C677.65,-103.56 644.48,-89.56 620.51,-79.45"/>
<polygon fill="midnightblue" stroke="midnightblue" points="621.76,-76.18 611.19,-75.52 619.04,-82.63 621.76,-76.18"/>
</g>
<!-- Node3&#45;&gt;Node11 -->
<g id="edge10" class="edge">
<title>Node3&#45;&gt;Node11</title>
<path fill="none" stroke="midnightblue" d="M690.81,-119.88C590.74,-115.76 252.13,-100.47 124.15,-75.59"/>
<polygon fill="midnightblue" stroke="midnightblue" points="124.72,-72.14 114.22,-73.55 123.31,-79 124.72,-72.14"/>
</g>
<!-- Node3&#45;&gt;Node12 -->
<g id="edge11" class="edge">
<title>Node3&#45;&gt;Node12</title>
<path fill="none" stroke="midnightblue" d="M690.87,-119.5C597.39,-114.41 296.96,-96.96 180.19,-75.72"/>
<polygon fill="midnightblue" stroke="midnightblue" points="180.61,-72.23 170.13,-73.78 179.29,-79.11 180.61,-72.23"/>
</g>
<!-- Node3&#45;&gt;Node13 -->
<g id="edge12" class="edge">
<title>Node3&#45;&gt;Node13</title>
<path fill="none" stroke="midnightblue" d="M690.7,-117.15C677.71,-115.45 662.09,-113.5 648,-112 465.41,-92.59 413.4,-115.17 230.19,-75.71"/>
<polygon fill="midnightblue" stroke="midnightblue" points="230.74,-72.25 220.23,-73.53 229.25,-79.08 230.74,-72.25"/>
</g>
<!-- Node14 -->
<g id="node14" class="node">
<title>Node14</title>
<g id="a_node14"><a xlink:title=" ">
<polygon fill="none" stroke="#bfbfbf" points="642,-56.5 642,-75.5 698,-75.5 698,-56.5 642,-56.5"/>
<text text-anchor="middle" x="670" y="-63.5" font-family="Helvetica,sans-Serif" font-size="10.00">sstream</text>
</a>
</g>
</g>
<!-- Node3&#45;&gt;Node14 -->
<g id="edge13" class="edge">
<title>Node3&#45;&gt;Node14</title>
<path fill="none" stroke="midnightblue" d="M710.91,-112.08C703.84,-104.3 693.41,-92.8 684.85,-83.37"/>
<polygon fill="midnightblue" stroke="midnightblue" points="687.25,-80.8 677.94,-75.75 682.07,-85.51 687.25,-80.8"/>
</g>
<!-- Node3&#45;&gt;Node15 -->
<g id="edge14" class="edge">
<title>Node3&#45;&gt;Node15</title>
<path fill="none" stroke="midnightblue" d="M747.37,-114.33C751.91,-113.43 756.57,-112.61 761,-112 1009.14,-77.77 1078.62,-115.65 1329.71,-75.88"/>
<polygon fill="midnightblue" stroke="midnightblue" points="1330.55,-79.28 1339.87,-74.24 1329.44,-72.37 1330.55,-79.28"/>
</g>
<!-- Node3&#45;&gt;Node16 -->
<g id="edge15" class="edge">
<title>Node3&#45;&gt;Node16</title>
<path fill="none" stroke="midnightblue" d="M747.1,-117.48C762.42,-115.65 781.73,-113.49 799,-112 1061.91,-89.34 1134.01,-120.74 1397.92,-75.79"/>
<polygon fill="midnightblue" stroke="midnightblue" points="1398.53,-79.24 1407.79,-74.09 1397.34,-72.34 1398.53,-79.24"/>
</g>
<!-- Node3&#45;&gt;Node17 -->
<g id="edge16" class="edge">
<title>Node3&#45;&gt;Node17</title>
<path fill="none" stroke="midnightblue" d="M747.12,-118.71C771.02,-116.8 806.25,-114.06 837,-112 1110.93,-93.65 1184.8,-118.2 1460.24,-75.79"/>
<polygon fill="midnightblue" stroke="midnightblue" points="1460.78,-79.25 1470.12,-74.25 1459.7,-72.33 1460.78,-79.25"/>
</g>
<!-- Node3&#45;&gt;Node18 -->
<g id="edge17" class="edge">
<title>Node3&#45;&gt;Node18</title>
<path fill="none" stroke="midnightblue" d="M747.18,-119.35C778.42,-117.53 830.31,-114.52 875,-112 1163.26,-95.78 1239.78,-113.61 1529.85,-75.95"/>
<polygon fill="midnightblue" stroke="midnightblue" points="1530.35,-79.41 1539.81,-74.64 1529.44,-72.47 1530.35,-79.41"/>
</g>
<!-- Node19 -->
<g id="node19" class="node">
<title>Node19</title>
<g id="a_node19"><a xlink:title=" ">
<polygon fill="none" stroke="#bfbfbf" points="716,-56.5 716,-75.5 820,-75.5 820,-56.5 716,-56.5"/>
<text text-anchor="middle" x="768" y="-63.5" font-family="Helvetica,sans-Serif" font-size="10.00">FLCoreCommon.h</text>
</a>
</g>
</g>
<!-- Node3&#45;&gt;Node19 -->
<g id="edge18" class="edge">
<title>Node3&#45;&gt;Node19</title>
<path fill="none" stroke="midnightblue" d="M727.09,-112.08C734.16,-104.3 744.59,-92.8 753.15,-83.37"/>
<polygon fill="midnightblue" stroke="midnightblue" points="755.93,-85.51 760.06,-75.75 750.75,-80.8 755.93,-85.51"/>
</g>
<!-- Node20 -->
<g id="node20" class="node">
<title>Node20</title>
<g id="a_node20"><a xlink:title=" ">
<polygon fill="none" stroke="#bfbfbf" points="838,-56.5 838,-75.5 926,-75.5 926,-56.5 838,-56.5"/>
<text text-anchor="middle" x="882" y="-63.5" font-family="Helvetica,sans-Serif" font-size="10.00">FLCoreDALib.h</text>
</a>
</g>
</g>
<!-- Node3&#45;&gt;Node20 -->
<g id="edge19" class="edge">
<title>Node3&#45;&gt;Node20</title>
<path fill="none" stroke="midnightblue" d="M744.83,-112.44C772.25,-103.36 815.78,-88.94 846.43,-78.78"/>
<polygon fill="midnightblue" stroke="midnightblue" points="847.9,-81.98 856.29,-75.52 845.7,-75.34 847.9,-81.98"/>
</g>
<!-- Node21 -->
<g id="node21" class="node">
<title>Node21</title>
<g id="a_node21"><a xlink:title=" ">
<polygon fill="none" stroke="#bfbfbf" points="944,-56.5 944,-75.5 1070,-75.5 1070,-56.5 944,-56.5"/>
<text text-anchor="middle" x="1007" y="-63.5" font-family="Helvetica,sans-Serif" font-size="10.00">FLCoreRemoteClient.h</text>
</a>
</g>
</g>
<!-- Node3&#45;&gt;Node21 -->
<g id="edge20" class="edge">
<title>Node3&#45;&gt;Node21</title>
<path fill="none" stroke="midnightblue" d="M747.44,-114.78C751.97,-113.83 756.61,-112.87 761,-112 824.75,-99.34 898.05,-86.1 947.94,-77.29"/>
<polygon fill="midnightblue" stroke="midnightblue" points="948.67,-80.71 957.91,-75.53 947.45,-73.82 948.67,-80.71"/>
</g>
<!-- Node22 -->
<g id="node22" class="node">
<title>Node22</title>
<g id="a_node22"><a xlink:title=" ">
<polygon fill="none" stroke="#bfbfbf" points="1088,-56.5 1088,-75.5 1178,-75.5 1178,-56.5 1088,-56.5"/>
<text text-anchor="middle" x="1133" y="-63.5" font-family="Helvetica,sans-Serif" font-size="10.00">FLCoreServer.h</text>
</a>
</g>
</g>
<!-- Node3&#45;&gt;Node22 -->
<g id="edge21" class="edge">
<title>Node3&#45;&gt;Node22</title>
<path fill="none" stroke="midnightblue" d="M747.39,-114.52C751.93,-113.6 756.58,-112.72 761,-112 898.22,-89.59 936.43,-95.42 1078.02,-76.06"/>
<polygon fill="midnightblue" stroke="midnightblue" points="1078.52,-79.53 1087.95,-74.69 1077.56,-72.6 1078.52,-79.53"/>
</g>
<!-- Node23 -->
<g id="node23" class="node">
<title>Node23</title>
<g id="a_node23"><a xlink:href="_serialization_8hpp.html" target="_top" xlink:title=" ">
<polygon fill="none" stroke="black" points="1196,-56.5 1196,-75.5 1322,-75.5 1322,-56.5 1196,-56.5"/>
<text text-anchor="middle" x="1259" y="-63.5" font-family="Helvetica,sans-Serif" font-size="10.00">Tools/Serialization.hpp</text>
</a>
</g>
</g>
<!-- Node3&#45;&gt;Node23 -->
<g id="edge22" class="edge">
<title>Node3&#45;&gt;Node23</title>
<path fill="none" stroke="midnightblue" d="M747.38,-114.41C751.92,-113.5 756.57,-112.66 761,-112 945.73,-84.52 996.31,-95.4 1185.79,-76.08"/>
<polygon fill="midnightblue" stroke="midnightblue" points="1186.21,-79.56 1195.8,-75.05 1185.49,-72.59 1186.21,-79.56"/>
</g>
<!-- Node5 -->
<g id="node5" class="node">
<title>Node5</title>
<g id="a_node5"><a xlink:title=" ">
<polygon fill="none" stroke="#bfbfbf" points="245,-0.5 245,-19.5 303,-19.5 303,-0.5 245,-0.5"/>
<text text-anchor="middle" x="274" y="-7.5" font-family="Helvetica,sans-Serif" font-size="10.00">memory</text>
</a>
</g>
</g>
<!-- Node4&#45;&gt;Node5 -->
<g id="edge4" class="edge">
<title>Node4&#45;&gt;Node5</title>
<path fill="none" stroke="midnightblue" d="M274,-56.08C274,-49.01 274,-38.86 274,-29.99"/>
<polygon fill="midnightblue" stroke="midnightblue" points="277.5,-29.75 274,-19.75 270.5,-29.75 277.5,-29.75"/>
</g>
<!-- Node24 -->
<g id="node24" class="node">
<title>Node24</title>
<g id="a_node24"><a xlink:title=" ">
<polygon fill="none" stroke="#bfbfbf" points="1130.5,-0.5 1130.5,-19.5 1185.5,-19.5 1185.5,-0.5 1130.5,-0.5"/>
<text text-anchor="middle" x="1158" y="-7.5" font-family="Helvetica,sans-Serif" font-size="10.00">fstream</text>
</a>
</g>
</g>
<!-- Node23&#45;&gt;Node24 -->
<g id="edge23" class="edge">
<title>Node23&#45;&gt;Node24</title>
<path fill="none" stroke="midnightblue" d="M1242.77,-56.32C1226.65,-47.7 1201.7,-34.36 1183.04,-24.39"/>
<polygon fill="midnightblue" stroke="midnightblue" points="1184.66,-21.28 1174.19,-19.65 1181.36,-27.46 1184.66,-21.28"/>
</g>
<!-- Node25 -->
<g id="node25" class="node">
<title>Node25</title>
<g id="a_node25"><a xlink:title=" ">
<polygon fill="none" stroke="#bfbfbf" points="1204,-0.5 1204,-19.5 1314,-19.5 1314,-0.5 1204,-0.5"/>
<text text-anchor="middle" x="1259" y="-7.5" font-family="Helvetica,sans-Serif" font-size="10.00">nlohmann/json.hpp</text>
</a>
</g>
</g>
<!-- Node23&#45;&gt;Node25 -->
<g id="edge24" class="edge">
<title>Node23&#45;&gt;Node25</title>
<path fill="none" stroke="midnightblue" d="M1259,-56.08C1259,-49.01 1259,-38.86 1259,-29.99"/>
<polygon fill="midnightblue" stroke="midnightblue" points="1262.5,-29.75 1259,-19.75 1255.5,-29.75 1262.5,-29.75"/>
</g>
<!-- Node26 -->
<g id="node26" class="node">
<title>Node26</title>
<g id="a_node26"><a xlink:title=" ">
<polygon fill="none" stroke="#bfbfbf" points="1332.5,-0.5 1332.5,-19.5 1385.5,-19.5 1385.5,-0.5 1332.5,-0.5"/>
<text text-anchor="middle" x="1359" y="-7.5" font-family="Helvetica,sans-Serif" font-size="10.00">refl.hpp</text>
</a>
</g>
</g>
<!-- Node23&#45;&gt;Node26 -->
<g id="edge25" class="edge">
<title>Node23&#45;&gt;Node26</title>
<path fill="none" stroke="midnightblue" d="M1275.07,-56.32C1290.96,-47.74 1315.51,-34.49 1333.96,-24.52"/>
<polygon fill="midnightblue" stroke="midnightblue" points="1335.84,-27.49 1342.97,-19.65 1332.51,-21.33 1335.84,-27.49"/>
</g>
<!-- Node28 -->
<g id="node28" class="node">
<title>Node28</title>
<g id="a_node28"><a xlink:title=" ">
<polygon fill="none" stroke="#bfbfbf" points="1626,-56.5 1626,-75.5 1708,-75.5 1708,-56.5 1626,-56.5"/>
<text text-anchor="middle" x="1667" y="-63.5" font-family="Helvetica,sans-Serif" font-size="10.00">FLCoreDefs.h</text>
</a>
</g>
</g>
<!-- Node27&#45;&gt;Node28 -->
<g id="edge27" class="edge">
<title>Node27&#45;&gt;Node28</title>
<path fill="none" stroke="midnightblue" d="M977.14,-113.51C980.12,-112.93 983.11,-112.41 986,-112 1260.82,-72.74 1336.28,-108.09 1615.83,-75.98"/>
<polygon fill="midnightblue" stroke="midnightblue" points="1616.33,-79.45 1625.86,-74.81 1615.52,-72.5 1616.33,-79.45"/>
</g>
</g>
</svg>
