<?xml version="1.0" encoding="UTF-8" standalone="no"?>
<!DOCTYPE svg PUBLIC "-//W3C//DTD SVG 1.1//EN"
 "http://www.w3.org/Graphics/SVG/1.1/DTD/svg11.dtd">
<!-- Generated by graphviz version 2.43.0 (0)
 -->
<!-- Title: plugins/anti_jump_disconnect/Main.cpp Pages: 1 -->
<svg width="178pt" height="203pt"
 viewBox="0.00 0.00 177.50 203.00" xmlns="http://www.w3.org/2000/svg" xmlns:xlink="http://www.w3.org/1999/xlink">
<g id="graph0" class="graph" transform="scale(1 1) rotate(0) translate(4 199)">
<title>plugins/anti_jump_disconnect/Main.cpp</title>
<!-- Node1 -->
<g id="node1" class="node">
<title>Node1</title>
<g id="a_node1"><a xlink:title=" ">
<polygon fill="#999999" stroke="#666666" points="161,-195 0,-195 0,-165 161,-165 161,-195"/>
<text text-anchor="start" x="8" y="-183" font-family="Helvetica,sans-Serif" font-size="10.00">plugins/anti_jump_disconnect</text>
<text text-anchor="middle" x="80.5" y="-172" font-family="Helvetica,sans-Serif" font-size="10.00">/Main.cpp</text>
</a>
</g>
</g>
<!-- Node2 -->
<g id="node2" class="node">
<title>Node2</title>
<g id="a_node2"><a xlink:href="anti__jump__disconnect_2_main_8h.html" target="_top" xlink:title=" ">
<polygon fill="white" stroke="#666666" points="105.5,-129 55.5,-129 55.5,-110 105.5,-110 105.5,-129"/>
<text text-anchor="middle" x="80.5" y="-117" font-family="Helvetica,sans-Serif" font-size="10.00">Main.h</text>
</a>
</g>
</g>
<!-- Node1&#45;&gt;Node2 -->
<g id="edge1" class="edge">
<title>Node1&#45;&gt;Node2</title>
<path fill="none" stroke="#63b8ff" d="M80.5,-164.84C80.5,-157.21 80.5,-147.7 80.5,-139.45"/>
<polygon fill="#63b8ff" stroke="#63b8ff" points="84,-139.27 80.5,-129.27 77,-139.27 84,-139.27"/>
</g>
<!-- Node3 -->
<g id="node3" class="node">
<title>Node3</title>
<g id="a_node3"><a xlink:href="tempban_2_main_8h.html" target="_top" xlink:title=" ">
<polygon fill="white" stroke="#666666" points="133,-74 28,-74 28,-55 133,-55 133,-74"/>
<text text-anchor="middle" x="80.5" y="-62" font-family="Helvetica,sans-Serif" font-size="10.00">../tempban/Main.h</text>
</a>
</g>
</g>
<!-- Node2&#45;&gt;Node3 -->
<g id="edge2" class="edge">
<title>Node2&#45;&gt;Node3</title>
<path fill="none" stroke="#63b8ff" d="M80.5,-109.75C80.5,-102.8 80.5,-92.85 80.5,-84.13"/>
<polygon fill="#63b8ff" stroke="#63b8ff" points="84,-84.09 80.5,-74.09 77,-84.09 84,-84.09"/>
</g>
<!-- Node4 -->
<g id="node4" class="node">
<title>Node4</title>
<g id="a_node4"><a xlink:title=" ">
<polygon fill="#e0e0e0" stroke="#999999" points="75.5,-19 1.5,-19 1.5,0 75.5,0 75.5,-19"/>
<text text-anchor="middle" x="38.5" y="-7" font-family="Helvetica,sans-Serif" font-size="10.00">FLHook.hpp</text>
</a>
</g>
</g>
<!-- Node2&#45;&gt;Node4 -->
<g id="edge5" class="edge">
<title>Node2&#45;&gt;Node4</title>
<path fill="none" stroke="#63b8ff" d="M59.98,-110C45.48,-102.77 27.15,-90.86 18.5,-74 10.86,-59.11 18.26,-40.74 26.14,-27.59"/>
<polygon fill="#63b8ff" stroke="#63b8ff" points="29.17,-29.35 31.75,-19.07 23.33,-25.5 29.17,-29.35"/>
</g>
<!-- Node5 -->
<g id="node5" class="node">
<title>Node5</title>
<g id="a_node5"><a xlink:title=" ">
<polygon fill="#e0e0e0" stroke="#999999" points="169.5,-19 113.5,-19 113.5,0 169.5,0 169.5,-19"/>
<text text-anchor="middle" x="141.5" y="-7" font-family="Helvetica,sans-Serif" font-size="10.00">plugin.h</text>
</a>
</g>
</g>
<!-- Node2&#45;&gt;Node5 -->
<g id="edge6" class="edge">
<title>Node2&#45;&gt;Node5</title>
<path fill="none" stroke="#63b8ff" d="M101.02,-110C115.52,-102.77 133.85,-90.86 142.5,-74 149.58,-60.21 148.58,-42.41 146.24,-29.16"/>
<polygon fill="#63b8ff" stroke="#63b8ff" points="149.64,-28.33 144.11,-19.3 142.8,-29.81 149.64,-28.33"/>
</g>
<!-- Node3&#45;&gt;Node4 -->
<g id="edge3" class="edge">
<title>Node3&#45;&gt;Node4</title>
<path fill="none" stroke="#63b8ff" d="M73.56,-54.75C67.63,-47.26 58.93,-36.28 51.68,-27.13"/>
<polygon fill="#63b8ff" stroke="#63b8ff" points="54.26,-24.75 45.31,-19.09 48.77,-29.1 54.26,-24.75"/>
</g>
<!-- Node3&#45;&gt;Node5 -->
<g id="edge4" class="edge">
<title>Node3&#45;&gt;Node5</title>
<path fill="none" stroke="#63b8ff" d="M90.3,-54.98C99.32,-47.15 112.91,-35.34 123.82,-25.86"/>
<polygon fill="#63b8ff" stroke="#63b8ff" points="126.27,-28.37 131.52,-19.17 121.68,-23.09 126.27,-28.37"/>
</g>
</g>
</svg>
