<?xml version="1.0" encoding="UTF-8" standalone="no"?>
<!DOCTYPE svg PUBLIC "-//W3C//DTD SVG 1.1//EN"
 "http://www.w3.org/Graphics/SVG/1.1/DTD/svg11.dtd">
<!-- Generated by graphviz version 2.43.0 (0)
 -->
<!-- Title: plugins/anti_jump_disconnect_plugin/Main.h Pages: 1 -->
<svg width="235pt" height="151pt"
 viewBox="0.00 0.00 235.00 151.00" xmlns="http://www.w3.org/2000/svg" xmlns:xlink="http://www.w3.org/1999/xlink">
<g id="graph0" class="graph" transform="scale(1 1) rotate(0) translate(4 147)">
<title>plugins/anti_jump_disconnect_plugin/Main.h</title>
<!-- Node1 -->
<g id="node1" class="node">
<title>Node1</title>
<g id="a_node1"><a xlink:title=" ">
<polygon fill="#bfbfbf" stroke="black" points="35.5,-112.5 35.5,-142.5 196.5,-142.5 196.5,-112.5 35.5,-112.5"/>
<text text-anchor="start" x="43.5" y="-130.5" font-family="Helvetica,sans-Serif" font-size="10.00">plugins/anti_jump_disconnect</text>
<text text-anchor="middle" x="116" y="-119.5" font-family="Helvetica,sans-Serif" font-size="10.00">_plugin/Main.h</text>
</a>
</g>
</g>
<!-- Node2 -->
<g id="node2" class="node">
<title>Node2</title>
<g id="a_node2"><a xlink:href="tempban__plugin_2main_8h.html" target="_top" xlink:title=" ">
<polygon fill="none" stroke="black" points="46,-56.5 46,-75.5 186,-75.5 186,-56.5 46,-56.5"/>
<text text-anchor="middle" x="116" y="-63.5" font-family="Helvetica,sans-Serif" font-size="10.00">../tempban_plugin/Main.h</text>
</a>
</g>
</g>
<!-- Node1&#45;&gt;Node2 -->
<g id="edge1" class="edge">
<title>Node1&#45;&gt;Node2</title>
<path fill="none" stroke="midnightblue" d="M116,-112.4C116,-104.47 116,-94.46 116,-85.86"/>
<polygon fill="midnightblue" stroke="midnightblue" points="119.5,-85.66 116,-75.66 112.5,-85.66 119.5,-85.66"/>
</g>
<!-- Node3 -->
<g id="node3" class="node">
<title>Node3</title>
<g id="a_node3"><a xlink:title=" ">
<polygon fill="none" stroke="#bfbfbf" points="0,-0.5 0,-19.5 62,-19.5 62,-0.5 0,-0.5"/>
<text text-anchor="middle" x="31" y="-7.5" font-family="Helvetica,sans-Serif" font-size="10.00">FLHook.h</text>
</a>
</g>
</g>
<!-- Node1&#45;&gt;Node3 -->
<g id="edge5" class="edge">
<title>Node1&#45;&gt;Node3</title>
<path fill="none" stroke="midnightblue" d="M80.18,-112.39C64.26,-104.21 46.91,-92.27 37,-76 28.62,-62.24 27.7,-43.71 28.53,-29.96"/>
<polygon fill="midnightblue" stroke="midnightblue" points="32.04,-30.03 29.52,-19.74 25.08,-29.35 32.04,-30.03"/>
</g>
<!-- Node4 -->
<g id="node4" class="node">
<title>Node4</title>
<g id="a_node4"><a xlink:title=" ">
<polygon fill="none" stroke="#bfbfbf" points="171,-0.5 171,-19.5 227,-19.5 227,-0.5 171,-0.5"/>
<text text-anchor="middle" x="199" y="-7.5" font-family="Helvetica,sans-Serif" font-size="10.00">plugin.h</text>
</a>
</g>
</g>
<!-- Node1&#45;&gt;Node4 -->
<g id="edge6" class="edge">
<title>Node1&#45;&gt;Node4</title>
<path fill="none" stroke="midnightblue" d="M152.45,-112.31C168.31,-104.17 185.43,-92.28 195,-76 203.15,-62.14 203.48,-43.63 202.16,-29.9"/>
<polygon fill="midnightblue" stroke="midnightblue" points="205.6,-29.16 200.81,-19.71 198.66,-30.08 205.6,-29.16"/>
</g>
<!-- Node2&#45;&gt;Node3 -->
<g id="edge2" class="edge">
<title>Node2&#45;&gt;Node3</title>
<path fill="none" stroke="midnightblue" d="M102.34,-56.32C89.08,-47.9 68.73,-34.97 53.15,-25.07"/>
<polygon fill="midnightblue" stroke="midnightblue" points="54.94,-22.06 44.62,-19.65 51.19,-27.97 54.94,-22.06"/>
</g>
<!-- Node2&#45;&gt;Node4 -->
<g id="edge3" class="edge">
<title>Node2&#45;&gt;Node4</title>
<path fill="none" stroke="midnightblue" d="M129.34,-56.32C142.16,-47.98 161.78,-35.21 176.94,-25.35"/>
<polygon fill="midnightblue" stroke="midnightblue" points="179.22,-28.04 185.7,-19.65 175.41,-22.17 179.22,-28.04"/>
</g>
<!-- Node5 -->
<g id="node5" class="node">
<title>Node5</title>
<g id="a_node5"><a xlink:title=" ">
<polygon fill="none" stroke="#bfbfbf" points="93.5,-0.5 93.5,-19.5 138.5,-19.5 138.5,-0.5 93.5,-0.5"/>
<text text-anchor="middle" x="116" y="-7.5" font-family="Helvetica,sans-Serif" font-size="10.00">utility</text>
</a>
</g>
</g>
<!-- Node2&#45;&gt;Node5 -->
<g id="edge4" class="edge">
<title>Node2&#45;&gt;Node5</title>
<path fill="none" stroke="midnightblue" d="M116,-56.08C116,-49.01 116,-38.86 116,-29.99"/>
<polygon fill="midnightblue" stroke="midnightblue" points="119.5,-29.75 116,-19.75 112.5,-29.75 119.5,-29.75"/>
</g>
</g>
</svg>
