<?xml version="1.0" encoding="UTF-8" standalone="no"?>
<!DOCTYPE svg PUBLIC "-//W3C//DTD SVG 1.1//EN"
 "http://www.w3.org/Graphics/SVG/1.1/DTD/svg11.dtd">
<!-- Generated by graphviz version 2.43.0 (0)
 -->
<!-- Title: plugins/anti_jump_disconnect/Main.h Pages: 1 -->
<svg width="178pt" height="148pt"
 viewBox="0.00 0.00 177.50 148.00" xmlns="http://www.w3.org/2000/svg" xmlns:xlink="http://www.w3.org/1999/xlink">
<g id="graph0" class="graph" transform="scale(1 1) rotate(0) translate(4 144)">
<title>plugins/anti_jump_disconnect/Main.h</title>
<!-- Node1 -->
<g id="node1" class="node">
<title>Node1</title>
<g id="a_node1"><a xlink:title=" ">
<polygon fill="#999999" stroke="#666666" points="161,-140 0,-140 0,-110 161,-110 161,-140"/>
<text text-anchor="start" x="8" y="-128" font-family="Helvetica,sans-Serif" font-size="10.00">plugins/anti_jump_disconnect</text>
<text text-anchor="middle" x="80.5" y="-117" font-family="Helvetica,sans-Serif" font-size="10.00">/Main.h</text>
</a>
</g>
</g>
<!-- Node2 -->
<g id="node2" class="node">
<title>Node2</title>
<g id="a_node2"><a xlink:href="tempban_2_main_8h.html" target="_top" xlink:title=" ">
<polygon fill="white" stroke="#666666" points="133,-74 28,-74 28,-55 133,-55 133,-74"/>
<text text-anchor="middle" x="80.5" y="-62" font-family="Helvetica,sans-Serif" font-size="10.00">../tempban/Main.h</text>
</a>
</g>
</g>
<!-- Node1&#45;&gt;Node2 -->
<g id="edge1" class="edge">
<title>Node1&#45;&gt;Node2</title>
<path fill="none" stroke="#63b8ff" d="M80.5,-109.84C80.5,-102.21 80.5,-92.7 80.5,-84.45"/>
<polygon fill="#63b8ff" stroke="#63b8ff" points="84,-84.27 80.5,-74.27 77,-84.27 84,-84.27"/>
</g>
<!-- Node3 -->
<g id="node3" class="node">
<title>Node3</title>
<g id="a_node3"><a xlink:title=" ">
<polygon fill="#e0e0e0" stroke="#999999" points="75.5,-19 1.5,-19 1.5,0 75.5,0 75.5,-19"/>
<text text-anchor="middle" x="38.5" y="-7" font-family="Helvetica,sans-Serif" font-size="10.00">FLHook.hpp</text>
</a>
</g>
</g>
<!-- Node1&#45;&gt;Node3 -->
<g id="edge4" class="edge">
<title>Node1&#45;&gt;Node3</title>
<path fill="none" stroke="#63b8ff" d="M53.63,-109.96C40.44,-101.49 25.84,-89.34 18.5,-74 11.28,-58.9 18.63,-40.56 26.38,-27.48"/>
<polygon fill="#63b8ff" stroke="#63b8ff" points="29.37,-29.3 31.89,-19 23.5,-25.48 29.37,-29.3"/>
</g>
<!-- Node4 -->
<g id="node4" class="node">
<title>Node4</title>
<g id="a_node4"><a xlink:title=" ">
<polygon fill="#e0e0e0" stroke="#999999" points="169.5,-19 113.5,-19 113.5,0 169.5,0 169.5,-19"/>
<text text-anchor="middle" x="141.5" y="-7" font-family="Helvetica,sans-Serif" font-size="10.00">plugin.h</text>
</a>
</g>
</g>
<!-- Node1&#45;&gt;Node4 -->
<g id="edge5" class="edge">
<title>Node1&#45;&gt;Node4</title>
<path fill="none" stroke="#63b8ff" d="M107.37,-109.96C120.56,-101.49 135.16,-89.34 142.5,-74 149.19,-60.01 148.23,-42.23 146,-29.04"/>
<polygon fill="#63b8ff" stroke="#63b8ff" points="149.43,-28.32 143.98,-19.23 142.57,-29.73 149.43,-28.32"/>
</g>
<!-- Node2&#45;&gt;Node3 -->
<g id="edge2" class="edge">
<title>Node2&#45;&gt;Node3</title>
<path fill="none" stroke="#63b8ff" d="M73.56,-54.75C67.63,-47.26 58.93,-36.28 51.68,-27.13"/>
<polygon fill="#63b8ff" stroke="#63b8ff" points="54.26,-24.75 45.31,-19.09 48.77,-29.1 54.26,-24.75"/>
</g>
<!-- Node2&#45;&gt;Node4 -->
<g id="edge3" class="edge">
<title>Node2&#45;&gt;Node4</title>
<path fill="none" stroke="#63b8ff" d="M90.3,-54.98C99.32,-47.15 112.91,-35.34 123.82,-25.86"/>
<polygon fill="#63b8ff" stroke="#63b8ff" points="126.27,-28.37 131.52,-19.17 121.68,-23.09 126.27,-28.37"/>
</g>
</g>
</svg>
