<?xml version="1.0" encoding="UTF-8" standalone="no"?>
<!DOCTYPE svg PUBLIC "-//W3C//DTD SVG 1.1//EN"
 "http://www.w3.org/Graphics/SVG/1.1/DTD/svg11.dtd">
<!-- Generated by graphviz version 2.43.0 (0)
 -->
<!-- Title: plugins/arena_plugin/Main.cpp Pages: 1 -->
<svg width="194pt" height="151pt"
 viewBox="0.00 0.00 194.13 151.00" xmlns="http://www.w3.org/2000/svg" xmlns:xlink="http://www.w3.org/1999/xlink">
<g id="graph0" class="graph" transform="scale(1 1) rotate(0) translate(4 147)">
<title>plugins/arena_plugin/Main.cpp</title>
<!-- Node1 -->
<g id="node1" class="node">
<title>Node1</title>
<g id="a_node1"><a xlink:title=" ">
<polygon fill="#bfbfbf" stroke="black" points="55,-112.5 55,-142.5 173,-142.5 173,-112.5 55,-112.5"/>
<text text-anchor="start" x="63" y="-130.5" font-family="Helvetica,sans-Serif" font-size="10.00">plugins/arena_plugin</text>
<text text-anchor="middle" x="114" y="-119.5" font-family="Helvetica,sans-Serif" font-size="10.00">/Main.cpp</text>
</a>
</g>
</g>
<!-- Node2 -->
<g id="node2" class="node">
<title>Node2</title>
<g id="a_node2"><a xlink:href="base__plugin_2main_8h.html" target="_top" xlink:title=" ">
<polygon fill="none" stroke="black" points="54,-56.5 54,-75.5 174,-75.5 174,-56.5 54,-56.5"/>
<text text-anchor="middle" x="114" y="-63.5" font-family="Helvetica,sans-Serif" font-size="10.00">../base_plugin/Main.h</text>
</a>
</g>
</g>
<!-- Node1&#45;&gt;Node2 -->
<g id="edge1" class="edge">
<title>Node1&#45;&gt;Node2</title>
<path fill="none" stroke="midnightblue" d="M114,-112.4C114,-104.47 114,-94.46 114,-85.86"/>
<polygon fill="midnightblue" stroke="midnightblue" points="117.5,-85.66 114,-75.66 110.5,-85.66 117.5,-85.66"/>
</g>
<!-- Node3 -->
<g id="node3" class="node">
<title>Node3</title>
<g id="a_node3"><a xlink:title=" ">
<polygon fill="none" stroke="#bfbfbf" points="0,-0.5 0,-19.5 62,-19.5 62,-0.5 0,-0.5"/>
<text text-anchor="middle" x="31" y="-7.5" font-family="Helvetica,sans-Serif" font-size="10.00">FLHook.h</text>
</a>
</g>
</g>
<!-- Node1&#45;&gt;Node3 -->
<g id="edge4" class="edge">
<title>Node1&#45;&gt;Node3</title>
<path fill="none" stroke="midnightblue" d="M85.87,-112.38C71.52,-103.77 55.02,-91.44 45,-76 36.07,-62.23 32.74,-43.71 31.54,-29.95"/>
<polygon fill="midnightblue" stroke="midnightblue" points="35.02,-29.52 30.97,-19.74 28.04,-29.92 35.02,-29.52"/>
</g>
<!-- Node4 -->
<g id="node4" class="node">
<title>Node4</title>
<g id="a_node4"><a xlink:title=" ">
<polygon fill="none" stroke="#bfbfbf" points="130,-0.5 130,-19.5 186,-19.5 186,-0.5 130,-0.5"/>
<text text-anchor="middle" x="158" y="-7.5" font-family="Helvetica,sans-Serif" font-size="10.00">plugin.h</text>
</a>
</g>
</g>
<!-- Node1&#45;&gt;Node4 -->
<g id="edge5" class="edge">
<title>Node1&#45;&gt;Node4</title>
<path fill="none" stroke="midnightblue" d="M144.91,-112.34C159.28,-103.98 174.94,-91.89 183,-76 191,-60.23 181.7,-41.27 172.26,-27.9"/>
<polygon fill="midnightblue" stroke="midnightblue" points="174.78,-25.44 165.91,-19.65 169.23,-29.71 174.78,-25.44"/>
</g>
<!-- Node2&#45;&gt;Node3 -->
<g id="edge2" class="edge">
<title>Node2&#45;&gt;Node3</title>
<path fill="none" stroke="midnightblue" d="M100.66,-56.32C87.84,-47.98 68.22,-35.21 53.06,-25.35"/>
<polygon fill="midnightblue" stroke="midnightblue" points="54.59,-22.17 44.3,-19.65 50.78,-28.04 54.59,-22.17"/>
</g>
<!-- Node2&#45;&gt;Node4 -->
<g id="edge3" class="edge">
<title>Node2&#45;&gt;Node4</title>
<path fill="none" stroke="midnightblue" d="M121.27,-56.08C127.54,-48.38 136.79,-37.03 144.43,-27.65"/>
<polygon fill="midnightblue" stroke="midnightblue" points="147.27,-29.71 150.87,-19.75 141.84,-25.29 147.27,-29.71"/>
</g>
</g>
</svg>
