<?xml version="1.0" encoding="UTF-8" standalone="no"?>
<!DOCTYPE svg PUBLIC "-//W3C//DTD SVG 1.1//EN"
 "http://www.w3.org/Graphics/SVG/1.1/DTD/svg11.dtd">
<!-- Generated by graphviz version 2.43.0 (0)
 -->
<!-- Title: plugins/base_plugin/Main.h Pages: 1 -->
<svg width="1455pt" height="106pt"
 viewBox="0.00 0.00 1454.50 106.00" xmlns="http://www.w3.org/2000/svg" xmlns:xlink="http://www.w3.org/1999/xlink">
<g id="graph0" class="graph" transform="scale(1 1) rotate(0) translate(4 102)">
<title>plugins/base_plugin/Main.h</title>
<!-- Node1 -->
<g id="node1" class="node">
<title>Node1</title>
<g id="a_node1"><a xlink:title=" ">
<polygon fill="#bfbfbf" stroke="black" points="664.5,-67.5 664.5,-97.5 777.5,-97.5 777.5,-67.5 664.5,-67.5"/>
<text text-anchor="start" x="672.5" y="-85.5" font-family="Helvetica,sans-Serif" font-size="10.00">plugins/base_plugin</text>
<text text-anchor="middle" x="721" y="-74.5" font-family="Helvetica,sans-Serif" font-size="10.00">/Main.h</text>
</a>
</g>
</g>
<!-- Node2 -->
<g id="node2" class="node">
<title>Node2</title>
<g id="a_node2"><a xlink:href="arena__plugin_2_main_8cpp.html" target="_top" xlink:title=" ">
<polygon fill="none" stroke="black" points="0,-0.5 0,-30.5 118,-30.5 118,-0.5 0,-0.5"/>
<text text-anchor="start" x="8" y="-18.5" font-family="Helvetica,sans-Serif" font-size="10.00">plugins/arena_plugin</text>
<text text-anchor="middle" x="59" y="-7.5" font-family="Helvetica,sans-Serif" font-size="10.00">/Main.cpp</text>
</a>
</g>
</g>
<!-- Node1&#45;&gt;Node2 -->
<g id="edge1" class="edge">
<title>Node1&#45;&gt;Node2</title>
<path fill="none" stroke="midnightblue" d="M653.9,-78.54C543.52,-73.05 316.92,-59.21 127,-31 124.13,-30.57 121.21,-30.1 118.26,-29.59"/>
<polygon fill="midnightblue" stroke="midnightblue" points="654.05,-82.05 664.21,-79.04 654.4,-75.06 654.05,-82.05"/>
</g>
<!-- Node3 -->
<g id="node3" class="node">
<title>Node3</title>
<g id="a_node3"><a xlink:href="_build_module_8cpp.html" target="_top" xlink:title=" ">
<polygon fill="none" stroke="black" points="136.5,-0.5 136.5,-30.5 249.5,-30.5 249.5,-0.5 136.5,-0.5"/>
<text text-anchor="start" x="144.5" y="-18.5" font-family="Helvetica,sans-Serif" font-size="10.00">plugins/base_plugin</text>
<text text-anchor="middle" x="193" y="-7.5" font-family="Helvetica,sans-Serif" font-size="10.00">/BuildModule.cpp</text>
</a>
</g>
</g>
<!-- Node1&#45;&gt;Node3 -->
<g id="edge2" class="edge">
<title>Node1&#45;&gt;Node3</title>
<path fill="none" stroke="midnightblue" d="M654.33,-76.56C564.08,-69.35 398.18,-54.21 258,-31 255.26,-30.55 252.47,-30.05 249.65,-29.52"/>
<polygon fill="midnightblue" stroke="midnightblue" points="654.18,-80.06 664.42,-77.36 654.73,-73.08 654.18,-80.06"/>
</g>
<!-- Node4 -->
<g id="node4" class="node">
<title>Node4</title>
<g id="a_node4"><a xlink:href="_core_module_8cpp.html" target="_top" xlink:title=" ">
<polygon fill="none" stroke="black" points="267.5,-0.5 267.5,-30.5 380.5,-30.5 380.5,-0.5 267.5,-0.5"/>
<text text-anchor="start" x="275.5" y="-18.5" font-family="Helvetica,sans-Serif" font-size="10.00">plugins/base_plugin</text>
<text text-anchor="middle" x="324" y="-7.5" font-family="Helvetica,sans-Serif" font-size="10.00">/CoreModule.cpp</text>
</a>
</g>
</g>
<!-- Node1&#45;&gt;Node4 -->
<g id="edge3" class="edge">
<title>Node1&#45;&gt;Node4</title>
<path fill="none" stroke="midnightblue" d="M654.29,-72.62C587.29,-63.39 481.19,-47.95 390,-31 387,-30.44 383.93,-29.85 380.83,-29.23"/>
<polygon fill="midnightblue" stroke="midnightblue" points="653.91,-76.1 664.29,-73.99 654.86,-69.16 653.91,-76.1"/>
</g>
<!-- Node5 -->
<g id="node5" class="node">
<title>Node5</title>
<g id="a_node5"><a xlink:href="_defense_module_8cpp.html" target="_top" xlink:title=" ">
<polygon fill="none" stroke="black" points="399,-0.5 399,-30.5 515,-30.5 515,-0.5 399,-0.5"/>
<text text-anchor="start" x="407" y="-18.5" font-family="Helvetica,sans-Serif" font-size="10.00">plugins/base_plugin</text>
<text text-anchor="middle" x="457" y="-7.5" font-family="Helvetica,sans-Serif" font-size="10.00">/DefenseModule.cpp</text>
</a>
</g>
</g>
<!-- Node1&#45;&gt;Node5 -->
<g id="edge4" class="edge">
<title>Node1&#45;&gt;Node5</title>
<path fill="none" stroke="midnightblue" d="M654.49,-65.12C611.17,-54.46 555.27,-40.69 514,-30.53"/>
<polygon fill="midnightblue" stroke="midnightblue" points="653.82,-68.56 664.37,-67.56 655.49,-61.77 653.82,-68.56"/>
</g>
<!-- Node6 -->
<g id="node6" class="node">
<title>Node6</title>
<g id="a_node6"><a xlink:href="_factory_module_8cpp.html" target="_top" xlink:title=" ">
<polygon fill="none" stroke="black" points="533.5,-0.5 533.5,-30.5 646.5,-30.5 646.5,-0.5 533.5,-0.5"/>
<text text-anchor="start" x="541.5" y="-18.5" font-family="Helvetica,sans-Serif" font-size="10.00">plugins/base_plugin</text>
<text text-anchor="middle" x="590" y="-7.5" font-family="Helvetica,sans-Serif" font-size="10.00">/FactoryModule.cpp</text>
</a>
</g>
</g>
<!-- Node1&#45;&gt;Node6 -->
<g id="edge5" class="edge">
<title>Node1&#45;&gt;Node6</title>
<path fill="none" stroke="midnightblue" d="M683.42,-62.85C662.71,-52.58 637.41,-40.03 618.37,-30.58"/>
<polygon fill="midnightblue" stroke="midnightblue" points="682.06,-66.09 692.57,-67.4 685.17,-59.82 682.06,-66.09"/>
</g>
<!-- Node7 -->
<g id="node7" class="node">
<title>Node7</title>
<g id="a_node7"><a xlink:href="base__plugin_2_main_8cpp.html" target="_top" xlink:title=" ">
<polygon fill="none" stroke="black" points="664.5,-0.5 664.5,-30.5 777.5,-30.5 777.5,-0.5 664.5,-0.5"/>
<text text-anchor="start" x="672.5" y="-18.5" font-family="Helvetica,sans-Serif" font-size="10.00">plugins/base_plugin</text>
<text text-anchor="middle" x="721" y="-7.5" font-family="Helvetica,sans-Serif" font-size="10.00">/Main.cpp</text>
</a>
</g>
</g>
<!-- Node1&#45;&gt;Node7 -->
<g id="edge6" class="edge">
<title>Node1&#45;&gt;Node7</title>
<path fill="none" stroke="midnightblue" d="M721,-57.11C721,-48.15 721,-38.32 721,-30.58"/>
<polygon fill="midnightblue" stroke="midnightblue" points="717.5,-57.4 721,-67.4 724.5,-57.4 717.5,-57.4"/>
</g>
<!-- Node8 -->
<g id="node8" class="node">
<title>Node8</title>
<g id="a_node8"><a xlink:href="_player_base_8cpp.html" target="_top" xlink:title=" ">
<polygon fill="none" stroke="black" points="795.5,-0.5 795.5,-30.5 908.5,-30.5 908.5,-0.5 795.5,-0.5"/>
<text text-anchor="start" x="803.5" y="-18.5" font-family="Helvetica,sans-Serif" font-size="10.00">plugins/base_plugin</text>
<text text-anchor="middle" x="852" y="-7.5" font-family="Helvetica,sans-Serif" font-size="10.00">/PlayerBase.cpp</text>
</a>
</g>
</g>
<!-- Node1&#45;&gt;Node8 -->
<g id="edge7" class="edge">
<title>Node1&#45;&gt;Node8</title>
<path fill="none" stroke="midnightblue" d="M758.58,-62.85C779.29,-52.58 804.59,-40.03 823.63,-30.58"/>
<polygon fill="midnightblue" stroke="midnightblue" points="756.83,-59.82 749.43,-67.4 759.94,-66.09 756.83,-59.82"/>
</g>
<!-- Node9 -->
<g id="node9" class="node">
<title>Node9</title>
<g id="a_node9"><a xlink:href="_player_commands_8cpp.html" target="_top" xlink:title=" ">
<polygon fill="none" stroke="black" points="927,-0.5 927,-30.5 1053,-30.5 1053,-0.5 927,-0.5"/>
<text text-anchor="start" x="935" y="-18.5" font-family="Helvetica,sans-Serif" font-size="10.00">plugins/base_plugin</text>
<text text-anchor="middle" x="990" y="-7.5" font-family="Helvetica,sans-Serif" font-size="10.00">/PlayerCommands.cpp</text>
</a>
</g>
</g>
<!-- Node1&#45;&gt;Node9 -->
<g id="edge8" class="edge">
<title>Node1&#45;&gt;Node9</title>
<path fill="none" stroke="midnightblue" d="M787.53,-65.42C831.85,-54.72 889.52,-40.78 931.97,-30.52"/>
<polygon fill="midnightblue" stroke="midnightblue" points="786.62,-62.04 777.72,-67.79 788.26,-68.85 786.62,-62.04"/>
</g>
<!-- Node10 -->
<g id="node10" class="node">
<title>Node10</title>
<g id="a_node10"><a xlink:href="base__plugin_2_save_files_8cpp.html" target="_top" xlink:title=" ">
<polygon fill="none" stroke="black" points="1071.5,-0.5 1071.5,-30.5 1184.5,-30.5 1184.5,-0.5 1071.5,-0.5"/>
<text text-anchor="start" x="1079.5" y="-18.5" font-family="Helvetica,sans-Serif" font-size="10.00">plugins/base_plugin</text>
<text text-anchor="middle" x="1128" y="-7.5" font-family="Helvetica,sans-Serif" font-size="10.00">/SaveFiles.cpp</text>
</a>
</g>
</g>
<!-- Node1&#45;&gt;Node10 -->
<g id="edge9" class="edge">
<title>Node1&#45;&gt;Node10</title>
<path fill="none" stroke="midnightblue" d="M787.89,-72.99C856.81,-63.89 967.24,-48.4 1062,-31 1065,-30.45 1068.07,-29.86 1071.17,-29.25"/>
<polygon fill="midnightblue" stroke="midnightblue" points="787.07,-69.56 777.61,-74.34 787.98,-76.5 787.07,-69.56"/>
</g>
<!-- Node11 -->
<g id="node11" class="node">
<title>Node11</title>
<g id="a_node11"><a xlink:href="_shield_module_8cpp.html" target="_top" xlink:title=" ">
<polygon fill="none" stroke="black" points="1202.5,-0.5 1202.5,-30.5 1315.5,-30.5 1315.5,-0.5 1202.5,-0.5"/>
<text text-anchor="start" x="1210.5" y="-18.5" font-family="Helvetica,sans-Serif" font-size="10.00">plugins/base_plugin</text>
<text text-anchor="middle" x="1259" y="-7.5" font-family="Helvetica,sans-Serif" font-size="10.00">/ShieldModule.cpp</text>
</a>
</g>
</g>
<!-- Node1&#45;&gt;Node11 -->
<g id="edge10" class="edge">
<title>Node1&#45;&gt;Node11</title>
<path fill="none" stroke="midnightblue" d="M787.7,-76.77C879.58,-69.71 1050.06,-54.66 1194,-31 1196.74,-30.55 1199.53,-30.06 1202.35,-29.53"/>
<polygon fill="midnightblue" stroke="midnightblue" points="787.41,-73.28 777.71,-77.53 787.94,-80.26 787.41,-73.28"/>
</g>
<!-- Node12 -->
<g id="node12" class="node">
<title>Node12</title>
<g id="a_node12"><a xlink:href="_storage_module_8cpp.html" target="_top" xlink:title=" ">
<polygon fill="none" stroke="black" points="1333.5,-0.5 1333.5,-30.5 1446.5,-30.5 1446.5,-0.5 1333.5,-0.5"/>
<text text-anchor="start" x="1341.5" y="-18.5" font-family="Helvetica,sans-Serif" font-size="10.00">plugins/base_plugin</text>
<text text-anchor="middle" x="1390" y="-7.5" font-family="Helvetica,sans-Serif" font-size="10.00">/StorageModule.cpp</text>
</a>
</g>
</g>
<!-- Node1&#45;&gt;Node12 -->
<g id="edge11" class="edge">
<title>Node1&#45;&gt;Node12</title>
<path fill="none" stroke="midnightblue" d="M787.61,-78.9C899.27,-73.87 1131.07,-60.6 1325,-31 1327.74,-30.58 1330.54,-30.11 1333.37,-29.61"/>
<polygon fill="midnightblue" stroke="midnightblue" points="787.34,-75.4 777.51,-79.34 787.65,-82.4 787.34,-75.4"/>
</g>
</g>
</svg>
