<?xml version="1.0" encoding="UTF-8" standalone="no"?>
<!DOCTYPE svg PUBLIC "-//W3C//DTD SVG 1.1//EN"
 "http://www.w3.org/Graphics/SVG/1.1/DTD/svg11.dtd">
<!-- Generated by graphviz version 2.43.0 (0)
 -->
<!-- Title: source/blowfish.h Pages: 1 -->
<svg width="3934pt" height="364pt"
 viewBox="0.00 0.00 3934.31 364.00" xmlns="http://www.w3.org/2000/svg" xmlns:xlink="http://www.w3.org/1999/xlink">
<g id="graph0" class="graph" transform="scale(1 1) rotate(0) translate(4 360)">
<title>source/blowfish.h</title>
<!-- Node1 -->
<g id="node1" class="node">
<title>Node1</title>
<g id="a_node1"><a xlink:title=" ">
<polygon fill="#bfbfbf" stroke="black" points="1801.31,-336.5 1801.31,-355.5 1902.31,-355.5 1902.31,-336.5 1801.31,-336.5"/>
<text text-anchor="middle" x="1851.81" y="-343.5" font-family="Helvetica,sans-Serif" font-size="10.00">source/blowfish.h</text>
</a>
</g>
</g>
<!-- Node2 -->
<g id="node2" class="node">
<title>Node2</title>
<g id="a_node2"><a xlink:href="blowfish_8cpp.html" target="_top" xlink:title=" ">
<polygon fill="none" stroke="black" points="1735.31,-280.5 1735.31,-299.5 1848.31,-299.5 1848.31,-280.5 1735.31,-280.5"/>
<text text-anchor="middle" x="1791.81" y="-287.5" font-family="Helvetica,sans-Serif" font-size="10.00">source/blowfish.cpp</text>
</a>
</g>
</g>
<!-- Node1&#45;&gt;Node2 -->
<g id="edge1" class="edge">
<title>Node1&#45;&gt;Node2</title>
<path fill="none" stroke="midnightblue" d="M1834.62,-329.54C1823.93,-319.91 1810.55,-307.87 1801.62,-299.83"/>
<polygon fill="midnightblue" stroke="midnightblue" points="1832.39,-332.24 1842.17,-336.32 1837.07,-327.03 1832.39,-332.24"/>
</g>
<!-- Node3 -->
<g id="node3" class="node">
<title>Node3</title>
<g id="a_node3"><a xlink:href="global_8h.html" target="_top" xlink:title=" ">
<polygon fill="none" stroke="black" points="1866.31,-280.5 1866.31,-299.5 1957.31,-299.5 1957.31,-280.5 1866.31,-280.5"/>
<text text-anchor="middle" x="1911.81" y="-287.5" font-family="Helvetica,sans-Serif" font-size="10.00">source/global.h</text>
</a>
</g>
</g>
<!-- Node1&#45;&gt;Node3 -->
<g id="edge2" class="edge">
<title>Node1&#45;&gt;Node3</title>
<path fill="none" stroke="midnightblue" d="M1868.99,-329.54C1879.68,-319.91 1893.06,-307.87 1901.99,-299.83"/>
<polygon fill="midnightblue" stroke="midnightblue" points="1866.54,-327.03 1861.45,-336.32 1871.22,-332.24 1866.54,-327.03"/>
</g>
<!-- Node4 -->
<g id="node4" class="node">
<title>Node4</title>
<g id="a_node4"><a xlink:href="_c_cmds_8cpp.html" target="_top" xlink:title=" ">
<polygon fill="none" stroke="black" points="358.31,-112.5 358.31,-131.5 465.31,-131.5 465.31,-112.5 358.31,-112.5"/>
<text text-anchor="middle" x="411.81" y="-119.5" font-family="Helvetica,sans-Serif" font-size="10.00">source/CCmds.cpp</text>
</a>
</g>
</g>
<!-- Node3&#45;&gt;Node4 -->
<g id="edge3" class="edge">
<title>Node3&#45;&gt;Node4</title>
<path fill="none" stroke="midnightblue" d="M1856.1,-279.96C1417.14,-236.11 1303.07,-266.35 865.81,-244 676.98,-234.35 146.03,-326.03 16.81,-188 -30.87,-137.08 239.13,-126.05 357.89,-123.66"/>
<polygon fill="midnightblue" stroke="midnightblue" points="1855.9,-283.46 1866.2,-280.97 1856.6,-276.49 1855.9,-283.46"/>
</g>
<!-- Node5 -->
<g id="node5" class="node">
<title>Node5</title>
<g id="a_node5"><a xlink:href="_exceptions_8cpp.html" target="_top" xlink:title=" ">
<polygon fill="none" stroke="black" points="26.31,-168.5 26.31,-187.5 151.31,-187.5 151.31,-168.5 26.31,-168.5"/>
<text text-anchor="middle" x="88.81" y="-175.5" font-family="Helvetica,sans-Serif" font-size="10.00">source/Exceptions.cpp</text>
</a>
</g>
</g>
<!-- Node3&#45;&gt;Node5 -->
<g id="edge4" class="edge">
<title>Node3&#45;&gt;Node5</title>
<path fill="none" stroke="midnightblue" d="M1856.24,-279.94C1107.52,-198 912.88,-251.91 165.81,-188 161.11,-187.6 156.26,-187.14 151.39,-186.64"/>
<polygon fill="midnightblue" stroke="midnightblue" points="1855.87,-283.42 1866.19,-281.03 1856.63,-276.46 1855.87,-283.42"/>
</g>
<!-- Node6 -->
<g id="node6" class="node">
<title>Node6</title>
<g id="a_node6"><a xlink:href="_f_l_hook_8cpp.html" target="_top" xlink:title=" ">
<polygon fill="none" stroke="black" points="313.31,-56.5 313.31,-75.5 422.31,-75.5 422.31,-56.5 313.31,-56.5"/>
<text text-anchor="middle" x="367.81" y="-63.5" font-family="Helvetica,sans-Serif" font-size="10.00">source/FLHook.cpp</text>
</a>
</g>
</g>
<!-- Node3&#45;&gt;Node6 -->
<g id="edge5" class="edge">
<title>Node3&#45;&gt;Node6</title>
<path fill="none" stroke="midnightblue" d="M1855.99,-280.23C1683.54,-271.22 162.14,-278.98 71.81,-244 30.63,-228.05 -18.86,-203.2 7.81,-168 44.7,-119.29 222,-87.61 313.26,-74.24"/>
<polygon fill="midnightblue" stroke="midnightblue" points="1855.99,-283.74 1866.2,-280.92 1856.46,-276.75 1855.99,-283.74"/>
</g>
<!-- Node7 -->
<g id="node7" class="node">
<title>Node7</title>
<g id="a_node7"><a xlink:href="_hook_8h.html" target="_top" xlink:title=" ">
<polygon fill="none" stroke="black" points="1778.81,-224.5 1778.81,-243.5 1864.81,-243.5 1864.81,-224.5 1778.81,-224.5"/>
<text text-anchor="middle" x="1821.81" y="-231.5" font-family="Helvetica,sans-Serif" font-size="10.00">source/Hook.h</text>
</a>
</g>
</g>
<!-- Node3&#45;&gt;Node7 -->
<g id="edge6" class="edge">
<title>Node3&#45;&gt;Node7</title>
<path fill="none" stroke="midnightblue" d="M1888.77,-275.18C1872.21,-265.24 1850.39,-252.15 1836.23,-243.65"/>
<polygon fill="midnightblue" stroke="midnightblue" points="1886.97,-278.18 1897.35,-280.32 1890.57,-272.18 1886.97,-278.18"/>
</g>
<!-- Node39 -->
<g id="node39" class="node">
<title>Node39</title>
<g id="a_node39"><a xlink:href="_settings_8cpp.html" target="_top" xlink:title=" ">
<polygon fill="none" stroke="black" points="3545.81,-168.5 3545.81,-187.5 3657.81,-187.5 3657.81,-168.5 3545.81,-168.5"/>
<text text-anchor="middle" x="3601.81" y="-175.5" font-family="Helvetica,sans-Serif" font-size="10.00">source/Settings.cpp</text>
</a>
</g>
</g>
<!-- Node3&#45;&gt;Node39 -->
<g id="edge52" class="edge">
<title>Node3&#45;&gt;Node39</title>
<path fill="none" stroke="midnightblue" d="M1907.24,-270.27C1904.87,-255.5 1904.62,-235.53 1916.81,-224 1949.49,-193.05 3491.94,-191.59 3536.81,-188 3539.64,-187.77 3542.55,-187.5 3545.48,-187.2"/>
<polygon fill="midnightblue" stroke="midnightblue" points="1903.86,-271.23 1909.29,-280.32 1910.72,-269.83 1903.86,-271.23"/>
</g>
<!-- Node40 -->
<g id="node40" class="node">
<title>Node40</title>
<g id="a_node40"><a xlink:href="_tools_8cpp.html" target="_top" xlink:title=" ">
<polygon fill="none" stroke="black" points="3676.31,-168.5 3676.31,-187.5 3773.31,-187.5 3773.31,-168.5 3676.31,-168.5"/>
<text text-anchor="middle" x="3724.81" y="-175.5" font-family="Helvetica,sans-Serif" font-size="10.00">source/Tools.cpp</text>
</a>
</g>
</g>
<!-- Node3&#45;&gt;Node40 -->
<g id="edge53" class="edge">
<title>Node3&#45;&gt;Node40</title>
<path fill="none" stroke="midnightblue" d="M1918.31,-270.68C1924.9,-255.19 1936.7,-233.98 1954.81,-224 2038.12,-178.08 3572.04,-196.31 3666.81,-188 3669.85,-187.73 3672.98,-187.4 3676.13,-187.03"/>
<polygon fill="midnightblue" stroke="midnightblue" points="1914.94,-269.69 1914.58,-280.28 1921.47,-272.23 1914.94,-269.69"/>
</g>
<!-- Node41 -->
<g id="node41" class="node">
<title>Node41</title>
<g id="a_node41"><a xlink:href="_zone_utilities_8cpp.html" target="_top" xlink:title=" ">
<polygon fill="none" stroke="black" points="3791.31,-168.5 3791.31,-187.5 3926.31,-187.5 3926.31,-168.5 3791.31,-168.5"/>
<text text-anchor="middle" x="3858.81" y="-175.5" font-family="Helvetica,sans-Serif" font-size="10.00">source/ZoneUtilities.cpp</text>
</a>
</g>
</g>
<!-- Node3&#45;&gt;Node41 -->
<g id="edge55" class="edge">
<title>Node3&#45;&gt;Node41</title>
<path fill="none" stroke="midnightblue" d="M1925.48,-272.19C1939.49,-256.4 1962.84,-233.79 1988.81,-224 2082.08,-188.83 3683.36,-194.87 3782.81,-188 3785.59,-187.81 3788.43,-187.59 3791.29,-187.34"/>
<polygon fill="midnightblue" stroke="midnightblue" points="1922.53,-270.26 1918.7,-280.13 1927.86,-274.8 1922.53,-270.26"/>
</g>
<!-- Node42 -->
<g id="node42" class="node">
<title>Node42</title>
<g id="a_node42"><a xlink:href="_log_8cpp.html" target="_top" xlink:title=" ">
<polygon fill="none" stroke="black" points="1997.31,-224.5 1997.31,-243.5 2086.31,-243.5 2086.31,-224.5 1997.31,-224.5"/>
<text text-anchor="middle" x="2041.81" y="-231.5" font-family="Helvetica,sans-Serif" font-size="10.00">source/Log.cpp</text>
</a>
</g>
</g>
<!-- Node3&#45;&gt;Node42 -->
<g id="edge51" class="edge">
<title>Node3&#45;&gt;Node42</title>
<path fill="none" stroke="midnightblue" d="M1941.89,-276.5C1966.26,-266.38 1999.95,-252.39 2021.3,-243.52"/>
<polygon fill="midnightblue" stroke="midnightblue" points="1940.3,-273.38 1932.4,-280.44 1942.98,-279.84 1940.3,-273.38"/>
</g>
<!-- Node43 -->
<g id="node43" class="node">
<title>Node43</title>
<g id="a_node43"><a xlink:href="_console_8cpp.html" target="_top" xlink:title=" ">
<polygon fill="none" stroke="black" points="2104.31,-224.5 2104.31,-243.5 2243.31,-243.5 2243.31,-224.5 2104.31,-224.5"/>
<text text-anchor="middle" x="2173.81" y="-231.5" font-family="Helvetica,sans-Serif" font-size="10.00">source/Tools/Console.cpp</text>
</a>
</g>
</g>
<!-- Node3&#45;&gt;Node43 -->
<g id="edge54" class="edge">
<title>Node3&#45;&gt;Node43</title>
<path fill="none" stroke="midnightblue" d="M1963.19,-278.41C2012.7,-268.2 2086.67,-252.96 2132.49,-243.52"/>
<polygon fill="midnightblue" stroke="midnightblue" points="1962.41,-275 1953.32,-280.44 1963.82,-281.85 1962.41,-275"/>
</g>
<!-- Node44 -->
<g id="node44" class="node">
<title>Node44</title>
<g id="a_node44"><a xlink:href="flcodec_8cpp.html" target="_top" xlink:title=" ">
<polygon fill="none" stroke="black" points="2261.31,-224.5 2261.31,-243.5 2368.31,-243.5 2368.31,-224.5 2261.31,-224.5"/>
<text text-anchor="middle" x="2314.81" y="-231.5" font-family="Helvetica,sans-Serif" font-size="10.00">source/flcodec.cpp</text>
</a>
</g>
</g>
<!-- Node3&#45;&gt;Node44 -->
<g id="edge56" class="edge">
<title>Node3&#45;&gt;Node44</title>
<path fill="none" stroke="midnightblue" d="M1967.33,-281.9C2034.84,-273.21 2152.24,-257.93 2252.81,-244 2255.5,-243.63 2258.26,-243.24 2261.04,-242.85"/>
<polygon fill="midnightblue" stroke="midnightblue" points="1966.81,-278.44 1957.34,-283.18 1967.7,-285.38 1966.81,-278.44"/>
</g>
<!-- Node7&#45;&gt;Node5 -->
<g id="edge21" class="edge">
<title>Node7&#45;&gt;Node5</title>
<path fill="none" stroke="midnightblue" d="M1768.28,-233.28C1561.49,-233.99 794.94,-233.22 165.81,-188 161.11,-187.66 156.25,-187.25 151.38,-186.79"/>
<polygon fill="midnightblue" stroke="midnightblue" points="1768.57,-236.78 1778.56,-233.24 1768.55,-229.78 1768.57,-236.78"/>
</g>
<!-- Node7&#45;&gt;Node6 -->
<g id="edge22" class="edge">
<title>Node7&#45;&gt;Node6</title>
<path fill="none" stroke="midnightblue" d="M1768.56,-232.02C1490.01,-226.86 212.81,-202.4 198.81,-188 149.62,-137.43 274.12,-93.53 335.71,-75.61"/>
<polygon fill="midnightblue" stroke="midnightblue" points="1768.74,-235.53 1778.8,-232.21 1768.87,-228.53 1768.74,-235.53"/>
</g>
<!-- Node8 -->
<g id="node8" class="node">
<title>Node8</title>
<g id="a_node8"><a xlink:href="_c_cmds_8h.html" target="_top" xlink:title=" ">
<polygon fill="none" stroke="black" points="1584.31,-168.5 1584.31,-187.5 1679.31,-187.5 1679.31,-168.5 1584.31,-168.5"/>
<text text-anchor="middle" x="1631.81" y="-175.5" font-family="Helvetica,sans-Serif" font-size="10.00">source/CCmds.h</text>
</a>
</g>
</g>
<!-- Node7&#45;&gt;Node8 -->
<g id="edge7" class="edge">
<title>Node7&#45;&gt;Node8</title>
<path fill="none" stroke="midnightblue" d="M1782.04,-221.7C1746.18,-211.51 1694.23,-196.74 1661.77,-187.52"/>
<polygon fill="midnightblue" stroke="midnightblue" points="1781.12,-225.08 1791.7,-224.44 1783.04,-218.34 1781.12,-225.08"/>
</g>
<!-- Node12 -->
<g id="node12" class="node">
<title>Node12</title>
<g id="a_node12"><a xlink:href="_c_in_game_8cpp.html" target="_top" xlink:title=" ">
<polygon fill="none" stroke="black" points="1475.31,-56.5 1475.31,-75.5 1592.31,-75.5 1592.31,-56.5 1475.31,-56.5"/>
<text text-anchor="middle" x="1533.81" y="-63.5" font-family="Helvetica,sans-Serif" font-size="10.00">source/CInGame.cpp</text>
</a>
</g>
</g>
<!-- Node7&#45;&gt;Node12 -->
<g id="edge20" class="edge">
<title>Node7&#45;&gt;Node12</title>
<path fill="none" stroke="midnightblue" d="M1809.01,-216.11C1784.38,-183.66 1732.29,-115.49 1726.81,-112 1686.47,-86.31 1633.04,-75.25 1592.62,-70.51"/>
<polygon fill="midnightblue" stroke="midnightblue" points="1806.34,-218.38 1815.17,-224.23 1811.92,-214.15 1806.34,-218.38"/>
</g>
<!-- Node13 -->
<g id="node13" class="node">
<title>Node13</title>
<g id="a_node13"><a xlink:href="_hk_i_server_impl_8inl.html" target="_top" xlink:title=" ">
<polygon fill="none" stroke="black" points="1656.31,-56.5 1656.31,-75.5 1793.31,-75.5 1793.31,-56.5 1656.31,-56.5"/>
<text text-anchor="middle" x="1724.81" y="-63.5" font-family="Helvetica,sans-Serif" font-size="10.00">source/HkIServerImpl.inl</text>
</a>
</g>
</g>
<!-- Node7&#45;&gt;Node13 -->
<g id="edge43" class="edge">
<title>Node7&#45;&gt;Node13</title>
<path fill="none" stroke="midnightblue" d="M1813.96,-215.18C1803.05,-191.07 1782.12,-147.03 1759.81,-112 1751.3,-98.64 1739.75,-84.41 1732.29,-75.6"/>
<polygon fill="midnightblue" stroke="midnightblue" points="1810.84,-216.78 1818.11,-224.49 1817.23,-213.93 1810.84,-216.78"/>
</g>
<!-- Node14 -->
<g id="node14" class="node">
<title>Node14</title>
<g id="a_node14"><a xlink:href="_hk_client_server_interface_8cpp.html" target="_top" xlink:title=" ">
<polygon fill="none" stroke="black" points="1727.31,-0.5 1727.31,-19.5 1916.31,-19.5 1916.31,-0.5 1727.31,-0.5"/>
<text text-anchor="middle" x="1821.81" y="-7.5" font-family="Helvetica,sans-Serif" font-size="10.00">source/HkClientServerInterface.cpp</text>
</a>
</g>
</g>
<!-- Node7&#45;&gt;Node14 -->
<g id="edge25" class="edge">
<title>Node7&#45;&gt;Node14</title>
<path fill="none" stroke="midnightblue" d="M1821.81,-214.3C1821.81,-168.64 1821.81,-52.85 1821.81,-19.88"/>
<polygon fill="midnightblue" stroke="midnightblue" points="1818.31,-214.3 1821.81,-224.3 1825.31,-214.3 1818.31,-214.3"/>
</g>
<!-- Node17 -->
<g id="node17" class="node">
<title>Node17</title>
<g id="a_node17"><a xlink:href="_hk_plugin_manager_8cpp.html" target="_top" xlink:title=" ">
<polygon fill="none" stroke="black" points="1559.81,-112.5 1559.81,-131.5 1717.81,-131.5 1717.81,-112.5 1559.81,-112.5"/>
<text text-anchor="middle" x="1638.81" y="-119.5" font-family="Helvetica,sans-Serif" font-size="10.00">source/HkPluginManager.cpp</text>
</a>
</g>
</g>
<!-- Node7&#45;&gt;Node17 -->
<g id="edge45" class="edge">
<title>Node7&#45;&gt;Node17</title>
<path fill="none" stroke="midnightblue" d="M1793.4,-220.11C1775.39,-211.62 1751.82,-199.91 1731.81,-188 1701,-169.67 1666.99,-144.55 1649.9,-131.56"/>
<polygon fill="midnightblue" stroke="midnightblue" points="1792.22,-223.42 1802.76,-224.47 1795.18,-217.08 1792.22,-223.42"/>
</g>
<!-- Node18 -->
<g id="node18" class="node">
<title>Node18</title>
<g id="a_node18"><a xlink:href="_hk_cb_other_8cpp.html" target="_top" xlink:title=" ">
<polygon fill="none" stroke="black" points="1850.31,-168.5 1850.31,-187.5 1975.31,-187.5 1975.31,-168.5 1850.31,-168.5"/>
<text text-anchor="middle" x="1912.81" y="-175.5" font-family="Helvetica,sans-Serif" font-size="10.00">source/HkCbOther.cpp</text>
</a>
</g>
</g>
<!-- Node7&#45;&gt;Node18 -->
<g id="edge23" class="edge">
<title>Node7&#45;&gt;Node18</title>
<path fill="none" stroke="midnightblue" d="M1845.1,-219.18C1861.84,-209.24 1883.91,-196.15 1898.22,-187.65"/>
<polygon fill="midnightblue" stroke="midnightblue" points="1843.24,-216.21 1836.43,-224.32 1846.81,-222.23 1843.24,-216.21"/>
</g>
<!-- Node19 -->
<g id="node19" class="node">
<title>Node19</title>
<g id="a_node19"><a xlink:href="_hk_character_ini_8cpp.html" target="_top" xlink:title=" ">
<polygon fill="none" stroke="black" points="1993.31,-168.5 1993.31,-187.5 2138.31,-187.5 2138.31,-168.5 1993.31,-168.5"/>
<text text-anchor="middle" x="2065.81" y="-175.5" font-family="Helvetica,sans-Serif" font-size="10.00">source/HkCharacterIni.cpp</text>
</a>
</g>
</g>
<!-- Node7&#45;&gt;Node19 -->
<g id="edge24" class="edge">
<title>Node7&#45;&gt;Node19</title>
<path fill="none" stroke="midnightblue" d="M1870.24,-222.28C1916.35,-212.08 1984.83,-196.92 2027.32,-187.52"/>
<polygon fill="midnightblue" stroke="midnightblue" points="1869.48,-218.87 1860.47,-224.44 1870.99,-225.7 1869.48,-218.87"/>
</g>
<!-- Node20 -->
<g id="node20" class="node">
<title>Node20</title>
<g id="a_node20"><a xlink:href="_hk_data_base_market_8cpp.html" target="_top" xlink:title=" ">
<polygon fill="none" stroke="black" points="2156.31,-168.5 2156.31,-187.5 2323.31,-187.5 2323.31,-168.5 2156.31,-168.5"/>
<text text-anchor="middle" x="2239.81" y="-175.5" font-family="Helvetica,sans-Serif" font-size="10.00">source/HkDataBaseMarket.cpp</text>
</a>
</g>
</g>
<!-- Node7&#45;&gt;Node20 -->
<g id="edge26" class="edge">
<title>Node7&#45;&gt;Node20</title>
<path fill="none" stroke="midnightblue" d="M1875,-224.54C1876.28,-224.36 1877.55,-224.18 1878.81,-224 1977.93,-210 2092.69,-196.09 2165.73,-187.52"/>
<polygon fill="midnightblue" stroke="midnightblue" points="1874.42,-221.09 1865.04,-226.02 1875.45,-228.02 1874.42,-221.09"/>
</g>
<!-- Node21 -->
<g id="node21" class="node">
<title>Node21</title>
<g id="a_node21"><a xlink:href="_hk_error_8cpp.html" target="_top" xlink:title=" ">
<polygon fill="none" stroke="black" points="2341.81,-168.5 2341.81,-187.5 2449.81,-187.5 2449.81,-168.5 2341.81,-168.5"/>
<text text-anchor="middle" x="2395.81" y="-175.5" font-family="Helvetica,sans-Serif" font-size="10.00">source/HkError.cpp</text>
</a>
</g>
</g>
<!-- Node7&#45;&gt;Node21 -->
<g id="edge27" class="edge">
<title>Node7&#45;&gt;Node21</title>
<path fill="none" stroke="midnightblue" d="M1874.99,-224.47C1876.27,-224.31 1877.55,-224.15 1878.81,-224 2079.81,-200.2 2131.63,-210.32 2332.81,-188 2335.66,-187.68 2338.59,-187.34 2341.54,-186.97"/>
<polygon fill="midnightblue" stroke="midnightblue" points="1874.46,-221.01 1865.02,-225.82 1875.4,-227.94 1874.46,-221.01"/>
</g>
<!-- Node22 -->
<g id="node22" class="node">
<title>Node22</title>
<g id="a_node22"><a xlink:href="_hk_f_l_ini_8cpp.html" target="_top" xlink:title=" ">
<polygon fill="none" stroke="black" points="2468.31,-168.5 2468.31,-187.5 2577.31,-187.5 2577.31,-168.5 2468.31,-168.5"/>
<text text-anchor="middle" x="2522.81" y="-175.5" font-family="Helvetica,sans-Serif" font-size="10.00">source/HkFLIni.cpp</text>
</a>
</g>
</g>
<!-- Node7&#45;&gt;Node22 -->
<g id="edge28" class="edge">
<title>Node7&#45;&gt;Node22</title>
<path fill="none" stroke="midnightblue" d="M1874.98,-224.44C1876.27,-224.28 1877.55,-224.14 1878.81,-224 2135.54,-195.83 2201.84,-214 2458.81,-188 2461.82,-187.69 2464.91,-187.35 2468.03,-186.99"/>
<polygon fill="midnightblue" stroke="midnightblue" points="1874.47,-220.98 1865.01,-225.74 1875.38,-227.92 1874.47,-220.98"/>
</g>
<!-- Node23 -->
<g id="node23" class="node">
<title>Node23</title>
<g id="a_node23"><a xlink:href="_hk_func_cache_8cpp.html" target="_top" xlink:title=" ">
<polygon fill="none" stroke="black" points="2595.81,-168.5 2595.81,-187.5 2733.81,-187.5 2733.81,-168.5 2595.81,-168.5"/>
<text text-anchor="middle" x="2664.81" y="-175.5" font-family="Helvetica,sans-Serif" font-size="10.00">source/HkFuncCache.cpp</text>
</a>
</g>
</g>
<!-- Node7&#45;&gt;Node23 -->
<g id="edge29" class="edge">
<title>Node7&#45;&gt;Node23</title>
<path fill="none" stroke="midnightblue" d="M1874.98,-224.42C1876.27,-224.27 1877.54,-224.13 1878.81,-224 2192.19,-191.38 2272.81,-214.07 2586.81,-188 2589.66,-187.76 2592.57,-187.5 2595.51,-187.23"/>
<polygon fill="midnightblue" stroke="midnightblue" points="1874.48,-220.96 1865,-225.69 1875.36,-227.9 1874.48,-220.96"/>
</g>
<!-- Node24 -->
<g id="node24" class="node">
<title>Node24</title>
<g id="a_node24"><a xlink:href="_hk_func_log_8cpp.html" target="_top" xlink:title=" ">
<polygon fill="none" stroke="black" points="2790.31,-168.5 2790.31,-187.5 2915.31,-187.5 2915.31,-168.5 2790.31,-168.5"/>
<text text-anchor="middle" x="2852.81" y="-175.5" font-family="Helvetica,sans-Serif" font-size="10.00">source/HkFuncLog.cpp</text>
</a>
</g>
</g>
<!-- Node7&#45;&gt;Node24 -->
<g id="edge30" class="edge">
<title>Node7&#45;&gt;Node24</title>
<path fill="none" stroke="midnightblue" d="M1874.98,-224.4C1876.27,-224.26 1877.54,-224.12 1878.81,-224 2275.86,-184.82 2378.04,-219.18 2775.81,-188 2780.5,-187.63 2785.35,-187.2 2790.23,-186.72"/>
<polygon fill="midnightblue" stroke="midnightblue" points="1874.49,-220.94 1865,-225.64 1875.35,-227.88 1874.49,-220.94"/>
</g>
<!-- Node25 -->
<g id="node25" class="node">
<title>Node25</title>
<g id="a_node25"><a xlink:href="_hk_func_msg_8cpp.html" target="_top" xlink:title=" ">
<polygon fill="none" stroke="black" points="2933.81,-168.5 2933.81,-187.5 3061.81,-187.5 3061.81,-168.5 2933.81,-168.5"/>
<text text-anchor="middle" x="2997.81" y="-175.5" font-family="Helvetica,sans-Serif" font-size="10.00">source/HkFuncMsg.cpp</text>
</a>
</g>
</g>
<!-- Node7&#45;&gt;Node25 -->
<g id="edge31" class="edge">
<title>Node7&#45;&gt;Node25</title>
<path fill="none" stroke="midnightblue" d="M1874.98,-224.39C1876.27,-224.25 1877.54,-224.12 1878.81,-224 2341.85,-179.64 2461.08,-224.49 2924.81,-188 2927.73,-187.77 2930.72,-187.51 2933.74,-187.22"/>
<polygon fill="midnightblue" stroke="midnightblue" points="1874.5,-220.92 1864.99,-225.61 1875.35,-227.87 1874.5,-220.92"/>
</g>
<!-- Node26 -->
<g id="node26" class="node">
<title>Node26</title>
<g id="a_node26"><a xlink:href="_hk_func_other_8cpp.html" target="_top" xlink:title=" ">
<polygon fill="none" stroke="black" points="3079.81,-168.5 3079.81,-187.5 3213.81,-187.5 3213.81,-168.5 3079.81,-168.5"/>
<text text-anchor="middle" x="3146.81" y="-175.5" font-family="Helvetica,sans-Serif" font-size="10.00">source/HkFuncOther.cpp</text>
</a>
</g>
</g>
<!-- Node7&#45;&gt;Node26 -->
<g id="edge32" class="edge">
<title>Node7&#45;&gt;Node26</title>
<path fill="none" stroke="midnightblue" d="M1874.98,-224.38C1876.27,-224.25 1877.54,-224.12 1878.81,-224 2406.51,-174.57 2542.24,-227.2 3070.81,-188 3073.72,-187.78 3076.7,-187.54 3079.7,-187.27"/>
<polygon fill="midnightblue" stroke="midnightblue" points="1874.5,-220.92 1864.99,-225.59 1875.34,-227.87 1874.5,-220.92"/>
</g>
<!-- Node27 -->
<g id="node27" class="node">
<title>Node27</title>
<g id="a_node27"><a xlink:href="_hk_func_players_8cpp.html" target="_top" xlink:title=" ">
<polygon fill="none" stroke="black" points="3231.81,-168.5 3231.81,-187.5 3375.81,-187.5 3375.81,-168.5 3231.81,-168.5"/>
<text text-anchor="middle" x="3303.81" y="-175.5" font-family="Helvetica,sans-Serif" font-size="10.00">source/HkFuncPlayers.cpp</text>
</a>
</g>
</g>
<!-- Node7&#45;&gt;Node27 -->
<g id="edge33" class="edge">
<title>Node7&#45;&gt;Node27</title>
<path fill="none" stroke="midnightblue" d="M1874.98,-224.38C1876.27,-224.24 1877.54,-224.12 1878.81,-224 2473.84,-169.29 2626.67,-229.03 3222.81,-188 3225.63,-187.81 3228.51,-187.59 3231.41,-187.35"/>
<polygon fill="midnightblue" stroke="midnightblue" points="1874.5,-220.91 1864.99,-225.58 1875.34,-227.86 1874.5,-220.91"/>
</g>
<!-- Node28 -->
<g id="node28" class="node">
<title>Node28</title>
<g id="a_node28"><a xlink:href="_hk_func_tools_8cpp.html" target="_top" xlink:title=" ">
<polygon fill="none" stroke="black" points="3394.31,-168.5 3394.31,-187.5 3527.31,-187.5 3527.31,-168.5 3394.31,-168.5"/>
<text text-anchor="middle" x="3460.81" y="-175.5" font-family="Helvetica,sans-Serif" font-size="10.00">source/HkFuncTools.cpp</text>
</a>
</g>
</g>
<!-- Node7&#45;&gt;Node28 -->
<g id="edge34" class="edge">
<title>Node7&#45;&gt;Node28</title>
<path fill="none" stroke="midnightblue" d="M1874.98,-224.37C1876.27,-224.24 1877.54,-224.11 1878.81,-224 2545.61,-163.66 2716.96,-235.42 3384.81,-188 3387.85,-187.78 3390.97,-187.53 3394.11,-187.26"/>
<polygon fill="midnightblue" stroke="midnightblue" points="1874.51,-220.91 1864.99,-225.56 1875.33,-227.86 1874.51,-220.91"/>
</g>
<!-- Node29 -->
<g id="node29" class="node">
<title>Node29</title>
<g id="a_node29"><a xlink:href="_hk_help_8cpp.html" target="_top" xlink:title=" ">
<polygon fill="none" stroke="black" points="207.81,-168.5 207.81,-187.5 315.81,-187.5 315.81,-168.5 207.81,-168.5"/>
<text text-anchor="middle" x="261.81" y="-175.5" font-family="Helvetica,sans-Serif" font-size="10.00">source/HkHelp.cpp</text>
</a>
</g>
</g>
<!-- Node7&#45;&gt;Node29 -->
<g id="edge35" class="edge">
<title>Node7&#45;&gt;Node29</title>
<path fill="none" stroke="midnightblue" d="M1768.6,-232.2C1536.81,-228.59 613.9,-212.92 324.81,-188 321.94,-187.75 319.01,-187.46 316.06,-187.14"/>
<polygon fill="midnightblue" stroke="midnightblue" points="1768.74,-235.7 1778.79,-232.36 1768.85,-228.7 1768.74,-235.7"/>
</g>
<!-- Node30 -->
<g id="node30" class="node">
<title>Node30</title>
<g id="a_node30"><a xlink:href="_hk_i_chat_server_8cpp.html" target="_top" xlink:title=" ">
<polygon fill="none" stroke="black" points="333.81,-168.5 333.81,-187.5 475.81,-187.5 475.81,-168.5 333.81,-168.5"/>
<text text-anchor="middle" x="404.81" y="-175.5" font-family="Helvetica,sans-Serif" font-size="10.00">source/HkIChatServer.cpp</text>
</a>
</g>
</g>
<!-- Node7&#45;&gt;Node30 -->
<g id="edge36" class="edge">
<title>Node7&#45;&gt;Node30</title>
<path fill="none" stroke="midnightblue" d="M1768.73,-232.71C1588.47,-231.39 983.28,-224.37 484.81,-188 481.88,-187.79 478.89,-187.55 475.88,-187.29"/>
<polygon fill="midnightblue" stroke="midnightblue" points="1768.72,-236.21 1778.74,-232.78 1768.77,-229.21 1768.72,-236.21"/>
</g>
<!-- Node31 -->
<g id="node31" class="node">
<title>Node31</title>
<g id="a_node31"><a xlink:href="_hk_i_client_impl_8inl.html" target="_top" xlink:title=" ">
<polygon fill="none" stroke="black" points="2271.81,-112.5 2271.81,-131.5 2405.81,-131.5 2405.81,-112.5 2271.81,-112.5"/>
<text text-anchor="middle" x="2338.81" y="-119.5" font-family="Helvetica,sans-Serif" font-size="10.00">source/HkIClientImpl.inl</text>
</a>
</g>
</g>
<!-- Node7&#45;&gt;Node31 -->
<g id="edge37" class="edge">
<title>Node7&#45;&gt;Node31</title>
<path fill="none" stroke="midnightblue" d="M1874.98,-224.4C1876.27,-224.26 1877.54,-224.13 1878.81,-224 1926.61,-219.25 2709.55,-222.67 2742.81,-188 2790.63,-138.14 2532.58,-126.52 2405.83,-123.82"/>
<polygon fill="midnightblue" stroke="midnightblue" points="1874.49,-220.94 1865,-225.65 1875.35,-227.88 1874.49,-220.94"/>
</g>
<!-- Node32 -->
<g id="node32" class="node">
<title>Node32</title>
<g id="a_node32"><a xlink:href="_hk_i_engine_8cpp.html" target="_top" xlink:title=" ">
<polygon fill="none" stroke="black" points="493.81,-168.5 493.81,-187.5 615.81,-187.5 615.81,-168.5 493.81,-168.5"/>
<text text-anchor="middle" x="554.81" y="-175.5" font-family="Helvetica,sans-Serif" font-size="10.00">source/HkIEngine.cpp</text>
</a>
</g>
</g>
<!-- Node7&#45;&gt;Node32 -->
<g id="edge39" class="edge">
<title>Node7&#45;&gt;Node32</title>
<path fill="none" stroke="midnightblue" d="M1768.71,-232.71C1600.72,-231.43 1065.82,-224.57 624.81,-188 621.87,-187.76 618.88,-187.48 615.85,-187.18"/>
<polygon fill="midnightblue" stroke="midnightblue" points="1768.75,-236.21 1778.78,-232.78 1768.81,-229.21 1768.75,-236.21"/>
</g>
<!-- Node33 -->
<g id="node33" class="node">
<title>Node33</title>
<g id="a_node33"><a xlink:href="_hk_i_engine_damage_8cpp.html" target="_top" xlink:title=" ">
<polygon fill="none" stroke="black" points="634.31,-168.5 634.31,-187.5 797.31,-187.5 797.31,-168.5 634.31,-168.5"/>
<text text-anchor="middle" x="715.81" y="-175.5" font-family="Helvetica,sans-Serif" font-size="10.00">source/HkIEngineDamage.cpp</text>
</a>
</g>
</g>
<!-- Node7&#45;&gt;Node33 -->
<g id="edge40" class="edge">
<title>Node7&#45;&gt;Node33</title>
<path fill="none" stroke="midnightblue" d="M1768.3,-231.67C1617.03,-227.7 1173.41,-214.5 805.81,-188 803.14,-187.81 800.44,-187.6 797.71,-187.38"/>
<polygon fill="midnightblue" stroke="midnightblue" points="1768.59,-235.18 1778.68,-231.94 1768.77,-228.19 1768.59,-235.18"/>
</g>
<!-- Node34 -->
<g id="node34" class="node">
<title>Node34</title>
<g id="a_node34"><a xlink:href="_hk_i_engine_death_8cpp.html" target="_top" xlink:title=" ">
<polygon fill="none" stroke="black" points="815.31,-168.5 815.31,-187.5 966.31,-187.5 966.31,-168.5 815.31,-168.5"/>
<text text-anchor="middle" x="890.81" y="-175.5" font-family="Helvetica,sans-Serif" font-size="10.00">source/HkIEngineDeath.cpp</text>
</a>
</g>
</g>
<!-- Node7&#45;&gt;Node34 -->
<g id="edge41" class="edge">
<title>Node7&#45;&gt;Node34</title>
<path fill="none" stroke="midnightblue" d="M1768.24,-231.13C1634.45,-226.23 1274.88,-211.77 975.81,-188 972.7,-187.75 969.53,-187.49 966.33,-187.2"/>
<polygon fill="midnightblue" stroke="midnightblue" points="1768.49,-234.64 1778.61,-231.5 1768.75,-227.64 1768.49,-234.64"/>
</g>
<!-- Node35 -->
<g id="node35" class="node">
<title>Node35</title>
<g id="a_node35"><a xlink:href="_hk_i_engine_disconnect_8cpp.html" target="_top" xlink:title=" ">
<polygon fill="none" stroke="black" points="984.81,-168.5 984.81,-187.5 1160.81,-187.5 1160.81,-168.5 984.81,-168.5"/>
<text text-anchor="middle" x="1072.81" y="-175.5" font-family="Helvetica,sans-Serif" font-size="10.00">source/HkIEngineDisconnect.cpp</text>
</a>
</g>
</g>
<!-- Node7&#45;&gt;Node35 -->
<g id="edge42" class="edge">
<title>Node7&#45;&gt;Node35</title>
<path fill="none" stroke="midnightblue" d="M1768.47,-229.72C1657.28,-222.8 1392.61,-205.85 1170.81,-188 1167.57,-187.74 1164.27,-187.47 1160.95,-187.19"/>
<polygon fill="midnightblue" stroke="midnightblue" points="1768.54,-233.23 1778.74,-230.36 1768.98,-226.25 1768.54,-233.23"/>
</g>
<!-- Node36 -->
<g id="node36" class="node">
<title>Node36</title>
<g id="a_node36"><a xlink:href="_hk_init_8cpp.html" target="_top" xlink:title=" ">
<polygon fill="none" stroke="black" points="1179.31,-168.5 1179.31,-187.5 1280.31,-187.5 1280.31,-168.5 1179.31,-168.5"/>
<text text-anchor="middle" x="1229.81" y="-175.5" font-family="Helvetica,sans-Serif" font-size="10.00">source/HkInit.cpp</text>
</a>
</g>
</g>
<!-- Node7&#45;&gt;Node36 -->
<g id="edge44" class="edge">
<title>Node7&#45;&gt;Node36</title>
<path fill="none" stroke="midnightblue" d="M1768.58,-229.64C1672.68,-223.33 1464.57,-208.48 1289.81,-188 1286.77,-187.64 1283.66,-187.25 1280.51,-186.84"/>
<polygon fill="midnightblue" stroke="midnightblue" points="1768.4,-233.14 1778.61,-230.29 1768.86,-226.15 1768.4,-233.14"/>
</g>
<!-- Node37 -->
<g id="node37" class="node">
<title>Node37</title>
<g id="a_node37"><a xlink:href="_hk_timers_8cpp.html" target="_top" xlink:title=" ">
<polygon fill="none" stroke="black" points="1298.31,-168.5 1298.31,-187.5 1417.31,-187.5 1417.31,-168.5 1298.31,-168.5"/>
<text text-anchor="middle" x="1357.81" y="-175.5" font-family="Helvetica,sans-Serif" font-size="10.00">source/HkTimers.cpp</text>
</a>
</g>
</g>
<!-- Node7&#45;&gt;Node37 -->
<g id="edge46" class="edge">
<title>Node7&#45;&gt;Node37</title>
<path fill="none" stroke="midnightblue" d="M1768.26,-227.18C1692.28,-218.86 1548.84,-202.91 1426.81,-188 1423.81,-187.63 1420.74,-187.25 1417.64,-186.86"/>
<polygon fill="midnightblue" stroke="midnightblue" points="1768.2,-230.69 1778.53,-228.3 1768.97,-223.74 1768.2,-230.69"/>
</g>
<!-- Node38 -->
<g id="node38" class="node">
<title>Node38</title>
<g id="a_node38"><a xlink:href="_hk_user_cmd_8cpp.html" target="_top" xlink:title=" ">
<polygon fill="none" stroke="black" points="1435.31,-168.5 1435.31,-187.5 1566.31,-187.5 1566.31,-168.5 1435.31,-168.5"/>
<text text-anchor="middle" x="1500.81" y="-175.5" font-family="Helvetica,sans-Serif" font-size="10.00">source/HkUserCmd.cpp</text>
</a>
</g>
</g>
<!-- Node7&#45;&gt;Node38 -->
<g id="edge47" class="edge">
<title>Node7&#45;&gt;Node38</title>
<path fill="none" stroke="midnightblue" d="M1768.44,-224.02C1708.16,-213.88 1610.79,-197.5 1551.6,-187.54"/>
<polygon fill="midnightblue" stroke="midnightblue" points="1768.07,-227.51 1778.51,-225.72 1769.23,-220.61 1768.07,-227.51"/>
</g>
<!-- Node7&#45;&gt;Node39 -->
<g id="edge48" class="edge">
<title>Node7&#45;&gt;Node39</title>
<path fill="none" stroke="midnightblue" d="M1874.98,-224.37C1876.27,-224.24 1877.54,-224.11 1878.81,-224 2612.94,-158.37 2802.08,-246.64 3536.81,-188 3539.64,-187.77 3542.55,-187.51 3545.48,-187.21"/>
<polygon fill="midnightblue" stroke="midnightblue" points="1874.51,-220.9 1864.99,-225.55 1875.33,-227.85 1874.51,-220.9"/>
</g>
<!-- Node7&#45;&gt;Node40 -->
<g id="edge49" class="edge">
<title>Node7&#45;&gt;Node40</title>
<path fill="none" stroke="midnightblue" d="M1875.37,-227.23C1888.88,-225.96 1903.36,-224.77 1916.81,-224 2693.46,-179.28 2891.82,-255.79 3666.81,-188 3669.85,-187.73 3672.98,-187.41 3676.13,-187.04"/>
<polygon fill="midnightblue" stroke="midnightblue" points="1874.88,-223.76 1865.26,-228.2 1875.55,-230.73 1874.88,-223.76"/>
</g>
<!-- Node7&#45;&gt;Node41 -->
<g id="edge50" class="edge">
<title>Node7&#45;&gt;Node41</title>
<path fill="none" stroke="midnightblue" d="M1875,-228.82C1899.32,-227.05 1928.51,-225.15 1954.81,-224 2766.63,-188.56 2972.13,-243.85 3782.81,-188 3785.59,-187.81 3788.43,-187.59 3791.29,-187.34"/>
<polygon fill="midnightblue" stroke="midnightblue" points="1874.62,-225.33 1864.9,-229.56 1875.13,-232.31 1874.62,-225.33"/>
</g>
<!-- Node8&#45;&gt;Node4 -->
<g id="edge8" class="edge">
<title>Node8&#45;&gt;Node4</title>
<path fill="none" stroke="midnightblue" d="M1574.23,-167.98C1336.58,-145.69 661.41,-128.77 465.61,-124.22"/>
<polygon fill="midnightblue" stroke="midnightblue" points="1573.91,-171.47 1584.2,-168.95 1574.58,-164.5 1573.91,-171.47"/>
</g>
<!-- Node9 -->
<g id="node9" class="node">
<title>Node9</title>
<g id="a_node9"><a xlink:href="_c_console_8h.html" target="_top" xlink:title=" ">
<polygon fill="none" stroke="black" points="1240.31,-112.5 1240.31,-131.5 1347.31,-131.5 1347.31,-112.5 1240.31,-112.5"/>
<text text-anchor="middle" x="1293.81" y="-119.5" font-family="Helvetica,sans-Serif" font-size="10.00">source/CConsole.h</text>
</a>
</g>
</g>
<!-- Node8&#45;&gt;Node9 -->
<g id="edge9" class="edge">
<title>Node8&#45;&gt;Node9</title>
<path fill="none" stroke="midnightblue" d="M1574.09,-167.73C1489.28,-154.15 1401.91,-140.22 1347.35,-131.53"/>
<polygon fill="midnightblue" stroke="midnightblue" points="1573.72,-171.21 1584.15,-169.34 1574.83,-164.3 1573.72,-171.21"/>
</g>
<!-- Node11 -->
<g id="node11" class="node">
<title>Node11</title>
<g id="a_node11"><a xlink:href="_c_in_game_8h.html" target="_top" xlink:title=" ">
<polygon fill="none" stroke="black" points="1435.81,-112.5 1435.81,-131.5 1541.81,-131.5 1541.81,-112.5 1435.81,-112.5"/>
<text text-anchor="middle" x="1488.81" y="-119.5" font-family="Helvetica,sans-Serif" font-size="10.00">source/CInGame.h</text>
</a>
</g>
</g>
<!-- Node8&#45;&gt;Node11 -->
<g id="edge12" class="edge">
<title>Node8&#45;&gt;Node11</title>
<path fill="none" stroke="midnightblue" d="M1599.78,-164.91C1572.89,-154.75 1535.16,-140.51 1511.36,-131.52"/>
<polygon fill="midnightblue" stroke="midnightblue" points="1598.56,-168.19 1609.15,-168.44 1601.03,-161.64 1598.56,-168.19"/>
</g>
<!-- Node15 -->
<g id="node15" class="node">
<title>Node15</title>
<g id="a_node15"><a xlink:href="_c_socket_8h.html" target="_top" xlink:title=" ">
<polygon fill="none" stroke="black" points="901.81,-112.5 901.81,-131.5 1001.81,-131.5 1001.81,-112.5 901.81,-112.5"/>
<text text-anchor="middle" x="951.81" y="-119.5" font-family="Helvetica,sans-Serif" font-size="10.00">source/CSocket.h</text>
</a>
</g>
</g>
<!-- Node8&#45;&gt;Node15 -->
<g id="edge16" class="edge">
<title>Node8&#45;&gt;Node15</title>
<path fill="none" stroke="midnightblue" d="M1574.13,-167.9C1355.58,-142.9 1106.71,-129.9 1002.09,-125.13"/>
<polygon fill="midnightblue" stroke="midnightblue" points="1573.85,-171.39 1584.19,-169.06 1574.65,-164.43 1573.85,-171.39"/>
</g>
<!-- Node8&#45;&gt;Node17 -->
<g id="edge19" class="edge">
<title>Node8&#45;&gt;Node17</title>
<path fill="none" stroke="midnightblue" d="M1634.26,-158.1C1635.42,-149.14 1636.75,-138.86 1637.67,-131.75"/>
<polygon fill="midnightblue" stroke="midnightblue" points="1630.78,-157.72 1632.96,-168.08 1637.72,-158.62 1630.78,-157.72"/>
</g>
<!-- Node9&#45;&gt;Node6 -->
<g id="edge11" class="edge">
<title>Node9&#45;&gt;Node6</title>
<path fill="none" stroke="midnightblue" d="M1229.81,-117.27C1057.07,-107.19 583.47,-79.58 422.32,-70.18"/>
<polygon fill="midnightblue" stroke="midnightblue" points="1229.83,-120.78 1240.02,-117.86 1230.24,-113.79 1229.83,-120.78"/>
</g>
<!-- Node10 -->
<g id="node10" class="node">
<title>Node10</title>
<g id="a_node10"><a xlink:href="_c_console_8cpp.html" target="_top" xlink:title=" ">
<polygon fill="none" stroke="black" points="1234.81,-56.5 1234.81,-75.5 1352.81,-75.5 1352.81,-56.5 1234.81,-56.5"/>
<text text-anchor="middle" x="1293.81" y="-63.5" font-family="Helvetica,sans-Serif" font-size="10.00">source/CConsole.cpp</text>
</a>
</g>
</g>
<!-- Node9&#45;&gt;Node10 -->
<g id="edge10" class="edge">
<title>Node9&#45;&gt;Node10</title>
<path fill="none" stroke="midnightblue" d="M1293.81,-101.8C1293.81,-92.91 1293.81,-82.78 1293.81,-75.75"/>
<polygon fill="midnightblue" stroke="midnightblue" points="1290.31,-102.08 1293.81,-112.08 1297.31,-102.08 1290.31,-102.08"/>
</g>
<!-- Node11&#45;&gt;Node12 -->
<g id="edge13" class="edge">
<title>Node11&#45;&gt;Node12</title>
<path fill="none" stroke="midnightblue" d="M1502.85,-104.14C1510.69,-94.74 1520.14,-83.4 1526.51,-75.75"/>
<polygon fill="midnightblue" stroke="midnightblue" points="1499.95,-102.16 1496.24,-112.08 1505.33,-106.64 1499.95,-102.16"/>
</g>
<!-- Node11&#45;&gt;Node13 -->
<g id="edge14" class="edge">
<title>Node11&#45;&gt;Node13</title>
<path fill="none" stroke="midnightblue" d="M1536.21,-110.15C1580.8,-99.95 1646.66,-84.88 1687.59,-75.52"/>
<polygon fill="midnightblue" stroke="midnightblue" points="1535.17,-106.8 1526.2,-112.44 1536.73,-113.62 1535.17,-106.8"/>
</g>
<!-- Node13&#45;&gt;Node14 -->
<g id="edge15" class="edge">
<title>Node13&#45;&gt;Node14</title>
<path fill="none" stroke="midnightblue" d="M1749.14,-51.45C1767.05,-41.48 1790.86,-28.23 1806.26,-19.65"/>
<polygon fill="midnightblue" stroke="midnightblue" points="1747.43,-48.4 1740.39,-56.32 1750.83,-54.52 1747.43,-48.4"/>
</g>
<!-- Node15&#45;&gt;Node6 -->
<g id="edge18" class="edge">
<title>Node15&#45;&gt;Node6</title>
<path fill="none" stroke="midnightblue" d="M891.48,-115.42C777.46,-104.88 531.98,-82.18 422.47,-72.05"/>
<polygon fill="midnightblue" stroke="midnightblue" points="891.48,-118.94 901.76,-116.37 892.13,-111.97 891.48,-118.94"/>
</g>
<!-- Node16 -->
<g id="node16" class="node">
<title>Node16</title>
<g id="a_node16"><a xlink:href="_c_socket_8cpp.html" target="_top" xlink:title=" ">
<polygon fill="none" stroke="black" points="896.31,-56.5 896.31,-75.5 1007.31,-75.5 1007.31,-56.5 896.31,-56.5"/>
<text text-anchor="middle" x="951.81" y="-63.5" font-family="Helvetica,sans-Serif" font-size="10.00">source/CSocket.cpp</text>
</a>
</g>
</g>
<!-- Node15&#45;&gt;Node16 -->
<g id="edge17" class="edge">
<title>Node15&#45;&gt;Node16</title>
<path fill="none" stroke="midnightblue" d="M951.81,-101.8C951.81,-92.91 951.81,-82.78 951.81,-75.75"/>
<polygon fill="midnightblue" stroke="midnightblue" points="948.31,-102.08 951.81,-112.08 955.31,-102.08 948.31,-102.08"/>
</g>
<!-- Node31&#45;&gt;Node14 -->
<g id="edge38" class="edge">
<title>Node31&#45;&gt;Node14</title>
<path fill="none" stroke="midnightblue" d="M2288.58,-110.31C2186.19,-88.53 1955.13,-39.37 1861.92,-19.53"/>
<polygon fill="midnightblue" stroke="midnightblue" points="2288.16,-113.8 2298.67,-112.46 2289.62,-106.96 2288.16,-113.8"/>
</g>
</g>
</svg>
