<?xml version="1.0" encoding="UTF-8" standalone="no"?>
<!DOCTYPE svg PUBLIC "-//W3C//DTD SVG 1.1//EN"
 "http://www.w3.org/Graphics/SVG/1.1/DTD/svg11.dtd">
<!-- Generated by graphviz version 2.43.0 (0)
 -->
<!-- Title: plugins/cash_manager/Sql.cpp Pages: 1 -->
<svg width="195pt" height="148pt"
 viewBox="0.00 0.00 195.00 148.00" xmlns="http://www.w3.org/2000/svg" xmlns:xlink="http://www.w3.org/1999/xlink">
<g id="graph0" class="graph" transform="scale(1 1) rotate(0) translate(4 144)">
<title>plugins/cash_manager/Sql.cpp</title>
<!-- Node1 -->
<g id="node1" class="node">
<title>Node1</title>
<g id="a_node1"><a xlink:title=" ">
<polygon fill="#999999" stroke="#666666" points="135,-140 9,-140 9,-110 135,-110 135,-140"/>
<text text-anchor="start" x="17" y="-128" font-family="Helvetica,sans-Serif" font-size="10.00">plugins/cash_manager</text>
<text text-anchor="middle" x="72" y="-117" font-family="Helvetica,sans-Serif" font-size="10.00">/Sql.cpp</text>
</a>
</g>
</g>
<!-- Node2 -->
<g id="node2" class="node">
<title>Node2</title>
<g id="a_node2"><a xlink:title=" ">
<polygon fill="#e0e0e0" stroke="#999999" points="54,-74 0,-74 0,-55 54,-55 54,-74"/>
<text text-anchor="middle" x="27" y="-62" font-family="Helvetica,sans-Serif" font-size="10.00">random</text>
</a>
</g>
</g>
<!-- Node1&#45;&gt;Node2 -->
<g id="edge1" class="edge">
<title>Node1&#45;&gt;Node2</title>
<path fill="none" stroke="#63b8ff" d="M61.11,-109.84C54.71,-101.52 46.58,-90.96 39.87,-82.23"/>
<polygon fill="#63b8ff" stroke="#63b8ff" points="42.61,-80.06 33.74,-74.27 37.07,-84.33 42.61,-80.06"/>
</g>
<!-- Node3 -->
<g id="node3" class="node">
<title>Node3</title>
<g id="a_node3"><a xlink:href="_cash_manager_8h.html" target="_top" xlink:title=" ">
<polygon fill="white" stroke="#666666" points="164,-74 72,-74 72,-55 164,-55 164,-74"/>
<text text-anchor="middle" x="118" y="-62" font-family="Helvetica,sans-Serif" font-size="10.00">CashManager.h</text>
</a>
</g>
</g>
<!-- Node1&#45;&gt;Node3 -->
<g id="edge2" class="edge">
<title>Node1&#45;&gt;Node3</title>
<path fill="none" stroke="#63b8ff" d="M83.14,-109.84C89.68,-101.52 97.98,-90.96 104.84,-82.23"/>
<polygon fill="#63b8ff" stroke="#63b8ff" points="107.68,-84.29 111.11,-74.27 102.17,-79.96 107.68,-84.29"/>
</g>
<!-- Node4 -->
<g id="node4" class="node">
<title>Node4</title>
<g id="a_node4"><a xlink:title=" ">
<polygon fill="#e0e0e0" stroke="#999999" points="113,-19 39,-19 39,0 113,0 113,-19"/>
<text text-anchor="middle" x="76" y="-7" font-family="Helvetica,sans-Serif" font-size="10.00">FLHook.hpp</text>
</a>
</g>
</g>
<!-- Node3&#45;&gt;Node4 -->
<g id="edge3" class="edge">
<title>Node3&#45;&gt;Node4</title>
<path fill="none" stroke="#63b8ff" d="M111.06,-54.75C105.13,-47.26 96.43,-36.28 89.18,-27.13"/>
<polygon fill="#63b8ff" stroke="#63b8ff" points="91.76,-24.75 82.81,-19.09 86.27,-29.1 91.76,-24.75"/>
</g>
<!-- Node5 -->
<g id="node5" class="node">
<title>Node5</title>
<g id="a_node5"><a xlink:title=" ">
<polygon fill="#e0e0e0" stroke="#999999" points="187,-19 131,-19 131,0 187,0 187,-19"/>
<text text-anchor="middle" x="159" y="-7" font-family="Helvetica,sans-Serif" font-size="10.00">plugin.h</text>
</a>
</g>
</g>
<!-- Node3&#45;&gt;Node5 -->
<g id="edge4" class="edge">
<title>Node3&#45;&gt;Node5</title>
<path fill="none" stroke="#63b8ff" d="M124.77,-54.75C130.56,-47.26 139.06,-36.28 146.14,-27.13"/>
<polygon fill="#63b8ff" stroke="#63b8ff" points="149.01,-29.14 152.36,-19.09 143.47,-24.86 149.01,-29.14"/>
</g>
</g>
</svg>
