<?xml version="1.0" encoding="UTF-8" standalone="no"?>
<!DOCTYPE svg PUBLIC "-//W3C//DTD SVG 1.1//EN"
 "http://www.w3.org/Graphics/SVG/1.1/DTD/svg11.dtd">
<!-- Generated by graphviz version 2.43.0 (0)
 -->
<!-- Title: plugins/message_plugin Pages: 1 -->
<svg width="228pt" height="167pt"
 viewBox="0.00 0.00 228.00 167.00" xmlns="http://www.w3.org/2000/svg" xmlns:xlink="http://www.w3.org/1999/xlink">
<g id="graph0" class="graph" transform="scale(1 1) rotate(0) translate(4 163)">
<title>plugins/message_plugin</title>
<g id="clust1" class="cluster">
<title>clusterdir_38c8d24aef3972a7f87b834274e76e31</title>
<g id="a_clust1"><a xlink:href="dir_38c8d24aef3972a7f87b834274e76e31.html" target="_top" xlink:title="plugins">
<polygon fill="#ddddee" stroke="black" points="8,-8 8,-151 212,-151 212,-8 8,-8"/>
<text text-anchor="middle" x="110" y="-139" font-family="Helvetica,sans-Serif" font-size="10.00">plugins</text>
</a>
</g>
</g>
<!-- dir_46abf0d4860c1b90a7dc0d4f878305c0 -->
<g id="node1" class="node">
<title>dir_46abf0d4860c1b90a7dc0d4f878305c0</title>
<g id="a_node1"><a xlink:href="dir_46abf0d4860c1b90a7dc0d4f878305c0.html" target="_top" xlink:title="tempban_plugin">
<polygon fill="none" stroke="black" points="111.5,-52 16.5,-52 16.5,-16 111.5,-16 111.5,-52"/>
<text text-anchor="middle" x="64" y="-31.5" font-family="Helvetica,sans-Serif" font-size="10.00">tempban_plugin</text>
</a>
</g>
</g>
<!-- dir_4e70664b7697fc102988908e3e049201 -->
<g id="node2" class="node">
<title>dir_4e70664b7697fc102988908e3e049201</title>
<g id="a_node2"><a xlink:href="dir_4e70664b7697fc102988908e3e049201.html" target="_top" xlink:title="mail_plugin">
<polygon fill="none" stroke="black" points="204,-52 130,-52 130,-16 204,-16 204,-52"/>
<text text-anchor="middle" x="167" y="-31.5" font-family="Helvetica,sans-Serif" font-size="10.00">mail_plugin</text>
</a>
</g>
</g>
<!-- dir_fe26138fc9a0f1b042c00b4c994a0726 -->
<g id="node3" class="node">
<title>dir_fe26138fc9a0f1b042c00b4c994a0726</title>
<g id="a_node3"><a xlink:href="dir_fe26138fc9a0f1b042c00b4c994a0726.html" target="_top" xlink:title="message_plugin">
<polygon fill="#eeeeff" stroke="black" points="158,-124 62,-124 62,-88 158,-88 158,-124"/>
<text text-anchor="middle" x="110" y="-103.5" font-family="Helvetica,sans-Serif" font-size="10.00">message_plugin</text>
</a>
</g>
</g>
<!-- dir_fe26138fc9a0f1b042c00b4c994a0726&#45;&gt;dir_46abf0d4860c1b90a7dc0d4f878305c0 -->
<g id="edge1" class="edge">
<title>dir_fe26138fc9a0f1b042c00b4c994a0726&#45;&gt;dir_46abf0d4860c1b90a7dc0d4f878305c0</title>
<path fill="none" stroke="black" d="M98.63,-87.7C93.28,-79.56 86.8,-69.69 80.89,-60.7"/>
<polygon fill="black" stroke="black" points="83.66,-58.54 75.24,-52.1 77.81,-62.38 83.66,-58.54"/>
<g id="a_edge1&#45;headlabel"><a xlink:href="dir_000025_000039.html" target="_top" xlink:title="1">
<text text-anchor="middle" x="88" y="-57.48" font-family="Helvetica,sans-Serif" font-size="10.00">1</text>
</a>
</g>
</g>
<!-- dir_fe26138fc9a0f1b042c00b4c994a0726&#45;&gt;dir_4e70664b7697fc102988908e3e049201 -->
<g id="edge2" class="edge">
<title>dir_fe26138fc9a0f1b042c00b4c994a0726&#45;&gt;dir_4e70664b7697fc102988908e3e049201</title>
<path fill="none" stroke="black" d="M124.09,-87.7C130.92,-79.3 139.26,-69.07 146.76,-59.86"/>
<polygon fill="black" stroke="black" points="149.47,-62.07 153.07,-52.1 144.04,-57.65 149.47,-62.07"/>
<g id="a_edge2&#45;headlabel"><a xlink:href="dir_000025_000023.html" target="_top" xlink:title="1">
<text text-anchor="middle" x="149.4" y="-64.15" font-family="Helvetica,sans-Serif" font-size="10.00">1</text>
</a>
</g>
</g>
</g>
</svg>
