<?xml version="1.0" encoding="UTF-8" standalone="no"?>
<!DOCTYPE svg PUBLIC "-//W3C//DTD SVG 1.1//EN"
 "http://www.w3.org/Graphics/SVG/1.1/DTD/svg11.dtd">
<!-- Generated by graphviz version 2.43.0 (0)
 -->
<!-- Title: plugins Pages: 1 -->
<svg width="2954pt" height="114pt"
 viewBox="0.00 0.00 2954.00 114.00" xmlns="http://www.w3.org/2000/svg" xmlns:xlink="http://www.w3.org/1999/xlink">
<g id="graph0" class="graph" transform="scale(1 1) rotate(0) translate(4 110)">
<title>plugins</title>
<g id="clust1" class="cluster">
<title>clusterdir_38c8d24aef3972a7f87b834274e76e31</title>
<g id="a_clust1"><a xlink:href="dir_38c8d24aef3972a7f87b834274e76e31.html" target="_top">
<polygon fill="#daedff" stroke="#404040" stroke-width="2" points="8,-8 8,-98 2938,-98 2938,-8 8,-8"/>
</a>
</g>
</g>
<!-- dir_38c8d24aef3972a7f87b834274e76e31 -->
<g id="node1" class="node">
<title>dir_38c8d24aef3972a7f87b834274e76e31</title>
<text text-anchor="middle" x="2904" y="-78" font-family="Helvetica,sans-Serif" font-size="10.00">plugins</text>
</g>
<!-- dir_93f8da189241c290854b407a877c2368 -->
<g id="node2" class="node">
<title>dir_93f8da189241c290854b407a877c2368</title>
<g id="a_node2"><a xlink:href="dir_93f8da189241c290854b407a877c2368.html" target="_top" xlink:title="_plugin_template">
<polygon fill="#4ea9ff" stroke="#404040" points="2859.5,-90 2758.5,-90 2758.5,-71 2859.5,-71 2859.5,-90"/>
<text text-anchor="middle" x="2809" y="-78" font-family="Helvetica,sans-Serif" font-size="10.00">_plugin_template</text>
</a>
</g>
</g>
<!-- dir_3cb81cd6d379273a9d1a5ed99fc6ea41 -->
<g id="node3" class="node">
<title>dir_3cb81cd6d379273a9d1a5ed99fc6ea41</title>
<g id="a_node3"><a xlink:href="dir_3cb81cd6d379273a9d1a5ed99fc6ea41.html" target="_top" xlink:title="afk">
<polygon fill="#4ea9ff" stroke="#404040" points="2740,-90 2708,-90 2708,-71 2740,-71 2740,-90"/>
<text text-anchor="middle" x="2724" y="-78" font-family="Helvetica,sans-Serif" font-size="10.00">afk</text>
</a>
</g>
</g>
<!-- dir_e37264039f89f262c5d1a8b144c1f26a -->
<g id="node4" class="node">
<title>dir_e37264039f89f262c5d1a8b144c1f26a</title>
<g id="a_node4"><a xlink:href="dir_e37264039f89f262c5d1a8b144c1f26a.html" target="_top" xlink:title="anti_jump_disconnect">
<polygon fill="#4ea9ff" stroke="#404040" points="2689.5,-90 2566.5,-90 2566.5,-71 2689.5,-71 2689.5,-90"/>
<text text-anchor="middle" x="2628" y="-78" font-family="Helvetica,sans-Serif" font-size="10.00">anti_jump_disconnect</text>
</a>
</g>
</g>
<!-- dir_6b68dce3c11b84328de13ffc9ad6971b -->
<g id="node32" class="node">
<title>dir_6b68dce3c11b84328de13ffc9ad6971b</title>
<g id="a_node32"><a xlink:href="dir_6b68dce3c11b84328de13ffc9ad6971b.html" target="_top" xlink:title="tempban">
<polygon fill="#4ea9ff" stroke="#404040" points="2058,-35 1998,-35 1998,-16 2058,-16 2058,-35"/>
<text text-anchor="middle" x="2028" y="-23" font-family="Helvetica,sans-Serif" font-size="10.00">tempban</text>
</a>
</g>
</g>
<!-- dir_e37264039f89f262c5d1a8b144c1f26a&#45;&gt;dir_6b68dce3c11b84328de13ffc9ad6971b -->
<g id="edge1" class="edge">
<title>dir_e37264039f89f262c5d1a8b144c1f26a&#45;&gt;dir_6b68dce3c11b84328de13ffc9ad6971b</title>
<path fill="none" stroke="#63b8ff" d="M2566.44,-72C2563.25,-71.65 2560.09,-71.31 2557,-71 2374.84,-52.44 2156.81,-35.89 2068.3,-29.4"/>
<polygon fill="#63b8ff" stroke="#63b8ff" points="2068.38,-25.9 2058.15,-28.66 2067.87,-32.88 2068.38,-25.9"/>
<g id="a_edge1&#45;headlabel"><a xlink:href="dir_000002_000038.html" target="_top" xlink:title="1">
<text text-anchor="middle" x="2072.17" y="-20.83" font-family="Helvetica,sans-Serif" font-size="10.00" fill="#63b8ff">1</text>
</a>
</g>
</g>
<!-- dir_df57beea59c7eba2da8cb53973af8132 -->
<g id="node5" class="node">
<title>dir_df57beea59c7eba2da8cb53973af8132</title>
<g id="a_node5"><a xlink:href="dir_df57beea59c7eba2da8cb53973af8132.html" target="_top" xlink:title="arena">
<polygon fill="#4ea9ff" stroke="#404040" points="2548,-90 2504,-90 2504,-71 2548,-71 2548,-90"/>
<text text-anchor="middle" x="2526" y="-78" font-family="Helvetica,sans-Serif" font-size="10.00">arena</text>
</a>
</g>
</g>
<!-- dir_6ff3391edf4364570440f8130c4529d0 -->
<g id="node6" class="node">
<title>dir_6ff3391edf4364570440f8130c4529d0</title>
<g id="a_node6"><a xlink:href="dir_6ff3391edf4364570440f8130c4529d0.html" target="_top" xlink:title="autobuy">
<polygon fill="#4ea9ff" stroke="#404040" points="2486,-90 2430,-90 2430,-71 2486,-71 2486,-90"/>
<text text-anchor="middle" x="2458" y="-78" font-family="Helvetica,sans-Serif" font-size="10.00">autobuy</text>
</a>
</g>
</g>
<!-- dir_5e9a257a737d74ff88f9659a8a7030d9 -->
<g id="node7" class="node">
<title>dir_5e9a257a737d74ff88f9659a8a7030d9</title>
<g id="a_node7"><a xlink:href="dir_5e9a257a737d74ff88f9659a8a7030d9.html" target="_top" xlink:title="betting">
<polygon fill="#4ea9ff" stroke="#404040" points="2411.5,-90 2360.5,-90 2360.5,-71 2411.5,-71 2411.5,-90"/>
<text text-anchor="middle" x="2386" y="-78" font-family="Helvetica,sans-Serif" font-size="10.00">betting</text>
</a>
</g>
</g>
<!-- dir_419eab14b376b260d16e9187f7926cbb -->
<g id="node8" class="node">
<title>dir_419eab14b376b260d16e9187f7926cbb</title>
<g id="a_node8"><a xlink:href="dir_419eab14b376b260d16e9187f7926cbb.html" target="_top" xlink:title="bountyhunt">
<polygon fill="#4ea9ff" stroke="#404040" points="2342,-90 2270,-90 2270,-71 2342,-71 2342,-90"/>
<text text-anchor="middle" x="2306" y="-78" font-family="Helvetica,sans-Serif" font-size="10.00">bountyhunt</text>
</a>
</g>
</g>
<!-- dir_6c8afca0a78d982f2594b37e72bf93c0 -->
<g id="node9" class="node">
<title>dir_6c8afca0a78d982f2594b37e72bf93c0</title>
<g id="a_node9"><a xlink:href="dir_6c8afca0a78d982f2594b37e72bf93c0.html" target="_top" xlink:title="cargo_drop">
<polygon fill="#4ea9ff" stroke="#404040" points="2251.5,-90 2180.5,-90 2180.5,-71 2251.5,-71 2251.5,-90"/>
<text text-anchor="middle" x="2216" y="-78" font-family="Helvetica,sans-Serif" font-size="10.00">cargo_drop</text>
</a>
</g>
</g>
<!-- dir_272d92c666d6092c8388bd4fbf7d0005 -->
<g id="node10" class="node">
<title>dir_272d92c666d6092c8388bd4fbf7d0005</title>
<g id="a_node10"><a xlink:href="dir_272d92c666d6092c8388bd4fbf7d0005.html" target="_top" xlink:title="cash_manager">
<polygon fill="#4ea9ff" stroke="#404040" points="2162,-90 2074,-90 2074,-71 2162,-71 2162,-90"/>
<text text-anchor="middle" x="2118" y="-78" font-family="Helvetica,sans-Serif" font-size="10.00">cash_manager</text>
</a>
</g>
</g>
<!-- dir_e0daf5c6e4b6441e9f292db2d044648d -->
<g id="node11" class="node">
<title>dir_e0daf5c6e4b6441e9f292db2d044648d</title>
<g id="a_node11"><a xlink:href="dir_e0daf5c6e4b6441e9f292db2d044648d.html" target="_top" xlink:title="condata">
<polygon fill="#4ea9ff" stroke="#404040" points="2056,-90 2000,-90 2000,-71 2056,-71 2056,-90"/>
<text text-anchor="middle" x="2028" y="-78" font-family="Helvetica,sans-Serif" font-size="10.00">condata</text>
</a>
</g>
</g>
<!-- dir_e0daf5c6e4b6441e9f292db2d044648d&#45;&gt;dir_6b68dce3c11b84328de13ffc9ad6971b -->
<g id="edge2" class="edge">
<title>dir_e0daf5c6e4b6441e9f292db2d044648d&#45;&gt;dir_6b68dce3c11b84328de13ffc9ad6971b</title>
<path fill="none" stroke="#63b8ff" d="M2028,-70.75C2028,-63.8 2028,-53.85 2028,-45.13"/>
<polygon fill="#63b8ff" stroke="#63b8ff" points="2031.5,-45.09 2028,-35.09 2024.5,-45.09 2031.5,-45.09"/>
<g id="a_edge2&#45;headlabel"><a xlink:href="dir_000009_000038.html" target="_top" xlink:title="1">
<text text-anchor="middle" x="2034.34" y="-46.18" font-family="Helvetica,sans-Serif" font-size="10.00" fill="#63b8ff">1</text>
</a>
</g>
</g>
<!-- dir_be5ab8491fdffb0e4423b2f3a1aa7fbd -->
<g id="node12" class="node">
<title>dir_be5ab8491fdffb0e4423b2f3a1aa7fbd</title>
<g id="a_node12"><a xlink:href="dir_be5ab8491fdffb0e4423b2f3a1aa7fbd.html" target="_top" xlink:title="crash_catcher">
<polygon fill="#4ea9ff" stroke="#404040" points="1982,-90 1898,-90 1898,-71 1982,-71 1982,-90"/>
<text text-anchor="middle" x="1940" y="-78" font-family="Helvetica,sans-Serif" font-size="10.00">crash_catcher</text>
</a>
</g>
</g>
<!-- dir_beec3d5ea085376863e47e3f32644a47 -->
<g id="node13" class="node">
<title>dir_beec3d5ea085376863e47e3f32644a47</title>
<g id="a_node13"><a xlink:href="dir_beec3d5ea085376863e47e3f32644a47.html" target="_top" xlink:title="death_penalty">
<polygon fill="#4ea9ff" stroke="#404040" points="1880,-90 1794,-90 1794,-71 1880,-71 1880,-90"/>
<text text-anchor="middle" x="1837" y="-78" font-family="Helvetica,sans-Serif" font-size="10.00">death_penalty</text>
</a>
</g>
</g>
<!-- dir_a191491824de4f25401e3a9ab1cf7263 -->
<g id="node14" class="node">
<title>dir_a191491824de4f25401e3a9ab1cf7263</title>
<g id="a_node14"><a xlink:href="dir_a191491824de4f25401e3a9ab1cf7263.html" target="_top" xlink:title="dynamic_missions">
<polygon fill="#4ea9ff" stroke="#404040" points="1775.5,-90 1668.5,-90 1668.5,-71 1775.5,-71 1775.5,-90"/>
<text text-anchor="middle" x="1722" y="-78" font-family="Helvetica,sans-Serif" font-size="10.00">dynamic_missions</text>
</a>
</g>
</g>
<!-- dir_51a35af32d1709180e0014fa3d7fc71f -->
<g id="node15" class="node">
<title>dir_51a35af32d1709180e0014fa3d7fc71f</title>
<g id="a_node15"><a xlink:href="dir_51a35af32d1709180e0014fa3d7fc71f.html" target="_top" xlink:title="event">
<polygon fill="#4ea9ff" stroke="#404040" points="1650,-90 1606,-90 1606,-71 1650,-71 1650,-90"/>
<text text-anchor="middle" x="1628" y="-78" font-family="Helvetica,sans-Serif" font-size="10.00">event</text>
</a>
</g>
</g>
<!-- dir_3b99d45563f69cedc0a9fd8ebc0eebfd -->
<g id="node16" class="node">
<title>dir_3b99d45563f69cedc0a9fd8ebc0eebfd</title>
<g id="a_node16"><a xlink:href="dir_3b99d45563f69cedc0a9fd8ebc0eebfd.html" target="_top" xlink:title="ip_ban">
<polygon fill="#4ea9ff" stroke="#404040" points="1587.5,-90 1538.5,-90 1538.5,-71 1587.5,-71 1587.5,-90"/>
<text text-anchor="middle" x="1563" y="-78" font-family="Helvetica,sans-Serif" font-size="10.00">ip_ban</text>
</a>
</g>
</g>
<!-- dir_790c3f65e31d8ed97665d127def93ef2 -->
<g id="node17" class="node">
<title>dir_790c3f65e31d8ed97665d127def93ef2</title>
<g id="a_node17"><a xlink:href="dir_790c3f65e31d8ed97665d127def93ef2.html" target="_top" xlink:title="kill_counter">
<polygon fill="#4ea9ff" stroke="#404040" points="1520,-90 1446,-90 1446,-71 1520,-71 1520,-90"/>
<text text-anchor="middle" x="1483" y="-78" font-family="Helvetica,sans-Serif" font-size="10.00">kill_counter</text>
</a>
</g>
</g>
<!-- dir_67067475a2fdf44a2ed2517bfafdf7d4 -->
<g id="node18" class="node">
<title>dir_67067475a2fdf44a2ed2517bfafdf7d4</title>
<g id="a_node18"><a xlink:href="dir_67067475a2fdf44a2ed2517bfafdf7d4.html" target="_top" xlink:title="light_control">
<polygon fill="#4ea9ff" stroke="#404040" points="1427.5,-90 1350.5,-90 1350.5,-71 1427.5,-71 1427.5,-90"/>
<text text-anchor="middle" x="1389" y="-78" font-family="Helvetica,sans-Serif" font-size="10.00">light_control</text>
</a>
</g>
</g>
<!-- dir_8e12fc77aacf43e1506eeb84afc9b603 -->
<g id="node19" class="node">
<title>dir_8e12fc77aacf43e1506eeb84afc9b603</title>
<g id="a_node19"><a xlink:href="dir_8e12fc77aacf43e1506eeb84afc9b603.html" target="_top" xlink:title="mark">
<polygon fill="#4ea9ff" stroke="#404040" points="1332,-90 1290,-90 1290,-71 1332,-71 1332,-90"/>
<text text-anchor="middle" x="1311" y="-78" font-family="Helvetica,sans-Serif" font-size="10.00">mark</text>
</a>
</g>
</g>
<!-- dir_f0348eb1aaecbc5c1da7e1201fd20b31 -->
<g id="node20" class="node">
<title>dir_f0348eb1aaecbc5c1da7e1201fd20b31</title>
<g id="a_node20"><a xlink:href="dir_f0348eb1aaecbc5c1da7e1201fd20b31.html" target="_top" xlink:title="message">
<polygon fill="#4ea9ff" stroke="#404040" points="1271.5,-90 1210.5,-90 1210.5,-71 1271.5,-71 1271.5,-90"/>
<text text-anchor="middle" x="1241" y="-78" font-family="Helvetica,sans-Serif" font-size="10.00">message</text>
</a>
</g>
</g>
<!-- dir_f0348eb1aaecbc5c1da7e1201fd20b31&#45;&gt;dir_6b68dce3c11b84328de13ffc9ad6971b -->
<g id="edge3" class="edge">
<title>dir_f0348eb1aaecbc5c1da7e1201fd20b31&#45;&gt;dir_6b68dce3c11b84328de13ffc9ad6971b</title>
<path fill="none" stroke="#63b8ff" d="M1271.93,-72.45C1274.98,-71.9 1278.05,-71.4 1281,-71 1549.15,-34.73 1875.44,-28.02 1987.76,-26.78"/>
<polygon fill="#63b8ff" stroke="#63b8ff" points="1987.99,-30.28 1997.96,-26.68 1987.92,-23.28 1987.99,-30.28"/>
<g id="a_edge3&#45;headlabel"><a xlink:href="dir_000024_000038.html" target="_top" xlink:title="1">
<text text-anchor="middle" x="1984.43" y="-30.66" font-family="Helvetica,sans-Serif" font-size="10.00" fill="#63b8ff">1</text>
</a>
</g>
</g>
<!-- dir_6b9058d7dbcaa2799e2434b4448c2bb1 -->
<g id="node21" class="node">
<title>dir_6b9058d7dbcaa2799e2434b4448c2bb1</title>
<g id="a_node21"><a xlink:href="dir_6b9058d7dbcaa2799e2434b4448c2bb1.html" target="_top" xlink:title="minecontrol">
<polygon fill="#4ea9ff" stroke="#404040" points="1192.5,-90 1117.5,-90 1117.5,-71 1192.5,-71 1192.5,-90"/>
<text text-anchor="middle" x="1155" y="-78" font-family="Helvetica,sans-Serif" font-size="10.00">minecontrol</text>
</a>
</g>
</g>
<!-- dir_1476ea2b63af23484f180fbefe8bda17 -->
<g id="node22" class="node">
<title>dir_1476ea2b63af23484f180fbefe8bda17</title>
<g id="a_node22"><a xlink:href="dir_1476ea2b63af23484f180fbefe8bda17.html" target="_top" xlink:title="misc_commands">
<polygon fill="#4ea9ff" stroke="#404040" points="1099.5,-90 1000.5,-90 1000.5,-71 1099.5,-71 1099.5,-90"/>
<text text-anchor="middle" x="1050" y="-78" font-family="Helvetica,sans-Serif" font-size="10.00">misc_commands</text>
</a>
</g>
</g>
<!-- dir_c0595522ed24604866a16f2538f400a4 -->
<g id="node23" class="node">
<title>dir_c0595522ed24604866a16f2538f400a4</title>
<g id="a_node23"><a xlink:href="dir_c0595522ed24604866a16f2538f400a4.html" target="_top" xlink:title="npc_control">
<polygon fill="#4ea9ff" stroke="#404040" points="982.5,-90 909.5,-90 909.5,-71 982.5,-71 982.5,-90"/>
<text text-anchor="middle" x="946" y="-78" font-family="Helvetica,sans-Serif" font-size="10.00">npc_control</text>
</a>
</g>
</g>
<!-- dir_ca3a9dfbf0479df7c4b549afde744ef5 -->
<g id="node24" class="node">
<title>dir_ca3a9dfbf0479df7c4b549afde744ef5</title>
<g id="a_node24"><a xlink:href="dir_ca3a9dfbf0479df7c4b549afde744ef5.html" target="_top" xlink:title="purchase_restrictions">
<polygon fill="#4ea9ff" stroke="#404040" points="891.5,-90 770.5,-90 770.5,-71 891.5,-71 891.5,-90"/>
<text text-anchor="middle" x="831" y="-78" font-family="Helvetica,sans-Serif" font-size="10.00">purchase_restrictions</text>
</a>
</g>
</g>
<!-- dir_689913a4fc3467a3c630b487470f44d1 -->
<g id="node25" class="node">
<title>dir_689913a4fc3467a3c630b487470f44d1</title>
<g id="a_node25"><a xlink:href="dir_689913a4fc3467a3c630b487470f44d1.html" target="_top" xlink:title="rename">
<polygon fill="#4ea9ff" stroke="#404040" points="752,-90 698,-90 698,-71 752,-71 752,-90"/>
<text text-anchor="middle" x="725" y="-78" font-family="Helvetica,sans-Serif" font-size="10.00">rename</text>
</a>
</g>
</g>
<!-- dir_4a52713137b0d7ca6a9749229803fe92 -->
<g id="node26" class="node">
<title>dir_4a52713137b0d7ca6a9749229803fe92</title>
<g id="a_node26"><a xlink:href="dir_4a52713137b0d7ca6a9749229803fe92.html" target="_top" xlink:title="restarts">
<polygon fill="#4ea9ff" stroke="#404040" points="680,-90 626,-90 626,-71 680,-71 680,-90"/>
<text text-anchor="middle" x="653" y="-78" font-family="Helvetica,sans-Serif" font-size="10.00">restarts</text>
</a>
</g>
</g>
<!-- dir_685463416cdec5cf041eee44b5c89bfc -->
<g id="node27" class="node">
<title>dir_685463416cdec5cf041eee44b5c89bfc</title>
<g id="a_node27"><a xlink:href="dir_685463416cdec5cf041eee44b5c89bfc.html" target="_top" xlink:title="sound_manager">
<polygon fill="#4ea9ff" stroke="#404040" points="607.5,-90 512.5,-90 512.5,-71 607.5,-71 607.5,-90"/>
<text text-anchor="middle" x="560" y="-78" font-family="Helvetica,sans-Serif" font-size="10.00">sound_manager</text>
</a>
</g>
</g>
<!-- dir_65a5c100b114be56e932df141f9b7d99 -->
<g id="node28" class="node">
<title>dir_65a5c100b114be56e932df141f9b7d99</title>
<g id="a_node28"><a xlink:href="dir_65a5c100b114be56e932df141f9b7d99.html" target="_top" xlink:title="spin_protection">
<polygon fill="#4ea9ff" stroke="#404040" points="494,-90 402,-90 402,-71 494,-71 494,-90"/>
<text text-anchor="middle" x="448" y="-78" font-family="Helvetica,sans-Serif" font-size="10.00">spin_protection</text>
</a>
</g>
</g>
<!-- dir_7424dc18e30a3bb9316ef45b569ea0b6 -->
<g id="node29" class="node">
<title>dir_7424dc18e30a3bb9316ef45b569ea0b6</title>
<g id="a_node29"><a xlink:href="dir_7424dc18e30a3bb9316ef45b569ea0b6.html" target="_top" xlink:title="stats">
<polygon fill="#4ea9ff" stroke="#404040" points="383.5,-90 342.5,-90 342.5,-71 383.5,-71 383.5,-90"/>
<text text-anchor="middle" x="363" y="-78" font-family="Helvetica,sans-Serif" font-size="10.00">stats</text>
</a>
</g>
</g>
<!-- dir_ad675f14a9b14ad0849db2548d60d996 -->
<g id="node30" class="node">
<title>dir_ad675f14a9b14ad0849db2548d60d996</title>
<g id="a_node30"><a xlink:href="dir_ad675f14a9b14ad0849db2548d60d996.html" target="_top" xlink:title="system_sensor">
<polygon fill="#4ea9ff" stroke="#404040" points="324,-90 234,-90 234,-71 324,-71 324,-90"/>
<text text-anchor="middle" x="279" y="-78" font-family="Helvetica,sans-Serif" font-size="10.00">system_sensor</text>
</a>
</g>
</g>
<!-- dir_5db75579f42a42586f7a50c564563170 -->
<g id="node31" class="node">
<title>dir_5db75579f42a42586f7a50c564563170</title>
<g id="a_node31"><a xlink:href="dir_5db75579f42a42586f7a50c564563170.html" target="_top" xlink:title="tax">
<polygon fill="#4ea9ff" stroke="#404040" points="216,-90 184,-90 184,-71 216,-71 216,-90"/>
<text text-anchor="middle" x="200" y="-78" font-family="Helvetica,sans-Serif" font-size="10.00">tax</text>
</a>
</g>
</g>
<!-- dir_d643c5f46465509136328ed8118ca85c -->
<g id="node33" class="node">
<title>dir_d643c5f46465509136328ed8118ca85c</title>
<g id="a_node33"><a xlink:href="dir_d643c5f46465509136328ed8118ca85c.html" target="_top" xlink:title="wardrobe">
<polygon fill="#4ea9ff" stroke="#404040" points="166,-90 104,-90 104,-71 166,-71 166,-90"/>
<text text-anchor="middle" x="135" y="-78" font-family="Helvetica,sans-Serif" font-size="10.00">wardrobe</text>
</a>
</g>
</g>
<!-- dir_84f2740fd9eab9859a47d878cd5f3f0e -->
<g id="node34" class="node">
<title>dir_84f2740fd9eab9859a47d878cd5f3f0e</title>
<g id="a_node34"><a xlink:href="dir_84f2740fd9eab9859a47d878cd5f3f0e.html" target="_top" xlink:title="warehouse">
<polygon fill="#4ea9ff" stroke="#404040" points="86,-90 16,-90 16,-71 86,-71 86,-90"/>
<text text-anchor="middle" x="51" y="-78" font-family="Helvetica,sans-Serif" font-size="10.00">warehouse</text>
</a>
</g>
</g>
</g>
</svg>
