<?xml version="1.0" encoding="UTF-8" standalone="no"?>
<!DOCTYPE svg PUBLIC "-//W3C//DTD SVG 1.1//EN"
 "http://www.w3.org/Graphics/SVG/1.1/DTD/svg11.dtd">
<!-- Generated by graphviz version 2.43.0 (0)
 -->
<!-- Title: plugins Pages: 1 -->
<svg width="3216pt" height="114pt"
 viewBox="0.00 0.00 3216.00 114.00" xmlns="http://www.w3.org/2000/svg" xmlns:xlink="http://www.w3.org/1999/xlink">
<g id="graph0" class="graph" transform="scale(1 1) rotate(0) translate(4 110)">
<title>plugins</title>
<g id="clust1" class="cluster">
<title>clusterdir_38c8d24aef3972a7f87b834274e76e31</title>
<g id="a_clust1"><a xlink:href="dir_38c8d24aef3972a7f87b834274e76e31.html" target="_top">
<polygon fill="#daedff" stroke="#404040" stroke-width="2" points="8,-8 8,-98 3200,-98 3200,-8 8,-8"/>
</a>
</g>
</g>
<!-- dir_38c8d24aef3972a7f87b834274e76e31 -->
<g id="node1" class="node">
<title>dir_38c8d24aef3972a7f87b834274e76e31</title>
<text text-anchor="middle" x="3166" y="-78" font-family="Helvetica,sans-Serif" font-size="10.00">plugins</text>
</g>
<!-- dir_93f8da189241c290854b407a877c2368 -->
<g id="node2" class="node">
<title>dir_93f8da189241c290854b407a877c2368</title>
<g id="a_node2"><a xlink:href="dir_93f8da189241c290854b407a877c2368.html" target="_top" xlink:title="_plugin_template">
<polygon fill="#4ea9ff" stroke="#404040" points="3121.5,-90 3020.5,-90 3020.5,-71 3121.5,-71 3121.5,-90"/>
<text text-anchor="middle" x="3071" y="-78" font-family="Helvetica,sans-Serif" font-size="10.00">_plugin_template</text>
</a>
</g>
</g>
<!-- dir_6e245122153ab5174307ee732a6e3ec0 -->
<g id="node3" class="node">
<title>dir_6e245122153ab5174307ee732a6e3ec0</title>
<g id="a_node3"><a xlink:href="dir_6e245122153ab5174307ee732a6e3ec0.html" target="_top" xlink:title="advanced_startup_solars">
<polygon fill="#4ea9ff" stroke="#404040" points="3002,-90 2864,-90 2864,-71 3002,-71 3002,-90"/>
<text text-anchor="middle" x="2933" y="-78" font-family="Helvetica,sans-Serif" font-size="10.00">advanced_startup_solars</text>
</a>
</g>
</g>
<!-- dir_c0595522ed24604866a16f2538f400a4 -->
<g id="node26" class="node">
<title>dir_c0595522ed24604866a16f2538f400a4</title>
<g id="a_node26"><a xlink:href="dir_c0595522ed24604866a16f2538f400a4.html" target="_top" xlink:title="npc_control">
<polygon fill="#4ea9ff" stroke="#404040" points="2921.5,-35 2848.5,-35 2848.5,-16 2921.5,-16 2921.5,-35"/>
<text text-anchor="middle" x="2885" y="-23" font-family="Helvetica,sans-Serif" font-size="10.00">npc_control</text>
</a>
</g>
</g>
<!-- dir_6e245122153ab5174307ee732a6e3ec0&#45;&gt;dir_c0595522ed24604866a16f2538f400a4 -->
<g id="edge2" class="edge">
<title>dir_6e245122153ab5174307ee732a6e3ec0&#45;&gt;dir_c0595522ed24604866a16f2538f400a4</title>
<path fill="none" stroke="#63b8ff" d="M2925.07,-70.75C2918.15,-63.11 2907.93,-51.82 2899.55,-42.56"/>
<polygon fill="#63b8ff" stroke="#63b8ff" points="2902.09,-40.15 2892.78,-35.09 2896.9,-44.85 2902.09,-40.15"/>
<g id="a_edge2&#45;headlabel"><a xlink:href="dir_000001_000031.html" target="_top" xlink:title="1">
<text text-anchor="middle" x="2906.6" y="-38.41" font-family="Helvetica,sans-Serif" font-size="10.00" fill="#63b8ff">1</text>
</a>
</g>
</g>
<!-- dir_88bc1185c79a988adb7b14f2efb04966 -->
<g id="node31" class="node">
<title>dir_88bc1185c79a988adb7b14f2efb04966</title>
<g id="a_node31"><a xlink:href="dir_88bc1185c79a988adb7b14f2efb04966.html" target="_top" xlink:title="solar_control">
<polygon fill="#4ea9ff" stroke="#404040" points="3020,-35 2940,-35 2940,-16 3020,-16 3020,-35"/>
<text text-anchor="middle" x="2980" y="-23" font-family="Helvetica,sans-Serif" font-size="10.00">solar_control</text>
</a>
</g>
</g>
<!-- dir_6e245122153ab5174307ee732a6e3ec0&#45;&gt;dir_88bc1185c79a988adb7b14f2efb04966 -->
<g id="edge1" class="edge">
<title>dir_6e245122153ab5174307ee732a6e3ec0&#45;&gt;dir_88bc1185c79a988adb7b14f2efb04966</title>
<path fill="none" stroke="#63b8ff" d="M2940.76,-70.75C2947.47,-63.18 2957.34,-52.05 2965.51,-42.84"/>
<polygon fill="#63b8ff" stroke="#63b8ff" points="2968.37,-44.89 2972.38,-35.09 2963.13,-40.25 2968.37,-44.89"/>
<g id="a_edge1&#45;headlabel"><a xlink:href="dir_000001_000037.html" target="_top" xlink:title="1">
<text text-anchor="middle" x="2968.11" y="-46.97" font-family="Helvetica,sans-Serif" font-size="10.00" fill="#63b8ff">1</text>
</a>
</g>
</g>
<!-- dir_3cb81cd6d379273a9d1a5ed99fc6ea41 -->
<g id="node4" class="node">
<title>dir_3cb81cd6d379273a9d1a5ed99fc6ea41</title>
<g id="a_node4"><a xlink:href="dir_3cb81cd6d379273a9d1a5ed99fc6ea41.html" target="_top" xlink:title="afk">
<polygon fill="#4ea9ff" stroke="#404040" points="2846,-90 2814,-90 2814,-71 2846,-71 2846,-90"/>
<text text-anchor="middle" x="2830" y="-78" font-family="Helvetica,sans-Serif" font-size="10.00">afk</text>
</a>
</g>
</g>
<!-- dir_e37264039f89f262c5d1a8b144c1f26a -->
<g id="node5" class="node">
<title>dir_e37264039f89f262c5d1a8b144c1f26a</title>
<g id="a_node5"><a xlink:href="dir_e37264039f89f262c5d1a8b144c1f26a.html" target="_top" xlink:title="anti_jump_disconnect">
<polygon fill="#4ea9ff" stroke="#404040" points="2795.5,-90 2672.5,-90 2672.5,-71 2795.5,-71 2795.5,-90"/>
<text text-anchor="middle" x="2734" y="-78" font-family="Helvetica,sans-Serif" font-size="10.00">anti_jump_disconnect</text>
</a>
</g>
</g>
<!-- dir_df57beea59c7eba2da8cb53973af8132 -->
<g id="node6" class="node">
<title>dir_df57beea59c7eba2da8cb53973af8132</title>
<g id="a_node6"><a xlink:href="dir_df57beea59c7eba2da8cb53973af8132.html" target="_top" xlink:title="arena">
<polygon fill="#4ea9ff" stroke="#404040" points="2654,-90 2610,-90 2610,-71 2654,-71 2654,-90"/>
<text text-anchor="middle" x="2632" y="-78" font-family="Helvetica,sans-Serif" font-size="10.00">arena</text>
</a>
</g>
</g>
<!-- dir_6ff3391edf4364570440f8130c4529d0 -->
<g id="node7" class="node">
<title>dir_6ff3391edf4364570440f8130c4529d0</title>
<g id="a_node7"><a xlink:href="dir_6ff3391edf4364570440f8130c4529d0.html" target="_top" xlink:title="autobuy">
<polygon fill="#4ea9ff" stroke="#404040" points="2592,-90 2536,-90 2536,-71 2592,-71 2592,-90"/>
<text text-anchor="middle" x="2564" y="-78" font-family="Helvetica,sans-Serif" font-size="10.00">autobuy</text>
</a>
</g>
</g>
<!-- dir_5e9a257a737d74ff88f9659a8a7030d9 -->
<g id="node8" class="node">
<title>dir_5e9a257a737d74ff88f9659a8a7030d9</title>
<g id="a_node8"><a xlink:href="dir_5e9a257a737d74ff88f9659a8a7030d9.html" target="_top" xlink:title="betting">
<polygon fill="#4ea9ff" stroke="#404040" points="2517.5,-90 2466.5,-90 2466.5,-71 2517.5,-71 2517.5,-90"/>
<text text-anchor="middle" x="2492" y="-78" font-family="Helvetica,sans-Serif" font-size="10.00">betting</text>
</a>
</g>
</g>
<!-- dir_419eab14b376b260d16e9187f7926cbb -->
<g id="node9" class="node">
<title>dir_419eab14b376b260d16e9187f7926cbb</title>
<g id="a_node9"><a xlink:href="dir_419eab14b376b260d16e9187f7926cbb.html" target="_top" xlink:title="bountyhunt">
<polygon fill="#4ea9ff" stroke="#404040" points="2448,-90 2376,-90 2376,-71 2448,-71 2448,-90"/>
<text text-anchor="middle" x="2412" y="-78" font-family="Helvetica,sans-Serif" font-size="10.00">bountyhunt</text>
</a>
</g>
</g>
<!-- dir_6c8afca0a78d982f2594b37e72bf93c0 -->
<g id="node10" class="node">
<title>dir_6c8afca0a78d982f2594b37e72bf93c0</title>
<g id="a_node10"><a xlink:href="dir_6c8afca0a78d982f2594b37e72bf93c0.html" target="_top" xlink:title="cargo_drop">
<polygon fill="#4ea9ff" stroke="#404040" points="2357.5,-90 2286.5,-90 2286.5,-71 2357.5,-71 2357.5,-90"/>
<text text-anchor="middle" x="2322" y="-78" font-family="Helvetica,sans-Serif" font-size="10.00">cargo_drop</text>
</a>
</g>
</g>
<!-- dir_272d92c666d6092c8388bd4fbf7d0005 -->
<g id="node11" class="node">
<title>dir_272d92c666d6092c8388bd4fbf7d0005</title>
<g id="a_node11"><a xlink:href="dir_272d92c666d6092c8388bd4fbf7d0005.html" target="_top" xlink:title="cash_manager">
<polygon fill="#4ea9ff" stroke="#404040" points="2268,-90 2180,-90 2180,-71 2268,-71 2268,-90"/>
<text text-anchor="middle" x="2224" y="-78" font-family="Helvetica,sans-Serif" font-size="10.00">cash_manager</text>
</a>
</g>
</g>
<!-- dir_e0daf5c6e4b6441e9f292db2d044648d -->
<g id="node12" class="node">
<title>dir_e0daf5c6e4b6441e9f292db2d044648d</title>
<g id="a_node12"><a xlink:href="dir_e0daf5c6e4b6441e9f292db2d044648d.html" target="_top" xlink:title="condata">
<polygon fill="#4ea9ff" stroke="#404040" points="2162,-90 2106,-90 2106,-71 2162,-71 2162,-90"/>
<text text-anchor="middle" x="2134" y="-78" font-family="Helvetica,sans-Serif" font-size="10.00">condata</text>
</a>
</g>
</g>
<!-- dir_be5ab8491fdffb0e4423b2f3a1aa7fbd -->
<g id="node13" class="node">
<title>dir_be5ab8491fdffb0e4423b2f3a1aa7fbd</title>
<g id="a_node13"><a xlink:href="dir_be5ab8491fdffb0e4423b2f3a1aa7fbd.html" target="_top" xlink:title="crash_catcher">
<polygon fill="#4ea9ff" stroke="#404040" points="2088,-90 2004,-90 2004,-71 2088,-71 2088,-90"/>
<text text-anchor="middle" x="2046" y="-78" font-family="Helvetica,sans-Serif" font-size="10.00">crash_catcher</text>
</a>
</g>
</g>
<!-- dir_2e1d09df4da4d5e9565304e2cecbdae8 -->
<g id="node14" class="node">
<title>dir_2e1d09df4da4d5e9565304e2cecbdae8</title>
<g id="a_node14"><a xlink:href="dir_2e1d09df4da4d5e9565304e2cecbdae8.html" target="_top" xlink:title="daily_tasks">
<polygon fill="#4ea9ff" stroke="#404040" points="1986,-90 1914,-90 1914,-71 1986,-71 1986,-90"/>
<text text-anchor="middle" x="1950" y="-78" font-family="Helvetica,sans-Serif" font-size="10.00">daily_tasks</text>
</a>
</g>
</g>
<!-- dir_beec3d5ea085376863e47e3f32644a47 -->
<g id="node15" class="node">
<title>dir_beec3d5ea085376863e47e3f32644a47</title>
<g id="a_node15"><a xlink:href="dir_beec3d5ea085376863e47e3f32644a47.html" target="_top" xlink:title="death_penalty">
<polygon fill="#4ea9ff" stroke="#404040" points="1896,-90 1810,-90 1810,-71 1896,-71 1896,-90"/>
<text text-anchor="middle" x="1853" y="-78" font-family="Helvetica,sans-Serif" font-size="10.00">death_penalty</text>
</a>
</g>
</g>
<!-- dir_a191491824de4f25401e3a9ab1cf7263 -->
<g id="node16" class="node">
<title>dir_a191491824de4f25401e3a9ab1cf7263</title>
<g id="a_node16"><a xlink:href="dir_a191491824de4f25401e3a9ab1cf7263.html" target="_top" xlink:title="dynamic_missions">
<polygon fill="#4ea9ff" stroke="#404040" points="1791.5,-90 1684.5,-90 1684.5,-71 1791.5,-71 1791.5,-90"/>
<text text-anchor="middle" x="1738" y="-78" font-family="Helvetica,sans-Serif" font-size="10.00">dynamic_missions</text>
</a>
</g>
</g>
<!-- dir_51a35af32d1709180e0014fa3d7fc71f -->
<g id="node17" class="node">
<title>dir_51a35af32d1709180e0014fa3d7fc71f</title>
<g id="a_node17"><a xlink:href="dir_51a35af32d1709180e0014fa3d7fc71f.html" target="_top" xlink:title="event">
<polygon fill="#4ea9ff" stroke="#404040" points="1666,-90 1622,-90 1622,-71 1666,-71 1666,-90"/>
<text text-anchor="middle" x="1644" y="-78" font-family="Helvetica,sans-Serif" font-size="10.00">event</text>
</a>
</g>
</g>
<!-- dir_3b99d45563f69cedc0a9fd8ebc0eebfd -->
<g id="node18" class="node">
<title>dir_3b99d45563f69cedc0a9fd8ebc0eebfd</title>
<g id="a_node18"><a xlink:href="dir_3b99d45563f69cedc0a9fd8ebc0eebfd.html" target="_top" xlink:title="ip_ban">
<polygon fill="#4ea9ff" stroke="#404040" points="1603.5,-90 1554.5,-90 1554.5,-71 1603.5,-71 1603.5,-90"/>
<text text-anchor="middle" x="1579" y="-78" font-family="Helvetica,sans-Serif" font-size="10.00">ip_ban</text>
</a>
</g>
</g>
<!-- dir_674bbe98184f990d39b07bb795fe8d0a -->
<g id="node19" class="node">
<title>dir_674bbe98184f990d39b07bb795fe8d0a</title>
<g id="a_node19"><a xlink:href="dir_674bbe98184f990d39b07bb795fe8d0a.html" target="_top" xlink:title="kill_tracker">
<polygon fill="#4ea9ff" stroke="#404040" points="1536.5,-90 1465.5,-90 1465.5,-71 1536.5,-71 1536.5,-90"/>
<text text-anchor="middle" x="1501" y="-78" font-family="Helvetica,sans-Serif" font-size="10.00">kill_tracker</text>
</a>
</g>
</g>
<!-- dir_67067475a2fdf44a2ed2517bfafdf7d4 -->
<g id="node20" class="node">
<title>dir_67067475a2fdf44a2ed2517bfafdf7d4</title>
<g id="a_node20"><a xlink:href="dir_67067475a2fdf44a2ed2517bfafdf7d4.html" target="_top" xlink:title="light_control">
<polygon fill="#4ea9ff" stroke="#404040" points="1447.5,-90 1370.5,-90 1370.5,-71 1447.5,-71 1447.5,-90"/>
<text text-anchor="middle" x="1409" y="-78" font-family="Helvetica,sans-Serif" font-size="10.00">light_control</text>
</a>
</g>
</g>
<!-- dir_08e88101657f1254b2d5fdf17c29cf47 -->
<g id="node21" class="node">
<title>dir_08e88101657f1254b2d5fdf17c29cf47</title>
<g id="a_node21"><a xlink:href="dir_08e88101657f1254b2d5fdf17c29cf47.html" target="_top" xlink:title="loot_tables">
<polygon fill="#4ea9ff" stroke="#404040" points="1352.5,-90 1281.5,-90 1281.5,-71 1352.5,-71 1352.5,-90"/>
<text text-anchor="middle" x="1317" y="-78" font-family="Helvetica,sans-Serif" font-size="10.00">loot_tables</text>
</a>
</g>
</g>
<!-- dir_8e12fc77aacf43e1506eeb84afc9b603 -->
<g id="node22" class="node">
<title>dir_8e12fc77aacf43e1506eeb84afc9b603</title>
<g id="a_node22"><a xlink:href="dir_8e12fc77aacf43e1506eeb84afc9b603.html" target="_top" xlink:title="mark">
<polygon fill="#4ea9ff" stroke="#404040" points="1263,-90 1221,-90 1221,-71 1263,-71 1263,-90"/>
<text text-anchor="middle" x="1242" y="-78" font-family="Helvetica,sans-Serif" font-size="10.00">mark</text>
</a>
</g>
</g>
<!-- dir_f0348eb1aaecbc5c1da7e1201fd20b31 -->
<g id="node23" class="node">
<title>dir_f0348eb1aaecbc5c1da7e1201fd20b31</title>
<g id="a_node23"><a xlink:href="dir_f0348eb1aaecbc5c1da7e1201fd20b31.html" target="_top" xlink:title="message">
<polygon fill="#4ea9ff" stroke="#404040" points="1202.5,-90 1141.5,-90 1141.5,-71 1202.5,-71 1202.5,-90"/>
<text text-anchor="middle" x="1172" y="-78" font-family="Helvetica,sans-Serif" font-size="10.00">message</text>
</a>
</g>
</g>
<!-- dir_6b9058d7dbcaa2799e2434b4448c2bb1 -->
<g id="node24" class="node">
<title>dir_6b9058d7dbcaa2799e2434b4448c2bb1</title>
<g id="a_node24"><a xlink:href="dir_6b9058d7dbcaa2799e2434b4448c2bb1.html" target="_top" xlink:title="minecontrol">
<polygon fill="#4ea9ff" stroke="#404040" points="1123.5,-90 1048.5,-90 1048.5,-71 1123.5,-71 1123.5,-90"/>
<text text-anchor="middle" x="1086" y="-78" font-family="Helvetica,sans-Serif" font-size="10.00">minecontrol</text>
</a>
</g>
</g>
<!-- dir_1476ea2b63af23484f180fbefe8bda17 -->
<g id="node25" class="node">
<title>dir_1476ea2b63af23484f180fbefe8bda17</title>
<g id="a_node25"><a xlink:href="dir_1476ea2b63af23484f180fbefe8bda17.html" target="_top" xlink:title="misc_commands">
<polygon fill="#4ea9ff" stroke="#404040" points="1030.5,-90 931.5,-90 931.5,-71 1030.5,-71 1030.5,-90"/>
<text text-anchor="middle" x="981" y="-78" font-family="Helvetica,sans-Serif" font-size="10.00">misc_commands</text>
</a>
</g>
</g>
<!-- dir_9c70424df1efe59983f13ec52d51cd4e -->
<g id="node27" class="node">
<title>dir_9c70424df1efe59983f13ec52d51cd4e</title>
<g id="a_node27"><a xlink:href="dir_9c70424df1efe59983f13ec52d51cd4e.html" target="_top" xlink:title="npc_spin_protection">
<polygon fill="#4ea9ff" stroke="#404040" points="913,-90 799,-90 799,-71 913,-71 913,-90"/>
<text text-anchor="middle" x="856" y="-78" font-family="Helvetica,sans-Serif" font-size="10.00">npc_spin_protection</text>
</a>
</g>
</g>
<!-- dir_ca3a9dfbf0479df7c4b549afde744ef5 -->
<g id="node28" class="node">
<title>dir_ca3a9dfbf0479df7c4b549afde744ef5</title>
<g id="a_node28"><a xlink:href="dir_ca3a9dfbf0479df7c4b549afde744ef5.html" target="_top" xlink:title="purchase_restrictions">
<polygon fill="#4ea9ff" stroke="#404040" points="780.5,-90 659.5,-90 659.5,-71 780.5,-71 780.5,-90"/>
<text text-anchor="middle" x="720" y="-78" font-family="Helvetica,sans-Serif" font-size="10.00">purchase_restrictions</text>
</a>
</g>
</g>
<!-- dir_689913a4fc3467a3c630b487470f44d1 -->
<g id="node29" class="node">
<title>dir_689913a4fc3467a3c630b487470f44d1</title>
<g id="a_node29"><a xlink:href="dir_689913a4fc3467a3c630b487470f44d1.html" target="_top" xlink:title="rename">
<polygon fill="#4ea9ff" stroke="#404040" points="641,-90 587,-90 587,-71 641,-71 641,-90"/>
<text text-anchor="middle" x="614" y="-78" font-family="Helvetica,sans-Serif" font-size="10.00">rename</text>
</a>
</g>
</g>
<!-- dir_4a52713137b0d7ca6a9749229803fe92 -->
<g id="node30" class="node">
<title>dir_4a52713137b0d7ca6a9749229803fe92</title>
<g id="a_node30"><a xlink:href="dir_4a52713137b0d7ca6a9749229803fe92.html" target="_top" xlink:title="restarts">
<polygon fill="#4ea9ff" stroke="#404040" points="569,-90 515,-90 515,-71 569,-71 569,-90"/>
<text text-anchor="middle" x="542" y="-78" font-family="Helvetica,sans-Serif" font-size="10.00">restarts</text>
</a>
</g>
</g>
<!-- dir_685463416cdec5cf041eee44b5c89bfc -->
<g id="node32" class="node">
<title>dir_685463416cdec5cf041eee44b5c89bfc</title>
<g id="a_node32"><a xlink:href="dir_685463416cdec5cf041eee44b5c89bfc.html" target="_top" xlink:title="sound_manager">
<polygon fill="#4ea9ff" stroke="#404040" points="496.5,-90 401.5,-90 401.5,-71 496.5,-71 496.5,-90"/>
<text text-anchor="middle" x="449" y="-78" font-family="Helvetica,sans-Serif" font-size="10.00">sound_manager</text>
</a>
</g>
</g>
<!-- dir_7424dc18e30a3bb9316ef45b569ea0b6 -->
<g id="node33" class="node">
<title>dir_7424dc18e30a3bb9316ef45b569ea0b6</title>
<g id="a_node33"><a xlink:href="dir_7424dc18e30a3bb9316ef45b569ea0b6.html" target="_top" xlink:title="stats">
<polygon fill="#4ea9ff" stroke="#404040" points="383.5,-90 342.5,-90 342.5,-71 383.5,-71 383.5,-90"/>
<text text-anchor="middle" x="363" y="-78" font-family="Helvetica,sans-Serif" font-size="10.00">stats</text>
</a>
</g>
</g>
<!-- dir_ad675f14a9b14ad0849db2548d60d996 -->
<g id="node34" class="node">
<title>dir_ad675f14a9b14ad0849db2548d60d996</title>
<g id="a_node34"><a xlink:href="dir_ad675f14a9b14ad0849db2548d60d996.html" target="_top" xlink:title="system_sensor">
<polygon fill="#4ea9ff" stroke="#404040" points="324,-90 234,-90 234,-71 324,-71 324,-90"/>
<text text-anchor="middle" x="279" y="-78" font-family="Helvetica,sans-Serif" font-size="10.00">system_sensor</text>
</a>
</g>
</g>
<!-- dir_5db75579f42a42586f7a50c564563170 -->
<g id="node35" class="node">
<title>dir_5db75579f42a42586f7a50c564563170</title>
<g id="a_node35"><a xlink:href="dir_5db75579f42a42586f7a50c564563170.html" target="_top" xlink:title="tax">
<polygon fill="#4ea9ff" stroke="#404040" points="216,-90 184,-90 184,-71 216,-71 216,-90"/>
<text text-anchor="middle" x="200" y="-78" font-family="Helvetica,sans-Serif" font-size="10.00">tax</text>
</a>
</g>
</g>
<!-- dir_d643c5f46465509136328ed8118ca85c -->
<g id="node36" class="node">
<title>dir_d643c5f46465509136328ed8118ca85c</title>
<g id="a_node36"><a xlink:href="dir_d643c5f46465509136328ed8118ca85c.html" target="_top" xlink:title="wardrobe">
<polygon fill="#4ea9ff" stroke="#404040" points="166,-90 104,-90 104,-71 166,-71 166,-90"/>
<text text-anchor="middle" x="135" y="-78" font-family="Helvetica,sans-Serif" font-size="10.00">wardrobe</text>
</a>
</g>
</g>
<!-- dir_84f2740fd9eab9859a47d878cd5f3f0e -->
<g id="node37" class="node">
<title>dir_84f2740fd9eab9859a47d878cd5f3f0e</title>
<g id="a_node37"><a xlink:href="dir_84f2740fd9eab9859a47d878cd5f3f0e.html" target="_top" xlink:title="warehouse">
<polygon fill="#4ea9ff" stroke="#404040" points="86,-90 16,-90 16,-71 86,-71 86,-90"/>
<text text-anchor="middle" x="51" y="-78" font-family="Helvetica,sans-Serif" font-size="10.00">warehouse</text>
</a>
</g>
</g>
</g>
</svg>
