<?xml version="1.0" encoding="UTF-8" standalone="no"?>
<!DOCTYPE svg PUBLIC "-//W3C//DTD SVG 1.1//EN"
 "http://www.w3.org/Graphics/SVG/1.1/DTD/svg11.dtd">
<!-- Generated by graphviz version 2.43.0 (0)
 -->
<!-- Title: plugins Pages: 1 -->
<svg width="4220pt" height="148pt"
 viewBox="0.00 0.00 4220.00 148.00" xmlns="http://www.w3.org/2000/svg" xmlns:xlink="http://www.w3.org/1999/xlink">
<g id="graph0" class="graph" transform="scale(1 1) rotate(0) translate(4 144)">
<title>plugins</title>
<g id="clust1" class="cluster">
<title>clusterdir_38c8d24aef3972a7f87b834274e76e31</title>
<g id="a_clust1"><a xlink:href="dir_38c8d24aef3972a7f87b834274e76e31.html" target="_top">
<polygon fill="#eeeeff" stroke="black" points="8,-8 8,-132 4204,-132 4204,-8 8,-8"/>
</a>
</g>
</g>
<!-- dir_38c8d24aef3972a7f87b834274e76e31 -->
<g id="node1" class="node">
<title>dir_38c8d24aef3972a7f87b834274e76e31</title>
<text text-anchor="middle" x="4169" y="-103.5" font-family="Helvetica,sans-Serif" font-size="10.00">plugins</text>
</g>
<!-- dir_d6ea09dc337e2d36bec7985e20d4689b -->
<g id="node2" class="node">
<title>dir_d6ea09dc337e2d36bec7985e20d4689b</title>
<g id="a_node2"><a xlink:href="dir_d6ea09dc337e2d36bec7985e20d4689b.html" target="_top" xlink:title="afk_plugin">
<polygon fill="white" stroke="black" points="4124,-124 4056,-124 4056,-88 4124,-88 4124,-124"/>
<text text-anchor="middle" x="4090" y="-103.5" font-family="Helvetica,sans-Serif" font-size="10.00">afk_plugin</text>
</a>
</g>
</g>
<!-- dir_6163ef39e5d76e1830e61521dcf66aa0 -->
<g id="node3" class="node">
<title>dir_6163ef39e5d76e1830e61521dcf66aa0</title>
<g id="a_node3"><a xlink:href="dir_6163ef39e5d76e1830e61521dcf66aa0.html" target="_top" xlink:title="anti_jump_disconnect_plugin">
<polygon fill="white" stroke="black" points="3940,-124 3782,-124 3782,-88 3940,-88 3940,-124"/>
<text text-anchor="middle" x="3861" y="-103.5" font-family="Helvetica,sans-Serif" font-size="10.00">anti_jump_disconnect_plugin</text>
</a>
</g>
</g>
<!-- dir_46abf0d4860c1b90a7dc0d4f878305c0 -->
<g id="node36" class="node">
<title>dir_46abf0d4860c1b90a7dc0d4f878305c0</title>
<g id="a_node36"><a xlink:href="dir_46abf0d4860c1b90a7dc0d4f878305c0.html" target="_top" xlink:title="tempban_plugin">
<polygon fill="white" stroke="black" points="3277.5,-52 3182.5,-52 3182.5,-16 3277.5,-16 3277.5,-52"/>
<text text-anchor="middle" x="3230" y="-31.5" font-family="Helvetica,sans-Serif" font-size="10.00">tempban_plugin</text>
</a>
</g>
</g>
<!-- dir_6163ef39e5d76e1830e61521dcf66aa0&#45;&gt;dir_46abf0d4860c1b90a7dc0d4f878305c0 -->
<g id="edge2" class="edge">
<title>dir_6163ef39e5d76e1830e61521dcf66aa0&#45;&gt;dir_46abf0d4860c1b90a7dc0d4f878305c0</title>
<path fill="none" stroke="black" d="M3781.91,-89.36C3778.9,-88.88 3775.93,-88.42 3773,-88 3597.14,-62.49 3387.41,-45.9 3287.9,-38.86"/>
<polygon fill="black" stroke="black" points="3287.98,-35.36 3277.76,-38.15 3287.49,-42.34 3287.98,-35.36"/>
<g id="a_edge2&#45;headlabel"><a xlink:href="dir_000010_000038.html" target="_top" xlink:title="1">
<text text-anchor="middle" x="3291.76" y="-30.28" font-family="Helvetica,sans-Serif" font-size="10.00">1</text>
</a>
</g>
</g>
<!-- dir_08ed933221bb37cde027f6a2b8ae8043 -->
<g id="node4" class="node">
<title>dir_08ed933221bb37cde027f6a2b8ae8043</title>
<g id="a_node4"><a xlink:href="dir_08ed933221bb37cde027f6a2b8ae8043.html" target="_top" xlink:title="arena_plugin">
<polygon fill="white" stroke="black" points="4038,-124 3958,-124 3958,-88 4038,-88 4038,-124"/>
<text text-anchor="middle" x="3998" y="-103.5" font-family="Helvetica,sans-Serif" font-size="10.00">arena_plugin</text>
</a>
</g>
</g>
<!-- dir_19cb41c3e5c41c8bb1539a9ead99abc1 -->
<g id="node5" class="node">
<title>dir_19cb41c3e5c41c8bb1539a9ead99abc1</title>
<g id="a_node5"><a xlink:href="dir_19cb41c3e5c41c8bb1539a9ead99abc1.html" target="_top" xlink:title="base_plugin">
<polygon fill="white" stroke="black" points="4035.5,-52 3960.5,-52 3960.5,-16 4035.5,-16 4035.5,-52"/>
<text text-anchor="middle" x="3998" y="-31.5" font-family="Helvetica,sans-Serif" font-size="10.00">base_plugin</text>
</a>
</g>
</g>
<!-- dir_08ed933221bb37cde027f6a2b8ae8043&#45;&gt;dir_19cb41c3e5c41c8bb1539a9ead99abc1 -->
<g id="edge1" class="edge">
<title>dir_08ed933221bb37cde027f6a2b8ae8043&#45;&gt;dir_19cb41c3e5c41c8bb1539a9ead99abc1</title>
<path fill="none" stroke="black" d="M3998,-87.7C3998,-79.98 3998,-70.71 3998,-62.11"/>
<polygon fill="black" stroke="black" points="4001.5,-62.1 3998,-52.1 3994.5,-62.1 4001.5,-62.1"/>
<g id="a_edge1&#45;headlabel"><a xlink:href="dir_000011_000004.html" target="_top" xlink:title="1">
<text text-anchor="middle" x="4004.34" y="-63.2" font-family="Helvetica,sans-Serif" font-size="10.00">1</text>
</a>
</g>
</g>
<!-- dir_12b85b0b8722ca047b618bb75713e223 -->
<g id="node6" class="node">
<title>dir_12b85b0b8722ca047b618bb75713e223</title>
<g id="a_node6"><a xlink:href="dir_12b85b0b8722ca047b618bb75713e223.html" target="_top" xlink:title="bountyhunt_plugin">
<polygon fill="white" stroke="black" points="3763.5,-124 3656.5,-124 3656.5,-88 3763.5,-88 3763.5,-124"/>
<text text-anchor="middle" x="3710" y="-103.5" font-family="Helvetica,sans-Serif" font-size="10.00">bountyhunt_plugin</text>
</a>
</g>
</g>
<!-- dir_d29401a01c4d7f26b2f76752013f29ad -->
<g id="node7" class="node">
<title>dir_d29401a01c4d7f26b2f76752013f29ad</title>
<g id="a_node7"><a xlink:href="dir_d29401a01c4d7f26b2f76752013f29ad.html" target="_top" xlink:title="cargo_drop_plugin">
<polygon fill="white" stroke="black" points="3638,-124 3532,-124 3532,-88 3638,-88 3638,-124"/>
<text text-anchor="middle" x="3585" y="-103.5" font-family="Helvetica,sans-Serif" font-size="10.00">cargo_drop_plugin</text>
</a>
</g>
</g>
<!-- dir_4e8cb60eb288b874d983629ace200697 -->
<g id="node8" class="node">
<title>dir_4e8cb60eb288b874d983629ace200697</title>
<g id="a_node8"><a xlink:href="dir_4e8cb60eb288b874d983629ace200697.html" target="_top" xlink:title="cash_manager_plugin">
<polygon fill="white" stroke="black" points="3513.5,-124 3390.5,-124 3390.5,-88 3513.5,-88 3513.5,-124"/>
<text text-anchor="middle" x="3452" y="-103.5" font-family="Helvetica,sans-Serif" font-size="10.00">cash_manager_plugin</text>
</a>
</g>
</g>
<!-- dir_da7ec0c53cb71e7156ece69d7686b78c -->
<g id="node9" class="node">
<title>dir_da7ec0c53cb71e7156ece69d7686b78c</title>
<g id="a_node9"><a xlink:href="dir_da7ec0c53cb71e7156ece69d7686b78c.html" target="_top" xlink:title="cloak_plugin">
<polygon fill="white" stroke="black" points="3372,-124 3294,-124 3294,-88 3372,-88 3372,-124"/>
<text text-anchor="middle" x="3333" y="-103.5" font-family="Helvetica,sans-Serif" font-size="10.00">cloak_plugin</text>
</a>
</g>
</g>
<!-- dir_d0023301749cc338e7612fa3b300a2b8 -->
<g id="node10" class="node">
<title>dir_d0023301749cc338e7612fa3b300a2b8</title>
<g id="a_node10"><a xlink:href="dir_d0023301749cc338e7612fa3b300a2b8.html" target="_top" xlink:title="condata_plugin">
<polygon fill="white" stroke="black" points="3275.5,-124 3184.5,-124 3184.5,-88 3275.5,-88 3275.5,-124"/>
<text text-anchor="middle" x="3230" y="-103.5" font-family="Helvetica,sans-Serif" font-size="10.00">condata_plugin</text>
</a>
</g>
</g>
<!-- dir_d0023301749cc338e7612fa3b300a2b8&#45;&gt;dir_46abf0d4860c1b90a7dc0d4f878305c0 -->
<g id="edge3" class="edge">
<title>dir_d0023301749cc338e7612fa3b300a2b8&#45;&gt;dir_46abf0d4860c1b90a7dc0d4f878305c0</title>
<path fill="none" stroke="black" d="M3230,-87.7C3230,-79.98 3230,-70.71 3230,-62.11"/>
<polygon fill="black" stroke="black" points="3233.5,-62.1 3230,-52.1 3226.5,-62.1 3233.5,-62.1"/>
<g id="a_edge3&#45;headlabel"><a xlink:href="dir_000007_000038.html" target="_top" xlink:title="1">
<text text-anchor="middle" x="3236.34" y="-63.2" font-family="Helvetica,sans-Serif" font-size="10.00">1</text>
</a>
</g>
</g>
<!-- dir_f754f113f994ab2efad9c45fc0e9198c -->
<g id="node11" class="node">
<title>dir_f754f113f994ab2efad9c45fc0e9198c</title>
<g id="a_node11"><a xlink:href="dir_f754f113f994ab2efad9c45fc0e9198c.html" target="_top" xlink:title="crash_catcher_plugin">
<polygon fill="white" stroke="black" points="3166.5,-124 3047.5,-124 3047.5,-88 3166.5,-88 3166.5,-124"/>
<text text-anchor="middle" x="3107" y="-103.5" font-family="Helvetica,sans-Serif" font-size="10.00">crash_catcher_plugin</text>
</a>
</g>
</g>
<!-- dir_adb64450a7fe9097564eac9b0bc18833 -->
<g id="node12" class="node">
<title>dir_adb64450a7fe9097564eac9b0bc18833</title>
<g id="a_node12"><a xlink:href="dir_adb64450a7fe9097564eac9b0bc18833.html" target="_top" xlink:title="death_penalty_plugin">
<polygon fill="white" stroke="black" points="3029,-124 2907,-124 2907,-88 3029,-88 3029,-124"/>
<text text-anchor="middle" x="2968" y="-103.5" font-family="Helvetica,sans-Serif" font-size="10.00">death_penalty_plugin</text>
</a>
</g>
</g>
<!-- dir_3adf1494fe381a2b36f9755905b5f1bf -->
<g id="node13" class="node">
<title>dir_3adf1494fe381a2b36f9755905b5f1bf</title>
<g id="a_node13"><a xlink:href="dir_3adf1494fe381a2b36f9755905b5f1bf.html" target="_top" xlink:title="dynamic_missions_plugin">
<polygon fill="white" stroke="black" points="2888.5,-124 2745.5,-124 2745.5,-88 2888.5,-88 2888.5,-124"/>
<text text-anchor="middle" x="2817" y="-103.5" font-family="Helvetica,sans-Serif" font-size="10.00">dynamic_missions_plugin</text>
</a>
</g>
</g>
<!-- dir_96e7f4733bc3a8a176e4f9111c2fd052 -->
<g id="node14" class="node">
<title>dir_96e7f4733bc3a8a176e4f9111c2fd052</title>
<g id="a_node14"><a xlink:href="dir_96e7f4733bc3a8a176e4f9111c2fd052.html" target="_top" xlink:title="event_plugin">
<polygon fill="white" stroke="black" points="2727,-124 2647,-124 2647,-88 2727,-88 2727,-124"/>
<text text-anchor="middle" x="2687" y="-103.5" font-family="Helvetica,sans-Serif" font-size="10.00">event_plugin</text>
</a>
</g>
</g>
<!-- dir_390c224c8f71c8c52de5e850e15a471d -->
<g id="node15" class="node">
<title>dir_390c224c8f71c8c52de5e850e15a471d</title>
<g id="a_node15"><a xlink:href="dir_390c224c8f71c8c52de5e850e15a471d.html" target="_top" xlink:title="flhook_plugin_template">
<polygon fill="white" stroke="black" points="2628.5,-124 2497.5,-124 2497.5,-88 2628.5,-88 2628.5,-124"/>
<text text-anchor="middle" x="2563" y="-103.5" font-family="Helvetica,sans-Serif" font-size="10.00">flhook_plugin_template</text>
</a>
</g>
</g>
<!-- dir_5e999edde22b7f0e19176695e3133ddf -->
<g id="node16" class="node">
<title>dir_5e999edde22b7f0e19176695e3133ddf</title>
<g id="a_node16"><a xlink:href="dir_5e999edde22b7f0e19176695e3133ddf.html" target="_top" xlink:title="hyper_jump_plugin">
<polygon fill="white" stroke="black" points="2479,-124 2369,-124 2369,-88 2479,-88 2479,-124"/>
<text text-anchor="middle" x="2424" y="-103.5" font-family="Helvetica,sans-Serif" font-size="10.00">hyper_jump_plugin</text>
</a>
</g>
</g>
<!-- dir_d72cfe4128c5cd15fcfebb4cca10015f -->
<g id="node17" class="node">
<title>dir_d72cfe4128c5cd15fcfebb4cca10015f</title>
<g id="a_node17"><a xlink:href="dir_d72cfe4128c5cd15fcfebb4cca10015f.html" target="_top" xlink:title="ip_ban_plugin">
<polygon fill="white" stroke="black" points="2351,-124 2267,-124 2267,-88 2351,-88 2351,-124"/>
<text text-anchor="middle" x="2309" y="-103.5" font-family="Helvetica,sans-Serif" font-size="10.00">ip_ban_plugin</text>
</a>
</g>
</g>
<!-- dir_c35496de345b35eff4afb6e4bbb09e51 -->
<g id="node18" class="node">
<title>dir_c35496de345b35eff4afb6e4bbb09e51</title>
<g id="a_node18"><a xlink:href="dir_c35496de345b35eff4afb6e4bbb09e51.html" target="_top" xlink:title="kill_counter_plugin">
<polygon fill="white" stroke="black" points="2248.5,-124 2139.5,-124 2139.5,-88 2248.5,-88 2248.5,-124"/>
<text text-anchor="middle" x="2194" y="-103.5" font-family="Helvetica,sans-Serif" font-size="10.00">kill_counter_plugin</text>
</a>
</g>
</g>
<!-- dir_4e70664b7697fc102988908e3e049201 -->
<g id="node19" class="node">
<title>dir_4e70664b7697fc102988908e3e049201</title>
<g id="a_node19"><a xlink:href="dir_4e70664b7697fc102988908e3e049201.html" target="_top" xlink:title="mail_plugin">
<polygon fill="white" stroke="black" points="2015,-52 1941,-52 1941,-16 2015,-16 2015,-52"/>
<text text-anchor="middle" x="1978" y="-31.5" font-family="Helvetica,sans-Serif" font-size="10.00">mail_plugin</text>
</a>
</g>
</g>
<!-- dir_33bcc4ba2293e2a024fe5451603d2848 -->
<g id="node20" class="node">
<title>dir_33bcc4ba2293e2a024fe5451603d2848</title>
<g id="a_node20"><a xlink:href="dir_33bcc4ba2293e2a024fe5451603d2848.html" target="_top" xlink:title="mark_plugin">
<polygon fill="white" stroke="black" points="2121.5,-124 2044.5,-124 2044.5,-88 2121.5,-88 2121.5,-124"/>
<text text-anchor="middle" x="2083" y="-103.5" font-family="Helvetica,sans-Serif" font-size="10.00">mark_plugin</text>
</a>
</g>
</g>
<!-- dir_fe26138fc9a0f1b042c00b4c994a0726 -->
<g id="node21" class="node">
<title>dir_fe26138fc9a0f1b042c00b4c994a0726</title>
<g id="a_node21"><a xlink:href="dir_fe26138fc9a0f1b042c00b4c994a0726.html" target="_top" xlink:title="message_plugin">
<polygon fill="white" stroke="black" points="2026,-124 1930,-124 1930,-88 2026,-88 2026,-124"/>
<text text-anchor="middle" x="1978" y="-103.5" font-family="Helvetica,sans-Serif" font-size="10.00">message_plugin</text>
</a>
</g>
</g>
<!-- dir_fe26138fc9a0f1b042c00b4c994a0726&#45;&gt;dir_4e70664b7697fc102988908e3e049201 -->
<g id="edge5" class="edge">
<title>dir_fe26138fc9a0f1b042c00b4c994a0726&#45;&gt;dir_4e70664b7697fc102988908e3e049201</title>
<path fill="none" stroke="black" d="M1978,-87.7C1978,-79.98 1978,-70.71 1978,-62.11"/>
<polygon fill="black" stroke="black" points="1981.5,-62.1 1978,-52.1 1974.5,-62.1 1981.5,-62.1"/>
<g id="a_edge5&#45;headlabel"><a xlink:href="dir_000024_000022.html" target="_top" xlink:title="1">
<text text-anchor="middle" x="1984.34" y="-63.2" font-family="Helvetica,sans-Serif" font-size="10.00">1</text>
</a>
</g>
</g>
<!-- dir_fe26138fc9a0f1b042c00b4c994a0726&#45;&gt;dir_46abf0d4860c1b90a7dc0d4f878305c0 -->
<g id="edge4" class="edge">
<title>dir_fe26138fc9a0f1b042c00b4c994a0726&#45;&gt;dir_46abf0d4860c1b90a7dc0d4f878305c0</title>
<path fill="none" stroke="black" d="M2026.22,-89.92C2029.51,-89.19 2032.79,-88.53 2036,-88 2258.68,-50.98 2965.32,-38.6 3172.43,-35.72"/>
<polygon fill="black" stroke="black" points="3172.54,-39.22 3182.49,-35.58 3172.44,-32.22 3172.54,-39.22"/>
<g id="a_edge4&#45;headlabel"><a xlink:href="dir_000024_000038.html" target="_top" xlink:title="1">
<text text-anchor="middle" x="3168.98" y="-39.61" font-family="Helvetica,sans-Serif" font-size="10.00">1</text>
</a>
</g>
</g>
<!-- dir_6e570d9c4e5efccfd2dbd9df6e598f38 -->
<g id="node22" class="node">
<title>dir_6e570d9c4e5efccfd2dbd9df6e598f38</title>
<g id="a_node22"><a xlink:href="dir_6e570d9c4e5efccfd2dbd9df6e598f38.html" target="_top" xlink:title="minecontrol_plugin">
<polygon fill="white" stroke="black" points="1912,-124 1802,-124 1802,-88 1912,-88 1912,-124"/>
<text text-anchor="middle" x="1857" y="-103.5" font-family="Helvetica,sans-Serif" font-size="10.00">minecontrol_plugin</text>
</a>
</g>
</g>
<!-- dir_115d82961486fec80e64db4551303849 -->
<g id="node23" class="node">
<title>dir_115d82961486fec80e64db4551303849</title>
<g id="a_node23"><a xlink:href="dir_115d82961486fec80e64db4551303849.html" target="_top" xlink:title="misc_commands_plugin">
<polygon fill="white" stroke="black" points="1784,-124 1650,-124 1650,-88 1784,-88 1784,-124"/>
<text text-anchor="middle" x="1717" y="-103.5" font-family="Helvetica,sans-Serif" font-size="10.00">misc_commands_plugin</text>
</a>
</g>
</g>
<!-- dir_5562fb06618f44cec006146b35b49a4e -->
<g id="node24" class="node">
<title>dir_5562fb06618f44cec006146b35b49a4e</title>
<g id="a_node24"><a xlink:href="dir_5562fb06618f44cec006146b35b49a4e.html" target="_top" xlink:title="mobiledocking_plugin">
<polygon fill="white" stroke="black" points="1632,-124 1508,-124 1508,-88 1632,-88 1632,-124"/>
<text text-anchor="middle" x="1570" y="-103.5" font-family="Helvetica,sans-Serif" font-size="10.00">mobiledocking_plugin</text>
</a>
</g>
</g>
<!-- dir_e80e4070d30b765d591d51275f8169e7 -->
<g id="node25" class="node">
<title>dir_e80e4070d30b765d591d51275f8169e7</title>
<g id="a_node25"><a xlink:href="dir_e80e4070d30b765d591d51275f8169e7.html" target="_top" xlink:title="npc_control_plugin">
<polygon fill="white" stroke="black" points="1490,-124 1382,-124 1382,-88 1490,-88 1490,-124"/>
<text text-anchor="middle" x="1436" y="-103.5" font-family="Helvetica,sans-Serif" font-size="10.00">npc_control_plugin</text>
</a>
</g>
</g>
<!-- dir_c62d28cef0af5b38131fce4ec3aa08e5 -->
<g id="node26" class="node">
<title>dir_c62d28cef0af5b38131fce4ec3aa08e5</title>
<g id="a_node26"><a xlink:href="dir_c62d28cef0af5b38131fce4ec3aa08e5.html" target="_top" xlink:title="pimpship_plugin">
<polygon fill="white" stroke="black" points="1363.5,-124 1266.5,-124 1266.5,-88 1363.5,-88 1363.5,-124"/>
<text text-anchor="middle" x="1315" y="-103.5" font-family="Helvetica,sans-Serif" font-size="10.00">pimpship_plugin</text>
</a>
</g>
</g>
<!-- dir_8532b1e34a0fc97267a86092d6f86a8a -->
<g id="node27" class="node">
<title>dir_8532b1e34a0fc97267a86092d6f86a8a</title>
<g id="a_node27"><a xlink:href="dir_8532b1e34a0fc97267a86092d6f86a8a.html" target="_top" xlink:title="player_info_plugin">
<polygon fill="white" stroke="black" points="1248.5,-124 1141.5,-124 1141.5,-88 1248.5,-88 1248.5,-124"/>
<text text-anchor="middle" x="1195" y="-103.5" font-family="Helvetica,sans-Serif" font-size="10.00">player_info_plugin</text>
</a>
</g>
</g>
<!-- dir_83fb5449acd07c8015eb2fab26ea4c95 -->
<g id="node28" class="node">
<title>dir_83fb5449acd07c8015eb2fab26ea4c95</title>
<g id="a_node28"><a xlink:href="dir_83fb5449acd07c8015eb2fab26ea4c95.html" target="_top" xlink:title="purchase_restrictions_plugin">
<polygon fill="white" stroke="black" points="1123,-124 967,-124 967,-88 1123,-88 1123,-124"/>
<text text-anchor="middle" x="1045" y="-103.5" font-family="Helvetica,sans-Serif" font-size="10.00">purchase_restrictions_plugin</text>
</a>
</g>
</g>
<!-- dir_5dd7343bf8dc8866c5383513535491af -->
<g id="node29" class="node">
<title>dir_5dd7343bf8dc8866c5383513535491af</title>
<g id="a_node29"><a xlink:href="dir_5dd7343bf8dc8866c5383513535491af.html" target="_top" xlink:title="pvp_plugin">
<polygon fill="white" stroke="black" points="949,-124 879,-124 879,-88 949,-88 949,-124"/>
<text text-anchor="middle" x="914" y="-103.5" font-family="Helvetica,sans-Serif" font-size="10.00">pvp_plugin</text>
</a>
</g>
</g>
<!-- dir_20728217445925c2028b7fcb8452d7d4 -->
<g id="node30" class="node">
<title>dir_20728217445925c2028b7fcb8452d7d4</title>
<g id="a_node30"><a xlink:href="dir_20728217445925c2028b7fcb8452d7d4.html" target="_top" xlink:title="rename_plugin">
<polygon fill="white" stroke="black" points="860.5,-124 771.5,-124 771.5,-88 860.5,-88 860.5,-124"/>
<text text-anchor="middle" x="816" y="-103.5" font-family="Helvetica,sans-Serif" font-size="10.00">rename_plugin</text>
</a>
</g>
</g>
<!-- dir_e7968c89b7ee8634f0e71caace8249b9 -->
<g id="node31" class="node">
<title>dir_e7968c89b7ee8634f0e71caace8249b9</title>
<g id="a_node31"><a xlink:href="dir_e7968c89b7ee8634f0e71caace8249b9.html" target="_top" xlink:title="restarts_plugin">
<polygon fill="white" stroke="black" points="753.5,-124 664.5,-124 664.5,-88 753.5,-88 753.5,-124"/>
<text text-anchor="middle" x="709" y="-103.5" font-family="Helvetica,sans-Serif" font-size="10.00">restarts_plugin</text>
</a>
</g>
</g>
<!-- dir_e8261b42923576d79c73861039c9f462 -->
<g id="node32" class="node">
<title>dir_e8261b42923576d79c73861039c9f462</title>
<g id="a_node32"><a xlink:href="dir_e8261b42923576d79c73861039c9f462.html" target="_top" xlink:title="sound_manager_plugin">
<polygon fill="white" stroke="black" points="646,-124 516,-124 516,-88 646,-88 646,-124"/>
<text text-anchor="middle" x="581" y="-103.5" font-family="Helvetica,sans-Serif" font-size="10.00">sound_manager_plugin</text>
</a>
</g>
</g>
<!-- dir_f5cbbe861b7916255fd1332157a6b04c -->
<g id="node33" class="node">
<title>dir_f5cbbe861b7916255fd1332157a6b04c</title>
<g id="a_node33"><a xlink:href="dir_f5cbbe861b7916255fd1332157a6b04c.html" target="_top" xlink:title="spin_protection_plugin">
<polygon fill="white" stroke="black" points="497.5,-124 370.5,-124 370.5,-88 497.5,-88 497.5,-124"/>
<text text-anchor="middle" x="434" y="-103.5" font-family="Helvetica,sans-Serif" font-size="10.00">spin_protection_plugin</text>
</a>
</g>
</g>
<!-- dir_32d06f0361c0032d6ffd6f72a783db87 -->
<g id="node34" class="node">
<title>dir_32d06f0361c0032d6ffd6f72a783db87</title>
<g id="a_node34"><a xlink:href="dir_32d06f0361c0032d6ffd6f72a783db87.html" target="_top" xlink:title="stats_plugin">
<polygon fill="white" stroke="black" points="352,-124 276,-124 276,-88 352,-88 352,-124"/>
<text text-anchor="middle" x="314" y="-103.5" font-family="Helvetica,sans-Serif" font-size="10.00">stats_plugin</text>
</a>
</g>
</g>
<!-- dir_65117df87949ec39cec2d7a130c4cc90 -->
<g id="node35" class="node">
<title>dir_65117df87949ec39cec2d7a130c4cc90</title>
<g id="a_node35"><a xlink:href="dir_65117df87949ec39cec2d7a130c4cc90.html" target="_top" xlink:title="system_sensor_plugin">
<polygon fill="white" stroke="black" points="257.5,-124 132.5,-124 132.5,-88 257.5,-88 257.5,-124"/>
<text text-anchor="middle" x="195" y="-103.5" font-family="Helvetica,sans-Serif" font-size="10.00">system_sensor_plugin</text>
</a>
</g>
</g>
<!-- dir_fa0abc35a75024c8efa5bbfca4570e7a -->
<g id="node37" class="node">
<title>dir_fa0abc35a75024c8efa5bbfca4570e7a</title>
<g id="a_node37"><a xlink:href="dir_fa0abc35a75024c8efa5bbfca4570e7a.html" target="_top" xlink:title="wardrobe_plugin">
<polygon fill="white" stroke="black" points="114,-124 16,-124 16,-88 114,-88 114,-124"/>
<text text-anchor="middle" x="65" y="-103.5" font-family="Helvetica,sans-Serif" font-size="10.00">wardrobe_plugin</text>
</a>
</g>
</g>
</g>
</svg>
