<?xml version="1.0" encoding="UTF-8" standalone="no"?>
<!DOCTYPE svg PUBLIC "-//W3C//DTD SVG 1.1//EN"
 "http://www.w3.org/Graphics/SVG/1.1/DTD/svg11.dtd">
<!-- Generated by graphviz version 2.43.0 (0)
 -->
<!-- Title: source/flcodec.cpp Pages: 1 -->
<svg width="1716pt" height="196pt"
 viewBox="0.00 0.00 1716.00 196.00" xmlns="http://www.w3.org/2000/svg" xmlns:xlink="http://www.w3.org/1999/xlink">
<g id="graph0" class="graph" transform="scale(1 1) rotate(0) translate(4 192)">
<title>source/flcodec.cpp</title>
<!-- Node1 -->
<g id="node1" class="node">
<title>Node1</title>
<g id="a_node1"><a xlink:title=" ">
<polygon fill="#bfbfbf" stroke="black" points="400.5,-168.5 400.5,-187.5 507.5,-187.5 507.5,-168.5 400.5,-168.5"/>
<text text-anchor="middle" x="454" y="-175.5" font-family="Helvetica,sans-Serif" font-size="10.00">source/flcodec.cpp</text>
</a>
</g>
</g>
<!-- Node2 -->
<g id="node2" class="node">
<title>Node2</title>
<g id="a_node2"><a xlink:title=" ">
<polygon fill="none" stroke="#bfbfbf" points="106.5,-112.5 106.5,-131.5 153.5,-131.5 153.5,-112.5 106.5,-112.5"/>
<text text-anchor="middle" x="130" y="-119.5" font-family="Helvetica,sans-Serif" font-size="10.00">fcntl.h</text>
</a>
</g>
</g>
<!-- Node1&#45;&gt;Node2 -->
<g id="edge1" class="edge">
<title>Node1&#45;&gt;Node2</title>
<path fill="none" stroke="midnightblue" d="M400.3,-170.54C343.78,-163.33 252.05,-150.46 163.64,-131.92"/>
<polygon fill="midnightblue" stroke="midnightblue" points="164.22,-128.47 153.71,-129.81 162.77,-135.31 164.22,-128.47"/>
</g>
<!-- Node3 -->
<g id="node3" class="node">
<title>Node3</title>
<g id="a_node3"><a xlink:title=" ">
<polygon fill="none" stroke="#bfbfbf" points="172,-112.5 172,-131.5 236,-131.5 236,-112.5 172,-112.5"/>
<text text-anchor="middle" x="204" y="-119.5" font-family="Helvetica,sans-Serif" font-size="10.00">sys/stat.h</text>
</a>
</g>
</g>
<!-- Node1&#45;&gt;Node3 -->
<g id="edge2" class="edge">
<title>Node1&#45;&gt;Node3</title>
<path fill="none" stroke="midnightblue" d="M413.92,-168.42C373.9,-159.84 310.34,-146.19 246.12,-132.24"/>
<polygon fill="midnightblue" stroke="midnightblue" points="246.74,-128.79 236.23,-130.09 245.25,-135.63 246.74,-128.79"/>
</g>
<!-- Node4 -->
<g id="node4" class="node">
<title>Node4</title>
<g id="a_node4"><a xlink:title=" ">
<polygon fill="none" stroke="#bfbfbf" points="254,-112.5 254,-131.5 326,-131.5 326,-112.5 254,-112.5"/>
<text text-anchor="middle" x="290" y="-119.5" font-family="Helvetica,sans-Serif" font-size="10.00">sys/types.h</text>
</a>
</g>
</g>
<!-- Node1&#45;&gt;Node4 -->
<g id="edge3" class="edge">
<title>Node1&#45;&gt;Node4</title>
<path fill="none" stroke="midnightblue" d="M428.01,-168.44C400.3,-159.32 356.25,-144.81 325.38,-134.65"/>
<polygon fill="midnightblue" stroke="midnightblue" points="326.46,-131.32 315.86,-131.52 324.27,-137.97 326.46,-131.32"/>
</g>
<!-- Node5 -->
<g id="node5" class="node">
<title>Node5</title>
<g id="a_node5"><a xlink:title=" ">
<polygon fill="none" stroke="#bfbfbf" points="344.5,-112.5 344.5,-131.5 395.5,-131.5 395.5,-112.5 344.5,-112.5"/>
<text text-anchor="middle" x="370" y="-119.5" font-family="Helvetica,sans-Serif" font-size="10.00">errno.h</text>
</a>
</g>
</g>
<!-- Node1&#45;&gt;Node5 -->
<g id="edge4" class="edge">
<title>Node1&#45;&gt;Node5</title>
<path fill="none" stroke="midnightblue" d="M440.5,-168.32C427.4,-159.9 407.29,-146.97 391.89,-137.07"/>
<polygon fill="midnightblue" stroke="midnightblue" points="393.77,-134.12 383.46,-131.65 389.98,-140.01 393.77,-134.12"/>
</g>
<!-- Node6 -->
<g id="node6" class="node">
<title>Node6</title>
<g id="a_node6"><a xlink:title=" ">
<polygon fill="none" stroke="#bfbfbf" points="413.5,-112.5 413.5,-131.5 448.5,-131.5 448.5,-112.5 413.5,-112.5"/>
<text text-anchor="middle" x="431" y="-119.5" font-family="Helvetica,sans-Serif" font-size="10.00">io.h</text>
</a>
</g>
</g>
<!-- Node1&#45;&gt;Node6 -->
<g id="edge5" class="edge">
<title>Node1&#45;&gt;Node6</title>
<path fill="none" stroke="midnightblue" d="M450.2,-168.08C447.09,-160.77 442.58,-150.18 438.71,-141.1"/>
<polygon fill="midnightblue" stroke="midnightblue" points="441.87,-139.58 434.73,-131.75 435.43,-142.32 441.87,-139.58"/>
</g>
<!-- Node7 -->
<g id="node7" class="node">
<title>Node7</title>
<g id="a_node7"><a xlink:title=" ">
<polygon fill="none" stroke="#bfbfbf" points="0,-56.5 0,-75.5 50,-75.5 50,-56.5 0,-56.5"/>
<text text-anchor="middle" x="25" y="-63.5" font-family="Helvetica,sans-Serif" font-size="10.00">stdio.h</text>
</a>
</g>
</g>
<!-- Node1&#45;&gt;Node7 -->
<g id="edge6" class="edge">
<title>Node1&#45;&gt;Node7</title>
<path fill="none" stroke="midnightblue" d="M457.91,-168.11C463.34,-154.21 471.02,-127.35 457,-112 428.57,-80.88 134.91,-83.35 60.18,-75.51"/>
<polygon fill="midnightblue" stroke="midnightblue" points="60.52,-72.03 50.15,-74.16 59.59,-78.97 60.52,-72.03"/>
</g>
<!-- Node8 -->
<g id="node8" class="node">
<title>Node8</title>
<g id="a_node8"><a xlink:title=" ">
<polygon fill="none" stroke="#bfbfbf" points="505.5,-112.5 505.5,-131.5 558.5,-131.5 558.5,-112.5 505.5,-112.5"/>
<text text-anchor="middle" x="532" y="-119.5" font-family="Helvetica,sans-Serif" font-size="10.00">stdlib.h</text>
</a>
</g>
</g>
<!-- Node1&#45;&gt;Node8 -->
<g id="edge7" class="edge">
<title>Node1&#45;&gt;Node8</title>
<path fill="none" stroke="midnightblue" d="M466.53,-168.32C478.59,-159.98 497.03,-147.21 511.27,-137.35"/>
<polygon fill="midnightblue" stroke="midnightblue" points="513.27,-140.22 519.5,-131.65 509.28,-134.47 513.27,-140.22"/>
</g>
<!-- Node9 -->
<g id="node9" class="node">
<title>Node9</title>
<g id="a_node9"><a xlink:title=" ">
<polygon fill="none" stroke="#bfbfbf" points="576.5,-112.5 576.5,-131.5 629.5,-131.5 629.5,-112.5 576.5,-112.5"/>
<text text-anchor="middle" x="603" y="-119.5" font-family="Helvetica,sans-Serif" font-size="10.00">string.h</text>
</a>
</g>
</g>
<!-- Node1&#45;&gt;Node9 -->
<g id="edge8" class="edge">
<title>Node1&#45;&gt;Node9</title>
<path fill="none" stroke="midnightblue" d="M477.61,-168.44C502.46,-159.44 541.77,-145.19 569.75,-135.05"/>
<polygon fill="midnightblue" stroke="midnightblue" points="571.29,-138.21 579.5,-131.52 568.91,-131.63 571.29,-138.21"/>
</g>
<!-- Node10 -->
<g id="node10" class="node">
<title>Node10</title>
<g id="a_node10"><a xlink:href="global_8h.html" target="_top" xlink:title=" ">
<polygon fill="none" stroke="black" points="648,-112.5 648,-131.5 704,-131.5 704,-112.5 648,-112.5"/>
<text text-anchor="middle" x="676" y="-119.5" font-family="Helvetica,sans-Serif" font-size="10.00">global.h</text>
</a>
</g>
</g>
<!-- Node1&#45;&gt;Node10 -->
<g id="edge9" class="edge">
<title>Node1&#45;&gt;Node10</title>
<path fill="none" stroke="midnightblue" d="M489.18,-168.44C529.73,-158.58 596.13,-142.43 637.88,-132.27"/>
<polygon fill="midnightblue" stroke="midnightblue" points="638.79,-135.65 647.68,-129.89 637.14,-128.85 638.79,-135.65"/>
</g>
<!-- Node33 -->
<g id="node33" class="node">
<title>Node33</title>
<g id="a_node33"><a xlink:href="flcodec_8h.html" target="_top" xlink:title=" ">
<polygon fill="none" stroke="black" points="1179,-112.5 1179,-131.5 1239,-131.5 1239,-112.5 1179,-112.5"/>
<text text-anchor="middle" x="1209" y="-119.5" font-family="Helvetica,sans-Serif" font-size="10.00">flcodec.h</text>
</a>
</g>
</g>
<!-- Node1&#45;&gt;Node33 -->
<g id="edge33" class="edge">
<title>Node1&#45;&gt;Node33</title>
<path fill="none" stroke="midnightblue" d="M507.69,-173.16C651.38,-162.88 1042.34,-134.92 1168.89,-125.87"/>
<polygon fill="midnightblue" stroke="midnightblue" points="1169.2,-129.36 1178.92,-125.15 1168.7,-122.37 1169.2,-129.36"/>
</g>
<!-- Node10&#45;&gt;Node7 -->
<g id="edge21" class="edge">
<title>Node10&#45;&gt;Node7</title>
<path fill="none" stroke="midnightblue" d="M647.88,-113.78C644.57,-113.09 641.22,-112.48 638,-112 386.2,-74.63 315.31,-116.11 60.07,-75.84"/>
<polygon fill="midnightblue" stroke="midnightblue" points="60.56,-72.37 50.13,-74.24 59.45,-79.28 60.56,-72.37"/>
</g>
<!-- Node11 -->
<g id="node11" class="node">
<title>Node11</title>
<g id="a_node11"><a xlink:href="_singleton_8h.html" target="_top" xlink:title=" ">
<polygon fill="none" stroke="black" points="68.5,-56.5 68.5,-75.5 139.5,-75.5 139.5,-56.5 68.5,-56.5"/>
<text text-anchor="middle" x="104" y="-63.5" font-family="Helvetica,sans-Serif" font-size="10.00">Singleton.h</text>
</a>
</g>
</g>
<!-- Node10&#45;&gt;Node11 -->
<g id="edge10" class="edge">
<title>Node10&#45;&gt;Node11</title>
<path fill="none" stroke="midnightblue" d="M647.88,-113.81C644.56,-113.12 641.22,-112.5 638,-112 425.88,-79.29 366.71,-104.63 149.9,-75.94"/>
<polygon fill="midnightblue" stroke="midnightblue" points="150.17,-72.44 139.79,-74.57 149.24,-79.38 150.17,-72.44"/>
</g>
<!-- Node13 -->
<g id="node13" class="node">
<title>Node13</title>
<g id="a_node13"><a xlink:href="blowfish_8h.html" target="_top" xlink:title=" ">
<polygon fill="none" stroke="black" points="158,-56.5 158,-75.5 224,-75.5 224,-56.5 158,-56.5"/>
<text text-anchor="middle" x="191" y="-63.5" font-family="Helvetica,sans-Serif" font-size="10.00">blowfish.h</text>
</a>
</g>
</g>
<!-- Node10&#45;&gt;Node13 -->
<g id="edge12" class="edge">
<title>Node10&#45;&gt;Node13</title>
<path fill="none" stroke="midnightblue" d="M647.87,-113.86C644.56,-113.16 641.21,-112.52 638,-112 462.84,-83.62 413.46,-102.28 234.42,-76.04"/>
<polygon fill="midnightblue" stroke="midnightblue" points="234.81,-72.56 224.4,-74.54 233.78,-79.48 234.81,-72.56"/>
</g>
<!-- Node14 -->
<g id="node14" class="node">
<title>Node14</title>
<g id="a_node14"><a xlink:title=" ">
<polygon fill="none" stroke="#bfbfbf" points="242,-56.5 242,-75.5 306,-75.5 306,-56.5 242,-56.5"/>
<text text-anchor="middle" x="274" y="-63.5" font-family="Helvetica,sans-Serif" font-size="10.00">algorithm</text>
</a>
</g>
</g>
<!-- Node10&#45;&gt;Node14 -->
<g id="edge13" class="edge">
<title>Node10&#45;&gt;Node14</title>
<path fill="none" stroke="midnightblue" d="M647.86,-113.93C644.55,-113.22 641.21,-112.56 638,-112 498.88,-87.86 459.28,-98.99 316.2,-76.03"/>
<polygon fill="midnightblue" stroke="midnightblue" points="316.6,-72.55 306.17,-74.4 315.47,-79.46 316.6,-72.55"/>
</g>
<!-- Node15 -->
<g id="node15" class="node">
<title>Node15</title>
<g id="a_node15"><a xlink:title=" ">
<polygon fill="none" stroke="#bfbfbf" points="324,-56.5 324,-75.5 366,-75.5 366,-56.5 324,-56.5"/>
<text text-anchor="middle" x="345" y="-63.5" font-family="Helvetica,sans-Serif" font-size="10.00">array</text>
</a>
</g>
</g>
<!-- Node10&#45;&gt;Node15 -->
<g id="edge14" class="edge">
<title>Node10&#45;&gt;Node15</title>
<path fill="none" stroke="midnightblue" d="M647.84,-114.01C644.53,-113.29 641.2,-112.6 638,-112 525.19,-90.97 492.09,-100.47 376.17,-75.95"/>
<polygon fill="midnightblue" stroke="midnightblue" points="376.71,-72.49 366.2,-73.8 375.24,-79.33 376.71,-72.49"/>
</g>
<!-- Node16 -->
<g id="node16" class="node">
<title>Node16</title>
<g id="a_node16"><a xlink:title=" ">
<polygon fill="none" stroke="#bfbfbf" points="384,-56.5 384,-75.5 452,-75.5 452,-56.5 384,-56.5"/>
<text text-anchor="middle" x="418" y="-63.5" font-family="Helvetica,sans-Serif" font-size="10.00">filesystem</text>
</a>
</g>
</g>
<!-- Node10&#45;&gt;Node16 -->
<g id="edge15" class="edge">
<title>Node10&#45;&gt;Node16</title>
<path fill="none" stroke="midnightblue" d="M647.8,-114.22C644.5,-113.45 641.18,-112.7 638,-112 562.66,-95.42 541.27,-92.44 462.2,-76.23"/>
<polygon fill="midnightblue" stroke="midnightblue" points="462.76,-72.78 452.26,-74.19 461.35,-79.63 462.76,-72.78"/>
</g>
<!-- Node17 -->
<g id="node17" class="node">
<title>Node17</title>
<g id="a_node17"><a xlink:title=" ">
<polygon fill="none" stroke="#bfbfbf" points="470.5,-56.5 470.5,-75.5 535.5,-75.5 535.5,-56.5 470.5,-56.5"/>
<text text-anchor="middle" x="503" y="-63.5" font-family="Helvetica,sans-Serif" font-size="10.00">functional</text>
</a>
</g>
</g>
<!-- Node10&#45;&gt;Node17 -->
<g id="edge16" class="edge">
<title>Node10&#45;&gt;Node17</title>
<path fill="none" stroke="midnightblue" d="M648.59,-112.44C619.23,-103.28 572.48,-88.69 539.9,-78.52"/>
<polygon fill="midnightblue" stroke="midnightblue" points="540.87,-75.16 530.28,-75.52 538.79,-81.84 540.87,-75.16"/>
</g>
<!-- Node18 -->
<g id="node18" class="node">
<title>Node18</title>
<g id="a_node18"><a xlink:title=" ">
<polygon fill="none" stroke="#bfbfbf" points="554,-56.5 554,-75.5 586,-75.5 586,-56.5 554,-56.5"/>
<text text-anchor="middle" x="570" y="-63.5" font-family="Helvetica,sans-Serif" font-size="10.00">list</text>
</a>
</g>
</g>
<!-- Node10&#45;&gt;Node18 -->
<g id="edge17" class="edge">
<title>Node10&#45;&gt;Node18</title>
<path fill="none" stroke="midnightblue" d="M658.97,-112.32C641.77,-103.56 615,-89.92 595.31,-79.9"/>
<polygon fill="midnightblue" stroke="midnightblue" points="596.79,-76.72 586.29,-75.3 593.61,-82.96 596.79,-76.72"/>
</g>
<!-- Node19 -->
<g id="node19" class="node">
<title>Node19</title>
<g id="a_node19"><a xlink:title=" ">
<polygon fill="none" stroke="#bfbfbf" points="604,-56.5 604,-75.5 642,-75.5 642,-56.5 604,-56.5"/>
<text text-anchor="middle" x="623" y="-63.5" font-family="Helvetica,sans-Serif" font-size="10.00">map</text>
</a>
</g>
</g>
<!-- Node10&#45;&gt;Node19 -->
<g id="edge18" class="edge">
<title>Node10&#45;&gt;Node19</title>
<path fill="none" stroke="midnightblue" d="M667.25,-112.08C659.53,-104.22 648.1,-92.57 638.78,-83.08"/>
<polygon fill="midnightblue" stroke="midnightblue" points="641.09,-80.44 631.59,-75.75 636.1,-85.34 641.09,-80.44"/>
</g>
<!-- Node20 -->
<g id="node20" class="node">
<title>Node20</title>
<g id="a_node20"><a xlink:title=" ">
<polygon fill="none" stroke="#bfbfbf" points="660,-56.5 660,-75.5 692,-75.5 692,-56.5 660,-56.5"/>
<text text-anchor="middle" x="676" y="-63.5" font-family="Helvetica,sans-Serif" font-size="10.00">set</text>
</a>
</g>
</g>
<!-- Node10&#45;&gt;Node20 -->
<g id="edge19" class="edge">
<title>Node10&#45;&gt;Node20</title>
<path fill="none" stroke="midnightblue" d="M676,-112.08C676,-105.01 676,-94.86 676,-85.99"/>
<polygon fill="midnightblue" stroke="midnightblue" points="679.5,-85.75 676,-75.75 672.5,-85.75 679.5,-85.75"/>
</g>
<!-- Node21 -->
<g id="node21" class="node">
<title>Node21</title>
<g id="a_node21"><a xlink:title=" ">
<polygon fill="none" stroke="#bfbfbf" points="710,-56.5 710,-75.5 766,-75.5 766,-56.5 710,-56.5"/>
<text text-anchor="middle" x="738" y="-63.5" font-family="Helvetica,sans-Serif" font-size="10.00">sstream</text>
</a>
</g>
</g>
<!-- Node10&#45;&gt;Node21 -->
<g id="edge20" class="edge">
<title>Node10&#45;&gt;Node21</title>
<path fill="none" stroke="midnightblue" d="M685.96,-112.32C695.13,-104.34 708.94,-92.31 720.03,-82.65"/>
<polygon fill="midnightblue" stroke="midnightblue" points="722.62,-85.04 727.86,-75.83 718.02,-79.76 722.62,-85.04"/>
</g>
<!-- Node22 -->
<g id="node22" class="node">
<title>Node22</title>
<g id="a_node22"><a xlink:title=" ">
<polygon fill="none" stroke="#bfbfbf" points="784,-56.5 784,-75.5 828,-75.5 828,-56.5 784,-56.5"/>
<text text-anchor="middle" x="806" y="-63.5" font-family="Helvetica,sans-Serif" font-size="10.00">string</text>
</a>
</g>
</g>
<!-- Node10&#45;&gt;Node22 -->
<g id="edge22" class="edge">
<title>Node10&#45;&gt;Node22</title>
<path fill="none" stroke="midnightblue" d="M696.6,-112.44C717.99,-103.56 751.68,-89.56 776.02,-79.45"/>
<polygon fill="midnightblue" stroke="midnightblue" points="777.61,-82.58 785.5,-75.52 774.92,-76.12 777.61,-82.58"/>
</g>
<!-- Node23 -->
<g id="node23" class="node">
<title>Node23</title>
<g id="a_node23"><a xlink:title=" ">
<polygon fill="none" stroke="#bfbfbf" points="846.5,-56.5 846.5,-75.5 897.5,-75.5 897.5,-56.5 846.5,-56.5"/>
<text text-anchor="middle" x="872" y="-63.5" font-family="Helvetica,sans-Serif" font-size="10.00">variant</text>
</a>
</g>
</g>
<!-- Node10&#45;&gt;Node23 -->
<g id="edge23" class="edge">
<title>Node10&#45;&gt;Node23</title>
<path fill="none" stroke="midnightblue" d="M704.08,-113.26C738.91,-103.67 798.33,-87.3 836.35,-76.82"/>
<polygon fill="midnightblue" stroke="midnightblue" points="837.75,-80.07 846.46,-74.04 835.89,-73.32 837.75,-80.07"/>
</g>
<!-- Node24 -->
<g id="node24" class="node">
<title>Node24</title>
<g id="a_node24"><a xlink:title=" ">
<polygon fill="none" stroke="#bfbfbf" points="916,-56.5 916,-75.5 984,-75.5 984,-56.5 916,-56.5"/>
<text text-anchor="middle" x="950" y="-63.5" font-family="Helvetica,sans-Serif" font-size="10.00">windows.h</text>
</a>
</g>
</g>
<!-- Node10&#45;&gt;Node24 -->
<g id="edge24" class="edge">
<title>Node10&#45;&gt;Node24</title>
<path fill="none" stroke="midnightblue" d="M704.34,-115.54C747.77,-107.14 833.39,-90.53 906,-76 906.1,-75.98 906.2,-75.96 906.3,-75.94"/>
<polygon fill="midnightblue" stroke="midnightblue" points="906.78,-79.41 915.9,-74.01 905.4,-72.55 906.78,-79.41"/>
</g>
<!-- Node25 -->
<g id="node25" class="node">
<title>Node25</title>
<g id="a_node25"><a xlink:title=" ">
<polygon fill="none" stroke="#bfbfbf" points="1002,-56.5 1002,-75.5 1106,-75.5 1106,-56.5 1002,-56.5"/>
<text text-anchor="middle" x="1054" y="-63.5" font-family="Helvetica,sans-Serif" font-size="10.00">FLCoreCommon.h</text>
</a>
</g>
</g>
<!-- Node10&#45;&gt;Node25 -->
<g id="edge25" class="edge">
<title>Node10&#45;&gt;Node25</title>
<path fill="none" stroke="midnightblue" d="M704.42,-117.02C758.29,-109.46 879.19,-92.44 991.61,-76.2"/>
<polygon fill="midnightblue" stroke="midnightblue" points="992.36,-79.62 1001.76,-74.73 991.36,-72.69 992.36,-79.62"/>
</g>
<!-- Node26 -->
<g id="node26" class="node">
<title>Node26</title>
<g id="a_node26"><a xlink:title=" ">
<polygon fill="none" stroke="#bfbfbf" points="1124,-56.5 1124,-75.5 1212,-75.5 1212,-56.5 1124,-56.5"/>
<text text-anchor="middle" x="1168" y="-63.5" font-family="Helvetica,sans-Serif" font-size="10.00">FLCoreDALib.h</text>
</a>
</g>
</g>
<!-- Node10&#45;&gt;Node26 -->
<g id="edge26" class="edge">
<title>Node10&#45;&gt;Node26</title>
<path fill="none" stroke="midnightblue" d="M704.07,-118.77C772.34,-113.21 952.72,-97.69 1113.7,-76.1"/>
<polygon fill="midnightblue" stroke="midnightblue" points="1114.35,-79.54 1123.79,-74.73 1113.41,-72.6 1114.35,-79.54"/>
</g>
<!-- Node27 -->
<g id="node27" class="node">
<title>Node27</title>
<g id="a_node27"><a xlink:title=" ">
<polygon fill="none" stroke="#bfbfbf" points="1230,-56.5 1230,-75.5 1356,-75.5 1356,-56.5 1230,-56.5"/>
<text text-anchor="middle" x="1293" y="-63.5" font-family="Helvetica,sans-Serif" font-size="10.00">FLCoreRemoteClient.h</text>
</a>
</g>
</g>
<!-- Node10&#45;&gt;Node27 -->
<g id="edge27" class="edge">
<title>Node10&#45;&gt;Node27</title>
<path fill="none" stroke="midnightblue" d="M704.12,-119.1C783.41,-113.64 1015.75,-97.05 1219.8,-76.09"/>
<polygon fill="midnightblue" stroke="midnightblue" points="1220.21,-79.56 1229.8,-75.05 1219.49,-72.6 1220.21,-79.56"/>
</g>
<!-- Node28 -->
<g id="node28" class="node">
<title>Node28</title>
<g id="a_node28"><a xlink:title=" ">
<polygon fill="none" stroke="#bfbfbf" points="1374,-56.5 1374,-75.5 1464,-75.5 1464,-56.5 1374,-56.5"/>
<text text-anchor="middle" x="1419" y="-63.5" font-family="Helvetica,sans-Serif" font-size="10.00">FLCoreServer.h</text>
</a>
</g>
</g>
<!-- Node10&#45;&gt;Node28 -->
<g id="edge28" class="edge">
<title>Node10&#45;&gt;Node28</title>
<path fill="none" stroke="midnightblue" d="M704.31,-120.17C797.27,-117.21 1101.71,-105.85 1363.87,-76.01"/>
<polygon fill="midnightblue" stroke="midnightblue" points="1364.43,-79.47 1373.97,-74.85 1363.63,-72.52 1364.43,-79.47"/>
</g>
<!-- Node29 -->
<g id="node29" class="node">
<title>Node29</title>
<g id="a_node29"><a xlink:href="_serialization_8hpp.html" target="_top" xlink:title=" ">
<polygon fill="none" stroke="black" points="1482,-56.5 1482,-75.5 1608,-75.5 1608,-56.5 1482,-56.5"/>
<text text-anchor="middle" x="1545" y="-63.5" font-family="Helvetica,sans-Serif" font-size="10.00">Tools/Serialization.hpp</text>
</a>
</g>
</g>
<!-- Node10&#45;&gt;Node29 -->
<g id="edge29" class="edge">
<title>Node10&#45;&gt;Node29</title>
<path fill="none" stroke="midnightblue" d="M704.29,-120.1C806.29,-116.7 1164.98,-103.49 1471.83,-76.04"/>
<polygon fill="midnightblue" stroke="midnightblue" points="1472.16,-79.53 1481.81,-75.15 1471.54,-72.56 1472.16,-79.53"/>
</g>
<!-- Node12 -->
<g id="node12" class="node">
<title>Node12</title>
<g id="a_node12"><a xlink:title=" ">
<polygon fill="none" stroke="#bfbfbf" points="75,-0.5 75,-19.5 133,-19.5 133,-0.5 75,-0.5"/>
<text text-anchor="middle" x="104" y="-7.5" font-family="Helvetica,sans-Serif" font-size="10.00">memory</text>
</a>
</g>
</g>
<!-- Node11&#45;&gt;Node12 -->
<g id="edge11" class="edge">
<title>Node11&#45;&gt;Node12</title>
<path fill="none" stroke="midnightblue" d="M104,-56.08C104,-49.01 104,-38.86 104,-29.99"/>
<polygon fill="midnightblue" stroke="midnightblue" points="107.5,-29.75 104,-19.75 100.5,-29.75 107.5,-29.75"/>
</g>
<!-- Node30 -->
<g id="node30" class="node">
<title>Node30</title>
<g id="a_node30"><a xlink:title=" ">
<polygon fill="none" stroke="#bfbfbf" points="1416.5,-0.5 1416.5,-19.5 1471.5,-19.5 1471.5,-0.5 1416.5,-0.5"/>
<text text-anchor="middle" x="1444" y="-7.5" font-family="Helvetica,sans-Serif" font-size="10.00">fstream</text>
</a>
</g>
</g>
<!-- Node29&#45;&gt;Node30 -->
<g id="edge30" class="edge">
<title>Node29&#45;&gt;Node30</title>
<path fill="none" stroke="midnightblue" d="M1528.77,-56.32C1512.65,-47.7 1487.7,-34.36 1469.04,-24.39"/>
<polygon fill="midnightblue" stroke="midnightblue" points="1470.66,-21.28 1460.19,-19.65 1467.36,-27.46 1470.66,-21.28"/>
</g>
<!-- Node31 -->
<g id="node31" class="node">
<title>Node31</title>
<g id="a_node31"><a xlink:title=" ">
<polygon fill="none" stroke="#bfbfbf" points="1490,-0.5 1490,-19.5 1600,-19.5 1600,-0.5 1490,-0.5"/>
<text text-anchor="middle" x="1545" y="-7.5" font-family="Helvetica,sans-Serif" font-size="10.00">nlohmann/json.hpp</text>
</a>
</g>
</g>
<!-- Node29&#45;&gt;Node31 -->
<g id="edge31" class="edge">
<title>Node29&#45;&gt;Node31</title>
<path fill="none" stroke="midnightblue" d="M1545,-56.08C1545,-49.01 1545,-38.86 1545,-29.99"/>
<polygon fill="midnightblue" stroke="midnightblue" points="1548.5,-29.75 1545,-19.75 1541.5,-29.75 1548.5,-29.75"/>
</g>
<!-- Node32 -->
<g id="node32" class="node">
<title>Node32</title>
<g id="a_node32"><a xlink:title=" ">
<polygon fill="none" stroke="#bfbfbf" points="1618.5,-0.5 1618.5,-19.5 1671.5,-19.5 1671.5,-0.5 1618.5,-0.5"/>
<text text-anchor="middle" x="1645" y="-7.5" font-family="Helvetica,sans-Serif" font-size="10.00">refl.hpp</text>
</a>
</g>
</g>
<!-- Node29&#45;&gt;Node32 -->
<g id="edge32" class="edge">
<title>Node29&#45;&gt;Node32</title>
<path fill="none" stroke="midnightblue" d="M1561.07,-56.32C1576.96,-47.74 1601.51,-34.49 1619.96,-24.52"/>
<polygon fill="midnightblue" stroke="midnightblue" points="1621.84,-27.49 1628.97,-19.65 1618.51,-21.33 1621.84,-27.49"/>
</g>
<!-- Node34 -->
<g id="node34" class="node">
<title>Node34</title>
<g id="a_node34"><a xlink:title=" ">
<polygon fill="none" stroke="#bfbfbf" points="1626,-56.5 1626,-75.5 1708,-75.5 1708,-56.5 1626,-56.5"/>
<text text-anchor="middle" x="1667" y="-63.5" font-family="Helvetica,sans-Serif" font-size="10.00">FLCoreDefs.h</text>
</a>
</g>
</g>
<!-- Node33&#45;&gt;Node34 -->
<g id="edge34" class="edge">
<title>Node33&#45;&gt;Node34</title>
<path fill="none" stroke="midnightblue" d="M1239.03,-118.4C1305.17,-112.51 1468.57,-97.13 1615.72,-76.1"/>
<polygon fill="midnightblue" stroke="midnightblue" points="1616.44,-79.53 1625.84,-74.64 1615.44,-72.6 1616.44,-79.53"/>
</g>
</g>
</svg>
