<?xml version="1.0" encoding="UTF-8" standalone="no"?>
<!DOCTYPE svg PUBLIC "-//W3C//DTD SVG 1.1//EN"
 "http://www.w3.org/Graphics/SVG/1.1/DTD/svg11.dtd">
<!-- Generated by graphviz version 2.43.0 (0)
 -->
<!-- Title: source/flcodec.h Pages: 1 -->
<svg width="4401pt" height="308pt"
 viewBox="0.00 0.00 4401.17 308.00" xmlns="http://www.w3.org/2000/svg" xmlns:xlink="http://www.w3.org/1999/xlink">
<g id="graph0" class="graph" transform="scale(1 1) rotate(0) translate(4 304)">
<title>source/flcodec.h</title>
<!-- Node1 -->
<g id="node1" class="node">
<title>Node1</title>
<g id="a_node1"><a xlink:title=" ">
<polygon fill="#bfbfbf" stroke="black" points="2100,-280.5 2100,-299.5 2195,-299.5 2195,-280.5 2100,-280.5"/>
<text text-anchor="middle" x="2147.5" y="-287.5" font-family="Helvetica,sans-Serif" font-size="10.00">source/flcodec.h</text>
</a>
</g>
</g>
<!-- Node2 -->
<g id="node2" class="node">
<title>Node2</title>
<g id="a_node2"><a xlink:href="_hk_f_l_ini_8cpp.html" target="_top" xlink:title=" ">
<polygon fill="none" stroke="black" points="0,-168.5 0,-187.5 109,-187.5 109,-168.5 0,-168.5"/>
<text text-anchor="middle" x="54.5" y="-175.5" font-family="Helvetica,sans-Serif" font-size="10.00">source/HkFLIni.cpp</text>
</a>
</g>
</g>
<!-- Node1&#45;&gt;Node2 -->
<g id="edge1" class="edge">
<title>Node1&#45;&gt;Node2</title>
<path fill="none" stroke="midnightblue" d="M2089.68,-287.8C1848.62,-282.46 899.94,-257.9 123.5,-188 118.81,-187.58 113.94,-187.07 109.07,-186.53"/>
<polygon fill="midnightblue" stroke="midnightblue" points="2089.89,-291.31 2099.96,-288.03 2090.04,-284.31 2089.89,-291.31"/>
</g>
<!-- Node3 -->
<g id="node3" class="node">
<title>Node3</title>
<g id="a_node3"><a xlink:href="_hook_8h.html" target="_top" xlink:title=" ">
<polygon fill="none" stroke="black" points="2104.5,-224.5 2104.5,-243.5 2190.5,-243.5 2190.5,-224.5 2104.5,-224.5"/>
<text text-anchor="middle" x="2147.5" y="-231.5" font-family="Helvetica,sans-Serif" font-size="10.00">source/Hook.h</text>
</a>
</g>
</g>
<!-- Node1&#45;&gt;Node3 -->
<g id="edge2" class="edge">
<title>Node1&#45;&gt;Node3</title>
<path fill="none" stroke="midnightblue" d="M2147.5,-269.8C2147.5,-260.91 2147.5,-250.78 2147.5,-243.75"/>
<polygon fill="midnightblue" stroke="midnightblue" points="2144,-270.08 2147.5,-280.08 2151,-270.08 2144,-270.08"/>
</g>
<!-- Node40 -->
<g id="node40" class="node">
<title>Node40</title>
<g id="a_node40"><a xlink:href="flcodec_8cpp.html" target="_top" xlink:title=" ">
<polygon fill="none" stroke="black" points="2209,-224.5 2209,-243.5 2316,-243.5 2316,-224.5 2209,-224.5"/>
<text text-anchor="middle" x="2262.5" y="-231.5" font-family="Helvetica,sans-Serif" font-size="10.00">source/flcodec.cpp</text>
</a>
</g>
</g>
<!-- Node1&#45;&gt;Node40 -->
<g id="edge47" class="edge">
<title>Node1&#45;&gt;Node40</title>
<path fill="none" stroke="midnightblue" d="M2174.98,-276.1C2196.47,-266.01 2225.72,-252.27 2244.36,-243.52"/>
<polygon fill="midnightblue" stroke="midnightblue" points="2173.29,-273.02 2165.72,-280.44 2176.26,-279.36 2173.29,-273.02"/>
</g>
<!-- Node3&#45;&gt;Node2 -->
<g id="edge24" class="edge">
<title>Node3&#45;&gt;Node2</title>
<path fill="none" stroke="midnightblue" d="M2093.84,-232.59C1814.32,-230.33 522.71,-218.39 123.5,-188 118.8,-187.64 113.93,-187.18 109.06,-186.67"/>
<polygon fill="midnightblue" stroke="midnightblue" points="2094.09,-236.09 2104.11,-232.67 2094.14,-229.09 2094.09,-236.09"/>
</g>
<!-- Node4 -->
<g id="node4" class="node">
<title>Node4</title>
<g id="a_node4"><a xlink:href="_c_cmds_8h.html" target="_top" xlink:title=" ">
<polygon fill="none" stroke="black" points="477,-168.5 477,-187.5 572,-187.5 572,-168.5 477,-168.5"/>
<text text-anchor="middle" x="524.5" y="-175.5" font-family="Helvetica,sans-Serif" font-size="10.00">source/CCmds.h</text>
</a>
</g>
</g>
<!-- Node3&#45;&gt;Node4 -->
<g id="edge3" class="edge">
<title>Node3&#45;&gt;Node4</title>
<path fill="none" stroke="midnightblue" d="M2094.26,-231.4C1909.45,-225.8 1278.5,-206.5 757.5,-188 693.38,-185.72 619.34,-182.82 572.24,-180.93"/>
<polygon fill="midnightblue" stroke="midnightblue" points="2094.16,-234.89 2104.26,-231.7 2094.37,-227.9 2094.16,-234.89"/>
</g>
<!-- Node8 -->
<g id="node8" class="node">
<title>Node8</title>
<g id="a_node8"><a xlink:href="_f_l_hook_8cpp.html" target="_top" xlink:title=" ">
<polygon fill="none" stroke="black" points="219,-56.5 219,-75.5 328,-75.5 328,-56.5 219,-56.5"/>
<text text-anchor="middle" x="273.5" y="-63.5" font-family="Helvetica,sans-Serif" font-size="10.00">source/FLHook.cpp</text>
</a>
</g>
</g>
<!-- Node3&#45;&gt;Node8 -->
<g id="edge18" class="edge">
<title>Node3&#45;&gt;Node8</title>
<path fill="none" stroke="midnightblue" d="M2093.98,-232.66C1844.51,-230.89 794.05,-221.58 467.5,-188 327.79,-173.63 246.58,-239.75 156.5,-132 132.65,-103.48 184.32,-85.22 226.42,-75.53"/>
<polygon fill="midnightblue" stroke="midnightblue" points="2094.21,-236.16 2104.23,-232.73 2094.26,-229.16 2094.21,-236.16"/>
</g>
<!-- Node10 -->
<g id="node10" class="node">
<title>Node10</title>
<g id="a_node10"><a xlink:href="_c_in_game_8cpp.html" target="_top" xlink:title=" ">
<polygon fill="none" stroke="black" points="580,-56.5 580,-75.5 697,-75.5 697,-56.5 580,-56.5"/>
<text text-anchor="middle" x="638.5" y="-63.5" font-family="Helvetica,sans-Serif" font-size="10.00">source/CInGame.cpp</text>
</a>
</g>
</g>
<!-- Node3&#45;&gt;Node10 -->
<g id="edge16" class="edge">
<title>Node3&#45;&gt;Node10</title>
<path fill="none" stroke="midnightblue" d="M2093.86,-232.41C1859.51,-229.64 934.74,-216.93 880.5,-188 843.71,-168.38 860.14,-135.21 825.5,-112 787.35,-86.45 736.24,-75.36 697.09,-70.57"/>
<polygon fill="midnightblue" stroke="midnightblue" points="2094.13,-235.91 2104.17,-232.53 2094.21,-228.91 2094.13,-235.91"/>
</g>
<!-- Node11 -->
<g id="node11" class="node">
<title>Node11</title>
<g id="a_node11"><a xlink:href="_hk_i_server_impl_8inl.html" target="_top" xlink:title=" ">
<polygon fill="none" stroke="black" points="755,-56.5 755,-75.5 892,-75.5 892,-56.5 755,-56.5"/>
<text text-anchor="middle" x="823.5" y="-63.5" font-family="Helvetica,sans-Serif" font-size="10.00">source/HkIServerImpl.inl</text>
</a>
</g>
</g>
<!-- Node3&#45;&gt;Node11 -->
<g id="edge39" class="edge">
<title>Node3&#45;&gt;Node11</title>
<path fill="none" stroke="midnightblue" d="M2094.15,-232.45C1863.18,-229.89 958.64,-217.98 906.5,-188 871.87,-168.08 881.46,-144.7 858.5,-112 849.4,-99.04 838,-84.7 830.74,-75.77"/>
<polygon fill="midnightblue" stroke="midnightblue" points="2094.28,-235.95 2104.32,-232.56 2094.36,-228.95 2094.28,-235.95"/>
</g>
<!-- Node12 -->
<g id="node12" class="node">
<title>Node12</title>
<g id="a_node12"><a xlink:href="_hk_client_server_interface_8cpp.html" target="_top" xlink:title=" ">
<polygon fill="none" stroke="black" points="826,-0.5 826,-19.5 1015,-19.5 1015,-0.5 826,-0.5"/>
<text text-anchor="middle" x="920.5" y="-7.5" font-family="Helvetica,sans-Serif" font-size="10.00">source/HkClientServerInterface.cpp</text>
</a>
</g>
</g>
<!-- Node3&#45;&gt;Node12 -->
<g id="edge21" class="edge">
<title>Node3&#45;&gt;Node12</title>
<path fill="none" stroke="midnightblue" d="M2094.48,-232.93C1867.02,-232.39 983.35,-227.74 940.5,-188 891.75,-142.79 910.78,-48.67 918.12,-19.69"/>
<polygon fill="midnightblue" stroke="midnightblue" points="2094.49,-236.43 2104.5,-232.95 2094.51,-229.43 2094.49,-236.43"/>
</g>
<!-- Node15 -->
<g id="node15" class="node">
<title>Node15</title>
<g id="a_node15"><a xlink:href="_hk_plugin_manager_8cpp.html" target="_top" xlink:title=" ">
<polygon fill="none" stroke="black" points="658.5,-112.5 658.5,-131.5 816.5,-131.5 816.5,-112.5 658.5,-112.5"/>
<text text-anchor="middle" x="737.5" y="-119.5" font-family="Helvetica,sans-Serif" font-size="10.00">source/HkPluginManager.cpp</text>
</a>
</g>
</g>
<!-- Node3&#45;&gt;Node15 -->
<g id="edge41" class="edge">
<title>Node3&#45;&gt;Node15</title>
<path fill="none" stroke="midnightblue" d="M2094.13,-232.96C1862.63,-232.56 951.59,-228.41 830.5,-188 795.37,-176.28 761.68,-146.72 746.26,-131.84"/>
<polygon fill="midnightblue" stroke="midnightblue" points="2094.31,-236.46 2104.31,-232.98 2094.32,-229.46 2094.31,-236.46"/>
</g>
<!-- Node16 -->
<g id="node16" class="node">
<title>Node16</title>
<g id="a_node16"><a xlink:href="_exceptions_8cpp.html" target="_top" xlink:title=" ">
<polygon fill="none" stroke="black" points="949,-168.5 949,-187.5 1074,-187.5 1074,-168.5 949,-168.5"/>
<text text-anchor="middle" x="1011.5" y="-175.5" font-family="Helvetica,sans-Serif" font-size="10.00">source/Exceptions.cpp</text>
</a>
</g>
</g>
<!-- Node3&#45;&gt;Node16 -->
<g id="edge17" class="edge">
<title>Node3&#45;&gt;Node16</title>
<path fill="none" stroke="midnightblue" d="M2094.1,-232.29C1938.2,-229.89 1470.28,-220.3 1083.5,-188 1080.49,-187.75 1077.41,-187.46 1074.3,-187.16"/>
<polygon fill="midnightblue" stroke="midnightblue" points="2094.29,-235.79 2104.35,-232.44 2094.4,-228.79 2094.29,-235.79"/>
</g>
<!-- Node17 -->
<g id="node17" class="node">
<title>Node17</title>
<g id="a_node17"><a xlink:href="_hk_cb_other_8cpp.html" target="_top" xlink:title=" ">
<polygon fill="none" stroke="black" points="1092,-168.5 1092,-187.5 1217,-187.5 1217,-168.5 1092,-168.5"/>
<text text-anchor="middle" x="1154.5" y="-175.5" font-family="Helvetica,sans-Serif" font-size="10.00">source/HkCbOther.cpp</text>
</a>
</g>
</g>
<!-- Node3&#45;&gt;Node17 -->
<g id="edge19" class="edge">
<title>Node3&#45;&gt;Node17</title>
<path fill="none" stroke="midnightblue" d="M2094.12,-231.8C1952.5,-228.32 1555.58,-216.57 1226.5,-188 1223.49,-187.74 1220.41,-187.45 1217.3,-187.13"/>
<polygon fill="midnightblue" stroke="midnightblue" points="2094.18,-235.3 2104.26,-232.05 2094.35,-228.31 2094.18,-235.3"/>
</g>
<!-- Node18 -->
<g id="node18" class="node">
<title>Node18</title>
<g id="a_node18"><a xlink:href="_hk_character_ini_8cpp.html" target="_top" xlink:title=" ">
<polygon fill="none" stroke="black" points="1235,-168.5 1235,-187.5 1380,-187.5 1380,-168.5 1235,-168.5"/>
<text text-anchor="middle" x="1307.5" y="-175.5" font-family="Helvetica,sans-Serif" font-size="10.00">source/HkCharacterIni.cpp</text>
</a>
</g>
</g>
<!-- Node3&#45;&gt;Node18 -->
<g id="edge20" class="edge">
<title>Node3&#45;&gt;Node18</title>
<path fill="none" stroke="midnightblue" d="M2093.94,-230.74C1969.91,-225.31 1653.4,-210.3 1389.5,-188 1386.5,-187.75 1383.45,-187.47 1380.36,-187.19"/>
<polygon fill="midnightblue" stroke="midnightblue" points="2094.14,-234.25 2104.29,-231.19 2094.45,-227.26 2094.14,-234.25"/>
</g>
<!-- Node19 -->
<g id="node19" class="node">
<title>Node19</title>
<g id="a_node19"><a xlink:href="_hk_data_base_market_8cpp.html" target="_top" xlink:title=" ">
<polygon fill="none" stroke="black" points="1398,-168.5 1398,-187.5 1565,-187.5 1565,-168.5 1398,-168.5"/>
<text text-anchor="middle" x="1481.5" y="-175.5" font-family="Helvetica,sans-Serif" font-size="10.00">source/HkDataBaseMarket.cpp</text>
</a>
</g>
</g>
<!-- Node3&#45;&gt;Node19 -->
<g id="edge22" class="edge">
<title>Node3&#45;&gt;Node19</title>
<path fill="none" stroke="midnightblue" d="M2094.38,-229.15C1993.17,-221.75 1765.75,-204.76 1574.5,-188 1571.43,-187.73 1568.3,-187.45 1565.14,-187.17"/>
<polygon fill="midnightblue" stroke="midnightblue" points="2094.12,-232.64 2104.35,-229.88 2094.63,-225.66 2094.12,-232.64"/>
</g>
<!-- Node20 -->
<g id="node20" class="node">
<title>Node20</title>
<g id="a_node20"><a xlink:href="_hk_error_8cpp.html" target="_top" xlink:title=" ">
<polygon fill="none" stroke="black" points="1583.5,-168.5 1583.5,-187.5 1691.5,-187.5 1691.5,-168.5 1583.5,-168.5"/>
<text text-anchor="middle" x="1637.5" y="-175.5" font-family="Helvetica,sans-Serif" font-size="10.00">source/HkError.cpp</text>
</a>
</g>
</g>
<!-- Node3&#45;&gt;Node20 -->
<g id="edge23" class="edge">
<title>Node3&#45;&gt;Node20</title>
<path fill="none" stroke="midnightblue" d="M2094.24,-228.36C2010.37,-220.89 1842.46,-205.28 1700.5,-188 1697.65,-187.65 1694.73,-187.28 1691.78,-186.9"/>
<polygon fill="midnightblue" stroke="midnightblue" points="2094.01,-231.85 2104.28,-229.25 2094.63,-224.88 2094.01,-231.85"/>
</g>
<!-- Node21 -->
<g id="node21" class="node">
<title>Node21</title>
<g id="a_node21"><a xlink:href="_hk_func_cache_8cpp.html" target="_top" xlink:title=" ">
<polygon fill="none" stroke="black" points="1709.5,-168.5 1709.5,-187.5 1847.5,-187.5 1847.5,-168.5 1709.5,-168.5"/>
<text text-anchor="middle" x="1778.5" y="-175.5" font-family="Helvetica,sans-Serif" font-size="10.00">source/HkFuncCache.cpp</text>
</a>
</g>
</g>
<!-- Node3&#45;&gt;Node21 -->
<g id="edge25" class="edge">
<title>Node3&#45;&gt;Node21</title>
<path fill="none" stroke="midnightblue" d="M2094.32,-225.22C2025.91,-215.21 1907.49,-197.88 1836.72,-187.52"/>
<polygon fill="midnightblue" stroke="midnightblue" points="2094.05,-228.71 2104.45,-226.7 2095.06,-221.79 2094.05,-228.71"/>
</g>
<!-- Node22 -->
<g id="node22" class="node">
<title>Node22</title>
<g id="a_node22"><a xlink:href="_hk_func_log_8cpp.html" target="_top" xlink:title=" ">
<polygon fill="none" stroke="black" points="1866,-168.5 1866,-187.5 1991,-187.5 1991,-168.5 1866,-168.5"/>
<text text-anchor="middle" x="1928.5" y="-175.5" font-family="Helvetica,sans-Serif" font-size="10.00">source/HkFuncLog.cpp</text>
</a>
</g>
</g>
<!-- Node3&#45;&gt;Node22 -->
<g id="edge26" class="edge">
<title>Node3&#45;&gt;Node22</title>
<path fill="none" stroke="midnightblue" d="M2102.99,-222.02C2061.62,-211.82 2000.86,-196.84 1963.04,-187.52"/>
<polygon fill="midnightblue" stroke="midnightblue" points="2102.25,-225.45 2112.8,-224.44 2103.93,-218.65 2102.25,-225.45"/>
</g>
<!-- Node23 -->
<g id="node23" class="node">
<title>Node23</title>
<g id="a_node23"><a xlink:href="_hk_func_msg_8cpp.html" target="_top" xlink:title=" ">
<polygon fill="none" stroke="black" points="2009.5,-168.5 2009.5,-187.5 2137.5,-187.5 2137.5,-168.5 2009.5,-168.5"/>
<text text-anchor="middle" x="2073.5" y="-175.5" font-family="Helvetica,sans-Serif" font-size="10.00">source/HkFuncMsg.cpp</text>
</a>
</g>
</g>
<!-- Node3&#45;&gt;Node23 -->
<g id="edge27" class="edge">
<title>Node3&#45;&gt;Node23</title>
<path fill="none" stroke="midnightblue" d="M2127.47,-218.38C2114.09,-208.62 2096.94,-196.11 2085.61,-187.83"/>
<polygon fill="midnightblue" stroke="midnightblue" points="2125.47,-221.26 2135.61,-224.32 2129.6,-215.6 2125.47,-221.26"/>
</g>
<!-- Node24 -->
<g id="node24" class="node">
<title>Node24</title>
<g id="a_node24"><a xlink:href="_hk_func_other_8cpp.html" target="_top" xlink:title=" ">
<polygon fill="none" stroke="black" points="2155.5,-168.5 2155.5,-187.5 2289.5,-187.5 2289.5,-168.5 2155.5,-168.5"/>
<text text-anchor="middle" x="2222.5" y="-175.5" font-family="Helvetica,sans-Serif" font-size="10.00">source/HkFuncOther.cpp</text>
</a>
</g>
</g>
<!-- Node3&#45;&gt;Node24 -->
<g id="edge28" class="edge">
<title>Node3&#45;&gt;Node24</title>
<path fill="none" stroke="midnightblue" d="M2167.81,-218.38C2181.36,-208.62 2198.74,-196.11 2210.23,-187.83"/>
<polygon fill="midnightblue" stroke="midnightblue" points="2165.62,-215.64 2159.55,-224.32 2169.71,-221.32 2165.62,-215.64"/>
</g>
<!-- Node25 -->
<g id="node25" class="node">
<title>Node25</title>
<g id="a_node25"><a xlink:href="_hk_func_players_8cpp.html" target="_top" xlink:title=" ">
<polygon fill="none" stroke="black" points="2307.5,-168.5 2307.5,-187.5 2451.5,-187.5 2451.5,-168.5 2307.5,-168.5"/>
<text text-anchor="middle" x="2379.5" y="-175.5" font-family="Helvetica,sans-Serif" font-size="10.00">source/HkFuncPlayers.cpp</text>
</a>
</g>
</g>
<!-- Node3&#45;&gt;Node25 -->
<g id="edge29" class="edge">
<title>Node3&#45;&gt;Node25</title>
<path fill="none" stroke="midnightblue" d="M2194.1,-222.15C2237.94,-211.95 2302.68,-196.88 2342.91,-187.52"/>
<polygon fill="midnightblue" stroke="midnightblue" points="2193.21,-218.77 2184.26,-224.44 2194.79,-225.59 2193.21,-218.77"/>
</g>
<!-- Node26 -->
<g id="node26" class="node">
<title>Node26</title>
<g id="a_node26"><a xlink:href="_hk_func_tools_8cpp.html" target="_top" xlink:title=" ">
<polygon fill="none" stroke="black" points="2470,-168.5 2470,-187.5 2603,-187.5 2603,-168.5 2470,-168.5"/>
<text text-anchor="middle" x="2536.5" y="-175.5" font-family="Helvetica,sans-Serif" font-size="10.00">source/HkFuncTools.cpp</text>
</a>
</g>
</g>
<!-- Node3&#45;&gt;Node26 -->
<g id="edge30" class="edge">
<title>Node3&#45;&gt;Node26</title>
<path fill="none" stroke="midnightblue" d="M2200.2,-224.05C2200.3,-224.03 2200.4,-224.02 2200.5,-224 2293.75,-209.84 2401.91,-195.78 2469.78,-187.24"/>
<polygon fill="midnightblue" stroke="midnightblue" points="2199.92,-220.55 2190.58,-225.55 2201,-227.46 2199.92,-220.55"/>
</g>
<!-- Node27 -->
<g id="node27" class="node">
<title>Node27</title>
<g id="a_node27"><a xlink:href="_hk_help_8cpp.html" target="_top" xlink:title=" ">
<polygon fill="none" stroke="black" points="2621.5,-168.5 2621.5,-187.5 2729.5,-187.5 2729.5,-168.5 2621.5,-168.5"/>
<text text-anchor="middle" x="2675.5" y="-175.5" font-family="Helvetica,sans-Serif" font-size="10.00">source/HkHelp.cpp</text>
</a>
</g>
</g>
<!-- Node3&#45;&gt;Node27 -->
<g id="edge31" class="edge">
<title>Node3&#45;&gt;Node27</title>
<path fill="none" stroke="midnightblue" d="M2200.2,-224.04C2200.3,-224.03 2200.4,-224.01 2200.5,-224 2382.81,-200.59 2429.9,-209.01 2612.5,-188 2615.35,-187.67 2618.28,-187.32 2621.23,-186.95"/>
<polygon fill="midnightblue" stroke="midnightblue" points="2199.97,-220.54 2190.55,-225.39 2200.94,-227.47 2199.97,-220.54"/>
</g>
<!-- Node28 -->
<g id="node28" class="node">
<title>Node28</title>
<g id="a_node28"><a xlink:href="_hk_i_chat_server_8cpp.html" target="_top" xlink:title=" ">
<polygon fill="none" stroke="black" points="2747.5,-168.5 2747.5,-187.5 2889.5,-187.5 2889.5,-168.5 2747.5,-168.5"/>
<text text-anchor="middle" x="2818.5" y="-175.5" font-family="Helvetica,sans-Serif" font-size="10.00">source/HkIChatServer.cpp</text>
</a>
</g>
</g>
<!-- Node3&#45;&gt;Node28 -->
<g id="edge32" class="edge">
<title>Node3&#45;&gt;Node28</title>
<path fill="none" stroke="midnightblue" d="M2200.2,-224.04C2200.3,-224.02 2200.4,-224.01 2200.5,-224 2438.49,-195.9 2499.81,-209.4 2738.5,-188 2741.42,-187.74 2744.41,-187.46 2747.42,-187.17"/>
<polygon fill="midnightblue" stroke="midnightblue" points="2200,-220.53 2190.55,-225.31 2200.92,-227.47 2200,-220.53"/>
</g>
<!-- Node29 -->
<g id="node29" class="node">
<title>Node29</title>
<g id="a_node29"><a xlink:href="_hk_i_client_impl_8inl.html" target="_top" xlink:title=" ">
<polygon fill="none" stroke="black" points="2644.5,-112.5 2644.5,-131.5 2778.5,-131.5 2778.5,-112.5 2644.5,-112.5"/>
<text text-anchor="middle" x="2711.5" y="-119.5" font-family="Helvetica,sans-Serif" font-size="10.00">source/HkIClientImpl.inl</text>
</a>
</g>
</g>
<!-- Node3&#45;&gt;Node29 -->
<g id="edge33" class="edge">
<title>Node3&#45;&gt;Node29</title>
<path fill="none" stroke="midnightblue" d="M2200.19,-224.03C2200.3,-224.02 2200.4,-224.01 2200.5,-224 2261.03,-218.4 4345.87,-231.33 4388.5,-188 4394.73,-181.66 4394.7,-174.37 4388.5,-168 4359.95,-138.67 3087.55,-126.15 2778.57,-123.53"/>
<polygon fill="midnightblue" stroke="midnightblue" points="2200.07,-220.52 2190.53,-225.13 2200.86,-227.48 2200.07,-220.52"/>
</g>
<!-- Node30 -->
<g id="node30" class="node">
<title>Node30</title>
<g id="a_node30"><a xlink:href="_hk_i_engine_8cpp.html" target="_top" xlink:title=" ">
<polygon fill="none" stroke="black" points="2907.5,-168.5 2907.5,-187.5 3029.5,-187.5 3029.5,-168.5 2907.5,-168.5"/>
<text text-anchor="middle" x="2968.5" y="-175.5" font-family="Helvetica,sans-Serif" font-size="10.00">source/HkIEngine.cpp</text>
</a>
</g>
</g>
<!-- Node3&#45;&gt;Node30 -->
<g id="edge35" class="edge">
<title>Node3&#45;&gt;Node30</title>
<path fill="none" stroke="midnightblue" d="M2200.2,-224.03C2200.3,-224.02 2200.4,-224.01 2200.5,-224 2509.26,-189.94 2589.11,-215.83 2898.5,-188 2901.43,-187.74 2904.42,-187.44 2907.45,-187.13"/>
<polygon fill="midnightblue" stroke="midnightblue" points="2200.02,-220.53 2190.54,-225.26 2200.9,-227.47 2200.02,-220.53"/>
</g>
<!-- Node31 -->
<g id="node31" class="node">
<title>Node31</title>
<g id="a_node31"><a xlink:href="_hk_i_engine_damage_8cpp.html" target="_top" xlink:title=" ">
<polygon fill="none" stroke="black" points="3048,-168.5 3048,-187.5 3211,-187.5 3211,-168.5 3048,-168.5"/>
<text text-anchor="middle" x="3129.5" y="-175.5" font-family="Helvetica,sans-Serif" font-size="10.00">source/HkIEngineDamage.cpp</text>
</a>
</g>
</g>
<!-- Node3&#45;&gt;Node31 -->
<g id="edge36" class="edge">
<title>Node3&#45;&gt;Node31</title>
<path fill="none" stroke="midnightblue" d="M2200.2,-224.03C2200.3,-224.02 2200.4,-224.01 2200.5,-224 2571.21,-184.72 2666.64,-214.36 3038.5,-188 3041.51,-187.79 3044.57,-187.56 3047.67,-187.31"/>
<polygon fill="midnightblue" stroke="midnightblue" points="2200.03,-220.53 2190.54,-225.23 2200.89,-227.47 2200.03,-220.53"/>
</g>
<!-- Node32 -->
<g id="node32" class="node">
<title>Node32</title>
<g id="a_node32"><a xlink:href="_hk_i_engine_death_8cpp.html" target="_top" xlink:title=" ">
<polygon fill="none" stroke="black" points="3229,-168.5 3229,-187.5 3380,-187.5 3380,-168.5 3229,-168.5"/>
<text text-anchor="middle" x="3304.5" y="-175.5" font-family="Helvetica,sans-Serif" font-size="10.00">source/HkIEngineDeath.cpp</text>
</a>
</g>
</g>
<!-- Node3&#45;&gt;Node32 -->
<g id="edge37" class="edge">
<title>Node3&#45;&gt;Node32</title>
<path fill="none" stroke="midnightblue" d="M2200.2,-224.03C2200.3,-224.02 2200.4,-224.01 2200.5,-224 2651.77,-177.93 2768.03,-220.18 3220.5,-188 3223.28,-187.8 3226.11,-187.58 3228.97,-187.35"/>
<polygon fill="midnightblue" stroke="midnightblue" points="2200.04,-220.52 2190.53,-225.2 2200.88,-227.47 2200.04,-220.52"/>
</g>
<!-- Node33 -->
<g id="node33" class="node">
<title>Node33</title>
<g id="a_node33"><a xlink:href="_hk_i_engine_disconnect_8cpp.html" target="_top" xlink:title=" ">
<polygon fill="none" stroke="black" points="3398.5,-168.5 3398.5,-187.5 3574.5,-187.5 3574.5,-168.5 3398.5,-168.5"/>
<text text-anchor="middle" x="3486.5" y="-175.5" font-family="Helvetica,sans-Serif" font-size="10.00">source/HkIEngineDisconnect.cpp</text>
</a>
</g>
</g>
<!-- Node3&#45;&gt;Node33 -->
<g id="edge38" class="edge">
<title>Node3&#45;&gt;Node33</title>
<path fill="none" stroke="midnightblue" d="M2200.19,-224.03C2200.3,-224.02 2200.4,-224.01 2200.5,-224 2726.59,-171.62 2861.81,-220.44 3389.5,-188 3392.45,-187.82 3395.46,-187.62 3398.49,-187.41"/>
<polygon fill="midnightblue" stroke="midnightblue" points="2200.05,-220.52 2190.53,-225.18 2200.88,-227.47 2200.05,-220.52"/>
</g>
<!-- Node34 -->
<g id="node34" class="node">
<title>Node34</title>
<g id="a_node34"><a xlink:href="_hk_init_8cpp.html" target="_top" xlink:title=" ">
<polygon fill="none" stroke="black" points="3593,-168.5 3593,-187.5 3694,-187.5 3694,-168.5 3593,-168.5"/>
<text text-anchor="middle" x="3643.5" y="-175.5" font-family="Helvetica,sans-Serif" font-size="10.00">source/HkInit.cpp</text>
</a>
</g>
</g>
<!-- Node3&#45;&gt;Node34 -->
<g id="edge40" class="edge">
<title>Node3&#45;&gt;Node34</title>
<path fill="none" stroke="midnightblue" d="M2200.19,-224.03C2200.3,-224.02 2200.4,-224.01 2200.5,-224 2812.48,-164.38 2970.98,-241.71 3583.5,-188 3586.54,-187.73 3589.67,-187.41 3592.81,-187.05"/>
<polygon fill="midnightblue" stroke="midnightblue" points="2200.05,-220.52 2190.53,-225.17 2200.87,-227.47 2200.05,-220.52"/>
</g>
<!-- Node35 -->
<g id="node35" class="node">
<title>Node35</title>
<g id="a_node35"><a xlink:href="_hk_timers_8cpp.html" target="_top" xlink:title=" ">
<polygon fill="none" stroke="black" points="3712,-168.5 3712,-187.5 3831,-187.5 3831,-168.5 3712,-168.5"/>
<text text-anchor="middle" x="3771.5" y="-175.5" font-family="Helvetica,sans-Serif" font-size="10.00">source/HkTimers.cpp</text>
</a>
</g>
</g>
<!-- Node3&#45;&gt;Node35 -->
<g id="edge42" class="edge">
<title>Node3&#45;&gt;Node35</title>
<path fill="none" stroke="midnightblue" d="M2200.19,-224.03C2200.3,-224.02 2200.4,-224.01 2200.5,-224 2865.61,-159.9 3037.33,-239.91 3703.5,-188 3706.23,-187.79 3709.02,-187.54 3711.83,-187.27"/>
<polygon fill="midnightblue" stroke="midnightblue" points="2200.06,-220.52 2190.53,-225.16 2200.87,-227.47 2200.06,-220.52"/>
</g>
<!-- Node36 -->
<g id="node36" class="node">
<title>Node36</title>
<g id="a_node36"><a xlink:href="_hk_user_cmd_8cpp.html" target="_top" xlink:title=" ">
<polygon fill="none" stroke="black" points="3849,-168.5 3849,-187.5 3980,-187.5 3980,-168.5 3849,-168.5"/>
<text text-anchor="middle" x="3914.5" y="-175.5" font-family="Helvetica,sans-Serif" font-size="10.00">source/HkUserCmd.cpp</text>
</a>
</g>
</g>
<!-- Node3&#45;&gt;Node36 -->
<g id="edge43" class="edge">
<title>Node3&#45;&gt;Node36</title>
<path fill="none" stroke="midnightblue" d="M2200.19,-224.03C2200.3,-224.02 2200.4,-224.01 2200.5,-224 2926.27,-154.79 3113.3,-240.07 3840.5,-188 3843.21,-187.81 3845.97,-187.58 3848.77,-187.34"/>
<polygon fill="midnightblue" stroke="midnightblue" points="2200.06,-220.52 2190.53,-225.15 2200.87,-227.47 2200.06,-220.52"/>
</g>
<!-- Node37 -->
<g id="node37" class="node">
<title>Node37</title>
<g id="a_node37"><a xlink:href="_settings_8cpp.html" target="_top" xlink:title=" ">
<polygon fill="none" stroke="black" points="3998.5,-168.5 3998.5,-187.5 4110.5,-187.5 4110.5,-168.5 3998.5,-168.5"/>
<text text-anchor="middle" x="4054.5" y="-175.5" font-family="Helvetica,sans-Serif" font-size="10.00">source/Settings.cpp</text>
</a>
</g>
</g>
<!-- Node3&#45;&gt;Node37 -->
<g id="edge44" class="edge">
<title>Node3&#45;&gt;Node37</title>
<path fill="none" stroke="midnightblue" d="M2200.19,-224.03C2200.3,-224.02 2200.4,-224.01 2200.5,-224 2992.25,-149.23 3196.7,-250.65 3989.5,-188 3992.34,-187.78 3995.24,-187.51 3998.17,-187.21"/>
<polygon fill="midnightblue" stroke="midnightblue" points="2200.06,-220.52 2190.53,-225.15 2200.86,-227.48 2200.06,-220.52"/>
</g>
<!-- Node38 -->
<g id="node38" class="node">
<title>Node38</title>
<g id="a_node38"><a xlink:href="_tools_8cpp.html" target="_top" xlink:title=" ">
<polygon fill="none" stroke="black" points="4129,-168.5 4129,-187.5 4226,-187.5 4226,-168.5 4129,-168.5"/>
<text text-anchor="middle" x="4177.5" y="-175.5" font-family="Helvetica,sans-Serif" font-size="10.00">source/Tools.cpp</text>
</a>
</g>
</g>
<!-- Node3&#45;&gt;Node38 -->
<g id="edge45" class="edge">
<title>Node3&#45;&gt;Node38</title>
<path fill="none" stroke="midnightblue" d="M2200.19,-224.03C2200.3,-224.02 2200.4,-224.01 2200.5,-224 3049.81,-144.37 3269.64,-261.57 4119.5,-188 4122.55,-187.74 4125.67,-187.41 4128.82,-187.04"/>
<polygon fill="midnightblue" stroke="midnightblue" points="2200.06,-220.52 2190.53,-225.14 2200.86,-227.48 2200.06,-220.52"/>
</g>
<!-- Node39 -->
<g id="node39" class="node">
<title>Node39</title>
<g id="a_node39"><a xlink:href="_zone_utilities_8cpp.html" target="_top" xlink:title=" ">
<polygon fill="none" stroke="black" points="4244,-168.5 4244,-187.5 4379,-187.5 4379,-168.5 4244,-168.5"/>
<text text-anchor="middle" x="4311.5" y="-175.5" font-family="Helvetica,sans-Serif" font-size="10.00">source/ZoneUtilities.cpp</text>
</a>
</g>
</g>
<!-- Node3&#45;&gt;Node39 -->
<g id="edge46" class="edge">
<title>Node3&#45;&gt;Node39</title>
<path fill="none" stroke="midnightblue" d="M2200.19,-224.03C2200.3,-224.02 2200.4,-224.01 2200.5,-224 3101.18,-140.04 3332.99,-249.27 4235.5,-188 4238.28,-187.81 4241.12,-187.59 4243.99,-187.35"/>
<polygon fill="midnightblue" stroke="midnightblue" points="2200.06,-220.52 2190.53,-225.14 2200.86,-227.48 2200.06,-220.52"/>
</g>
<!-- Node5 -->
<g id="node5" class="node">
<title>Node5</title>
<g id="a_node5"><a xlink:href="_c_cmds_8cpp.html" target="_top" xlink:title=" ">
<polygon fill="none" stroke="black" points="284,-112.5 284,-131.5 391,-131.5 391,-112.5 284,-112.5"/>
<text text-anchor="middle" x="337.5" y="-119.5" font-family="Helvetica,sans-Serif" font-size="10.00">source/CCmds.cpp</text>
</a>
</g>
</g>
<!-- Node4&#45;&gt;Node5 -->
<g id="edge4" class="edge">
<title>Node4&#45;&gt;Node5</title>
<path fill="none" stroke="midnightblue" d="M484.91,-165.57C449.63,-155.38 398.81,-140.7 366.99,-131.52"/>
<polygon fill="midnightblue" stroke="midnightblue" points="484.29,-169.03 494.87,-168.44 486.23,-162.31 484.29,-169.03"/>
</g>
<!-- Node6 -->
<g id="node6" class="node">
<title>Node6</title>
<g id="a_node6"><a xlink:href="_c_console_8h.html" target="_top" xlink:title=" ">
<polygon fill="none" stroke="black" points="409,-112.5 409,-131.5 516,-131.5 516,-112.5 409,-112.5"/>
<text text-anchor="middle" x="462.5" y="-119.5" font-family="Helvetica,sans-Serif" font-size="10.00">source/CConsole.h</text>
</a>
</g>
</g>
<!-- Node4&#45;&gt;Node6 -->
<g id="edge5" class="edge">
<title>Node4&#45;&gt;Node6</title>
<path fill="none" stroke="midnightblue" d="M506.75,-161.54C495.69,-151.91 481.87,-139.87 472.64,-131.83"/>
<polygon fill="midnightblue" stroke="midnightblue" points="504.7,-164.4 514.54,-168.32 509.3,-159.12 504.7,-164.4"/>
</g>
<!-- Node9 -->
<g id="node9" class="node">
<title>Node9</title>
<g id="a_node9"><a xlink:href="_c_in_game_8h.html" target="_top" xlink:title=" ">
<polygon fill="none" stroke="black" points="534.5,-112.5 534.5,-131.5 640.5,-131.5 640.5,-112.5 534.5,-112.5"/>
<text text-anchor="middle" x="587.5" y="-119.5" font-family="Helvetica,sans-Serif" font-size="10.00">source/CInGame.h</text>
</a>
</g>
</g>
<!-- Node4&#45;&gt;Node9 -->
<g id="edge8" class="edge">
<title>Node4&#45;&gt;Node9</title>
<path fill="none" stroke="midnightblue" d="M542.54,-161.54C553.77,-151.91 567.82,-139.87 577.19,-131.83"/>
<polygon fill="midnightblue" stroke="midnightblue" points="539.94,-159.16 534.62,-168.32 544.49,-164.47 539.94,-159.16"/>
</g>
<!-- Node13 -->
<g id="node13" class="node">
<title>Node13</title>
<g id="a_node13"><a xlink:href="_c_socket_8h.html" target="_top" xlink:title=" ">
<polygon fill="none" stroke="black" points="165.5,-112.5 165.5,-131.5 265.5,-131.5 265.5,-112.5 165.5,-112.5"/>
<text text-anchor="middle" x="215.5" y="-119.5" font-family="Helvetica,sans-Serif" font-size="10.00">source/CSocket.h</text>
</a>
</g>
</g>
<!-- Node4&#45;&gt;Node13 -->
<g id="edge12" class="edge">
<title>Node4&#45;&gt;Node13</title>
<path fill="none" stroke="midnightblue" d="M466.72,-166.9C408.33,-156.7 319.09,-141.1 264.18,-131.51"/>
<polygon fill="midnightblue" stroke="midnightblue" points="466.44,-170.41 476.9,-168.68 467.65,-163.51 466.44,-170.41"/>
</g>
<!-- Node4&#45;&gt;Node15 -->
<g id="edge15" class="edge">
<title>Node4&#45;&gt;Node15</title>
<path fill="none" stroke="midnightblue" d="M568.05,-165.96C608.28,-155.76 667.2,-140.82 703.91,-131.52"/>
<polygon fill="midnightblue" stroke="midnightblue" points="567.08,-162.59 558.25,-168.44 568.8,-169.38 567.08,-162.59"/>
</g>
<!-- Node7 -->
<g id="node7" class="node">
<title>Node7</title>
<g id="a_node7"><a xlink:href="_c_console_8cpp.html" target="_top" xlink:title=" ">
<polygon fill="none" stroke="black" points="403.5,-56.5 403.5,-75.5 521.5,-75.5 521.5,-56.5 403.5,-56.5"/>
<text text-anchor="middle" x="462.5" y="-63.5" font-family="Helvetica,sans-Serif" font-size="10.00">source/CConsole.cpp</text>
</a>
</g>
</g>
<!-- Node6&#45;&gt;Node7 -->
<g id="edge6" class="edge">
<title>Node6&#45;&gt;Node7</title>
<path fill="none" stroke="midnightblue" d="M462.5,-101.8C462.5,-92.91 462.5,-82.78 462.5,-75.75"/>
<polygon fill="midnightblue" stroke="midnightblue" points="459,-102.08 462.5,-112.08 466,-102.08 459,-102.08"/>
</g>
<!-- Node6&#45;&gt;Node8 -->
<g id="edge7" class="edge">
<title>Node6&#45;&gt;Node8</title>
<path fill="none" stroke="midnightblue" d="M422.49,-109.57C386.83,-99.38 335.46,-84.7 303.31,-75.52"/>
<polygon fill="midnightblue" stroke="midnightblue" points="421.98,-113.06 432.55,-112.44 423.9,-106.33 421.98,-113.06"/>
</g>
<!-- Node9&#45;&gt;Node10 -->
<g id="edge9" class="edge">
<title>Node9&#45;&gt;Node10</title>
<path fill="none" stroke="midnightblue" d="M602.88,-104.72C611.87,-95.2 622.86,-83.56 630.24,-75.75"/>
<polygon fill="midnightblue" stroke="midnightblue" points="600.24,-102.41 595.92,-112.08 605.33,-107.22 600.24,-102.41"/>
</g>
<!-- Node9&#45;&gt;Node11 -->
<g id="edge10" class="edge">
<title>Node9&#45;&gt;Node11</title>
<path fill="none" stroke="midnightblue" d="M634.91,-110.15C679.5,-99.95 745.35,-84.88 786.28,-75.52"/>
<polygon fill="midnightblue" stroke="midnightblue" points="633.86,-106.8 624.89,-112.44 635.42,-113.62 633.86,-106.8"/>
</g>
<!-- Node11&#45;&gt;Node12 -->
<g id="edge11" class="edge">
<title>Node11&#45;&gt;Node12</title>
<path fill="none" stroke="midnightblue" d="M847.84,-51.45C865.74,-41.48 889.55,-28.23 904.95,-19.65"/>
<polygon fill="midnightblue" stroke="midnightblue" points="846.12,-48.4 839.08,-56.32 849.52,-54.52 846.12,-48.4"/>
</g>
<!-- Node13&#45;&gt;Node8 -->
<g id="edge14" class="edge">
<title>Node13&#45;&gt;Node8</title>
<path fill="none" stroke="midnightblue" d="M232.41,-105.25C242.7,-95.67 255.47,-83.79 264.01,-75.83"/>
<polygon fill="midnightblue" stroke="midnightblue" points="229.75,-102.95 224.82,-112.32 234.52,-108.07 229.75,-102.95"/>
</g>
<!-- Node14 -->
<g id="node14" class="node">
<title>Node14</title>
<g id="a_node14"><a xlink:href="_c_socket_8cpp.html" target="_top" xlink:title=" ">
<polygon fill="none" stroke="black" points="90,-56.5 90,-75.5 201,-75.5 201,-56.5 90,-56.5"/>
<text text-anchor="middle" x="145.5" y="-63.5" font-family="Helvetica,sans-Serif" font-size="10.00">source/CSocket.cpp</text>
</a>
</g>
</g>
<!-- Node13&#45;&gt;Node14 -->
<g id="edge13" class="edge">
<title>Node13&#45;&gt;Node14</title>
<path fill="none" stroke="midnightblue" d="M196.19,-106.1C183.59,-96.38 167.57,-84.03 156.95,-75.83"/>
<polygon fill="midnightblue" stroke="midnightblue" points="194.2,-108.99 204.25,-112.32 198.47,-103.44 194.2,-108.99"/>
</g>
<!-- Node29&#45;&gt;Node12 -->
<g id="edge34" class="edge">
<title>Node29&#45;&gt;Node12</title>
<path fill="none" stroke="midnightblue" d="M2633.91,-116.23C2344.84,-98.48 1330.94,-36.21 1015.14,-16.81"/>
<polygon fill="midnightblue" stroke="midnightblue" points="2634.09,-119.75 2644.29,-116.87 2634.52,-112.77 2634.09,-119.75"/>
</g>
</g>
</svg>
