<?xml version="1.0" encoding="UTF-8" standalone="no"?>
<!DOCTYPE svg PUBLIC "-//W3C//DTD SVG 1.1//EN"
 "http://www.w3.org/Graphics/SVG/1.1/DTD/svg11.dtd">
<!-- Generated by graphviz version 2.43.0 (0)
 -->
<!-- Title: source/global.h Pages: 1 -->
<svg width="1679pt" height="140pt"
 viewBox="0.00 0.00 1679.00 140.00" xmlns="http://www.w3.org/2000/svg" xmlns:xlink="http://www.w3.org/1999/xlink">
<g id="graph0" class="graph" transform="scale(1 1) rotate(0) translate(4 136)">
<title>source/global.h</title>
<!-- Node1 -->
<g id="node1" class="node">
<title>Node1</title>
<g id="a_node1"><a xlink:title=" ">
<polygon fill="#bfbfbf" stroke="black" points="624,-112.5 624,-131.5 715,-131.5 715,-112.5 624,-112.5"/>
<text text-anchor="middle" x="669.5" y="-119.5" font-family="Helvetica,sans-Serif" font-size="10.00">source/global.h</text>
</a>
</g>
</g>
<!-- Node2 -->
<g id="node2" class="node">
<title>Node2</title>
<g id="a_node2"><a xlink:href="_singleton_8h.html" target="_top" xlink:title=" ">
<polygon fill="none" stroke="black" points="0,-56.5 0,-75.5 71,-75.5 71,-56.5 0,-56.5"/>
<text text-anchor="middle" x="35.5" y="-63.5" font-family="Helvetica,sans-Serif" font-size="10.00">Singleton.h</text>
</a>
</g>
</g>
<!-- Node1&#45;&gt;Node2 -->
<g id="edge1" class="edge">
<title>Node1&#45;&gt;Node2</title>
<path fill="none" stroke="midnightblue" d="M623.85,-119.4C526.21,-115.56 289.7,-104.11 81.5,-75.96"/>
<polygon fill="midnightblue" stroke="midnightblue" points="81.68,-72.45 71.3,-74.57 80.73,-79.39 81.68,-72.45"/>
</g>
<!-- Node4 -->
<g id="node4" class="node">
<title>Node4</title>
<g id="a_node4"><a xlink:href="blowfish_8h.html" target="_top" xlink:title=" ">
<polygon fill="none" stroke="black" points="89.5,-56.5 89.5,-75.5 155.5,-75.5 155.5,-56.5 89.5,-56.5"/>
<text text-anchor="middle" x="122.5" y="-63.5" font-family="Helvetica,sans-Serif" font-size="10.00">blowfish.h</text>
</a>
</g>
</g>
<!-- Node1&#45;&gt;Node4 -->
<g id="edge3" class="edge">
<title>Node1&#45;&gt;Node4</title>
<path fill="none" stroke="midnightblue" d="M623.67,-118.8C536.42,-114.19 340.34,-101.9 166.03,-76.06"/>
<polygon fill="midnightblue" stroke="midnightblue" points="166.31,-72.57 155.9,-74.54 165.27,-79.49 166.31,-72.57"/>
</g>
<!-- Node5 -->
<g id="node5" class="node">
<title>Node5</title>
<g id="a_node5"><a xlink:title=" ">
<polygon fill="none" stroke="#bfbfbf" points="173.5,-56.5 173.5,-75.5 237.5,-75.5 237.5,-56.5 173.5,-56.5"/>
<text text-anchor="middle" x="205.5" y="-63.5" font-family="Helvetica,sans-Serif" font-size="10.00">algorithm</text>
</a>
</g>
</g>
<!-- Node1&#45;&gt;Node5 -->
<g id="edge4" class="edge">
<title>Node1&#45;&gt;Node5</title>
<path fill="none" stroke="midnightblue" d="M623.9,-117.8C547.95,-112.12 390.6,-98.82 247.91,-76.07"/>
<polygon fill="midnightblue" stroke="midnightblue" points="248.09,-72.55 237.66,-74.41 246.98,-79.46 248.09,-72.55"/>
</g>
<!-- Node6 -->
<g id="node6" class="node">
<title>Node6</title>
<g id="a_node6"><a xlink:title=" ">
<polygon fill="none" stroke="#bfbfbf" points="255.5,-56.5 255.5,-75.5 297.5,-75.5 297.5,-56.5 255.5,-56.5"/>
<text text-anchor="middle" x="276.5" y="-63.5" font-family="Helvetica,sans-Serif" font-size="10.00">array</text>
</a>
</g>
</g>
<!-- Node1&#45;&gt;Node6 -->
<g id="edge5" class="edge">
<title>Node1&#45;&gt;Node6</title>
<path fill="none" stroke="midnightblue" d="M623.82,-117.81C556.5,-112.58 426.64,-100.42 307.7,-75.93"/>
<polygon fill="midnightblue" stroke="midnightblue" points="308.2,-72.46 297.69,-73.84 306.76,-79.31 308.2,-72.46"/>
</g>
<!-- Node7 -->
<g id="node7" class="node">
<title>Node7</title>
<g id="a_node7"><a xlink:title=" ">
<polygon fill="none" stroke="#bfbfbf" points="315.5,-56.5 315.5,-75.5 383.5,-75.5 383.5,-56.5 315.5,-56.5"/>
<text text-anchor="middle" x="349.5" y="-63.5" font-family="Helvetica,sans-Serif" font-size="10.00">filesystem</text>
</a>
</g>
</g>
<!-- Node1&#45;&gt;Node7 -->
<g id="edge6" class="edge">
<title>Node1&#45;&gt;Node7</title>
<path fill="none" stroke="midnightblue" d="M623.81,-114.23C570.84,-106.23 480.7,-92.18 393.77,-76.17"/>
<polygon fill="midnightblue" stroke="midnightblue" points="394.21,-72.69 383.74,-74.31 392.93,-79.58 394.21,-72.69"/>
</g>
<!-- Node8 -->
<g id="node8" class="node">
<title>Node8</title>
<g id="a_node8"><a xlink:title=" ">
<polygon fill="none" stroke="#bfbfbf" points="402,-56.5 402,-75.5 467,-75.5 467,-56.5 402,-56.5"/>
<text text-anchor="middle" x="434.5" y="-63.5" font-family="Helvetica,sans-Serif" font-size="10.00">functional</text>
</a>
</g>
</g>
<!-- Node1&#45;&gt;Node8 -->
<g id="edge7" class="edge">
<title>Node1&#45;&gt;Node8</title>
<path fill="none" stroke="midnightblue" d="M632.26,-112.44C590,-102.73 521.2,-86.92 476.9,-76.74"/>
<polygon fill="midnightblue" stroke="midnightblue" points="477.55,-73.3 467.02,-74.47 475.98,-80.12 477.55,-73.3"/>
</g>
<!-- Node9 -->
<g id="node9" class="node">
<title>Node9</title>
<g id="a_node9"><a xlink:title=" ">
<polygon fill="none" stroke="#bfbfbf" points="485.5,-56.5 485.5,-75.5 517.5,-75.5 517.5,-56.5 485.5,-56.5"/>
<text text-anchor="middle" x="501.5" y="-63.5" font-family="Helvetica,sans-Serif" font-size="10.00">list</text>
</a>
</g>
</g>
<!-- Node1&#45;&gt;Node9 -->
<g id="edge8" class="edge">
<title>Node1&#45;&gt;Node9</title>
<path fill="none" stroke="midnightblue" d="M641.17,-112.46C614.16,-104.23 572.14,-91.22 527.23,-76.15"/>
<polygon fill="midnightblue" stroke="midnightblue" points="528.2,-72.79 517.6,-72.91 525.96,-79.42 528.2,-72.79"/>
</g>
<!-- Node10 -->
<g id="node10" class="node">
<title>Node10</title>
<g id="a_node10"><a xlink:title=" ">
<polygon fill="none" stroke="#bfbfbf" points="535.5,-56.5 535.5,-75.5 573.5,-75.5 573.5,-56.5 535.5,-56.5"/>
<text text-anchor="middle" x="554.5" y="-63.5" font-family="Helvetica,sans-Serif" font-size="10.00">map</text>
</a>
</g>
</g>
<!-- Node1&#45;&gt;Node10 -->
<g id="edge9" class="edge">
<title>Node1&#45;&gt;Node10</title>
<path fill="none" stroke="midnightblue" d="M651.28,-112.44C632.6,-103.68 603.34,-89.94 581.88,-79.86"/>
<polygon fill="midnightblue" stroke="midnightblue" points="583.18,-76.6 572.64,-75.52 580.2,-82.93 583.18,-76.6"/>
</g>
<!-- Node11 -->
<g id="node11" class="node">
<title>Node11</title>
<g id="a_node11"><a xlink:title=" ">
<polygon fill="none" stroke="#bfbfbf" points="591.5,-56.5 591.5,-75.5 623.5,-75.5 623.5,-56.5 591.5,-56.5"/>
<text text-anchor="middle" x="607.5" y="-63.5" font-family="Helvetica,sans-Serif" font-size="10.00">set</text>
</a>
</g>
</g>
<!-- Node1&#45;&gt;Node11 -->
<g id="edge10" class="edge">
<title>Node1&#45;&gt;Node11</title>
<path fill="none" stroke="midnightblue" d="M659.54,-112.32C650.37,-104.34 636.56,-92.31 625.47,-82.65"/>
<polygon fill="midnightblue" stroke="midnightblue" points="627.48,-79.76 617.64,-75.83 622.88,-85.04 627.48,-79.76"/>
</g>
<!-- Node12 -->
<g id="node12" class="node">
<title>Node12</title>
<g id="a_node12"><a xlink:title=" ">
<polygon fill="none" stroke="#bfbfbf" points="641.5,-56.5 641.5,-75.5 697.5,-75.5 697.5,-56.5 641.5,-56.5"/>
<text text-anchor="middle" x="669.5" y="-63.5" font-family="Helvetica,sans-Serif" font-size="10.00">sstream</text>
</a>
</g>
</g>
<!-- Node1&#45;&gt;Node12 -->
<g id="edge11" class="edge">
<title>Node1&#45;&gt;Node12</title>
<path fill="none" stroke="midnightblue" d="M669.5,-112.08C669.5,-105.01 669.5,-94.86 669.5,-85.99"/>
<polygon fill="midnightblue" stroke="midnightblue" points="673,-85.75 669.5,-75.75 666,-85.75 673,-85.75"/>
</g>
<!-- Node13 -->
<g id="node13" class="node">
<title>Node13</title>
<g id="a_node13"><a xlink:title=" ">
<polygon fill="none" stroke="#bfbfbf" points="715.5,-56.5 715.5,-75.5 765.5,-75.5 765.5,-56.5 715.5,-56.5"/>
<text text-anchor="middle" x="740.5" y="-63.5" font-family="Helvetica,sans-Serif" font-size="10.00">stdio.h</text>
</a>
</g>
</g>
<!-- Node1&#45;&gt;Node13 -->
<g id="edge12" class="edge">
<title>Node1&#45;&gt;Node13</title>
<path fill="none" stroke="midnightblue" d="M680.91,-112.32C691.61,-104.18 707.84,-91.84 720.66,-82.09"/>
<polygon fill="midnightblue" stroke="midnightblue" points="723.04,-84.67 728.89,-75.83 718.81,-79.1 723.04,-84.67"/>
</g>
<!-- Node14 -->
<g id="node14" class="node">
<title>Node14</title>
<g id="a_node14"><a xlink:title=" ">
<polygon fill="none" stroke="#bfbfbf" points="783.5,-56.5 783.5,-75.5 827.5,-75.5 827.5,-56.5 783.5,-56.5"/>
<text text-anchor="middle" x="805.5" y="-63.5" font-family="Helvetica,sans-Serif" font-size="10.00">string</text>
</a>
</g>
</g>
<!-- Node1&#45;&gt;Node14 -->
<g id="edge13" class="edge">
<title>Node1&#45;&gt;Node14</title>
<path fill="none" stroke="midnightblue" d="M691.05,-112.44C713.53,-103.52 748.99,-89.44 774.48,-79.32"/>
<polygon fill="midnightblue" stroke="midnightblue" points="776.05,-82.46 784.05,-75.52 773.47,-75.95 776.05,-82.46"/>
</g>
<!-- Node15 -->
<g id="node15" class="node">
<title>Node15</title>
<g id="a_node15"><a xlink:title=" ">
<polygon fill="none" stroke="#bfbfbf" points="846,-56.5 846,-75.5 897,-75.5 897,-56.5 846,-56.5"/>
<text text-anchor="middle" x="871.5" y="-63.5" font-family="Helvetica,sans-Serif" font-size="10.00">variant</text>
</a>
</g>
</g>
<!-- Node1&#45;&gt;Node15 -->
<g id="edge14" class="edge">
<title>Node1&#45;&gt;Node15</title>
<path fill="none" stroke="midnightblue" d="M701.51,-112.44C738.01,-102.68 797.55,-86.77 835.61,-76.6"/>
<polygon fill="midnightblue" stroke="midnightblue" points="836.97,-79.85 845.73,-73.89 835.17,-73.09 836.97,-79.85"/>
</g>
<!-- Node16 -->
<g id="node16" class="node">
<title>Node16</title>
<g id="a_node16"><a xlink:title=" ">
<polygon fill="none" stroke="#bfbfbf" points="915.5,-56.5 915.5,-75.5 983.5,-75.5 983.5,-56.5 915.5,-56.5"/>
<text text-anchor="middle" x="949.5" y="-63.5" font-family="Helvetica,sans-Serif" font-size="10.00">windows.h</text>
</a>
</g>
</g>
<!-- Node1&#45;&gt;Node16 -->
<g id="edge15" class="edge">
<title>Node1&#45;&gt;Node16</title>
<path fill="none" stroke="midnightblue" d="M715.22,-112.47C762.79,-103.55 839.42,-89.06 905.5,-76 905.6,-75.98 905.7,-75.96 905.8,-75.94"/>
<polygon fill="midnightblue" stroke="midnightblue" points="906.28,-79.41 915.4,-74.02 904.91,-72.55 906.28,-79.41"/>
</g>
<!-- Node17 -->
<g id="node17" class="node">
<title>Node17</title>
<g id="a_node17"><a xlink:title=" ">
<polygon fill="none" stroke="#bfbfbf" points="1001.5,-56.5 1001.5,-75.5 1105.5,-75.5 1105.5,-56.5 1001.5,-56.5"/>
<text text-anchor="middle" x="1053.5" y="-63.5" font-family="Helvetica,sans-Serif" font-size="10.00">FLCoreCommon.h</text>
</a>
</g>
</g>
<!-- Node1&#45;&gt;Node17 -->
<g id="edge16" class="edge">
<title>Node1&#45;&gt;Node17</title>
<path fill="none" stroke="midnightblue" d="M715.25,-114.74C775.9,-106.43 886.53,-91.16 991.16,-76.18"/>
<polygon fill="midnightblue" stroke="midnightblue" points="991.86,-79.62 1001.26,-74.74 990.87,-72.69 991.86,-79.62"/>
</g>
<!-- Node18 -->
<g id="node18" class="node">
<title>Node18</title>
<g id="a_node18"><a xlink:title=" ">
<polygon fill="none" stroke="#bfbfbf" points="1123.5,-56.5 1123.5,-75.5 1211.5,-75.5 1211.5,-56.5 1123.5,-56.5"/>
<text text-anchor="middle" x="1167.5" y="-63.5" font-family="Helvetica,sans-Serif" font-size="10.00">FLCoreDALib.h</text>
</a>
</g>
</g>
<!-- Node1&#45;&gt;Node18 -->
<g id="edge17" class="edge">
<title>Node1&#45;&gt;Node18</title>
<path fill="none" stroke="midnightblue" d="M715.1,-117.41C794.09,-110.97 961.66,-96.33 1113.32,-76.08"/>
<polygon fill="midnightblue" stroke="midnightblue" points="1113.84,-79.54 1123.29,-74.74 1112.91,-72.6 1113.84,-79.54"/>
</g>
<!-- Node19 -->
<g id="node19" class="node">
<title>Node19</title>
<g id="a_node19"><a xlink:title=" ">
<polygon fill="none" stroke="#bfbfbf" points="1229.5,-56.5 1229.5,-75.5 1355.5,-75.5 1355.5,-56.5 1229.5,-56.5"/>
<text text-anchor="middle" x="1292.5" y="-63.5" font-family="Helvetica,sans-Serif" font-size="10.00">FLCoreRemoteClient.h</text>
</a>
</g>
</g>
<!-- Node1&#45;&gt;Node19 -->
<g id="edge18" class="edge">
<title>Node1&#45;&gt;Node19</title>
<path fill="none" stroke="midnightblue" d="M715.28,-117.93C808.19,-111.55 1025.77,-95.88 1219.23,-76.09"/>
<polygon fill="midnightblue" stroke="midnightblue" points="1219.71,-79.56 1229.3,-75.06 1219,-72.6 1219.71,-79.56"/>
</g>
<!-- Node20 -->
<g id="node20" class="node">
<title>Node20</title>
<g id="a_node20"><a xlink:title=" ">
<polygon fill="none" stroke="#bfbfbf" points="1373.5,-56.5 1373.5,-75.5 1463.5,-75.5 1463.5,-56.5 1373.5,-56.5"/>
<text text-anchor="middle" x="1418.5" y="-63.5" font-family="Helvetica,sans-Serif" font-size="10.00">FLCoreServer.h</text>
</a>
</g>
</g>
<!-- Node1&#45;&gt;Node20 -->
<g id="edge19" class="edge">
<title>Node1&#45;&gt;Node20</title>
<path fill="none" stroke="midnightblue" d="M715.18,-119.63C825.05,-116 1112.94,-104.45 1363.45,-76"/>
<polygon fill="midnightblue" stroke="midnightblue" points="1363.93,-79.47 1373.47,-74.85 1363.13,-72.52 1363.93,-79.47"/>
</g>
<!-- Node21 -->
<g id="node21" class="node">
<title>Node21</title>
<g id="a_node21"><a xlink:href="_serialization_8hpp.html" target="_top" xlink:title=" ">
<polygon fill="none" stroke="black" points="1481.5,-56.5 1481.5,-75.5 1607.5,-75.5 1607.5,-56.5 1481.5,-56.5"/>
<text text-anchor="middle" x="1544.5" y="-63.5" font-family="Helvetica,sans-Serif" font-size="10.00">Tools/Serialization.hpp</text>
</a>
</g>
</g>
<!-- Node1&#45;&gt;Node21 -->
<g id="edge20" class="edge">
<title>Node1&#45;&gt;Node21</title>
<path fill="none" stroke="midnightblue" d="M715.3,-119.53C836.74,-115.4 1177.23,-102.29 1471.31,-76.05"/>
<polygon fill="midnightblue" stroke="midnightblue" points="1471.66,-79.53 1481.31,-75.15 1471.04,-72.56 1471.66,-79.53"/>
</g>
<!-- Node3 -->
<g id="node3" class="node">
<title>Node3</title>
<g id="a_node3"><a xlink:title=" ">
<polygon fill="none" stroke="#bfbfbf" points="6.5,-0.5 6.5,-19.5 64.5,-19.5 64.5,-0.5 6.5,-0.5"/>
<text text-anchor="middle" x="35.5" y="-7.5" font-family="Helvetica,sans-Serif" font-size="10.00">memory</text>
</a>
</g>
</g>
<!-- Node2&#45;&gt;Node3 -->
<g id="edge2" class="edge">
<title>Node2&#45;&gt;Node3</title>
<path fill="none" stroke="midnightblue" d="M35.5,-56.08C35.5,-49.01 35.5,-38.86 35.5,-29.99"/>
<polygon fill="midnightblue" stroke="midnightblue" points="39,-29.75 35.5,-19.75 32,-29.75 39,-29.75"/>
</g>
<!-- Node22 -->
<g id="node22" class="node">
<title>Node22</title>
<g id="a_node22"><a xlink:title=" ">
<polygon fill="none" stroke="#bfbfbf" points="1416,-0.5 1416,-19.5 1471,-19.5 1471,-0.5 1416,-0.5"/>
<text text-anchor="middle" x="1443.5" y="-7.5" font-family="Helvetica,sans-Serif" font-size="10.00">fstream</text>
</a>
</g>
</g>
<!-- Node21&#45;&gt;Node22 -->
<g id="edge21" class="edge">
<title>Node21&#45;&gt;Node22</title>
<path fill="none" stroke="midnightblue" d="M1528.27,-56.32C1512.15,-47.7 1487.2,-34.36 1468.54,-24.39"/>
<polygon fill="midnightblue" stroke="midnightblue" points="1470.16,-21.28 1459.69,-19.65 1466.86,-27.46 1470.16,-21.28"/>
</g>
<!-- Node23 -->
<g id="node23" class="node">
<title>Node23</title>
<g id="a_node23"><a xlink:title=" ">
<polygon fill="none" stroke="#bfbfbf" points="1489.5,-0.5 1489.5,-19.5 1599.5,-19.5 1599.5,-0.5 1489.5,-0.5"/>
<text text-anchor="middle" x="1544.5" y="-7.5" font-family="Helvetica,sans-Serif" font-size="10.00">nlohmann/json.hpp</text>
</a>
</g>
</g>
<!-- Node21&#45;&gt;Node23 -->
<g id="edge22" class="edge">
<title>Node21&#45;&gt;Node23</title>
<path fill="none" stroke="midnightblue" d="M1544.5,-56.08C1544.5,-49.01 1544.5,-38.86 1544.5,-29.99"/>
<polygon fill="midnightblue" stroke="midnightblue" points="1548,-29.75 1544.5,-19.75 1541,-29.75 1548,-29.75"/>
</g>
<!-- Node24 -->
<g id="node24" class="node">
<title>Node24</title>
<g id="a_node24"><a xlink:title=" ">
<polygon fill="none" stroke="#bfbfbf" points="1618,-0.5 1618,-19.5 1671,-19.5 1671,-0.5 1618,-0.5"/>
<text text-anchor="middle" x="1644.5" y="-7.5" font-family="Helvetica,sans-Serif" font-size="10.00">refl.hpp</text>
</a>
</g>
</g>
<!-- Node21&#45;&gt;Node24 -->
<g id="edge23" class="edge">
<title>Node21&#45;&gt;Node24</title>
<path fill="none" stroke="midnightblue" d="M1560.57,-56.32C1576.46,-47.74 1601.01,-34.49 1619.46,-24.52"/>
<polygon fill="midnightblue" stroke="midnightblue" points="1621.34,-27.49 1628.47,-19.65 1618.01,-21.33 1621.34,-27.49"/>
</g>
</g>
</svg>
