<?xml version="1.0" encoding="UTF-8" standalone="no"?>
<!DOCTYPE svg PUBLIC "-//W3C//DTD SVG 1.1//EN"
 "http://www.w3.org/Graphics/SVG/1.1/DTD/svg11.dtd">
<!-- Generated by graphviz version 2.43.0 (0)
 -->
<!-- Title: source/global.h Pages: 1 -->
<svg width="3941pt" height="308pt"
 viewBox="0.00 0.00 3941.37 308.00" xmlns="http://www.w3.org/2000/svg" xmlns:xlink="http://www.w3.org/1999/xlink">
<g id="graph0" class="graph" transform="scale(1 1) rotate(0) translate(4 304)">
<title>source/global.h</title>
<!-- Node1 -->
<g id="node1" class="node">
<title>Node1</title>
<g id="a_node1"><a xlink:title=" ">
<polygon fill="#bfbfbf" stroke="black" points="1873.37,-280.5 1873.37,-299.5 1964.37,-299.5 1964.37,-280.5 1873.37,-280.5"/>
<text text-anchor="middle" x="1918.87" y="-287.5" font-family="Helvetica,sans-Serif" font-size="10.00">source/global.h</text>
</a>
</g>
</g>
<!-- Node2 -->
<g id="node2" class="node">
<title>Node2</title>
<g id="a_node2"><a xlink:href="_c_cmds_8cpp.html" target="_top" xlink:title=" ">
<polygon fill="none" stroke="black" points="365.37,-112.5 365.37,-131.5 472.37,-131.5 472.37,-112.5 365.37,-112.5"/>
<text text-anchor="middle" x="418.87" y="-119.5" font-family="Helvetica,sans-Serif" font-size="10.00">source/CCmds.cpp</text>
</a>
</g>
</g>
<!-- Node1&#45;&gt;Node2 -->
<g id="edge1" class="edge">
<title>Node1&#45;&gt;Node2</title>
<path fill="none" stroke="midnightblue" d="M1862.83,-288.2C1555.66,-283.54 87.55,-257.65 23.87,-188 -23.21,-136.52 246.45,-125.81 365.03,-123.58"/>
<polygon fill="midnightblue" stroke="midnightblue" points="1863.22,-291.7 1873.27,-288.36 1863.32,-284.71 1863.22,-291.7"/>
</g>
<!-- Node3 -->
<g id="node3" class="node">
<title>Node3</title>
<g id="a_node3"><a xlink:href="_exceptions_8cpp.html" target="_top" xlink:title=" ">
<polygon fill="none" stroke="black" points="33.37,-168.5 33.37,-187.5 158.37,-187.5 158.37,-168.5 33.37,-168.5"/>
<text text-anchor="middle" x="95.87" y="-175.5" font-family="Helvetica,sans-Serif" font-size="10.00">source/Exceptions.cpp</text>
</a>
</g>
</g>
<!-- Node1&#45;&gt;Node3 -->
<g id="edge2" class="edge">
<title>Node1&#45;&gt;Node3</title>
<path fill="none" stroke="midnightblue" d="M1863.09,-286.96C1646.02,-278.79 836.9,-245.96 172.87,-188 168.17,-187.59 163.32,-187.12 158.45,-186.63"/>
<polygon fill="midnightblue" stroke="midnightblue" points="1863.15,-290.47 1873.27,-287.35 1863.41,-283.47 1863.15,-290.47"/>
</g>
<!-- Node4 -->
<g id="node4" class="node">
<title>Node4</title>
<g id="a_node4"><a xlink:href="_f_l_hook_8cpp.html" target="_top" xlink:title=" ">
<polygon fill="none" stroke="black" points="320.37,-56.5 320.37,-75.5 429.37,-75.5 429.37,-56.5 320.37,-56.5"/>
<text text-anchor="middle" x="374.87" y="-63.5" font-family="Helvetica,sans-Serif" font-size="10.00">source/FLHook.cpp</text>
</a>
</g>
</g>
<!-- Node1&#45;&gt;Node4 -->
<g id="edge3" class="edge">
<title>Node1&#45;&gt;Node4</title>
<path fill="none" stroke="midnightblue" d="M1862.92,-289.33C1607.04,-290.57 546.71,-292.61 218.87,-244 125.86,-230.21 71.87,-262.77 14.87,-188 -65.29,-82.87 200.94,-68.19 320.14,-66.77"/>
<polygon fill="midnightblue" stroke="midnightblue" points="1863.11,-292.83 1873.09,-289.28 1863.07,-285.83 1863.11,-292.83"/>
</g>
<!-- Node5 -->
<g id="node5" class="node">
<title>Node5</title>
<g id="a_node5"><a xlink:href="_hook_8h.html" target="_top" xlink:title=" ">
<polygon fill="none" stroke="black" points="1785.87,-224.5 1785.87,-243.5 1871.87,-243.5 1871.87,-224.5 1785.87,-224.5"/>
<text text-anchor="middle" x="1828.87" y="-231.5" font-family="Helvetica,sans-Serif" font-size="10.00">source/Hook.h</text>
</a>
</g>
</g>
<!-- Node1&#45;&gt;Node5 -->
<g id="edge4" class="edge">
<title>Node1&#45;&gt;Node5</title>
<path fill="none" stroke="midnightblue" d="M1895.83,-275.18C1879.27,-265.24 1857.45,-252.15 1843.29,-243.65"/>
<polygon fill="midnightblue" stroke="midnightblue" points="1894.03,-278.18 1904.41,-280.32 1897.63,-272.18 1894.03,-278.18"/>
</g>
<!-- Node37 -->
<g id="node37" class="node">
<title>Node37</title>
<g id="a_node37"><a xlink:href="_settings_8cpp.html" target="_top" xlink:title=" ">
<polygon fill="none" stroke="black" points="3552.87,-168.5 3552.87,-187.5 3664.87,-187.5 3664.87,-168.5 3552.87,-168.5"/>
<text text-anchor="middle" x="3608.87" y="-175.5" font-family="Helvetica,sans-Serif" font-size="10.00">source/Settings.cpp</text>
</a>
</g>
</g>
<!-- Node1&#45;&gt;Node37 -->
<g id="edge50" class="edge">
<title>Node1&#45;&gt;Node37</title>
<path fill="none" stroke="midnightblue" d="M1914.3,-270.27C1911.93,-255.5 1911.68,-235.53 1923.87,-224 1956.55,-193.05 3499,-191.59 3543.87,-188 3546.7,-187.77 3549.61,-187.5 3552.54,-187.2"/>
<polygon fill="midnightblue" stroke="midnightblue" points="1910.92,-271.23 1916.35,-280.32 1917.78,-269.83 1910.92,-271.23"/>
</g>
<!-- Node38 -->
<g id="node38" class="node">
<title>Node38</title>
<g id="a_node38"><a xlink:href="_tools_8cpp.html" target="_top" xlink:title=" ">
<polygon fill="none" stroke="black" points="3683.37,-168.5 3683.37,-187.5 3780.37,-187.5 3780.37,-168.5 3683.37,-168.5"/>
<text text-anchor="middle" x="3731.87" y="-175.5" font-family="Helvetica,sans-Serif" font-size="10.00">source/Tools.cpp</text>
</a>
</g>
</g>
<!-- Node1&#45;&gt;Node38 -->
<g id="edge51" class="edge">
<title>Node1&#45;&gt;Node38</title>
<path fill="none" stroke="midnightblue" d="M1925.37,-270.68C1931.96,-255.19 1943.76,-233.98 1961.87,-224 2045.18,-178.08 3579.1,-196.31 3673.87,-188 3676.91,-187.73 3680.04,-187.4 3683.19,-187.03"/>
<polygon fill="midnightblue" stroke="midnightblue" points="1922,-269.69 1921.64,-280.28 1928.53,-272.23 1922,-269.69"/>
</g>
<!-- Node39 -->
<g id="node39" class="node">
<title>Node39</title>
<g id="a_node39"><a xlink:href="_zone_utilities_8cpp.html" target="_top" xlink:title=" ">
<polygon fill="none" stroke="black" points="3798.37,-168.5 3798.37,-187.5 3933.37,-187.5 3933.37,-168.5 3798.37,-168.5"/>
<text text-anchor="middle" x="3865.87" y="-175.5" font-family="Helvetica,sans-Serif" font-size="10.00">source/ZoneUtilities.cpp</text>
</a>
</g>
</g>
<!-- Node1&#45;&gt;Node39 -->
<g id="edge53" class="edge">
<title>Node1&#45;&gt;Node39</title>
<path fill="none" stroke="midnightblue" d="M1932.54,-272.19C1946.55,-256.4 1969.9,-233.79 1995.87,-224 2089.14,-188.83 3690.42,-194.87 3789.87,-188 3792.65,-187.81 3795.49,-187.59 3798.35,-187.34"/>
<polygon fill="midnightblue" stroke="midnightblue" points="1929.59,-270.26 1925.76,-280.13 1934.92,-274.8 1929.59,-270.26"/>
</g>
<!-- Node40 -->
<g id="node40" class="node">
<title>Node40</title>
<g id="a_node40"><a xlink:href="_log_8cpp.html" target="_top" xlink:title=" ">
<polygon fill="none" stroke="black" points="2004.37,-224.5 2004.37,-243.5 2093.37,-243.5 2093.37,-224.5 2004.37,-224.5"/>
<text text-anchor="middle" x="2048.87" y="-231.5" font-family="Helvetica,sans-Serif" font-size="10.00">source/Log.cpp</text>
</a>
</g>
</g>
<!-- Node1&#45;&gt;Node40 -->
<g id="edge49" class="edge">
<title>Node1&#45;&gt;Node40</title>
<path fill="none" stroke="midnightblue" d="M1948.95,-276.5C1973.32,-266.38 2007.01,-252.39 2028.36,-243.52"/>
<polygon fill="midnightblue" stroke="midnightblue" points="1947.36,-273.38 1939.46,-280.44 1950.04,-279.84 1947.36,-273.38"/>
</g>
<!-- Node41 -->
<g id="node41" class="node">
<title>Node41</title>
<g id="a_node41"><a xlink:href="_console_8cpp.html" target="_top" xlink:title=" ">
<polygon fill="none" stroke="black" points="2111.37,-224.5 2111.37,-243.5 2250.37,-243.5 2250.37,-224.5 2111.37,-224.5"/>
<text text-anchor="middle" x="2180.87" y="-231.5" font-family="Helvetica,sans-Serif" font-size="10.00">source/Tools/Console.cpp</text>
</a>
</g>
</g>
<!-- Node1&#45;&gt;Node41 -->
<g id="edge52" class="edge">
<title>Node1&#45;&gt;Node41</title>
<path fill="none" stroke="midnightblue" d="M1970.25,-278.41C2019.76,-268.2 2093.73,-252.96 2139.55,-243.52"/>
<polygon fill="midnightblue" stroke="midnightblue" points="1969.47,-275 1960.38,-280.44 1970.88,-281.85 1969.47,-275"/>
</g>
<!-- Node42 -->
<g id="node42" class="node">
<title>Node42</title>
<g id="a_node42"><a xlink:href="flcodec_8cpp.html" target="_top" xlink:title=" ">
<polygon fill="none" stroke="black" points="2268.37,-224.5 2268.37,-243.5 2375.37,-243.5 2375.37,-224.5 2268.37,-224.5"/>
<text text-anchor="middle" x="2321.87" y="-231.5" font-family="Helvetica,sans-Serif" font-size="10.00">source/flcodec.cpp</text>
</a>
</g>
</g>
<!-- Node1&#45;&gt;Node42 -->
<g id="edge54" class="edge">
<title>Node1&#45;&gt;Node42</title>
<path fill="none" stroke="midnightblue" d="M1974.39,-281.9C2041.9,-273.21 2159.3,-257.93 2259.87,-244 2262.56,-243.63 2265.32,-243.24 2268.1,-242.85"/>
<polygon fill="midnightblue" stroke="midnightblue" points="1973.87,-278.44 1964.4,-283.18 1974.76,-285.38 1973.87,-278.44"/>
</g>
<!-- Node5&#45;&gt;Node3 -->
<g id="edge19" class="edge">
<title>Node5&#45;&gt;Node3</title>
<path fill="none" stroke="midnightblue" d="M1775.34,-233.28C1568.55,-233.99 802,-233.22 172.87,-188 168.17,-187.66 163.31,-187.25 158.44,-186.79"/>
<polygon fill="midnightblue" stroke="midnightblue" points="1775.63,-236.78 1785.62,-233.24 1775.61,-229.78 1775.63,-236.78"/>
</g>
<!-- Node5&#45;&gt;Node4 -->
<g id="edge20" class="edge">
<title>Node5&#45;&gt;Node4</title>
<path fill="none" stroke="midnightblue" d="M1775.67,-232.53C1498.75,-229.99 233.87,-216.79 205.87,-188 156.68,-137.43 281.18,-93.53 342.77,-75.61"/>
<polygon fill="midnightblue" stroke="midnightblue" points="1775.82,-236.04 1785.85,-232.63 1775.89,-229.04 1775.82,-236.04"/>
</g>
<!-- Node6 -->
<g id="node6" class="node">
<title>Node6</title>
<g id="a_node6"><a xlink:href="_c_cmds_8h.html" target="_top" xlink:title=" ">
<polygon fill="none" stroke="black" points="1591.37,-168.5 1591.37,-187.5 1686.37,-187.5 1686.37,-168.5 1591.37,-168.5"/>
<text text-anchor="middle" x="1638.87" y="-175.5" font-family="Helvetica,sans-Serif" font-size="10.00">source/CCmds.h</text>
</a>
</g>
</g>
<!-- Node5&#45;&gt;Node6 -->
<g id="edge5" class="edge">
<title>Node5&#45;&gt;Node6</title>
<path fill="none" stroke="midnightblue" d="M1789.1,-221.7C1753.24,-211.51 1701.29,-196.74 1668.83,-187.52"/>
<polygon fill="midnightblue" stroke="midnightblue" points="1788.18,-225.08 1798.76,-224.44 1790.1,-218.34 1788.18,-225.08"/>
</g>
<!-- Node10 -->
<g id="node10" class="node">
<title>Node10</title>
<g id="a_node10"><a xlink:href="_c_in_game_8cpp.html" target="_top" xlink:title=" ">
<polygon fill="none" stroke="black" points="1482.37,-56.5 1482.37,-75.5 1599.37,-75.5 1599.37,-56.5 1482.37,-56.5"/>
<text text-anchor="middle" x="1540.87" y="-63.5" font-family="Helvetica,sans-Serif" font-size="10.00">source/CInGame.cpp</text>
</a>
</g>
</g>
<!-- Node5&#45;&gt;Node10 -->
<g id="edge18" class="edge">
<title>Node5&#45;&gt;Node10</title>
<path fill="none" stroke="midnightblue" d="M1816.07,-216.11C1791.44,-183.66 1739.35,-115.49 1733.87,-112 1693.53,-86.31 1640.1,-75.25 1599.68,-70.51"/>
<polygon fill="midnightblue" stroke="midnightblue" points="1813.4,-218.38 1822.23,-224.23 1818.98,-214.15 1813.4,-218.38"/>
</g>
<!-- Node11 -->
<g id="node11" class="node">
<title>Node11</title>
<g id="a_node11"><a xlink:href="_hk_i_server_impl_8inl.html" target="_top" xlink:title=" ">
<polygon fill="none" stroke="black" points="1663.37,-56.5 1663.37,-75.5 1800.37,-75.5 1800.37,-56.5 1663.37,-56.5"/>
<text text-anchor="middle" x="1731.87" y="-63.5" font-family="Helvetica,sans-Serif" font-size="10.00">source/HkIServerImpl.inl</text>
</a>
</g>
</g>
<!-- Node5&#45;&gt;Node11 -->
<g id="edge41" class="edge">
<title>Node5&#45;&gt;Node11</title>
<path fill="none" stroke="midnightblue" d="M1821.02,-215.18C1810.11,-191.07 1789.18,-147.03 1766.87,-112 1758.36,-98.64 1746.81,-84.41 1739.35,-75.6"/>
<polygon fill="midnightblue" stroke="midnightblue" points="1817.9,-216.78 1825.17,-224.49 1824.29,-213.93 1817.9,-216.78"/>
</g>
<!-- Node12 -->
<g id="node12" class="node">
<title>Node12</title>
<g id="a_node12"><a xlink:href="_hk_client_server_interface_8cpp.html" target="_top" xlink:title=" ">
<polygon fill="none" stroke="black" points="1734.37,-0.5 1734.37,-19.5 1923.37,-19.5 1923.37,-0.5 1734.37,-0.5"/>
<text text-anchor="middle" x="1828.87" y="-7.5" font-family="Helvetica,sans-Serif" font-size="10.00">source/HkClientServerInterface.cpp</text>
</a>
</g>
</g>
<!-- Node5&#45;&gt;Node12 -->
<g id="edge23" class="edge">
<title>Node5&#45;&gt;Node12</title>
<path fill="none" stroke="midnightblue" d="M1828.87,-214.3C1828.87,-168.64 1828.87,-52.85 1828.87,-19.88"/>
<polygon fill="midnightblue" stroke="midnightblue" points="1825.37,-214.3 1828.87,-224.3 1832.37,-214.3 1825.37,-214.3"/>
</g>
<!-- Node15 -->
<g id="node15" class="node">
<title>Node15</title>
<g id="a_node15"><a xlink:href="_hk_plugin_manager_8cpp.html" target="_top" xlink:title=" ">
<polygon fill="none" stroke="black" points="1566.87,-112.5 1566.87,-131.5 1724.87,-131.5 1724.87,-112.5 1566.87,-112.5"/>
<text text-anchor="middle" x="1645.87" y="-119.5" font-family="Helvetica,sans-Serif" font-size="10.00">source/HkPluginManager.cpp</text>
</a>
</g>
</g>
<!-- Node5&#45;&gt;Node15 -->
<g id="edge43" class="edge">
<title>Node5&#45;&gt;Node15</title>
<path fill="none" stroke="midnightblue" d="M1800.46,-220.11C1782.45,-211.62 1758.88,-199.91 1738.87,-188 1708.06,-169.67 1674.05,-144.55 1656.96,-131.56"/>
<polygon fill="midnightblue" stroke="midnightblue" points="1799.28,-223.42 1809.82,-224.47 1802.24,-217.08 1799.28,-223.42"/>
</g>
<!-- Node16 -->
<g id="node16" class="node">
<title>Node16</title>
<g id="a_node16"><a xlink:href="_hk_cb_other_8cpp.html" target="_top" xlink:title=" ">
<polygon fill="none" stroke="black" points="1857.37,-168.5 1857.37,-187.5 1982.37,-187.5 1982.37,-168.5 1857.37,-168.5"/>
<text text-anchor="middle" x="1919.87" y="-175.5" font-family="Helvetica,sans-Serif" font-size="10.00">source/HkCbOther.cpp</text>
</a>
</g>
</g>
<!-- Node5&#45;&gt;Node16 -->
<g id="edge21" class="edge">
<title>Node5&#45;&gt;Node16</title>
<path fill="none" stroke="midnightblue" d="M1852.16,-219.18C1868.9,-209.24 1890.97,-196.15 1905.28,-187.65"/>
<polygon fill="midnightblue" stroke="midnightblue" points="1850.3,-216.21 1843.49,-224.32 1853.87,-222.23 1850.3,-216.21"/>
</g>
<!-- Node17 -->
<g id="node17" class="node">
<title>Node17</title>
<g id="a_node17"><a xlink:href="_hk_character_ini_8cpp.html" target="_top" xlink:title=" ">
<polygon fill="none" stroke="black" points="2000.37,-168.5 2000.37,-187.5 2145.37,-187.5 2145.37,-168.5 2000.37,-168.5"/>
<text text-anchor="middle" x="2072.87" y="-175.5" font-family="Helvetica,sans-Serif" font-size="10.00">source/HkCharacterIni.cpp</text>
</a>
</g>
</g>
<!-- Node5&#45;&gt;Node17 -->
<g id="edge22" class="edge">
<title>Node5&#45;&gt;Node17</title>
<path fill="none" stroke="midnightblue" d="M1877.3,-222.28C1923.41,-212.08 1991.89,-196.92 2034.38,-187.52"/>
<polygon fill="midnightblue" stroke="midnightblue" points="1876.54,-218.87 1867.53,-224.44 1878.05,-225.7 1876.54,-218.87"/>
</g>
<!-- Node18 -->
<g id="node18" class="node">
<title>Node18</title>
<g id="a_node18"><a xlink:href="_hk_data_base_market_8cpp.html" target="_top" xlink:title=" ">
<polygon fill="none" stroke="black" points="2163.37,-168.5 2163.37,-187.5 2330.37,-187.5 2330.37,-168.5 2163.37,-168.5"/>
<text text-anchor="middle" x="2246.87" y="-175.5" font-family="Helvetica,sans-Serif" font-size="10.00">source/HkDataBaseMarket.cpp</text>
</a>
</g>
</g>
<!-- Node5&#45;&gt;Node18 -->
<g id="edge24" class="edge">
<title>Node5&#45;&gt;Node18</title>
<path fill="none" stroke="midnightblue" d="M1882.06,-224.54C1883.34,-224.36 1884.61,-224.18 1885.87,-224 1984.99,-210 2099.75,-196.09 2172.79,-187.52"/>
<polygon fill="midnightblue" stroke="midnightblue" points="1881.48,-221.09 1872.1,-226.02 1882.51,-228.02 1881.48,-221.09"/>
</g>
<!-- Node19 -->
<g id="node19" class="node">
<title>Node19</title>
<g id="a_node19"><a xlink:href="_hk_error_8cpp.html" target="_top" xlink:title=" ">
<polygon fill="none" stroke="black" points="2348.87,-168.5 2348.87,-187.5 2456.87,-187.5 2456.87,-168.5 2348.87,-168.5"/>
<text text-anchor="middle" x="2402.87" y="-175.5" font-family="Helvetica,sans-Serif" font-size="10.00">source/HkError.cpp</text>
</a>
</g>
</g>
<!-- Node5&#45;&gt;Node19 -->
<g id="edge25" class="edge">
<title>Node5&#45;&gt;Node19</title>
<path fill="none" stroke="midnightblue" d="M1882.05,-224.47C1883.33,-224.31 1884.61,-224.15 1885.87,-224 2086.87,-200.2 2138.69,-210.32 2339.87,-188 2342.72,-187.68 2345.65,-187.34 2348.6,-186.97"/>
<polygon fill="midnightblue" stroke="midnightblue" points="1881.52,-221.01 1872.08,-225.82 1882.46,-227.94 1881.52,-221.01"/>
</g>
<!-- Node20 -->
<g id="node20" class="node">
<title>Node20</title>
<g id="a_node20"><a xlink:href="_hk_f_l_ini_8cpp.html" target="_top" xlink:title=" ">
<polygon fill="none" stroke="black" points="2475.37,-168.5 2475.37,-187.5 2584.37,-187.5 2584.37,-168.5 2475.37,-168.5"/>
<text text-anchor="middle" x="2529.87" y="-175.5" font-family="Helvetica,sans-Serif" font-size="10.00">source/HkFLIni.cpp</text>
</a>
</g>
</g>
<!-- Node5&#45;&gt;Node20 -->
<g id="edge26" class="edge">
<title>Node5&#45;&gt;Node20</title>
<path fill="none" stroke="midnightblue" d="M1882.04,-224.44C1883.33,-224.28 1884.61,-224.14 1885.87,-224 2142.6,-195.83 2208.9,-214 2465.87,-188 2468.88,-187.69 2471.97,-187.35 2475.09,-186.99"/>
<polygon fill="midnightblue" stroke="midnightblue" points="1881.53,-220.98 1872.07,-225.74 1882.44,-227.92 1881.53,-220.98"/>
</g>
<!-- Node21 -->
<g id="node21" class="node">
<title>Node21</title>
<g id="a_node21"><a xlink:href="_hk_func_cache_8cpp.html" target="_top" xlink:title=" ">
<polygon fill="none" stroke="black" points="2602.87,-168.5 2602.87,-187.5 2740.87,-187.5 2740.87,-168.5 2602.87,-168.5"/>
<text text-anchor="middle" x="2671.87" y="-175.5" font-family="Helvetica,sans-Serif" font-size="10.00">source/HkFuncCache.cpp</text>
</a>
</g>
</g>
<!-- Node5&#45;&gt;Node21 -->
<g id="edge27" class="edge">
<title>Node5&#45;&gt;Node21</title>
<path fill="none" stroke="midnightblue" d="M1882.04,-224.42C1883.33,-224.27 1884.6,-224.13 1885.87,-224 2199.25,-191.38 2279.87,-214.07 2593.87,-188 2596.72,-187.76 2599.63,-187.5 2602.57,-187.23"/>
<polygon fill="midnightblue" stroke="midnightblue" points="1881.54,-220.96 1872.06,-225.69 1882.42,-227.9 1881.54,-220.96"/>
</g>
<!-- Node22 -->
<g id="node22" class="node">
<title>Node22</title>
<g id="a_node22"><a xlink:href="_hk_func_log_8cpp.html" target="_top" xlink:title=" ">
<polygon fill="none" stroke="black" points="2797.37,-168.5 2797.37,-187.5 2922.37,-187.5 2922.37,-168.5 2797.37,-168.5"/>
<text text-anchor="middle" x="2859.87" y="-175.5" font-family="Helvetica,sans-Serif" font-size="10.00">source/HkFuncLog.cpp</text>
</a>
</g>
</g>
<!-- Node5&#45;&gt;Node22 -->
<g id="edge28" class="edge">
<title>Node5&#45;&gt;Node22</title>
<path fill="none" stroke="midnightblue" d="M1882.04,-224.4C1883.33,-224.26 1884.6,-224.12 1885.87,-224 2282.92,-184.82 2385.1,-219.18 2782.87,-188 2787.56,-187.63 2792.41,-187.2 2797.29,-186.72"/>
<polygon fill="midnightblue" stroke="midnightblue" points="1881.55,-220.94 1872.06,-225.64 1882.41,-227.88 1881.55,-220.94"/>
</g>
<!-- Node23 -->
<g id="node23" class="node">
<title>Node23</title>
<g id="a_node23"><a xlink:href="_hk_func_msg_8cpp.html" target="_top" xlink:title=" ">
<polygon fill="none" stroke="black" points="2940.87,-168.5 2940.87,-187.5 3068.87,-187.5 3068.87,-168.5 2940.87,-168.5"/>
<text text-anchor="middle" x="3004.87" y="-175.5" font-family="Helvetica,sans-Serif" font-size="10.00">source/HkFuncMsg.cpp</text>
</a>
</g>
</g>
<!-- Node5&#45;&gt;Node23 -->
<g id="edge29" class="edge">
<title>Node5&#45;&gt;Node23</title>
<path fill="none" stroke="midnightblue" d="M1882.04,-224.39C1883.33,-224.25 1884.6,-224.12 1885.87,-224 2348.91,-179.64 2468.14,-224.49 2931.87,-188 2934.79,-187.77 2937.78,-187.51 2940.8,-187.22"/>
<polygon fill="midnightblue" stroke="midnightblue" points="1881.56,-220.92 1872.05,-225.61 1882.41,-227.87 1881.56,-220.92"/>
</g>
<!-- Node24 -->
<g id="node24" class="node">
<title>Node24</title>
<g id="a_node24"><a xlink:href="_hk_func_other_8cpp.html" target="_top" xlink:title=" ">
<polygon fill="none" stroke="black" points="3086.87,-168.5 3086.87,-187.5 3220.87,-187.5 3220.87,-168.5 3086.87,-168.5"/>
<text text-anchor="middle" x="3153.87" y="-175.5" font-family="Helvetica,sans-Serif" font-size="10.00">source/HkFuncOther.cpp</text>
</a>
</g>
</g>
<!-- Node5&#45;&gt;Node24 -->
<g id="edge30" class="edge">
<title>Node5&#45;&gt;Node24</title>
<path fill="none" stroke="midnightblue" d="M1882.04,-224.38C1883.33,-224.25 1884.6,-224.12 1885.87,-224 2413.57,-174.57 2549.3,-227.2 3077.87,-188 3080.78,-187.78 3083.76,-187.54 3086.76,-187.27"/>
<polygon fill="midnightblue" stroke="midnightblue" points="1881.56,-220.92 1872.05,-225.59 1882.4,-227.87 1881.56,-220.92"/>
</g>
<!-- Node25 -->
<g id="node25" class="node">
<title>Node25</title>
<g id="a_node25"><a xlink:href="_hk_func_players_8cpp.html" target="_top" xlink:title=" ">
<polygon fill="none" stroke="black" points="3238.87,-168.5 3238.87,-187.5 3382.87,-187.5 3382.87,-168.5 3238.87,-168.5"/>
<text text-anchor="middle" x="3310.87" y="-175.5" font-family="Helvetica,sans-Serif" font-size="10.00">source/HkFuncPlayers.cpp</text>
</a>
</g>
</g>
<!-- Node5&#45;&gt;Node25 -->
<g id="edge31" class="edge">
<title>Node5&#45;&gt;Node25</title>
<path fill="none" stroke="midnightblue" d="M1882.04,-224.38C1883.33,-224.24 1884.6,-224.12 1885.87,-224 2480.9,-169.29 2633.73,-229.03 3229.87,-188 3232.69,-187.81 3235.57,-187.59 3238.47,-187.35"/>
<polygon fill="midnightblue" stroke="midnightblue" points="1881.56,-220.91 1872.05,-225.58 1882.4,-227.86 1881.56,-220.91"/>
</g>
<!-- Node26 -->
<g id="node26" class="node">
<title>Node26</title>
<g id="a_node26"><a xlink:href="_hk_func_tools_8cpp.html" target="_top" xlink:title=" ">
<polygon fill="none" stroke="black" points="3401.37,-168.5 3401.37,-187.5 3534.37,-187.5 3534.37,-168.5 3401.37,-168.5"/>
<text text-anchor="middle" x="3467.87" y="-175.5" font-family="Helvetica,sans-Serif" font-size="10.00">source/HkFuncTools.cpp</text>
</a>
</g>
</g>
<!-- Node5&#45;&gt;Node26 -->
<g id="edge32" class="edge">
<title>Node5&#45;&gt;Node26</title>
<path fill="none" stroke="midnightblue" d="M1882.04,-224.37C1883.33,-224.24 1884.6,-224.11 1885.87,-224 2552.67,-163.66 2724.02,-235.42 3391.87,-188 3394.91,-187.78 3398.03,-187.53 3401.17,-187.26"/>
<polygon fill="midnightblue" stroke="midnightblue" points="1881.57,-220.91 1872.05,-225.56 1882.39,-227.86 1881.57,-220.91"/>
</g>
<!-- Node27 -->
<g id="node27" class="node">
<title>Node27</title>
<g id="a_node27"><a xlink:href="_hk_help_8cpp.html" target="_top" xlink:title=" ">
<polygon fill="none" stroke="black" points="214.87,-168.5 214.87,-187.5 322.87,-187.5 322.87,-168.5 214.87,-168.5"/>
<text text-anchor="middle" x="268.87" y="-175.5" font-family="Helvetica,sans-Serif" font-size="10.00">source/HkHelp.cpp</text>
</a>
</g>
</g>
<!-- Node5&#45;&gt;Node27 -->
<g id="edge33" class="edge">
<title>Node5&#45;&gt;Node27</title>
<path fill="none" stroke="midnightblue" d="M1775.66,-232.2C1543.87,-228.59 620.96,-212.92 331.87,-188 329,-187.75 326.07,-187.46 323.12,-187.14"/>
<polygon fill="midnightblue" stroke="midnightblue" points="1775.8,-235.7 1785.85,-232.36 1775.91,-228.7 1775.8,-235.7"/>
</g>
<!-- Node28 -->
<g id="node28" class="node">
<title>Node28</title>
<g id="a_node28"><a xlink:href="_hk_i_chat_server_8cpp.html" target="_top" xlink:title=" ">
<polygon fill="none" stroke="black" points="340.87,-168.5 340.87,-187.5 482.87,-187.5 482.87,-168.5 340.87,-168.5"/>
<text text-anchor="middle" x="411.87" y="-175.5" font-family="Helvetica,sans-Serif" font-size="10.00">source/HkIChatServer.cpp</text>
</a>
</g>
</g>
<!-- Node5&#45;&gt;Node28 -->
<g id="edge34" class="edge">
<title>Node5&#45;&gt;Node28</title>
<path fill="none" stroke="midnightblue" d="M1775.79,-232.71C1595.53,-231.39 990.34,-224.37 491.87,-188 488.94,-187.79 485.95,-187.55 482.94,-187.29"/>
<polygon fill="midnightblue" stroke="midnightblue" points="1775.78,-236.21 1785.8,-232.78 1775.83,-229.21 1775.78,-236.21"/>
</g>
<!-- Node29 -->
<g id="node29" class="node">
<title>Node29</title>
<g id="a_node29"><a xlink:href="_hk_i_client_impl_8inl.html" target="_top" xlink:title=" ">
<polygon fill="none" stroke="black" points="2278.87,-112.5 2278.87,-131.5 2412.87,-131.5 2412.87,-112.5 2278.87,-112.5"/>
<text text-anchor="middle" x="2345.87" y="-119.5" font-family="Helvetica,sans-Serif" font-size="10.00">source/HkIClientImpl.inl</text>
</a>
</g>
</g>
<!-- Node5&#45;&gt;Node29 -->
<g id="edge35" class="edge">
<title>Node5&#45;&gt;Node29</title>
<path fill="none" stroke="midnightblue" d="M1882.04,-224.4C1883.33,-224.26 1884.6,-224.13 1885.87,-224 1933.67,-219.25 2716.61,-222.67 2749.87,-188 2797.69,-138.14 2539.64,-126.52 2412.89,-123.82"/>
<polygon fill="midnightblue" stroke="midnightblue" points="1881.55,-220.94 1872.06,-225.65 1882.41,-227.88 1881.55,-220.94"/>
</g>
<!-- Node30 -->
<g id="node30" class="node">
<title>Node30</title>
<g id="a_node30"><a xlink:href="_hk_i_engine_8cpp.html" target="_top" xlink:title=" ">
<polygon fill="none" stroke="black" points="500.87,-168.5 500.87,-187.5 622.87,-187.5 622.87,-168.5 500.87,-168.5"/>
<text text-anchor="middle" x="561.87" y="-175.5" font-family="Helvetica,sans-Serif" font-size="10.00">source/HkIEngine.cpp</text>
</a>
</g>
</g>
<!-- Node5&#45;&gt;Node30 -->
<g id="edge37" class="edge">
<title>Node5&#45;&gt;Node30</title>
<path fill="none" stroke="midnightblue" d="M1775.77,-232.71C1607.78,-231.43 1072.88,-224.57 631.87,-188 628.93,-187.76 625.94,-187.48 622.91,-187.18"/>
<polygon fill="midnightblue" stroke="midnightblue" points="1775.81,-236.21 1785.84,-232.78 1775.87,-229.21 1775.81,-236.21"/>
</g>
<!-- Node31 -->
<g id="node31" class="node">
<title>Node31</title>
<g id="a_node31"><a xlink:href="_hk_i_engine_damage_8cpp.html" target="_top" xlink:title=" ">
<polygon fill="none" stroke="black" points="641.37,-168.5 641.37,-187.5 804.37,-187.5 804.37,-168.5 641.37,-168.5"/>
<text text-anchor="middle" x="722.87" y="-175.5" font-family="Helvetica,sans-Serif" font-size="10.00">source/HkIEngineDamage.cpp</text>
</a>
</g>
</g>
<!-- Node5&#45;&gt;Node31 -->
<g id="edge38" class="edge">
<title>Node5&#45;&gt;Node31</title>
<path fill="none" stroke="midnightblue" d="M1775.36,-231.67C1624.09,-227.7 1180.47,-214.5 812.87,-188 810.2,-187.81 807.5,-187.6 804.77,-187.38"/>
<polygon fill="midnightblue" stroke="midnightblue" points="1775.65,-235.18 1785.74,-231.94 1775.83,-228.19 1775.65,-235.18"/>
</g>
<!-- Node32 -->
<g id="node32" class="node">
<title>Node32</title>
<g id="a_node32"><a xlink:href="_hk_i_engine_death_8cpp.html" target="_top" xlink:title=" ">
<polygon fill="none" stroke="black" points="822.37,-168.5 822.37,-187.5 973.37,-187.5 973.37,-168.5 822.37,-168.5"/>
<text text-anchor="middle" x="897.87" y="-175.5" font-family="Helvetica,sans-Serif" font-size="10.00">source/HkIEngineDeath.cpp</text>
</a>
</g>
</g>
<!-- Node5&#45;&gt;Node32 -->
<g id="edge39" class="edge">
<title>Node5&#45;&gt;Node32</title>
<path fill="none" stroke="midnightblue" d="M1775.3,-231.13C1641.51,-226.23 1281.94,-211.77 982.87,-188 979.76,-187.75 976.59,-187.49 973.39,-187.2"/>
<polygon fill="midnightblue" stroke="midnightblue" points="1775.55,-234.64 1785.67,-231.5 1775.81,-227.64 1775.55,-234.64"/>
</g>
<!-- Node33 -->
<g id="node33" class="node">
<title>Node33</title>
<g id="a_node33"><a xlink:href="_hk_i_engine_disconnect_8cpp.html" target="_top" xlink:title=" ">
<polygon fill="none" stroke="black" points="991.87,-168.5 991.87,-187.5 1167.87,-187.5 1167.87,-168.5 991.87,-168.5"/>
<text text-anchor="middle" x="1079.87" y="-175.5" font-family="Helvetica,sans-Serif" font-size="10.00">source/HkIEngineDisconnect.cpp</text>
</a>
</g>
</g>
<!-- Node5&#45;&gt;Node33 -->
<g id="edge40" class="edge">
<title>Node5&#45;&gt;Node33</title>
<path fill="none" stroke="midnightblue" d="M1775.53,-229.72C1664.34,-222.8 1399.67,-205.85 1177.87,-188 1174.63,-187.74 1171.33,-187.47 1168.01,-187.19"/>
<polygon fill="midnightblue" stroke="midnightblue" points="1775.6,-233.23 1785.8,-230.36 1776.04,-226.25 1775.6,-233.23"/>
</g>
<!-- Node34 -->
<g id="node34" class="node">
<title>Node34</title>
<g id="a_node34"><a xlink:href="_hk_init_8cpp.html" target="_top" xlink:title=" ">
<polygon fill="none" stroke="black" points="1186.37,-168.5 1186.37,-187.5 1287.37,-187.5 1287.37,-168.5 1186.37,-168.5"/>
<text text-anchor="middle" x="1236.87" y="-175.5" font-family="Helvetica,sans-Serif" font-size="10.00">source/HkInit.cpp</text>
</a>
</g>
</g>
<!-- Node5&#45;&gt;Node34 -->
<g id="edge42" class="edge">
<title>Node5&#45;&gt;Node34</title>
<path fill="none" stroke="midnightblue" d="M1775.64,-229.64C1679.74,-223.33 1471.63,-208.48 1296.87,-188 1293.83,-187.64 1290.72,-187.25 1287.57,-186.84"/>
<polygon fill="midnightblue" stroke="midnightblue" points="1775.46,-233.14 1785.67,-230.29 1775.92,-226.15 1775.46,-233.14"/>
</g>
<!-- Node35 -->
<g id="node35" class="node">
<title>Node35</title>
<g id="a_node35"><a xlink:href="_hk_timers_8cpp.html" target="_top" xlink:title=" ">
<polygon fill="none" stroke="black" points="1305.37,-168.5 1305.37,-187.5 1424.37,-187.5 1424.37,-168.5 1305.37,-168.5"/>
<text text-anchor="middle" x="1364.87" y="-175.5" font-family="Helvetica,sans-Serif" font-size="10.00">source/HkTimers.cpp</text>
</a>
</g>
</g>
<!-- Node5&#45;&gt;Node35 -->
<g id="edge44" class="edge">
<title>Node5&#45;&gt;Node35</title>
<path fill="none" stroke="midnightblue" d="M1775.32,-227.18C1699.34,-218.86 1555.9,-202.91 1433.87,-188 1430.87,-187.63 1427.8,-187.25 1424.7,-186.86"/>
<polygon fill="midnightblue" stroke="midnightblue" points="1775.26,-230.69 1785.59,-228.3 1776.03,-223.74 1775.26,-230.69"/>
</g>
<!-- Node36 -->
<g id="node36" class="node">
<title>Node36</title>
<g id="a_node36"><a xlink:href="_hk_user_cmd_8cpp.html" target="_top" xlink:title=" ">
<polygon fill="none" stroke="black" points="1442.37,-168.5 1442.37,-187.5 1573.37,-187.5 1573.37,-168.5 1442.37,-168.5"/>
<text text-anchor="middle" x="1507.87" y="-175.5" font-family="Helvetica,sans-Serif" font-size="10.00">source/HkUserCmd.cpp</text>
</a>
</g>
</g>
<!-- Node5&#45;&gt;Node36 -->
<g id="edge45" class="edge">
<title>Node5&#45;&gt;Node36</title>
<path fill="none" stroke="midnightblue" d="M1775.5,-224.02C1715.22,-213.88 1617.85,-197.5 1558.66,-187.54"/>
<polygon fill="midnightblue" stroke="midnightblue" points="1775.13,-227.51 1785.57,-225.72 1776.29,-220.61 1775.13,-227.51"/>
</g>
<!-- Node5&#45;&gt;Node37 -->
<g id="edge46" class="edge">
<title>Node5&#45;&gt;Node37</title>
<path fill="none" stroke="midnightblue" d="M1882.04,-224.37C1883.33,-224.24 1884.6,-224.11 1885.87,-224 2620,-158.37 2809.14,-246.64 3543.87,-188 3546.7,-187.77 3549.61,-187.51 3552.54,-187.21"/>
<polygon fill="midnightblue" stroke="midnightblue" points="1881.57,-220.9 1872.05,-225.55 1882.39,-227.85 1881.57,-220.9"/>
</g>
<!-- Node5&#45;&gt;Node38 -->
<g id="edge47" class="edge">
<title>Node5&#45;&gt;Node38</title>
<path fill="none" stroke="midnightblue" d="M1882.43,-227.23C1895.94,-225.96 1910.42,-224.77 1923.87,-224 2700.52,-179.28 2898.88,-255.79 3673.87,-188 3676.91,-187.73 3680.04,-187.41 3683.19,-187.04"/>
<polygon fill="midnightblue" stroke="midnightblue" points="1881.94,-223.76 1872.32,-228.2 1882.61,-230.73 1881.94,-223.76"/>
</g>
<!-- Node5&#45;&gt;Node39 -->
<g id="edge48" class="edge">
<title>Node5&#45;&gt;Node39</title>
<path fill="none" stroke="midnightblue" d="M1882.06,-228.82C1906.38,-227.05 1935.57,-225.15 1961.87,-224 2773.69,-188.56 2979.19,-243.85 3789.87,-188 3792.65,-187.81 3795.49,-187.59 3798.35,-187.34"/>
<polygon fill="midnightblue" stroke="midnightblue" points="1881.68,-225.33 1871.96,-229.56 1882.19,-232.31 1881.68,-225.33"/>
</g>
<!-- Node6&#45;&gt;Node2 -->
<g id="edge6" class="edge">
<title>Node6&#45;&gt;Node2</title>
<path fill="none" stroke="midnightblue" d="M1581.29,-167.98C1343.64,-145.69 668.47,-128.77 472.67,-124.22"/>
<polygon fill="midnightblue" stroke="midnightblue" points="1580.97,-171.47 1591.26,-168.95 1581.64,-164.5 1580.97,-171.47"/>
</g>
<!-- Node7 -->
<g id="node7" class="node">
<title>Node7</title>
<g id="a_node7"><a xlink:href="_c_console_8h.html" target="_top" xlink:title=" ">
<polygon fill="none" stroke="black" points="1247.37,-112.5 1247.37,-131.5 1354.37,-131.5 1354.37,-112.5 1247.37,-112.5"/>
<text text-anchor="middle" x="1300.87" y="-119.5" font-family="Helvetica,sans-Serif" font-size="10.00">source/CConsole.h</text>
</a>
</g>
</g>
<!-- Node6&#45;&gt;Node7 -->
<g id="edge7" class="edge">
<title>Node6&#45;&gt;Node7</title>
<path fill="none" stroke="midnightblue" d="M1581.15,-167.73C1496.34,-154.15 1408.97,-140.22 1354.41,-131.53"/>
<polygon fill="midnightblue" stroke="midnightblue" points="1580.78,-171.21 1591.21,-169.34 1581.89,-164.3 1580.78,-171.21"/>
</g>
<!-- Node9 -->
<g id="node9" class="node">
<title>Node9</title>
<g id="a_node9"><a xlink:href="_c_in_game_8h.html" target="_top" xlink:title=" ">
<polygon fill="none" stroke="black" points="1442.87,-112.5 1442.87,-131.5 1548.87,-131.5 1548.87,-112.5 1442.87,-112.5"/>
<text text-anchor="middle" x="1495.87" y="-119.5" font-family="Helvetica,sans-Serif" font-size="10.00">source/CInGame.h</text>
</a>
</g>
</g>
<!-- Node6&#45;&gt;Node9 -->
<g id="edge10" class="edge">
<title>Node6&#45;&gt;Node9</title>
<path fill="none" stroke="midnightblue" d="M1606.84,-164.91C1579.95,-154.75 1542.22,-140.51 1518.42,-131.52"/>
<polygon fill="midnightblue" stroke="midnightblue" points="1605.62,-168.19 1616.21,-168.44 1608.09,-161.64 1605.62,-168.19"/>
</g>
<!-- Node13 -->
<g id="node13" class="node">
<title>Node13</title>
<g id="a_node13"><a xlink:href="_c_socket_8h.html" target="_top" xlink:title=" ">
<polygon fill="none" stroke="black" points="908.87,-112.5 908.87,-131.5 1008.87,-131.5 1008.87,-112.5 908.87,-112.5"/>
<text text-anchor="middle" x="958.87" y="-119.5" font-family="Helvetica,sans-Serif" font-size="10.00">source/CSocket.h</text>
</a>
</g>
</g>
<!-- Node6&#45;&gt;Node13 -->
<g id="edge14" class="edge">
<title>Node6&#45;&gt;Node13</title>
<path fill="none" stroke="midnightblue" d="M1581.19,-167.9C1362.64,-142.9 1113.77,-129.9 1009.15,-125.13"/>
<polygon fill="midnightblue" stroke="midnightblue" points="1580.91,-171.39 1591.25,-169.06 1581.71,-164.43 1580.91,-171.39"/>
</g>
<!-- Node6&#45;&gt;Node15 -->
<g id="edge17" class="edge">
<title>Node6&#45;&gt;Node15</title>
<path fill="none" stroke="midnightblue" d="M1641.32,-158.1C1642.48,-149.14 1643.81,-138.86 1644.73,-131.75"/>
<polygon fill="midnightblue" stroke="midnightblue" points="1637.84,-157.72 1640.02,-168.08 1644.78,-158.62 1637.84,-157.72"/>
</g>
<!-- Node7&#45;&gt;Node4 -->
<g id="edge9" class="edge">
<title>Node7&#45;&gt;Node4</title>
<path fill="none" stroke="midnightblue" d="M1236.87,-117.27C1064.13,-107.19 590.53,-79.58 429.38,-70.18"/>
<polygon fill="midnightblue" stroke="midnightblue" points="1236.89,-120.78 1247.08,-117.86 1237.3,-113.79 1236.89,-120.78"/>
</g>
<!-- Node8 -->
<g id="node8" class="node">
<title>Node8</title>
<g id="a_node8"><a xlink:href="_c_console_8cpp.html" target="_top" xlink:title=" ">
<polygon fill="none" stroke="black" points="1241.87,-56.5 1241.87,-75.5 1359.87,-75.5 1359.87,-56.5 1241.87,-56.5"/>
<text text-anchor="middle" x="1300.87" y="-63.5" font-family="Helvetica,sans-Serif" font-size="10.00">source/CConsole.cpp</text>
</a>
</g>
</g>
<!-- Node7&#45;&gt;Node8 -->
<g id="edge8" class="edge">
<title>Node7&#45;&gt;Node8</title>
<path fill="none" stroke="midnightblue" d="M1300.87,-101.8C1300.87,-92.91 1300.87,-82.78 1300.87,-75.75"/>
<polygon fill="midnightblue" stroke="midnightblue" points="1297.37,-102.08 1300.87,-112.08 1304.37,-102.08 1297.37,-102.08"/>
</g>
<!-- Node9&#45;&gt;Node10 -->
<g id="edge11" class="edge">
<title>Node9&#45;&gt;Node10</title>
<path fill="none" stroke="midnightblue" d="M1509.91,-104.14C1517.75,-94.74 1527.2,-83.4 1533.57,-75.75"/>
<polygon fill="midnightblue" stroke="midnightblue" points="1507.01,-102.16 1503.3,-112.08 1512.39,-106.64 1507.01,-102.16"/>
</g>
<!-- Node9&#45;&gt;Node11 -->
<g id="edge12" class="edge">
<title>Node9&#45;&gt;Node11</title>
<path fill="none" stroke="midnightblue" d="M1543.27,-110.15C1587.86,-99.95 1653.72,-84.88 1694.65,-75.52"/>
<polygon fill="midnightblue" stroke="midnightblue" points="1542.23,-106.8 1533.26,-112.44 1543.79,-113.62 1542.23,-106.8"/>
</g>
<!-- Node11&#45;&gt;Node12 -->
<g id="edge13" class="edge">
<title>Node11&#45;&gt;Node12</title>
<path fill="none" stroke="midnightblue" d="M1756.2,-51.45C1774.11,-41.48 1797.92,-28.23 1813.32,-19.65"/>
<polygon fill="midnightblue" stroke="midnightblue" points="1754.49,-48.4 1747.45,-56.32 1757.89,-54.52 1754.49,-48.4"/>
</g>
<!-- Node13&#45;&gt;Node4 -->
<g id="edge16" class="edge">
<title>Node13&#45;&gt;Node4</title>
<path fill="none" stroke="midnightblue" d="M898.54,-115.42C784.52,-104.88 539.04,-82.18 429.53,-72.05"/>
<polygon fill="midnightblue" stroke="midnightblue" points="898.54,-118.94 908.82,-116.37 899.19,-111.97 898.54,-118.94"/>
</g>
<!-- Node14 -->
<g id="node14" class="node">
<title>Node14</title>
<g id="a_node14"><a xlink:href="_c_socket_8cpp.html" target="_top" xlink:title=" ">
<polygon fill="none" stroke="black" points="903.37,-56.5 903.37,-75.5 1014.37,-75.5 1014.37,-56.5 903.37,-56.5"/>
<text text-anchor="middle" x="958.87" y="-63.5" font-family="Helvetica,sans-Serif" font-size="10.00">source/CSocket.cpp</text>
</a>
</g>
</g>
<!-- Node13&#45;&gt;Node14 -->
<g id="edge15" class="edge">
<title>Node13&#45;&gt;Node14</title>
<path fill="none" stroke="midnightblue" d="M958.87,-101.8C958.87,-92.91 958.87,-82.78 958.87,-75.75"/>
<polygon fill="midnightblue" stroke="midnightblue" points="955.37,-102.08 958.87,-112.08 962.37,-102.08 955.37,-102.08"/>
</g>
<!-- Node29&#45;&gt;Node12 -->
<g id="edge36" class="edge">
<title>Node29&#45;&gt;Node12</title>
<path fill="none" stroke="midnightblue" d="M2295.64,-110.31C2193.25,-88.53 1962.19,-39.37 1868.98,-19.53"/>
<polygon fill="midnightblue" stroke="midnightblue" points="2295.22,-113.8 2305.73,-112.46 2296.68,-106.96 2295.22,-113.8"/>
</g>
</g>
</svg>
