<?xml version="1.0" encoding="UTF-8" standalone="no"?>
<!DOCTYPE svg PUBLIC "-//W3C//DTD SVG 1.1//EN"
 "http://www.w3.org/Graphics/SVG/1.1/DTD/svg11.dtd">
<!-- Generated by graphviz version 2.43.0 (0)
 -->
<!-- Title: Graphical Class Hierarchy Pages: 1 -->
<svg width="292pt" height="1842pt"
 viewBox="0.00 0.00 292.00 1841.50" xmlns="http://www.w3.org/2000/svg" xmlns:xlink="http://www.w3.org/1999/xlink">
<g id="graph0" class="graph" transform="scale(1 1) rotate(0) translate(4 1837.5)">
<title>Graphical Class Hierarchy</title>
<!-- Node0 -->
<g id="node1" class="node">
<title>Node0</title>
<g id="a_node1"><a xlink:title=" ">
<polygon fill="#e0e0e0" stroke="#999999" points="71,-926.5 0,-926.5 0,-907.5 71,-907.5 71,-926.5"/>
<text text-anchor="middle" x="35.5" y="-914.5" font-family="Helvetica,sans-Serif" font-size="10.00">Reflectable</text>
</a>
</g>
</g>
<!-- Node1 -->
<g id="node2" class="node">
<title>Node1</title>
<g id="a_node2"><a xlink:href="struct_authenticated_accounts.html" target="_top" xlink:title=" ">
<polygon fill="white" stroke="#666666" points="260,-1833.5 131,-1833.5 131,-1814.5 260,-1814.5 260,-1833.5"/>
<text text-anchor="middle" x="195.5" y="-1821.5" font-family="Helvetica,sans-Serif" font-size="10.00">AuthenticatedAccounts</text>
</a>
</g>
</g>
<!-- Node0&#45;&gt;Node1 -->
<g id="edge1" class="edge">
<title>Node0&#45;&gt;Node1</title>
<path fill="none" stroke="#63b8ff" d="M36.67,-936.8C37.93,-1061.8 47.49,-1738.63 107,-1806 113.37,-1813.21 121.78,-1817.98 130.88,-1821.07"/>
<polygon fill="#63b8ff" stroke="#63b8ff" points="40.17,-936.7 36.58,-926.74 33.17,-936.77 40.17,-936.7"/>
</g>
<!-- Node2 -->
<g id="node3" class="node">
<title>Node2</title>
<g id="a_node3"><a xlink:href="struct_config.html" target="_top" xlink:title=" ">
<polygon fill="white" stroke="#666666" points="219,-1796.5 172,-1796.5 172,-1777.5 219,-1777.5 219,-1796.5"/>
<text text-anchor="middle" x="195.5" y="-1784.5" font-family="Helvetica,sans-Serif" font-size="10.00">Config</text>
</a>
</g>
</g>
<!-- Node0&#45;&gt;Node2 -->
<g id="edge2" class="edge">
<title>Node0&#45;&gt;Node2</title>
<path fill="none" stroke="#63b8ff" d="M36.74,-936.72C38.42,-1058.45 49.95,-1704.64 107,-1769 122.95,-1786.99 151.66,-1789.79 171.83,-1789.21"/>
<polygon fill="#63b8ff" stroke="#63b8ff" points="40.24,-936.57 36.61,-926.61 33.24,-936.66 40.24,-936.57"/>
</g>
<!-- Node3 -->
<g id="node4" class="node">
<title>Node3</title>
<g id="a_node4"><a xlink:href="struct_i_p_bans.html" target="_top" xlink:title=" ">
<polygon fill="white" stroke="#666666" points="220.5,-1759.5 170.5,-1759.5 170.5,-1740.5 220.5,-1740.5 220.5,-1759.5"/>
<text text-anchor="middle" x="195.5" y="-1747.5" font-family="Helvetica,sans-Serif" font-size="10.00">IPBans</text>
</a>
</g>
</g>
<!-- Node0&#45;&gt;Node3 -->
<g id="edge3" class="edge">
<title>Node0&#45;&gt;Node3</title>
<path fill="none" stroke="#63b8ff" d="M36.82,-936.96C38.94,-1056.14 52.47,-1670.71 107,-1732 122.57,-1749.5 150.21,-1752.61 170.27,-1752.23"/>
<polygon fill="#63b8ff" stroke="#63b8ff" points="40.32,-936.68 36.65,-926.74 33.32,-936.8 40.32,-936.68"/>
</g>
<!-- Node4 -->
<g id="node5" class="node">
<title>Node4</title>
<g id="a_node5"><a xlink:href="struct_login_id_bans.html" target="_top" xlink:title=" ">
<polygon fill="white" stroke="#666666" points="233.5,-1722.5 157.5,-1722.5 157.5,-1703.5 233.5,-1703.5 233.5,-1722.5"/>
<text text-anchor="middle" x="195.5" y="-1710.5" font-family="Helvetica,sans-Serif" font-size="10.00">LoginIdBans</text>
</a>
</g>
</g>
<!-- Node0&#45;&gt;Node4 -->
<g id="edge4" class="edge">
<title>Node0&#45;&gt;Node4</title>
<path fill="none" stroke="#63b8ff" d="M36.91,-936.76C39.46,-1052.25 54.91,-1636.7 107,-1695 119.4,-1708.88 139.4,-1713.7 157.15,-1714.91"/>
<polygon fill="#63b8ff" stroke="#63b8ff" points="40.4,-936.49 36.69,-926.56 33.4,-936.64 40.4,-936.49"/>
</g>
<!-- Node5 -->
<g id="node6" class="node">
<title>Node5</title>
<g id="a_node6"><a xlink:href="struct_plugins_1_1_arena_1_1_config.html" target="_top" xlink:title="Config data for this plugin.">
<polygon fill="white" stroke="#666666" points="257,-1685.5 134,-1685.5 134,-1666.5 257,-1666.5 257,-1685.5"/>
<text text-anchor="middle" x="195.5" y="-1673.5" font-family="Helvetica,sans-Serif" font-size="10.00">Plugins::Arena::Config</text>
</a>
</g>
</g>
<!-- Node0&#45;&gt;Node5 -->
<g id="edge5" class="edge">
<title>Node0&#45;&gt;Node5</title>
<path fill="none" stroke="#63b8ff" d="M37,-936.86C40.03,-1049.29 57.4,-1602.73 107,-1658 114.04,-1665.85 123.52,-1670.8 133.64,-1673.83"/>
<polygon fill="#63b8ff" stroke="#63b8ff" points="40.5,-936.53 36.73,-926.63 33.5,-936.71 40.5,-936.53"/>
</g>
<!-- Node6 -->
<g id="node7" class="node">
<title>Node6</title>
<g id="a_node7"><a xlink:href="struct_plugins_1_1_autobuy_1_1_config.html" target="_top" xlink:title="Configurable fields for this plugin.">
<polygon fill="white" stroke="#666666" points="262.5,-1648.5 128.5,-1648.5 128.5,-1629.5 262.5,-1629.5 262.5,-1648.5"/>
<text text-anchor="middle" x="195.5" y="-1636.5" font-family="Helvetica,sans-Serif" font-size="10.00">Plugins::Autobuy::Config</text>
</a>
</g>
</g>
<!-- Node0&#45;&gt;Node6 -->
<g id="edge6" class="edge">
<title>Node0&#45;&gt;Node6</title>
<path fill="none" stroke="#63b8ff" d="M37.12,-936.85C40.7,-1045.73 60.22,-1567.56 107,-1620 112.8,-1626.5 120.24,-1631.06 128.34,-1634.22"/>
<polygon fill="#63b8ff" stroke="#63b8ff" points="40.61,-936.51 36.79,-926.63 33.61,-936.74 40.61,-936.51"/>
</g>
<!-- Node7 -->
<g id="node8" class="node">
<title>Node7</title>
<g id="a_node8"><a xlink:href="struct_plugins_1_1_bounty_hunt_1_1_config.html" target="_top" xlink:title="Configurable fields for this plugin.">
<polygon fill="white" stroke="#666666" points="253.5,-1611 137.5,-1611 137.5,-1581 253.5,-1581 253.5,-1611"/>
<text text-anchor="start" x="145.5" y="-1599" font-family="Helvetica,sans-Serif" font-size="10.00">Plugins::BountyHunt</text>
<text text-anchor="middle" x="195.5" y="-1588" font-family="Helvetica,sans-Serif" font-size="10.00">::Config</text>
</a>
</g>
</g>
<!-- Node0&#45;&gt;Node7 -->
<g id="edge7" class="edge">
<title>Node0&#45;&gt;Node7</title>
<path fill="none" stroke="#63b8ff" d="M37.33,-937.07C41.84,-1041.78 64.75,-1522.37 107,-1572 114.76,-1581.12 125.62,-1586.94 137.06,-1590.61"/>
<polygon fill="#63b8ff" stroke="#63b8ff" points="40.82,-936.77 36.9,-926.93 33.83,-937.07 40.82,-936.77"/>
</g>
<!-- Node8 -->
<g id="node9" class="node">
<title>Node8</title>
<g id="a_node9"><a xlink:href="struct_plugins_1_1_cargo_drop_1_1_config.html" target="_top" xlink:title="Config data for this plugin.">
<polygon fill="white" stroke="#666666" points="250.5,-1563 140.5,-1563 140.5,-1533 250.5,-1533 250.5,-1563"/>
<text text-anchor="start" x="148.5" y="-1551" font-family="Helvetica,sans-Serif" font-size="10.00">Plugins::CargoDrop</text>
<text text-anchor="middle" x="195.5" y="-1540" font-family="Helvetica,sans-Serif" font-size="10.00">::Config</text>
</a>
</g>
</g>
<!-- Node0&#45;&gt;Node8 -->
<g id="edge8" class="edge">
<title>Node0&#45;&gt;Node8</title>
<path fill="none" stroke="#63b8ff" d="M37.5,-936.83C42.68,-1036.34 67.78,-1478.31 107,-1524 115.52,-1533.92 127.71,-1539.93 140.3,-1543.52"/>
<polygon fill="#63b8ff" stroke="#63b8ff" points="40.99,-936.47 36.98,-926.67 33.99,-936.83 40.99,-936.47"/>
</g>
<!-- Node9 -->
<g id="node10" class="node">
<title>Node9</title>
<g id="a_node10"><a xlink:href="struct_plugins_1_1_cash_manager_1_1_config.html" target="_top" xlink:title=" ">
<polygon fill="white" stroke="#666666" points="258,-1515 133,-1515 133,-1485 258,-1485 258,-1515"/>
<text text-anchor="start" x="141" y="-1503" font-family="Helvetica,sans-Serif" font-size="10.00">Plugins::CashManager</text>
<text text-anchor="middle" x="195.5" y="-1492" font-family="Helvetica,sans-Serif" font-size="10.00">::Config</text>
</a>
</g>
</g>
<!-- Node0&#45;&gt;Node9 -->
<g id="edge9" class="edge">
<title>Node0&#45;&gt;Node9</title>
<path fill="none" stroke="#63b8ff" d="M36.17,-936.93C35.08,-1026.75 35.18,-1393.16 107,-1476 113.81,-1483.86 122.92,-1489.26 132.7,-1492.94"/>
<polygon fill="#63b8ff" stroke="#63b8ff" points="39.67,-936.81 36.31,-926.76 32.67,-936.71 39.67,-936.81"/>
</g>
<!-- Node10 -->
<g id="node11" class="node">
<title>Node10</title>
<g id="a_node11"><a xlink:href="struct_plugins_1_1_con_data_1_1_config.html" target="_top" xlink:title=" ">
<polygon fill="white" stroke="#666666" points="264,-1466.5 127,-1466.5 127,-1447.5 264,-1447.5 264,-1466.5"/>
<text text-anchor="middle" x="195.5" y="-1454.5" font-family="Helvetica,sans-Serif" font-size="10.00">Plugins::ConData::Config</text>
</a>
</g>
</g>
<!-- Node0&#45;&gt;Node10 -->
<g id="edge10" class="edge">
<title>Node0&#45;&gt;Node10</title>
<path fill="none" stroke="#63b8ff" d="M36.27,-936.74C35.7,-1022.66 37.87,-1363.16 107,-1438 112.48,-1443.94 119.35,-1448.25 126.81,-1451.35"/>
<polygon fill="#63b8ff" stroke="#63b8ff" points="39.77,-936.58 36.36,-926.55 32.77,-936.52 39.77,-936.58"/>
</g>
<!-- Node11 -->
<g id="node12" class="node">
<title>Node11</title>
<g id="a_node12"><a xlink:href="struct_plugins_1_1_death_penalty_1_1_config.html" target="_top" xlink:title="Configurable fields for this plugin.">
<polygon fill="white" stroke="#666666" points="257.5,-1429 133.5,-1429 133.5,-1399 257.5,-1399 257.5,-1429"/>
<text text-anchor="start" x="141.5" y="-1417" font-family="Helvetica,sans-Serif" font-size="10.00">Plugins::DeathPenalty</text>
<text text-anchor="middle" x="195.5" y="-1406" font-family="Helvetica,sans-Serif" font-size="10.00">::Config</text>
</a>
</g>
</g>
<!-- Node0&#45;&gt;Node11 -->
<g id="edge11" class="edge">
<title>Node0&#45;&gt;Node11</title>
<path fill="none" stroke="#63b8ff" d="M36.68,-937.12C37.8,-1018.38 46.09,-1321.32 107,-1390 114,-1397.9 123.33,-1403.3 133.29,-1406.98"/>
<polygon fill="#63b8ff" stroke="#63b8ff" points="40.17,-936.75 36.56,-926.79 33.17,-936.83 40.17,-936.75"/>
</g>
<!-- Node12 -->
<g id="node13" class="node">
<title>Node12</title>
<g id="a_node13"><a xlink:href="struct_plugins_1_1_event_1_1_config.html" target="_top" xlink:title="Configurable fields for this plugin.">
<polygon fill="white" stroke="#666666" points="256.5,-1380.5 134.5,-1380.5 134.5,-1361.5 256.5,-1361.5 256.5,-1380.5"/>
<text text-anchor="middle" x="195.5" y="-1368.5" font-family="Helvetica,sans-Serif" font-size="10.00">Plugins::Event::Config</text>
</a>
</g>
</g>
<!-- Node0&#45;&gt;Node12 -->
<g id="edge12" class="edge">
<title>Node0&#45;&gt;Node12</title>
<path fill="none" stroke="#63b8ff" d="M36.86,-937.06C38.67,-1014.27 49.17,-1291.01 107,-1352 114.38,-1359.78 124.14,-1364.75 134.46,-1367.86"/>
<polygon fill="#63b8ff" stroke="#63b8ff" points="40.36,-936.72 36.65,-926.8 33.36,-936.87 40.36,-936.72"/>
</g>
<!-- Node13 -->
<g id="node14" class="node">
<title>Node13</title>
<g id="a_node14"><a xlink:href="struct_plugins_1_1_event_1_1_config_1_1_c_a_r_g_o___m_i_s_s_i_o_n___r_e_f_l_e_c_t_a_b_l_e.html" target="_top" xlink:title=" ">
<polygon fill="white" stroke="#666666" points="284,-1343 107,-1343 107,-1313 284,-1313 284,-1343"/>
<text text-anchor="start" x="115" y="-1331" font-family="Helvetica,sans-Serif" font-size="10.00">Plugins::Event::Config</text>
<text text-anchor="middle" x="195.5" y="-1320" font-family="Helvetica,sans-Serif" font-size="10.00">::CARGO_MISSION_REFLECTABLE</text>
</a>
</g>
</g>
<!-- Node0&#45;&gt;Node13 -->
<g id="edge13" class="edge">
<title>Node0&#45;&gt;Node13</title>
<path fill="none" stroke="#63b8ff" d="M37.41,-937.01C41.04,-1008.41 56.85,-1249.26 107,-1304 110.09,-1307.37 113.6,-1310.28 117.39,-1312.8"/>
<polygon fill="#63b8ff" stroke="#63b8ff" points="40.89,-936.54 36.91,-926.72 33.89,-936.88 40.89,-936.54"/>
</g>
<!-- Node14 -->
<g id="node15" class="node">
<title>Node14</title>
<g id="a_node15"><a xlink:href="struct_plugins_1_1_event_1_1_config_1_1_n_p_c___m_i_s_s_i_o_n___r_e_f_l_e_c_t_a_b_l_e.html" target="_top" xlink:title=" ">
<polygon fill="white" stroke="#666666" points="276.5,-1295 114.5,-1295 114.5,-1265 276.5,-1265 276.5,-1295"/>
<text text-anchor="start" x="122.5" y="-1283" font-family="Helvetica,sans-Serif" font-size="10.00">Plugins::Event::Config</text>
<text text-anchor="middle" x="195.5" y="-1272" font-family="Helvetica,sans-Serif" font-size="10.00">::NPC_MISSION_REFLECTABLE</text>
</a>
</g>
</g>
<!-- Node0&#45;&gt;Node14 -->
<g id="edge14" class="edge">
<title>Node0&#45;&gt;Node14</title>
<path fill="none" stroke="#63b8ff" d="M37.97,-937.03C43.17,-1002.55 62.84,-1208.98 107,-1256 110.24,-1259.44 113.91,-1262.41 117.89,-1264.97"/>
<polygon fill="#63b8ff" stroke="#63b8ff" points="41.44,-936.52 37.19,-926.82 34.46,-937.05 41.44,-936.52"/>
</g>
<!-- Node15 -->
<g id="node16" class="node">
<title>Node15</title>
<g id="a_node16"><a xlink:href="struct_plugins_1_1_kill_tracker_1_1_config.html" target="_top" xlink:title="Configurable fields for this plugin.">
<polygon fill="white" stroke="#666666" points="249.5,-1247 141.5,-1247 141.5,-1217 249.5,-1217 249.5,-1247"/>
<text text-anchor="start" x="149.5" y="-1235" font-family="Helvetica,sans-Serif" font-size="10.00">Plugins::KillTracker</text>
<text text-anchor="middle" x="195.5" y="-1224" font-family="Helvetica,sans-Serif" font-size="10.00">::Config</text>
</a>
</g>
</g>
<!-- Node0&#45;&gt;Node15 -->
<g id="edge15" class="edge">
<title>Node0&#45;&gt;Node15</title>
<path fill="none" stroke="#63b8ff" d="M38.69,-936.82C45.59,-995.81 68.73,-1168.57 107,-1208 116.11,-1217.38 128.5,-1223.2 141.1,-1226.79"/>
<polygon fill="#63b8ff" stroke="#63b8ff" points="42.14,-936.16 37.53,-926.62 35.18,-936.95 42.14,-936.16"/>
</g>
<!-- Node16 -->
<g id="node17" class="node">
<title>Node16</title>
<g id="a_node17"><a xlink:href="struct_plugins_1_1_kill_tracker_1_1_kill_message.html" target="_top" xlink:title="Struct to hold the Kill Streaks.">
<polygon fill="white" stroke="#666666" points="249.5,-1199 141.5,-1199 141.5,-1169 249.5,-1169 249.5,-1199"/>
<text text-anchor="start" x="149.5" y="-1187" font-family="Helvetica,sans-Serif" font-size="10.00">Plugins::KillTracker</text>
<text text-anchor="middle" x="195.5" y="-1176" font-family="Helvetica,sans-Serif" font-size="10.00">::KillMessage</text>
</a>
</g>
</g>
<!-- Node0&#45;&gt;Node16 -->
<g id="edge16" class="edge">
<title>Node0&#45;&gt;Node16</title>
<path fill="none" stroke="#63b8ff" d="M36.15,-936.64C36.45,-982.55 43.83,-1097.75 107,-1160 116.31,-1169.18 128.78,-1174.93 141.39,-1178.51"/>
<polygon fill="#63b8ff" stroke="#63b8ff" points="39.65,-936.55 36.2,-926.53 32.65,-936.51 39.65,-936.55"/>
</g>
<!-- Node17 -->
<g id="node18" class="node">
<title>Node17</title>
<g id="a_node18"><a xlink:href="struct_plugins_1_1_light_control_1_1_config.html" target="_top" xlink:title="Config data for this plugin.">
<polygon fill="white" stroke="#666666" points="254,-1151 137,-1151 137,-1121 254,-1121 254,-1151"/>
<text text-anchor="start" x="145" y="-1139" font-family="Helvetica,sans-Serif" font-size="10.00">Plugins::LightControl</text>
<text text-anchor="middle" x="195.5" y="-1128" font-family="Helvetica,sans-Serif" font-size="10.00">::Config</text>
</a>
</g>
</g>
<!-- Node0&#45;&gt;Node17 -->
<g id="edge17" class="edge">
<title>Node0&#45;&gt;Node17</title>
<path fill="none" stroke="#63b8ff" d="M37.83,-936.96C41.55,-976.36 55.5,-1064.42 107,-1112 115.33,-1119.7 125.9,-1124.96 136.78,-1128.55"/>
<polygon fill="#63b8ff" stroke="#63b8ff" points="41.3,-936.48 37,-926.8 34.33,-937.05 41.3,-936.48"/>
</g>
<!-- Node18 -->
<g id="node19" class="node">
<title>Node18</title>
<g id="a_node19"><a xlink:href="struct_plugins_1_1_mark_1_1_config.html" target="_top" xlink:title=" ">
<polygon fill="white" stroke="#666666" points="255,-1102.5 136,-1102.5 136,-1083.5 255,-1083.5 255,-1102.5"/>
<text text-anchor="middle" x="195.5" y="-1090.5" font-family="Helvetica,sans-Serif" font-size="10.00">Plugins::Mark::Config</text>
</a>
</g>
</g>
<!-- Node0&#45;&gt;Node18 -->
<g id="edge18" class="edge">
<title>Node0&#45;&gt;Node18</title>
<path fill="none" stroke="#63b8ff" d="M39.4,-936.67C45.47,-970.51 62.83,-1039.5 107,-1075 115.34,-1081.7 125.54,-1086.1 136,-1088.95"/>
<polygon fill="#63b8ff" stroke="#63b8ff" points="42.83,-935.94 37.75,-926.64 35.92,-937.08 42.83,-935.94"/>
</g>
<!-- Node19 -->
<g id="node20" class="node">
<title>Node19</title>
<g id="a_node20"><a xlink:href="struct_plugins_1_1_message_1_1_config.html" target="_top" xlink:title="Config data for this plugin.">
<polygon fill="white" stroke="#666666" points="264.5,-1065.5 126.5,-1065.5 126.5,-1046.5 264.5,-1046.5 264.5,-1065.5"/>
<text text-anchor="middle" x="195.5" y="-1053.5" font-family="Helvetica,sans-Serif" font-size="10.00">Plugins::Message::Config</text>
</a>
</g>
</g>
<!-- Node0&#45;&gt;Node19 -->
<g id="edge19" class="edge">
<title>Node0&#45;&gt;Node19</title>
<path fill="none" stroke="#63b8ff" d="M42.38,-936.42C51.59,-963.39 72.08,-1011.72 107,-1037 112.79,-1041.19 119.33,-1044.49 126.15,-1047.09"/>
<polygon fill="#63b8ff" stroke="#63b8ff" points="45.61,-935.04 39.21,-926.6 38.95,-937.19 45.61,-935.04"/>
</g>
<!-- Node20 -->
<g id="node21" class="node">
<title>Node20</title>
<g id="a_node21"><a xlink:href="struct_plugins_1_1_mining_control_1_1_config.html" target="_top" xlink:title="Config data for this plugin.">
<polygon fill="white" stroke="#666666" points="258.5,-1028 132.5,-1028 132.5,-998 258.5,-998 258.5,-1028"/>
<text text-anchor="start" x="140.5" y="-1016" font-family="Helvetica,sans-Serif" font-size="10.00">Plugins::MiningControl</text>
<text text-anchor="middle" x="195.5" y="-1005" font-family="Helvetica,sans-Serif" font-size="10.00">::Config</text>
</a>
</g>
</g>
<!-- Node0&#45;&gt;Node20 -->
<g id="edge20" class="edge">
<title>Node0&#45;&gt;Node20</title>
<path fill="none" stroke="#63b8ff" d="M49.37,-934.75C62.19,-951.17 83.34,-975.08 107,-989 114.74,-993.55 123.37,-997.27 132.11,-1000.29"/>
<polygon fill="#63b8ff" stroke="#63b8ff" points="51.96,-932.37 43.14,-926.5 46.38,-936.59 51.96,-932.37"/>
</g>
<!-- Node21 -->
<g id="node22" class="node">
<title>Node21</title>
<g id="a_node22"><a xlink:href="struct_plugins_1_1_mining_control_1_1_mining_stats.html" target="_top" xlink:title="A struct to load in the stats config file across restarts.">
<polygon fill="white" stroke="#666666" points="258.5,-980 132.5,-980 132.5,-950 258.5,-950 258.5,-980"/>
<text text-anchor="start" x="140.5" y="-968" font-family="Helvetica,sans-Serif" font-size="10.00">Plugins::MiningControl</text>
<text text-anchor="middle" x="195.5" y="-957" font-family="Helvetica,sans-Serif" font-size="10.00">::MiningStats</text>
</a>
</g>
</g>
<!-- Node0&#45;&gt;Node21 -->
<g id="edge21" class="edge">
<title>Node0&#45;&gt;Node21</title>
<path fill="none" stroke="#63b8ff" d="M73.11,-929.93C83.97,-933.64 95.93,-937.6 107,-941 116.79,-944.01 127.25,-947.03 137.4,-949.87"/>
<polygon fill="#63b8ff" stroke="#63b8ff" points="74.09,-926.57 63.49,-926.62 71.81,-933.18 74.09,-926.57"/>
</g>
<!-- Node22 -->
<g id="node23" class="node">
<title>Node22</title>
<g id="a_node23"><a xlink:href="struct_plugins_1_1_mining_control_1_1_player_bonus.html" target="_top" xlink:title="A struct that defines a mining bonus to a player if they meet certain criteria.">
<polygon fill="white" stroke="#666666" points="258.5,-932 132.5,-932 132.5,-902 258.5,-902 258.5,-932"/>
<text text-anchor="start" x="140.5" y="-920" font-family="Helvetica,sans-Serif" font-size="10.00">Plugins::MiningControl</text>
<text text-anchor="middle" x="195.5" y="-909" font-family="Helvetica,sans-Serif" font-size="10.00">::PlayerBonus</text>
</a>
</g>
</g>
<!-- Node0&#45;&gt;Node22 -->
<g id="edge22" class="edge">
<title>Node0&#45;&gt;Node22</title>
<path fill="none" stroke="#63b8ff" d="M81.22,-917C97.06,-917 115.18,-917 132.22,-917"/>
<polygon fill="#63b8ff" stroke="#63b8ff" points="81.17,-913.5 71.17,-917 81.17,-920.5 81.17,-913.5"/>
</g>
<!-- Node23 -->
<g id="node24" class="node">
<title>Node23</title>
<g id="a_node24"><a xlink:href="struct_plugins_1_1_mining_control_1_1_zone_bonus.html" target="_top" xlink:title="A struct that defines a mining bonus for a certain zone in space.">
<polygon fill="white" stroke="#666666" points="258.5,-884 132.5,-884 132.5,-854 258.5,-854 258.5,-884"/>
<text text-anchor="start" x="140.5" y="-872" font-family="Helvetica,sans-Serif" font-size="10.00">Plugins::MiningControl</text>
<text text-anchor="middle" x="195.5" y="-861" font-family="Helvetica,sans-Serif" font-size="10.00">::ZoneBonus</text>
</a>
</g>
</g>
<!-- Node0&#45;&gt;Node23 -->
<g id="edge23" class="edge">
<title>Node0&#45;&gt;Node23</title>
<path fill="none" stroke="#63b8ff" d="M73.11,-904.07C83.97,-900.36 95.93,-896.4 107,-893 116.79,-889.99 127.25,-886.97 137.4,-884.13"/>
<polygon fill="#63b8ff" stroke="#63b8ff" points="71.81,-900.82 63.49,-907.38 74.09,-907.43 71.81,-900.82"/>
</g>
<!-- Node24 -->
<g id="node25" class="node">
<title>Node24</title>
<g id="a_node25"><a xlink:href="struct_plugins_1_1_mining_control_1_1_zone_stats.html" target="_top" xlink:title="A struct to hold the current status of a zone so their progress persists across restarts.">
<polygon fill="white" stroke="#666666" points="258.5,-836 132.5,-836 132.5,-806 258.5,-806 258.5,-836"/>
<text text-anchor="start" x="140.5" y="-824" font-family="Helvetica,sans-Serif" font-size="10.00">Plugins::MiningControl</text>
<text text-anchor="middle" x="195.5" y="-813" font-family="Helvetica,sans-Serif" font-size="10.00">::ZoneStats</text>
</a>
</g>
</g>
<!-- Node0&#45;&gt;Node24 -->
<g id="edge24" class="edge">
<title>Node0&#45;&gt;Node24</title>
<path fill="none" stroke="#63b8ff" d="M49.37,-899.25C62.19,-882.83 83.34,-858.92 107,-845 114.74,-840.45 123.37,-836.73 132.11,-833.71"/>
<polygon fill="#63b8ff" stroke="#63b8ff" points="46.38,-897.41 43.14,-907.5 51.96,-901.63 46.38,-897.41"/>
</g>
<!-- Node25 -->
<g id="node26" class="node">
<title>Node25</title>
<g id="a_node26"><a xlink:href="struct_plugins_1_1_misc_commands_1_1_config.html" target="_top" xlink:title="Config data for this plugin.">
<polygon fill="white" stroke="#666666" points="263.5,-788 127.5,-788 127.5,-758 263.5,-758 263.5,-788"/>
<text text-anchor="start" x="135.5" y="-776" font-family="Helvetica,sans-Serif" font-size="10.00">Plugins::MiscCommands</text>
<text text-anchor="middle" x="195.5" y="-765" font-family="Helvetica,sans-Serif" font-size="10.00">::Config</text>
</a>
</g>
</g>
<!-- Node0&#45;&gt;Node25 -->
<g id="edge25" class="edge">
<title>Node0&#45;&gt;Node25</title>
<path fill="none" stroke="#63b8ff" d="M42.71,-897.44C52.22,-870.71 72.94,-823.09 107,-797 113.13,-792.31 120.11,-788.53 127.41,-785.49"/>
<polygon fill="#63b8ff" stroke="#63b8ff" points="39.3,-896.6 39.42,-907.2 45.93,-898.84 39.3,-896.6"/>
</g>
<!-- Node26 -->
<g id="node27" class="node">
<title>Node26</title>
<g id="a_node27"><a xlink:href="struct_plugins_1_1_n_p_c_spin_protection_1_1_config.html" target="_top" xlink:title="Config data for this plugin.">
<polygon fill="white" stroke="#666666" points="270,-740 121,-740 121,-710 270,-710 270,-740"/>
<text text-anchor="start" x="129" y="-728" font-family="Helvetica,sans-Serif" font-size="10.00">Plugins::NPCSpinProtection</text>
<text text-anchor="middle" x="195.5" y="-717" font-family="Helvetica,sans-Serif" font-size="10.00">::Config</text>
</a>
</g>
</g>
<!-- Node0&#45;&gt;Node26 -->
<g id="edge26" class="edge">
<title>Node0&#45;&gt;Node26</title>
<path fill="none" stroke="#63b8ff" d="M39.1,-897.38C44.81,-862.29 61.75,-788.74 107,-749 111.14,-745.36 115.79,-742.27 120.72,-739.64"/>
<polygon fill="#63b8ff" stroke="#63b8ff" points="35.63,-896.93 37.62,-907.33 42.55,-897.96 35.63,-896.93"/>
</g>
<!-- Node27 -->
<g id="node28" class="node">
<title>Node27</title>
<g id="a_node28"><a xlink:href="struct_plugins_1_1_npc_1_1_config.html" target="_top" xlink:title="Config data for this plugin.">
<polygon fill="white" stroke="#666666" points="252,-691.5 139,-691.5 139,-672.5 252,-672.5 252,-691.5"/>
<text text-anchor="middle" x="195.5" y="-679.5" font-family="Helvetica,sans-Serif" font-size="10.00">Plugins::Npc::Config</text>
</a>
</g>
</g>
<!-- Node0&#45;&gt;Node27 -->
<g id="edge27" class="edge">
<title>Node0&#45;&gt;Node27</title>
<path fill="none" stroke="#63b8ff" d="M36.77,-897.32C38.48,-854.72 48.81,-753.56 107,-701 115.77,-693.08 127.04,-688.19 138.56,-685.23"/>
<polygon fill="#63b8ff" stroke="#63b8ff" points="33.27,-897.39 36.49,-907.48 40.26,-897.58 33.27,-897.39"/>
</g>
<!-- Node28 -->
<g id="node29" class="node">
<title>Node28</title>
<g id="a_node29"><a xlink:href="struct_plugins_1_1_npc_1_1_fleet.html" target="_top" xlink:title=" ">
<polygon fill="white" stroke="#666666" points="249,-654.5 142,-654.5 142,-635.5 249,-635.5 249,-654.5"/>
<text text-anchor="middle" x="195.5" y="-642.5" font-family="Helvetica,sans-Serif" font-size="10.00">Plugins::Npc::Fleet</text>
</a>
</g>
</g>
<!-- Node0&#45;&gt;Node28 -->
<g id="edge28" class="edge">
<title>Node0&#45;&gt;Node28</title>
<path fill="none" stroke="#63b8ff" d="M35.66,-897.3C34.78,-849.68 39.6,-727.6 107,-664 116.5,-655.04 129.18,-649.91 141.94,-647.07"/>
<polygon fill="#63b8ff" stroke="#63b8ff" points="32.17,-897.59 35.96,-907.48 39.16,-897.38 32.17,-897.59"/>
</g>
<!-- Node29 -->
<g id="node30" class="node">
<title>Node29</title>
<g id="a_node30"><a xlink:href="struct_plugins_1_1_npc_1_1_npc.html" target="_top" xlink:title="A struct that represents an npc that can be spawned.">
<polygon fill="white" stroke="#666666" points="246,-617.5 145,-617.5 145,-598.5 246,-598.5 246,-617.5"/>
<text text-anchor="middle" x="195.5" y="-605.5" font-family="Helvetica,sans-Serif" font-size="10.00">Plugins::Npc::Npc</text>
</a>
</g>
</g>
<!-- Node0&#45;&gt;Node29 -->
<g id="edge29" class="edge">
<title>Node0&#45;&gt;Node29</title>
<path fill="none" stroke="#63b8ff" d="M38.6,-897.15C45.26,-838.09 67.8,-665.25 107,-627 117.13,-617.12 131.11,-611.87 144.93,-609.19"/>
<polygon fill="#63b8ff" stroke="#63b8ff" points="35.09,-897.05 37.48,-907.37 42.05,-897.81 35.09,-897.05"/>
</g>
<!-- Node30 -->
<g id="node31" class="node">
<title>Node30</title>
<g id="a_node31"><a xlink:href="struct_plugins_1_1_npc_1_1_startup_npc.html" target="_top" xlink:title=" ">
<polygon fill="white" stroke="#666666" points="264,-580.5 127,-580.5 127,-561.5 264,-561.5 264,-580.5"/>
<text text-anchor="middle" x="195.5" y="-568.5" font-family="Helvetica,sans-Serif" font-size="10.00">Plugins::Npc::StartupNpc</text>
</a>
</g>
</g>
<!-- Node0&#45;&gt;Node30 -->
<g id="edge30" class="edge">
<title>Node0&#45;&gt;Node30</title>
<path fill="none" stroke="#63b8ff" d="M38.01,-897.19C43.3,-833.25 63.06,-634.01 107,-590 112.6,-584.39 119.44,-580.26 126.81,-577.25"/>
<polygon fill="#63b8ff" stroke="#63b8ff" points="34.5,-897.24 37.19,-907.48 41.47,-897.79 34.5,-897.24"/>
</g>
<!-- Node31 -->
<g id="node32" class="node">
<title>Node31</title>
<g id="a_node32"><a xlink:href="struct_plugins_1_1_purchase_restrictions_1_1_config.html" target="_top" xlink:title="Config data for this plugin.">
<polygon fill="white" stroke="#666666" points="275.5,-543 115.5,-543 115.5,-513 275.5,-513 275.5,-543"/>
<text text-anchor="start" x="123.5" y="-531" font-family="Helvetica,sans-Serif" font-size="10.00">Plugins::PurchaseRestrictions</text>
<text text-anchor="middle" x="195.5" y="-520" font-family="Helvetica,sans-Serif" font-size="10.00">::Config</text>
</a>
</g>
</g>
<!-- Node0&#45;&gt;Node31 -->
<g id="edge31" class="edge">
<title>Node0&#45;&gt;Node31</title>
<path fill="none" stroke="#63b8ff" d="M37.69,-896.87C42.13,-828.16 60.03,-604.25 107,-553 110.52,-549.16 114.59,-545.89 119.01,-543.11"/>
<polygon fill="#63b8ff" stroke="#63b8ff" points="34.17,-896.98 37.05,-907.18 41.16,-897.41 34.17,-896.98"/>
</g>
<!-- Node32 -->
<g id="node33" class="node">
<title>Node32</title>
<g id="a_node33"><a xlink:href="struct_plugins_1_1_rename_1_1_config.html" target="_top" xlink:title="Config data for this plugin.">
<polygon fill="white" stroke="#666666" points="263,-494.5 128,-494.5 128,-475.5 263,-475.5 263,-494.5"/>
<text text-anchor="middle" x="195.5" y="-482.5" font-family="Helvetica,sans-Serif" font-size="10.00">Plugins::Rename::Config</text>
</a>
</g>
</g>
<!-- Node0&#45;&gt;Node32 -->
<g id="edge32" class="edge">
<title>Node0&#45;&gt;Node32</title>
<path fill="none" stroke="#63b8ff" d="M37.05,-897.01C39.52,-822.4 52.01,-561.51 107,-504 112.8,-497.93 120.05,-493.58 127.87,-490.49"/>
<polygon fill="#63b8ff" stroke="#63b8ff" points="33.54,-897.22 36.73,-907.33 40.54,-897.44 33.54,-897.22"/>
</g>
<!-- Node33 -->
<g id="node34" class="node">
<title>Node33</title>
<g id="a_node34"><a xlink:href="struct_plugins_1_1_rename_1_1_tag_data.html" target="_top" xlink:title="Struct to hold a clan/group tag. This contains the passwords used to manage and rename a character to...">
<polygon fill="white" stroke="#666666" points="267.5,-457.5 123.5,-457.5 123.5,-438.5 267.5,-438.5 267.5,-457.5"/>
<text text-anchor="middle" x="195.5" y="-445.5" font-family="Helvetica,sans-Serif" font-size="10.00">Plugins::Rename::TagData</text>
</a>
</g>
</g>
<!-- Node0&#45;&gt;Node33 -->
<g id="edge33" class="edge">
<title>Node0&#45;&gt;Node33</title>
<path fill="none" stroke="#63b8ff" d="M36.75,-896.77C38.13,-817.65 47.26,-530.33 107,-467 111.59,-462.14 117.1,-458.37 123.1,-455.47"/>
<polygon fill="#63b8ff" stroke="#63b8ff" points="33.24,-897.2 36.59,-907.25 40.24,-897.31 33.24,-897.2"/>
</g>
<!-- Node34 -->
<g id="node35" class="node">
<title>Node34</title>
<g id="a_node35"><a xlink:href="struct_plugins_1_1_rename_1_1_tag_list.html" target="_top" xlink:title="A struct to hold all the tags.">
<polygon fill="white" stroke="#666666" points="264.5,-420.5 126.5,-420.5 126.5,-401.5 264.5,-401.5 264.5,-420.5"/>
<text text-anchor="middle" x="195.5" y="-408.5" font-family="Helvetica,sans-Serif" font-size="10.00">Plugins::Rename::TagList</text>
</a>
</g>
</g>
<!-- Node0&#45;&gt;Node34 -->
<g id="edge34" class="edge">
<title>Node0&#45;&gt;Node34</title>
<path fill="none" stroke="#63b8ff" d="M36.48,-897.24C36.8,-814.81 42.32,-499.38 107,-430 112.41,-424.2 119.13,-419.96 126.43,-416.88"/>
<polygon fill="#63b8ff" stroke="#63b8ff" points="32.98,-897.27 36.46,-907.28 39.98,-897.28 32.98,-897.27"/>
</g>
<!-- Node35 -->
<g id="node36" class="node">
<title>Node35</title>
<g id="a_node36"><a xlink:href="struct_plugins_1_1_restart_1_1_config.html" target="_top" xlink:title="Config data for this plugin.">
<polygon fill="white" stroke="#666666" points="260.5,-383.5 130.5,-383.5 130.5,-364.5 260.5,-364.5 260.5,-383.5"/>
<text text-anchor="middle" x="195.5" y="-371.5" font-family="Helvetica,sans-Serif" font-size="10.00">Plugins::Restart::Config</text>
</a>
</g>
</g>
<!-- Node0&#45;&gt;Node35 -->
<g id="edge35" class="edge">
<title>Node0&#45;&gt;Node35</title>
<path fill="none" stroke="#63b8ff" d="M36.25,-897.15C35.6,-810.74 37.51,-468.29 107,-393 113.33,-386.15 121.49,-381.46 130.29,-378.31"/>
<polygon fill="#63b8ff" stroke="#63b8ff" points="32.76,-897.43 36.35,-907.39 39.76,-897.36 32.76,-897.43"/>
</g>
<!-- Node36 -->
<g id="node37" class="node">
<title>Node36</title>
<g id="a_node37"><a xlink:href="struct_plugins_1_1_sound_manager_1_1_config.html" target="_top" xlink:title="Config data for this plugin.">
<polygon fill="white" stroke="#666666" points="261,-346 130,-346 130,-316 261,-316 261,-346"/>
<text text-anchor="start" x="138" y="-334" font-family="Helvetica,sans-Serif" font-size="10.00">Plugins::SoundManager</text>
<text text-anchor="middle" x="195.5" y="-323" font-family="Helvetica,sans-Serif" font-size="10.00">::Config</text>
</a>
</g>
</g>
<!-- Node0&#45;&gt;Node36 -->
<g id="edge36" class="edge">
<title>Node0&#45;&gt;Node36</title>
<path fill="none" stroke="#63b8ff" d="M36.18,-897.02C35.13,-806.95 35.38,-439.53 107,-356 113.07,-348.92 120.99,-343.78 129.58,-340.06"/>
<polygon fill="#63b8ff" stroke="#63b8ff" points="32.68,-897.26 36.32,-907.21 39.68,-897.17 32.68,-897.26"/>
</g>
<!-- Node37 -->
<g id="node38" class="node">
<title>Node37</title>
<g id="a_node38"><a xlink:href="struct_plugins_1_1_stats_1_1_file_name.html" target="_top" xlink:title="Reflectable struct that contains the file path of the config file as well as the file to export stats...">
<polygon fill="white" stroke="#666666" points="263,-297.5 128,-297.5 128,-278.5 263,-278.5 263,-297.5"/>
<text text-anchor="middle" x="195.5" y="-285.5" font-family="Helvetica,sans-Serif" font-size="10.00">Plugins::Stats::FileName</text>
</a>
</g>
</g>
<!-- Node0&#45;&gt;Node37 -->
<g id="edge37" class="edge">
<title>Node0&#45;&gt;Node37</title>
<path fill="none" stroke="#63b8ff" d="M37.44,-897.03C42.36,-796.83 66.38,-351.84 107,-307 112.74,-300.66 120.05,-296.17 128,-293.03"/>
<polygon fill="#63b8ff" stroke="#63b8ff" points="33.94,-897.11 36.95,-907.27 40.93,-897.45 33.94,-897.11"/>
</g>
<!-- Node38 -->
<g id="node39" class="node">
<title>Node38</title>
<g id="a_node39"><a xlink:href="struct_plugins_1_1_system_sensor_1_1_config.html" target="_top" xlink:title=" ">
<polygon fill="white" stroke="#666666" points="259.5,-260 131.5,-260 131.5,-230 259.5,-230 259.5,-260"/>
<text text-anchor="start" x="139.5" y="-248" font-family="Helvetica,sans-Serif" font-size="10.00">Plugins::SystemSensor</text>
<text text-anchor="middle" x="195.5" y="-237" font-family="Helvetica,sans-Serif" font-size="10.00">::Config</text>
</a>
</g>
</g>
<!-- Node0&#45;&gt;Node38 -->
<g id="edge38" class="edge">
<title>Node0&#45;&gt;Node38</title>
<path fill="none" stroke="#63b8ff" d="M37.36,-897.18C42.01,-793.79 65.49,-319.23 107,-270 113.42,-262.39 121.97,-257.01 131.23,-253.23"/>
<polygon fill="#63b8ff" stroke="#63b8ff" points="33.86,-897.05 36.92,-907.2 40.85,-897.36 33.86,-897.05"/>
</g>
<!-- Node39 -->
<g id="node40" class="node">
<title>Node39</title>
<g id="a_node40"><a xlink:href="struct_plugins_1_1_system_sensor_1_1_reflectable_sensor.html" target="_top" xlink:title=" ">
<polygon fill="white" stroke="#666666" points="259.5,-212 131.5,-212 131.5,-182 259.5,-182 259.5,-212"/>
<text text-anchor="start" x="139.5" y="-200" font-family="Helvetica,sans-Serif" font-size="10.00">Plugins::SystemSensor</text>
<text text-anchor="middle" x="195.5" y="-189" font-family="Helvetica,sans-Serif" font-size="10.00">::ReflectableSensor</text>
</a>
</g>
</g>
<!-- Node0&#45;&gt;Node39 -->
<g id="edge39" class="edge">
<title>Node0&#45;&gt;Node39</title>
<path fill="none" stroke="#63b8ff" d="M37.18,-897.39C41.09,-789.8 62.07,-274.12 107,-221 113.41,-213.42 121.96,-208.12 131.22,-204.43"/>
<polygon fill="#63b8ff" stroke="#63b8ff" points="33.68,-897.37 36.82,-907.48 40.68,-897.61 33.68,-897.37"/>
</g>
<!-- Node40 -->
<g id="node41" class="node">
<title>Node40</title>
<g id="a_node41"><a xlink:href="struct_plugins_1_1_tax_1_1_config.html" target="_top" xlink:title="Configurable fields for this plugin.">
<polygon fill="white" stroke="#666666" points="251,-163.5 140,-163.5 140,-144.5 251,-144.5 251,-163.5"/>
<text text-anchor="middle" x="195.5" y="-151.5" font-family="Helvetica,sans-Serif" font-size="10.00">Plugins::Tax::Config</text>
</a>
</g>
</g>
<!-- Node0&#45;&gt;Node40 -->
<g id="edge40" class="edge">
<title>Node0&#45;&gt;Node40</title>
<path fill="none" stroke="#63b8ff" d="M37.01,-897.06C40.06,-784.23 57.52,-228.77 107,-173 115.46,-163.47 127.48,-158.09 139.91,-155.19"/>
<polygon fill="#63b8ff" stroke="#63b8ff" points="33.5,-897.25 36.74,-907.34 40.5,-897.43 33.5,-897.25"/>
</g>
<!-- Node41 -->
<g id="node42" class="node">
<title>Node41</title>
<g id="a_node42"><a xlink:href="struct_plugins_1_1_template_1_1_config.html" target="_top" xlink:title=" ">
<polygon fill="white" stroke="#666666" points="250,-126 141,-126 141,-96 250,-96 250,-126"/>
<text text-anchor="start" x="149" y="-114" font-family="Helvetica,sans-Serif" font-size="10.00">Plugins::Template::</text>
<text text-anchor="middle" x="195.5" y="-103" font-family="Helvetica,sans-Serif" font-size="10.00">Config</text>
</a>
</g>
</g>
<!-- Node0&#45;&gt;Node41 -->
<g id="edge41" class="edge">
<title>Node0&#45;&gt;Node41</title>
<path fill="none" stroke="#63b8ff" d="M36.97,-897.22C39.87,-781.61 56.97,-196.46 107,-136 115.56,-125.65 128.08,-119.42 140.99,-115.71"/>
<polygon fill="#63b8ff" stroke="#63b8ff" points="33.46,-897.34 36.72,-907.43 40.46,-897.52 33.46,-897.34"/>
</g>
<!-- Node42 -->
<g id="node43" class="node">
<title>Node42</title>
<g id="a_node43"><a xlink:href="struct_plugins_1_1_wardrobe_1_1_config.html" target="_top" xlink:title="Config data for this plugin.">
<polygon fill="white" stroke="#666666" points="250.5,-78 140.5,-78 140.5,-48 250.5,-48 250.5,-78"/>
<text text-anchor="start" x="148.5" y="-66" font-family="Helvetica,sans-Serif" font-size="10.00">Plugins::Wardrobe::</text>
<text text-anchor="middle" x="195.5" y="-55" font-family="Helvetica,sans-Serif" font-size="10.00">Config</text>
</a>
</g>
</g>
<!-- Node0&#45;&gt;Node42 -->
<g id="edge42" class="edge">
<title>Node0&#45;&gt;Node42</title>
<path fill="none" stroke="#63b8ff" d="M36.85,-897.1C39.13,-776.96 53.52,-151.29 107,-87 115.36,-76.95 127.5,-70.89 140.08,-67.3"/>
<polygon fill="#63b8ff" stroke="#63b8ff" points="33.34,-897.32 36.66,-907.38 40.34,-897.45 33.34,-897.32"/>
</g>
<!-- Node43 -->
<g id="node44" class="node">
<title>Node43</title>
<g id="a_node44"><a xlink:href="struct_plugins_1_1_warehouse_1_1_config.html" target="_top" xlink:title=" ">
<polygon fill="white" stroke="#666666" points="251.5,-30 139.5,-30 139.5,0 251.5,0 251.5,-30"/>
<text text-anchor="start" x="147.5" y="-18" font-family="Helvetica,sans-Serif" font-size="10.00">Plugins::Warehouse</text>
<text text-anchor="middle" x="195.5" y="-7" font-family="Helvetica,sans-Serif" font-size="10.00">::Config</text>
</a>
</g>
</g>
<!-- Node0&#45;&gt;Node43 -->
<g id="edge43" class="edge">
<title>Node0&#45;&gt;Node43</title>
<path fill="none" stroke="#63b8ff" d="M36.75,-897.12C38.49,-772.99 50.43,-107.32 107,-39 115.14,-29.17 126.89,-23.16 139.14,-19.54"/>
<polygon fill="#63b8ff" stroke="#63b8ff" points="33.25,-897.36 36.61,-907.41 40.25,-897.45 33.25,-897.36"/>
</g>
</g>
</svg>
