<?xml version="1.0" encoding="UTF-8" standalone="no"?>
<!DOCTYPE svg PUBLIC "-//W3C//DTD SVG 1.1//EN"
 "http://www.w3.org/Graphics/SVG/1.1/DTD/svg11.dtd">
<!-- Generated by graphviz version 2.43.0 (0)
 -->
<!-- Title: Graphical Class Hierarchy Pages: 1 -->
<svg width="336pt" height="172pt"
 viewBox="0.00 0.00 336.00 172.00" xmlns="http://www.w3.org/2000/svg" xmlns:xlink="http://www.w3.org/1999/xlink">
<g id="graph0" class="graph" transform="scale(1 1) rotate(0) translate(4 168)">
<title>Graphical Class Hierarchy</title>
<!-- Node0 -->
<g id="node1" class="node">
<title>Node0</title>
<g id="a_node1"><a xlink:title=" ">
<polygon fill="#e0e0e0" stroke="#999999" points="119,-88.5 0,-88.5 0,-69.5 119,-69.5 119,-88.5"/>
<text text-anchor="middle" x="59.5" y="-76.5" font-family="Helvetica,sans-Serif" font-size="10.00">PluginCommunicator</text>
</a>
</g>
</g>
<!-- Node1 -->
<g id="node2" class="node">
<title>Node1</title>
<g id="a_node2"><a xlink:href="class_plugins_1_1_cash_manager_1_1_cash_manager_communicator.html" target="_top" xlink:title=" ">
<polygon fill="white" stroke="#666666" points="322,-164 161,-164 161,-134 322,-134 322,-164"/>
<text text-anchor="start" x="169" y="-152" font-family="Helvetica,sans-Serif" font-size="10.00">Plugins::CashManager</text>
<text text-anchor="middle" x="241.5" y="-141" font-family="Helvetica,sans-Serif" font-size="10.00">::CashManagerCommunicator</text>
</a>
</g>
</g>
<!-- Node0&#45;&gt;Node1 -->
<g id="edge1" class="edge">
<title>Node0&#45;&gt;Node1</title>
<path fill="none" stroke="#63b8ff" d="M86.9,-93.44C105.54,-103.24 131.33,-116 155,-125 163.5,-128.23 172.63,-131.25 181.64,-133.98"/>
<polygon fill="#63b8ff" stroke="#63b8ff" points="88.32,-90.23 77.85,-88.62 85.03,-96.41 88.32,-90.23"/>
</g>
<!-- Node2 -->
<g id="node3" class="node">
<title>Node2</title>
<g id="a_node3"><a xlink:href="class_plugins_1_1_con_data_1_1_con_data_communicator.html" target="_top" xlink:title=" ">
<polygon fill="white" stroke="#666666" points="315.5,-116 167.5,-116 167.5,-86 315.5,-86 315.5,-116"/>
<text text-anchor="start" x="175.5" y="-104" font-family="Helvetica,sans-Serif" font-size="10.00">Plugins::ConData::ConData</text>
<text text-anchor="middle" x="241.5" y="-93" font-family="Helvetica,sans-Serif" font-size="10.00">Communicator</text>
</a>
</g>
</g>
<!-- Node0&#45;&gt;Node2 -->
<g id="edge2" class="edge">
<title>Node0&#45;&gt;Node2</title>
<path fill="none" stroke="#63b8ff" d="M129.64,-87.45C141.96,-88.96 154.83,-90.53 167.27,-92.05"/>
<polygon fill="#63b8ff" stroke="#63b8ff" points="129.79,-83.94 119.44,-86.2 128.94,-90.89 129.79,-83.94"/>
</g>
<!-- Node3 -->
<g id="node4" class="node">
<title>Node3</title>
<g id="a_node4"><a xlink:href="class_plugins_1_1_npc_1_1_npc_communicator.html" target="_top" xlink:title="Communicator class for this plugin. This is used by other plugins.">
<polygon fill="white" stroke="#666666" points="328,-67.5 155,-67.5 155,-48.5 328,-48.5 328,-67.5"/>
<text text-anchor="middle" x="241.5" y="-55.5" font-family="Helvetica,sans-Serif" font-size="10.00">Plugins::Npc::NpcCommunicator</text>
</a>
</g>
</g>
<!-- Node0&#45;&gt;Node3 -->
<g id="edge3" class="edge">
<title>Node0&#45;&gt;Node3</title>
<path fill="none" stroke="#63b8ff" d="M129.66,-70.93C139.23,-69.82 149.12,-68.66 158.88,-67.52"/>
<polygon fill="#63b8ff" stroke="#63b8ff" points="128.97,-67.49 119.44,-72.12 129.78,-74.44 128.97,-67.49"/>
</g>
<!-- Node4 -->
<g id="node5" class="node">
<title>Node4</title>
<g id="a_node5"><a xlink:href="class_plugins_1_1_solar_control_1_1_solar_communicator.html" target="_top" xlink:title="Communicator class for this plugin. This is used by other plugins.">
<polygon fill="white" stroke="#666666" points="301,-30 182,-30 182,0 301,0 301,-30"/>
<text text-anchor="start" x="190" y="-18" font-family="Helvetica,sans-Serif" font-size="10.00">Plugins::SolarControl</text>
<text text-anchor="middle" x="241.5" y="-7" font-family="Helvetica,sans-Serif" font-size="10.00">::SolarCommunicator</text>
</a>
</g>
</g>
<!-- Node0&#45;&gt;Node4 -->
<g id="edge4" class="edge">
<title>Node0&#45;&gt;Node4</title>
<path fill="none" stroke="#63b8ff" d="M91.31,-65.3C109.63,-57.41 133.43,-47.58 155,-40 164.92,-36.51 175.6,-33.12 185.95,-30"/>
<polygon fill="#63b8ff" stroke="#63b8ff" points="89.79,-62.15 82.02,-69.35 92.58,-68.57 89.79,-62.15"/>
</g>
</g>
</svg>
