<?xml version="1.0" encoding="UTF-8" standalone="no"?>
<!DOCTYPE svg PUBLIC "-//W3C//DTD SVG 1.1//EN"
 "http://www.w3.org/Graphics/SVG/1.1/DTD/svg11.dtd">
<!-- Generated by graphviz version 2.43.0 (0)
 -->
<!-- Title: Graphical Class Hierarchy Pages: 1 -->
<svg width="247pt" height="101pt"
 viewBox="0.00 0.00 247.00 101.00" xmlns="http://www.w3.org/2000/svg" xmlns:xlink="http://www.w3.org/1999/xlink">
<g id="graph0" class="graph" transform="scale(1 1) rotate(0) translate(4 97)">
<title>Graphical Class Hierarchy</title>
<!-- Node0 -->
<g id="node1" class="node">
<title>Node0</title>
<g id="a_node1"><a xlink:href="class_save_game_detour.html" target="_top" xlink:title=" ">
<polygon fill="white" stroke="#666666" points="103,-93 0,-93 0,-74 103,-74 103,-93"/>
<text text-anchor="middle" x="51.5" y="-81" font-family="Helvetica,sans-Serif" font-size="10.00">SaveGameDetour</text>
</a>
</g>
</g>
<!-- Node1 -->
<g id="node2" class="node">
<title>Node1</title>
<g id="a_node2"><a xlink:href="class_memory_manager.html" target="_top" xlink:title=" ">
<polygon fill="white" stroke="#666666" points="239,-93 139,-93 139,-74 239,-74 239,-93"/>
<text text-anchor="middle" x="189" y="-81" font-family="Helvetica,sans-Serif" font-size="10.00">MemoryManager</text>
</a>
</g>
</g>
<!-- Node0&#45;&gt;Node1 -->
<g id="edge1" class="edge">
<title>Node0&#45;&gt;Node1</title>
<path fill="none" stroke="#63b8ff" d="M113.51,-83.5C121.93,-83.5 130.5,-83.5 138.67,-83.5"/>
<polygon fill="#63b8ff" stroke="#63b8ff" points="113.34,-80 103.34,-83.5 113.34,-87 113.34,-80"/>
</g>
<!-- Node2 -->
<g id="node3" class="node">
<title>Node2</title>
<g id="a_node3"><a xlink:title=" ">
<polygon fill="#e0e0e0" stroke="#999999" points="82.5,-56 20.5,-56 20.5,-37 82.5,-37 82.5,-56"/>
<text text-anchor="middle" x="51.5" y="-44" font-family="Helvetica,sans-Serif" font-size="10.00">Singleton</text>
</a>
</g>
</g>
<!-- Node2&#45;&gt;Node1 -->
<g id="edge3" class="edge">
<title>Node2&#45;&gt;Node1</title>
<path fill="none" stroke="#63b8ff" d="M92.22,-57.35C111.39,-62.58 134.19,-68.81 152.74,-73.87"/>
<polygon fill="#63b8ff" stroke="#63b8ff" points="93.14,-53.97 82.57,-54.71 91.3,-60.72 93.14,-53.97"/>
</g>
<!-- Node3 -->
<g id="node4" class="node">
<title>Node3</title>
<g id="a_node4"><a xlink:href="class_debug_tools.html" target="_top" xlink:title=" ">
<polygon fill="white" stroke="#666666" points="225.5,-56 152.5,-56 152.5,-37 225.5,-37 225.5,-56"/>
<text text-anchor="middle" x="189" y="-44" font-family="Helvetica,sans-Serif" font-size="10.00">DebugTools</text>
</a>
</g>
</g>
<!-- Node2&#45;&gt;Node3 -->
<g id="edge2" class="edge">
<title>Node2&#45;&gt;Node3</title>
<path fill="none" stroke="#63b8ff" d="M92.67,-46.5C111.57,-46.5 133.93,-46.5 152.24,-46.5"/>
<polygon fill="#63b8ff" stroke="#63b8ff" points="92.57,-43 82.57,-46.5 92.57,-50 92.57,-43"/>
</g>
<!-- Node4 -->
<g id="node5" class="node">
<title>Node4</title>
<g id="a_node5"><a xlink:href="class_plugin_manager.html" target="_top" xlink:title=" ">
<polygon fill="white" stroke="#666666" points="233.5,-19 144.5,-19 144.5,0 233.5,0 233.5,-19"/>
<text text-anchor="middle" x="189" y="-7" font-family="Helvetica,sans-Serif" font-size="10.00">PluginManager</text>
</a>
</g>
</g>
<!-- Node2&#45;&gt;Node4 -->
<g id="edge4" class="edge">
<title>Node2&#45;&gt;Node4</title>
<path fill="none" stroke="#63b8ff" d="M92.22,-35.65C111.39,-30.42 134.19,-24.19 152.74,-19.13"/>
<polygon fill="#63b8ff" stroke="#63b8ff" points="91.3,-32.28 82.57,-38.29 93.14,-39.03 91.3,-32.28"/>
</g>
</g>
</svg>
