<?xml version="1.0" encoding="UTF-8" standalone="no"?>
<!DOCTYPE svg PUBLIC "-//W3C//DTD SVG 1.1//EN"
 "http://www.w3.org/Graphics/SVG/1.1/DTD/svg11.dtd">
<!-- Generated by graphviz version 2.43.0 (0)
 -->
<!-- Title: Graphical Class Hierarchy Pages: 1 -->
<svg width="292pt" height="2178pt"
 viewBox="0.00 0.00 292.00 2177.50" xmlns="http://www.w3.org/2000/svg" xmlns:xlink="http://www.w3.org/1999/xlink">
<g id="graph0" class="graph" transform="scale(1 1) rotate(0) translate(4 2173.5)">
<title>Graphical Class Hierarchy</title>
<!-- Node0 -->
<g id="node1" class="node">
<title>Node0</title>
<g id="a_node1"><a xlink:title=" ">
<polygon fill="#e0e0e0" stroke="#999999" points="71,-1083.5 0,-1083.5 0,-1064.5 71,-1064.5 71,-1083.5"/>
<text text-anchor="middle" x="35.5" y="-1071.5" font-family="Helvetica,sans-Serif" font-size="10.00">Reflectable</text>
</a>
</g>
</g>
<!-- Node1 -->
<g id="node2" class="node">
<title>Node1</title>
<g id="a_node2"><a xlink:href="struct_authenticated_accounts.html" target="_top" xlink:title=" ">
<polygon fill="white" stroke="#666666" points="260,-2169.5 131,-2169.5 131,-2150.5 260,-2150.5 260,-2169.5"/>
<text text-anchor="middle" x="195.5" y="-2157.5" font-family="Helvetica,sans-Serif" font-size="10.00">AuthenticatedAccounts</text>
</a>
</g>
</g>
<!-- Node0&#45;&gt;Node1 -->
<g id="edge1" class="edge">
<title>Node0&#45;&gt;Node1</title>
<path fill="none" stroke="#63b8ff" d="M36.39,-1093.76C35.82,-1232.7 35.45,-2059.91 107,-2142 113.32,-2149.25 121.71,-2154.04 130.8,-2157.14"/>
<polygon fill="#63b8ff" stroke="#63b8ff" points="39.89,-1093.72 36.44,-1083.7 32.89,-1093.68 39.89,-1093.72"/>
</g>
<!-- Node2 -->
<g id="node3" class="node">
<title>Node2</title>
<g id="a_node3"><a xlink:href="struct_config.html" target="_top" xlink:title=" ">
<polygon fill="white" stroke="#666666" points="219,-2132.5 172,-2132.5 172,-2113.5 219,-2113.5 219,-2132.5"/>
<text text-anchor="middle" x="195.5" y="-2120.5" font-family="Helvetica,sans-Serif" font-size="10.00">Config</text>
</a>
</g>
</g>
<!-- Node0&#45;&gt;Node2 -->
<g id="edge2" class="edge">
<title>Node0&#45;&gt;Node2</title>
<path fill="none" stroke="#63b8ff" d="M36.44,-1093.9C36.23,-1230.47 37.96,-2025.99 107,-2105 122.82,-2123.1 151.56,-2125.88 171.77,-2125.26"/>
<polygon fill="#63b8ff" stroke="#63b8ff" points="39.94,-1093.68 36.46,-1083.67 32.94,-1093.67 39.94,-1093.68"/>
</g>
<!-- Node3 -->
<g id="node4" class="node">
<title>Node3</title>
<g id="a_node4"><a xlink:href="struct_i_p_bans.html" target="_top" xlink:title=" ">
<polygon fill="white" stroke="#666666" points="220.5,-2095.5 170.5,-2095.5 170.5,-2076.5 220.5,-2076.5 220.5,-2095.5"/>
<text text-anchor="middle" x="195.5" y="-2083.5" font-family="Helvetica,sans-Serif" font-size="10.00">IPBans</text>
</a>
</g>
</g>
<!-- Node0&#45;&gt;Node3 -->
<g id="edge3" class="edge">
<title>Node0&#45;&gt;Node3</title>
<path fill="none" stroke="#63b8ff" d="M36.5,-1094C36.65,-1227.99 40.47,-1992.05 107,-2068 122.43,-2085.62 150.1,-2088.71 170.2,-2088.29"/>
<polygon fill="#63b8ff" stroke="#63b8ff" points="40,-1093.63 36.49,-1083.63 33,-1093.63 40,-1093.63"/>
</g>
<!-- Node4 -->
<g id="node5" class="node">
<title>Node4</title>
<g id="a_node5"><a xlink:href="struct_login_id_bans.html" target="_top" xlink:title=" ">
<polygon fill="white" stroke="#666666" points="233.5,-2058.5 157.5,-2058.5 157.5,-2039.5 233.5,-2039.5 233.5,-2058.5"/>
<text text-anchor="middle" x="195.5" y="-2046.5" font-family="Helvetica,sans-Serif" font-size="10.00">LoginIdBans</text>
</a>
</g>
</g>
<!-- Node0&#45;&gt;Node4 -->
<g id="edge4" class="edge">
<title>Node0&#45;&gt;Node4</title>
<path fill="none" stroke="#63b8ff" d="M36.55,-1093.67C37.08,-1223.8 42.9,-1958.02 107,-2031 119.38,-2045.1 139.61,-2049.89 157.5,-2051.03"/>
<polygon fill="#63b8ff" stroke="#63b8ff" points="40.05,-1093.56 36.52,-1083.57 33.05,-1093.58 40.05,-1093.56"/>
</g>
<!-- Node5 -->
<g id="node6" class="node">
<title>Node5</title>
<g id="a_node6"><a xlink:href="struct_plugins_1_1_arena_1_1_config.html" target="_top" xlink:title="Config data for this plugin.">
<polygon fill="white" stroke="#666666" points="257,-2021.5 134,-2021.5 134,-2002.5 257,-2002.5 257,-2021.5"/>
<text text-anchor="middle" x="195.5" y="-2009.5" font-family="Helvetica,sans-Serif" font-size="10.00">Plugins::Arena::Config</text>
</a>
</g>
</g>
<!-- Node0&#45;&gt;Node5 -->
<g id="edge5" class="edge">
<title>Node0&#45;&gt;Node5</title>
<path fill="none" stroke="#63b8ff" d="M36.62,-1094.08C37.55,-1222.38 45.45,-1924.14 107,-1994 114.07,-2002.03 123.69,-2007.04 133.97,-2010.07"/>
<polygon fill="#63b8ff" stroke="#63b8ff" points="40.12,-1093.76 36.55,-1083.78 33.12,-1093.8 40.12,-1093.76"/>
</g>
<!-- Node6 -->
<g id="node7" class="node">
<title>Node6</title>
<g id="a_node7"><a xlink:href="struct_plugins_1_1_autobuy_1_1_config.html" target="_top" xlink:title="Configurable fields for this plugin.">
<polygon fill="white" stroke="#666666" points="262.5,-1984.5 128.5,-1984.5 128.5,-1965.5 262.5,-1965.5 262.5,-1984.5"/>
<text text-anchor="middle" x="195.5" y="-1972.5" font-family="Helvetica,sans-Serif" font-size="10.00">Plugins::Autobuy::Config</text>
</a>
</g>
</g>
<!-- Node0&#45;&gt;Node6 -->
<g id="edge6" class="edge">
<title>Node0&#45;&gt;Node6</title>
<path fill="none" stroke="#63b8ff" d="M36.7,-1094.01C38.1,-1218.96 48.36,-1888.92 107,-1956 112.73,-1962.55 120.14,-1967.15 128.22,-1970.33"/>
<polygon fill="#63b8ff" stroke="#63b8ff" points="40.19,-1093.62 36.59,-1083.66 33.19,-1093.69 40.19,-1093.62"/>
</g>
<!-- Node7 -->
<g id="node8" class="node">
<title>Node7</title>
<g id="a_node8"><a xlink:href="struct_plugins_1_1_bounty_hunt_1_1_config.html" target="_top" xlink:title="Configurable fields for this plugin.">
<polygon fill="white" stroke="#666666" points="253.5,-1947 137.5,-1947 137.5,-1917 253.5,-1917 253.5,-1947"/>
<text text-anchor="start" x="145.5" y="-1935" font-family="Helvetica,sans-Serif" font-size="10.00">Plugins::BountyHunt</text>
<text text-anchor="middle" x="195.5" y="-1924" font-family="Helvetica,sans-Serif" font-size="10.00">::Config</text>
</a>
</g>
</g>
<!-- Node0&#45;&gt;Node7 -->
<g id="edge7" class="edge">
<title>Node0&#45;&gt;Node7</title>
<path fill="none" stroke="#63b8ff" d="M36.84,-1093.99C39.08,-1214.72 53.28,-1843.4 107,-1908 114.76,-1917.33 125.76,-1923.21 137.36,-1926.89"/>
<polygon fill="#63b8ff" stroke="#63b8ff" points="40.34,-1093.6 36.66,-1083.66 33.34,-1093.72 40.34,-1093.6"/>
</g>
<!-- Node8 -->
<g id="node9" class="node">
<title>Node8</title>
<g id="a_node9"><a xlink:href="struct_plugins_1_1_cargo_drop_1_1_config.html" target="_top" xlink:title="Config data for this plugin.">
<polygon fill="white" stroke="#666666" points="250.5,-1899 140.5,-1899 140.5,-1869 250.5,-1869 250.5,-1899"/>
<text text-anchor="start" x="148.5" y="-1887" font-family="Helvetica,sans-Serif" font-size="10.00">Plugins::CargoDrop</text>
<text text-anchor="middle" x="195.5" y="-1876" font-family="Helvetica,sans-Serif" font-size="10.00">::Config</text>
</a>
</g>
</g>
<!-- Node0&#45;&gt;Node8 -->
<g id="edge8" class="edge">
<title>Node0&#45;&gt;Node8</title>
<path fill="none" stroke="#63b8ff" d="M36.95,-1093.92C39.75,-1210.31 56.35,-1799.41 107,-1860 115.39,-1870.03 127.53,-1876.08 140.12,-1879.68"/>
<polygon fill="#63b8ff" stroke="#63b8ff" points="40.44,-1093.55 36.71,-1083.64 33.44,-1093.72 40.44,-1093.55"/>
</g>
<!-- Node9 -->
<g id="node10" class="node">
<title>Node9</title>
<g id="a_node10"><a xlink:href="struct_plugins_1_1_cash_manager_1_1_config.html" target="_top" xlink:title=" ">
<polygon fill="white" stroke="#666666" points="258,-1851 133,-1851 133,-1821 258,-1821 258,-1851"/>
<text text-anchor="start" x="141" y="-1839" font-family="Helvetica,sans-Serif" font-size="10.00">Plugins::CashManager</text>
<text text-anchor="middle" x="195.5" y="-1828" font-family="Helvetica,sans-Serif" font-size="10.00">::Config</text>
</a>
</g>
</g>
<!-- Node0&#45;&gt;Node9 -->
<g id="edge9" class="edge">
<title>Node0&#45;&gt;Node9</title>
<path fill="none" stroke="#63b8ff" d="M37.07,-1093.73C40.44,-1205.43 59.4,-1755.39 107,-1812 113.79,-1820.08 123.02,-1825.57 132.95,-1829.28"/>
<polygon fill="#63b8ff" stroke="#63b8ff" points="40.56,-1093.46 36.77,-1083.56 33.56,-1093.66 40.56,-1093.46"/>
</g>
<!-- Node10 -->
<g id="node11" class="node">
<title>Node10</title>
<g id="a_node11"><a xlink:href="struct_plugins_1_1_con_data_1_1_config.html" target="_top" xlink:title=" ">
<polygon fill="white" stroke="#666666" points="264,-1802.5 127,-1802.5 127,-1783.5 264,-1783.5 264,-1802.5"/>
<text text-anchor="middle" x="195.5" y="-1790.5" font-family="Helvetica,sans-Serif" font-size="10.00">Plugins::ConData::Config</text>
</a>
</g>
</g>
<!-- Node0&#45;&gt;Node10 -->
<g id="edge10" class="edge">
<title>Node0&#45;&gt;Node10</title>
<path fill="none" stroke="#63b8ff" d="M37.13,-1093.76C40.74,-1202.18 60.41,-1721.8 107,-1774 112.38,-1780.03 119.19,-1784.4 126.62,-1787.52"/>
<polygon fill="#63b8ff" stroke="#63b8ff" points="40.62,-1093.47 36.79,-1083.59 33.62,-1093.7 40.62,-1093.47"/>
</g>
<!-- Node11 -->
<g id="node12" class="node">
<title>Node11</title>
<g id="a_node12"><a xlink:href="struct_plugins_1_1_crash_catcher_1_1_config.html" target="_top" xlink:title="Config data for this plugin.">
<polygon fill="white" stroke="#666666" points="257,-1765 134,-1765 134,-1735 257,-1735 257,-1765"/>
<text text-anchor="start" x="142" y="-1753" font-family="Helvetica,sans-Serif" font-size="10.00">Plugins::CrashCatcher</text>
<text text-anchor="middle" x="195.5" y="-1742" font-family="Helvetica,sans-Serif" font-size="10.00">::Config</text>
</a>
</g>
</g>
<!-- Node0&#45;&gt;Node11 -->
<g id="edge11" class="edge">
<title>Node0&#45;&gt;Node11</title>
<path fill="none" stroke="#63b8ff" d="M37.34,-1093.98C41.88,-1198.21 64.93,-1676.6 107,-1726 114.05,-1734.28 123.65,-1739.83 133.92,-1743.54"/>
<polygon fill="#63b8ff" stroke="#63b8ff" points="40.83,-1093.72 36.91,-1083.88 33.84,-1094.02 40.83,-1093.72"/>
</g>
<!-- Node12 -->
<g id="node13" class="node">
<title>Node12</title>
<g id="a_node13"><a xlink:href="struct_plugins_1_1_daily_tasks_1_1_config.html" target="_top" xlink:title=" ">
<polygon fill="white" stroke="#666666" points="250.5,-1717 140.5,-1717 140.5,-1687 250.5,-1687 250.5,-1717"/>
<text text-anchor="start" x="148.5" y="-1705" font-family="Helvetica,sans-Serif" font-size="10.00">Plugins::DailyTasks</text>
<text text-anchor="middle" x="195.5" y="-1694" font-family="Helvetica,sans-Serif" font-size="10.00">::Config</text>
</a>
</g>
</g>
<!-- Node0&#45;&gt;Node12 -->
<g id="edge12" class="edge">
<title>Node0&#45;&gt;Node12</title>
<path fill="none" stroke="#63b8ff" d="M37.51,-1093.73C42.72,-1192.75 67.96,-1632.55 107,-1678 115.52,-1687.92 127.71,-1693.93 140.3,-1697.52"/>
<polygon fill="#63b8ff" stroke="#63b8ff" points="40.99,-1093.42 36.98,-1083.62 34,-1093.79 40.99,-1093.42"/>
</g>
<!-- Node13 -->
<g id="node14" class="node">
<title>Node13</title>
<g id="a_node14"><a xlink:href="struct_plugins_1_1_daily_tasks_1_1_task.html" target="_top" xlink:title=" ">
<polygon fill="white" stroke="#666666" points="250.5,-1669 140.5,-1669 140.5,-1639 250.5,-1639 250.5,-1669"/>
<text text-anchor="start" x="148.5" y="-1657" font-family="Helvetica,sans-Serif" font-size="10.00">Plugins::DailyTasks</text>
<text text-anchor="middle" x="195.5" y="-1646" font-family="Helvetica,sans-Serif" font-size="10.00">::Task</text>
</a>
</g>
</g>
<!-- Node0&#45;&gt;Node13 -->
<g id="edge13" class="edge">
<title>Node0&#45;&gt;Node13</title>
<path fill="none" stroke="#63b8ff" d="M36.18,-1093.82C35.17,-1183.17 35.53,-1547.62 107,-1630 115.57,-1639.88 127.78,-1645.87 140.37,-1649.46"/>
<polygon fill="#63b8ff" stroke="#63b8ff" points="39.69,-1093.75 36.32,-1083.71 32.69,-1093.66 39.69,-1093.75"/>
</g>
<!-- Node14 -->
<g id="node15" class="node">
<title>Node14</title>
<g id="a_node15"><a xlink:href="struct_plugins_1_1_daily_tasks_1_1_tasks.html" target="_top" xlink:title=" ">
<polygon fill="white" stroke="#666666" points="250.5,-1621 140.5,-1621 140.5,-1591 250.5,-1591 250.5,-1621"/>
<text text-anchor="start" x="148.5" y="-1609" font-family="Helvetica,sans-Serif" font-size="10.00">Plugins::DailyTasks</text>
<text text-anchor="middle" x="195.5" y="-1598" font-family="Helvetica,sans-Serif" font-size="10.00">::Tasks</text>
</a>
</g>
</g>
<!-- Node0&#45;&gt;Node14 -->
<g id="edge14" class="edge">
<title>Node0&#45;&gt;Node14</title>
<path fill="none" stroke="#63b8ff" d="M36.45,-1093.7C36.63,-1178 41.57,-1507.47 107,-1582 115.63,-1591.82 127.86,-1597.8 140.45,-1601.39"/>
<polygon fill="#63b8ff" stroke="#63b8ff" points="39.95,-1093.68 36.45,-1083.68 32.95,-1093.68 39.95,-1093.68"/>
</g>
<!-- Node15 -->
<g id="node16" class="node">
<title>Node15</title>
<g id="a_node16"><a xlink:href="struct_plugins_1_1_death_penalty_1_1_config.html" target="_top" xlink:title="Configurable fields for this plugin.">
<polygon fill="white" stroke="#666666" points="257.5,-1573 133.5,-1573 133.5,-1543 257.5,-1543 257.5,-1573"/>
<text text-anchor="start" x="141.5" y="-1561" font-family="Helvetica,sans-Serif" font-size="10.00">Plugins::DeathPenalty</text>
<text text-anchor="middle" x="195.5" y="-1550" font-family="Helvetica,sans-Serif" font-size="10.00">::Config</text>
</a>
</g>
</g>
<!-- Node0&#45;&gt;Node15 -->
<g id="edge15" class="edge">
<title>Node0&#45;&gt;Node15</title>
<path fill="none" stroke="#63b8ff" d="M36.76,-1093.57C38.21,-1172.62 47.59,-1467.29 107,-1534 114.02,-1541.88 123.36,-1547.28 133.32,-1550.96"/>
<polygon fill="#63b8ff" stroke="#63b8ff" points="40.26,-1093.47 36.6,-1083.53 33.26,-1093.58 40.26,-1093.47"/>
</g>
<!-- Node16 -->
<g id="node17" class="node">
<title>Node16</title>
<g id="a_node17"><a xlink:href="struct_plugins_1_1_event_1_1_config.html" target="_top" xlink:title="Configurable fields for this plugin.">
<polygon fill="white" stroke="#666666" points="256.5,-1524.5 134.5,-1524.5 134.5,-1505.5 256.5,-1505.5 256.5,-1524.5"/>
<text text-anchor="middle" x="195.5" y="-1512.5" font-family="Helvetica,sans-Serif" font-size="10.00">Plugins::Event::Config</text>
</a>
</g>
</g>
<!-- Node0&#45;&gt;Node16 -->
<g id="edge16" class="edge">
<title>Node0&#45;&gt;Node16</title>
<path fill="none" stroke="#63b8ff" d="M36.97,-1093.93C39.16,-1169.49 50.82,-1437.04 107,-1496 114.4,-1503.77 124.17,-1508.72 134.49,-1511.83"/>
<polygon fill="#63b8ff" stroke="#63b8ff" points="40.46,-1093.41 36.69,-1083.51 33.46,-1093.6 40.46,-1093.41"/>
</g>
<!-- Node17 -->
<g id="node18" class="node">
<title>Node17</title>
<g id="a_node18"><a xlink:href="struct_plugins_1_1_event_1_1_config_1_1_c_a_r_g_o___m_i_s_s_i_o_n___r_e_f_l_e_c_t_a_b_l_e.html" target="_top" xlink:title=" ">
<polygon fill="white" stroke="#666666" points="284,-1487 107,-1487 107,-1457 284,-1457 284,-1487"/>
<text text-anchor="start" x="115" y="-1475" font-family="Helvetica,sans-Serif" font-size="10.00">Plugins::Event::Config</text>
<text text-anchor="middle" x="195.5" y="-1464" font-family="Helvetica,sans-Serif" font-size="10.00">::CARGO_MISSION_REFLECTABLE</text>
</a>
</g>
</g>
<!-- Node0&#45;&gt;Node17 -->
<g id="edge17" class="edge">
<title>Node0&#45;&gt;Node17</title>
<path fill="none" stroke="#63b8ff" d="M37.53,-1093.8C41.55,-1163.37 58.43,-1395.31 107,-1448 110.1,-1451.36 113.61,-1454.26 117.42,-1456.78"/>
<polygon fill="#63b8ff" stroke="#63b8ff" points="41.02,-1093.54 36.98,-1083.75 34.03,-1093.92 41.02,-1093.54"/>
</g>
<!-- Node18 -->
<g id="node19" class="node">
<title>Node18</title>
<g id="a_node19"><a xlink:href="struct_plugins_1_1_event_1_1_config_1_1_n_p_c___m_i_s_s_i_o_n___r_e_f_l_e_c_t_a_b_l_e.html" target="_top" xlink:title=" ">
<polygon fill="white" stroke="#666666" points="276.5,-1439 114.5,-1439 114.5,-1409 276.5,-1409 276.5,-1439"/>
<text text-anchor="start" x="122.5" y="-1427" font-family="Helvetica,sans-Serif" font-size="10.00">Plugins::Event::Config</text>
<text text-anchor="middle" x="195.5" y="-1416" font-family="Helvetica,sans-Serif" font-size="10.00">::NPC_MISSION_REFLECTABLE</text>
</a>
</g>
</g>
<!-- Node0&#45;&gt;Node18 -->
<g id="edge18" class="edge">
<title>Node0&#45;&gt;Node18</title>
<path fill="none" stroke="#63b8ff" d="M38.15,-1094.08C43.82,-1157.99 64.46,-1355.07 107,-1400 110.25,-1403.43 113.94,-1406.39 117.92,-1408.94"/>
<polygon fill="#63b8ff" stroke="#63b8ff" points="41.61,-1093.43 37.27,-1083.77 34.64,-1094.03 41.61,-1093.43"/>
</g>
<!-- Node19 -->
<g id="node20" class="node">
<title>Node19</title>
<g id="a_node20"><a xlink:href="struct_plugins_1_1_kill_tracker_1_1_config.html" target="_top" xlink:title="Configurable fields for this plugin.">
<polygon fill="white" stroke="#666666" points="249.5,-1391 141.5,-1391 141.5,-1361 249.5,-1361 249.5,-1391"/>
<text text-anchor="start" x="149.5" y="-1379" font-family="Helvetica,sans-Serif" font-size="10.00">Plugins::KillTracker</text>
<text text-anchor="middle" x="195.5" y="-1368" font-family="Helvetica,sans-Serif" font-size="10.00">::Config</text>
</a>
</g>
</g>
<!-- Node0&#45;&gt;Node19 -->
<g id="edge19" class="edge">
<title>Node0&#45;&gt;Node19</title>
<path fill="none" stroke="#63b8ff" d="M38.92,-1093.7C46.3,-1150.79 70.31,-1314.59 107,-1352 116.16,-1361.33 128.57,-1367.14 141.17,-1370.72"/>
<polygon fill="#63b8ff" stroke="#63b8ff" points="42.39,-1093.26 37.66,-1083.78 35.44,-1094.14 42.39,-1093.26"/>
</g>
<!-- Node20 -->
<g id="node21" class="node">
<title>Node20</title>
<g id="a_node21"><a xlink:href="struct_plugins_1_1_kill_tracker_1_1_kill_message.html" target="_top" xlink:title="Struct to hold the Kill Streaks.">
<polygon fill="white" stroke="#666666" points="249.5,-1343 141.5,-1343 141.5,-1313 249.5,-1313 249.5,-1343"/>
<text text-anchor="start" x="149.5" y="-1331" font-family="Helvetica,sans-Serif" font-size="10.00">Plugins::KillTracker</text>
<text text-anchor="middle" x="195.5" y="-1320" font-family="Helvetica,sans-Serif" font-size="10.00">::KillMessage</text>
</a>
</g>
</g>
<!-- Node0&#45;&gt;Node20 -->
<g id="edge20" class="edge">
<title>Node0&#45;&gt;Node20</title>
<path fill="none" stroke="#63b8ff" d="M36.54,-1093.77C37.74,-1138.04 47.03,-1245.79 107,-1304 116.38,-1313.11 128.88,-1318.83 141.48,-1322.41"/>
<polygon fill="#63b8ff" stroke="#63b8ff" points="40.03,-1093.45 36.38,-1083.51 33.04,-1093.56 40.03,-1093.45"/>
</g>
<!-- Node21 -->
<g id="node22" class="node">
<title>Node21</title>
<g id="a_node22"><a xlink:href="struct_plugins_1_1_light_control_1_1_config.html" target="_top" xlink:title="Config data for this plugin.">
<polygon fill="white" stroke="#666666" points="254,-1295 137,-1295 137,-1265 254,-1265 254,-1295"/>
<text text-anchor="start" x="145" y="-1283" font-family="Helvetica,sans-Serif" font-size="10.00">Plugins::LightControl</text>
<text text-anchor="middle" x="195.5" y="-1272" font-family="Helvetica,sans-Serif" font-size="10.00">::Config</text>
</a>
</g>
</g>
<!-- Node0&#45;&gt;Node21 -->
<g id="edge21" class="edge">
<title>Node0&#45;&gt;Node21</title>
<path fill="none" stroke="#63b8ff" d="M38.39,-1093.66C43.03,-1130.96 58.45,-1212.16 107,-1256 115.42,-1263.6 126.02,-1268.82 136.92,-1272.41"/>
<polygon fill="#63b8ff" stroke="#63b8ff" points="41.85,-1093.14 37.26,-1083.59 34.89,-1093.91 41.85,-1093.14"/>
</g>
<!-- Node22 -->
<g id="node23" class="node">
<title>Node22</title>
<g id="a_node23"><a xlink:href="struct_plugins_1_1_loot_tables_1_1_config.html" target="_top" xlink:title=" ">
<polygon fill="white" stroke="#666666" points="250.5,-1247 140.5,-1247 140.5,-1217 250.5,-1217 250.5,-1247"/>
<text text-anchor="start" x="148.5" y="-1235" font-family="Helvetica,sans-Serif" font-size="10.00">Plugins::LootTables</text>
<text text-anchor="middle" x="195.5" y="-1224" font-family="Helvetica,sans-Serif" font-size="10.00">::Config</text>
</a>
</g>
</g>
<!-- Node0&#45;&gt;Node22 -->
<g id="edge22" class="edge">
<title>Node0&#45;&gt;Node22</title>
<path fill="none" stroke="#63b8ff" d="M41.45,-1093.71C49.86,-1123.08 69.76,-1178.06 107,-1208 116.58,-1215.7 128.44,-1220.93 140.31,-1224.49"/>
<polygon fill="#63b8ff" stroke="#63b8ff" points="44.76,-1092.56 38.78,-1083.82 38.01,-1094.38 44.76,-1092.56"/>
</g>
<!-- Node23 -->
<g id="node24" class="node">
<title>Node23</title>
<g id="a_node24"><a xlink:href="struct_plugins_1_1_loot_tables_1_1_drop_weight.html" target="_top" xlink:title=" ">
<polygon fill="white" stroke="#666666" points="250.5,-1199 140.5,-1199 140.5,-1169 250.5,-1169 250.5,-1199"/>
<text text-anchor="start" x="148.5" y="-1187" font-family="Helvetica,sans-Serif" font-size="10.00">Plugins::LootTables</text>
<text text-anchor="middle" x="195.5" y="-1176" font-family="Helvetica,sans-Serif" font-size="10.00">::DropWeight</text>
</a>
</g>
</g>
<!-- Node0&#45;&gt;Node23 -->
<g id="edge23" class="edge">
<title>Node0&#45;&gt;Node23</title>
<path fill="none" stroke="#63b8ff" d="M46.76,-1092.3C58.72,-1111.94 80.28,-1142.65 107,-1160 117.04,-1166.52 128.83,-1171.28 140.45,-1174.76"/>
<polygon fill="#63b8ff" stroke="#63b8ff" points="49.77,-1090.5 41.69,-1083.65 43.73,-1094.05 49.77,-1090.5"/>
</g>
<!-- Node24 -->
<g id="node25" class="node">
<title>Node24</title>
<g id="a_node25"><a xlink:href="struct_plugins_1_1_loot_tables_1_1_loot_table.html" target="_top" xlink:title=" ">
<polygon fill="white" stroke="#666666" points="250.5,-1151 140.5,-1151 140.5,-1121 250.5,-1121 250.5,-1151"/>
<text text-anchor="start" x="148.5" y="-1139" font-family="Helvetica,sans-Serif" font-size="10.00">Plugins::LootTables</text>
<text text-anchor="middle" x="195.5" y="-1128" font-family="Helvetica,sans-Serif" font-size="10.00">::LootTable</text>
</a>
</g>
</g>
<!-- Node0&#45;&gt;Node24 -->
<g id="edge24" class="edge">
<title>Node0&#45;&gt;Node24</title>
<path fill="none" stroke="#63b8ff" d="M60.92,-1088.94C74.2,-1096.6 91.11,-1105.63 107,-1112 117.53,-1116.22 129.06,-1119.96 140.19,-1123.16"/>
<polygon fill="#63b8ff" stroke="#63b8ff" points="62.36,-1085.72 51.96,-1083.66 58.8,-1091.75 62.36,-1085.72"/>
</g>
<!-- Node25 -->
<g id="node26" class="node">
<title>Node25</title>
<g id="a_node26"><a xlink:href="struct_plugins_1_1_mark_1_1_config.html" target="_top" xlink:title=" ">
<polygon fill="white" stroke="#666666" points="255,-1102.5 136,-1102.5 136,-1083.5 255,-1083.5 255,-1102.5"/>
<text text-anchor="middle" x="195.5" y="-1090.5" font-family="Helvetica,sans-Serif" font-size="10.00">Plugins::Mark::Config</text>
</a>
</g>
</g>
<!-- Node0&#45;&gt;Node25 -->
<g id="edge25" class="edge">
<title>Node0&#45;&gt;Node25</title>
<path fill="none" stroke="#63b8ff" d="M81.37,-1079.4C98.36,-1081.44 117.94,-1083.79 135.99,-1085.96"/>
<polygon fill="#63b8ff" stroke="#63b8ff" points="81.52,-1075.89 71.17,-1078.17 80.68,-1082.84 81.52,-1075.89"/>
</g>
<!-- Node26 -->
<g id="node27" class="node">
<title>Node26</title>
<g id="a_node27"><a xlink:href="struct_plugins_1_1_message_1_1_config.html" target="_top" xlink:title="Config data for this plugin.">
<polygon fill="white" stroke="#666666" points="264.5,-1065.5 126.5,-1065.5 126.5,-1046.5 264.5,-1046.5 264.5,-1065.5"/>
<text text-anchor="middle" x="195.5" y="-1053.5" font-family="Helvetica,sans-Serif" font-size="10.00">Plugins::Message::Config</text>
</a>
</g>
</g>
<!-- Node0&#45;&gt;Node26 -->
<g id="edge26" class="edge">
<title>Node0&#45;&gt;Node26</title>
<path fill="none" stroke="#63b8ff" d="M81.5,-1068.87C95.51,-1067.28 111.28,-1065.48 126.49,-1063.75"/>
<polygon fill="#63b8ff" stroke="#63b8ff" points="80.71,-1065.44 71.17,-1070.05 81.51,-1072.4 80.71,-1065.44"/>
</g>
<!-- Node27 -->
<g id="node28" class="node">
<title>Node27</title>
<g id="a_node28"><a xlink:href="struct_plugins_1_1_mining_control_1_1_config.html" target="_top" xlink:title="Config data for this plugin.">
<polygon fill="white" stroke="#666666" points="258.5,-1028 132.5,-1028 132.5,-998 258.5,-998 258.5,-1028"/>
<text text-anchor="start" x="140.5" y="-1016" font-family="Helvetica,sans-Serif" font-size="10.00">Plugins::MiningControl</text>
<text text-anchor="middle" x="195.5" y="-1005" font-family="Helvetica,sans-Serif" font-size="10.00">::Config</text>
</a>
</g>
</g>
<!-- Node0&#45;&gt;Node27 -->
<g id="edge27" class="edge">
<title>Node0&#45;&gt;Node27</title>
<path fill="none" stroke="#63b8ff" d="M61.83,-1059.56C75.01,-1052.43 91.57,-1044.08 107,-1038 116.11,-1034.41 125.95,-1031.09 135.61,-1028.13"/>
<polygon fill="#63b8ff" stroke="#63b8ff" points="59.96,-1056.59 52.89,-1064.48 63.33,-1062.72 59.96,-1056.59"/>
</g>
<!-- Node28 -->
<g id="node29" class="node">
<title>Node28</title>
<g id="a_node29"><a xlink:href="struct_plugins_1_1_mining_control_1_1_mining_stats.html" target="_top" xlink:title="A struct to load in the stats config file across restarts.">
<polygon fill="white" stroke="#666666" points="258.5,-980 132.5,-980 132.5,-950 258.5,-950 258.5,-980"/>
<text text-anchor="start" x="140.5" y="-968" font-family="Helvetica,sans-Serif" font-size="10.00">Plugins::MiningControl</text>
<text text-anchor="middle" x="195.5" y="-957" font-family="Helvetica,sans-Serif" font-size="10.00">::MiningStats</text>
</a>
</g>
</g>
<!-- Node0&#45;&gt;Node28 -->
<g id="edge28" class="edge">
<title>Node0&#45;&gt;Node28</title>
<path fill="none" stroke="#63b8ff" d="M46.98,-1055.65C59.01,-1036.23 80.54,-1006.07 107,-989 114.68,-984.05 123.37,-980.11 132.22,-976.97"/>
<polygon fill="#63b8ff" stroke="#63b8ff" points="43.84,-1054.08 41.72,-1064.46 49.85,-1057.67 43.84,-1054.08"/>
</g>
<!-- Node29 -->
<g id="node30" class="node">
<title>Node29</title>
<g id="a_node30"><a xlink:href="struct_plugins_1_1_mining_control_1_1_player_bonus.html" target="_top" xlink:title="A struct that defines a mining bonus to a player if they meet certain criteria.">
<polygon fill="white" stroke="#666666" points="258.5,-932 132.5,-932 132.5,-902 258.5,-902 258.5,-932"/>
<text text-anchor="start" x="140.5" y="-920" font-family="Helvetica,sans-Serif" font-size="10.00">Plugins::MiningControl</text>
<text text-anchor="middle" x="195.5" y="-909" font-family="Helvetica,sans-Serif" font-size="10.00">::PlayerBonus</text>
</a>
</g>
</g>
<!-- Node0&#45;&gt;Node29 -->
<g id="edge29" class="edge">
<title>Node0&#45;&gt;Node29</title>
<path fill="none" stroke="#63b8ff" d="M41.49,-1054.43C49.96,-1025.28 69.93,-970.71 107,-941 114.38,-935.09 123.1,-930.63 132.14,-927.27"/>
<polygon fill="#63b8ff" stroke="#63b8ff" points="38.07,-1053.69 38.8,-1064.26 44.82,-1055.54 38.07,-1053.69"/>
</g>
<!-- Node30 -->
<g id="node31" class="node">
<title>Node30</title>
<g id="a_node31"><a xlink:href="struct_plugins_1_1_mining_control_1_1_zone_bonus.html" target="_top" xlink:title="A struct that defines a mining bonus for a certain zone in space.">
<polygon fill="white" stroke="#666666" points="258.5,-884 132.5,-884 132.5,-854 258.5,-854 258.5,-884"/>
<text text-anchor="start" x="140.5" y="-872" font-family="Helvetica,sans-Serif" font-size="10.00">Plugins::MiningControl</text>
<text text-anchor="middle" x="195.5" y="-861" font-family="Helvetica,sans-Serif" font-size="10.00">::ZoneBonus</text>
</a>
</g>
</g>
<!-- Node0&#45;&gt;Node30 -->
<g id="edge30" class="edge">
<title>Node0&#45;&gt;Node30</title>
<path fill="none" stroke="#63b8ff" d="M38.42,-1054.44C43.13,-1017.35 58.65,-936.58 107,-893 114.25,-886.46 123.13,-881.68 132.41,-878.19"/>
<polygon fill="#63b8ff" stroke="#63b8ff" points="34.93,-1054.13 37.28,-1064.47 41.89,-1054.92 34.93,-1054.13"/>
</g>
<!-- Node31 -->
<g id="node32" class="node">
<title>Node31</title>
<g id="a_node32"><a xlink:href="struct_plugins_1_1_mining_control_1_1_zone_stats.html" target="_top" xlink:title="A struct to hold the current status of a zone so their progress persists across restarts.">
<polygon fill="white" stroke="#666666" points="258.5,-836 132.5,-836 132.5,-806 258.5,-806 258.5,-836"/>
<text text-anchor="start" x="140.5" y="-824" font-family="Helvetica,sans-Serif" font-size="10.00">Plugins::MiningControl</text>
<text text-anchor="middle" x="195.5" y="-813" font-family="Helvetica,sans-Serif" font-size="10.00">::ZoneStats</text>
</a>
</g>
</g>
<!-- Node0&#45;&gt;Node31 -->
<g id="edge31" class="edge">
<title>Node0&#45;&gt;Node31</title>
<path fill="none" stroke="#63b8ff" d="M36.58,-1053.98C37.87,-1009.7 47.38,-902.8 107,-845 114.12,-838.09 123.04,-833.13 132.44,-829.58"/>
<polygon fill="#63b8ff" stroke="#63b8ff" points="33.08,-1053.99 36.4,-1064.05 40.08,-1054.11 33.08,-1053.99"/>
</g>
<!-- Node32 -->
<g id="node33" class="node">
<title>Node32</title>
<g id="a_node33"><a xlink:href="struct_plugins_1_1_misc_commands_1_1_config.html" target="_top" xlink:title="Config data for this plugin.">
<polygon fill="white" stroke="#666666" points="263.5,-788 127.5,-788 127.5,-758 263.5,-758 263.5,-788"/>
<text text-anchor="start" x="135.5" y="-776" font-family="Helvetica,sans-Serif" font-size="10.00">Plugins::MiscCommands</text>
<text text-anchor="middle" x="195.5" y="-765" font-family="Helvetica,sans-Serif" font-size="10.00">::Config</text>
</a>
</g>
</g>
<!-- Node0&#45;&gt;Node32 -->
<g id="edge32" class="edge">
<title>Node0&#45;&gt;Node32</title>
<path fill="none" stroke="#63b8ff" d="M38.97,-1054.01C46.44,-996.81 70.49,-834.19 107,-797 112.74,-791.15 119.76,-786.69 127.3,-783.3"/>
<polygon fill="#63b8ff" stroke="#63b8ff" points="35.46,-1053.89 37.67,-1064.26 42.4,-1054.78 35.46,-1053.89"/>
</g>
<!-- Node33 -->
<g id="node34" class="node">
<title>Node33</title>
<g id="a_node34"><a xlink:href="struct_plugins_1_1_n_p_c_spin_protection_1_1_config.html" target="_top" xlink:title="Config data for this plugin.">
<polygon fill="white" stroke="#666666" points="270,-740 121,-740 121,-710 270,-710 270,-740"/>
<text text-anchor="start" x="129" y="-728" font-family="Helvetica,sans-Serif" font-size="10.00">Plugins::NPCSpinProtection</text>
<text text-anchor="middle" x="195.5" y="-717" font-family="Helvetica,sans-Serif" font-size="10.00">::Config</text>
</a>
</g>
</g>
<!-- Node0&#45;&gt;Node33 -->
<g id="edge33" class="edge">
<title>Node0&#45;&gt;Node33</title>
<path fill="none" stroke="#63b8ff" d="M38.16,-1053.98C43.85,-990.27 64.57,-793.79 107,-749 111.01,-744.77 115.69,-741.26 120.76,-738.35"/>
<polygon fill="#63b8ff" stroke="#63b8ff" points="34.65,-1054 37.27,-1064.26 41.62,-1054.6 34.65,-1054"/>
</g>
<!-- Node34 -->
<g id="node35" class="node">
<title>Node34</title>
<g id="a_node35"><a xlink:href="struct_plugins_1_1_npc_1_1_config.html" target="_top" xlink:title="Config data for this plugin.">
<polygon fill="white" stroke="#666666" points="252,-691.5 139,-691.5 139,-672.5 252,-672.5 252,-691.5"/>
<text text-anchor="middle" x="195.5" y="-679.5" font-family="Helvetica,sans-Serif" font-size="10.00">Plugins::Npc::Config</text>
</a>
</g>
</g>
<!-- Node0&#45;&gt;Node34 -->
<g id="edge34" class="edge">
<title>Node0&#45;&gt;Node34</title>
<path fill="none" stroke="#63b8ff" d="M37.44,-1054.16C41.16,-984.46 57.14,-752.22 107,-701 115.46,-692.31 126.88,-687.15 138.69,-684.18"/>
<polygon fill="#63b8ff" stroke="#63b8ff" points="33.94,-1054.07 36.93,-1064.23 40.93,-1054.42 33.94,-1054.07"/>
</g>
<!-- Node35 -->
<g id="node36" class="node">
<title>Node35</title>
<g id="a_node36"><a xlink:href="struct_plugins_1_1_npc_1_1_fleet.html" target="_top" xlink:title=" ">
<polygon fill="white" stroke="#666666" points="249,-654.5 142,-654.5 142,-635.5 249,-635.5 249,-654.5"/>
<text text-anchor="middle" x="195.5" y="-642.5" font-family="Helvetica,sans-Serif" font-size="10.00">Plugins::Npc::Fleet</text>
</a>
</g>
</g>
<!-- Node0&#45;&gt;Node35 -->
<g id="edge35" class="edge">
<title>Node0&#45;&gt;Node35</title>
<path fill="none" stroke="#63b8ff" d="M37.07,-1054.15C39.62,-980.08 52.36,-721.07 107,-664 116.14,-654.46 128.85,-649.15 141.76,-646.33"/>
<polygon fill="#63b8ff" stroke="#63b8ff" points="33.57,-1054.29 36.75,-1064.4 40.56,-1054.51 33.57,-1054.29"/>
</g>
<!-- Node36 -->
<g id="node37" class="node">
<title>Node36</title>
<g id="a_node37"><a xlink:href="struct_plugins_1_1_npc_1_1_npc.html" target="_top" xlink:title="A struct that represents an npc that can be spawned.">
<polygon fill="white" stroke="#666666" points="246,-617.5 145,-617.5 145,-598.5 246,-598.5 246,-617.5"/>
<text text-anchor="middle" x="195.5" y="-605.5" font-family="Helvetica,sans-Serif" font-size="10.00">Plugins::Npc::Npc</text>
</a>
</g>
</g>
<!-- Node0&#45;&gt;Node36 -->
<g id="edge36" class="edge">
<title>Node0&#45;&gt;Node36</title>
<path fill="none" stroke="#63b8ff" d="M36.77,-1053.91C38.23,-975.3 47.62,-689.89 107,-627 116.82,-616.6 130.88,-611.22 144.87,-608.6"/>
<polygon fill="#63b8ff" stroke="#63b8ff" points="33.26,-1054.26 36.6,-1064.32 40.26,-1054.38 33.26,-1054.26"/>
</g>
<!-- Node37 -->
<g id="node38" class="node">
<title>Node37</title>
<g id="a_node38"><a xlink:href="struct_plugins_1_1_npc_1_1_startup_npc.html" target="_top" xlink:title=" ">
<polygon fill="white" stroke="#666666" points="264,-580.5 127,-580.5 127,-561.5 264,-561.5 264,-580.5"/>
<text text-anchor="middle" x="195.5" y="-568.5" font-family="Helvetica,sans-Serif" font-size="10.00">Plugins::Npc::StartupNpc</text>
</a>
</g>
</g>
<!-- Node0&#45;&gt;Node37 -->
<g id="edge37" class="edge">
<title>Node0&#45;&gt;Node37</title>
<path fill="none" stroke="#63b8ff" d="M36.5,-1053.86C36.92,-971.16 42.81,-658.79 107,-590 112.51,-584.09 119.4,-579.8 126.87,-576.71"/>
<polygon fill="#63b8ff" stroke="#63b8ff" points="33,-1054.33 36.47,-1064.34 40,-1054.35 33,-1054.33"/>
</g>
<!-- Node38 -->
<g id="node39" class="node">
<title>Node38</title>
<g id="a_node39"><a xlink:href="struct_plugins_1_1_purchase_restrictions_1_1_config.html" target="_top" xlink:title="Config data for this plugin.">
<polygon fill="white" stroke="#666666" points="275.5,-543 115.5,-543 115.5,-513 275.5,-513 275.5,-543"/>
<text text-anchor="start" x="123.5" y="-531" font-family="Helvetica,sans-Serif" font-size="10.00">Plugins::PurchaseRestrictions</text>
<text text-anchor="middle" x="195.5" y="-520" font-family="Helvetica,sans-Serif" font-size="10.00">::Config</text>
</a>
</g>
</g>
<!-- Node0&#45;&gt;Node38 -->
<g id="edge38" class="edge">
<title>Node0&#45;&gt;Node38</title>
<path fill="none" stroke="#63b8ff" d="M36.39,-1054.08C36.33,-968.14 40.4,-629.94 107,-553 110.31,-549.18 114.16,-545.92 118.36,-543.15"/>
<polygon fill="#63b8ff" stroke="#63b8ff" points="32.89,-1054.1 36.42,-1064.09 39.89,-1054.08 32.89,-1054.1"/>
</g>
<!-- Node39 -->
<g id="node40" class="node">
<title>Node39</title>
<g id="a_node40"><a xlink:href="struct_plugins_1_1_rename_1_1_config.html" target="_top" xlink:title="Config data for this plugin.">
<polygon fill="white" stroke="#666666" points="263,-494.5 128,-494.5 128,-475.5 263,-475.5 263,-494.5"/>
<text text-anchor="middle" x="195.5" y="-482.5" font-family="Helvetica,sans-Serif" font-size="10.00">Plugins::Rename::Config</text>
</a>
</g>
</g>
<!-- Node0&#45;&gt;Node39 -->
<g id="edge39" class="edge">
<title>Node0&#45;&gt;Node39</title>
<path fill="none" stroke="#63b8ff" d="M37.59,-1054.45C43.08,-959.08 68.96,-545.66 107,-504 112.66,-497.8 119.83,-493.37 127.61,-490.24"/>
<polygon fill="#63b8ff" stroke="#63b8ff" points="34.09,-1054.27 37.02,-1064.45 41.08,-1054.67 34.09,-1054.27"/>
</g>
<!-- Node40 -->
<g id="node41" class="node">
<title>Node40</title>
<g id="a_node41"><a xlink:href="struct_plugins_1_1_rename_1_1_tag_data.html" target="_top" xlink:title="Struct to hold a clan/group tag. This contains the passwords used to manage and rename a character to...">
<polygon fill="white" stroke="#666666" points="267.5,-457.5 123.5,-457.5 123.5,-438.5 267.5,-438.5 267.5,-457.5"/>
<text text-anchor="middle" x="195.5" y="-445.5" font-family="Helvetica,sans-Serif" font-size="10.00">Plugins::Rename::TagData</text>
</a>
</g>
</g>
<!-- Node0&#45;&gt;Node40 -->
<g id="edge40" class="edge">
<title>Node0&#45;&gt;Node40</title>
<path fill="none" stroke="#63b8ff" d="M37.45,-1054.13C42.41,-954.42 66.57,-511.61 107,-467 111.59,-461.93 117.19,-458.04 123.32,-455.08"/>
<polygon fill="#63b8ff" stroke="#63b8ff" points="33.95,-1054.15 36.95,-1064.31 40.94,-1054.5 33.95,-1054.15"/>
</g>
<!-- Node41 -->
<g id="node42" class="node">
<title>Node41</title>
<g id="a_node42"><a xlink:href="struct_plugins_1_1_rename_1_1_tag_list.html" target="_top" xlink:title="A struct to hold all the tags.">
<polygon fill="white" stroke="#666666" points="264.5,-420.5 126.5,-420.5 126.5,-401.5 264.5,-401.5 264.5,-420.5"/>
<text text-anchor="middle" x="195.5" y="-408.5" font-family="Helvetica,sans-Serif" font-size="10.00">Plugins::Rename::TagList</text>
</a>
</g>
</g>
<!-- Node0&#45;&gt;Node41 -->
<g id="edge41" class="edge">
<title>Node0&#45;&gt;Node41</title>
<path fill="none" stroke="#63b8ff" d="M37.31,-1054.22C41.7,-951.06 64.11,-477.63 107,-430 112.3,-424.11 118.97,-419.81 126.24,-416.7"/>
<polygon fill="#63b8ff" stroke="#63b8ff" points="33.81,-1054.08 36.89,-1064.22 40.81,-1054.37 33.81,-1054.08"/>
</g>
<!-- Node42 -->
<g id="node43" class="node">
<title>Node42</title>
<g id="a_node43"><a xlink:href="struct_plugins_1_1_restart_1_1_config.html" target="_top" xlink:title="Config data for this plugin.">
<polygon fill="white" stroke="#666666" points="260.5,-383.5 130.5,-383.5 130.5,-364.5 260.5,-364.5 260.5,-383.5"/>
<text text-anchor="middle" x="195.5" y="-371.5" font-family="Helvetica,sans-Serif" font-size="10.00">Plugins::Restart::Config</text>
</a>
</g>
</g>
<!-- Node0&#45;&gt;Node42 -->
<g id="edge42" class="edge">
<title>Node0&#45;&gt;Node42</title>
<path fill="none" stroke="#63b8ff" d="M37.19,-1054.1C41.07,-947.16 61.68,-443.63 107,-393 113.22,-386.05 121.33,-381.31 130.11,-378.14"/>
<polygon fill="#63b8ff" stroke="#63b8ff" points="33.69,-1054.05 36.83,-1064.17 40.68,-1054.3 33.69,-1054.05"/>
</g>
<!-- Node43 -->
<g id="node44" class="node">
<title>Node43</title>
<g id="a_node44"><a xlink:href="struct_plugins_1_1_sound_manager_1_1_config.html" target="_top" xlink:title="Config data for this plugin.">
<polygon fill="white" stroke="#666666" points="261,-346 130,-346 130,-316 261,-316 261,-346"/>
<text text-anchor="start" x="138" y="-334" font-family="Helvetica,sans-Serif" font-size="10.00">Plugins::SoundManager</text>
<text text-anchor="middle" x="195.5" y="-323" font-family="Helvetica,sans-Serif" font-size="10.00">::Config</text>
</a>
</g>
</g>
<!-- Node0&#45;&gt;Node43 -->
<g id="edge43" class="edge">
<title>Node0&#45;&gt;Node43</title>
<path fill="none" stroke="#63b8ff" d="M37.14,-1054.13C40.83,-943.97 60.99,-411.16 107,-356 113.07,-348.72 121.1,-343.48 129.84,-339.72"/>
<polygon fill="#63b8ff" stroke="#63b8ff" points="33.63,-1054.34 36.8,-1064.44 40.62,-1054.57 33.63,-1054.34"/>
</g>
<!-- Node44 -->
<g id="node45" class="node">
<title>Node44</title>
<g id="a_node45"><a xlink:href="struct_plugins_1_1_stats_1_1_file_name.html" target="_top" xlink:title="Reflectable struct that contains the file path of the config file as well as the file to export stats...">
<polygon fill="white" stroke="#666666" points="263,-297.5 128,-297.5 128,-278.5 263,-278.5 263,-297.5"/>
<text text-anchor="middle" x="195.5" y="-285.5" font-family="Helvetica,sans-Serif" font-size="10.00">Plugins::Stats::FileName</text>
</a>
</g>
</g>
<!-- Node0&#45;&gt;Node44 -->
<g id="edge44" class="edge">
<title>Node0&#45;&gt;Node44</title>
<path fill="none" stroke="#63b8ff" d="M36.95,-1054.16C39.7,-939.5 55.98,-364.67 107,-307 112.67,-300.6 119.94,-296.07 127.86,-292.9"/>
<polygon fill="#63b8ff" stroke="#63b8ff" points="33.44,-1054.23 36.71,-1064.31 40.44,-1054.39 33.44,-1054.23"/>
</g>
<!-- Node45 -->
<g id="node46" class="node">
<title>Node45</title>
<g id="a_node46"><a xlink:href="struct_plugins_1_1_system_sensor_1_1_config.html" target="_top" xlink:title=" ">
<polygon fill="white" stroke="#666666" points="259.5,-260 131.5,-260 131.5,-230 259.5,-230 259.5,-260"/>
<text text-anchor="start" x="139.5" y="-248" font-family="Helvetica,sans-Serif" font-size="10.00">Plugins::SystemSensor</text>
<text text-anchor="middle" x="195.5" y="-237" font-family="Helvetica,sans-Serif" font-size="10.00">::Config</text>
</a>
</g>
</g>
<!-- Node0&#45;&gt;Node45 -->
<g id="edge45" class="edge">
<title>Node0&#45;&gt;Node45</title>
<path fill="none" stroke="#63b8ff" d="M36.91,-1054.37C39.53,-937.12 55.48,-332.42 107,-270 113.34,-262.32 121.85,-256.91 131.09,-253.11"/>
<polygon fill="#63b8ff" stroke="#63b8ff" points="33.41,-1054.35 36.69,-1064.42 40.41,-1054.5 33.41,-1054.35"/>
</g>
<!-- Node46 -->
<g id="node47" class="node">
<title>Node46</title>
<g id="a_node47"><a xlink:href="struct_plugins_1_1_system_sensor_1_1_reflectable_sensor.html" target="_top" xlink:title=" ">
<polygon fill="white" stroke="#666666" points="259.5,-212 131.5,-212 131.5,-182 259.5,-182 259.5,-212"/>
<text text-anchor="start" x="139.5" y="-200" font-family="Helvetica,sans-Serif" font-size="10.00">Plugins::SystemSensor</text>
<text text-anchor="middle" x="195.5" y="-189" font-family="Helvetica,sans-Serif" font-size="10.00">::ReflectableSensor</text>
</a>
</g>
</g>
<!-- Node0&#45;&gt;Node46 -->
<g id="edge46" class="edge">
<title>Node0&#45;&gt;Node46</title>
<path fill="none" stroke="#63b8ff" d="M36.8,-1054.31C38.8,-932.73 52.01,-287.25 107,-221 113.34,-213.36 121.86,-208.03 131.1,-204.33"/>
<polygon fill="#63b8ff" stroke="#63b8ff" points="33.3,-1054.35 36.64,-1064.4 40.3,-1054.46 33.3,-1054.35"/>
</g>
<!-- Node47 -->
<g id="node48" class="node">
<title>Node47</title>
<g id="a_node48"><a xlink:href="struct_plugins_1_1_tax_1_1_config.html" target="_top" xlink:title="Configurable fields for this plugin.">
<polygon fill="white" stroke="#666666" points="251,-163.5 140,-163.5 140,-144.5 251,-144.5 251,-163.5"/>
<text text-anchor="middle" x="195.5" y="-151.5" font-family="Helvetica,sans-Serif" font-size="10.00">Plugins::Tax::Config</text>
</a>
</g>
</g>
<!-- Node0&#45;&gt;Node47 -->
<g id="edge47" class="edge">
<title>Node0&#45;&gt;Node47</title>
<path fill="none" stroke="#63b8ff" d="M36.66,-1054.34C37.84,-928.74 47.04,-241.71 107,-173 115.38,-163.4 127.37,-158 139.8,-155.09"/>
<polygon fill="#63b8ff" stroke="#63b8ff" points="33.16,-1054.4 36.57,-1064.43 40.16,-1054.46 33.16,-1054.4"/>
</g>
<!-- Node48 -->
<g id="node49" class="node">
<title>Node48</title>
<g id="a_node49"><a xlink:href="struct_plugins_1_1_template_1_1_config.html" target="_top" xlink:title=" ">
<polygon fill="white" stroke="#666666" points="250,-126 141,-126 141,-96 250,-96 250,-126"/>
<text text-anchor="start" x="149" y="-114" font-family="Helvetica,sans-Serif" font-size="10.00">Plugins::Template::</text>
<text text-anchor="middle" x="195.5" y="-103" font-family="Helvetica,sans-Serif" font-size="10.00">Config</text>
</a>
</g>
</g>
<!-- Node0&#45;&gt;Node48 -->
<g id="edge48" class="edge">
<title>Node0&#45;&gt;Node48</title>
<path fill="none" stroke="#63b8ff" d="M36.65,-1053.99C37.82,-924.64 46.98,-209.66 107,-136 115.48,-125.59 127.98,-119.34 140.89,-115.63"/>
<polygon fill="#63b8ff" stroke="#63b8ff" points="33.15,-1054.33 36.57,-1064.36 40.15,-1054.39 33.15,-1054.33"/>
</g>
<!-- Node49 -->
<g id="node50" class="node">
<title>Node49</title>
<g id="a_node50"><a xlink:href="struct_plugins_1_1_wardrobe_1_1_config.html" target="_top" xlink:title="Config data for this plugin.">
<polygon fill="white" stroke="#666666" points="250.5,-78 140.5,-78 140.5,-48 250.5,-48 250.5,-78"/>
<text text-anchor="start" x="148.5" y="-66" font-family="Helvetica,sans-Serif" font-size="10.00">Plugins::Wardrobe::</text>
<text text-anchor="middle" x="195.5" y="-55" font-family="Helvetica,sans-Serif" font-size="10.00">Config</text>
</a>
</g>
</g>
<!-- Node0&#45;&gt;Node49 -->
<g id="edge49" class="edge">
<title>Node0&#45;&gt;Node49</title>
<path fill="none" stroke="#63b8ff" d="M36.56,-1054.19C37.17,-921.46 43.4,-164.51 107,-87 115.39,-76.77 127.7,-70.67 140.45,-67.09"/>
<polygon fill="#63b8ff" stroke="#63b8ff" points="33.06,-1054.45 36.52,-1064.46 40.06,-1054.48 33.06,-1054.45"/>
</g>
<!-- Node50 -->
<g id="node51" class="node">
<title>Node50</title>
<g id="a_node51"><a xlink:href="struct_plugins_1_1_warehouse_1_1_config.html" target="_top" xlink:title=" ">
<polygon fill="white" stroke="#666666" points="251.5,-30 139.5,-30 139.5,0 251.5,0 251.5,-30"/>
<text text-anchor="start" x="147.5" y="-18" font-family="Helvetica,sans-Serif" font-size="10.00">Plugins::Warehouse</text>
<text text-anchor="middle" x="195.5" y="-7" font-family="Helvetica,sans-Serif" font-size="10.00">::Config</text>
</a>
</g>
</g>
<!-- Node0&#45;&gt;Node50 -->
<g id="edge50" class="edge">
<title>Node0&#45;&gt;Node50</title>
<path fill="none" stroke="#63b8ff" d="M36.49,-1054.07C36.63,-917.31 40.32,-120.53 107,-39 115.08,-29.12 126.8,-23.09 139.06,-19.47"/>
<polygon fill="#63b8ff" stroke="#63b8ff" points="32.99,-1054.31 36.49,-1064.31 39.99,-1054.31 32.99,-1054.31"/>
</g>
</g>
</svg>
