<?xml version="1.0" encoding="UTF-8" standalone="no"?>
<!DOCTYPE svg PUBLIC "-//W3C//DTD SVG 1.1//EN"
 "http://www.w3.org/Graphics/SVG/1.1/DTD/svg11.dtd">
<!-- Generated by graphviz version 2.43.0 (0)
 -->
<!-- Title: Graphical Class Hierarchy Pages: 1 -->
<svg width="324pt" height="86pt"
 viewBox="0.00 0.00 324.00 86.00" xmlns="http://www.w3.org/2000/svg" xmlns:xlink="http://www.w3.org/1999/xlink">
<g id="graph0" class="graph" transform="scale(1 1) rotate(0) translate(4 82)">
<title>Graphical Class Hierarchy</title>
<!-- Node0 -->
<g id="node1" class="node">
<title>Node0</title>
<g id="a_node1"><a xlink:title=" ">
<polygon fill="#e0e0e0" stroke="#999999" points="119,-48.5 0,-48.5 0,-29.5 119,-29.5 119,-48.5"/>
<text text-anchor="middle" x="59.5" y="-36.5" font-family="Helvetica,sans-Serif" font-size="10.00">PluginCommunicator</text>
</a>
</g>
</g>
<!-- Node1 -->
<g id="node2" class="node">
<title>Node1</title>
<g id="a_node2"><a xlink:href="class_plugins_1_1_cash_manager_1_1_cash_manager_communicator.html" target="_top" xlink:title=" ">
<polygon fill="white" stroke="#666666" points="316,-78 155,-78 155,-48 316,-48 316,-78"/>
<text text-anchor="start" x="163" y="-66" font-family="Helvetica,sans-Serif" font-size="10.00">Plugins::CashManager</text>
<text text-anchor="middle" x="235.5" y="-55" font-family="Helvetica,sans-Serif" font-size="10.00">::CashManagerCommunicator</text>
</a>
</g>
</g>
<!-- Node0&#45;&gt;Node1 -->
<g id="edge1" class="edge">
<title>Node0&#45;&gt;Node1</title>
<path fill="none" stroke="#63b8ff" d="M129.49,-48.52C137.86,-49.67 146.47,-50.86 154.98,-52.03"/>
<polygon fill="#63b8ff" stroke="#63b8ff" points="129.79,-45.02 119.41,-47.13 128.84,-51.96 129.79,-45.02"/>
</g>
<!-- Node2 -->
<g id="node3" class="node">
<title>Node2</title>
<g id="a_node3"><a xlink:href="class_plugins_1_1_con_data_1_1_con_data_communicator.html" target="_top" xlink:title=" ">
<polygon fill="white" stroke="#666666" points="309.5,-30 161.5,-30 161.5,0 309.5,0 309.5,-30"/>
<text text-anchor="start" x="169.5" y="-18" font-family="Helvetica,sans-Serif" font-size="10.00">Plugins::ConData::ConData</text>
<text text-anchor="middle" x="235.5" y="-7" font-family="Helvetica,sans-Serif" font-size="10.00">Communicator</text>
</a>
</g>
</g>
<!-- Node0&#45;&gt;Node2 -->
<g id="edge2" class="edge">
<title>Node0&#45;&gt;Node2</title>
<path fill="none" stroke="#63b8ff" d="M129.38,-29.5C139.92,-28.05 150.83,-26.54 161.46,-25.07"/>
<polygon fill="#63b8ff" stroke="#63b8ff" points="128.84,-26.04 119.41,-30.87 129.79,-32.98 128.84,-26.04"/>
</g>
</g>
</svg>
