<?xml version="1.0" encoding="UTF-8" standalone="no"?>
<!DOCTYPE svg PUBLIC "-//W3C//DTD SVG 1.1//EN"
 "http://www.w3.org/Graphics/SVG/1.1/DTD/svg11.dtd">
<!-- Generated by graphviz version 2.43.0 (0)
 -->
<!-- Title: Graphical Class Hierarchy Pages: 1 -->
<svg width="324pt" height="134pt"
 viewBox="0.00 0.00 324.00 134.00" xmlns="http://www.w3.org/2000/svg" xmlns:xlink="http://www.w3.org/1999/xlink">
<g id="graph0" class="graph" transform="scale(1 1) rotate(0) translate(4 130)">
<title>Graphical Class Hierarchy</title>
<!-- Node0 -->
<g id="node1" class="node">
<title>Node0</title>
<g id="a_node1"><a xlink:title=" ">
<polygon fill="#e0e0e0" stroke="#999999" points="119,-72.5 0,-72.5 0,-53.5 119,-53.5 119,-72.5"/>
<text text-anchor="middle" x="59.5" y="-60.5" font-family="Helvetica,sans-Serif" font-size="10.00">PluginCommunicator</text>
</a>
</g>
</g>
<!-- Node1 -->
<g id="node2" class="node">
<title>Node1</title>
<g id="a_node2"><a xlink:href="class_plugins_1_1_cash_manager_1_1_cash_manager_communicator.html" target="_top" xlink:title=" ">
<polygon fill="white" stroke="#666666" points="316,-126 155,-126 155,-96 316,-96 316,-126"/>
<text text-anchor="start" x="163" y="-114" font-family="Helvetica,sans-Serif" font-size="10.00">Plugins::CashManager</text>
<text text-anchor="middle" x="235.5" y="-103" font-family="Helvetica,sans-Serif" font-size="10.00">::CashManagerCommunicator</text>
</a>
</g>
</g>
<!-- Node0&#45;&gt;Node1 -->
<g id="edge1" class="edge">
<title>Node0&#45;&gt;Node1</title>
<path fill="none" stroke="#63b8ff" d="M105.05,-75.29C127.85,-81.58 155.81,-89.29 179.9,-95.94"/>
<polygon fill="#63b8ff" stroke="#63b8ff" points="105.86,-71.88 95.29,-72.6 104,-78.63 105.86,-71.88"/>
</g>
<!-- Node2 -->
<g id="node3" class="node">
<title>Node2</title>
<g id="a_node3"><a xlink:href="class_plugins_1_1_con_data_1_1_con_data_communicator.html" target="_top" xlink:title=" ">
<polygon fill="white" stroke="#666666" points="309.5,-78 161.5,-78 161.5,-48 309.5,-48 309.5,-78"/>
<text text-anchor="start" x="169.5" y="-66" font-family="Helvetica,sans-Serif" font-size="10.00">Plugins::ConData::ConData</text>
<text text-anchor="middle" x="235.5" y="-55" font-family="Helvetica,sans-Serif" font-size="10.00">Communicator</text>
</a>
</g>
</g>
<!-- Node0&#45;&gt;Node2 -->
<g id="edge2" class="edge">
<title>Node0&#45;&gt;Node2</title>
<path fill="none" stroke="#63b8ff" d="M129.7,-63C140.14,-63 150.94,-63 161.46,-63"/>
<polygon fill="#63b8ff" stroke="#63b8ff" points="129.41,-59.5 119.41,-63 129.41,-66.5 129.41,-59.5"/>
</g>
<!-- Node3 -->
<g id="node4" class="node">
<title>Node3</title>
<g id="a_node4"><a xlink:href="class_plugins_1_1_tempban_1_1_temp_ban_communicator.html" target="_top" xlink:title="Communicator class for this plugin. This is used by other plugins.">
<polygon fill="white" stroke="#666666" points="312,-30 159,-30 159,0 312,0 312,-30"/>
<text text-anchor="start" x="167" y="-18" font-family="Helvetica,sans-Serif" font-size="10.00">Plugins::Tempban::TempBan</text>
<text text-anchor="middle" x="235.5" y="-7" font-family="Helvetica,sans-Serif" font-size="10.00">Communicator</text>
</a>
</g>
</g>
<!-- Node0&#45;&gt;Node3 -->
<g id="edge3" class="edge">
<title>Node0&#45;&gt;Node3</title>
<path fill="none" stroke="#63b8ff" d="M105.05,-50.71C127.85,-44.42 155.81,-36.71 179.9,-30.06"/>
<polygon fill="#63b8ff" stroke="#63b8ff" points="104,-47.37 95.29,-53.4 105.86,-54.12 104,-47.37"/>
</g>
</g>
</svg>
