<?xml version="1.0" encoding="UTF-8" standalone="no"?>
<!DOCTYPE svg PUBLIC "-//W3C//DTD SVG 1.1//EN"
 "http://www.w3.org/Graphics/SVG/1.1/DTD/svg11.dtd">
<!-- Generated by graphviz version 2.43.0 (0)
 -->
<!-- Title: Graphical Class Hierarchy Pages: 1 -->
<svg width="292pt" height="1794pt"
 viewBox="0.00 0.00 292.00 1793.50" xmlns="http://www.w3.org/2000/svg" xmlns:xlink="http://www.w3.org/1999/xlink">
<g id="graph0" class="graph" transform="scale(1 1) rotate(0) translate(4 1789.5)">
<title>Graphical Class Hierarchy</title>
<!-- Node0 -->
<g id="node1" class="node">
<title>Node0</title>
<g id="a_node1"><a xlink:title=" ">
<polygon fill="#e0e0e0" stroke="#999999" points="71,-902.5 0,-902.5 0,-883.5 71,-883.5 71,-902.5"/>
<text text-anchor="middle" x="35.5" y="-890.5" font-family="Helvetica,sans-Serif" font-size="10.00">Reflectable</text>
</a>
</g>
</g>
<!-- Node1 -->
<g id="node2" class="node">
<title>Node1</title>
<g id="a_node2"><a xlink:href="struct_authenticated_accounts.html" target="_top" xlink:title=" ">
<polygon fill="white" stroke="#666666" points="260,-1785.5 131,-1785.5 131,-1766.5 260,-1766.5 260,-1785.5"/>
<text text-anchor="middle" x="195.5" y="-1773.5" font-family="Helvetica,sans-Serif" font-size="10.00">AuthenticatedAccounts</text>
</a>
</g>
</g>
<!-- Node0&#45;&gt;Node1 -->
<g id="edge1" class="edge">
<title>Node0&#45;&gt;Node1</title>
<path fill="none" stroke="#63b8ff" d="M36.72,-913.02C38.26,-1036.6 49.13,-1692.63 107,-1758 113.37,-1765.2 121.79,-1769.97 130.89,-1773.06"/>
<polygon fill="#63b8ff" stroke="#63b8ff" points="40.22,-912.72 36.6,-902.76 33.22,-912.8 40.22,-912.72"/>
</g>
<!-- Node2 -->
<g id="node3" class="node">
<title>Node2</title>
<g id="a_node3"><a xlink:href="struct_config.html" target="_top" xlink:title=" ">
<polygon fill="white" stroke="#666666" points="219,-1748.5 172,-1748.5 172,-1729.5 219,-1729.5 219,-1748.5"/>
<text text-anchor="middle" x="195.5" y="-1736.5" font-family="Helvetica,sans-Serif" font-size="10.00">Config</text>
</a>
</g>
</g>
<!-- Node0&#45;&gt;Node2 -->
<g id="edge2" class="edge">
<title>Node0&#45;&gt;Node2</title>
<path fill="none" stroke="#63b8ff" d="M36.79,-912.9C38.76,-1033.05 51.59,-1658.64 107,-1721 122.97,-1738.97 151.68,-1741.78 171.84,-1741.2"/>
<polygon fill="#63b8ff" stroke="#63b8ff" points="40.29,-912.56 36.63,-902.62 33.29,-912.67 40.29,-912.56"/>
</g>
<!-- Node3 -->
<g id="node4" class="node">
<title>Node3</title>
<g id="a_node4"><a xlink:href="struct_i_p_bans.html" target="_top" xlink:title=" ">
<polygon fill="white" stroke="#666666" points="220.5,-1711.5 170.5,-1711.5 170.5,-1692.5 220.5,-1692.5 220.5,-1711.5"/>
<text text-anchor="middle" x="195.5" y="-1699.5" font-family="Helvetica,sans-Serif" font-size="10.00">IPBans</text>
</a>
</g>
</g>
<!-- Node0&#45;&gt;Node3 -->
<g id="edge3" class="edge">
<title>Node0&#45;&gt;Node3</title>
<path fill="none" stroke="#63b8ff" d="M36.88,-912.74C39.27,-1029.3 54.04,-1624.63 107,-1684 122.59,-1701.48 150.23,-1704.6 170.28,-1704.22"/>
<polygon fill="#63b8ff" stroke="#63b8ff" points="40.37,-912.65 36.68,-902.72 33.38,-912.79 40.37,-912.65"/>
</g>
<!-- Node4 -->
<g id="node5" class="node">
<title>Node4</title>
<g id="a_node5"><a xlink:href="struct_login_id_bans.html" target="_top" xlink:title=" ">
<polygon fill="white" stroke="#666666" points="233.5,-1674.5 157.5,-1674.5 157.5,-1655.5 233.5,-1655.5 233.5,-1674.5"/>
<text text-anchor="middle" x="195.5" y="-1662.5" font-family="Helvetica,sans-Serif" font-size="10.00">LoginIdBans</text>
</a>
</g>
</g>
<!-- Node0&#45;&gt;Node4 -->
<g id="edge4" class="edge">
<title>Node0&#45;&gt;Node4</title>
<path fill="none" stroke="#63b8ff" d="M36.97,-912.85C39.83,-1026.42 56.53,-1590.67 107,-1647 119.42,-1660.86 139.42,-1665.68 157.17,-1666.89"/>
<polygon fill="#63b8ff" stroke="#63b8ff" points="40.46,-912.44 36.72,-902.53 33.46,-912.61 40.46,-912.44"/>
</g>
<!-- Node5 -->
<g id="node6" class="node">
<title>Node5</title>
<g id="a_node6"><a xlink:href="struct_plugins_1_1_arena_1_1_config.html" target="_top" xlink:title="Config data for this plugin.">
<polygon fill="white" stroke="#666666" points="257,-1637.5 134,-1637.5 134,-1618.5 257,-1618.5 257,-1637.5"/>
<text text-anchor="middle" x="195.5" y="-1625.5" font-family="Helvetica,sans-Serif" font-size="10.00">Plugins::Arena::Config</text>
</a>
</g>
</g>
<!-- Node0&#45;&gt;Node5 -->
<g id="edge5" class="edge">
<title>Node0&#45;&gt;Node5</title>
<path fill="none" stroke="#63b8ff" d="M37.06,-912.57C40.38,-1022.14 58.96,-1556.64 107,-1610 114.06,-1617.84 123.54,-1622.78 133.66,-1625.82"/>
<polygon fill="#63b8ff" stroke="#63b8ff" points="40.56,-912.46 36.77,-902.57 33.56,-912.67 40.56,-912.46"/>
</g>
<!-- Node6 -->
<g id="node7" class="node">
<title>Node6</title>
<g id="a_node7"><a xlink:href="struct_plugins_1_1_autobuy_1_1_config.html" target="_top" xlink:title="Configurable fields for this plugin.">
<polygon fill="white" stroke="#666666" points="262.5,-1600.5 128.5,-1600.5 128.5,-1581.5 262.5,-1581.5 262.5,-1600.5"/>
<text text-anchor="middle" x="195.5" y="-1588.5" font-family="Helvetica,sans-Serif" font-size="10.00">Plugins::Autobuy::Config</text>
</a>
</g>
</g>
<!-- Node0&#45;&gt;Node6 -->
<g id="edge6" class="edge">
<title>Node0&#45;&gt;Node6</title>
<path fill="none" stroke="#63b8ff" d="M37.19,-912.84C41.1,-1019.47 61.81,-1521.52 107,-1572 112.81,-1578.49 120.26,-1583.04 128.36,-1586.21"/>
<polygon fill="#63b8ff" stroke="#63b8ff" points="40.69,-912.67 36.83,-902.8 33.69,-912.92 40.69,-912.67"/>
</g>
<!-- Node7 -->
<g id="node8" class="node">
<title>Node7</title>
<g id="a_node8"><a xlink:href="struct_plugins_1_1_bounty_hunt_1_1_config.html" target="_top" xlink:title="Configurable fields for this plugin.">
<polygon fill="white" stroke="#666666" points="253.5,-1563 137.5,-1563 137.5,-1533 253.5,-1533 253.5,-1563"/>
<text text-anchor="start" x="145.5" y="-1551" font-family="Helvetica,sans-Serif" font-size="10.00">Plugins::BountyHunt</text>
<text text-anchor="middle" x="195.5" y="-1540" font-family="Helvetica,sans-Serif" font-size="10.00">::Config</text>
</a>
</g>
</g>
<!-- Node0&#45;&gt;Node7 -->
<g id="edge7" class="edge">
<title>Node0&#45;&gt;Node7</title>
<path fill="none" stroke="#63b8ff" d="M37.4,-912.65C42.21,-1014.16 66.23,-1476.29 107,-1524 114.78,-1533.1 125.65,-1538.91 137.09,-1542.59"/>
<polygon fill="#63b8ff" stroke="#63b8ff" points="40.89,-912.39 36.93,-902.56 33.9,-912.72 40.89,-912.39"/>
</g>
<!-- Node8 -->
<g id="node9" class="node">
<title>Node8</title>
<g id="a_node9"><a xlink:href="struct_plugins_1_1_cargo_drop_1_1_config.html" target="_top" xlink:title="Config data for this plugin.">
<polygon fill="white" stroke="#666666" points="250.5,-1515 140.5,-1515 140.5,-1485 250.5,-1485 250.5,-1515"/>
<text text-anchor="start" x="148.5" y="-1503" font-family="Helvetica,sans-Serif" font-size="10.00">Plugins::CargoDrop</text>
<text text-anchor="middle" x="195.5" y="-1492" font-family="Helvetica,sans-Serif" font-size="10.00">::Config</text>
</a>
</g>
</g>
<!-- Node0&#45;&gt;Node8 -->
<g id="edge8" class="edge">
<title>Node0&#45;&gt;Node8</title>
<path fill="none" stroke="#63b8ff" d="M36.05,-912.9C34.4,-1005.02 32.13,-1389.19 107,-1476 115.54,-1485.9 127.74,-1491.9 140.33,-1495.5"/>
<polygon fill="#63b8ff" stroke="#63b8ff" points="39.56,-912.8 36.26,-902.73 32.56,-912.66 39.56,-912.8"/>
</g>
<!-- Node9 -->
<g id="node10" class="node">
<title>Node9</title>
<g id="a_node10"><a xlink:href="struct_plugins_1_1_cash_manager_1_1_config.html" target="_top" xlink:title=" ">
<polygon fill="white" stroke="#666666" points="258,-1467 133,-1467 133,-1437 258,-1437 258,-1467"/>
<text text-anchor="start" x="141" y="-1455" font-family="Helvetica,sans-Serif" font-size="10.00">Plugins::CashManager</text>
<text text-anchor="middle" x="195.5" y="-1444" font-family="Helvetica,sans-Serif" font-size="10.00">::Config</text>
</a>
</g>
</g>
<!-- Node0&#45;&gt;Node9 -->
<g id="edge9" class="edge">
<title>Node0&#45;&gt;Node9</title>
<path fill="none" stroke="#63b8ff" d="M36.29,-912.9C35.8,-1000.28 38.21,-1349.1 107,-1428 113.83,-1435.84 122.96,-1441.23 132.74,-1444.91"/>
<polygon fill="#63b8ff" stroke="#63b8ff" points="39.79,-912.79 36.37,-902.76 32.79,-912.73 39.79,-912.79"/>
</g>
<!-- Node10 -->
<g id="node11" class="node">
<title>Node10</title>
<g id="a_node11"><a xlink:href="struct_plugins_1_1_con_data_1_1_config.html" target="_top" xlink:title=" ">
<polygon fill="white" stroke="#666666" points="264,-1418.5 127,-1418.5 127,-1399.5 264,-1399.5 264,-1418.5"/>
<text text-anchor="middle" x="195.5" y="-1406.5" font-family="Helvetica,sans-Serif" font-size="10.00">Plugins::ConData::Config</text>
</a>
</g>
</g>
<!-- Node0&#45;&gt;Node10 -->
<g id="edge10" class="edge">
<title>Node0&#45;&gt;Node10</title>
<path fill="none" stroke="#63b8ff" d="M36.41,-912.62C36.47,-995.88 40.98,-1318.98 107,-1390 112.5,-1395.92 119.38,-1400.22 126.85,-1403.31"/>
<polygon fill="#63b8ff" stroke="#63b8ff" points="39.91,-912.52 36.43,-902.51 32.91,-912.51 39.91,-912.52"/>
</g>
<!-- Node11 -->
<g id="node12" class="node">
<title>Node11</title>
<g id="a_node12"><a xlink:href="struct_plugins_1_1_death_penalty_1_1_config.html" target="_top" xlink:title="Configurable fields for this plugin.">
<polygon fill="white" stroke="#666666" points="257.5,-1381 133.5,-1381 133.5,-1351 257.5,-1351 257.5,-1381"/>
<text text-anchor="start" x="141.5" y="-1369" font-family="Helvetica,sans-Serif" font-size="10.00">Plugins::DeathPenalty</text>
<text text-anchor="middle" x="195.5" y="-1358" font-family="Helvetica,sans-Serif" font-size="10.00">::Config</text>
</a>
</g>
</g>
<!-- Node0&#45;&gt;Node11 -->
<g id="edge11" class="edge">
<title>Node0&#45;&gt;Node11</title>
<path fill="none" stroke="#63b8ff" d="M36.85,-913.09C38.65,-991.69 49.1,-1277.23 107,-1342 114.03,-1349.87 123.38,-1355.26 133.34,-1358.94"/>
<polygon fill="#63b8ff" stroke="#63b8ff" points="40.34,-912.61 36.64,-902.68 33.35,-912.75 40.34,-912.61"/>
</g>
<!-- Node12 -->
<g id="node13" class="node">
<title>Node12</title>
<g id="a_node13"><a xlink:href="struct_plugins_1_1_event_1_1_config.html" target="_top" xlink:title="Configurable fields for this plugin.">
<polygon fill="white" stroke="#666666" points="256.5,-1332.5 134.5,-1332.5 134.5,-1313.5 256.5,-1313.5 256.5,-1332.5"/>
<text text-anchor="middle" x="195.5" y="-1320.5" font-family="Helvetica,sans-Serif" font-size="10.00">Plugins::Event::Config</text>
</a>
</g>
</g>
<!-- Node0&#45;&gt;Node12 -->
<g id="edge12" class="edge">
<title>Node0&#45;&gt;Node12</title>
<path fill="none" stroke="#63b8ff" d="M37.06,-912.89C39.59,-987.15 52.24,-1246.78 107,-1304 114.31,-1311.64 123.91,-1316.56 134.07,-1319.67"/>
<polygon fill="#63b8ff" stroke="#63b8ff" points="40.55,-912.51 36.74,-902.63 33.56,-912.73 40.55,-912.51"/>
</g>
<!-- Node13 -->
<g id="node14" class="node">
<title>Node13</title>
<g id="a_node14"><a xlink:href="struct_plugins_1_1_event_1_1_config_1_1_c_a_r_g_o___m_i_s_s_i_o_n___r_e_f_l_e_c_t_a_b_l_e.html" target="_top" xlink:title=" ">
<polygon fill="white" stroke="#666666" points="284,-1295 107,-1295 107,-1265 284,-1265 284,-1295"/>
<text text-anchor="start" x="115" y="-1283" font-family="Helvetica,sans-Serif" font-size="10.00">Plugins::Event::Config</text>
<text text-anchor="middle" x="195.5" y="-1272" font-family="Helvetica,sans-Serif" font-size="10.00">::CARGO_MISSION_REFLECTABLE</text>
</a>
</g>
</g>
<!-- Node0&#45;&gt;Node13 -->
<g id="edge13" class="edge">
<title>Node0&#45;&gt;Node13</title>
<path fill="none" stroke="#63b8ff" d="M37.67,-913.09C42.08,-981.68 59.87,-1205.15 107,-1256 110.11,-1259.35 113.63,-1262.25 117.44,-1264.76"/>
<polygon fill="#63b8ff" stroke="#63b8ff" points="41.15,-912.57 37.04,-902.8 34.16,-913 41.15,-912.57"/>
</g>
<!-- Node14 -->
<g id="node15" class="node">
<title>Node14</title>
<g id="a_node15"><a xlink:href="struct_plugins_1_1_event_1_1_config_1_1_n_p_c___m_i_s_s_i_o_n___r_e_f_l_e_c_t_a_b_l_e.html" target="_top" xlink:title=" ">
<polygon fill="white" stroke="#666666" points="276.5,-1247 114.5,-1247 114.5,-1217 276.5,-1217 276.5,-1247"/>
<text text-anchor="start" x="122.5" y="-1235" font-family="Helvetica,sans-Serif" font-size="10.00">Plugins::Event::Config</text>
<text text-anchor="middle" x="195.5" y="-1224" font-family="Helvetica,sans-Serif" font-size="10.00">::NPC_MISSION_REFLECTABLE</text>
</a>
</g>
</g>
<!-- Node0&#45;&gt;Node14 -->
<g id="edge14" class="edge">
<title>Node0&#45;&gt;Node14</title>
<path fill="none" stroke="#63b8ff" d="M38.29,-912.82C44.31,-975.02 65.77,-1164.76 107,-1208 110.26,-1211.42 113.96,-1214.37 117.95,-1216.91"/>
<polygon fill="#63b8ff" stroke="#63b8ff" points="41.77,-912.38 37.35,-902.75 34.8,-913.04 41.77,-912.38"/>
</g>
<!-- Node15 -->
<g id="node16" class="node">
<title>Node15</title>
<g id="a_node16"><a xlink:href="struct_plugins_1_1_kill_counter_1_1_config.html" target="_top" xlink:title="Configurable fields for this plugin.">
<polygon fill="white" stroke="#666666" points="251.5,-1199 139.5,-1199 139.5,-1169 251.5,-1169 251.5,-1199"/>
<text text-anchor="start" x="147.5" y="-1187" font-family="Helvetica,sans-Serif" font-size="10.00">Plugins::KillCounter</text>
<text text-anchor="middle" x="195.5" y="-1176" font-family="Helvetica,sans-Serif" font-size="10.00">::Config</text>
</a>
</g>
</g>
<!-- Node0&#45;&gt;Node15 -->
<g id="edge15" class="edge">
<title>Node0&#45;&gt;Node15</title>
<path fill="none" stroke="#63b8ff" d="M39.13,-912.65C46.93,-968.13 71.65,-1124.31 107,-1160 115.76,-1168.84 127.44,-1174.51 139.41,-1178.13"/>
<polygon fill="#63b8ff" stroke="#63b8ff" points="42.59,-912.11 37.76,-902.68 35.65,-913.07 42.59,-912.11"/>
</g>
<!-- Node16 -->
<g id="node17" class="node">
<title>Node16</title>
<g id="a_node17"><a xlink:href="struct_plugins_1_1_light_control_1_1_config.html" target="_top" xlink:title="Config data for this plugin.">
<polygon fill="white" stroke="#666666" points="254,-1151 137,-1151 137,-1121 254,-1121 254,-1151"/>
<text text-anchor="start" x="145" y="-1139" font-family="Helvetica,sans-Serif" font-size="10.00">Plugins::LightControl</text>
<text text-anchor="middle" x="195.5" y="-1128" font-family="Helvetica,sans-Serif" font-size="10.00">::Config</text>
</a>
</g>
</g>
<!-- Node0&#45;&gt;Node16 -->
<g id="edge16" class="edge">
<title>Node0&#45;&gt;Node16</title>
<path fill="none" stroke="#63b8ff" d="M36.9,-912.71C38.85,-955.42 49.64,-1057.1 107,-1112 115.19,-1119.84 125.7,-1125.17 136.57,-1128.78"/>
<polygon fill="#63b8ff" stroke="#63b8ff" points="40.39,-912.4 36.55,-902.53 33.39,-912.64 40.39,-912.4"/>
</g>
<!-- Node17 -->
<g id="node18" class="node">
<title>Node17</title>
<g id="a_node18"><a xlink:href="struct_plugins_1_1_mark_1_1_config.html" target="_top" xlink:title=" ">
<polygon fill="white" stroke="#666666" points="255,-1102.5 136,-1102.5 136,-1083.5 255,-1083.5 255,-1102.5"/>
<text text-anchor="middle" x="195.5" y="-1090.5" font-family="Helvetica,sans-Serif" font-size="10.00">Plugins::Mark::Config</text>
</a>
</g>
</g>
<!-- Node0&#45;&gt;Node17 -->
<g id="edge17" class="edge">
<title>Node0&#45;&gt;Node17</title>
<path fill="none" stroke="#63b8ff" d="M38.13,-912.95C42.35,-950.74 57.06,-1032.76 107,-1075 115.17,-1081.91 125.29,-1086.4 135.72,-1089.28"/>
<polygon fill="#63b8ff" stroke="#63b8ff" points="41.59,-912.35 37.13,-902.73 34.62,-913.03 41.59,-912.35"/>
</g>
<!-- Node18 -->
<g id="node19" class="node">
<title>Node18</title>
<g id="a_node19"><a xlink:href="struct_plugins_1_1_message_1_1_config.html" target="_top" xlink:title="Config data for this plugin.">
<polygon fill="white" stroke="#666666" points="264.5,-1065.5 126.5,-1065.5 126.5,-1046.5 264.5,-1046.5 264.5,-1065.5"/>
<text text-anchor="middle" x="195.5" y="-1053.5" font-family="Helvetica,sans-Serif" font-size="10.00">Plugins::Message::Config</text>
</a>
</g>
</g>
<!-- Node0&#45;&gt;Node18 -->
<g id="edge18" class="edge">
<title>Node0&#45;&gt;Node18</title>
<path fill="none" stroke="#63b8ff" d="M40.38,-912.63C47.65,-944.02 66.41,-1005.19 107,-1037 112.75,-1041.51 119.34,-1045 126.26,-1047.7"/>
<polygon fill="#63b8ff" stroke="#63b8ff" points="43.73,-911.56 38.2,-902.52 36.89,-913.04 43.73,-911.56"/>
</g>
<!-- Node19 -->
<g id="node20" class="node">
<title>Node19</title>
<g id="a_node20"><a xlink:href="struct_plugins_1_1_mining_control_1_1_config.html" target="_top" xlink:title="Config data for this plugin.">
<polygon fill="white" stroke="#666666" points="258.5,-1028 132.5,-1028 132.5,-998 258.5,-998 258.5,-1028"/>
<text text-anchor="start" x="140.5" y="-1016" font-family="Helvetica,sans-Serif" font-size="10.00">Plugins::MiningControl</text>
<text text-anchor="middle" x="195.5" y="-1005" font-family="Helvetica,sans-Serif" font-size="10.00">::Config</text>
</a>
</g>
</g>
<!-- Node0&#45;&gt;Node19 -->
<g id="edge19" class="edge">
<title>Node0&#45;&gt;Node19</title>
<path fill="none" stroke="#63b8ff" d="M45.38,-911.79C56.65,-933.62 78.17,-969.17 107,-989 114.66,-994.27 123.43,-998.38 132.4,-1001.59"/>
<polygon fill="#63b8ff" stroke="#63b8ff" points="48.38,-909.97 40.8,-902.56 42.11,-913.08 48.38,-909.97"/>
</g>
<!-- Node20 -->
<g id="node21" class="node">
<title>Node20</title>
<g id="a_node21"><a xlink:href="struct_plugins_1_1_mining_control_1_1_mining_stats.html" target="_top" xlink:title="A struct to load in the stats config file across restarts.">
<polygon fill="white" stroke="#666666" points="258.5,-980 132.5,-980 132.5,-950 258.5,-950 258.5,-980"/>
<text text-anchor="start" x="140.5" y="-968" font-family="Helvetica,sans-Serif" font-size="10.00">Plugins::MiningControl</text>
<text text-anchor="middle" x="195.5" y="-957" font-family="Helvetica,sans-Serif" font-size="10.00">::MiningStats</text>
</a>
</g>
</g>
<!-- Node0&#45;&gt;Node20 -->
<g id="edge20" class="edge">
<title>Node0&#45;&gt;Node20</title>
<path fill="none" stroke="#63b8ff" d="M56.35,-909.15C69.92,-919.5 88.7,-932.54 107,-941 115.01,-944.7 123.7,-947.93 132.39,-950.72"/>
<polygon fill="#63b8ff" stroke="#63b8ff" points="58.27,-906.21 48.24,-902.8 53.96,-911.72 58.27,-906.21"/>
</g>
<!-- Node21 -->
<g id="node22" class="node">
<title>Node21</title>
<g id="a_node22"><a xlink:href="struct_plugins_1_1_mining_control_1_1_player_bonus.html" target="_top" xlink:title="A struct that defines a mining bonus to a player if they meet certain criteria.">
<polygon fill="white" stroke="#666666" points="258.5,-932 132.5,-932 132.5,-902 258.5,-902 258.5,-932"/>
<text text-anchor="start" x="140.5" y="-920" font-family="Helvetica,sans-Serif" font-size="10.00">Plugins::MiningControl</text>
<text text-anchor="middle" x="195.5" y="-909" font-family="Helvetica,sans-Serif" font-size="10.00">::PlayerBonus</text>
</a>
</g>
</g>
<!-- Node0&#45;&gt;Node21 -->
<g id="edge21" class="edge">
<title>Node0&#45;&gt;Node21</title>
<path fill="none" stroke="#63b8ff" d="M81.22,-899.79C97.06,-902.2 115.18,-904.95 132.22,-907.54"/>
<polygon fill="#63b8ff" stroke="#63b8ff" points="81.59,-896.31 71.17,-898.27 80.53,-903.23 81.59,-896.31"/>
</g>
<!-- Node22 -->
<g id="node23" class="node">
<title>Node22</title>
<g id="a_node23"><a xlink:href="struct_plugins_1_1_mining_control_1_1_zone_bonus.html" target="_top" xlink:title="A struct that defines a mining bonus for a certain zone in space.">
<polygon fill="white" stroke="#666666" points="258.5,-884 132.5,-884 132.5,-854 258.5,-854 258.5,-884"/>
<text text-anchor="start" x="140.5" y="-872" font-family="Helvetica,sans-Serif" font-size="10.00">Plugins::MiningControl</text>
<text text-anchor="middle" x="195.5" y="-861" font-family="Helvetica,sans-Serif" font-size="10.00">::ZoneBonus</text>
</a>
</g>
</g>
<!-- Node0&#45;&gt;Node22 -->
<g id="edge22" class="edge">
<title>Node0&#45;&gt;Node22</title>
<path fill="none" stroke="#63b8ff" d="M81.22,-886.21C97.06,-883.8 115.18,-881.05 132.22,-878.46"/>
<polygon fill="#63b8ff" stroke="#63b8ff" points="80.53,-882.77 71.17,-887.73 81.59,-889.69 80.53,-882.77"/>
</g>
<!-- Node23 -->
<g id="node24" class="node">
<title>Node23</title>
<g id="a_node24"><a xlink:href="struct_plugins_1_1_mining_control_1_1_zone_stats.html" target="_top" xlink:title="A struct to hold the current status of a zone so their progress persists across restarts.">
<polygon fill="white" stroke="#666666" points="258.5,-836 132.5,-836 132.5,-806 258.5,-806 258.5,-836"/>
<text text-anchor="start" x="140.5" y="-824" font-family="Helvetica,sans-Serif" font-size="10.00">Plugins::MiningControl</text>
<text text-anchor="middle" x="195.5" y="-813" font-family="Helvetica,sans-Serif" font-size="10.00">::ZoneStats</text>
</a>
</g>
</g>
<!-- Node0&#45;&gt;Node23 -->
<g id="edge23" class="edge">
<title>Node0&#45;&gt;Node23</title>
<path fill="none" stroke="#63b8ff" d="M56.35,-876.85C69.92,-866.5 88.7,-853.46 107,-845 115.01,-841.3 123.7,-838.07 132.39,-835.28"/>
<polygon fill="#63b8ff" stroke="#63b8ff" points="53.96,-874.28 48.24,-883.2 58.27,-879.79 53.96,-874.28"/>
</g>
<!-- Node24 -->
<g id="node25" class="node">
<title>Node24</title>
<g id="a_node25"><a xlink:href="struct_plugins_1_1_misc_commands_1_1_config.html" target="_top" xlink:title="Config data for this plugin.">
<polygon fill="white" stroke="#666666" points="263.5,-788 127.5,-788 127.5,-758 263.5,-758 263.5,-788"/>
<text text-anchor="start" x="135.5" y="-776" font-family="Helvetica,sans-Serif" font-size="10.00">Plugins::MiscCommands</text>
<text text-anchor="middle" x="195.5" y="-765" font-family="Helvetica,sans-Serif" font-size="10.00">::Config</text>
</a>
</g>
</g>
<!-- Node0&#45;&gt;Node24 -->
<g id="edge24" class="edge">
<title>Node0&#45;&gt;Node24</title>
<path fill="none" stroke="#63b8ff" d="M45.38,-874.21C56.65,-852.38 78.17,-816.83 107,-797 113.23,-792.71 120.2,-789.19 127.41,-786.3"/>
<polygon fill="#63b8ff" stroke="#63b8ff" points="42.11,-872.92 40.8,-883.44 48.38,-876.03 42.11,-872.92"/>
</g>
<!-- Node25 -->
<g id="node26" class="node">
<title>Node25</title>
<g id="a_node26"><a xlink:href="struct_plugins_1_1_npc_1_1_config.html" target="_top" xlink:title="Config data for this plugin.">
<polygon fill="white" stroke="#666666" points="252,-739.5 139,-739.5 139,-720.5 252,-720.5 252,-739.5"/>
<text text-anchor="middle" x="195.5" y="-727.5" font-family="Helvetica,sans-Serif" font-size="10.00">Plugins::Npc::Config</text>
</a>
</g>
</g>
<!-- Node0&#45;&gt;Node25 -->
<g id="edge25" class="edge">
<title>Node0&#45;&gt;Node25</title>
<path fill="none" stroke="#63b8ff" d="M40.38,-873.37C47.65,-841.98 66.41,-780.81 107,-749 116.18,-741.81 127.49,-737.2 138.89,-734.28"/>
<polygon fill="#63b8ff" stroke="#63b8ff" points="36.89,-872.96 38.2,-883.48 43.73,-874.44 36.89,-872.96"/>
</g>
<!-- Node26 -->
<g id="node27" class="node">
<title>Node26</title>
<g id="a_node27"><a xlink:href="struct_plugins_1_1_npc_1_1_fleet.html" target="_top" xlink:title=" ">
<polygon fill="white" stroke="#666666" points="249,-702.5 142,-702.5 142,-683.5 249,-683.5 249,-702.5"/>
<text text-anchor="middle" x="195.5" y="-690.5" font-family="Helvetica,sans-Serif" font-size="10.00">Plugins::Npc::Fleet</text>
</a>
</g>
</g>
<!-- Node0&#45;&gt;Node26 -->
<g id="edge26" class="edge">
<title>Node0&#45;&gt;Node26</title>
<path fill="none" stroke="#63b8ff" d="M38.21,-873.21C42.56,-835.7 57.49,-754.26 107,-712 116.69,-703.72 129.16,-698.8 141.62,-695.93"/>
<polygon fill="#63b8ff" stroke="#63b8ff" points="34.71,-873.04 37.17,-883.34 41.67,-873.75 34.71,-873.04"/>
</g>
<!-- Node27 -->
<g id="node28" class="node">
<title>Node27</title>
<g id="a_node28"><a xlink:href="struct_plugins_1_1_npc_1_1_npc.html" target="_top" xlink:title="A struct that represents an npc that can be spawned.">
<polygon fill="white" stroke="#666666" points="246,-665.5 145,-665.5 145,-646.5 246,-646.5 246,-665.5"/>
<text text-anchor="middle" x="195.5" y="-653.5" font-family="Helvetica,sans-Serif" font-size="10.00">Plugins::Npc::Npc</text>
</a>
</g>
</g>
<!-- Node0&#45;&gt;Node27 -->
<g id="edge27" class="edge">
<title>Node0&#45;&gt;Node27</title>
<path fill="none" stroke="#63b8ff" d="M36.71,-873.15C38.29,-830.16 48.39,-728.08 107,-675 117.37,-665.61 131.26,-660.47 144.92,-657.76"/>
<polygon fill="#63b8ff" stroke="#63b8ff" points="33.2,-873.31 36.46,-883.4 40.2,-873.49 33.2,-873.31"/>
</g>
<!-- Node28 -->
<g id="node29" class="node">
<title>Node28</title>
<g id="a_node29"><a xlink:href="struct_plugins_1_1_npc_1_1_startup_npc.html" target="_top" xlink:title=" ">
<polygon fill="white" stroke="#666666" points="264,-628.5 127,-628.5 127,-609.5 264,-609.5 264,-628.5"/>
<text text-anchor="middle" x="195.5" y="-616.5" font-family="Helvetica,sans-Serif" font-size="10.00">Plugins::Npc::StartupNpc</text>
</a>
</g>
</g>
<!-- Node0&#45;&gt;Node28 -->
<g id="edge28" class="edge">
<title>Node0&#45;&gt;Node28</title>
<path fill="none" stroke="#63b8ff" d="M39.27,-873.44C47.29,-819.58 72.18,-670.92 107,-638 112.65,-632.66 119.43,-628.68 126.68,-625.74"/>
<polygon fill="#63b8ff" stroke="#63b8ff" points="35.79,-873.02 37.82,-883.42 42.72,-874.03 35.79,-873.02"/>
</g>
<!-- Node29 -->
<g id="node30" class="node">
<title>Node29</title>
<g id="a_node30"><a xlink:href="struct_plugins_1_1_purchase_restrictions_1_1_config.html" target="_top" xlink:title="Config data for this plugin.">
<polygon fill="white" stroke="#666666" points="275.5,-591 115.5,-591 115.5,-561 275.5,-561 275.5,-591"/>
<text text-anchor="start" x="123.5" y="-579" font-family="Helvetica,sans-Serif" font-size="10.00">Plugins::PurchaseRestrictions</text>
<text text-anchor="middle" x="195.5" y="-568" font-family="Helvetica,sans-Serif" font-size="10.00">::Config</text>
</a>
</g>
</g>
<!-- Node0&#45;&gt;Node29 -->
<g id="edge29" class="edge">
<title>Node0&#45;&gt;Node29</title>
<path fill="none" stroke="#63b8ff" d="M38.7,-873.13C45.63,-813.99 68.84,-640.78 107,-601 110.72,-597.12 114.99,-593.84 119.61,-591.05"/>
<polygon fill="#63b8ff" stroke="#63b8ff" points="35.19,-873.03 37.53,-883.36 42.14,-873.82 35.19,-873.03"/>
</g>
<!-- Node30 -->
<g id="node31" class="node">
<title>Node30</title>
<g id="a_node31"><a xlink:href="struct_plugins_1_1_rename_1_1_config.html" target="_top" xlink:title="Config data for this plugin.">
<polygon fill="white" stroke="#666666" points="263,-542.5 128,-542.5 128,-523.5 263,-523.5 263,-542.5"/>
<text text-anchor="middle" x="195.5" y="-530.5" font-family="Helvetica,sans-Serif" font-size="10.00">Plugins::Rename::Config</text>
</a>
</g>
</g>
<!-- Node0&#45;&gt;Node30 -->
<g id="edge30" class="edge">
<title>Node0&#45;&gt;Node30</title>
<path fill="none" stroke="#63b8ff" d="M37.82,-873.19C42.61,-807.48 61.26,-598.2 107,-552 112.8,-546.15 119.94,-541.9 127.63,-538.85"/>
<polygon fill="#63b8ff" stroke="#63b8ff" points="34.31,-873.19 37.11,-883.41 41.3,-873.68 34.31,-873.19"/>
</g>
<!-- Node31 -->
<g id="node32" class="node">
<title>Node31</title>
<g id="a_node32"><a xlink:href="struct_plugins_1_1_rename_1_1_tag_data.html" target="_top" xlink:title="Struct to hold a clan/group tag. This contains the passwords used to manage and rename a character to...">
<polygon fill="white" stroke="#666666" points="267.5,-505.5 123.5,-505.5 123.5,-486.5 267.5,-486.5 267.5,-505.5"/>
<text text-anchor="middle" x="195.5" y="-493.5" font-family="Helvetica,sans-Serif" font-size="10.00">Plugins::Rename::TagData</text>
</a>
</g>
</g>
<!-- Node0&#45;&gt;Node31 -->
<g id="edge31" class="edge">
<title>Node0&#45;&gt;Node31</title>
<path fill="none" stroke="#63b8ff" d="M37.38,-873.36C40.91,-803.3 56.45,-567.06 107,-515 111.66,-510.2 117.22,-506.48 123.25,-503.61"/>
<polygon fill="#63b8ff" stroke="#63b8ff" points="33.88,-873.3 36.89,-883.45 40.87,-873.63 33.88,-873.3"/>
</g>
<!-- Node32 -->
<g id="node33" class="node">
<title>Node32</title>
<g id="a_node33"><a xlink:href="struct_plugins_1_1_rename_1_1_tag_list.html" target="_top" xlink:title="A struct to hold all the tags.">
<polygon fill="white" stroke="#666666" points="264.5,-468.5 126.5,-468.5 126.5,-449.5 264.5,-449.5 264.5,-468.5"/>
<text text-anchor="middle" x="195.5" y="-456.5" font-family="Helvetica,sans-Serif" font-size="10.00">Plugins::Rename::TagList</text>
</a>
</g>
</g>
<!-- Node0&#45;&gt;Node32 -->
<g id="edge32" class="edge">
<title>Node0&#45;&gt;Node32</title>
<path fill="none" stroke="#63b8ff" d="M37.03,-872.91C39.45,-797.94 51.77,-535.8 107,-478 112.37,-472.38 118.98,-468.23 126.14,-465.19"/>
<polygon fill="#63b8ff" stroke="#63b8ff" points="33.53,-873.18 36.73,-883.28 40.52,-873.39 33.53,-873.18"/>
</g>
<!-- Node33 -->
<g id="node34" class="node">
<title>Node33</title>
<g id="a_node34"><a xlink:href="struct_plugins_1_1_restart_1_1_config.html" target="_top" xlink:title="Config data for this plugin.">
<polygon fill="white" stroke="#666666" points="260.5,-431.5 130.5,-431.5 130.5,-412.5 260.5,-412.5 260.5,-431.5"/>
<text text-anchor="middle" x="195.5" y="-419.5" font-family="Helvetica,sans-Serif" font-size="10.00">Plugins::Restart::Config</text>
</a>
</g>
</g>
<!-- Node0&#45;&gt;Node33 -->
<g id="edge33" class="edge">
<title>Node0&#45;&gt;Node33</title>
<path fill="none" stroke="#63b8ff" d="M36.72,-873.17C38.03,-794.39 46.9,-504.76 107,-441 113.4,-434.21 121.6,-429.56 130.42,-426.42"/>
<polygon fill="#63b8ff" stroke="#63b8ff" points="33.22,-873.16 36.58,-883.21 40.22,-873.26 33.22,-873.16"/>
</g>
<!-- Node34 -->
<g id="node35" class="node">
<title>Node34</title>
<g id="a_node35"><a xlink:href="struct_plugins_1_1_sound_manager_1_1_config.html" target="_top" xlink:title="Config data for this plugin.">
<polygon fill="white" stroke="#666666" points="261,-394 130,-394 130,-364 261,-364 261,-394"/>
<text text-anchor="start" x="138" y="-382" font-family="Helvetica,sans-Serif" font-size="10.00">Plugins::SoundManager</text>
<text text-anchor="middle" x="195.5" y="-371" font-family="Helvetica,sans-Serif" font-size="10.00">::Config</text>
</a>
</g>
</g>
<!-- Node0&#45;&gt;Node34 -->
<g id="edge34" class="edge">
<title>Node0&#45;&gt;Node34</title>
<path fill="none" stroke="#63b8ff" d="M36.59,-873.27C37.34,-790.94 44.36,-475.73 107,-404 113.13,-396.98 121.08,-391.87 129.69,-388.16"/>
<polygon fill="#63b8ff" stroke="#63b8ff" points="33.09,-873.27 36.52,-883.29 40.09,-873.32 33.09,-873.27"/>
</g>
<!-- Node35 -->
<g id="node36" class="node">
<title>Node35</title>
<g id="a_node36"><a xlink:href="struct_plugins_1_1_spin_protection_1_1_config.html" target="_top" xlink:title="Config data for this plugin.">
<polygon fill="white" stroke="#666666" points="259.5,-346 131.5,-346 131.5,-316 259.5,-316 259.5,-346"/>
<text text-anchor="start" x="139.5" y="-334" font-family="Helvetica,sans-Serif" font-size="10.00">Plugins::SpinProtection</text>
<text text-anchor="middle" x="195.5" y="-323" font-family="Helvetica,sans-Serif" font-size="10.00">::Config</text>
</a>
</g>
</g>
<!-- Node0&#45;&gt;Node35 -->
<g id="edge35" class="edge">
<title>Node0&#45;&gt;Node35</title>
<path fill="none" stroke="#63b8ff" d="M36.28,-872.99C35.71,-785.12 37.86,-434.36 107,-355 113.52,-347.52 122.13,-342.26 131.4,-338.6"/>
<polygon fill="#63b8ff" stroke="#63b8ff" points="32.78,-873.21 36.36,-883.18 39.78,-873.15 32.78,-873.21"/>
</g>
<!-- Node36 -->
<g id="node37" class="node">
<title>Node36</title>
<g id="a_node37"><a xlink:href="struct_plugins_1_1_stats_1_1_file_name.html" target="_top" xlink:title="Reflectable struct that contains the file path of the config file as well as the file to export stats...">
<polygon fill="white" stroke="#666666" points="263,-297.5 128,-297.5 128,-278.5 263,-278.5 263,-297.5"/>
<text text-anchor="middle" x="195.5" y="-285.5" font-family="Helvetica,sans-Serif" font-size="10.00">Plugins::Stats::FileName</text>
</a>
</g>
</g>
<!-- Node0&#45;&gt;Node36 -->
<g id="edge36" class="edge">
<title>Node0&#45;&gt;Node36</title>
<path fill="none" stroke="#63b8ff" d="M37.53,-873.2C42.8,-775.73 67.94,-349.92 107,-307 112.65,-300.79 119.81,-296.36 127.59,-293.22"/>
<polygon fill="#63b8ff" stroke="#63b8ff" points="34.04,-873.01 37,-883.19 41.03,-873.39 34.04,-873.01"/>
</g>
<!-- Node37 -->
<g id="node38" class="node">
<title>Node37</title>
<g id="a_node38"><a xlink:href="struct_plugins_1_1_system_sensor_1_1_config.html" target="_top" xlink:title=" ">
<polygon fill="white" stroke="#666666" points="259.5,-260 131.5,-260 131.5,-230 259.5,-230 259.5,-260"/>
<text text-anchor="start" x="139.5" y="-248" font-family="Helvetica,sans-Serif" font-size="10.00">Plugins::SystemSensor</text>
<text text-anchor="middle" x="195.5" y="-237" font-family="Helvetica,sans-Serif" font-size="10.00">::Config</text>
</a>
</g>
</g>
<!-- Node0&#45;&gt;Node37 -->
<g id="edge37" class="edge">
<title>Node0&#45;&gt;Node37</title>
<path fill="none" stroke="#63b8ff" d="M37.46,-872.97C42.47,-771.5 67.04,-317.19 107,-270 113.43,-262.4 122,-257.03 131.26,-253.25"/>
<polygon fill="#63b8ff" stroke="#63b8ff" points="33.95,-872.93 36.96,-883.08 40.95,-873.27 33.95,-872.93"/>
</g>
<!-- Node38 -->
<g id="node39" class="node">
<title>Node38</title>
<g id="a_node39"><a xlink:href="struct_plugins_1_1_system_sensor_1_1_reflectable_sensor.html" target="_top" xlink:title=" ">
<polygon fill="white" stroke="#666666" points="259.5,-212 131.5,-212 131.5,-182 259.5,-182 259.5,-212"/>
<text text-anchor="start" x="139.5" y="-200" font-family="Helvetica,sans-Serif" font-size="10.00">Plugins::SystemSensor</text>
<text text-anchor="middle" x="195.5" y="-189" font-family="Helvetica,sans-Serif" font-size="10.00">::ReflectableSensor</text>
</a>
</g>
</g>
<!-- Node0&#45;&gt;Node38 -->
<g id="edge38" class="edge">
<title>Node0&#45;&gt;Node38</title>
<path fill="none" stroke="#63b8ff" d="M37.27,-873.08C41.53,-767.08 63.65,-272.07 107,-221 113.42,-213.43 121.98,-208.14 131.24,-204.45"/>
<polygon fill="#63b8ff" stroke="#63b8ff" points="33.76,-873.19 36.86,-883.32 40.76,-873.47 33.76,-873.19"/>
</g>
<!-- Node39 -->
<g id="node40" class="node">
<title>Node39</title>
<g id="a_node40"><a xlink:href="struct_plugins_1_1_tax_1_1_config.html" target="_top" xlink:title="Configurable fields for this plugin.">
<polygon fill="white" stroke="#666666" points="251,-163.5 140,-163.5 140,-144.5 251,-144.5 251,-163.5"/>
<text text-anchor="middle" x="195.5" y="-151.5" font-family="Helvetica,sans-Serif" font-size="10.00">Plugins::Tax::Config</text>
</a>
</g>
</g>
<!-- Node0&#45;&gt;Node39 -->
<g id="edge39" class="edge">
<title>Node0&#45;&gt;Node39</title>
<path fill="none" stroke="#63b8ff" d="M37.06,-873.36C40.4,-763.38 59.06,-226.86 107,-173 115.47,-163.48 127.5,-158.11 139.93,-155.2"/>
<polygon fill="#63b8ff" stroke="#63b8ff" points="33.56,-873.3 36.77,-883.39 40.56,-873.5 33.56,-873.3"/>
</g>
<!-- Node40 -->
<g id="node41" class="node">
<title>Node40</title>
<g id="a_node41"><a xlink:href="struct_plugins_1_1_template_1_1_config.html" target="_top" xlink:title=" ">
<polygon fill="white" stroke="#666666" points="250,-126 141,-126 141,-96 250,-96 250,-126"/>
<text text-anchor="start" x="149" y="-114" font-family="Helvetica,sans-Serif" font-size="10.00">Plugins::Template::</text>
<text text-anchor="middle" x="195.5" y="-103" font-family="Helvetica,sans-Serif" font-size="10.00">Config</text>
</a>
</g>
</g>
<!-- Node0&#45;&gt;Node40 -->
<g id="edge40" class="edge">
<title>Node0&#45;&gt;Node40</title>
<path fill="none" stroke="#63b8ff" d="M37.03,-873.13C40.23,-759.43 58.51,-194.43 107,-136 115.47,-125.79 127.81,-119.59 140.56,-115.86"/>
<polygon fill="#63b8ff" stroke="#63b8ff" points="33.52,-873.37 36.75,-883.46 40.52,-873.56 33.52,-873.37"/>
</g>
<!-- Node41 -->
<g id="node42" class="node">
<title>Node41</title>
<g id="a_node42"><a xlink:href="struct_plugins_1_1_wardrobe_1_1_config.html" target="_top" xlink:title="Config data for this plugin.">
<polygon fill="white" stroke="#666666" points="250.5,-78 140.5,-78 140.5,-48 250.5,-48 250.5,-78"/>
<text text-anchor="start" x="148.5" y="-66" font-family="Helvetica,sans-Serif" font-size="10.00">Plugins::Wardrobe::</text>
<text text-anchor="middle" x="195.5" y="-55" font-family="Helvetica,sans-Serif" font-size="10.00">Config</text>
</a>
</g>
</g>
<!-- Node0&#45;&gt;Node41 -->
<g id="edge41" class="edge">
<title>Node0&#45;&gt;Node41</title>
<path fill="none" stroke="#63b8ff" d="M36.9,-873.31C39.44,-755.73 55.03,-149.31 107,-87 115.37,-76.96 127.52,-70.91 140.1,-67.31"/>
<polygon fill="#63b8ff" stroke="#63b8ff" points="33.4,-873.32 36.69,-883.39 40.39,-873.47 33.4,-873.32"/>
</g>
<!-- Node42 -->
<g id="node43" class="node">
<title>Node42</title>
<g id="a_node43"><a xlink:href="struct_plugins_1_1_warehouse_1_1_config.html" target="_top" xlink:title=" ">
<polygon fill="white" stroke="#666666" points="251.5,-30 139.5,-30 139.5,0 251.5,0 251.5,-30"/>
<text text-anchor="start" x="147.5" y="-18" font-family="Helvetica,sans-Serif" font-size="10.00">Plugins::Warehouse</text>
<text text-anchor="middle" x="195.5" y="-7" font-family="Helvetica,sans-Serif" font-size="10.00">::Config</text>
</a>
</g>
</g>
<!-- Node0&#45;&gt;Node42 -->
<g id="edge42" class="edge">
<title>Node0&#45;&gt;Node42</title>
<path fill="none" stroke="#63b8ff" d="M36.8,-873.29C38.79,-751.57 51.95,-105.33 107,-39 115.15,-29.18 126.9,-23.17 139.16,-19.55"/>
<polygon fill="#63b8ff" stroke="#63b8ff" points="33.29,-873.34 36.64,-883.39 40.29,-873.45 33.29,-873.34"/>
</g>
</g>
</svg>
