<?xml version="1.0" encoding="UTF-8" standalone="no"?>
<!DOCTYPE svg PUBLIC "-//W3C//DTD SVG 1.1//EN"
 "http://www.w3.org/Graphics/SVG/1.1/DTD/svg11.dtd">
<!-- Generated by graphviz version 2.43.0 (0)
 -->
<!-- Title: Graphical Class Hierarchy Pages: 1 -->
<svg width="190pt" height="218pt"
 viewBox="0.00 0.00 190.00 218.00" xmlns="http://www.w3.org/2000/svg" xmlns:xlink="http://www.w3.org/1999/xlink">
<g id="graph0" class="graph" transform="scale(1 1) rotate(0) translate(4 214)">
<title>Graphical Class Hierarchy</title>
<!-- Node0 -->
<g id="node1" class="node">
<title>Node0</title>
<g id="a_node1"><a xlink:href="class_module.html" target="_top" xlink:title=" ">
<polygon fill="none" stroke="black" points="0,-95.5 0,-114.5 53,-114.5 53,-95.5 0,-95.5"/>
<text text-anchor="middle" x="26.5" y="-102.5" font-family="Helvetica,sans-Serif" font-size="10.00">Module</text>
</a>
</g>
</g>
<!-- Node1 -->
<g id="node2" class="node">
<title>Node1</title>
<g id="a_node2"><a xlink:href="class_build_module.html" target="_top" xlink:title=" ">
<polygon fill="none" stroke="black" points="97,-190.5 97,-209.5 174,-209.5 174,-190.5 97,-190.5"/>
<text text-anchor="middle" x="135.5" y="-197.5" font-family="Helvetica,sans-Serif" font-size="10.00">BuildModule</text>
</a>
</g>
</g>
<!-- Node0&#45;&gt;Node1 -->
<g id="edge1" class="edge">
<title>Node0&#45;&gt;Node1</title>
<path fill="none" stroke="midnightblue" d="M38.73,-123.63C49.73,-140.54 67.88,-165.18 89,-181 93.93,-184.7 99.69,-187.82 105.42,-190.39"/>
<polygon fill="midnightblue" stroke="midnightblue" points="41.4,-121.3 33.11,-114.69 35.47,-125.02 41.4,-121.3"/>
</g>
<!-- Node2 -->
<g id="node3" class="node">
<title>Node2</title>
<g id="a_node3"><a xlink:href="class_core_module.html" target="_top" xlink:title=" ">
<polygon fill="none" stroke="black" points="98,-152.5 98,-171.5 173,-171.5 173,-152.5 98,-152.5"/>
<text text-anchor="middle" x="135.5" y="-159.5" font-family="Helvetica,sans-Serif" font-size="10.00">CoreModule</text>
</a>
</g>
</g>
<!-- Node0&#45;&gt;Node2 -->
<g id="edge2" class="edge">
<title>Node0&#45;&gt;Node2</title>
<path fill="none" stroke="midnightblue" d="M50.26,-120.26C61.64,-127.58 75.79,-136.21 89,-143 95.55,-146.36 102.83,-149.61 109.62,-152.44"/>
<polygon fill="midnightblue" stroke="midnightblue" points="52.07,-117.26 41.79,-114.73 48.25,-123.12 52.07,-117.26"/>
</g>
<!-- Node3 -->
<g id="node4" class="node">
<title>Node3</title>
<g id="a_node4"><a xlink:href="class_defense_module.html" target="_top" xlink:title=" ">
<polygon fill="none" stroke="black" points="89,-114.5 89,-133.5 182,-133.5 182,-114.5 89,-114.5"/>
<text text-anchor="middle" x="135.5" y="-121.5" font-family="Helvetica,sans-Serif" font-size="10.00">DefenseModule</text>
</a>
</g>
</g>
<!-- Node0&#45;&gt;Node3 -->
<g id="edge3" class="edge">
<title>Node0&#45;&gt;Node3</title>
<path fill="none" stroke="midnightblue" d="M63.19,-111.34C71.46,-112.81 80.37,-114.39 89,-115.92"/>
<polygon fill="midnightblue" stroke="midnightblue" points="63.59,-107.85 53.13,-109.55 62.36,-114.75 63.59,-107.85"/>
</g>
<!-- Node4 -->
<g id="node5" class="node">
<title>Node4</title>
<g id="a_node5"><a xlink:href="class_factory_module.html" target="_top" xlink:title=" ">
<polygon fill="none" stroke="black" points="91.5,-76.5 91.5,-95.5 179.5,-95.5 179.5,-76.5 91.5,-76.5"/>
<text text-anchor="middle" x="135.5" y="-83.5" font-family="Helvetica,sans-Serif" font-size="10.00">FactoryModule</text>
</a>
</g>
</g>
<!-- Node0&#45;&gt;Node4 -->
<g id="edge4" class="edge">
<title>Node0&#45;&gt;Node4</title>
<path fill="none" stroke="midnightblue" d="M63.21,-98.66C72.15,-97.07 81.84,-95.35 91.11,-93.7"/>
<polygon fill="midnightblue" stroke="midnightblue" points="62.36,-95.25 53.13,-100.45 63.59,-102.15 62.36,-95.25"/>
</g>
<!-- Node5 -->
<g id="node6" class="node">
<title>Node5</title>
<g id="a_node6"><a xlink:href="class_shield_module.html" target="_top" xlink:title=" ">
<polygon fill="none" stroke="black" points="94,-38.5 94,-57.5 177,-57.5 177,-38.5 94,-38.5"/>
<text text-anchor="middle" x="135.5" y="-45.5" font-family="Helvetica,sans-Serif" font-size="10.00">ShieldModule</text>
</a>
</g>
</g>
<!-- Node0&#45;&gt;Node5 -->
<g id="edge5" class="edge">
<title>Node0&#45;&gt;Node5</title>
<path fill="none" stroke="midnightblue" d="M50.26,-89.74C61.64,-82.42 75.79,-73.79 89,-67 95.55,-63.64 102.83,-60.39 109.62,-57.56"/>
<polygon fill="midnightblue" stroke="midnightblue" points="48.25,-86.88 41.79,-95.27 52.07,-92.74 48.25,-86.88"/>
</g>
<!-- Node6 -->
<g id="node7" class="node">
<title>Node6</title>
<g id="a_node7"><a xlink:href="class_storage_module.html" target="_top" xlink:title=" ">
<polygon fill="none" stroke="black" points="90.5,-0.5 90.5,-19.5 180.5,-19.5 180.5,-0.5 90.5,-0.5"/>
<text text-anchor="middle" x="135.5" y="-7.5" font-family="Helvetica,sans-Serif" font-size="10.00">StorageModule</text>
</a>
</g>
</g>
<!-- Node0&#45;&gt;Node6 -->
<g id="edge6" class="edge">
<title>Node0&#45;&gt;Node6</title>
<path fill="none" stroke="midnightblue" d="M38.73,-86.37C49.73,-69.46 67.88,-44.82 89,-29 93.93,-25.3 99.69,-22.18 105.42,-19.61"/>
<polygon fill="midnightblue" stroke="midnightblue" points="35.47,-84.98 33.11,-95.31 41.4,-88.7 35.47,-84.98"/>
</g>
</g>
</svg>
