<?xml version="1.0" encoding="UTF-8" standalone="no"?>
<!DOCTYPE svg PUBLIC "-//W3C//DTD SVG 1.1//EN"
 "http://www.w3.org/Graphics/SVG/1.1/DTD/svg11.dtd">
<!-- Generated by graphviz version 2.43.0 (0)
 -->
<!-- Title: Graphical Class Hierarchy Pages: 1 -->
<svg width="292pt" height="2418pt"
 viewBox="0.00 0.00 292.00 2417.50" xmlns="http://www.w3.org/2000/svg" xmlns:xlink="http://www.w3.org/1999/xlink">
<g id="graph0" class="graph" transform="scale(1 1) rotate(0) translate(4 2413.5)">
<title>Graphical Class Hierarchy</title>
<!-- Node0 -->
<g id="node1" class="node">
<title>Node0</title>
<g id="a_node1"><a xlink:title=" ">
<polygon fill="#e0e0e0" stroke="#999999" points="71,-1214.5 0,-1214.5 0,-1195.5 71,-1195.5 71,-1214.5"/>
<text text-anchor="middle" x="35.5" y="-1202.5" font-family="Helvetica,sans-Serif" font-size="10.00">Reflectable</text>
</a>
</g>
</g>
<!-- Node1 -->
<g id="node2" class="node">
<title>Node1</title>
<g id="a_node2"><a xlink:href="struct_authenticated_accounts.html" target="_top" xlink:title=" ">
<polygon fill="white" stroke="#666666" points="260,-2409.5 131,-2409.5 131,-2390.5 260,-2390.5 260,-2409.5"/>
<text text-anchor="middle" x="195.5" y="-2397.5" font-family="Helvetica,sans-Serif" font-size="10.00">AuthenticatedAccounts</text>
</a>
</g>
</g>
<!-- Node0&#45;&gt;Node1 -->
<g id="edge1" class="edge">
<title>Node0&#45;&gt;Node1</title>
<path fill="none" stroke="#63b8ff" d="M37.01,-1224.87C40.94,-1375.77 67.48,-2336.38 107,-2382 113.3,-2389.27 121.67,-2394.07 130.76,-2397.18"/>
<polygon fill="#63b8ff" stroke="#63b8ff" points="40.5,-1224.66 36.75,-1214.76 33.51,-1224.84 40.5,-1224.66"/>
</g>
<!-- Node2 -->
<g id="node3" class="node">
<title>Node2</title>
<g id="a_node3"><a xlink:href="struct_config.html" target="_top" xlink:title=" ">
<polygon fill="white" stroke="#666666" points="219,-2372.5 172,-2372.5 172,-2353.5 219,-2353.5 219,-2372.5"/>
<text text-anchor="middle" x="195.5" y="-2360.5" font-family="Helvetica,sans-Serif" font-size="10.00">Config</text>
</a>
</g>
</g>
<!-- Node0&#45;&gt;Node2 -->
<g id="edge2" class="edge">
<title>Node0&#45;&gt;Node2</title>
<path fill="none" stroke="#63b8ff" d="M36.31,-1224.73C35.07,-1368.93 30.59,-2256.97 107,-2345 122.76,-2363.15 151.51,-2365.92 171.75,-2365.28"/>
<polygon fill="#63b8ff" stroke="#63b8ff" points="39.81,-1224.72 36.4,-1214.69 32.81,-1224.66 39.81,-1224.72"/>
</g>
<!-- Node3 -->
<g id="node4" class="node">
<title>Node3</title>
<g id="a_node4"><a xlink:href="struct_i_p_bans.html" target="_top" xlink:title=" ">
<polygon fill="white" stroke="#666666" points="220.5,-2335.5 170.5,-2335.5 170.5,-2316.5 220.5,-2316.5 220.5,-2335.5"/>
<text text-anchor="middle" x="195.5" y="-2323.5" font-family="Helvetica,sans-Serif" font-size="10.00">IPBans</text>
</a>
</g>
</g>
<!-- Node0&#45;&gt;Node3 -->
<g id="edge3" class="edge">
<title>Node0&#45;&gt;Node3</title>
<path fill="none" stroke="#63b8ff" d="M36.35,-1224.96C35.45,-1367.11 33.13,-2223.07 107,-2308 122.37,-2325.67 150.05,-2328.76 170.17,-2328.32"/>
<polygon fill="#63b8ff" stroke="#63b8ff" points="39.85,-1224.72 36.42,-1214.69 32.85,-1224.67 39.85,-1224.72"/>
</g>
<!-- Node4 -->
<g id="node5" class="node">
<title>Node4</title>
<g id="a_node5"><a xlink:href="struct_login_id_bans.html" target="_top" xlink:title=" ">
<polygon fill="white" stroke="#666666" points="233.5,-2298.5 157.5,-2298.5 157.5,-2279.5 233.5,-2279.5 233.5,-2298.5"/>
<text text-anchor="middle" x="195.5" y="-2286.5" font-family="Helvetica,sans-Serif" font-size="10.00">LoginIdBans</text>
</a>
</g>
</g>
<!-- Node0&#45;&gt;Node4 -->
<g id="edge4" class="edge">
<title>Node0&#45;&gt;Node4</title>
<path fill="none" stroke="#63b8ff" d="M36.4,-1224.72C35.84,-1363.4 35.58,-2189.07 107,-2271 119.33,-2285.15 139.55,-2289.94 157.45,-2291.06"/>
<polygon fill="#63b8ff" stroke="#63b8ff" points="39.9,-1224.7 36.44,-1214.68 32.9,-1224.67 39.9,-1224.7"/>
</g>
<!-- Node5 -->
<g id="node6" class="node">
<title>Node5</title>
<g id="a_node6"><a xlink:href="struct_plugins_1_1_arena_1_1_config.html" target="_top" xlink:title="Config data for this plugin.">
<polygon fill="white" stroke="#666666" points="257,-2261.5 134,-2261.5 134,-2242.5 257,-2242.5 257,-2261.5"/>
<text text-anchor="middle" x="195.5" y="-2249.5" font-family="Helvetica,sans-Serif" font-size="10.00">Plugins::Arena::Config</text>
</a>
</g>
</g>
<!-- Node0&#45;&gt;Node5 -->
<g id="edge5" class="edge">
<title>Node0&#45;&gt;Node5</title>
<path fill="none" stroke="#63b8ff" d="M36.45,-1224.86C36.25,-1361.16 38.09,-2155.14 107,-2234 114.04,-2242.06 123.64,-2247.08 133.91,-2250.12"/>
<polygon fill="#63b8ff" stroke="#63b8ff" points="39.95,-1224.66 36.47,-1214.66 32.95,-1224.65 39.95,-1224.66"/>
</g>
<!-- Node6 -->
<g id="node7" class="node">
<title>Node6</title>
<g id="a_node7"><a xlink:href="struct_plugins_1_1_autobuy_1_1_config.html" target="_top" xlink:title="Configurable fields for this plugin.">
<polygon fill="white" stroke="#666666" points="262.5,-2224.5 128.5,-2224.5 128.5,-2205.5 262.5,-2205.5 262.5,-2224.5"/>
<text text-anchor="middle" x="195.5" y="-2212.5" font-family="Helvetica,sans-Serif" font-size="10.00">Plugins::Autobuy::Config</text>
</a>
</g>
</g>
<!-- Node0&#45;&gt;Node6 -->
<g id="edge6" class="edge">
<title>Node0&#45;&gt;Node6</title>
<path fill="none" stroke="#63b8ff" d="M36.51,-1224.94C36.76,-1358.47 41.08,-2119.92 107,-2196 112.7,-2202.58 120.09,-2207.19 128.17,-2210.38"/>
<polygon fill="#63b8ff" stroke="#63b8ff" points="40.01,-1224.59 36.5,-1214.6 33.01,-1224.6 40.01,-1224.59"/>
</g>
<!-- Node7 -->
<g id="node8" class="node">
<title>Node7</title>
<g id="a_node8"><a xlink:href="struct_plugins_1_1_bounty_hunt_1_1_config.html" target="_top" xlink:title="Configurable fields for this plugin.">
<polygon fill="white" stroke="#666666" points="253.5,-2187 137.5,-2187 137.5,-2157 253.5,-2157 253.5,-2187"/>
<text text-anchor="start" x="145.5" y="-2175" font-family="Helvetica,sans-Serif" font-size="10.00">Plugins::BountyHunt</text>
<text text-anchor="middle" x="195.5" y="-2164" font-family="Helvetica,sans-Serif" font-size="10.00">::Config</text>
</a>
</g>
</g>
<!-- Node0&#45;&gt;Node7 -->
<g id="edge7" class="edge">
<title>Node0&#45;&gt;Node7</title>
<path fill="none" stroke="#63b8ff" d="M36.63,-1224.73C37.68,-1353.76 46.22,-2074.19 107,-2148 114.71,-2157.36 125.7,-2163.27 137.29,-2166.94"/>
<polygon fill="#63b8ff" stroke="#63b8ff" points="40.13,-1224.67 36.56,-1214.7 33.13,-1224.73 40.13,-1224.67"/>
</g>
<!-- Node8 -->
<g id="node9" class="node">
<title>Node8</title>
<g id="a_node9"><a xlink:href="struct_plugins_1_1_cargo_drop_1_1_config.html" target="_top" xlink:title="Config data for this plugin.">
<polygon fill="white" stroke="#666666" points="250.5,-2139 140.5,-2139 140.5,-2109 250.5,-2109 250.5,-2139"/>
<text text-anchor="start" x="148.5" y="-2127" font-family="Helvetica,sans-Serif" font-size="10.00">Plugins::CargoDrop</text>
<text text-anchor="middle" x="195.5" y="-2116" font-family="Helvetica,sans-Serif" font-size="10.00">::Config</text>
</a>
</g>
</g>
<!-- Node0&#45;&gt;Node8 -->
<g id="edge8" class="edge">
<title>Node0&#45;&gt;Node8</title>
<path fill="none" stroke="#63b8ff" d="M36.72,-1224.88C38.27,-1350.42 49.34,-2030.25 107,-2100 115.43,-2110.2 127.75,-2116.29 140.5,-2119.87"/>
<polygon fill="#63b8ff" stroke="#63b8ff" points="40.22,-1224.74 36.6,-1214.78 33.22,-1224.82 40.22,-1224.74"/>
</g>
<!-- Node9 -->
<g id="node10" class="node">
<title>Node9</title>
<g id="a_node10"><a xlink:href="struct_plugins_1_1_cash_manager_1_1_config.html" target="_top" xlink:title=" ">
<polygon fill="white" stroke="#666666" points="258,-2091 133,-2091 133,-2061 258,-2061 258,-2091"/>
<text text-anchor="start" x="141" y="-2079" font-family="Helvetica,sans-Serif" font-size="10.00">Plugins::CashManager</text>
<text text-anchor="middle" x="195.5" y="-2068" font-family="Helvetica,sans-Serif" font-size="10.00">::Config</text>
</a>
</g>
</g>
<!-- Node0&#45;&gt;Node9 -->
<g id="edge9" class="edge">
<title>Node0&#45;&gt;Node9</title>
<path fill="none" stroke="#63b8ff" d="M36.81,-1224.55C38.87,-1345.28 52.37,-1986.23 107,-2052 113.74,-2060.12 122.95,-2065.63 132.87,-2069.35"/>
<polygon fill="#63b8ff" stroke="#63b8ff" points="40.31,-1224.47 36.64,-1214.53 33.31,-1224.59 40.31,-1224.47"/>
</g>
<!-- Node10 -->
<g id="node11" class="node">
<title>Node10</title>
<g id="a_node11"><a xlink:href="struct_plugins_1_1_con_data_1_1_config.html" target="_top" xlink:title=" ">
<polygon fill="white" stroke="#666666" points="264,-2042.5 127,-2042.5 127,-2023.5 264,-2023.5 264,-2042.5"/>
<text text-anchor="middle" x="195.5" y="-2030.5" font-family="Helvetica,sans-Serif" font-size="10.00">Plugins::ConData::Config</text>
</a>
</g>
</g>
<!-- Node0&#45;&gt;Node10 -->
<g id="edge10" class="edge">
<title>Node0&#45;&gt;Node10</title>
<path fill="none" stroke="#63b8ff" d="M36.84,-1224.8C39.08,-1343.06 53.18,-1952.88 107,-2014 112.44,-2020.18 119.39,-2024.62 126.97,-2027.77"/>
<polygon fill="#63b8ff" stroke="#63b8ff" points="40.34,-1224.6 36.66,-1214.66 33.34,-1224.73 40.34,-1224.6"/>
</g>
<!-- Node11 -->
<g id="node12" class="node">
<title>Node11</title>
<g id="a_node12"><a xlink:href="struct_plugins_1_1_crash_catcher_1_1_config.html" target="_top" xlink:title="Config data for this plugin.">
<polygon fill="white" stroke="#666666" points="257,-2005 134,-2005 134,-1975 257,-1975 257,-2005"/>
<text text-anchor="start" x="142" y="-1993" font-family="Helvetica,sans-Serif" font-size="10.00">Plugins::CrashCatcher</text>
<text text-anchor="middle" x="195.5" y="-1982" font-family="Helvetica,sans-Serif" font-size="10.00">::Config</text>
</a>
</g>
</g>
<!-- Node0&#45;&gt;Node11 -->
<g id="edge11" class="edge">
<title>Node0&#45;&gt;Node11</title>
<path fill="none" stroke="#63b8ff" d="M37,-1224.64C40.08,-1338.18 57.91,-1907.45 107,-1966 113.98,-1974.33 123.56,-1979.91 133.82,-1983.62"/>
<polygon fill="#63b8ff" stroke="#63b8ff" points="40.5,-1224.5 36.74,-1214.59 33.5,-1224.68 40.5,-1224.5"/>
</g>
<!-- Node12 -->
<g id="node13" class="node">
<title>Node12</title>
<g id="a_node13"><a xlink:href="struct_plugins_1_1_daily_tasks_1_1_config.html" target="_top" xlink:title=" ">
<polygon fill="white" stroke="#666666" points="250.5,-1957 140.5,-1957 140.5,-1927 250.5,-1927 250.5,-1957"/>
<text text-anchor="start" x="148.5" y="-1945" font-family="Helvetica,sans-Serif" font-size="10.00">Plugins::DailyTasks</text>
<text text-anchor="middle" x="195.5" y="-1934" font-family="Helvetica,sans-Serif" font-size="10.00">::Config</text>
</a>
</g>
</g>
<!-- Node0&#45;&gt;Node12 -->
<g id="edge12" class="edge">
<title>Node0&#45;&gt;Node12</title>
<path fill="none" stroke="#63b8ff" d="M37.14,-1224.75C40.83,-1334.22 61,-1863.48 107,-1918 115.43,-1927.99 127.59,-1934.03 140.18,-1937.62"/>
<polygon fill="#63b8ff" stroke="#63b8ff" points="40.63,-1224.63 36.81,-1214.75 33.64,-1224.86 40.63,-1224.63"/>
</g>
<!-- Node13 -->
<g id="node14" class="node">
<title>Node13</title>
<g id="a_node14"><a xlink:href="struct_plugins_1_1_daily_tasks_1_1_task.html" target="_top" xlink:title=" ">
<polygon fill="white" stroke="#666666" points="250.5,-1909 140.5,-1909 140.5,-1879 250.5,-1879 250.5,-1909"/>
<text text-anchor="start" x="148.5" y="-1897" font-family="Helvetica,sans-Serif" font-size="10.00">Plugins::DailyTasks</text>
<text text-anchor="middle" x="195.5" y="-1886" font-family="Helvetica,sans-Serif" font-size="10.00">::Task</text>
</a>
</g>
</g>
<!-- Node0&#45;&gt;Node13 -->
<g id="edge13" class="edge">
<title>Node0&#45;&gt;Node13</title>
<path fill="none" stroke="#63b8ff" d="M37.28,-1224.71C41.62,-1329.61 64.07,-1819.48 107,-1870 115.47,-1879.96 127.64,-1885.99 140.23,-1889.58"/>
<polygon fill="#63b8ff" stroke="#63b8ff" points="40.77,-1224.43 36.87,-1214.58 33.78,-1224.71 40.77,-1224.43"/>
</g>
<!-- Node14 -->
<g id="node15" class="node">
<title>Node14</title>
<g id="a_node15"><a xlink:href="struct_plugins_1_1_daily_tasks_1_1_tasks.html" target="_top" xlink:title=" ">
<polygon fill="white" stroke="#666666" points="250.5,-1861 140.5,-1861 140.5,-1831 250.5,-1831 250.5,-1861"/>
<text text-anchor="start" x="148.5" y="-1849" font-family="Helvetica,sans-Serif" font-size="10.00">Plugins::DailyTasks</text>
<text text-anchor="middle" x="195.5" y="-1838" font-family="Helvetica,sans-Serif" font-size="10.00">::Tasks</text>
</a>
</g>
</g>
<!-- Node0&#45;&gt;Node14 -->
<g id="edge14" class="edge">
<title>Node0&#45;&gt;Node14</title>
<path fill="none" stroke="#63b8ff" d="M37.46,-1224.85C42.5,-1325.39 67.15,-1775.49 107,-1822 115.51,-1831.93 127.7,-1837.94 140.28,-1841.53"/>
<polygon fill="#63b8ff" stroke="#63b8ff" points="40.95,-1224.64 36.97,-1214.82 33.96,-1224.99 40.95,-1224.64"/>
</g>
<!-- Node15 -->
<g id="node16" class="node">
<title>Node15</title>
<g id="a_node16"><a xlink:href="struct_plugins_1_1_death_penalty_1_1_config.html" target="_top" xlink:title="Configurable fields for this plugin.">
<polygon fill="white" stroke="#666666" points="257.5,-1813 133.5,-1813 133.5,-1783 257.5,-1783 257.5,-1813"/>
<text text-anchor="start" x="141.5" y="-1801" font-family="Helvetica,sans-Serif" font-size="10.00">Plugins::DeathPenalty</text>
<text text-anchor="middle" x="195.5" y="-1790" font-family="Helvetica,sans-Serif" font-size="10.00">::Config</text>
</a>
</g>
</g>
<!-- Node0&#45;&gt;Node15 -->
<g id="edge15" class="edge">
<title>Node0&#45;&gt;Node15</title>
<path fill="none" stroke="#63b8ff" d="M36.12,-1225.01C34.79,-1315.94 33.93,-1689.53 107,-1774 113.9,-1781.98 123.19,-1787.43 133.13,-1791.12"/>
<polygon fill="#63b8ff" stroke="#63b8ff" points="39.62,-1224.99 36.28,-1214.93 32.62,-1224.87 39.62,-1224.99"/>
</g>
<!-- Node16 -->
<g id="node17" class="node">
<title>Node16</title>
<g id="a_node17"><a xlink:href="struct_plugins_1_1_event_1_1_config.html" target="_top" xlink:title="Configurable fields for this plugin.">
<polygon fill="white" stroke="#666666" points="256.5,-1764.5 134.5,-1764.5 134.5,-1745.5 256.5,-1745.5 256.5,-1764.5"/>
<text text-anchor="middle" x="195.5" y="-1752.5" font-family="Helvetica,sans-Serif" font-size="10.00">Plugins::Event::Config</text>
</a>
</g>
</g>
<!-- Node0&#45;&gt;Node16 -->
<g id="edge16" class="edge">
<title>Node0&#45;&gt;Node16</title>
<path fill="none" stroke="#63b8ff" d="M36.22,-1224.84C35.38,-1311.96 36.59,-1659.58 107,-1736 114.27,-1743.89 123.97,-1748.9 134.28,-1752.02"/>
<polygon fill="#63b8ff" stroke="#63b8ff" points="39.72,-1224.77 36.33,-1214.73 32.72,-1224.69 39.72,-1224.77"/>
</g>
<!-- Node17 -->
<g id="node18" class="node">
<title>Node17</title>
<g id="a_node18"><a xlink:href="struct_plugins_1_1_event_1_1_config_1_1_c_a_r_g_o___m_i_s_s_i_o_n___r_e_f_l_e_c_t_a_b_l_e.html" target="_top" xlink:title=" ">
<polygon fill="white" stroke="#666666" points="284,-1727 107,-1727 107,-1697 284,-1697 284,-1727"/>
<text text-anchor="start" x="115" y="-1715" font-family="Helvetica,sans-Serif" font-size="10.00">Plugins::Event::Config</text>
<text text-anchor="middle" x="195.5" y="-1704" font-family="Helvetica,sans-Serif" font-size="10.00">::CARGO_MISSION_REFLECTABLE</text>
</a>
</g>
</g>
<!-- Node0&#45;&gt;Node17 -->
<g id="edge17" class="edge">
<title>Node0&#45;&gt;Node17</title>
<path fill="none" stroke="#63b8ff" d="M36.61,-1225.01C37.46,-1307.18 44.8,-1617.66 107,-1688 110.03,-1691.42 113.49,-1694.38 117.25,-1696.93"/>
<polygon fill="#63b8ff" stroke="#63b8ff" points="40.1,-1224.57 36.52,-1214.6 33.1,-1224.63 40.1,-1224.57"/>
</g>
<!-- Node18 -->
<g id="node19" class="node">
<title>Node18</title>
<g id="a_node19"><a xlink:href="struct_plugins_1_1_event_1_1_config_1_1_n_p_c___m_i_s_s_i_o_n___r_e_f_l_e_c_t_a_b_l_e.html" target="_top" xlink:title=" ">
<polygon fill="white" stroke="#666666" points="276.5,-1679 114.5,-1679 114.5,-1649 276.5,-1649 276.5,-1679"/>
<text text-anchor="start" x="122.5" y="-1667" font-family="Helvetica,sans-Serif" font-size="10.00">Plugins::Event::Config</text>
<text text-anchor="middle" x="195.5" y="-1656" font-family="Helvetica,sans-Serif" font-size="10.00">::NPC_MISSION_REFLECTABLE</text>
</a>
</g>
</g>
<!-- Node0&#45;&gt;Node18 -->
<g id="edge18" class="edge">
<title>Node0&#45;&gt;Node18</title>
<path fill="none" stroke="#63b8ff" d="M36.96,-1224.97C39.15,-1301.83 50.83,-1577.47 107,-1640 110.05,-1643.4 113.54,-1646.33 117.31,-1648.87"/>
<polygon fill="#63b8ff" stroke="#63b8ff" points="40.46,-1224.66 36.7,-1214.75 33.46,-1224.84 40.46,-1224.66"/>
</g>
<!-- Node19 -->
<g id="node20" class="node">
<title>Node19</title>
<g id="a_node20"><a xlink:href="struct_plugins_1_1_kill_tracker_1_1_config.html" target="_top" xlink:title="Configurable fields for this plugin.">
<polygon fill="white" stroke="#666666" points="249.5,-1631 141.5,-1631 141.5,-1601 249.5,-1601 249.5,-1631"/>
<text text-anchor="start" x="149.5" y="-1619" font-family="Helvetica,sans-Serif" font-size="10.00">Plugins::KillTracker</text>
<text text-anchor="middle" x="195.5" y="-1608" font-family="Helvetica,sans-Serif" font-size="10.00">::Config</text>
</a>
</g>
</g>
<!-- Node0&#45;&gt;Node19 -->
<g id="edge19" class="edge">
<title>Node0&#45;&gt;Node19</title>
<path fill="none" stroke="#63b8ff" d="M37.41,-1225.01C41.04,-1296.41 56.85,-1537.26 107,-1592 115.94,-1601.76 128.43,-1607.69 141.18,-1611.27"/>
<polygon fill="#63b8ff" stroke="#63b8ff" points="40.89,-1224.54 36.91,-1214.72 33.89,-1224.88 40.89,-1224.54"/>
</g>
<!-- Node20 -->
<g id="node21" class="node">
<title>Node20</title>
<g id="a_node21"><a xlink:href="struct_plugins_1_1_kill_tracker_1_1_kill_message.html" target="_top" xlink:title="Struct to hold the Kill Streaks.">
<polygon fill="white" stroke="#666666" points="249.5,-1583 141.5,-1583 141.5,-1553 249.5,-1553 249.5,-1583"/>
<text text-anchor="start" x="149.5" y="-1571" font-family="Helvetica,sans-Serif" font-size="10.00">Plugins::KillTracker</text>
<text text-anchor="middle" x="195.5" y="-1560" font-family="Helvetica,sans-Serif" font-size="10.00">::KillMessage</text>
</a>
</g>
</g>
<!-- Node0&#45;&gt;Node20 -->
<g id="edge20" class="edge">
<title>Node0&#45;&gt;Node20</title>
<path fill="none" stroke="#63b8ff" d="M37.97,-1225.03C43.17,-1290.55 62.84,-1496.98 107,-1544 116.06,-1553.64 128.59,-1559.54 141.35,-1563.12"/>
<polygon fill="#63b8ff" stroke="#63b8ff" points="41.44,-1224.52 37.19,-1214.82 34.46,-1225.05 41.44,-1224.52"/>
</g>
<!-- Node21 -->
<g id="node22" class="node">
<title>Node21</title>
<g id="a_node22"><a xlink:href="struct_plugins_1_1_light_control_1_1_config.html" target="_top" xlink:title="Config data for this plugin.">
<polygon fill="white" stroke="#666666" points="254,-1535 137,-1535 137,-1505 254,-1505 254,-1535"/>
<text text-anchor="start" x="145" y="-1523" font-family="Helvetica,sans-Serif" font-size="10.00">Plugins::LightControl</text>
<text text-anchor="middle" x="195.5" y="-1512" font-family="Helvetica,sans-Serif" font-size="10.00">::Config</text>
</a>
</g>
</g>
<!-- Node0&#45;&gt;Node21 -->
<g id="edge21" class="edge">
<title>Node0&#45;&gt;Node21</title>
<path fill="none" stroke="#63b8ff" d="M38.69,-1224.82C45.59,-1283.81 68.73,-1456.57 107,-1496 115.01,-1504.25 125.56,-1509.75 136.56,-1513.39"/>
<polygon fill="#63b8ff" stroke="#63b8ff" points="42.14,-1224.16 37.53,-1214.62 35.18,-1224.95 42.14,-1224.16"/>
</g>
<!-- Node22 -->
<g id="node23" class="node">
<title>Node22</title>
<g id="a_node23"><a xlink:href="struct_plugins_1_1_loot_tables_1_1_config.html" target="_top" xlink:title=" ">
<polygon fill="white" stroke="#666666" points="250.5,-1487 140.5,-1487 140.5,-1457 250.5,-1457 250.5,-1487"/>
<text text-anchor="start" x="148.5" y="-1475" font-family="Helvetica,sans-Serif" font-size="10.00">Plugins::LootTables</text>
<text text-anchor="middle" x="195.5" y="-1464" font-family="Helvetica,sans-Serif" font-size="10.00">::Config</text>
</a>
</g>
</g>
<!-- Node0&#45;&gt;Node22 -->
<g id="edge22" class="edge">
<title>Node0&#45;&gt;Node22</title>
<path fill="none" stroke="#63b8ff" d="M36.15,-1224.64C36.45,-1270.55 43.83,-1385.75 107,-1448 116.09,-1456.96 128.18,-1462.65 140.48,-1466.24"/>
<polygon fill="#63b8ff" stroke="#63b8ff" points="39.65,-1224.55 36.2,-1214.53 32.65,-1224.51 39.65,-1224.55"/>
</g>
<!-- Node23 -->
<g id="node24" class="node">
<title>Node23</title>
<g id="a_node24"><a xlink:href="struct_plugins_1_1_loot_tables_1_1_drop_weight.html" target="_top" xlink:title=" ">
<polygon fill="white" stroke="#666666" points="250.5,-1439 140.5,-1439 140.5,-1409 250.5,-1409 250.5,-1439"/>
<text text-anchor="start" x="148.5" y="-1427" font-family="Helvetica,sans-Serif" font-size="10.00">Plugins::LootTables</text>
<text text-anchor="middle" x="195.5" y="-1416" font-family="Helvetica,sans-Serif" font-size="10.00">::DropWeight</text>
</a>
</g>
</g>
<!-- Node0&#45;&gt;Node23 -->
<g id="edge23" class="edge">
<title>Node0&#45;&gt;Node23</title>
<path fill="none" stroke="#63b8ff" d="M37.83,-1224.96C41.55,-1264.36 55.5,-1352.42 107,-1400 116.26,-1408.55 128.27,-1414.1 140.42,-1417.69"/>
<polygon fill="#63b8ff" stroke="#63b8ff" points="41.3,-1224.48 37,-1214.8 34.33,-1225.05 41.3,-1224.48"/>
</g>
<!-- Node24 -->
<g id="node25" class="node">
<title>Node24</title>
<g id="a_node25"><a xlink:href="struct_plugins_1_1_loot_tables_1_1_loot_table.html" target="_top" xlink:title=" ">
<polygon fill="white" stroke="#666666" points="250.5,-1391 140.5,-1391 140.5,-1361 250.5,-1361 250.5,-1391"/>
<text text-anchor="start" x="148.5" y="-1379" font-family="Helvetica,sans-Serif" font-size="10.00">Plugins::LootTables</text>
<text text-anchor="middle" x="195.5" y="-1368" font-family="Helvetica,sans-Serif" font-size="10.00">::LootTable</text>
</a>
</g>
</g>
<!-- Node0&#45;&gt;Node24 -->
<g id="edge24" class="edge">
<title>Node0&#45;&gt;Node24</title>
<path fill="none" stroke="#63b8ff" d="M40.36,-1224.36C47.67,-1255.91 66.57,-1318.25 107,-1352 116.43,-1359.87 128.24,-1365.18 140.1,-1368.75"/>
<polygon fill="#63b8ff" stroke="#63b8ff" points="43.78,-1223.62 38.24,-1214.59 36.94,-1225.1 43.78,-1223.62"/>
</g>
<!-- Node25 -->
<g id="node26" class="node">
<title>Node25</title>
<g id="a_node26"><a xlink:href="struct_plugins_1_1_mark_1_1_config.html" target="_top" xlink:title=" ">
<polygon fill="white" stroke="#666666" points="255,-1342.5 136,-1342.5 136,-1323.5 255,-1323.5 255,-1342.5"/>
<text text-anchor="middle" x="195.5" y="-1330.5" font-family="Helvetica,sans-Serif" font-size="10.00">Plugins::Mark::Config</text>
</a>
</g>
</g>
<!-- Node0&#45;&gt;Node25 -->
<g id="edge25" class="edge">
<title>Node0&#45;&gt;Node25</title>
<path fill="none" stroke="#63b8ff" d="M43.38,-1224.32C53.35,-1249.37 74.28,-1292.53 107,-1315 115.57,-1320.88 125.64,-1324.92 135.85,-1327.67"/>
<polygon fill="#63b8ff" stroke="#63b8ff" points="46.59,-1222.91 39.78,-1214.8 40.04,-1225.39 46.59,-1222.91"/>
</g>
<!-- Node26 -->
<g id="node27" class="node">
<title>Node26</title>
<g id="a_node27"><a xlink:href="struct_plugins_1_1_message_1_1_config.html" target="_top" xlink:title="Config data for this plugin.">
<polygon fill="white" stroke="#666666" points="264.5,-1305.5 126.5,-1305.5 126.5,-1286.5 264.5,-1286.5 264.5,-1305.5"/>
<text text-anchor="middle" x="195.5" y="-1293.5" font-family="Helvetica,sans-Serif" font-size="10.00">Plugins::Message::Config</text>
</a>
</g>
</g>
<!-- Node0&#45;&gt;Node26 -->
<g id="edge26" class="edge">
<title>Node0&#45;&gt;Node26</title>
<path fill="none" stroke="#63b8ff" d="M49.21,-1223.03C61.91,-1239.66 82.97,-1263.72 107,-1277 114.07,-1280.91 121.89,-1284.02 129.84,-1286.48"/>
<polygon fill="#63b8ff" stroke="#63b8ff" points="51.79,-1220.65 43.04,-1214.68 46.16,-1224.8 51.79,-1220.65"/>
</g>
<!-- Node27 -->
<g id="node28" class="node">
<title>Node27</title>
<g id="a_node28"><a xlink:href="struct_plugins_1_1_mining_control_1_1_config.html" target="_top" xlink:title="Config data for this plugin.">
<polygon fill="white" stroke="#666666" points="258.5,-1268 132.5,-1268 132.5,-1238 258.5,-1238 258.5,-1268"/>
<text text-anchor="start" x="140.5" y="-1256" font-family="Helvetica,sans-Serif" font-size="10.00">Plugins::MiningControl</text>
<text text-anchor="middle" x="195.5" y="-1245" font-family="Helvetica,sans-Serif" font-size="10.00">::Config</text>
</a>
</g>
</g>
<!-- Node0&#45;&gt;Node27 -->
<g id="edge27" class="edge">
<title>Node0&#45;&gt;Node27</title>
<path fill="none" stroke="#63b8ff" d="M73.11,-1217.93C83.97,-1221.64 95.93,-1225.6 107,-1229 116.79,-1232.01 127.25,-1235.03 137.4,-1237.87"/>
<polygon fill="#63b8ff" stroke="#63b8ff" points="74.09,-1214.57 63.49,-1214.62 71.81,-1221.18 74.09,-1214.57"/>
</g>
<!-- Node28 -->
<g id="node29" class="node">
<title>Node28</title>
<g id="a_node29"><a xlink:href="struct_plugins_1_1_mining_control_1_1_mining_stats.html" target="_top" xlink:title="A struct to load in the stats config file across restarts.">
<polygon fill="white" stroke="#666666" points="258.5,-1220 132.5,-1220 132.5,-1190 258.5,-1190 258.5,-1220"/>
<text text-anchor="start" x="140.5" y="-1208" font-family="Helvetica,sans-Serif" font-size="10.00">Plugins::MiningControl</text>
<text text-anchor="middle" x="195.5" y="-1197" font-family="Helvetica,sans-Serif" font-size="10.00">::MiningStats</text>
</a>
</g>
</g>
<!-- Node0&#45;&gt;Node28 -->
<g id="edge28" class="edge">
<title>Node0&#45;&gt;Node28</title>
<path fill="none" stroke="#63b8ff" d="M81.22,-1205C97.06,-1205 115.18,-1205 132.22,-1205"/>
<polygon fill="#63b8ff" stroke="#63b8ff" points="81.17,-1201.5 71.17,-1205 81.17,-1208.5 81.17,-1201.5"/>
</g>
<!-- Node29 -->
<g id="node30" class="node">
<title>Node29</title>
<g id="a_node30"><a xlink:href="struct_plugins_1_1_mining_control_1_1_player_bonus.html" target="_top" xlink:title="A struct that defines a mining bonus to a player if they meet certain criteria.">
<polygon fill="white" stroke="#666666" points="258.5,-1172 132.5,-1172 132.5,-1142 258.5,-1142 258.5,-1172"/>
<text text-anchor="start" x="140.5" y="-1160" font-family="Helvetica,sans-Serif" font-size="10.00">Plugins::MiningControl</text>
<text text-anchor="middle" x="195.5" y="-1149" font-family="Helvetica,sans-Serif" font-size="10.00">::PlayerBonus</text>
</a>
</g>
</g>
<!-- Node0&#45;&gt;Node29 -->
<g id="edge29" class="edge">
<title>Node0&#45;&gt;Node29</title>
<path fill="none" stroke="#63b8ff" d="M73.11,-1192.07C83.97,-1188.36 95.93,-1184.4 107,-1181 116.79,-1177.99 127.25,-1174.97 137.4,-1172.13"/>
<polygon fill="#63b8ff" stroke="#63b8ff" points="71.81,-1188.82 63.49,-1195.38 74.09,-1195.43 71.81,-1188.82"/>
</g>
<!-- Node30 -->
<g id="node31" class="node">
<title>Node30</title>
<g id="a_node31"><a xlink:href="struct_plugins_1_1_mining_control_1_1_zone_bonus.html" target="_top" xlink:title="A struct that defines a mining bonus for a certain zone in space.">
<polygon fill="white" stroke="#666666" points="258.5,-1124 132.5,-1124 132.5,-1094 258.5,-1094 258.5,-1124"/>
<text text-anchor="start" x="140.5" y="-1112" font-family="Helvetica,sans-Serif" font-size="10.00">Plugins::MiningControl</text>
<text text-anchor="middle" x="195.5" y="-1101" font-family="Helvetica,sans-Serif" font-size="10.00">::ZoneBonus</text>
</a>
</g>
</g>
<!-- Node0&#45;&gt;Node30 -->
<g id="edge30" class="edge">
<title>Node0&#45;&gt;Node30</title>
<path fill="none" stroke="#63b8ff" d="M49.37,-1187.25C62.19,-1170.83 83.34,-1146.92 107,-1133 114.74,-1128.45 123.37,-1124.73 132.11,-1121.71"/>
<polygon fill="#63b8ff" stroke="#63b8ff" points="46.38,-1185.41 43.14,-1195.5 51.96,-1189.63 46.38,-1185.41"/>
</g>
<!-- Node31 -->
<g id="node32" class="node">
<title>Node31</title>
<g id="a_node32"><a xlink:href="struct_plugins_1_1_mining_control_1_1_zone_stats.html" target="_top" xlink:title="A struct to hold the current status of a zone so their progress persists across restarts.">
<polygon fill="white" stroke="#666666" points="258.5,-1076 132.5,-1076 132.5,-1046 258.5,-1046 258.5,-1076"/>
<text text-anchor="start" x="140.5" y="-1064" font-family="Helvetica,sans-Serif" font-size="10.00">Plugins::MiningControl</text>
<text text-anchor="middle" x="195.5" y="-1053" font-family="Helvetica,sans-Serif" font-size="10.00">::ZoneStats</text>
</a>
</g>
</g>
<!-- Node0&#45;&gt;Node31 -->
<g id="edge31" class="edge">
<title>Node0&#45;&gt;Node31</title>
<path fill="none" stroke="#63b8ff" d="M42.71,-1185.44C52.22,-1158.71 72.94,-1111.09 107,-1085 114.5,-1079.25 123.3,-1074.88 132.36,-1071.56"/>
<polygon fill="#63b8ff" stroke="#63b8ff" points="39.3,-1184.6 39.42,-1195.2 45.93,-1186.84 39.3,-1184.6"/>
</g>
<!-- Node32 -->
<g id="node33" class="node">
<title>Node32</title>
<g id="a_node33"><a xlink:href="struct_plugins_1_1_misc_commands_1_1_config.html" target="_top" xlink:title="Config data for this plugin.">
<polygon fill="white" stroke="#666666" points="263.5,-1028 127.5,-1028 127.5,-998 263.5,-998 263.5,-1028"/>
<text text-anchor="start" x="135.5" y="-1016" font-family="Helvetica,sans-Serif" font-size="10.00">Plugins::MiscCommands</text>
<text text-anchor="middle" x="195.5" y="-1005" font-family="Helvetica,sans-Serif" font-size="10.00">::Config</text>
</a>
</g>
</g>
<!-- Node0&#45;&gt;Node32 -->
<g id="edge32" class="edge">
<title>Node0&#45;&gt;Node32</title>
<path fill="none" stroke="#63b8ff" d="M39.1,-1185.38C44.81,-1150.29 61.75,-1076.74 107,-1037 112.92,-1031.8 119.86,-1027.72 127.21,-1024.52"/>
<polygon fill="#63b8ff" stroke="#63b8ff" points="35.63,-1184.93 37.62,-1195.33 42.55,-1185.96 35.63,-1184.93"/>
</g>
<!-- Node33 -->
<g id="node34" class="node">
<title>Node33</title>
<g id="a_node34"><a xlink:href="struct_plugins_1_1_n_p_c_spin_protection_1_1_config.html" target="_top" xlink:title="Config data for this plugin.">
<polygon fill="white" stroke="#666666" points="270,-980 121,-980 121,-950 270,-950 270,-980"/>
<text text-anchor="start" x="129" y="-968" font-family="Helvetica,sans-Serif" font-size="10.00">Plugins::NPCSpinProtection</text>
<text text-anchor="middle" x="195.5" y="-957" font-family="Helvetica,sans-Serif" font-size="10.00">::Config</text>
</a>
</g>
</g>
<!-- Node0&#45;&gt;Node33 -->
<g id="edge33" class="edge">
<title>Node0&#45;&gt;Node33</title>
<path fill="none" stroke="#63b8ff" d="M37.02,-1184.97C39.23,-1142.49 50.51,-1042.85 107,-989 111.1,-985.09 115.78,-981.8 120.8,-979.04"/>
<polygon fill="#63b8ff" stroke="#63b8ff" points="33.51,-1185 36.61,-1195.13 40.51,-1185.28 33.51,-1185"/>
</g>
<!-- Node34 -->
<g id="node35" class="node">
<title>Node34</title>
<g id="a_node35"><a xlink:href="struct_plugins_1_1_npc_1_1_config.html" target="_top" xlink:title="Config data for this plugin.">
<polygon fill="white" stroke="#666666" points="252,-931.5 139,-931.5 139,-912.5 252,-912.5 252,-931.5"/>
<text text-anchor="middle" x="195.5" y="-919.5" font-family="Helvetica,sans-Serif" font-size="10.00">Plugins::Npc::Config</text>
</a>
</g>
</g>
<!-- Node0&#45;&gt;Node34 -->
<g id="edge34" class="edge">
<title>Node0&#45;&gt;Node34</title>
<path fill="none" stroke="#63b8ff" d="M39.12,-1185.13C46.81,-1129.71 71.11,-975.24 107,-941 115.66,-932.74 127.03,-927.73 138.69,-924.76"/>
<polygon fill="#63b8ff" stroke="#63b8ff" points="35.6,-1185 37.73,-1195.38 42.54,-1185.94 35.6,-1185"/>
</g>
<!-- Node35 -->
<g id="node36" class="node">
<title>Node35</title>
<g id="a_node36"><a xlink:href="struct_plugins_1_1_npc_1_1_fleet.html" target="_top" xlink:title=" ">
<polygon fill="white" stroke="#666666" points="249,-894.5 142,-894.5 142,-875.5 249,-875.5 249,-894.5"/>
<text text-anchor="middle" x="195.5" y="-882.5" font-family="Helvetica,sans-Serif" font-size="10.00">Plugins::Npc::Fleet</text>
</a>
</g>
</g>
<!-- Node0&#45;&gt;Node35 -->
<g id="edge35" class="edge">
<title>Node0&#45;&gt;Node35</title>
<path fill="none" stroke="#63b8ff" d="M38.41,-1185.19C44.65,-1124.68 66.39,-943.96 107,-904 116.31,-894.84 128.93,-889.65 141.69,-886.8"/>
<polygon fill="#63b8ff" stroke="#63b8ff" points="34.91,-1185.02 37.4,-1195.32 41.87,-1185.72 34.91,-1185.02"/>
</g>
<!-- Node36 -->
<g id="node37" class="node">
<title>Node36</title>
<g id="a_node37"><a xlink:href="struct_plugins_1_1_npc_1_1_npc.html" target="_top" xlink:title="A struct that represents an npc that can be spawned.">
<polygon fill="white" stroke="#666666" points="246,-857.5 145,-857.5 145,-838.5 246,-838.5 246,-857.5"/>
<text text-anchor="middle" x="195.5" y="-845.5" font-family="Helvetica,sans-Serif" font-size="10.00">Plugins::Npc::Npc</text>
</a>
</g>
</g>
<!-- Node0&#45;&gt;Node36 -->
<g id="edge36" class="edge">
<title>Node0&#45;&gt;Node36</title>
<path fill="none" stroke="#63b8ff" d="M37.85,-1185.37C42.72,-1120.22 61.6,-912.77 107,-867 116.96,-856.96 130.9,-851.65 144.72,-848.99"/>
<polygon fill="#63b8ff" stroke="#63b8ff" points="34.35,-1185.27 37.12,-1195.5 41.33,-1185.77 34.35,-1185.27"/>
</g>
<!-- Node37 -->
<g id="node38" class="node">
<title>Node37</title>
<g id="a_node38"><a xlink:href="struct_plugins_1_1_npc_1_1_startup_npc.html" target="_top" xlink:title=" ">
<polygon fill="white" stroke="#666666" points="264,-820.5 127,-820.5 127,-801.5 264,-801.5 264,-820.5"/>
<text text-anchor="middle" x="195.5" y="-808.5" font-family="Helvetica,sans-Serif" font-size="10.00">Plugins::Npc::StartupNpc</text>
</a>
</g>
</g>
<!-- Node0&#45;&gt;Node37 -->
<g id="edge37" class="edge">
<title>Node0&#45;&gt;Node37</title>
<path fill="none" stroke="#63b8ff" d="M37.43,-1185.06C41.09,-1114.98 56.91,-881.51 107,-830 112.53,-824.32 119.32,-820.14 126.67,-817.1"/>
<polygon fill="#63b8ff" stroke="#63b8ff" points="33.92,-1185.02 36.92,-1195.18 40.91,-1185.37 33.92,-1185.02"/>
</g>
<!-- Node38 -->
<g id="node39" class="node">
<title>Node38</title>
<g id="a_node39"><a xlink:href="struct_plugins_1_1_purchase_restrictions_1_1_config.html" target="_top" xlink:title="Config data for this plugin.">
<polygon fill="white" stroke="#666666" points="275.5,-783 115.5,-783 115.5,-753 275.5,-753 275.5,-783"/>
<text text-anchor="start" x="123.5" y="-771" font-family="Helvetica,sans-Serif" font-size="10.00">Plugins::PurchaseRestrictions</text>
<text text-anchor="middle" x="195.5" y="-760" font-family="Helvetica,sans-Serif" font-size="10.00">::Config</text>
</a>
</g>
</g>
<!-- Node0&#45;&gt;Node38 -->
<g id="edge38" class="edge">
<title>Node0&#45;&gt;Node38</title>
<path fill="none" stroke="#63b8ff" d="M37.18,-1185.17C40.1,-1111.13 54,-852.1 107,-793 110.48,-789.12 114.52,-785.82 118.91,-783.02"/>
<polygon fill="#63b8ff" stroke="#63b8ff" points="33.67,-1185.28 36.8,-1195.4 40.66,-1185.54 33.67,-1185.28"/>
</g>
<!-- Node39 -->
<g id="node40" class="node">
<title>Node39</title>
<g id="a_node40"><a xlink:href="struct_plugins_1_1_rename_1_1_config.html" target="_top" xlink:title="Config data for this plugin.">
<polygon fill="white" stroke="#666666" points="263,-734.5 128,-734.5 128,-715.5 263,-715.5 263,-734.5"/>
<text text-anchor="middle" x="195.5" y="-722.5" font-family="Helvetica,sans-Serif" font-size="10.00">Plugins::Rename::Config</text>
</a>
</g>
</g>
<!-- Node0&#45;&gt;Node39 -->
<g id="edge39" class="edge">
<title>Node0&#45;&gt;Node39</title>
<path fill="none" stroke="#63b8ff" d="M36.66,-1185.3C37.7,-1105.72 45.7,-809.23 107,-744 112.75,-737.88 119.97,-733.5 127.77,-730.39"/>
<polygon fill="#63b8ff" stroke="#63b8ff" points="33.15,-1185.37 36.55,-1195.41 40.15,-1185.45 33.15,-1185.37"/>
</g>
<!-- Node40 -->
<g id="node41" class="node">
<title>Node40</title>
<g id="a_node41"><a xlink:href="struct_plugins_1_1_rename_1_1_tag_data.html" target="_top" xlink:title="Struct to hold a clan/group tag. This contains the passwords used to manage and rename a character to...">
<polygon fill="white" stroke="#666666" points="267.5,-697.5 123.5,-697.5 123.5,-678.5 267.5,-678.5 267.5,-697.5"/>
<text text-anchor="middle" x="195.5" y="-685.5" font-family="Helvetica,sans-Serif" font-size="10.00">Plugins::Rename::TagData</text>
</a>
</g>
</g>
<!-- Node0&#45;&gt;Node40 -->
<g id="edge40" class="edge">
<title>Node0&#45;&gt;Node40</title>
<path fill="none" stroke="#63b8ff" d="M36.41,-1185.34C36.43,-1101.91 40.86,-778.17 107,-707 111.66,-701.99 117.3,-698.14 123.45,-695.2"/>
<polygon fill="#63b8ff" stroke="#63b8ff" points="32.91,-1185.47 36.43,-1195.47 39.91,-1185.46 32.91,-1185.47"/>
</g>
<!-- Node41 -->
<g id="node42" class="node">
<title>Node41</title>
<g id="a_node42"><a xlink:href="struct_plugins_1_1_rename_1_1_tag_list.html" target="_top" xlink:title="A struct to hold all the tags.">
<polygon fill="white" stroke="#666666" points="264.5,-660.5 126.5,-660.5 126.5,-641.5 264.5,-641.5 264.5,-660.5"/>
<text text-anchor="middle" x="195.5" y="-648.5" font-family="Helvetica,sans-Serif" font-size="10.00">Plugins::Rename::TagList</text>
</a>
</g>
</g>
<!-- Node0&#45;&gt;Node41 -->
<g id="edge41" class="edge">
<title>Node0&#45;&gt;Node41</title>
<path fill="none" stroke="#63b8ff" d="M36.19,-1185.01C35.26,-1097.24 36.11,-747.02 107,-670 112.37,-664.17 119.07,-659.9 126.36,-656.82"/>
<polygon fill="#63b8ff" stroke="#63b8ff" points="32.69,-1185.24 36.32,-1195.19 39.69,-1185.15 32.69,-1185.24"/>
</g>
<!-- Node42 -->
<g id="node43" class="node">
<title>Node42</title>
<g id="a_node43"><a xlink:href="struct_plugins_1_1_restart_1_1_config.html" target="_top" xlink:title="Config data for this plugin.">
<polygon fill="white" stroke="#666666" points="260.5,-623.5 130.5,-623.5 130.5,-604.5 260.5,-604.5 260.5,-623.5"/>
<text text-anchor="middle" x="195.5" y="-611.5" font-family="Helvetica,sans-Serif" font-size="10.00">Plugins::Restart::Config</text>
</a>
</g>
</g>
<!-- Node0&#45;&gt;Node42 -->
<g id="edge42" class="edge">
<title>Node0&#45;&gt;Node42</title>
<path fill="none" stroke="#63b8ff" d="M37.59,-1185.38C43.05,-1089.68 68.84,-674.81 107,-633 113.29,-626.11 121.43,-621.41 130.22,-618.24"/>
<polygon fill="#63b8ff" stroke="#63b8ff" points="34.09,-1185.24 37.02,-1195.42 41.08,-1185.63 34.09,-1185.24"/>
</g>
<!-- Node43 -->
<g id="node44" class="node">
<title>Node43</title>
<g id="a_node44"><a xlink:href="struct_plugins_1_1_solar_control_1_1_config.html" target="_top" xlink:title=" ">
<polygon fill="white" stroke="#666666" points="254.5,-586 136.5,-586 136.5,-556 254.5,-556 254.5,-586"/>
<text text-anchor="start" x="144.5" y="-574" font-family="Helvetica,sans-Serif" font-size="10.00">Plugins::SolarControl</text>
<text text-anchor="middle" x="195.5" y="-563" font-family="Helvetica,sans-Serif" font-size="10.00">::Config</text>
</a>
</g>
</g>
<!-- Node0&#45;&gt;Node43 -->
<g id="edge43" class="edge">
<title>Node0&#45;&gt;Node43</title>
<path fill="none" stroke="#63b8ff" d="M37.5,-1185.11C42.71,-1085.32 67.91,-642.05 107,-596 114.57,-587.09 125.07,-581.24 136.18,-577.43"/>
<polygon fill="#63b8ff" stroke="#63b8ff" points="34,-1185.14 36.98,-1195.31 40.99,-1185.5 34,-1185.14"/>
</g>
<!-- Node44 -->
<g id="node45" class="node">
<title>Node44</title>
<g id="a_node45"><a xlink:href="struct_plugins_1_1_solar_control_1_1_solar_arch.html" target="_top" xlink:title=" ">
<polygon fill="white" stroke="#666666" points="254.5,-538 136.5,-538 136.5,-508 254.5,-508 254.5,-538"/>
<text text-anchor="start" x="144.5" y="-526" font-family="Helvetica,sans-Serif" font-size="10.00">Plugins::SolarControl</text>
<text text-anchor="middle" x="195.5" y="-515" font-family="Helvetica,sans-Serif" font-size="10.00">::SolarArch</text>
</a>
</g>
</g>
<!-- Node0&#45;&gt;Node44 -->
<g id="edge44" class="edge">
<title>Node0&#45;&gt;Node44</title>
<path fill="none" stroke="#63b8ff" d="M37.33,-1184.83C41.81,-1079.65 64.57,-596.87 107,-547 114.55,-538.12 125.05,-532.37 136.16,-528.68"/>
<polygon fill="#63b8ff" stroke="#63b8ff" points="33.82,-1184.89 36.9,-1195.03 40.81,-1185.18 33.82,-1184.89"/>
</g>
<!-- Node45 -->
<g id="node46" class="node">
<title>Node45</title>
<g id="a_node46"><a xlink:href="struct_plugins_1_1_solar_control_1_1_solar_arch_formation.html" target="_top" xlink:title=" ">
<polygon fill="white" stroke="#666666" points="255,-490 136,-490 136,-460 255,-460 255,-490"/>
<text text-anchor="start" x="144" y="-478" font-family="Helvetica,sans-Serif" font-size="10.00">Plugins::SolarControl</text>
<text text-anchor="middle" x="195.5" y="-467" font-family="Helvetica,sans-Serif" font-size="10.00">::SolarArchFormation</text>
</a>
</g>
</g>
<!-- Node0&#45;&gt;Node45 -->
<g id="edge45" class="edge">
<title>Node0&#45;&gt;Node45</title>
<path fill="none" stroke="#63b8ff" d="M37.16,-1185.11C40.96,-1075.98 61.47,-552.91 107,-499 114.42,-490.21 124.72,-484.49 135.66,-480.79"/>
<polygon fill="#63b8ff" stroke="#63b8ff" points="33.66,-1185.23 36.81,-1195.35 40.65,-1185.47 33.66,-1185.23"/>
</g>
<!-- Node46 -->
<g id="node47" class="node">
<title>Node46</title>
<g id="a_node47"><a xlink:href="struct_plugins_1_1_solar_control_1_1_solar_arch_formation_component.html" target="_top" xlink:title=" ">
<polygon fill="white" stroke="#666666" points="283,-442 108,-442 108,-412 283,-412 283,-442"/>
<text text-anchor="start" x="116" y="-430" font-family="Helvetica,sans-Serif" font-size="10.00">Plugins::SolarControl</text>
<text text-anchor="middle" x="195.5" y="-419" font-family="Helvetica,sans-Serif" font-size="10.00">::SolarArchFormationComponent</text>
</a>
</g>
</g>
<!-- Node0&#45;&gt;Node46 -->
<g id="edge46" class="edge">
<title>Node0&#45;&gt;Node46</title>
<path fill="none" stroke="#63b8ff" d="M37.03,-1185.2C40.21,-1071.91 58.38,-508.94 107,-451 109.84,-447.62 113.1,-444.69 116.66,-442.16"/>
<polygon fill="#63b8ff" stroke="#63b8ff" points="33.52,-1185.4 36.74,-1195.49 40.52,-1185.59 33.52,-1185.4"/>
</g>
<!-- Node47 -->
<g id="node48" class="node">
<title>Node47</title>
<g id="a_node48"><a xlink:href="struct_plugins_1_1_solar_control_1_1_startup_solar.html" target="_top" xlink:title=" ">
<polygon fill="white" stroke="#666666" points="254.5,-394 136.5,-394 136.5,-364 254.5,-364 254.5,-394"/>
<text text-anchor="start" x="144.5" y="-382" font-family="Helvetica,sans-Serif" font-size="10.00">Plugins::SolarControl</text>
<text text-anchor="middle" x="195.5" y="-371" font-family="Helvetica,sans-Serif" font-size="10.00">::StartupSolar</text>
</a>
</g>
</g>
<!-- Node0&#45;&gt;Node47 -->
<g id="edge47" class="edge">
<title>Node0&#45;&gt;Node47</title>
<path fill="none" stroke="#63b8ff" d="M36.9,-1185.41C39.49,-1068.4 55.27,-464.99 107,-403 114.57,-393.93 125.21,-388.11 136.48,-384.42"/>
<polygon fill="#63b8ff" stroke="#63b8ff" points="33.4,-1185.37 36.69,-1195.44 40.4,-1185.52 33.4,-1185.37"/>
</g>
<!-- Node48 -->
<g id="node49" class="node">
<title>Node48</title>
<g id="a_node49"><a xlink:href="struct_plugins_1_1_sound_manager_1_1_config.html" target="_top" xlink:title="Config data for this plugin.">
<polygon fill="white" stroke="#666666" points="261,-346 130,-346 130,-316 261,-316 261,-346"/>
<text text-anchor="start" x="138" y="-334" font-family="Helvetica,sans-Serif" font-size="10.00">Plugins::SoundManager</text>
<text text-anchor="middle" x="195.5" y="-323" font-family="Helvetica,sans-Serif" font-size="10.00">::Config</text>
</a>
</g>
</g>
<!-- Node0&#45;&gt;Node48 -->
<g id="edge48" class="edge">
<title>Node0&#45;&gt;Node48</title>
<path fill="none" stroke="#63b8ff" d="M36.8,-1185.38C38.84,-1064.23 52.19,-421.01 107,-355 113.04,-347.73 121.05,-342.55 129.78,-338.88"/>
<polygon fill="#63b8ff" stroke="#63b8ff" points="33.3,-1185.38 36.64,-1195.43 40.3,-1185.49 33.3,-1185.38"/>
</g>
<!-- Node49 -->
<g id="node50" class="node">
<title>Node49</title>
<g id="a_node50"><a xlink:href="struct_plugins_1_1_stats_1_1_file_name.html" target="_top" xlink:title="Reflectable struct that contains the file path of the config file as well as the file to export stats...">
<polygon fill="white" stroke="#666666" points="263,-297.5 128,-297.5 128,-278.5 263,-278.5 263,-297.5"/>
<text text-anchor="middle" x="195.5" y="-285.5" font-family="Helvetica,sans-Serif" font-size="10.00">Plugins::Stats::FileName</text>
</a>
</g>
</g>
<!-- Node0&#45;&gt;Node49 -->
<g id="edge49" class="edge">
<title>Node0&#45;&gt;Node49</title>
<path fill="none" stroke="#63b8ff" d="M36.66,-1185.41C37.88,-1060.22 47.23,-375.47 107,-307 112.62,-300.56 119.87,-296.01 127.78,-292.83"/>
<polygon fill="#63b8ff" stroke="#63b8ff" points="33.16,-1185.43 36.57,-1195.46 40.16,-1185.49 33.16,-1185.43"/>
</g>
<!-- Node50 -->
<g id="node51" class="node">
<title>Node50</title>
<g id="a_node51"><a xlink:href="struct_plugins_1_1_system_sensor_1_1_config.html" target="_top" xlink:title=" ">
<polygon fill="white" stroke="#666666" points="259.5,-260 131.5,-260 131.5,-230 259.5,-230 259.5,-260"/>
<text text-anchor="start" x="139.5" y="-248" font-family="Helvetica,sans-Serif" font-size="10.00">Plugins::SystemSensor</text>
<text text-anchor="middle" x="195.5" y="-237" font-family="Helvetica,sans-Serif" font-size="10.00">::Config</text>
</a>
</g>
</g>
<!-- Node0&#45;&gt;Node50 -->
<g id="edge50" class="edge">
<title>Node0&#45;&gt;Node50</title>
<path fill="none" stroke="#63b8ff" d="M36.66,-1185.06C37.86,-1056.12 47.16,-343.42 107,-270 113.39,-262.16 122.05,-256.68 131.45,-252.87"/>
<polygon fill="#63b8ff" stroke="#63b8ff" points="33.16,-1185.36 36.57,-1195.39 40.16,-1185.42 33.16,-1185.36"/>
</g>
<!-- Node51 -->
<g id="node52" class="node">
<title>Node51</title>
<g id="a_node52"><a xlink:href="struct_plugins_1_1_system_sensor_1_1_reflectable_sensor.html" target="_top" xlink:title=" ">
<polygon fill="white" stroke="#666666" points="259.5,-212 131.5,-212 131.5,-182 259.5,-182 259.5,-212"/>
<text text-anchor="start" x="139.5" y="-200" font-family="Helvetica,sans-Serif" font-size="10.00">Plugins::SystemSensor</text>
<text text-anchor="middle" x="195.5" y="-189" font-family="Helvetica,sans-Serif" font-size="10.00">::ReflectableSensor</text>
</a>
</g>
</g>
<!-- Node0&#45;&gt;Node51 -->
<g id="edge51" class="edge">
<title>Node0&#45;&gt;Node51</title>
<path fill="none" stroke="#63b8ff" d="M36.57,-1185.25C37.2,-1052.92 43.58,-298.26 107,-221 113.4,-213.21 122.06,-207.81 131.47,-204.1"/>
<polygon fill="#63b8ff" stroke="#63b8ff" points="33.07,-1185.48 36.53,-1195.49 40.07,-1185.51 33.07,-1185.48"/>
</g>
<!-- Node52 -->
<g id="node53" class="node">
<title>Node52</title>
<g id="a_node53"><a xlink:href="struct_plugins_1_1_tax_1_1_config.html" target="_top" xlink:title="Configurable fields for this plugin.">
<polygon fill="white" stroke="#666666" points="251,-163.5 140,-163.5 140,-144.5 251,-144.5 251,-163.5"/>
<text text-anchor="middle" x="195.5" y="-151.5" font-family="Helvetica,sans-Serif" font-size="10.00">Plugins::Tax::Config</text>
</a>
</g>
</g>
<!-- Node0&#45;&gt;Node52 -->
<g id="edge52" class="edge">
<title>Node0&#45;&gt;Node52</title>
<path fill="none" stroke="#63b8ff" d="M36.45,-1185.09C36.29,-1048.45 38.33,-252.47 107,-173 115.33,-163.35 127.31,-157.94 139.73,-155.03"/>
<polygon fill="#63b8ff" stroke="#63b8ff" points="32.95,-1185.33 36.47,-1195.32 39.95,-1185.31 32.95,-1185.33"/>
</g>
<!-- Node53 -->
<g id="node54" class="node">
<title>Node53</title>
<g id="a_node54"><a xlink:href="struct_plugins_1_1_template_1_1_config.html" target="_top" xlink:title=" ">
<polygon fill="white" stroke="#666666" points="250,-126 141,-126 141,-96 250,-96 250,-126"/>
<text text-anchor="start" x="149" y="-114" font-family="Helvetica,sans-Serif" font-size="10.00">Plugins::Template::</text>
<text text-anchor="middle" x="195.5" y="-103" font-family="Helvetica,sans-Serif" font-size="10.00">Config</text>
</a>
</g>
</g>
<!-- Node0&#45;&gt;Node53 -->
<g id="edge53" class="edge">
<title>Node0&#45;&gt;Node53</title>
<path fill="none" stroke="#63b8ff" d="M36.46,-1185.28C36.34,-1046.6 38.53,-220.81 107,-136 115.44,-125.55 127.92,-119.28 140.82,-115.58"/>
<polygon fill="#63b8ff" stroke="#63b8ff" points="32.96,-1185.32 36.47,-1195.32 39.96,-1185.31 32.96,-1185.32"/>
</g>
<!-- Node54 -->
<g id="node55" class="node">
<title>Node54</title>
<g id="a_node55"><a xlink:href="struct_plugins_1_1_wardrobe_1_1_config.html" target="_top" xlink:title="Config data for this plugin.">
<polygon fill="white" stroke="#666666" points="250.5,-78 140.5,-78 140.5,-48 250.5,-48 250.5,-78"/>
<text text-anchor="start" x="148.5" y="-66" font-family="Helvetica,sans-Serif" font-size="10.00">Plugins::Wardrobe::</text>
<text text-anchor="middle" x="195.5" y="-55" font-family="Helvetica,sans-Serif" font-size="10.00">Config</text>
</a>
</g>
</g>
<!-- Node0&#45;&gt;Node54 -->
<g id="edge54" class="edge">
<title>Node0&#45;&gt;Node54</title>
<path fill="none" stroke="#63b8ff" d="M36.39,-1184.82C35.76,-1041.08 34.99,-175.5 107,-87 115.35,-76.74 127.64,-70.62 140.39,-67.04"/>
<polygon fill="#63b8ff" stroke="#63b8ff" points="32.89,-1185.22 36.44,-1195.2 39.89,-1185.18 32.89,-1185.22"/>
</g>
<!-- Node55 -->
<g id="node56" class="node">
<title>Node55</title>
<g id="a_node56"><a xlink:href="struct_plugins_1_1_warehouse_1_1_config.html" target="_top" xlink:title=" ">
<polygon fill="white" stroke="#666666" points="251.5,-30 139.5,-30 139.5,0 251.5,0 251.5,-30"/>
<text text-anchor="start" x="147.5" y="-18" font-family="Helvetica,sans-Serif" font-size="10.00">Plugins::Warehouse</text>
<text text-anchor="middle" x="195.5" y="-7" font-family="Helvetica,sans-Serif" font-size="10.00">::Config</text>
</a>
</g>
</g>
<!-- Node0&#45;&gt;Node55 -->
<g id="edge55" class="edge">
<title>Node0&#45;&gt;Node55</title>
<path fill="none" stroke="#63b8ff" d="M36.33,-1185.32C35.29,-1039.62 31.8,-131.66 107,-39 115.14,-28.97 127.04,-22.9 139.46,-19.29"/>
<polygon fill="#63b8ff" stroke="#63b8ff" points="32.84,-1185.48 36.41,-1195.45 39.84,-1185.42 32.84,-1185.48"/>
</g>
</g>
</svg>
