<?xml version="1.0" encoding="UTF-8" standalone="no"?>
<!DOCTYPE svg PUBLIC "-//W3C//DTD SVG 1.1//EN"
 "http://www.w3.org/Graphics/SVG/1.1/DTD/svg11.dtd">
<!-- Generated by graphviz version 2.43.0 (0)
 -->
<!-- Title: Graphical Class Hierarchy Pages: 1 -->
<svg width="292pt" height="1986pt"
 viewBox="0.00 0.00 292.00 1985.50" xmlns="http://www.w3.org/2000/svg" xmlns:xlink="http://www.w3.org/1999/xlink">
<g id="graph0" class="graph" transform="scale(1 1) rotate(0) translate(4 1981.5)">
<title>Graphical Class Hierarchy</title>
<!-- Node0 -->
<g id="node1" class="node">
<title>Node0</title>
<g id="a_node1"><a xlink:title=" ">
<polygon fill="#e0e0e0" stroke="#999999" points="71,-998.5 0,-998.5 0,-979.5 71,-979.5 71,-998.5"/>
<text text-anchor="middle" x="35.5" y="-986.5" font-family="Helvetica,sans-Serif" font-size="10.00">Reflectable</text>
</a>
</g>
</g>
<!-- Node1 -->
<g id="node2" class="node">
<title>Node1</title>
<g id="a_node2"><a xlink:href="struct_authenticated_accounts.html" target="_top" xlink:title=" ">
<polygon fill="white" stroke="#666666" points="260,-1977.5 131,-1977.5 131,-1958.5 260,-1958.5 260,-1977.5"/>
<text text-anchor="middle" x="195.5" y="-1965.5" font-family="Helvetica,sans-Serif" font-size="10.00">AuthenticatedAccounts</text>
</a>
</g>
</g>
<!-- Node0&#45;&gt;Node1 -->
<g id="edge1" class="edge">
<title>Node0&#45;&gt;Node1</title>
<path fill="none" stroke="#63b8ff" d="M36.55,-1008.75C37.04,-1139.43 42.65,-1876.71 107,-1950 113.34,-1957.23 121.75,-1962.01 130.84,-1965.1"/>
<polygon fill="#63b8ff" stroke="#63b8ff" points="40.05,-1008.6 36.51,-998.61 33.05,-1008.62 40.05,-1008.6"/>
</g>
<!-- Node2 -->
<g id="node3" class="node">
<title>Node2</title>
<g id="a_node3"><a xlink:href="struct_config.html" target="_top" xlink:title=" ">
<polygon fill="white" stroke="#666666" points="219,-1940.5 172,-1940.5 172,-1921.5 219,-1921.5 219,-1940.5"/>
<text text-anchor="middle" x="195.5" y="-1928.5" font-family="Helvetica,sans-Serif" font-size="10.00">Config</text>
</a>
</g>
</g>
<!-- Node0&#45;&gt;Node2 -->
<g id="edge2" class="edge">
<title>Node0&#45;&gt;Node2</title>
<path fill="none" stroke="#63b8ff" d="M36.61,-1008.77C37.49,-1136.55 45.13,-1842.75 107,-1913 122.89,-1931.04 151.61,-1933.83 171.81,-1933.23"/>
<polygon fill="#63b8ff" stroke="#63b8ff" points="40.11,-1008.51 36.54,-998.53 33.11,-1008.55 40.11,-1008.51"/>
</g>
<!-- Node3 -->
<g id="node4" class="node">
<title>Node3</title>
<g id="a_node4"><a xlink:href="struct_i_p_bans.html" target="_top" xlink:title=" ">
<polygon fill="white" stroke="#666666" points="220.5,-1903.5 170.5,-1903.5 170.5,-1884.5 220.5,-1884.5 220.5,-1903.5"/>
<text text-anchor="middle" x="195.5" y="-1891.5" font-family="Helvetica,sans-Serif" font-size="10.00">IPBans</text>
</a>
</g>
</g>
<!-- Node0&#45;&gt;Node3 -->
<g id="edge3" class="edge">
<title>Node0&#45;&gt;Node3</title>
<path fill="none" stroke="#63b8ff" d="M36.67,-1008.75C37.96,-1133.48 47.61,-1808.78 107,-1876 122.51,-1893.55 150.16,-1896.66 170.24,-1896.26"/>
<polygon fill="#63b8ff" stroke="#63b8ff" points="40.17,-1008.68 36.58,-998.72 33.17,-1008.75 40.17,-1008.68"/>
</g>
<!-- Node4 -->
<g id="node5" class="node">
<title>Node4</title>
<g id="a_node5"><a xlink:href="struct_login_id_bans.html" target="_top" xlink:title=" ">
<polygon fill="white" stroke="#666666" points="233.5,-1866.5 157.5,-1866.5 157.5,-1847.5 233.5,-1847.5 233.5,-1866.5"/>
<text text-anchor="middle" x="195.5" y="-1854.5" font-family="Helvetica,sans-Serif" font-size="10.00">LoginIdBans</text>
</a>
</g>
</g>
<!-- Node0&#45;&gt;Node4 -->
<g id="edge4" class="edge">
<title>Node0&#45;&gt;Node4</title>
<path fill="none" stroke="#63b8ff" d="M36.75,-1008.67C38.44,-1130.12 50.08,-1774.8 107,-1839 119.35,-1852.93 139.34,-1857.75 157.11,-1858.95"/>
<polygon fill="#63b8ff" stroke="#63b8ff" points="40.24,-1008.54 36.61,-998.59 33.24,-1008.63 40.24,-1008.54"/>
</g>
<!-- Node5 -->
<g id="node6" class="node">
<title>Node5</title>
<g id="a_node6"><a xlink:href="struct_plugins_1_1_arena_1_1_config.html" target="_top" xlink:title="Config data for this plugin.">
<polygon fill="white" stroke="#666666" points="257,-1829.5 134,-1829.5 134,-1810.5 257,-1810.5 257,-1829.5"/>
<text text-anchor="middle" x="195.5" y="-1817.5" font-family="Helvetica,sans-Serif" font-size="10.00">Plugins::Arena::Config</text>
</a>
</g>
</g>
<!-- Node0&#45;&gt;Node5 -->
<g id="edge5" class="edge">
<title>Node0&#45;&gt;Node5</title>
<path fill="none" stroke="#63b8ff" d="M36.83,-1008.91C38.97,-1127.8 52.6,-1740.86 107,-1802 114.01,-1809.88 123.47,-1814.84 133.58,-1817.88"/>
<polygon fill="#63b8ff" stroke="#63b8ff" points="40.32,-1008.65 36.65,-998.72 33.33,-1008.78 40.32,-1008.65"/>
</g>
<!-- Node6 -->
<g id="node7" class="node">
<title>Node6</title>
<g id="a_node7"><a xlink:href="struct_plugins_1_1_autobuy_1_1_config.html" target="_top" xlink:title="Configurable fields for this plugin.">
<polygon fill="white" stroke="#666666" points="262.5,-1792.5 128.5,-1792.5 128.5,-1773.5 262.5,-1773.5 262.5,-1792.5"/>
<text text-anchor="middle" x="195.5" y="-1780.5" font-family="Helvetica,sans-Serif" font-size="10.00">Plugins::Autobuy::Config</text>
</a>
</g>
</g>
<!-- Node0&#45;&gt;Node6 -->
<g id="edge6" class="edge">
<title>Node0&#45;&gt;Node6</title>
<path fill="none" stroke="#63b8ff" d="M36.92,-1008.68C39.56,-1123.67 55.42,-1705.65 107,-1764 112.77,-1770.52 120.2,-1775.1 128.29,-1778.27"/>
<polygon fill="#63b8ff" stroke="#63b8ff" points="40.42,-1008.44 36.7,-998.52 33.42,-1008.6 40.42,-1008.44"/>
</g>
<!-- Node7 -->
<g id="node8" class="node">
<title>Node7</title>
<g id="a_node8"><a xlink:href="struct_plugins_1_1_bounty_hunt_1_1_config.html" target="_top" xlink:title="Configurable fields for this plugin.">
<polygon fill="white" stroke="#666666" points="253.5,-1755 137.5,-1755 137.5,-1725 253.5,-1725 253.5,-1755"/>
<text text-anchor="start" x="145.5" y="-1743" font-family="Helvetica,sans-Serif" font-size="10.00">Plugins::BountyHunt</text>
<text text-anchor="middle" x="195.5" y="-1732" font-family="Helvetica,sans-Serif" font-size="10.00">::Config</text>
</a>
</g>
</g>
<!-- Node0&#45;&gt;Node7 -->
<g id="edge7" class="edge">
<title>Node0&#45;&gt;Node7</title>
<path fill="none" stroke="#63b8ff" d="M37.1,-1008.79C40.62,-1119.62 60.11,-1660.32 107,-1716 114.81,-1725.28 125.84,-1731.15 137.45,-1734.82"/>
<polygon fill="#63b8ff" stroke="#63b8ff" points="40.59,-1008.56 36.78,-998.68 33.6,-1008.78 40.59,-1008.56"/>
</g>
<!-- Node8 -->
<g id="node9" class="node">
<title>Node8</title>
<g id="a_node9"><a xlink:href="struct_plugins_1_1_cargo_drop_1_1_config.html" target="_top" xlink:title="Config data for this plugin.">
<polygon fill="white" stroke="#666666" points="250.5,-1707 140.5,-1707 140.5,-1677 250.5,-1677 250.5,-1707"/>
<text text-anchor="start" x="148.5" y="-1695" font-family="Helvetica,sans-Serif" font-size="10.00">Plugins::CargoDrop</text>
<text text-anchor="middle" x="195.5" y="-1684" font-family="Helvetica,sans-Serif" font-size="10.00">::Config</text>
</a>
</g>
</g>
<!-- Node0&#45;&gt;Node8 -->
<g id="edge8" class="edge">
<title>Node0&#45;&gt;Node8</title>
<path fill="none" stroke="#63b8ff" d="M37.24,-1008.8C41.39,-1115.21 63.18,-1616.32 107,-1668 115.46,-1677.97 127.63,-1684 140.21,-1687.59"/>
<polygon fill="#63b8ff" stroke="#63b8ff" points="40.74,-1008.64 36.86,-998.78 33.74,-1008.91 40.74,-1008.64"/>
</g>
<!-- Node9 -->
<g id="node10" class="node">
<title>Node9</title>
<g id="a_node10"><a xlink:href="struct_plugins_1_1_cash_manager_1_1_config.html" target="_top" xlink:title=" ">
<polygon fill="white" stroke="#666666" points="258,-1659 133,-1659 133,-1629 258,-1629 258,-1659"/>
<text text-anchor="start" x="141" y="-1647" font-family="Helvetica,sans-Serif" font-size="10.00">Plugins::CashManager</text>
<text text-anchor="middle" x="195.5" y="-1636" font-family="Helvetica,sans-Serif" font-size="10.00">::Config</text>
</a>
</g>
</g>
<!-- Node0&#45;&gt;Node9 -->
<g id="edge9" class="edge">
<title>Node0&#45;&gt;Node9</title>
<path fill="none" stroke="#63b8ff" d="M37.4,-1008.65C42.21,-1110.16 66.23,-1572.29 107,-1620 113.75,-1627.9 122.84,-1633.33 132.61,-1637.02"/>
<polygon fill="#63b8ff" stroke="#63b8ff" points="40.89,-1008.39 36.93,-998.56 33.9,-1008.72 40.89,-1008.39"/>
</g>
<!-- Node10 -->
<g id="node11" class="node">
<title>Node10</title>
<g id="a_node11"><a xlink:href="struct_plugins_1_1_con_data_1_1_config.html" target="_top" xlink:title=" ">
<polygon fill="white" stroke="#666666" points="264,-1610.5 127,-1610.5 127,-1591.5 264,-1591.5 264,-1610.5"/>
<text text-anchor="middle" x="195.5" y="-1598.5" font-family="Helvetica,sans-Serif" font-size="10.00">Plugins::ConData::Config</text>
</a>
</g>
</g>
<!-- Node0&#45;&gt;Node10 -->
<g id="edge10" class="edge">
<title>Node0&#45;&gt;Node10</title>
<path fill="none" stroke="#63b8ff" d="M37.52,-1009.04C42.71,-1107.66 67.51,-1538.55 107,-1582 112.44,-1587.98 119.27,-1592.32 126.72,-1595.43"/>
<polygon fill="#63b8ff" stroke="#63b8ff" points="41.01,-1008.74 36.99,-998.93 34.02,-1009.1 41.01,-1008.74"/>
</g>
<!-- Node11 -->
<g id="node12" class="node">
<title>Node11</title>
<g id="a_node12"><a xlink:href="struct_plugins_1_1_death_penalty_1_1_config.html" target="_top" xlink:title="Configurable fields for this plugin.">
<polygon fill="white" stroke="#666666" points="257.5,-1573 133.5,-1573 133.5,-1543 257.5,-1543 257.5,-1573"/>
<text text-anchor="start" x="141.5" y="-1561" font-family="Helvetica,sans-Serif" font-size="10.00">Plugins::DeathPenalty</text>
<text text-anchor="middle" x="195.5" y="-1550" font-family="Helvetica,sans-Serif" font-size="10.00">::Config</text>
</a>
</g>
</g>
<!-- Node0&#45;&gt;Node11 -->
<g id="edge11" class="edge">
<title>Node0&#45;&gt;Node11</title>
<path fill="none" stroke="#63b8ff" d="M36.24,-1008.7C35.49,-1096.75 36.89,-1453.39 107,-1534 113.93,-1541.96 123.22,-1547.4 133.17,-1551.09"/>
<polygon fill="#63b8ff" stroke="#63b8ff" points="39.74,-1008.55 36.35,-998.52 32.74,-1008.48 39.74,-1008.55"/>
</g>
<!-- Node12 -->
<g id="node13" class="node">
<title>Node12</title>
<g id="a_node13"><a xlink:href="struct_plugins_1_1_event_1_1_config.html" target="_top" xlink:title="Configurable fields for this plugin.">
<polygon fill="white" stroke="#666666" points="256.5,-1524.5 134.5,-1524.5 134.5,-1505.5 256.5,-1505.5 256.5,-1524.5"/>
<text text-anchor="middle" x="195.5" y="-1512.5" font-family="Helvetica,sans-Serif" font-size="10.00">Plugins::Event::Config</text>
</a>
</g>
</g>
<!-- Node0&#45;&gt;Node12 -->
<g id="edge12" class="edge">
<title>Node0&#45;&gt;Node12</title>
<path fill="none" stroke="#63b8ff" d="M36.35,-1008.75C36.14,-1093.26 39.71,-1423.41 107,-1496 114.29,-1503.87 124.01,-1508.87 134.32,-1511.99"/>
<polygon fill="#63b8ff" stroke="#63b8ff" points="39.85,-1008.72 36.4,-998.7 32.85,-1008.69 39.85,-1008.72"/>
</g>
<!-- Node13 -->
<g id="node14" class="node">
<title>Node13</title>
<g id="a_node14"><a xlink:href="struct_plugins_1_1_event_1_1_config_1_1_c_a_r_g_o___m_i_s_s_i_o_n___r_e_f_l_e_c_t_a_b_l_e.html" target="_top" xlink:title=" ">
<polygon fill="white" stroke="#666666" points="284,-1487 107,-1487 107,-1457 284,-1457 284,-1487"/>
<text text-anchor="start" x="115" y="-1475" font-family="Helvetica,sans-Serif" font-size="10.00">Plugins::Event::Config</text>
<text text-anchor="middle" x="195.5" y="-1464" font-family="Helvetica,sans-Serif" font-size="10.00">::CARGO_MISSION_REFLECTABLE</text>
</a>
</g>
</g>
<!-- Node0&#45;&gt;Node13 -->
<g id="edge13" class="edge">
<title>Node0&#45;&gt;Node13</title>
<path fill="none" stroke="#63b8ff" d="M36.77,-1008.53C38.24,-1087.41 47.71,-1381.44 107,-1448 110.04,-1451.41 113.51,-1454.36 117.28,-1456.9"/>
<polygon fill="#63b8ff" stroke="#63b8ff" points="40.27,-1008.45 36.6,-998.5 33.27,-1008.56 40.27,-1008.45"/>
</g>
<!-- Node14 -->
<g id="node15" class="node">
<title>Node14</title>
<g id="a_node15"><a xlink:href="struct_plugins_1_1_event_1_1_config_1_1_n_p_c___m_i_s_s_i_o_n___r_e_f_l_e_c_t_a_b_l_e.html" target="_top" xlink:title=" ">
<polygon fill="white" stroke="#666666" points="276.5,-1439 114.5,-1439 114.5,-1409 276.5,-1409 276.5,-1439"/>
<text text-anchor="start" x="122.5" y="-1427" font-family="Helvetica,sans-Serif" font-size="10.00">Plugins::Event::Config</text>
<text text-anchor="middle" x="195.5" y="-1416" font-family="Helvetica,sans-Serif" font-size="10.00">::NPC_MISSION_REFLECTABLE</text>
</a>
</g>
</g>
<!-- Node0&#45;&gt;Node14 -->
<g id="edge14" class="edge">
<title>Node0&#45;&gt;Node14</title>
<path fill="none" stroke="#63b8ff" d="M37.16,-1008.8C40.04,-1082.73 53.8,-1341.33 107,-1400 110.07,-1403.38 113.56,-1406.31 117.35,-1408.84"/>
<polygon fill="#63b8ff" stroke="#63b8ff" points="40.65,-1008.45 36.79,-998.58 33.66,-1008.7 40.65,-1008.45"/>
</g>
<!-- Node15 -->
<g id="node16" class="node">
<title>Node15</title>
<g id="a_node16"><a xlink:href="struct_plugins_1_1_kill_tracker_1_1_config.html" target="_top" xlink:title="Configurable fields for this plugin.">
<polygon fill="white" stroke="#666666" points="249.5,-1391 141.5,-1391 141.5,-1361 249.5,-1361 249.5,-1391"/>
<text text-anchor="start" x="149.5" y="-1379" font-family="Helvetica,sans-Serif" font-size="10.00">Plugins::KillTracker</text>
<text text-anchor="middle" x="195.5" y="-1368" font-family="Helvetica,sans-Serif" font-size="10.00">::Config</text>
</a>
</g>
</g>
<!-- Node0&#45;&gt;Node15 -->
<g id="edge15" class="edge">
<title>Node0&#45;&gt;Node15</title>
<path fill="none" stroke="#63b8ff" d="M37.67,-1009.09C42.08,-1077.68 59.87,-1301.15 107,-1352 115.99,-1361.7 128.51,-1367.62 141.26,-1371.2"/>
<polygon fill="#63b8ff" stroke="#63b8ff" points="41.15,-1008.57 37.04,-998.8 34.16,-1009 41.15,-1008.57"/>
</g>
<!-- Node16 -->
<g id="node17" class="node">
<title>Node16</title>
<g id="a_node17"><a xlink:href="struct_plugins_1_1_kill_tracker_1_1_kill_message.html" target="_top" xlink:title="Struct to hold the Kill Streaks.">
<polygon fill="white" stroke="#666666" points="249.5,-1343 141.5,-1343 141.5,-1313 249.5,-1313 249.5,-1343"/>
<text text-anchor="start" x="149.5" y="-1331" font-family="Helvetica,sans-Serif" font-size="10.00">Plugins::KillTracker</text>
<text text-anchor="middle" x="195.5" y="-1320" font-family="Helvetica,sans-Serif" font-size="10.00">::KillMessage</text>
</a>
</g>
</g>
<!-- Node0&#45;&gt;Node16 -->
<g id="edge16" class="edge">
<title>Node0&#45;&gt;Node16</title>
<path fill="none" stroke="#63b8ff" d="M38.29,-1008.82C44.31,-1071.02 65.77,-1260.76 107,-1304 116.13,-1313.58 128.69,-1319.45 141.45,-1323.02"/>
<polygon fill="#63b8ff" stroke="#63b8ff" points="41.77,-1008.38 37.35,-998.75 34.8,-1009.04 41.77,-1008.38"/>
</g>
<!-- Node17 -->
<g id="node18" class="node">
<title>Node17</title>
<g id="a_node18"><a xlink:href="struct_plugins_1_1_light_control_1_1_config.html" target="_top" xlink:title="Config data for this plugin.">
<polygon fill="white" stroke="#666666" points="254,-1295 137,-1295 137,-1265 254,-1265 254,-1295"/>
<text text-anchor="start" x="145" y="-1283" font-family="Helvetica,sans-Serif" font-size="10.00">Plugins::LightControl</text>
<text text-anchor="middle" x="195.5" y="-1272" font-family="Helvetica,sans-Serif" font-size="10.00">::Config</text>
</a>
</g>
</g>
<!-- Node0&#45;&gt;Node17 -->
<g id="edge17" class="edge">
<title>Node0&#45;&gt;Node17</title>
<path fill="none" stroke="#63b8ff" d="M39.13,-1008.65C46.93,-1064.13 71.65,-1220.31 107,-1256 115.09,-1264.17 125.68,-1269.63 136.69,-1273.27"/>
<polygon fill="#63b8ff" stroke="#63b8ff" points="42.59,-1008.11 37.76,-998.68 35.65,-1009.07 42.59,-1008.11"/>
</g>
<!-- Node18 -->
<g id="node19" class="node">
<title>Node18</title>
<g id="a_node19"><a xlink:href="struct_plugins_1_1_loot_tables_1_1_config.html" target="_top" xlink:title=" ">
<polygon fill="white" stroke="#666666" points="250.5,-1247 140.5,-1247 140.5,-1217 250.5,-1217 250.5,-1247"/>
<text text-anchor="start" x="148.5" y="-1235" font-family="Helvetica,sans-Serif" font-size="10.00">Plugins::LootTables</text>
<text text-anchor="middle" x="195.5" y="-1224" font-family="Helvetica,sans-Serif" font-size="10.00">::Config</text>
</a>
</g>
</g>
<!-- Node0&#45;&gt;Node18 -->
<g id="edge18" class="edge">
<title>Node0&#45;&gt;Node18</title>
<path fill="none" stroke="#63b8ff" d="M36.9,-1008.71C38.85,-1051.42 49.64,-1153.1 107,-1208 116.1,-1216.71 128.06,-1222.33 140.2,-1225.92"/>
<polygon fill="#63b8ff" stroke="#63b8ff" points="40.39,-1008.4 36.55,-998.53 33.39,-1008.64 40.39,-1008.4"/>
</g>
<!-- Node19 -->
<g id="node20" class="node">
<title>Node19</title>
<g id="a_node20"><a xlink:href="struct_plugins_1_1_loot_tables_1_1_drop_weight.html" target="_top" xlink:title=" ">
<polygon fill="white" stroke="#666666" points="250.5,-1199 140.5,-1199 140.5,-1169 250.5,-1169 250.5,-1199"/>
<text text-anchor="start" x="148.5" y="-1187" font-family="Helvetica,sans-Serif" font-size="10.00">Plugins::LootTables</text>
<text text-anchor="middle" x="195.5" y="-1176" font-family="Helvetica,sans-Serif" font-size="10.00">::DropWeight</text>
</a>
</g>
</g>
<!-- Node0&#45;&gt;Node19 -->
<g id="edge19" class="edge">
<title>Node0&#45;&gt;Node19</title>
<path fill="none" stroke="#63b8ff" d="M38.99,-1008.96C44.52,-1044.66 61.19,-1119.52 107,-1160 116.32,-1168.24 128.23,-1173.68 140.23,-1177.26"/>
<polygon fill="#63b8ff" stroke="#63b8ff" points="42.43,-1008.25 37.56,-998.83 35.49,-1009.23 42.43,-1008.25"/>
</g>
<!-- Node20 -->
<g id="node21" class="node">
<title>Node20</title>
<g id="a_node21"><a xlink:href="struct_plugins_1_1_loot_tables_1_1_loot_table.html" target="_top" xlink:title=" ">
<polygon fill="white" stroke="#666666" points="250.5,-1151 140.5,-1151 140.5,-1121 250.5,-1121 250.5,-1151"/>
<text text-anchor="start" x="148.5" y="-1139" font-family="Helvetica,sans-Serif" font-size="10.00">Plugins::LootTables</text>
<text text-anchor="middle" x="195.5" y="-1128" font-family="Helvetica,sans-Serif" font-size="10.00">::LootTable</text>
</a>
</g>
</g>
<!-- Node0&#45;&gt;Node20 -->
<g id="edge20" class="edge">
<title>Node0&#45;&gt;Node20</title>
<path fill="none" stroke="#63b8ff" d="M42.31,-1008.27C51.53,-1035.52 72.13,-1084.99 107,-1112 116.59,-1119.43 128.33,-1124.56 140.05,-1128.1"/>
<polygon fill="#63b8ff" stroke="#63b8ff" points="45.63,-1007.15 39.23,-998.7 38.96,-1009.29 45.63,-1007.15"/>
</g>
<!-- Node21 -->
<g id="node22" class="node">
<title>Node21</title>
<g id="a_node22"><a xlink:href="struct_plugins_1_1_mark_1_1_config.html" target="_top" xlink:title=" ">
<polygon fill="white" stroke="#666666" points="255,-1102.5 136,-1102.5 136,-1083.5 255,-1083.5 255,-1102.5"/>
<text text-anchor="middle" x="195.5" y="-1090.5" font-family="Helvetica,sans-Serif" font-size="10.00">Plugins::Mark::Config</text>
</a>
</g>
</g>
<!-- Node0&#45;&gt;Node21 -->
<g id="edge21" class="edge">
<title>Node0&#45;&gt;Node21</title>
<path fill="none" stroke="#63b8ff" d="M46.37,-1007.32C58.11,-1027.24 79.59,-1058.44 107,-1075 115.76,-1080.29 125.82,-1084.05 135.93,-1086.72"/>
<polygon fill="#63b8ff" stroke="#63b8ff" points="49.39,-1005.54 41.41,-998.56 43.29,-1008.99 49.39,-1005.54"/>
</g>
<!-- Node22 -->
<g id="node23" class="node">
<title>Node22</title>
<g id="a_node23"><a xlink:href="struct_plugins_1_1_message_1_1_config.html" target="_top" xlink:title="Config data for this plugin.">
<polygon fill="white" stroke="#666666" points="264.5,-1065.5 126.5,-1065.5 126.5,-1046.5 264.5,-1046.5 264.5,-1065.5"/>
<text text-anchor="middle" x="195.5" y="-1053.5" font-family="Helvetica,sans-Serif" font-size="10.00">Plugins::Message::Config</text>
</a>
</g>
</g>
<!-- Node0&#45;&gt;Node22 -->
<g id="edge22" class="edge">
<title>Node0&#45;&gt;Node22</title>
<path fill="none" stroke="#63b8ff" d="M55.72,-1005.09C69.26,-1015.65 88.25,-1028.94 107,-1037 116,-1040.87 125.87,-1043.98 135.63,-1046.48"/>
<polygon fill="#63b8ff" stroke="#63b8ff" points="57.65,-1002.16 47.66,-998.64 53.27,-1007.62 57.65,-1002.16"/>
</g>
<!-- Node23 -->
<g id="node24" class="node">
<title>Node23</title>
<g id="a_node24"><a xlink:href="struct_plugins_1_1_mining_control_1_1_config.html" target="_top" xlink:title="Config data for this plugin.">
<polygon fill="white" stroke="#666666" points="258.5,-1028 132.5,-1028 132.5,-998 258.5,-998 258.5,-1028"/>
<text text-anchor="start" x="140.5" y="-1016" font-family="Helvetica,sans-Serif" font-size="10.00">Plugins::MiningControl</text>
<text text-anchor="middle" x="195.5" y="-1005" font-family="Helvetica,sans-Serif" font-size="10.00">::Config</text>
</a>
</g>
</g>
<!-- Node0&#45;&gt;Node23 -->
<g id="edge23" class="edge">
<title>Node0&#45;&gt;Node23</title>
<path fill="none" stroke="#63b8ff" d="M81.22,-995.79C97.06,-998.2 115.18,-1000.95 132.22,-1003.54"/>
<polygon fill="#63b8ff" stroke="#63b8ff" points="81.59,-992.31 71.17,-994.27 80.53,-999.23 81.59,-992.31"/>
</g>
<!-- Node24 -->
<g id="node25" class="node">
<title>Node24</title>
<g id="a_node25"><a xlink:href="struct_plugins_1_1_mining_control_1_1_mining_stats.html" target="_top" xlink:title="A struct to load in the stats config file across restarts.">
<polygon fill="white" stroke="#666666" points="258.5,-980 132.5,-980 132.5,-950 258.5,-950 258.5,-980"/>
<text text-anchor="start" x="140.5" y="-968" font-family="Helvetica,sans-Serif" font-size="10.00">Plugins::MiningControl</text>
<text text-anchor="middle" x="195.5" y="-957" font-family="Helvetica,sans-Serif" font-size="10.00">::MiningStats</text>
</a>
</g>
</g>
<!-- Node0&#45;&gt;Node24 -->
<g id="edge24" class="edge">
<title>Node0&#45;&gt;Node24</title>
<path fill="none" stroke="#63b8ff" d="M81.22,-982.21C97.06,-979.8 115.18,-977.05 132.22,-974.46"/>
<polygon fill="#63b8ff" stroke="#63b8ff" points="80.53,-978.77 71.17,-983.73 81.59,-985.69 80.53,-978.77"/>
</g>
<!-- Node25 -->
<g id="node26" class="node">
<title>Node25</title>
<g id="a_node26"><a xlink:href="struct_plugins_1_1_mining_control_1_1_player_bonus.html" target="_top" xlink:title="A struct that defines a mining bonus to a player if they meet certain criteria.">
<polygon fill="white" stroke="#666666" points="258.5,-932 132.5,-932 132.5,-902 258.5,-902 258.5,-932"/>
<text text-anchor="start" x="140.5" y="-920" font-family="Helvetica,sans-Serif" font-size="10.00">Plugins::MiningControl</text>
<text text-anchor="middle" x="195.5" y="-909" font-family="Helvetica,sans-Serif" font-size="10.00">::PlayerBonus</text>
</a>
</g>
</g>
<!-- Node0&#45;&gt;Node25 -->
<g id="edge25" class="edge">
<title>Node0&#45;&gt;Node25</title>
<path fill="none" stroke="#63b8ff" d="M56.35,-972.85C69.92,-962.5 88.7,-949.46 107,-941 115.01,-937.3 123.7,-934.07 132.39,-931.28"/>
<polygon fill="#63b8ff" stroke="#63b8ff" points="53.96,-970.28 48.24,-979.2 58.27,-975.79 53.96,-970.28"/>
</g>
<!-- Node26 -->
<g id="node27" class="node">
<title>Node26</title>
<g id="a_node27"><a xlink:href="struct_plugins_1_1_mining_control_1_1_zone_bonus.html" target="_top" xlink:title="A struct that defines a mining bonus for a certain zone in space.">
<polygon fill="white" stroke="#666666" points="258.5,-884 132.5,-884 132.5,-854 258.5,-854 258.5,-884"/>
<text text-anchor="start" x="140.5" y="-872" font-family="Helvetica,sans-Serif" font-size="10.00">Plugins::MiningControl</text>
<text text-anchor="middle" x="195.5" y="-861" font-family="Helvetica,sans-Serif" font-size="10.00">::ZoneBonus</text>
</a>
</g>
</g>
<!-- Node0&#45;&gt;Node26 -->
<g id="edge26" class="edge">
<title>Node0&#45;&gt;Node26</title>
<path fill="none" stroke="#63b8ff" d="M45.38,-970.21C56.65,-948.38 78.17,-912.83 107,-893 114.66,-887.73 123.43,-883.62 132.4,-880.41"/>
<polygon fill="#63b8ff" stroke="#63b8ff" points="42.11,-968.92 40.8,-979.44 48.38,-972.03 42.11,-968.92"/>
</g>
<!-- Node27 -->
<g id="node28" class="node">
<title>Node27</title>
<g id="a_node28"><a xlink:href="struct_plugins_1_1_mining_control_1_1_zone_stats.html" target="_top" xlink:title="A struct to hold the current status of a zone so their progress persists across restarts.">
<polygon fill="white" stroke="#666666" points="258.5,-836 132.5,-836 132.5,-806 258.5,-806 258.5,-836"/>
<text text-anchor="start" x="140.5" y="-824" font-family="Helvetica,sans-Serif" font-size="10.00">Plugins::MiningControl</text>
<text text-anchor="middle" x="195.5" y="-813" font-family="Helvetica,sans-Serif" font-size="10.00">::ZoneStats</text>
</a>
</g>
</g>
<!-- Node0&#45;&gt;Node27 -->
<g id="edge27" class="edge">
<title>Node0&#45;&gt;Node27</title>
<path fill="none" stroke="#63b8ff" d="M40.69,-969.17C48.32,-938 67.47,-877.73 107,-845 114.4,-838.87 123.24,-834.3 132.42,-830.89"/>
<polygon fill="#63b8ff" stroke="#63b8ff" points="37.2,-968.7 38.38,-979.23 44.03,-970.27 37.2,-968.7"/>
</g>
<!-- Node28 -->
<g id="node29" class="node">
<title>Node28</title>
<g id="a_node29"><a xlink:href="struct_plugins_1_1_misc_commands_1_1_config.html" target="_top" xlink:title="Config data for this plugin.">
<polygon fill="white" stroke="#666666" points="263.5,-788 127.5,-788 127.5,-758 263.5,-758 263.5,-788"/>
<text text-anchor="start" x="135.5" y="-776" font-family="Helvetica,sans-Serif" font-size="10.00">Plugins::MiscCommands</text>
<text text-anchor="middle" x="195.5" y="-765" font-family="Helvetica,sans-Serif" font-size="10.00">::Config</text>
</a>
</g>
</g>
<!-- Node0&#45;&gt;Node28 -->
<g id="edge28" class="edge">
<title>Node0&#45;&gt;Node28</title>
<path fill="none" stroke="#63b8ff" d="M37.93,-969.34C41.83,-930.53 56.08,-843.8 107,-797 112.91,-791.56 119.95,-787.34 127.41,-784.06"/>
<polygon fill="#63b8ff" stroke="#63b8ff" points="34.44,-969.08 37.05,-979.34 41.41,-969.69 34.44,-969.08"/>
</g>
<!-- Node29 -->
<g id="node30" class="node">
<title>Node29</title>
<g id="a_node30"><a xlink:href="struct_plugins_1_1_n_p_c_spin_protection_1_1_config.html" target="_top" xlink:title="Config data for this plugin.">
<polygon fill="white" stroke="#666666" points="270,-740 121,-740 121,-710 270,-710 270,-740"/>
<text text-anchor="start" x="129" y="-728" font-family="Helvetica,sans-Serif" font-size="10.00">Plugins::NPCSpinProtection</text>
<text text-anchor="middle" x="195.5" y="-717" font-family="Helvetica,sans-Serif" font-size="10.00">::Config</text>
</a>
</g>
</g>
<!-- Node0&#45;&gt;Node29 -->
<g id="edge29" class="edge">
<title>Node0&#45;&gt;Node29</title>
<path fill="none" stroke="#63b8ff" d="M36.24,-968.97C36.78,-923.2 44.73,-810.15 107,-749 111.05,-745.03 115.68,-741.7 120.67,-738.91"/>
<polygon fill="#63b8ff" stroke="#63b8ff" points="32.74,-969.09 36.23,-979.09 39.74,-969.09 32.74,-969.09"/>
</g>
<!-- Node30 -->
<g id="node31" class="node">
<title>Node30</title>
<g id="a_node31"><a xlink:href="struct_plugins_1_1_npc_1_1_config.html" target="_top" xlink:title="Config data for this plugin.">
<polygon fill="white" stroke="#666666" points="252,-691.5 139,-691.5 139,-672.5 252,-672.5 252,-691.5"/>
<text text-anchor="middle" x="195.5" y="-679.5" font-family="Helvetica,sans-Serif" font-size="10.00">Plugins::Npc::Config</text>
</a>
</g>
</g>
<!-- Node0&#45;&gt;Node30 -->
<g id="edge30" class="edge">
<title>Node0&#45;&gt;Node30</title>
<path fill="none" stroke="#63b8ff" d="M38.62,-969.28C45.34,-910.63 68.02,-738.97 107,-701 115.57,-692.65 126.91,-687.6 138.56,-684.63"/>
<polygon fill="#63b8ff" stroke="#63b8ff" points="35.12,-969.11 37.49,-979.43 42.08,-969.88 35.12,-969.11"/>
</g>
<!-- Node31 -->
<g id="node32" class="node">
<title>Node31</title>
<g id="a_node32"><a xlink:href="struct_plugins_1_1_npc_1_1_fleet.html" target="_top" xlink:title=" ">
<polygon fill="white" stroke="#666666" points="249,-654.5 142,-654.5 142,-635.5 249,-635.5 249,-654.5"/>
<text text-anchor="middle" x="195.5" y="-642.5" font-family="Helvetica,sans-Serif" font-size="10.00">Plugins::Npc::Fleet</text>
</a>
</g>
</g>
<!-- Node0&#45;&gt;Node31 -->
<g id="edge31" class="edge">
<title>Node0&#45;&gt;Node31</title>
<path fill="none" stroke="#63b8ff" d="M38.07,-968.89C43.46,-904.89 63.38,-707.63 107,-664 116.23,-654.77 128.83,-649.55 141.58,-646.7"/>
<polygon fill="#63b8ff" stroke="#63b8ff" points="34.55,-968.97 37.23,-979.22 41.52,-969.53 34.55,-968.97"/>
</g>
<!-- Node32 -->
<g id="node33" class="node">
<title>Node32</title>
<g id="a_node33"><a xlink:href="struct_plugins_1_1_npc_1_1_npc.html" target="_top" xlink:title="A struct that represents an npc that can be spawned.">
<polygon fill="white" stroke="#666666" points="246,-617.5 145,-617.5 145,-598.5 246,-598.5 246,-617.5"/>
<text text-anchor="middle" x="195.5" y="-605.5" font-family="Helvetica,sans-Serif" font-size="10.00">Plugins::Npc::Npc</text>
</a>
</g>
</g>
<!-- Node0&#45;&gt;Node32 -->
<g id="edge32" class="edge">
<title>Node0&#45;&gt;Node32</title>
<path fill="none" stroke="#63b8ff" d="M37.58,-968.87C41.69,-900.16 58.63,-676.42 107,-627 116.89,-616.89 130.81,-611.57 144.64,-608.91"/>
<polygon fill="#63b8ff" stroke="#63b8ff" points="34.07,-968.99 36.99,-979.18 41.06,-969.39 34.07,-968.99"/>
</g>
<!-- Node33 -->
<g id="node34" class="node">
<title>Node33</title>
<g id="a_node34"><a xlink:href="struct_plugins_1_1_npc_1_1_startup_npc.html" target="_top" xlink:title=" ">
<polygon fill="white" stroke="#666666" points="264,-580.5 127,-580.5 127,-561.5 264,-561.5 264,-580.5"/>
<text text-anchor="middle" x="195.5" y="-568.5" font-family="Helvetica,sans-Serif" font-size="10.00">Plugins::Npc::StartupNpc</text>
</a>
</g>
</g>
<!-- Node0&#45;&gt;Node33 -->
<g id="edge33" class="edge">
<title>Node0&#45;&gt;Node33</title>
<path fill="none" stroke="#63b8ff" d="M37.17,-969.21C40.06,-896.48 53.77,-645.34 107,-590 112.5,-584.29 119.27,-580.09 126.61,-577.05"/>
<polygon fill="#63b8ff" stroke="#63b8ff" points="33.67,-969.17 36.8,-979.29 40.67,-969.43 33.67,-969.17"/>
</g>
<!-- Node34 -->
<g id="node35" class="node">
<title>Node34</title>
<g id="a_node35"><a xlink:href="struct_plugins_1_1_purchase_restrictions_1_1_config.html" target="_top" xlink:title="Config data for this plugin.">
<polygon fill="white" stroke="#666666" points="275.5,-543 115.5,-543 115.5,-513 275.5,-513 275.5,-543"/>
<text text-anchor="start" x="123.5" y="-531" font-family="Helvetica,sans-Serif" font-size="10.00">Plugins::PurchaseRestrictions</text>
<text text-anchor="middle" x="195.5" y="-520" font-family="Helvetica,sans-Serif" font-size="10.00">::Config</text>
</a>
</g>
</g>
<!-- Node0&#45;&gt;Node34 -->
<g id="edge34" class="edge">
<title>Node0&#45;&gt;Node34</title>
<path fill="none" stroke="#63b8ff" d="M36.98,-969.01C39.21,-892.03 51.05,-615.97 107,-553 110.36,-549.22 114.24,-546 118.47,-543.24"/>
<polygon fill="#63b8ff" stroke="#63b8ff" points="33.47,-969.14 36.7,-979.23 40.47,-969.33 33.47,-969.14"/>
</g>
<!-- Node35 -->
<g id="node36" class="node">
<title>Node35</title>
<g id="a_node36"><a xlink:href="struct_plugins_1_1_rename_1_1_config.html" target="_top" xlink:title="Config data for this plugin.">
<polygon fill="white" stroke="#666666" points="263,-494.5 128,-494.5 128,-475.5 263,-475.5 263,-494.5"/>
<text text-anchor="middle" x="195.5" y="-482.5" font-family="Helvetica,sans-Serif" font-size="10.00">Plugins::Rename::Config</text>
</a>
</g>
</g>
<!-- Node0&#45;&gt;Node35 -->
<g id="edge35" class="edge">
<title>Node0&#45;&gt;Node35</title>
<path fill="none" stroke="#63b8ff" d="M36.49,-969.07C36.88,-886.59 42.63,-573.01 107,-504 112.73,-497.86 119.93,-493.47 127.73,-490.36"/>
<polygon fill="#63b8ff" stroke="#63b8ff" points="32.99,-969.31 36.47,-979.32 39.99,-969.33 32.99,-969.31"/>
</g>
<!-- Node36 -->
<g id="node37" class="node">
<title>Node36</title>
<g id="a_node37"><a xlink:href="struct_plugins_1_1_rename_1_1_tag_data.html" target="_top" xlink:title="Struct to hold a clan/group tag. This contains the passwords used to manage and rename a character to...">
<polygon fill="white" stroke="#666666" points="267.5,-457.5 123.5,-457.5 123.5,-438.5 267.5,-438.5 267.5,-457.5"/>
<text text-anchor="middle" x="195.5" y="-445.5" font-family="Helvetica,sans-Serif" font-size="10.00">Plugins::Rename::TagData</text>
</a>
</g>
</g>
<!-- Node0&#45;&gt;Node36 -->
<g id="edge36" class="edge">
<title>Node0&#45;&gt;Node36</title>
<path fill="none" stroke="#63b8ff" d="M36.27,-969.23C35.67,-883.14 37.75,-541.99 107,-467 111.64,-461.97 117.27,-458.12 123.41,-455.17"/>
<polygon fill="#63b8ff" stroke="#63b8ff" points="32.77,-969.46 36.36,-979.43 39.77,-969.4 32.77,-969.46"/>
</g>
<!-- Node37 -->
<g id="node38" class="node">
<title>Node37</title>
<g id="a_node38"><a xlink:href="struct_plugins_1_1_rename_1_1_tag_list.html" target="_top" xlink:title="A struct to hold all the tags.">
<polygon fill="white" stroke="#666666" points="264.5,-420.5 126.5,-420.5 126.5,-401.5 264.5,-401.5 264.5,-420.5"/>
<text text-anchor="middle" x="195.5" y="-408.5" font-family="Helvetica,sans-Serif" font-size="10.00">Plugins::Rename::TagList</text>
</a>
</g>
</g>
<!-- Node0&#45;&gt;Node37 -->
<g id="edge37" class="edge">
<title>Node0&#45;&gt;Node37</title>
<path fill="none" stroke="#63b8ff" d="M36.07,-968.98C34.53,-878.76 32.97,-510.88 107,-430 112.35,-424.15 119.05,-419.88 126.33,-416.79"/>
<polygon fill="#63b8ff" stroke="#63b8ff" points="32.57,-969.26 36.26,-979.19 39.57,-969.13 32.57,-969.26"/>
</g>
<!-- Node38 -->
<g id="node39" class="node">
<title>Node38</title>
<g id="a_node39"><a xlink:href="struct_plugins_1_1_restart_1_1_config.html" target="_top" xlink:title="Config data for this plugin.">
<polygon fill="white" stroke="#666666" points="260.5,-383.5 130.5,-383.5 130.5,-364.5 260.5,-364.5 260.5,-383.5"/>
<text text-anchor="middle" x="195.5" y="-371.5" font-family="Helvetica,sans-Serif" font-size="10.00">Plugins::Restart::Config</text>
</a>
</g>
</g>
<!-- Node0&#45;&gt;Node38 -->
<g id="edge38" class="edge">
<title>Node0&#45;&gt;Node38</title>
<path fill="none" stroke="#63b8ff" d="M37.48,-969.49C42.56,-871.58 67.24,-436.77 107,-393 113.27,-386.1 121.41,-381.38 130.19,-378.22"/>
<polygon fill="#63b8ff" stroke="#63b8ff" points="33.98,-969.32 36.97,-979.49 40.97,-969.68 33.98,-969.32"/>
</g>
<!-- Node39 -->
<g id="node40" class="node">
<title>Node39</title>
<g id="a_node40"><a xlink:href="struct_plugins_1_1_sound_manager_1_1_config.html" target="_top" xlink:title="Config data for this plugin.">
<polygon fill="white" stroke="#666666" points="261,-346 130,-346 130,-316 261,-316 261,-346"/>
<text text-anchor="start" x="138" y="-334" font-family="Helvetica,sans-Serif" font-size="10.00">Plugins::SoundManager</text>
<text text-anchor="middle" x="195.5" y="-323" font-family="Helvetica,sans-Serif" font-size="10.00">::Config</text>
</a>
</g>
</g>
<!-- Node0&#45;&gt;Node39 -->
<g id="edge39" class="edge">
<title>Node0&#45;&gt;Node39</title>
<path fill="none" stroke="#63b8ff" d="M37.4,-969.3C42.24,-867.51 66.36,-404.08 107,-356 113.12,-348.76 121.18,-343.54 129.93,-339.79"/>
<polygon fill="#63b8ff" stroke="#63b8ff" points="33.9,-969.26 36.93,-979.41 40.89,-969.58 33.9,-969.26"/>
</g>
<!-- Node40 -->
<g id="node41" class="node">
<title>Node40</title>
<g id="a_node41"><a xlink:href="struct_plugins_1_1_stats_1_1_file_name.html" target="_top" xlink:title="Reflectable struct that contains the file path of the config file as well as the file to export stats...">
<polygon fill="white" stroke="#666666" points="263,-297.5 128,-297.5 128,-278.5 263,-278.5 263,-297.5"/>
<text text-anchor="middle" x="195.5" y="-285.5" font-family="Helvetica,sans-Serif" font-size="10.00">Plugins::Stats::FileName</text>
</a>
</g>
</g>
<!-- Node0&#45;&gt;Node40 -->
<g id="edge40" class="edge">
<title>Node0&#45;&gt;Node40</title>
<path fill="none" stroke="#63b8ff" d="M37.19,-969.07C41.06,-861.97 61.62,-357.71 107,-307 112.7,-300.63 119.99,-296.12 127.93,-292.96"/>
<polygon fill="#63b8ff" stroke="#63b8ff" points="33.69,-969.04 36.83,-979.16 40.68,-969.29 33.69,-969.04"/>
</g>
<!-- Node41 -->
<g id="node42" class="node">
<title>Node41</title>
<g id="a_node42"><a xlink:href="struct_plugins_1_1_system_sensor_1_1_config.html" target="_top" xlink:title=" ">
<polygon fill="white" stroke="#666666" points="259.5,-260 131.5,-260 131.5,-230 259.5,-230 259.5,-260"/>
<text text-anchor="start" x="139.5" y="-248" font-family="Helvetica,sans-Serif" font-size="10.00">Plugins::SystemSensor</text>
<text text-anchor="middle" x="195.5" y="-237" font-family="Helvetica,sans-Serif" font-size="10.00">::Config</text>
</a>
</g>
</g>
<!-- Node0&#45;&gt;Node41 -->
<g id="edge41" class="edge">
<title>Node0&#45;&gt;Node41</title>
<path fill="none" stroke="#63b8ff" d="M37.12,-969.44C40.78,-859.87 60.88,-325.3 107,-270 113.37,-262.36 121.91,-256.96 131.16,-253.17"/>
<polygon fill="#63b8ff" stroke="#63b8ff" points="33.62,-969.32 36.8,-979.43 40.62,-969.55 33.62,-969.32"/>
</g>
<!-- Node42 -->
<g id="node43" class="node">
<title>Node42</title>
<g id="a_node43"><a xlink:href="struct_plugins_1_1_system_sensor_1_1_reflectable_sensor.html" target="_top" xlink:title=" ">
<polygon fill="white" stroke="#666666" points="259.5,-212 131.5,-212 131.5,-182 259.5,-182 259.5,-212"/>
<text text-anchor="start" x="139.5" y="-200" font-family="Helvetica,sans-Serif" font-size="10.00">Plugins::SystemSensor</text>
<text text-anchor="middle" x="195.5" y="-189" font-family="Helvetica,sans-Serif" font-size="10.00">::ReflectableSensor</text>
</a>
</g>
</g>
<!-- Node0&#45;&gt;Node42 -->
<g id="edge42" class="edge">
<title>Node0&#45;&gt;Node42</title>
<path fill="none" stroke="#63b8ff" d="M36.99,-969.18C40,-854.6 57.49,-280.1 107,-221 113.37,-213.39 121.91,-208.08 131.16,-204.38"/>
<polygon fill="#63b8ff" stroke="#63b8ff" points="33.49,-969.23 36.73,-979.32 40.49,-969.41 33.49,-969.23"/>
</g>
<!-- Node43 -->
<g id="node44" class="node">
<title>Node43</title>
<g id="a_node44"><a xlink:href="struct_plugins_1_1_tax_1_1_config.html" target="_top" xlink:title="Configurable fields for this plugin.">
<polygon fill="white" stroke="#666666" points="251,-163.5 140,-163.5 140,-144.5 251,-144.5 251,-163.5"/>
<text text-anchor="middle" x="195.5" y="-151.5" font-family="Helvetica,sans-Serif" font-size="10.00">Plugins::Tax::Config</text>
</a>
</g>
</g>
<!-- Node0&#45;&gt;Node43 -->
<g id="edge43" class="edge">
<title>Node0&#45;&gt;Node43</title>
<path fill="none" stroke="#63b8ff" d="M36.83,-969.02C39,-849.75 52.74,-234.67 107,-173 115.42,-163.43 127.42,-158.04 139.85,-155.14"/>
<polygon fill="#63b8ff" stroke="#63b8ff" points="33.33,-969.19 36.65,-979.25 40.33,-969.31 33.33,-969.19"/>
</g>
<!-- Node44 -->
<g id="node45" class="node">
<title>Node44</title>
<g id="a_node45"><a xlink:href="struct_plugins_1_1_template_1_1_config.html" target="_top" xlink:title=" ">
<polygon fill="white" stroke="#666666" points="250,-126 141,-126 141,-96 250,-96 250,-126"/>
<text text-anchor="start" x="149" y="-114" font-family="Helvetica,sans-Serif" font-size="10.00">Plugins::Template::</text>
<text text-anchor="middle" x="195.5" y="-103" font-family="Helvetica,sans-Serif" font-size="10.00">Config</text>
</a>
</g>
</g>
<!-- Node0&#45;&gt;Node44 -->
<g id="edge44" class="edge">
<title>Node0&#45;&gt;Node44</title>
<path fill="none" stroke="#63b8ff" d="M36.81,-969.32C38.87,-847.79 52.36,-202.54 107,-136 115.52,-125.62 128.03,-119.38 140.94,-115.67"/>
<polygon fill="#63b8ff" stroke="#63b8ff" points="33.31,-969.35 36.64,-979.4 40.3,-969.46 33.31,-969.35"/>
</g>
<!-- Node45 -->
<g id="node46" class="node">
<title>Node45</title>
<g id="a_node46"><a xlink:href="struct_plugins_1_1_wardrobe_1_1_config.html" target="_top" xlink:title="Config data for this plugin.">
<polygon fill="white" stroke="#666666" points="250.5,-78 140.5,-78 140.5,-48 250.5,-48 250.5,-78"/>
<text text-anchor="start" x="148.5" y="-66" font-family="Helvetica,sans-Serif" font-size="10.00">Plugins::Wardrobe::</text>
<text text-anchor="middle" x="195.5" y="-55" font-family="Helvetica,sans-Serif" font-size="10.00">Config</text>
</a>
</g>
</g>
<!-- Node0&#45;&gt;Node45 -->
<g id="edge45" class="edge">
<title>Node0&#45;&gt;Node45</title>
<path fill="none" stroke="#63b8ff" d="M36.7,-969.36C38.17,-843.87 48.85,-157.38 107,-87 115.43,-76.8 127.75,-70.71 140.49,-67.13"/>
<polygon fill="#63b8ff" stroke="#63b8ff" points="33.2,-969.4 36.59,-979.44 40.2,-969.48 33.2,-969.4"/>
</g>
<!-- Node46 -->
<g id="node47" class="node">
<title>Node46</title>
<g id="a_node47"><a xlink:href="struct_plugins_1_1_warehouse_1_1_config.html" target="_top" xlink:title=" ">
<polygon fill="white" stroke="#666666" points="251.5,-30 139.5,-30 139.5,0 251.5,0 251.5,-30"/>
<text text-anchor="start" x="147.5" y="-18" font-family="Helvetica,sans-Serif" font-size="10.00">Plugins::Warehouse</text>
<text text-anchor="middle" x="195.5" y="-7" font-family="Helvetica,sans-Serif" font-size="10.00">::Config</text>
</a>
</g>
</g>
<!-- Node0&#45;&gt;Node46 -->
<g id="edge46" class="edge">
<title>Node0&#45;&gt;Node46</title>
<path fill="none" stroke="#63b8ff" d="M36.62,-969.12C37.6,-839.14 45.79,-113.38 107,-39 115.11,-29.15 126.84,-23.13 139.1,-19.5"/>
<polygon fill="#63b8ff" stroke="#63b8ff" points="33.12,-969.2 36.55,-979.23 40.12,-969.25 33.12,-969.2"/>
</g>
</g>
</svg>
