<?xml version="1.0" encoding="UTF-8" standalone="no"?>
<!DOCTYPE svg PUBLIC "-//W3C//DTD SVG 1.1//EN"
 "http://www.w3.org/Graphics/SVG/1.1/DTD/svg11.dtd">
<!-- Generated by graphviz version 2.43.0 (0)
 -->
<!-- Title: Graphical Class Hierarchy Pages: 1 -->
<svg width="292pt" height="2034pt"
 viewBox="0.00 0.00 292.00 2033.50" xmlns="http://www.w3.org/2000/svg" xmlns:xlink="http://www.w3.org/1999/xlink">
<g id="graph0" class="graph" transform="scale(1 1) rotate(0) translate(4 2029.5)">
<title>Graphical Class Hierarchy</title>
<!-- Node0 -->
<g id="node1" class="node">
<title>Node0</title>
<g id="a_node1"><a xlink:title=" ">
<polygon fill="#e0e0e0" stroke="#999999" points="71,-1022.5 0,-1022.5 0,-1003.5 71,-1003.5 71,-1022.5"/>
<text text-anchor="middle" x="35.5" y="-1010.5" font-family="Helvetica,sans-Serif" font-size="10.00">Reflectable</text>
</a>
</g>
</g>
<!-- Node1 -->
<g id="node2" class="node">
<title>Node1</title>
<g id="a_node2"><a xlink:href="struct_authenticated_accounts.html" target="_top" xlink:title=" ">
<polygon fill="white" stroke="#666666" points="260,-2025.5 131,-2025.5 131,-2006.5 260,-2006.5 260,-2025.5"/>
<text text-anchor="middle" x="195.5" y="-2013.5" font-family="Helvetica,sans-Serif" font-size="10.00">AuthenticatedAccounts</text>
</a>
</g>
</g>
<!-- Node0&#45;&gt;Node1 -->
<g id="edge1" class="edge">
<title>Node0&#45;&gt;Node1</title>
<path fill="none" stroke="#63b8ff" d="M36.51,-1032.82C36.75,-1165.6 41.05,-1922.75 107,-1998 113.34,-2005.23 121.74,-2010.02 130.83,-2013.11"/>
<polygon fill="#63b8ff" stroke="#63b8ff" points="40.01,-1032.54 36.5,-1022.54 33.01,-1032.55 40.01,-1032.54"/>
</g>
<!-- Node2 -->
<g id="node3" class="node">
<title>Node2</title>
<g id="a_node3"><a xlink:href="struct_config.html" target="_top" xlink:title=" ">
<polygon fill="white" stroke="#666666" points="219,-1988.5 172,-1988.5 172,-1969.5 219,-1969.5 219,-1988.5"/>
<text text-anchor="middle" x="195.5" y="-1976.5" font-family="Helvetica,sans-Serif" font-size="10.00">Config</text>
</a>
</g>
</g>
<!-- Node0&#45;&gt;Node2 -->
<g id="edge2" class="edge">
<title>Node0&#45;&gt;Node2</title>
<path fill="none" stroke="#63b8ff" d="M36.57,-1032.89C37.2,-1162.91 43.54,-1888.8 107,-1961 122.87,-1979.06 151.6,-1981.85 171.8,-1981.24"/>
<polygon fill="#63b8ff" stroke="#63b8ff" points="40.07,-1032.76 36.53,-1022.77 33.07,-1032.79 40.07,-1032.76"/>
</g>
<!-- Node3 -->
<g id="node4" class="node">
<title>Node3</title>
<g id="a_node4"><a xlink:href="struct_i_p_bans.html" target="_top" xlink:title=" ">
<polygon fill="white" stroke="#666666" points="220.5,-1951.5 170.5,-1951.5 170.5,-1932.5 220.5,-1932.5 220.5,-1951.5"/>
<text text-anchor="middle" x="195.5" y="-1939.5" font-family="Helvetica,sans-Serif" font-size="10.00">IPBans</text>
</a>
</g>
</g>
<!-- Node0&#45;&gt;Node3 -->
<g id="edge3" class="edge">
<title>Node0&#45;&gt;Node3</title>
<path fill="none" stroke="#63b8ff" d="M36.63,-1032.89C37.65,-1159.93 46.03,-1854.84 107,-1924 122.49,-1941.57 150.15,-1944.67 170.23,-1944.27"/>
<polygon fill="#63b8ff" stroke="#63b8ff" points="40.13,-1032.66 36.56,-1022.68 33.13,-1032.71 40.13,-1032.66"/>
</g>
<!-- Node4 -->
<g id="node5" class="node">
<title>Node4</title>
<g id="a_node5"><a xlink:href="struct_login_id_bans.html" target="_top" xlink:title=" ">
<polygon fill="white" stroke="#666666" points="233.5,-1914.5 157.5,-1914.5 157.5,-1895.5 233.5,-1895.5 233.5,-1914.5"/>
<text text-anchor="middle" x="195.5" y="-1902.5" font-family="Helvetica,sans-Serif" font-size="10.00">LoginIdBans</text>
</a>
</g>
</g>
<!-- Node0&#45;&gt;Node4 -->
<g id="edge4" class="edge">
<title>Node0&#45;&gt;Node4</title>
<path fill="none" stroke="#63b8ff" d="M36.7,-1032.84C38.13,-1156.7 48.5,-1820.86 107,-1887 119.33,-1900.94 139.33,-1905.77 157.09,-1906.96"/>
<polygon fill="#63b8ff" stroke="#63b8ff" points="40.2,-1032.53 36.59,-1022.57 33.2,-1032.61 40.2,-1032.53"/>
</g>
<!-- Node5 -->
<g id="node6" class="node">
<title>Node5</title>
<g id="a_node6"><a xlink:href="struct_plugins_1_1_arena_1_1_config.html" target="_top" xlink:title="Config data for this plugin.">
<polygon fill="white" stroke="#666666" points="257,-1877.5 134,-1877.5 134,-1858.5 257,-1858.5 257,-1877.5"/>
<text text-anchor="middle" x="195.5" y="-1865.5" font-family="Helvetica,sans-Serif" font-size="10.00">Plugins::Arena::Config</text>
</a>
</g>
</g>
<!-- Node0&#45;&gt;Node5 -->
<g id="edge5" class="edge">
<title>Node0&#45;&gt;Node5</title>
<path fill="none" stroke="#63b8ff" d="M36.77,-1032.75C38.62,-1153.29 50.96,-1786.87 107,-1850 114,-1857.89 123.46,-1862.85 133.57,-1865.9"/>
<polygon fill="#63b8ff" stroke="#63b8ff" points="40.27,-1032.67 36.63,-1022.72 33.27,-1032.77 40.27,-1032.67"/>
</g>
<!-- Node6 -->
<g id="node7" class="node">
<title>Node6</title>
<g id="a_node7"><a xlink:href="struct_plugins_1_1_autobuy_1_1_config.html" target="_top" xlink:title="Configurable fields for this plugin.">
<polygon fill="white" stroke="#666666" points="262.5,-1840.5 128.5,-1840.5 128.5,-1821.5 262.5,-1821.5 262.5,-1840.5"/>
<text text-anchor="middle" x="195.5" y="-1828.5" font-family="Helvetica,sans-Serif" font-size="10.00">Plugins::Autobuy::Config</text>
</a>
</g>
</g>
<!-- Node0&#45;&gt;Node6 -->
<g id="edge6" class="edge">
<title>Node0&#45;&gt;Node6</title>
<path fill="none" stroke="#63b8ff" d="M36.86,-1032.56C39.2,-1149.36 53.81,-1751.66 107,-1812 112.76,-1818.53 120.18,-1823.11 128.27,-1826.29"/>
<polygon fill="#63b8ff" stroke="#63b8ff" points="40.36,-1032.48 36.67,-1022.55 33.36,-1032.61 40.36,-1032.48"/>
</g>
<!-- Node7 -->
<g id="node8" class="node">
<title>Node7</title>
<g id="a_node8"><a xlink:href="struct_plugins_1_1_bounty_hunt_1_1_config.html" target="_top" xlink:title="Configurable fields for this plugin.">
<polygon fill="white" stroke="#666666" points="253.5,-1803 137.5,-1803 137.5,-1773 253.5,-1773 253.5,-1803"/>
<text text-anchor="start" x="145.5" y="-1791" font-family="Helvetica,sans-Serif" font-size="10.00">Plugins::BountyHunt</text>
<text text-anchor="middle" x="195.5" y="-1780" font-family="Helvetica,sans-Serif" font-size="10.00">::Config</text>
</a>
</g>
</g>
<!-- Node0&#45;&gt;Node7 -->
<g id="edge7" class="edge">
<title>Node0&#45;&gt;Node7</title>
<path fill="none" stroke="#63b8ff" d="M37.03,-1032.74C40.24,-1145.61 58.57,-1706.3 107,-1764 114.8,-1773.29 125.82,-1779.16 137.42,-1782.83"/>
<polygon fill="#63b8ff" stroke="#63b8ff" points="40.53,-1032.63 36.75,-1022.73 33.53,-1032.82 40.53,-1032.63"/>
</g>
<!-- Node8 -->
<g id="node9" class="node">
<title>Node8</title>
<g id="a_node9"><a xlink:href="struct_plugins_1_1_cargo_drop_1_1_config.html" target="_top" xlink:title="Config data for this plugin.">
<polygon fill="white" stroke="#666666" points="250.5,-1755 140.5,-1755 140.5,-1725 250.5,-1725 250.5,-1755"/>
<text text-anchor="start" x="148.5" y="-1743" font-family="Helvetica,sans-Serif" font-size="10.00">Plugins::CargoDrop</text>
<text text-anchor="middle" x="195.5" y="-1732" font-family="Helvetica,sans-Serif" font-size="10.00">::Config</text>
</a>
</g>
</g>
<!-- Node0&#45;&gt;Node8 -->
<g id="edge8" class="edge">
<title>Node0&#45;&gt;Node8</title>
<path fill="none" stroke="#63b8ff" d="M37.17,-1032.81C41,-1141.47 61.65,-1662.32 107,-1716 115.44,-1725.99 127.6,-1732.02 140.19,-1735.61"/>
<polygon fill="#63b8ff" stroke="#63b8ff" points="40.66,-1032.48 36.81,-1022.61 33.66,-1032.73 40.66,-1032.48"/>
</g>
<!-- Node9 -->
<g id="node10" class="node">
<title>Node9</title>
<g id="a_node10"><a xlink:href="struct_plugins_1_1_cash_manager_1_1_config.html" target="_top" xlink:title=" ">
<polygon fill="white" stroke="#666666" points="258,-1707 133,-1707 133,-1677 258,-1677 258,-1707"/>
<text text-anchor="start" x="141" y="-1695" font-family="Helvetica,sans-Serif" font-size="10.00">Plugins::CashManager</text>
<text text-anchor="middle" x="195.5" y="-1684" font-family="Helvetica,sans-Serif" font-size="10.00">::Config</text>
</a>
</g>
</g>
<!-- Node0&#45;&gt;Node9 -->
<g id="edge9" class="edge">
<title>Node0&#45;&gt;Node9</title>
<path fill="none" stroke="#63b8ff" d="M37.33,-1033.07C41.84,-1137.78 64.75,-1618.37 107,-1668 113.74,-1675.92 122.82,-1681.35 132.58,-1685.05"/>
<polygon fill="#63b8ff" stroke="#63b8ff" points="40.82,-1032.77 36.9,-1022.93 33.83,-1033.07 40.82,-1032.77"/>
</g>
<!-- Node10 -->
<g id="node11" class="node">
<title>Node10</title>
<g id="a_node11"><a xlink:href="struct_plugins_1_1_con_data_1_1_config.html" target="_top" xlink:title=" ">
<polygon fill="white" stroke="#666666" points="264,-1658.5 127,-1658.5 127,-1639.5 264,-1639.5 264,-1658.5"/>
<text text-anchor="middle" x="195.5" y="-1646.5" font-family="Helvetica,sans-Serif" font-size="10.00">Plugins::ConData::Config</text>
</a>
</g>
</g>
<!-- Node0&#45;&gt;Node10 -->
<g id="edge10" class="edge">
<title>Node0&#45;&gt;Node10</title>
<path fill="none" stroke="#63b8ff" d="M37.41,-1032.89C42.22,-1133.63 65.91,-1584.58 107,-1630 112.42,-1635.99 119.25,-1640.34 126.69,-1643.45"/>
<polygon fill="#63b8ff" stroke="#63b8ff" points="40.91,-1032.67 36.94,-1022.85 33.91,-1033 40.91,-1032.67"/>
</g>
<!-- Node11 -->
<g id="node12" class="node">
<title>Node11</title>
<g id="a_node12"><a xlink:href="struct_plugins_1_1_crash_catcher_1_1_config.html" target="_top" xlink:title="Config data for this plugin.">
<polygon fill="white" stroke="#666666" points="257,-1621 134,-1621 134,-1591 257,-1591 257,-1621"/>
<text text-anchor="start" x="142" y="-1609" font-family="Helvetica,sans-Serif" font-size="10.00">Plugins::CrashCatcher</text>
<text text-anchor="middle" x="195.5" y="-1598" font-family="Helvetica,sans-Serif" font-size="10.00">::Config</text>
</a>
</g>
</g>
<!-- Node0&#45;&gt;Node11 -->
<g id="edge11" class="edge">
<title>Node0&#45;&gt;Node11</title>
<path fill="none" stroke="#63b8ff" d="M36.12,-1033.01C34.79,-1123.94 33.93,-1497.53 107,-1582 114.01,-1590.1 123.47,-1595.59 133.58,-1599.29"/>
<polygon fill="#63b8ff" stroke="#63b8ff" points="39.62,-1032.99 36.28,-1022.93 32.62,-1032.87 39.62,-1032.99"/>
</g>
<!-- Node12 -->
<g id="node13" class="node">
<title>Node12</title>
<g id="a_node13"><a xlink:href="struct_plugins_1_1_death_penalty_1_1_config.html" target="_top" xlink:title="Configurable fields for this plugin.">
<polygon fill="white" stroke="#666666" points="257.5,-1573 133.5,-1573 133.5,-1543 257.5,-1543 257.5,-1573"/>
<text text-anchor="start" x="141.5" y="-1561" font-family="Helvetica,sans-Serif" font-size="10.00">Plugins::DeathPenalty</text>
<text text-anchor="middle" x="195.5" y="-1550" font-family="Helvetica,sans-Serif" font-size="10.00">::Config</text>
</a>
</g>
</g>
<!-- Node0&#45;&gt;Node12 -->
<g id="edge12" class="edge">
<title>Node0&#45;&gt;Node12</title>
<path fill="none" stroke="#63b8ff" d="M36.37,-1032.65C36.22,-1118.19 39.91,-1457.32 107,-1534 113.95,-1541.94 123.25,-1547.37 133.21,-1551.06"/>
<polygon fill="#63b8ff" stroke="#63b8ff" points="39.87,-1032.52 36.41,-1022.51 32.87,-1032.49 39.87,-1032.52"/>
</g>
<!-- Node13 -->
<g id="node14" class="node">
<title>Node13</title>
<g id="a_node14"><a xlink:href="struct_plugins_1_1_event_1_1_config.html" target="_top" xlink:title="Configurable fields for this plugin.">
<polygon fill="white" stroke="#666666" points="256.5,-1524.5 134.5,-1524.5 134.5,-1505.5 256.5,-1505.5 256.5,-1524.5"/>
<text text-anchor="middle" x="195.5" y="-1512.5" font-family="Helvetica,sans-Serif" font-size="10.00">Plugins::Event::Config</text>
</a>
</g>
</g>
<!-- Node0&#45;&gt;Node13 -->
<g id="edge13" class="edge">
<title>Node0&#45;&gt;Node13</title>
<path fill="none" stroke="#63b8ff" d="M36.51,-1033.1C36.96,-1115.63 42.93,-1427.36 107,-1496 114.32,-1503.84 124.05,-1508.84 134.36,-1511.95"/>
<polygon fill="#63b8ff" stroke="#63b8ff" points="40,-1032.63 36.47,-1022.64 33,-1032.65 40,-1032.63"/>
</g>
<!-- Node14 -->
<g id="node15" class="node">
<title>Node14</title>
<g id="a_node15"><a xlink:href="struct_plugins_1_1_event_1_1_config_1_1_c_a_r_g_o___m_i_s_s_i_o_n___r_e_f_l_e_c_t_a_b_l_e.html" target="_top" xlink:title=" ">
<polygon fill="white" stroke="#666666" points="284,-1487 107,-1487 107,-1457 284,-1457 284,-1487"/>
<text text-anchor="start" x="115" y="-1475" font-family="Helvetica,sans-Serif" font-size="10.00">Plugins::Event::Config</text>
<text text-anchor="middle" x="195.5" y="-1464" font-family="Helvetica,sans-Serif" font-size="10.00">::CARGO_MISSION_REFLECTABLE</text>
</a>
</g>
</g>
<!-- Node0&#45;&gt;Node14 -->
<g id="edge14" class="edge">
<title>Node0&#45;&gt;Node14</title>
<path fill="none" stroke="#63b8ff" d="M36.96,-1032.97C39.15,-1109.83 50.83,-1385.47 107,-1448 110.05,-1451.4 113.54,-1454.33 117.31,-1456.87"/>
<polygon fill="#63b8ff" stroke="#63b8ff" points="40.46,-1032.66 36.7,-1022.75 33.46,-1032.84 40.46,-1032.66"/>
</g>
<!-- Node15 -->
<g id="node16" class="node">
<title>Node15</title>
<g id="a_node16"><a xlink:href="struct_plugins_1_1_event_1_1_config_1_1_n_p_c___m_i_s_s_i_o_n___r_e_f_l_e_c_t_a_b_l_e.html" target="_top" xlink:title=" ">
<polygon fill="white" stroke="#666666" points="276.5,-1439 114.5,-1439 114.5,-1409 276.5,-1409 276.5,-1439"/>
<text text-anchor="start" x="122.5" y="-1427" font-family="Helvetica,sans-Serif" font-size="10.00">Plugins::Event::Config</text>
<text text-anchor="middle" x="195.5" y="-1416" font-family="Helvetica,sans-Serif" font-size="10.00">::NPC_MISSION_REFLECTABLE</text>
</a>
</g>
</g>
<!-- Node0&#45;&gt;Node15 -->
<g id="edge15" class="edge">
<title>Node0&#45;&gt;Node15</title>
<path fill="none" stroke="#63b8ff" d="M37.41,-1033.01C41.04,-1104.41 56.85,-1345.26 107,-1400 110.09,-1403.37 113.6,-1406.28 117.39,-1408.8"/>
<polygon fill="#63b8ff" stroke="#63b8ff" points="40.89,-1032.54 36.91,-1022.72 33.89,-1032.88 40.89,-1032.54"/>
</g>
<!-- Node16 -->
<g id="node17" class="node">
<title>Node16</title>
<g id="a_node17"><a xlink:href="struct_plugins_1_1_kill_tracker_1_1_config.html" target="_top" xlink:title="Configurable fields for this plugin.">
<polygon fill="white" stroke="#666666" points="249.5,-1391 141.5,-1391 141.5,-1361 249.5,-1361 249.5,-1391"/>
<text text-anchor="start" x="149.5" y="-1379" font-family="Helvetica,sans-Serif" font-size="10.00">Plugins::KillTracker</text>
<text text-anchor="middle" x="195.5" y="-1368" font-family="Helvetica,sans-Serif" font-size="10.00">::Config</text>
</a>
</g>
</g>
<!-- Node0&#45;&gt;Node16 -->
<g id="edge16" class="edge">
<title>Node0&#45;&gt;Node16</title>
<path fill="none" stroke="#63b8ff" d="M37.97,-1033.03C43.17,-1098.55 62.84,-1304.98 107,-1352 116.06,-1361.64 128.59,-1367.54 141.35,-1371.12"/>
<polygon fill="#63b8ff" stroke="#63b8ff" points="41.44,-1032.52 37.19,-1022.82 34.46,-1033.05 41.44,-1032.52"/>
</g>
<!-- Node17 -->
<g id="node18" class="node">
<title>Node17</title>
<g id="a_node18"><a xlink:href="struct_plugins_1_1_kill_tracker_1_1_kill_message.html" target="_top" xlink:title="Struct to hold the Kill Streaks.">
<polygon fill="white" stroke="#666666" points="249.5,-1343 141.5,-1343 141.5,-1313 249.5,-1313 249.5,-1343"/>
<text text-anchor="start" x="149.5" y="-1331" font-family="Helvetica,sans-Serif" font-size="10.00">Plugins::KillTracker</text>
<text text-anchor="middle" x="195.5" y="-1320" font-family="Helvetica,sans-Serif" font-size="10.00">::KillMessage</text>
</a>
</g>
</g>
<!-- Node0&#45;&gt;Node17 -->
<g id="edge17" class="edge">
<title>Node0&#45;&gt;Node17</title>
<path fill="none" stroke="#63b8ff" d="M38.69,-1032.82C45.59,-1091.81 68.73,-1264.57 107,-1304 116.11,-1313.38 128.5,-1319.2 141.1,-1322.79"/>
<polygon fill="#63b8ff" stroke="#63b8ff" points="42.14,-1032.16 37.53,-1022.62 35.18,-1032.95 42.14,-1032.16"/>
</g>
<!-- Node18 -->
<g id="node19" class="node">
<title>Node18</title>
<g id="a_node19"><a xlink:href="struct_plugins_1_1_light_control_1_1_config.html" target="_top" xlink:title="Config data for this plugin.">
<polygon fill="white" stroke="#666666" points="254,-1295 137,-1295 137,-1265 254,-1265 254,-1295"/>
<text text-anchor="start" x="145" y="-1283" font-family="Helvetica,sans-Serif" font-size="10.00">Plugins::LightControl</text>
<text text-anchor="middle" x="195.5" y="-1272" font-family="Helvetica,sans-Serif" font-size="10.00">::Config</text>
</a>
</g>
</g>
<!-- Node0&#45;&gt;Node18 -->
<g id="edge18" class="edge">
<title>Node0&#45;&gt;Node18</title>
<path fill="none" stroke="#63b8ff" d="M36.15,-1032.64C36.45,-1078.55 43.83,-1193.75 107,-1256 115.19,-1264.07 125.82,-1269.49 136.84,-1273.11"/>
<polygon fill="#63b8ff" stroke="#63b8ff" points="39.65,-1032.55 36.2,-1022.53 32.65,-1032.51 39.65,-1032.55"/>
</g>
<!-- Node19 -->
<g id="node20" class="node">
<title>Node19</title>
<g id="a_node20"><a xlink:href="struct_plugins_1_1_loot_tables_1_1_config.html" target="_top" xlink:title=" ">
<polygon fill="white" stroke="#666666" points="250.5,-1247 140.5,-1247 140.5,-1217 250.5,-1217 250.5,-1247"/>
<text text-anchor="start" x="148.5" y="-1235" font-family="Helvetica,sans-Serif" font-size="10.00">Plugins::LootTables</text>
<text text-anchor="middle" x="195.5" y="-1224" font-family="Helvetica,sans-Serif" font-size="10.00">::Config</text>
</a>
</g>
</g>
<!-- Node0&#45;&gt;Node19 -->
<g id="edge19" class="edge">
<title>Node0&#45;&gt;Node19</title>
<path fill="none" stroke="#63b8ff" d="M37.83,-1032.96C41.55,-1072.36 55.5,-1160.42 107,-1208 116.26,-1216.55 128.27,-1222.1 140.42,-1225.69"/>
<polygon fill="#63b8ff" stroke="#63b8ff" points="41.3,-1032.48 37,-1022.8 34.33,-1033.05 41.3,-1032.48"/>
</g>
<!-- Node20 -->
<g id="node21" class="node">
<title>Node20</title>
<g id="a_node21"><a xlink:href="struct_plugins_1_1_loot_tables_1_1_drop_weight.html" target="_top" xlink:title=" ">
<polygon fill="white" stroke="#666666" points="250.5,-1199 140.5,-1199 140.5,-1169 250.5,-1169 250.5,-1199"/>
<text text-anchor="start" x="148.5" y="-1187" font-family="Helvetica,sans-Serif" font-size="10.00">Plugins::LootTables</text>
<text text-anchor="middle" x="195.5" y="-1176" font-family="Helvetica,sans-Serif" font-size="10.00">::DropWeight</text>
</a>
</g>
</g>
<!-- Node0&#45;&gt;Node20 -->
<g id="edge20" class="edge">
<title>Node0&#45;&gt;Node20</title>
<path fill="none" stroke="#63b8ff" d="M40.36,-1032.36C47.67,-1063.91 66.57,-1126.25 107,-1160 116.43,-1167.87 128.24,-1173.18 140.1,-1176.75"/>
<polygon fill="#63b8ff" stroke="#63b8ff" points="43.78,-1031.62 38.24,-1022.59 36.94,-1033.1 43.78,-1031.62"/>
</g>
<!-- Node21 -->
<g id="node22" class="node">
<title>Node21</title>
<g id="a_node22"><a xlink:href="struct_plugins_1_1_loot_tables_1_1_loot_table.html" target="_top" xlink:title=" ">
<polygon fill="white" stroke="#666666" points="250.5,-1151 140.5,-1151 140.5,-1121 250.5,-1121 250.5,-1151"/>
<text text-anchor="start" x="148.5" y="-1139" font-family="Helvetica,sans-Serif" font-size="10.00">Plugins::LootTables</text>
<text text-anchor="middle" x="195.5" y="-1128" font-family="Helvetica,sans-Serif" font-size="10.00">::LootTable</text>
</a>
</g>
</g>
<!-- Node0&#45;&gt;Node21 -->
<g id="edge21" class="edge">
<title>Node0&#45;&gt;Node21</title>
<path fill="none" stroke="#63b8ff" d="M44.91,-1031.72C55.94,-1054.18 77.45,-1091.35 107,-1112 116.81,-1118.86 128.51,-1123.76 140.11,-1127.26"/>
<polygon fill="#63b8ff" stroke="#63b8ff" points="48.01,-1030.11 40.58,-1022.56 41.68,-1033.1 48.01,-1030.11"/>
</g>
<!-- Node22 -->
<g id="node23" class="node">
<title>Node22</title>
<g id="a_node23"><a xlink:href="struct_plugins_1_1_mark_1_1_config.html" target="_top" xlink:title=" ">
<polygon fill="white" stroke="#666666" points="255,-1102.5 136,-1102.5 136,-1083.5 255,-1083.5 255,-1102.5"/>
<text text-anchor="middle" x="195.5" y="-1090.5" font-family="Helvetica,sans-Serif" font-size="10.00">Plugins::Mark::Config</text>
</a>
</g>
</g>
<!-- Node0&#45;&gt;Node22 -->
<g id="edge22" class="edge">
<title>Node0&#45;&gt;Node22</title>
<path fill="none" stroke="#63b8ff" d="M51.37,-1030.35C64.54,-1044.57 85.05,-1064.07 107,-1075 115.88,-1079.43 125.8,-1082.76 135.66,-1085.28"/>
<polygon fill="#63b8ff" stroke="#63b8ff" points="53.79,-1027.8 44.51,-1022.69 48.58,-1032.47 53.79,-1027.8"/>
</g>
<!-- Node23 -->
<g id="node24" class="node">
<title>Node23</title>
<g id="a_node24"><a xlink:href="struct_plugins_1_1_message_1_1_config.html" target="_top" xlink:title="Config data for this plugin.">
<polygon fill="white" stroke="#666666" points="264.5,-1065.5 126.5,-1065.5 126.5,-1046.5 264.5,-1046.5 264.5,-1065.5"/>
<text text-anchor="middle" x="195.5" y="-1053.5" font-family="Helvetica,sans-Serif" font-size="10.00">Plugins::Message::Config</text>
</a>
</g>
</g>
<!-- Node0&#45;&gt;Node23 -->
<g id="edge23" class="edge">
<title>Node0&#45;&gt;Node23</title>
<path fill="none" stroke="#63b8ff" d="M72.16,-1026.02C83.24,-1029.83 95.55,-1033.82 107,-1037 119.43,-1040.45 133,-1043.66 145.66,-1046.43"/>
<polygon fill="#63b8ff" stroke="#63b8ff" points="72.99,-1022.61 62.39,-1022.61 70.68,-1029.21 72.99,-1022.61"/>
</g>
<!-- Node24 -->
<g id="node25" class="node">
<title>Node24</title>
<g id="a_node25"><a xlink:href="struct_plugins_1_1_mining_control_1_1_config.html" target="_top" xlink:title="Config data for this plugin.">
<polygon fill="white" stroke="#666666" points="258.5,-1028 132.5,-1028 132.5,-998 258.5,-998 258.5,-1028"/>
<text text-anchor="start" x="140.5" y="-1016" font-family="Helvetica,sans-Serif" font-size="10.00">Plugins::MiningControl</text>
<text text-anchor="middle" x="195.5" y="-1005" font-family="Helvetica,sans-Serif" font-size="10.00">::Config</text>
</a>
</g>
</g>
<!-- Node0&#45;&gt;Node24 -->
<g id="edge24" class="edge">
<title>Node0&#45;&gt;Node24</title>
<path fill="none" stroke="#63b8ff" d="M81.22,-1013C97.06,-1013 115.18,-1013 132.22,-1013"/>
<polygon fill="#63b8ff" stroke="#63b8ff" points="81.17,-1009.5 71.17,-1013 81.17,-1016.5 81.17,-1009.5"/>
</g>
<!-- Node25 -->
<g id="node26" class="node">
<title>Node25</title>
<g id="a_node26"><a xlink:href="struct_plugins_1_1_mining_control_1_1_mining_stats.html" target="_top" xlink:title="A struct to load in the stats config file across restarts.">
<polygon fill="white" stroke="#666666" points="258.5,-980 132.5,-980 132.5,-950 258.5,-950 258.5,-980"/>
<text text-anchor="start" x="140.5" y="-968" font-family="Helvetica,sans-Serif" font-size="10.00">Plugins::MiningControl</text>
<text text-anchor="middle" x="195.5" y="-957" font-family="Helvetica,sans-Serif" font-size="10.00">::MiningStats</text>
</a>
</g>
</g>
<!-- Node0&#45;&gt;Node25 -->
<g id="edge25" class="edge">
<title>Node0&#45;&gt;Node25</title>
<path fill="none" stroke="#63b8ff" d="M73.11,-1000.07C83.97,-996.36 95.93,-992.4 107,-989 116.79,-985.99 127.25,-982.97 137.4,-980.13"/>
<polygon fill="#63b8ff" stroke="#63b8ff" points="71.81,-996.82 63.49,-1003.38 74.09,-1003.43 71.81,-996.82"/>
</g>
<!-- Node26 -->
<g id="node27" class="node">
<title>Node26</title>
<g id="a_node27"><a xlink:href="struct_plugins_1_1_mining_control_1_1_player_bonus.html" target="_top" xlink:title="A struct that defines a mining bonus to a player if they meet certain criteria.">
<polygon fill="white" stroke="#666666" points="258.5,-932 132.5,-932 132.5,-902 258.5,-902 258.5,-932"/>
<text text-anchor="start" x="140.5" y="-920" font-family="Helvetica,sans-Serif" font-size="10.00">Plugins::MiningControl</text>
<text text-anchor="middle" x="195.5" y="-909" font-family="Helvetica,sans-Serif" font-size="10.00">::PlayerBonus</text>
</a>
</g>
</g>
<!-- Node0&#45;&gt;Node26 -->
<g id="edge26" class="edge">
<title>Node0&#45;&gt;Node26</title>
<path fill="none" stroke="#63b8ff" d="M49.37,-995.25C62.19,-978.83 83.34,-954.92 107,-941 114.74,-936.45 123.37,-932.73 132.11,-929.71"/>
<polygon fill="#63b8ff" stroke="#63b8ff" points="46.38,-993.41 43.14,-1003.5 51.96,-997.63 46.38,-993.41"/>
</g>
<!-- Node27 -->
<g id="node28" class="node">
<title>Node27</title>
<g id="a_node28"><a xlink:href="struct_plugins_1_1_mining_control_1_1_zone_bonus.html" target="_top" xlink:title="A struct that defines a mining bonus for a certain zone in space.">
<polygon fill="white" stroke="#666666" points="258.5,-884 132.5,-884 132.5,-854 258.5,-854 258.5,-884"/>
<text text-anchor="start" x="140.5" y="-872" font-family="Helvetica,sans-Serif" font-size="10.00">Plugins::MiningControl</text>
<text text-anchor="middle" x="195.5" y="-861" font-family="Helvetica,sans-Serif" font-size="10.00">::ZoneBonus</text>
</a>
</g>
</g>
<!-- Node0&#45;&gt;Node27 -->
<g id="edge27" class="edge">
<title>Node0&#45;&gt;Node27</title>
<path fill="none" stroke="#63b8ff" d="M42.71,-993.44C52.22,-966.71 72.94,-919.09 107,-893 114.5,-887.25 123.3,-882.88 132.36,-879.56"/>
<polygon fill="#63b8ff" stroke="#63b8ff" points="39.3,-992.6 39.42,-1003.2 45.93,-994.84 39.3,-992.6"/>
</g>
<!-- Node28 -->
<g id="node29" class="node">
<title>Node28</title>
<g id="a_node29"><a xlink:href="struct_plugins_1_1_mining_control_1_1_zone_stats.html" target="_top" xlink:title="A struct to hold the current status of a zone so their progress persists across restarts.">
<polygon fill="white" stroke="#666666" points="258.5,-836 132.5,-836 132.5,-806 258.5,-806 258.5,-836"/>
<text text-anchor="start" x="140.5" y="-824" font-family="Helvetica,sans-Serif" font-size="10.00">Plugins::MiningControl</text>
<text text-anchor="middle" x="195.5" y="-813" font-family="Helvetica,sans-Serif" font-size="10.00">::ZoneStats</text>
</a>
</g>
</g>
<!-- Node0&#45;&gt;Node28 -->
<g id="edge28" class="edge">
<title>Node0&#45;&gt;Node28</title>
<path fill="none" stroke="#63b8ff" d="M39.1,-993.38C44.81,-958.29 61.75,-884.74 107,-845 114.22,-838.66 122.97,-833.98 132.1,-830.53"/>
<polygon fill="#63b8ff" stroke="#63b8ff" points="35.63,-992.93 37.62,-1003.33 42.55,-993.96 35.63,-992.93"/>
</g>
<!-- Node29 -->
<g id="node30" class="node">
<title>Node29</title>
<g id="a_node30"><a xlink:href="struct_plugins_1_1_misc_commands_1_1_config.html" target="_top" xlink:title="Config data for this plugin.">
<polygon fill="white" stroke="#666666" points="263.5,-788 127.5,-788 127.5,-758 263.5,-758 263.5,-788"/>
<text text-anchor="start" x="135.5" y="-776" font-family="Helvetica,sans-Serif" font-size="10.00">Plugins::MiscCommands</text>
<text text-anchor="middle" x="195.5" y="-765" font-family="Helvetica,sans-Serif" font-size="10.00">::Config</text>
</a>
</g>
</g>
<!-- Node0&#45;&gt;Node29 -->
<g id="edge29" class="edge">
<title>Node0&#45;&gt;Node29</title>
<path fill="none" stroke="#63b8ff" d="M37.02,-992.97C39.23,-950.49 50.51,-850.85 107,-797 112.81,-791.46 119.79,-787.17 127.22,-783.86"/>
<polygon fill="#63b8ff" stroke="#63b8ff" points="33.51,-993 36.61,-1003.13 40.51,-993.28 33.51,-993"/>
</g>
<!-- Node30 -->
<g id="node31" class="node">
<title>Node30</title>
<g id="a_node31"><a xlink:href="struct_plugins_1_1_n_p_c_spin_protection_1_1_config.html" target="_top" xlink:title="Config data for this plugin.">
<polygon fill="white" stroke="#666666" points="270,-740 121,-740 121,-710 270,-710 270,-740"/>
<text text-anchor="start" x="129" y="-728" font-family="Helvetica,sans-Serif" font-size="10.00">Plugins::NPCSpinProtection</text>
<text text-anchor="middle" x="195.5" y="-717" font-family="Helvetica,sans-Serif" font-size="10.00">::Config</text>
</a>
</g>
</g>
<!-- Node0&#45;&gt;Node30 -->
<g id="edge30" class="edge">
<title>Node0&#45;&gt;Node30</title>
<path fill="none" stroke="#63b8ff" d="M39.21,-993.23C47.15,-938.06 72.04,-784.19 107,-749 111.11,-744.86 115.86,-741.42 120.97,-738.56"/>
<polygon fill="#63b8ff" stroke="#63b8ff" points="35.7,-993.03 37.77,-1003.42 42.63,-994.01 35.7,-993.03"/>
</g>
<!-- Node31 -->
<g id="node32" class="node">
<title>Node31</title>
<g id="a_node32"><a xlink:href="struct_plugins_1_1_npc_1_1_config.html" target="_top" xlink:title="Config data for this plugin.">
<polygon fill="white" stroke="#666666" points="252,-691.5 139,-691.5 139,-672.5 252,-672.5 252,-691.5"/>
<text text-anchor="middle" x="195.5" y="-679.5" font-family="Helvetica,sans-Serif" font-size="10.00">Plugins::Npc::Config</text>
</a>
</g>
</g>
<!-- Node0&#45;&gt;Node31 -->
<g id="edge31" class="edge">
<title>Node0&#45;&gt;Node31</title>
<path fill="none" stroke="#63b8ff" d="M38.23,-993.27C44.04,-931.38 64.96,-742.69 107,-701 115.61,-692.46 127.1,-687.36 138.91,-684.4"/>
<polygon fill="#63b8ff" stroke="#63b8ff" points="34.73,-993.01 37.31,-1003.29 41.71,-993.65 34.73,-993.01"/>
</g>
<!-- Node32 -->
<g id="node33" class="node">
<title>Node32</title>
<g id="a_node33"><a xlink:href="struct_plugins_1_1_npc_1_1_fleet.html" target="_top" xlink:title=" ">
<polygon fill="white" stroke="#666666" points="249,-654.5 142,-654.5 142,-635.5 249,-635.5 249,-654.5"/>
<text text-anchor="middle" x="195.5" y="-642.5" font-family="Helvetica,sans-Serif" font-size="10.00">Plugins::Npc::Fleet</text>
</a>
</g>
</g>
<!-- Node0&#45;&gt;Node32 -->
<g id="edge32" class="edge">
<title>Node0&#45;&gt;Node32</title>
<path fill="none" stroke="#63b8ff" d="M37.72,-993.15C42.24,-926.38 60.24,-711.44 107,-664 116.28,-654.59 129.04,-649.33 141.95,-646.51"/>
<polygon fill="#63b8ff" stroke="#63b8ff" points="34.23,-992.98 37.07,-1003.19 41.21,-993.44 34.23,-992.98"/>
</g>
<!-- Node33 -->
<g id="node34" class="node">
<title>Node33</title>
<g id="a_node34"><a xlink:href="struct_plugins_1_1_npc_1_1_npc.html" target="_top" xlink:title="A struct that represents an npc that can be spawned.">
<polygon fill="white" stroke="#666666" points="246,-617.5 145,-617.5 145,-598.5 246,-598.5 246,-617.5"/>
<text text-anchor="middle" x="195.5" y="-605.5" font-family="Helvetica,sans-Serif" font-size="10.00">Plugins::Npc::Npc</text>
</a>
</g>
</g>
<!-- Node0&#45;&gt;Node33 -->
<g id="edge33" class="edge">
<title>Node0&#45;&gt;Node33</title>
<path fill="none" stroke="#63b8ff" d="M37.31,-992.95C40.63,-921.42 55.52,-680.22 107,-627 116.84,-616.83 130.73,-611.49 144.57,-608.83"/>
<polygon fill="#63b8ff" stroke="#63b8ff" points="33.8,-993.11 36.86,-1003.25 40.8,-993.42 33.8,-993.11"/>
</g>
<!-- Node34 -->
<g id="node35" class="node">
<title>Node34</title>
<g id="a_node35"><a xlink:href="struct_plugins_1_1_npc_1_1_startup_npc.html" target="_top" xlink:title=" ">
<polygon fill="white" stroke="#666666" points="264,-580.5 127,-580.5 127,-561.5 264,-561.5 264,-580.5"/>
<text text-anchor="middle" x="195.5" y="-568.5" font-family="Helvetica,sans-Serif" font-size="10.00">Plugins::Npc::StartupNpc</text>
</a>
</g>
</g>
<!-- Node0&#45;&gt;Node34 -->
<g id="edge34" class="edge">
<title>Node0&#45;&gt;Node34</title>
<path fill="none" stroke="#63b8ff" d="M36.96,-993.03C39.12,-917.29 50.71,-649.1 107,-590 112.58,-584.15 119.5,-579.89 126.98,-576.82"/>
<polygon fill="#63b8ff" stroke="#63b8ff" points="33.45,-993.38 36.69,-1003.47 40.45,-993.56 33.45,-993.38"/>
</g>
<!-- Node35 -->
<g id="node36" class="node">
<title>Node35</title>
<g id="a_node36"><a xlink:href="struct_plugins_1_1_purchase_restrictions_1_1_config.html" target="_top" xlink:title="Config data for this plugin.">
<polygon fill="white" stroke="#666666" points="275.5,-543 115.5,-543 115.5,-513 275.5,-513 275.5,-543"/>
<text text-anchor="start" x="123.5" y="-531" font-family="Helvetica,sans-Serif" font-size="10.00">Plugins::PurchaseRestrictions</text>
<text text-anchor="middle" x="195.5" y="-520" font-family="Helvetica,sans-Serif" font-size="10.00">::Config</text>
</a>
</g>
</g>
<!-- Node0&#45;&gt;Node35 -->
<g id="edge35" class="edge">
<title>Node0&#45;&gt;Node35</title>
<path fill="none" stroke="#63b8ff" d="M36.78,-993.45C38.31,-914.47 47.95,-620.02 107,-553 110.34,-549.21 114.22,-545.97 118.44,-543.21"/>
<polygon fill="#63b8ff" stroke="#63b8ff" points="33.28,-993.42 36.61,-1003.48 40.28,-993.54 33.28,-993.42"/>
</g>
<!-- Node36 -->
<g id="node37" class="node">
<title>Node36</title>
<g id="a_node37"><a xlink:href="struct_plugins_1_1_rename_1_1_config.html" target="_top" xlink:title="Config data for this plugin.">
<polygon fill="white" stroke="#666666" points="263,-494.5 128,-494.5 128,-475.5 263,-475.5 263,-494.5"/>
<text text-anchor="middle" x="195.5" y="-482.5" font-family="Helvetica,sans-Serif" font-size="10.00">Plugins::Rename::Config</text>
</a>
</g>
</g>
<!-- Node0&#45;&gt;Node36 -->
<g id="edge36" class="edge">
<title>Node0&#45;&gt;Node36</title>
<path fill="none" stroke="#63b8ff" d="M36.34,-993.17C36.08,-908.33 39.47,-576.89 107,-504 112.71,-497.84 119.9,-493.44 127.69,-490.32"/>
<polygon fill="#63b8ff" stroke="#63b8ff" points="32.84,-993.28 36.39,-1003.26 39.84,-993.24 32.84,-993.28"/>
</g>
<!-- Node37 -->
<g id="node38" class="node">
<title>Node37</title>
<g id="a_node38"><a xlink:href="struct_plugins_1_1_rename_1_1_tag_data.html" target="_top" xlink:title="Struct to hold a clan/group tag. This contains the passwords used to manage and rename a character to...">
<polygon fill="white" stroke="#666666" points="267.5,-457.5 123.5,-457.5 123.5,-438.5 267.5,-438.5 267.5,-457.5"/>
<text text-anchor="middle" x="195.5" y="-445.5" font-family="Helvetica,sans-Serif" font-size="10.00">Plugins::Rename::TagData</text>
</a>
</g>
</g>
<!-- Node0&#45;&gt;Node37 -->
<g id="edge37" class="edge">
<title>Node0&#45;&gt;Node37</title>
<path fill="none" stroke="#63b8ff" d="M36.13,-993.17C34.92,-904.57 34.62,-545.84 107,-467 111.63,-461.96 117.25,-458.09 123.38,-455.14"/>
<polygon fill="#63b8ff" stroke="#63b8ff" points="32.64,-993.48 36.3,-1003.42 39.64,-993.37 32.64,-993.48"/>
</g>
<!-- Node38 -->
<g id="node39" class="node">
<title>Node38</title>
<g id="a_node39"><a xlink:href="struct_plugins_1_1_rename_1_1_tag_list.html" target="_top" xlink:title="A struct to hold all the tags.">
<polygon fill="white" stroke="#666666" points="264.5,-420.5 126.5,-420.5 126.5,-401.5 264.5,-401.5 264.5,-420.5"/>
<text text-anchor="middle" x="195.5" y="-408.5" font-family="Helvetica,sans-Serif" font-size="10.00">Plugins::Rename::TagList</text>
</a>
</g>
</g>
<!-- Node0&#45;&gt;Node38 -->
<g id="edge38" class="edge">
<title>Node0&#45;&gt;Node38</title>
<path fill="none" stroke="#63b8ff" d="M37.56,-993C42.9,-895.47 68.16,-472.65 107,-430 112.34,-424.14 119.02,-419.86 126.3,-416.76"/>
<polygon fill="#63b8ff" stroke="#63b8ff" points="34.05,-993.06 37.01,-1003.24 41.04,-993.44 34.05,-993.06"/>
</g>
<!-- Node39 -->
<g id="node40" class="node">
<title>Node39</title>
<g id="a_node40"><a xlink:href="struct_plugins_1_1_restart_1_1_config.html" target="_top" xlink:title="Config data for this plugin.">
<polygon fill="white" stroke="#666666" points="260.5,-383.5 130.5,-383.5 130.5,-364.5 260.5,-364.5 260.5,-383.5"/>
<text text-anchor="middle" x="195.5" y="-371.5" font-family="Helvetica,sans-Serif" font-size="10.00">Plugins::Restart::Config</text>
</a>
</g>
</g>
<!-- Node0&#45;&gt;Node39 -->
<g id="edge39" class="edge">
<title>Node0&#45;&gt;Node39</title>
<path fill="none" stroke="#63b8ff" d="M37.41,-993.01C42.18,-891.78 65.72,-438.65 107,-393 113.26,-386.08 121.38,-381.36 130.17,-378.19"/>
<polygon fill="#63b8ff" stroke="#63b8ff" points="33.91,-992.96 36.94,-1003.11 40.9,-993.28 33.91,-992.96"/>
</g>
<!-- Node40 -->
<g id="node41" class="node">
<title>Node40</title>
<g id="a_node41"><a xlink:href="struct_plugins_1_1_sound_manager_1_1_config.html" target="_top" xlink:title="Config data for this plugin.">
<polygon fill="white" stroke="#666666" points="261,-346 130,-346 130,-316 261,-316 261,-346"/>
<text text-anchor="start" x="138" y="-334" font-family="Helvetica,sans-Serif" font-size="10.00">Plugins::SoundManager</text>
<text text-anchor="middle" x="195.5" y="-323" font-family="Helvetica,sans-Serif" font-size="10.00">::Config</text>
</a>
</g>
</g>
<!-- Node0&#45;&gt;Node40 -->
<g id="edge40" class="edge">
<title>Node0&#45;&gt;Node40</title>
<path fill="none" stroke="#63b8ff" d="M37.34,-992.87C41.88,-887.89 64.9,-406.01 107,-356 113.1,-348.75 121.15,-343.52 129.9,-339.77"/>
<polygon fill="#63b8ff" stroke="#63b8ff" points="33.83,-992.91 36.9,-1003.05 40.83,-993.21 33.83,-992.91"/>
</g>
<!-- Node41 -->
<g id="node42" class="node">
<title>Node41</title>
<g id="a_node42"><a xlink:href="struct_plugins_1_1_stats_1_1_file_name.html" target="_top" xlink:title="Reflectable struct that contains the file path of the config file as well as the file to export stats...">
<polygon fill="white" stroke="#666666" points="263,-297.5 128,-297.5 128,-278.5 263,-278.5 263,-297.5"/>
<text text-anchor="middle" x="195.5" y="-285.5" font-family="Helvetica,sans-Serif" font-size="10.00">Plugins::Stats::FileName</text>
</a>
</g>
</g>
<!-- Node0&#45;&gt;Node41 -->
<g id="edge41" class="edge">
<title>Node0&#45;&gt;Node41</title>
<path fill="none" stroke="#63b8ff" d="M37.11,-993.07C40.66,-883.72 60.03,-359.67 107,-307 112.69,-300.62 119.97,-296.1 127.9,-292.94"/>
<polygon fill="#63b8ff" stroke="#63b8ff" points="33.61,-993.22 36.79,-1003.33 40.6,-993.44 33.61,-993.22"/>
</g>
<!-- Node42 -->
<g id="node43" class="node">
<title>Node42</title>
<g id="a_node43"><a xlink:href="struct_plugins_1_1_system_sensor_1_1_config.html" target="_top" xlink:title=" ">
<polygon fill="white" stroke="#666666" points="259.5,-260 131.5,-260 131.5,-230 259.5,-230 259.5,-260"/>
<text text-anchor="start" x="139.5" y="-248" font-family="Helvetica,sans-Serif" font-size="10.00">Plugins::SystemSensor</text>
<text text-anchor="middle" x="195.5" y="-237" font-family="Helvetica,sans-Serif" font-size="10.00">::Config</text>
</a>
</g>
</g>
<!-- Node0&#45;&gt;Node42 -->
<g id="edge42" class="edge">
<title>Node0&#45;&gt;Node42</title>
<path fill="none" stroke="#63b8ff" d="M37.07,-993.14C40.44,-880.73 59.4,-327.26 107,-270 113.36,-262.35 121.89,-256.95 131.14,-253.15"/>
<polygon fill="#63b8ff" stroke="#63b8ff" points="33.56,-993.28 36.77,-1003.38 40.56,-993.48 33.56,-993.28"/>
</g>
<!-- Node43 -->
<g id="node44" class="node">
<title>Node43</title>
<g id="a_node44"><a xlink:href="struct_plugins_1_1_system_sensor_1_1_reflectable_sensor.html" target="_top" xlink:title=" ">
<polygon fill="white" stroke="#666666" points="259.5,-212 131.5,-212 131.5,-182 259.5,-182 259.5,-212"/>
<text text-anchor="start" x="139.5" y="-200" font-family="Helvetica,sans-Serif" font-size="10.00">Plugins::SystemSensor</text>
<text text-anchor="middle" x="195.5" y="-189" font-family="Helvetica,sans-Serif" font-size="10.00">::ReflectableSensor</text>
</a>
</g>
</g>
<!-- Node0&#45;&gt;Node43 -->
<g id="edge43" class="edge">
<title>Node0&#45;&gt;Node43</title>
<path fill="none" stroke="#63b8ff" d="M36.93,-993.29C39.64,-876.86 55.93,-282.13 107,-221 113.36,-213.38 121.89,-208.06 131.14,-204.37"/>
<polygon fill="#63b8ff" stroke="#63b8ff" points="33.43,-993.21 36.7,-1003.29 40.43,-993.37 33.43,-993.21"/>
</g>
<!-- Node44 -->
<g id="node45" class="node">
<title>Node44</title>
<g id="a_node45"><a xlink:href="struct_plugins_1_1_tax_1_1_config.html" target="_top" xlink:title="Configurable fields for this plugin.">
<polygon fill="white" stroke="#666666" points="251,-163.5 140,-163.5 140,-144.5 251,-144.5 251,-163.5"/>
<text text-anchor="middle" x="195.5" y="-151.5" font-family="Helvetica,sans-Serif" font-size="10.00">Plugins::Tax::Config</text>
</a>
</g>
</g>
<!-- Node0&#45;&gt;Node44 -->
<g id="edge44" class="edge">
<title>Node0&#45;&gt;Node44</title>
<path fill="none" stroke="#63b8ff" d="M36.78,-993.19C38.65,-872.27 51.12,-236.67 107,-173 115.41,-163.42 127.41,-158.03 139.83,-155.12"/>
<polygon fill="#63b8ff" stroke="#63b8ff" points="33.28,-993.2 36.63,-1003.25 40.28,-993.3 33.28,-993.2"/>
</g>
<!-- Node45 -->
<g id="node46" class="node">
<title>Node45</title>
<g id="a_node46"><a xlink:href="struct_plugins_1_1_template_1_1_config.html" target="_top" xlink:title=" ">
<polygon fill="white" stroke="#666666" points="250,-126 141,-126 141,-96 250,-96 250,-126"/>
<text text-anchor="start" x="149" y="-114" font-family="Helvetica,sans-Serif" font-size="10.00">Plugins::Template::</text>
<text text-anchor="middle" x="195.5" y="-103" font-family="Helvetica,sans-Serif" font-size="10.00">Config</text>
</a>
</g>
</g>
<!-- Node0&#45;&gt;Node45 -->
<g id="edge45" class="edge">
<title>Node0&#45;&gt;Node45</title>
<path fill="none" stroke="#63b8ff" d="M36.76,-993.15C38.57,-869.21 50.85,-204.54 107,-136 115.51,-125.61 128.02,-119.37 140.92,-115.66"/>
<polygon fill="#63b8ff" stroke="#63b8ff" points="33.26,-993.37 36.62,-1003.42 40.26,-993.47 33.26,-993.37"/>
</g>
<!-- Node46 -->
<g id="node47" class="node">
<title>Node46</title>
<g id="a_node47"><a xlink:href="struct_plugins_1_1_wardrobe_1_1_config.html" target="_top" xlink:title="Config data for this plugin.">
<polygon fill="white" stroke="#666666" points="250.5,-78 140.5,-78 140.5,-48 250.5,-48 250.5,-78"/>
<text text-anchor="start" x="148.5" y="-66" font-family="Helvetica,sans-Serif" font-size="10.00">Plugins::Wardrobe::</text>
<text text-anchor="middle" x="195.5" y="-55" font-family="Helvetica,sans-Serif" font-size="10.00">Config</text>
</a>
</g>
</g>
<!-- Node0&#45;&gt;Node46 -->
<g id="edge46" class="edge">
<title>Node0&#45;&gt;Node46</title>
<path fill="none" stroke="#63b8ff" d="M36.66,-993.24C37.88,-865.49 47.32,-159.38 107,-87 115.42,-76.79 127.73,-70.7 140.48,-67.12"/>
<polygon fill="#63b8ff" stroke="#63b8ff" points="33.16,-993.44 36.57,-1003.48 40.16,-993.51 33.16,-993.44"/>
</g>
<!-- Node47 -->
<g id="node48" class="node">
<title>Node47</title>
<g id="a_node48"><a xlink:href="struct_plugins_1_1_warehouse_1_1_config.html" target="_top" xlink:title=" ">
<polygon fill="white" stroke="#666666" points="251.5,-30 139.5,-30 139.5,0 251.5,0 251.5,-30"/>
<text text-anchor="start" x="147.5" y="-18" font-family="Helvetica,sans-Serif" font-size="10.00">Plugins::Warehouse</text>
<text text-anchor="middle" x="195.5" y="-7" font-family="Helvetica,sans-Serif" font-size="10.00">::Config</text>
</a>
</g>
</g>
<!-- Node0&#45;&gt;Node47 -->
<g id="edge47" class="edge">
<title>Node0&#45;&gt;Node47</title>
<path fill="none" stroke="#63b8ff" d="M36.58,-993.04C37.32,-860.91 44.26,-115.38 107,-39 115.1,-29.14 126.83,-23.12 139.09,-19.49"/>
<polygon fill="#63b8ff" stroke="#63b8ff" points="33.08,-993.27 36.53,-1003.29 40.08,-993.3 33.08,-993.27"/>
</g>
</g>
</svg>
