<?xml version="1.0" encoding="UTF-8" standalone="no"?>
<!DOCTYPE svg PUBLIC "-//W3C//DTD SVG 1.1//EN"
 "http://www.w3.org/Graphics/SVG/1.1/DTD/svg11.dtd">
<!-- Generated by graphviz version 2.43.0 (0)
 -->
<!-- Title: Graphical Class Hierarchy Pages: 1 -->
<svg width="297pt" height="142pt"
 viewBox="0.00 0.00 297.00 142.00" xmlns="http://www.w3.org/2000/svg" xmlns:xlink="http://www.w3.org/1999/xlink">
<g id="graph0" class="graph" transform="scale(1 1) rotate(0) translate(4 138)">
<title>Graphical Class Hierarchy</title>
<!-- Node79 -->
<g id="node1" class="node">
<title>Node79</title>
<g id="a_node1"><a xlink:title=" ">
<polygon fill="none" stroke="#bfbfbf" points="0,-57.5 0,-76.5 119,-76.5 119,-57.5 0,-57.5"/>
<text text-anchor="middle" x="59.5" y="-64.5" font-family="Helvetica,sans-Serif" font-size="10.00">PluginCommunicator</text>
</a>
</g>
</g>
<!-- Node0 -->
<g id="node2" class="node">
<title>Node0</title>
<g id="a_node2"><a xlink:href="class_base_communicator.html" target="_top" xlink:title=" ">
<polygon fill="none" stroke="black" points="165.5,-114.5 165.5,-133.5 278.5,-133.5 278.5,-114.5 165.5,-114.5"/>
<text text-anchor="middle" x="222" y="-121.5" font-family="Helvetica,sans-Serif" font-size="10.00">BaseCommunicator</text>
</a>
</g>
</g>
<!-- Node79&#45;&gt;Node0 -->
<g id="edge1" class="edge">
<title>Node79&#45;&gt;Node0</title>
<path fill="none" stroke="midnightblue" d="M91.7,-80.48C109.97,-88.14 133.6,-97.64 155,-105 164.7,-108.34 175.33,-111.57 185.17,-114.4"/>
<polygon fill="midnightblue" stroke="midnightblue" points="92.98,-77.22 82.41,-76.55 90.26,-83.67 92.98,-77.22"/>
</g>
<!-- Node81 -->
<g id="node3" class="node">
<title>Node81</title>
<g id="a_node3"><a xlink:href="class_con_data_communicator.html" target="_top" xlink:title=" ">
<polygon fill="none" stroke="black" points="156.5,-76.5 156.5,-95.5 287.5,-95.5 287.5,-76.5 156.5,-76.5"/>
<text text-anchor="middle" x="222" y="-83.5" font-family="Helvetica,sans-Serif" font-size="10.00">ConDataCommunicator</text>
</a>
</g>
</g>
<!-- Node79&#45;&gt;Node81 -->
<g id="edge2" class="edge">
<title>Node79&#45;&gt;Node81</title>
<path fill="none" stroke="midnightblue" d="M129.39,-75.16C138.38,-76.22 147.56,-77.31 156.47,-78.36"/>
<polygon fill="midnightblue" stroke="midnightblue" points="129.7,-71.67 119.35,-73.97 128.87,-78.62 129.7,-71.67"/>
</g>
<!-- Node82 -->
<g id="node4" class="node">
<title>Node82</title>
<g id="a_node4"><a xlink:href="class_mail_communicator.html" target="_top" xlink:title=" ">
<polygon fill="none" stroke="black" points="167,-38.5 167,-57.5 277,-57.5 277,-38.5 167,-38.5"/>
<text text-anchor="middle" x="222" y="-45.5" font-family="Helvetica,sans-Serif" font-size="10.00">MailCommunicator</text>
</a>
</g>
</g>
<!-- Node79&#45;&gt;Node82 -->
<g id="edge3" class="edge">
<title>Node79&#45;&gt;Node82</title>
<path fill="none" stroke="midnightblue" d="M129.33,-58.85C141.91,-57.36 154.87,-55.83 166.95,-54.4"/>
<polygon fill="midnightblue" stroke="midnightblue" points="128.87,-55.38 119.35,-60.03 129.7,-62.33 128.87,-55.38"/>
</g>
<!-- Node83 -->
<g id="node5" class="node">
<title>Node83</title>
<g id="a_node5"><a xlink:href="class_temp_ban_communicator.html" target="_top" xlink:title=" ">
<polygon fill="none" stroke="black" points="155,-0.5 155,-19.5 289,-19.5 289,-0.5 155,-0.5"/>
<text text-anchor="middle" x="222" y="-7.5" font-family="Helvetica,sans-Serif" font-size="10.00">TempBanCommunicator</text>
</a>
</g>
</g>
<!-- Node79&#45;&gt;Node83 -->
<g id="edge4" class="edge">
<title>Node79&#45;&gt;Node83</title>
<path fill="none" stroke="midnightblue" d="M91.7,-53.52C109.97,-45.86 133.6,-36.36 155,-29 164.7,-25.66 175.33,-22.43 185.17,-19.6"/>
<polygon fill="midnightblue" stroke="midnightblue" points="90.26,-50.33 82.41,-57.45 92.98,-56.78 90.26,-50.33"/>
</g>
</g>
</svg>
