<?xml version="1.0" encoding="UTF-8" standalone="no"?>
<!DOCTYPE svg PUBLIC "-//W3C//DTD SVG 1.1//EN"
 "http://www.w3.org/Graphics/SVG/1.1/DTD/svg11.dtd">
<!-- Generated by graphviz version 2.43.0 (0)
 -->
<!-- Title: plugins/ip_ban/Main.cpp Pages: 1 -->
<svg width="235pt" height="148pt"
 viewBox="0.00 0.00 234.50 148.00" xmlns="http://www.w3.org/2000/svg" xmlns:xlink="http://www.w3.org/1999/xlink">
<g id="graph0" class="graph" transform="scale(1 1) rotate(0) translate(4 144)">
<title>plugins/ip_ban/Main.cpp</title>
<!-- Node1 -->
<g id="node1" class="node">
<title>Node1</title>
<g id="a_node1"><a xlink:title=" ">
<polygon fill="#999999" stroke="#666666" points="193,-140 59,-140 59,-121 193,-121 193,-140"/>
<text text-anchor="middle" x="126" y="-128" font-family="Helvetica,sans-Serif" font-size="10.00">plugins/ip_ban/Main.cpp</text>
</a>
</g>
</g>
<!-- Node2 -->
<g id="node2" class="node">
<title>Node2</title>
<g id="a_node2"><a xlink:href="ip__ban_2_main_8h.html" target="_top" xlink:title=" ">
<polygon fill="white" stroke="#666666" points="103,-79.5 53,-79.5 53,-60.5 103,-60.5 103,-79.5"/>
<text text-anchor="middle" x="78" y="-67.5" font-family="Helvetica,sans-Serif" font-size="10.00">Main.h</text>
</a>
</g>
</g>
<!-- Node1&#45;&gt;Node2 -->
<g id="edge1" class="edge">
<title>Node1&#45;&gt;Node2</title>
<path fill="none" stroke="#63b8ff" d="M118.92,-120.87C111.76,-112.14 100.51,-98.43 91.61,-87.59"/>
<polygon fill="#63b8ff" stroke="#63b8ff" points="94.16,-85.18 85.11,-79.67 88.75,-89.62 94.16,-85.18"/>
</g>
<!-- Node5 -->
<g id="node5" class="node">
<title>Node5</title>
<g id="a_node5"><a xlink:title=" ">
<polygon fill="#e0e0e0" stroke="#999999" points="226.5,-85 121.5,-85 121.5,-55 226.5,-55 226.5,-85"/>
<text text-anchor="start" x="129.5" y="-73" font-family="Helvetica,sans-Serif" font-size="10.00">Tools/Serialization</text>
<text text-anchor="middle" x="174" y="-62" font-family="Helvetica,sans-Serif" font-size="10.00">/Attributes.hpp</text>
</a>
</g>
</g>
<!-- Node1&#45;&gt;Node5 -->
<g id="edge4" class="edge">
<title>Node1&#45;&gt;Node5</title>
<path fill="none" stroke="#63b8ff" d="M133.08,-120.87C139.11,-113.52 148.04,-102.63 156.02,-92.91"/>
<polygon fill="#63b8ff" stroke="#63b8ff" points="158.78,-95.07 162.42,-85.11 153.37,-90.63 158.78,-95.07"/>
</g>
<!-- Node3 -->
<g id="node3" class="node">
<title>Node3</title>
<g id="a_node3"><a xlink:title=" ">
<polygon fill="#e0e0e0" stroke="#999999" points="74,-19 0,-19 0,0 74,0 74,-19"/>
<text text-anchor="middle" x="37" y="-7" font-family="Helvetica,sans-Serif" font-size="10.00">FLHook.hpp</text>
</a>
</g>
</g>
<!-- Node2&#45;&gt;Node3 -->
<g id="edge2" class="edge">
<title>Node2&#45;&gt;Node3</title>
<path fill="none" stroke="#63b8ff" d="M71.95,-60.37C65.89,-51.73 56.41,-38.2 48.86,-27.42"/>
<polygon fill="#63b8ff" stroke="#63b8ff" points="51.68,-25.35 43.07,-19.17 45.95,-29.37 51.68,-25.35"/>
</g>
<!-- Node4 -->
<g id="node4" class="node">
<title>Node4</title>
<g id="a_node4"><a xlink:title=" ">
<polygon fill="#e0e0e0" stroke="#999999" points="148,-19 92,-19 92,0 148,0 148,-19"/>
<text text-anchor="middle" x="120" y="-7" font-family="Helvetica,sans-Serif" font-size="10.00">plugin.h</text>
</a>
</g>
</g>
<!-- Node2&#45;&gt;Node4 -->
<g id="edge3" class="edge">
<title>Node2&#45;&gt;Node4</title>
<path fill="none" stroke="#63b8ff" d="M84.2,-60.37C90.4,-51.73 100.11,-38.2 107.86,-27.42"/>
<polygon fill="#63b8ff" stroke="#63b8ff" points="110.79,-29.33 113.78,-19.17 105.1,-25.25 110.79,-29.33"/>
</g>
</g>
</svg>
