<?xml version="1.0" encoding="UTF-8" standalone="no"?>
<!DOCTYPE svg PUBLIC "-//W3C//DTD SVG 1.1//EN"
 "http://www.w3.org/Graphics/SVG/1.1/DTD/svg11.dtd">
<!-- Generated by graphviz version 2.43.0 (0)
 -->
<!-- Title: plugins/mark/Main.h Pages: 1 -->
<svg width="660pt" height="82pt"
 viewBox="0.00 0.00 660.00 82.00" xmlns="http://www.w3.org/2000/svg" xmlns:xlink="http://www.w3.org/1999/xlink">
<g id="graph0" class="graph" transform="scale(1 1) rotate(0) translate(4 78)">
<title>plugins/mark/Main.h</title>
<!-- Node1 -->
<g id="node1" class="node">
<title>Node1</title>
<g id="a_node1"><a xlink:title=" ">
<polygon fill="#999999" stroke="#666666" points="365,-74 249,-74 249,-55 365,-55 365,-74"/>
<text text-anchor="middle" x="307" y="-62" font-family="Helvetica,sans-Serif" font-size="10.00">plugins/mark/Main.h</text>
</a>
</g>
</g>
<!-- Node2 -->
<g id="node2" class="node">
<title>Node2</title>
<g id="a_node2"><a xlink:href="_functions_8cpp.html" target="_top" xlink:title=" ">
<polygon fill="white" stroke="#666666" points="150,-19 0,-19 0,0 150,0 150,-19"/>
<text text-anchor="middle" x="75" y="-7" font-family="Helvetica,sans-Serif" font-size="10.00">plugins/mark/Functions.cpp</text>
</a>
</g>
</g>
<!-- Node1&#45;&gt;Node2 -->
<g id="edge1" class="edge">
<title>Node1&#45;&gt;Node2</title>
<path fill="none" stroke="#63b8ff" d="M259.96,-52.75C216.48,-42.82 152.73,-28.26 112.57,-19.08"/>
<polygon fill="#63b8ff" stroke="#63b8ff" points="259.2,-56.17 269.73,-54.98 260.76,-49.35 259.2,-56.17"/>
</g>
<!-- Node3 -->
<g id="node3" class="node">
<title>Node3</title>
<g id="a_node3"><a xlink:href="mark_2_main_8cpp.html" target="_top" xlink:title=" ">
<polygon fill="white" stroke="#666666" points="296,-19 168,-19 168,0 296,0 296,-19"/>
<text text-anchor="middle" x="232" y="-7" font-family="Helvetica,sans-Serif" font-size="10.00">plugins/mark/Main.cpp</text>
</a>
</g>
</g>
<!-- Node1&#45;&gt;Node3 -->
<g id="edge2" class="edge">
<title>Node1&#45;&gt;Node3</title>
<path fill="none" stroke="#63b8ff" d="M286.69,-49.15C273.14,-39.57 255.76,-27.29 244.27,-19.17"/>
<polygon fill="#63b8ff" stroke="#63b8ff" points="284.76,-52.07 294.95,-54.98 288.8,-46.36 284.76,-52.07"/>
</g>
<!-- Node4 -->
<g id="node4" class="node">
<title>Node4</title>
<g id="a_node4"><a xlink:href="plugins_2mark_2_timers_8cpp.html" target="_top" xlink:title=" ">
<polygon fill="white" stroke="#666666" points="451.5,-19 314.5,-19 314.5,0 451.5,0 451.5,-19"/>
<text text-anchor="middle" x="383" y="-7" font-family="Helvetica,sans-Serif" font-size="10.00">plugins/mark/Timers.cpp</text>
</a>
</g>
</g>
<!-- Node1&#45;&gt;Node4 -->
<g id="edge3" class="edge">
<title>Node1&#45;&gt;Node4</title>
<path fill="none" stroke="#63b8ff" d="M327.58,-49.15C341.31,-39.57 358.93,-27.29 370.57,-19.17"/>
<polygon fill="#63b8ff" stroke="#63b8ff" points="325.41,-46.39 319.21,-54.98 329.42,-52.14 325.41,-46.39"/>
</g>
<!-- Node5 -->
<g id="node5" class="node">
<title>Node5</title>
<g id="a_node5"><a xlink:href="plugins_2mark_2_user_commands_8cpp.html" target="_top" xlink:title=" ">
<polygon fill="white" stroke="#666666" points="652,-19 470,-19 470,0 652,0 652,-19"/>
<text text-anchor="middle" x="561" y="-7" font-family="Helvetica,sans-Serif" font-size="10.00">plugins/mark/UserCommands.cpp</text>
</a>
</g>
</g>
<!-- Node1&#45;&gt;Node5 -->
<g id="edge4" class="edge">
<title>Node1&#45;&gt;Node5</title>
<path fill="none" stroke="#63b8ff" d="M357.61,-52.94C405.22,-43.01 475.62,-28.31 519.87,-19.08"/>
<polygon fill="#63b8ff" stroke="#63b8ff" points="356.88,-49.52 347.81,-54.98 358.31,-56.37 356.88,-49.52"/>
</g>
</g>
</svg>
