<?xml version="1.0" encoding="UTF-8" standalone="no"?>
<!DOCTYPE svg PUBLIC "-//W3C//DTD SVG 1.1//EN"
 "http://www.w3.org/Graphics/SVG/1.1/DTD/svg11.dtd">
<!-- Generated by graphviz version 2.43.0 (0)
 -->
<!-- Title: plugins/message/Main.cpp Pages: 1 -->
<svg width="234pt" height="192pt"
 viewBox="0.00 0.00 234.00 192.00" xmlns="http://www.w3.org/2000/svg" xmlns:xlink="http://www.w3.org/1999/xlink">
<g id="graph0" class="graph" transform="scale(1 1) rotate(0) translate(4 188)">
<title>plugins/message/Main.cpp</title>
<!-- Node1 -->
<g id="node1" class="node">
<title>Node1</title>
<g id="a_node1"><a xlink:title=" ">
<polygon fill="#999999" stroke="#666666" points="199,-184 53,-184 53,-165 199,-165 199,-184"/>
<text text-anchor="middle" x="126" y="-172" font-family="Helvetica,sans-Serif" font-size="10.00">plugins/message/Main.cpp</text>
</a>
</g>
</g>
<!-- Node2 -->
<g id="node2" class="node">
<title>Node2</title>
<g id="a_node2"><a xlink:href="message_2_main_8h.html" target="_top" xlink:title=" ">
<polygon fill="white" stroke="#666666" points="104,-129 54,-129 54,-110 104,-110 104,-129"/>
<text text-anchor="middle" x="79" y="-117" font-family="Helvetica,sans-Serif" font-size="10.00">Main.h</text>
</a>
</g>
</g>
<!-- Node1&#45;&gt;Node2 -->
<g id="edge1" class="edge">
<title>Node1&#45;&gt;Node2</title>
<path fill="none" stroke="#63b8ff" d="M118.24,-164.75C111.53,-157.18 101.66,-146.05 93.49,-136.84"/>
<polygon fill="#63b8ff" stroke="#63b8ff" points="95.87,-134.25 86.62,-129.09 90.63,-138.89 95.87,-134.25"/>
</g>
<!-- Node6 -->
<g id="node6" class="node">
<title>Node6</title>
<g id="a_node6"><a xlink:title=" ">
<polygon fill="#e0e0e0" stroke="#999999" points="226,-129 122,-129 122,-110 226,-110 226,-129"/>
<text text-anchor="middle" x="174" y="-117" font-family="Helvetica,sans-Serif" font-size="10.00">Features/Mail.hpp</text>
</a>
</g>
</g>
<!-- Node1&#45;&gt;Node6 -->
<g id="edge7" class="edge">
<title>Node1&#45;&gt;Node6</title>
<path fill="none" stroke="#63b8ff" d="M133.93,-164.75C140.85,-157.11 151.07,-145.82 159.45,-136.56"/>
<polygon fill="#63b8ff" stroke="#63b8ff" points="162.1,-138.85 166.22,-129.09 156.91,-134.15 162.1,-138.85"/>
</g>
<!-- Node3 -->
<g id="node3" class="node">
<title>Node3</title>
<g id="a_node3"><a xlink:title=" ">
<polygon fill="#e0e0e0" stroke="#999999" points="74,-19 0,-19 0,0 74,0 74,-19"/>
<text text-anchor="middle" x="37" y="-7" font-family="Helvetica,sans-Serif" font-size="10.00">FLHook.hpp</text>
</a>
</g>
</g>
<!-- Node2&#45;&gt;Node3 -->
<g id="edge2" class="edge">
<title>Node2&#45;&gt;Node3</title>
<path fill="none" stroke="#63b8ff" d="M58.48,-110C43.98,-102.77 25.65,-90.86 17,-74 9.36,-59.11 16.76,-40.74 24.64,-27.59"/>
<polygon fill="#63b8ff" stroke="#63b8ff" points="27.67,-29.35 30.25,-19.07 21.83,-25.5 27.67,-29.35"/>
</g>
<!-- Node4 -->
<g id="node4" class="node">
<title>Node4</title>
<g id="a_node4"><a xlink:title=" ">
<polygon fill="#e0e0e0" stroke="#999999" points="168,-19 112,-19 112,0 168,0 168,-19"/>
<text text-anchor="middle" x="140" y="-7" font-family="Helvetica,sans-Serif" font-size="10.00">plugin.h</text>
</a>
</g>
</g>
<!-- Node2&#45;&gt;Node4 -->
<g id="edge3" class="edge">
<title>Node2&#45;&gt;Node4</title>
<path fill="none" stroke="#63b8ff" d="M99.52,-110C114.02,-102.77 132.35,-90.86 141,-74 148.08,-60.21 147.08,-42.41 144.74,-29.16"/>
<polygon fill="#63b8ff" stroke="#63b8ff" points="148.14,-28.33 142.61,-19.3 141.3,-29.81 148.14,-28.33"/>
</g>
<!-- Node5 -->
<g id="node5" class="node">
<title>Node5</title>
<g id="a_node5"><a xlink:href="tempban_2_main_8h.html" target="_top" xlink:title=" ">
<polygon fill="white" stroke="#666666" points="131.5,-74 26.5,-74 26.5,-55 131.5,-55 131.5,-74"/>
<text text-anchor="middle" x="79" y="-62" font-family="Helvetica,sans-Serif" font-size="10.00">../tempban/Main.h</text>
</a>
</g>
</g>
<!-- Node2&#45;&gt;Node5 -->
<g id="edge4" class="edge">
<title>Node2&#45;&gt;Node5</title>
<path fill="none" stroke="#63b8ff" d="M79,-109.75C79,-102.8 79,-92.85 79,-84.13"/>
<polygon fill="#63b8ff" stroke="#63b8ff" points="82.5,-84.09 79,-74.09 75.5,-84.09 82.5,-84.09"/>
</g>
<!-- Node5&#45;&gt;Node3 -->
<g id="edge5" class="edge">
<title>Node5&#45;&gt;Node3</title>
<path fill="none" stroke="#63b8ff" d="M72.06,-54.75C66.13,-47.26 57.43,-36.28 50.18,-27.13"/>
<polygon fill="#63b8ff" stroke="#63b8ff" points="52.76,-24.75 43.81,-19.09 47.27,-29.1 52.76,-24.75"/>
</g>
<!-- Node5&#45;&gt;Node4 -->
<g id="edge6" class="edge">
<title>Node5&#45;&gt;Node4</title>
<path fill="none" stroke="#63b8ff" d="M88.8,-54.98C97.82,-47.15 111.41,-35.34 122.32,-25.86"/>
<polygon fill="#63b8ff" stroke="#63b8ff" points="124.77,-28.37 130.02,-19.17 120.18,-23.09 124.77,-28.37"/>
</g>
</g>
</svg>
