<?xml version="1.0" encoding="UTF-8" standalone="no"?>
<!DOCTYPE svg PUBLIC "-//W3C//DTD SVG 1.1//EN"
 "http://www.w3.org/Graphics/SVG/1.1/DTD/svg11.dtd">
<!-- Generated by graphviz version 2.43.0 (0)
 -->
<!-- Title: plugins/mobiledocking_plugin/Main.cpp Pages: 1 -->
<svg width="158pt" height="151pt"
 viewBox="0.00 0.00 158.00 151.00" xmlns="http://www.w3.org/2000/svg" xmlns:xlink="http://www.w3.org/1999/xlink">
<g id="graph0" class="graph" transform="scale(1 1) rotate(0) translate(4 147)">
<title>plugins/mobiledocking_plugin/Main.cpp</title>
<!-- Node1 -->
<g id="node1" class="node">
<title>Node1</title>
<g id="a_node1"><a xlink:title=" ">
<polygon fill="#bfbfbf" stroke="black" points="13.5,-112.5 13.5,-142.5 140.5,-142.5 140.5,-112.5 13.5,-112.5"/>
<text text-anchor="start" x="21.5" y="-130.5" font-family="Helvetica,sans-Serif" font-size="10.00">plugins/mobiledocking</text>
<text text-anchor="middle" x="77" y="-119.5" font-family="Helvetica,sans-Serif" font-size="10.00">_plugin/Main.cpp</text>
</a>
</g>
</g>
<!-- Node2 -->
<g id="node2" class="node">
<title>Node2</title>
<g id="a_node2"><a xlink:href="mobiledocking__plugin_2main_8h.html" target="_top" xlink:title=" ">
<polygon fill="none" stroke="black" points="52,-56.5 52,-75.5 102,-75.5 102,-56.5 52,-56.5"/>
<text text-anchor="middle" x="77" y="-63.5" font-family="Helvetica,sans-Serif" font-size="10.00">Main.h</text>
</a>
</g>
</g>
<!-- Node1&#45;&gt;Node2 -->
<g id="edge1" class="edge">
<title>Node1&#45;&gt;Node2</title>
<path fill="none" stroke="midnightblue" d="M77,-112.4C77,-104.47 77,-94.46 77,-85.86"/>
<polygon fill="midnightblue" stroke="midnightblue" points="80.5,-85.66 77,-75.66 73.5,-85.66 80.5,-85.66"/>
</g>
<!-- Node3 -->
<g id="node3" class="node">
<title>Node3</title>
<g id="a_node3"><a xlink:title=" ">
<polygon fill="none" stroke="#bfbfbf" points="0,-0.5 0,-19.5 62,-19.5 62,-0.5 0,-0.5"/>
<text text-anchor="middle" x="31" y="-7.5" font-family="Helvetica,sans-Serif" font-size="10.00">FLHook.h</text>
</a>
</g>
</g>
<!-- Node1&#45;&gt;Node3 -->
<g id="edge4" class="edge">
<title>Node1&#45;&gt;Node3</title>
<path fill="none" stroke="midnightblue" d="M65.17,-112.39C57.69,-102.73 48.43,-89.31 43,-76 36.96,-61.21 33.94,-43.28 32.44,-30"/>
<polygon fill="midnightblue" stroke="midnightblue" points="35.9,-29.36 31.48,-19.73 28.93,-30.01 35.9,-29.36"/>
</g>
<!-- Node4 -->
<g id="node4" class="node">
<title>Node4</title>
<g id="a_node4"><a xlink:title=" ">
<polygon fill="none" stroke="#bfbfbf" points="94,-0.5 94,-19.5 150,-19.5 150,-0.5 94,-0.5"/>
<text text-anchor="middle" x="122" y="-7.5" font-family="Helvetica,sans-Serif" font-size="10.00">plugin.h</text>
</a>
</g>
</g>
<!-- Node1&#45;&gt;Node4 -->
<g id="edge5" class="edge">
<title>Node1&#45;&gt;Node4</title>
<path fill="none" stroke="midnightblue" d="M88.89,-112.41C96.4,-102.77 105.67,-89.35 111,-76 116.91,-61.2 119.65,-43.28 120.91,-30"/>
<polygon fill="midnightblue" stroke="midnightblue" points="124.42,-29.96 121.69,-19.73 117.44,-29.43 124.42,-29.96"/>
</g>
<!-- Node2&#45;&gt;Node3 -->
<g id="edge2" class="edge">
<title>Node2&#45;&gt;Node3</title>
<path fill="none" stroke="midnightblue" d="M69.4,-56.08C62.77,-48.3 52.98,-36.8 44.94,-27.37"/>
<polygon fill="midnightblue" stroke="midnightblue" points="47.6,-25.09 38.45,-19.75 42.27,-29.63 47.6,-25.09"/>
</g>
<!-- Node2&#45;&gt;Node4 -->
<g id="edge3" class="edge">
<title>Node2&#45;&gt;Node4</title>
<path fill="none" stroke="midnightblue" d="M84.43,-56.08C90.85,-48.38 100.31,-37.03 108.12,-27.65"/>
<polygon fill="midnightblue" stroke="midnightblue" points="110.99,-29.67 114.71,-19.75 105.62,-25.19 110.99,-29.67"/>
</g>
</g>
</svg>
