<?xml version="1.0" encoding="UTF-8" standalone="no"?>
<!DOCTYPE svg PUBLIC "-//W3C//DTD SVG 1.1//EN"
 "http://www.w3.org/Graphics/SVG/1.1/DTD/svg11.dtd">
<!-- Generated by graphviz version 2.43.0 (0)
 -->
<!-- Title: plugins/npc_control/Main.h Pages: 1 -->
<svg width="568pt" height="104pt"
 viewBox="0.00 0.00 568.00 104.00" xmlns="http://www.w3.org/2000/svg" xmlns:xlink="http://www.w3.org/1999/xlink">
<g id="graph0" class="graph" transform="scale(1 1) rotate(0) translate(4 100)">
<title>plugins/npc_control/Main.h</title>
<!-- Node1 -->
<g id="node1" class="node">
<title>Node1</title>
<g id="a_node1"><a xlink:title=" ">
<polygon fill="#999999" stroke="#666666" points="321.5,-96 210.5,-96 210.5,-66 321.5,-66 321.5,-96"/>
<text text-anchor="start" x="218.5" y="-84" font-family="Helvetica,sans-Serif" font-size="10.00">plugins/npc_control</text>
<text text-anchor="middle" x="266" y="-73" font-family="Helvetica,sans-Serif" font-size="10.00">/Main.h</text>
</a>
</g>
</g>
<!-- Node2 -->
<g id="node2" class="node">
<title>Node2</title>
<g id="a_node2"><a xlink:title=" ">
<polygon fill="#e0e0e0" stroke="#999999" points="74,-24.5 0,-24.5 0,-5.5 74,-5.5 74,-24.5"/>
<text text-anchor="middle" x="37" y="-12.5" font-family="Helvetica,sans-Serif" font-size="10.00">FLHook.hpp</text>
</a>
</g>
</g>
<!-- Node1&#45;&gt;Node2 -->
<g id="edge1" class="edge">
<title>Node1&#45;&gt;Node2</title>
<path fill="none" stroke="#63b8ff" d="M213.03,-65.96C176.43,-56.15 126.67,-42.61 83,-30 80.22,-29.2 77.35,-28.35 74.46,-27.5"/>
<polygon fill="#63b8ff" stroke="#63b8ff" points="75.28,-24.09 64.69,-24.57 73.27,-30.79 75.28,-24.09"/>
</g>
<!-- Node3 -->
<g id="node3" class="node">
<title>Node3</title>
<g id="a_node3"><a xlink:title=" ">
<polygon fill="#e0e0e0" stroke="#999999" points="148,-24.5 92,-24.5 92,-5.5 148,-5.5 148,-24.5"/>
<text text-anchor="middle" x="120" y="-12.5" font-family="Helvetica,sans-Serif" font-size="10.00">plugin.h</text>
</a>
</g>
</g>
<!-- Node1&#45;&gt;Node3 -->
<g id="edge2" class="edge">
<title>Node1&#45;&gt;Node3</title>
<path fill="none" stroke="#63b8ff" d="M233.96,-65.95C208.58,-54.83 173.44,-39.42 148.91,-28.67"/>
<polygon fill="#63b8ff" stroke="#63b8ff" points="149.99,-25.33 139.43,-24.52 147.18,-31.74 149.99,-25.33"/>
</g>
<!-- Node4 -->
<g id="node4" class="node">
<title>Node4</title>
<g id="a_node4"><a xlink:title=" ">
<polygon fill="#e0e0e0" stroke="#999999" points="257.5,-24.5 166.5,-24.5 166.5,-5.5 257.5,-5.5 257.5,-24.5"/>
<text text-anchor="middle" x="212" y="-12.5" font-family="Helvetica,sans-Serif" font-size="10.00">spdlog/logger.h</text>
</a>
</g>
</g>
<!-- Node1&#45;&gt;Node4 -->
<g id="edge3" class="edge">
<title>Node1&#45;&gt;Node4</title>
<path fill="none" stroke="#63b8ff" d="M254.02,-65.8C245.76,-56.01 234.76,-42.98 226.09,-32.7"/>
<polygon fill="#63b8ff" stroke="#63b8ff" points="228.59,-30.23 219.46,-24.84 223.24,-34.74 228.59,-30.23"/>
</g>
<!-- Node5 -->
<g id="node5" class="node">
<title>Node5</title>
<g id="a_node5"><a xlink:title=" ">
<polygon fill="#e0e0e0" stroke="#999999" points="364.5,-24.5 275.5,-24.5 275.5,-5.5 364.5,-5.5 364.5,-24.5"/>
<text text-anchor="middle" x="320" y="-12.5" font-family="Helvetica,sans-Serif" font-size="10.00">spdlog/async.h</text>
</a>
</g>
</g>
<!-- Node1&#45;&gt;Node5 -->
<g id="edge4" class="edge">
<title>Node1&#45;&gt;Node5</title>
<path fill="none" stroke="#63b8ff" d="M277.98,-65.8C286.24,-56.01 297.24,-42.98 305.91,-32.7"/>
<polygon fill="#63b8ff" stroke="#63b8ff" points="308.76,-34.74 312.54,-24.84 303.41,-30.23 308.76,-34.74"/>
</g>
<!-- Node6 -->
<g id="node6" class="node">
<title>Node6</title>
<g id="a_node6"><a xlink:title=" ">
<polygon fill="#e0e0e0" stroke="#999999" points="488,-30 382,-30 382,0 488,0 488,-30"/>
<text text-anchor="start" x="390" y="-18" font-family="Helvetica,sans-Serif" font-size="10.00">spdlog/sinks/basic</text>
<text text-anchor="middle" x="435" y="-7" font-family="Helvetica,sans-Serif" font-size="10.00">_file_sink.h</text>
</a>
</g>
</g>
<!-- Node1&#45;&gt;Node6 -->
<g id="edge5" class="edge">
<title>Node1&#45;&gt;Node6</title>
<path fill="none" stroke="#63b8ff" d="M303.09,-65.95C328.18,-56.45 361.53,-43.82 388.41,-33.64"/>
<polygon fill="#63b8ff" stroke="#63b8ff" points="389.89,-36.83 398,-30.01 387.41,-30.28 389.89,-36.83"/>
</g>
<!-- Node7 -->
<g id="node7" class="node">
<title>Node7</title>
<g id="a_node7"><a xlink:title=" ">
<polygon fill="#e0e0e0" stroke="#999999" points="560,-24.5 506,-24.5 506,-5.5 560,-5.5 560,-24.5"/>
<text text-anchor="middle" x="533" y="-12.5" font-family="Helvetica,sans-Serif" font-size="10.00">random</text>
</a>
</g>
</g>
<!-- Node1&#45;&gt;Node7 -->
<g id="edge6" class="edge">
<title>Node1&#45;&gt;Node7</title>
<path fill="none" stroke="#63b8ff" d="M321.7,-70.5C368.88,-61.84 438.06,-47.72 497,-30 498.93,-29.42 500.9,-28.79 502.87,-28.11"/>
<polygon fill="#63b8ff" stroke="#63b8ff" points="504.43,-31.27 512.63,-24.56 502.04,-24.69 504.43,-31.27"/>
</g>
</g>
</svg>
