<?xml version="1.0" encoding="UTF-8" standalone="no"?>
<!DOCTYPE svg PUBLIC "-//W3C//DTD SVG 1.1//EN"
 "http://www.w3.org/Graphics/SVG/1.1/DTD/svg11.dtd">
<!-- Generated by graphviz version 2.43.0 (0)
 -->
<!-- Title: plugins/npc_control/Main.h Pages: 1 -->
<svg width="496pt" height="104pt"
 viewBox="0.00 0.00 496.00 104.00" xmlns="http://www.w3.org/2000/svg" xmlns:xlink="http://www.w3.org/1999/xlink">
<g id="graph0" class="graph" transform="scale(1 1) rotate(0) translate(4 100)">
<title>plugins/npc_control/Main.h</title>
<!-- Node1 -->
<g id="node1" class="node">
<title>Node1</title>
<g id="a_node1"><a xlink:title=" ">
<polygon fill="#999999" stroke="#666666" points="267.5,-96 156.5,-96 156.5,-66 267.5,-66 267.5,-96"/>
<text text-anchor="start" x="164.5" y="-84" font-family="Helvetica,sans-Serif" font-size="10.00">plugins/npc_control</text>
<text text-anchor="middle" x="212" y="-73" font-family="Helvetica,sans-Serif" font-size="10.00">/Main.h</text>
</a>
</g>
</g>
<!-- Node2 -->
<g id="node2" class="node">
<title>Node2</title>
<g id="a_node2"><a xlink:title=" ">
<polygon fill="#e0e0e0" stroke="#999999" points="74,-24.5 0,-24.5 0,-5.5 74,-5.5 74,-24.5"/>
<text text-anchor="middle" x="37" y="-12.5" font-family="Helvetica,sans-Serif" font-size="10.00">FLHook.hpp</text>
</a>
</g>
</g>
<!-- Node1&#45;&gt;Node2 -->
<g id="edge1" class="edge">
<title>Node1&#45;&gt;Node2</title>
<path fill="none" stroke="#63b8ff" d="M173.6,-65.95C142.5,-54.58 99.17,-38.74 69.71,-27.96"/>
<polygon fill="#63b8ff" stroke="#63b8ff" points="70.88,-24.66 60.29,-24.52 68.48,-31.24 70.88,-24.66"/>
</g>
<!-- Node3 -->
<g id="node3" class="node">
<title>Node3</title>
<g id="a_node3"><a xlink:title=" ">
<polygon fill="#e0e0e0" stroke="#999999" points="148,-24.5 92,-24.5 92,-5.5 148,-5.5 148,-24.5"/>
<text text-anchor="middle" x="120" y="-12.5" font-family="Helvetica,sans-Serif" font-size="10.00">plugin.h</text>
</a>
</g>
</g>
<!-- Node1&#45;&gt;Node3 -->
<g id="edge2" class="edge">
<title>Node1&#45;&gt;Node3</title>
<path fill="none" stroke="#63b8ff" d="M191.58,-65.8C176.45,-55.27 155.9,-40.97 140.7,-30.4"/>
<polygon fill="#63b8ff" stroke="#63b8ff" points="142.65,-27.5 132.45,-24.66 138.66,-33.24 142.65,-27.5"/>
</g>
<!-- Node4 -->
<g id="node4" class="node">
<title>Node4</title>
<g id="a_node4"><a xlink:title=" ">
<polygon fill="#e0e0e0" stroke="#999999" points="257.5,-24.5 166.5,-24.5 166.5,-5.5 257.5,-5.5 257.5,-24.5"/>
<text text-anchor="middle" x="212" y="-12.5" font-family="Helvetica,sans-Serif" font-size="10.00">spdlog/logger.h</text>
</a>
</g>
</g>
<!-- Node1&#45;&gt;Node4 -->
<g id="edge3" class="edge">
<title>Node1&#45;&gt;Node4</title>
<path fill="none" stroke="#63b8ff" d="M212,-65.8C212,-56.7 212,-44.79 212,-34.9"/>
<polygon fill="#63b8ff" stroke="#63b8ff" points="215.5,-34.84 212,-24.84 208.5,-34.84 215.5,-34.84"/>
</g>
<!-- Node5 -->
<g id="node5" class="node">
<title>Node5</title>
<g id="a_node5"><a xlink:title=" ">
<polygon fill="#e0e0e0" stroke="#999999" points="364.5,-24.5 275.5,-24.5 275.5,-5.5 364.5,-5.5 364.5,-24.5"/>
<text text-anchor="middle" x="320" y="-12.5" font-family="Helvetica,sans-Serif" font-size="10.00">spdlog/async.h</text>
</a>
</g>
</g>
<!-- Node1&#45;&gt;Node5 -->
<g id="edge4" class="edge">
<title>Node1&#45;&gt;Node5</title>
<path fill="none" stroke="#63b8ff" d="M235.7,-65.95C253.89,-55.18 278.86,-40.38 296.9,-29.69"/>
<polygon fill="#63b8ff" stroke="#63b8ff" points="298.81,-32.63 305.63,-24.52 295.24,-26.6 298.81,-32.63"/>
</g>
<!-- Node6 -->
<g id="node6" class="node">
<title>Node6</title>
<g id="a_node6"><a xlink:title=" ">
<polygon fill="#e0e0e0" stroke="#999999" points="488,-30 382,-30 382,0 488,0 488,-30"/>
<text text-anchor="start" x="390" y="-18" font-family="Helvetica,sans-Serif" font-size="10.00">spdlog/sinks/basic</text>
<text text-anchor="middle" x="435" y="-7" font-family="Helvetica,sans-Serif" font-size="10.00">_file_sink.h</text>
</a>
</g>
</g>
<!-- Node1&#45;&gt;Node6 -->
<g id="edge5" class="edge">
<title>Node1&#45;&gt;Node6</title>
<path fill="none" stroke="#63b8ff" d="M260.94,-65.95C294.92,-56.2 340.38,-43.16 376.31,-32.84"/>
<polygon fill="#63b8ff" stroke="#63b8ff" points="377.53,-36.14 386.18,-30.01 375.6,-29.41 377.53,-36.14"/>
</g>
</g>
</svg>
