<?xml version="1.0" encoding="UTF-8" standalone="no"?>
<!DOCTYPE svg PUBLIC "-//W3C//DTD SVG 1.1//EN"
 "http://www.w3.org/Graphics/SVG/1.1/DTD/svg11.dtd">
<!-- Generated by graphviz version 2.43.0 (0)
 -->
<!-- Title: plugins/npc_control_plugin/Main.cpp Pages: 1 -->
<svg width="296pt" height="95pt"
 viewBox="0.00 0.00 296.00 95.00" xmlns="http://www.w3.org/2000/svg" xmlns:xlink="http://www.w3.org/1999/xlink">
<g id="graph0" class="graph" transform="scale(1 1) rotate(0) translate(4 91)">
<title>plugins/npc_control_plugin/Main.cpp</title>
<!-- Node1 -->
<g id="node1" class="node">
<title>Node1</title>
<g id="a_node1"><a xlink:title=" ">
<polygon fill="#bfbfbf" stroke="black" points="92.5,-56.5 92.5,-86.5 203.5,-86.5 203.5,-56.5 92.5,-56.5"/>
<text text-anchor="start" x="100.5" y="-74.5" font-family="Helvetica,sans-Serif" font-size="10.00">plugins/npc_control</text>
<text text-anchor="middle" x="148" y="-63.5" font-family="Helvetica,sans-Serif" font-size="10.00">_plugin/Main.cpp</text>
</a>
</g>
</g>
<!-- Node2 -->
<g id="node2" class="node">
<title>Node2</title>
<g id="a_node2"><a xlink:title=" ">
<polygon fill="none" stroke="#bfbfbf" points="0,-0.5 0,-19.5 62,-19.5 62,-0.5 0,-0.5"/>
<text text-anchor="middle" x="31" y="-7.5" font-family="Helvetica,sans-Serif" font-size="10.00">FLHook.h</text>
</a>
</g>
</g>
<!-- Node1&#45;&gt;Node2 -->
<g id="edge1" class="edge">
<title>Node1&#45;&gt;Node2</title>
<path fill="none" stroke="midnightblue" d="M120.27,-56.4C101.17,-46.68 75.94,-33.86 57.18,-24.31"/>
<polygon fill="midnightblue" stroke="midnightblue" points="58.52,-21.07 48.02,-19.66 55.35,-27.31 58.52,-21.07"/>
</g>
<!-- Node3 -->
<g id="node3" class="node">
<title>Node3</title>
<g id="a_node3"><a xlink:title=" ">
<polygon fill="none" stroke="#bfbfbf" points="80,-0.5 80,-19.5 140,-19.5 140,-0.5 80,-0.5"/>
<text text-anchor="middle" x="110" y="-7.5" font-family="Helvetica,sans-Serif" font-size="10.00">iostream</text>
</a>
</g>
</g>
<!-- Node1&#45;&gt;Node3 -->
<g id="edge2" class="edge">
<title>Node1&#45;&gt;Node3</title>
<path fill="none" stroke="midnightblue" d="M138.99,-56.4C133.59,-47.93 126.67,-37.1 120.95,-28.14"/>
<polygon fill="midnightblue" stroke="midnightblue" points="123.86,-26.2 115.53,-19.66 117.96,-29.97 123.86,-26.2"/>
</g>
<!-- Node4 -->
<g id="node4" class="node">
<title>Node4</title>
<g id="a_node4"><a xlink:title=" ">
<polygon fill="none" stroke="#bfbfbf" points="158,-0.5 158,-19.5 214,-19.5 214,-0.5 158,-0.5"/>
<text text-anchor="middle" x="186" y="-7.5" font-family="Helvetica,sans-Serif" font-size="10.00">plugin.h</text>
</a>
</g>
</g>
<!-- Node1&#45;&gt;Node4 -->
<g id="edge3" class="edge">
<title>Node1&#45;&gt;Node4</title>
<path fill="none" stroke="midnightblue" d="M157.01,-56.4C162.41,-47.93 169.33,-37.1 175.05,-28.14"/>
<polygon fill="midnightblue" stroke="midnightblue" points="178.04,-29.97 180.47,-19.66 172.14,-26.2 178.04,-29.97"/>
</g>
<!-- Node5 -->
<g id="node5" class="node">
<title>Node5</title>
<g id="a_node5"><a xlink:title=" ">
<polygon fill="none" stroke="#bfbfbf" points="232,-0.5 232,-19.5 288,-19.5 288,-0.5 232,-0.5"/>
<text text-anchor="middle" x="260" y="-7.5" font-family="Helvetica,sans-Serif" font-size="10.00">sstream</text>
</a>
</g>
</g>
<!-- Node1&#45;&gt;Node5 -->
<g id="edge4" class="edge">
<title>Node1&#45;&gt;Node5</title>
<path fill="none" stroke="midnightblue" d="M174.54,-56.4C192.66,-46.77 216.54,-34.09 234.44,-24.58"/>
<polygon fill="midnightblue" stroke="midnightblue" points="236.51,-27.44 243.7,-19.66 233.23,-21.26 236.51,-27.44"/>
</g>
</g>
</svg>
