<?xml version="1.0" encoding="UTF-8" standalone="no"?>
<!DOCTYPE svg PUBLIC "-//W3C//DTD SVG 1.1//EN"
 "http://www.w3.org/Graphics/SVG/1.1/DTD/svg11.dtd">
<!-- Generated by graphviz version 2.43.0 (0)
 -->
<!-- Title: plugins/npc_control/Main.cpp Pages: 1 -->
<svg width="568pt" height="170pt"
 viewBox="0.00 0.00 568.00 170.00" xmlns="http://www.w3.org/2000/svg" xmlns:xlink="http://www.w3.org/1999/xlink">
<g id="graph0" class="graph" transform="scale(1 1) rotate(0) translate(4 166)">
<title>plugins/npc_control/Main.cpp</title>
<!-- Node1 -->
<g id="node1" class="node">
<title>Node1</title>
<g id="a_node1"><a xlink:title=" ">
<polygon fill="#999999" stroke="#666666" points="369.5,-162 258.5,-162 258.5,-132 369.5,-132 369.5,-162"/>
<text text-anchor="start" x="266.5" y="-150" font-family="Helvetica,sans-Serif" font-size="10.00">plugins/npc_control</text>
<text text-anchor="middle" x="314" y="-139" font-family="Helvetica,sans-Serif" font-size="10.00">/Main.cpp</text>
</a>
</g>
</g>
<!-- Node2 -->
<g id="node2" class="node">
<title>Node2</title>
<g id="a_node2"><a xlink:href="npc__control_2_main_8h.html" target="_top" xlink:title=" ">
<polygon fill="white" stroke="#666666" points="291,-90.5 241,-90.5 241,-71.5 291,-71.5 291,-90.5"/>
<text text-anchor="middle" x="266" y="-78.5" font-family="Helvetica,sans-Serif" font-size="10.00">Main.h</text>
</a>
</g>
</g>
<!-- Node1&#45;&gt;Node2 -->
<g id="edge1" class="edge">
<title>Node1&#45;&gt;Node2</title>
<path fill="none" stroke="#63b8ff" d="M303.35,-131.8C296.08,-122.11 286.43,-109.24 278.76,-99.01"/>
<polygon fill="#63b8ff" stroke="#63b8ff" points="281.43,-96.74 272.63,-90.84 275.83,-100.94 281.43,-96.74"/>
</g>
<!-- Node9 -->
<g id="node9" class="node">
<title>Node9</title>
<g id="a_node9"><a xlink:title=" ">
<polygon fill="#e0e0e0" stroke="#999999" points="414.5,-96 309.5,-96 309.5,-66 414.5,-66 414.5,-96"/>
<text text-anchor="start" x="317.5" y="-84" font-family="Helvetica,sans-Serif" font-size="10.00">Tools/Serialization</text>
<text text-anchor="middle" x="362" y="-73" font-family="Helvetica,sans-Serif" font-size="10.00">/Attributes.hpp</text>
</a>
</g>
</g>
<!-- Node1&#45;&gt;Node9 -->
<g id="edge8" class="edge">
<title>Node1&#45;&gt;Node9</title>
<path fill="none" stroke="#63b8ff" d="M324.65,-131.8C330.68,-123.76 338.36,-113.53 345.18,-104.43"/>
<polygon fill="#63b8ff" stroke="#63b8ff" points="348.18,-106.26 351.38,-96.16 342.58,-102.06 348.18,-106.26"/>
</g>
<!-- Node3 -->
<g id="node3" class="node">
<title>Node3</title>
<g id="a_node3"><a xlink:title=" ">
<polygon fill="#e0e0e0" stroke="#999999" points="74,-24.5 0,-24.5 0,-5.5 74,-5.5 74,-24.5"/>
<text text-anchor="middle" x="37" y="-12.5" font-family="Helvetica,sans-Serif" font-size="10.00">FLHook.hpp</text>
</a>
</g>
</g>
<!-- Node2&#45;&gt;Node3 -->
<g id="edge2" class="edge">
<title>Node2&#45;&gt;Node3</title>
<path fill="none" stroke="#63b8ff" d="M240.77,-73.35C205.42,-63.98 139.17,-46.22 83,-30 80.22,-29.2 77.35,-28.35 74.46,-27.5"/>
<polygon fill="#63b8ff" stroke="#63b8ff" points="75.28,-24.09 64.69,-24.57 73.27,-30.79 75.28,-24.09"/>
</g>
<!-- Node4 -->
<g id="node4" class="node">
<title>Node4</title>
<g id="a_node4"><a xlink:title=" ">
<polygon fill="#e0e0e0" stroke="#999999" points="148,-24.5 92,-24.5 92,-5.5 148,-5.5 148,-24.5"/>
<text text-anchor="middle" x="120" y="-12.5" font-family="Helvetica,sans-Serif" font-size="10.00">plugin.h</text>
</a>
</g>
</g>
<!-- Node2&#45;&gt;Node4 -->
<g id="edge3" class="edge">
<title>Node2&#45;&gt;Node4</title>
<path fill="none" stroke="#63b8ff" d="M246.31,-71.37C221.27,-60.39 177.85,-41.36 149.02,-28.72"/>
<polygon fill="#63b8ff" stroke="#63b8ff" points="150.41,-25.51 139.84,-24.7 147.6,-31.92 150.41,-25.51"/>
</g>
<!-- Node5 -->
<g id="node5" class="node">
<title>Node5</title>
<g id="a_node5"><a xlink:title=" ">
<polygon fill="#e0e0e0" stroke="#999999" points="257.5,-24.5 166.5,-24.5 166.5,-5.5 257.5,-5.5 257.5,-24.5"/>
<text text-anchor="middle" x="212" y="-12.5" font-family="Helvetica,sans-Serif" font-size="10.00">spdlog/logger.h</text>
</a>
</g>
</g>
<!-- Node2&#45;&gt;Node5 -->
<g id="edge4" class="edge">
<title>Node2&#45;&gt;Node5</title>
<path fill="none" stroke="#63b8ff" d="M258.72,-71.37C250.39,-61.5 236.56,-45.11 226.11,-32.72"/>
<polygon fill="#63b8ff" stroke="#63b8ff" points="228.64,-30.29 219.51,-24.91 223.29,-34.81 228.64,-30.29"/>
</g>
<!-- Node6 -->
<g id="node6" class="node">
<title>Node6</title>
<g id="a_node6"><a xlink:title=" ">
<polygon fill="#e0e0e0" stroke="#999999" points="364.5,-24.5 275.5,-24.5 275.5,-5.5 364.5,-5.5 364.5,-24.5"/>
<text text-anchor="middle" x="320" y="-12.5" font-family="Helvetica,sans-Serif" font-size="10.00">spdlog/async.h</text>
</a>
</g>
</g>
<!-- Node2&#45;&gt;Node6 -->
<g id="edge5" class="edge">
<title>Node2&#45;&gt;Node6</title>
<path fill="none" stroke="#63b8ff" d="M273.28,-71.37C281.61,-61.5 295.44,-45.11 305.89,-32.72"/>
<polygon fill="#63b8ff" stroke="#63b8ff" points="308.71,-34.81 312.49,-24.91 303.36,-30.29 308.71,-34.81"/>
</g>
<!-- Node7 -->
<g id="node7" class="node">
<title>Node7</title>
<g id="a_node7"><a xlink:title=" ">
<polygon fill="#e0e0e0" stroke="#999999" points="488,-30 382,-30 382,0 488,0 488,-30"/>
<text text-anchor="start" x="390" y="-18" font-family="Helvetica,sans-Serif" font-size="10.00">spdlog/sinks/basic</text>
<text text-anchor="middle" x="435" y="-7" font-family="Helvetica,sans-Serif" font-size="10.00">_file_sink.h</text>
</a>
</g>
</g>
<!-- Node2&#45;&gt;Node7 -->
<g id="edge6" class="edge">
<title>Node2&#45;&gt;Node7</title>
<path fill="none" stroke="#63b8ff" d="M287.07,-71.48C291.65,-69.65 296.48,-67.75 301,-66 329.44,-55.01 361.44,-43.05 387.03,-33.59"/>
<polygon fill="#63b8ff" stroke="#63b8ff" points="388.33,-36.84 396.5,-30.1 385.91,-30.27 388.33,-36.84"/>
</g>
<!-- Node8 -->
<g id="node8" class="node">
<title>Node8</title>
<g id="a_node8"><a xlink:title=" ">
<polygon fill="#e0e0e0" stroke="#999999" points="560,-24.5 506,-24.5 506,-5.5 560,-5.5 560,-24.5"/>
<text text-anchor="middle" x="533" y="-12.5" font-family="Helvetica,sans-Serif" font-size="10.00">random</text>
</a>
</g>
</g>
<!-- Node2&#45;&gt;Node8 -->
<g id="edge7" class="edge">
<title>Node2&#45;&gt;Node8</title>
<path fill="none" stroke="#63b8ff" d="M285.38,-71.45C290.4,-69.46 295.84,-67.49 301,-66 386.09,-41.43 411.79,-54.16 497,-30 499.15,-29.39 501.35,-28.7 503.55,-27.97"/>
<polygon fill="#63b8ff" stroke="#63b8ff" points="504.83,-31.22 513.05,-24.53 502.45,-24.64 504.83,-31.22"/>
</g>
</g>
</svg>
