<?xml version="1.0" encoding="UTF-8" standalone="no"?>
<!DOCTYPE svg PUBLIC "-//W3C//DTD SVG 1.1//EN"
 "http://www.w3.org/Graphics/SVG/1.1/DTD/svg11.dtd">
<!-- Generated by graphviz version 2.43.0 (0)
 -->
<!-- Title: plugins/npc_control/Main.cpp Pages: 1 -->
<svg width="568pt" height="159pt"
 viewBox="0.00 0.00 568.00 159.00" xmlns="http://www.w3.org/2000/svg" xmlns:xlink="http://www.w3.org/1999/xlink">
<g id="graph0" class="graph" transform="scale(1 1) rotate(0) translate(4 155)">
<title>plugins/npc_control/Main.cpp</title>
<!-- Node1 -->
<g id="node1" class="node">
<title>Node1</title>
<g id="a_node1"><a xlink:title=" ">
<polygon fill="#999999" stroke="#666666" points="321.5,-151 210.5,-151 210.5,-121 321.5,-121 321.5,-151"/>
<text text-anchor="start" x="218.5" y="-139" font-family="Helvetica,sans-Serif" font-size="10.00">plugins/npc_control</text>
<text text-anchor="middle" x="266" y="-128" font-family="Helvetica,sans-Serif" font-size="10.00">/Main.cpp</text>
</a>
</g>
</g>
<!-- Node2 -->
<g id="node2" class="node">
<title>Node2</title>
<g id="a_node2"><a xlink:href="npc__control_2_main_8h.html" target="_top" xlink:title=" ">
<polygon fill="white" stroke="#666666" points="291,-85 241,-85 241,-66 291,-66 291,-85"/>
<text text-anchor="middle" x="266" y="-73" font-family="Helvetica,sans-Serif" font-size="10.00">Main.h</text>
</a>
</g>
</g>
<!-- Node1&#45;&gt;Node2 -->
<g id="edge1" class="edge">
<title>Node1&#45;&gt;Node2</title>
<path fill="none" stroke="#63b8ff" d="M266,-120.84C266,-113.21 266,-103.7 266,-95.45"/>
<polygon fill="#63b8ff" stroke="#63b8ff" points="269.5,-95.27 266,-85.27 262.5,-95.27 269.5,-95.27"/>
</g>
<!-- Node3 -->
<g id="node3" class="node">
<title>Node3</title>
<g id="a_node3"><a xlink:title=" ">
<polygon fill="#e0e0e0" stroke="#999999" points="74,-24.5 0,-24.5 0,-5.5 74,-5.5 74,-24.5"/>
<text text-anchor="middle" x="37" y="-12.5" font-family="Helvetica,sans-Serif" font-size="10.00">FLHook.hpp</text>
</a>
</g>
</g>
<!-- Node2&#45;&gt;Node3 -->
<g id="edge2" class="edge">
<title>Node2&#45;&gt;Node3</title>
<path fill="none" stroke="#63b8ff" d="M240.72,-68.83C205.31,-60.78 138.98,-45.31 83,-30 80.04,-29.19 76.97,-28.32 73.9,-27.43"/>
<polygon fill="#63b8ff" stroke="#63b8ff" points="74.75,-24.03 64.17,-24.55 72.76,-30.74 74.75,-24.03"/>
</g>
<!-- Node4 -->
<g id="node4" class="node">
<title>Node4</title>
<g id="a_node4"><a xlink:title=" ">
<polygon fill="#e0e0e0" stroke="#999999" points="148,-24.5 92,-24.5 92,-5.5 148,-5.5 148,-24.5"/>
<text text-anchor="middle" x="120" y="-12.5" font-family="Helvetica,sans-Serif" font-size="10.00">plugin.h</text>
</a>
</g>
</g>
<!-- Node2&#45;&gt;Node4 -->
<g id="edge3" class="edge">
<title>Node2&#45;&gt;Node4</title>
<path fill="none" stroke="#63b8ff" d="M244.77,-65.99C220.01,-56.07 178.88,-39.59 150.65,-28.28"/>
<polygon fill="#63b8ff" stroke="#63b8ff" points="151.84,-24.99 141.26,-24.52 149.24,-31.49 151.84,-24.99"/>
</g>
<!-- Node5 -->
<g id="node5" class="node">
<title>Node5</title>
<g id="a_node5"><a xlink:title=" ">
<polygon fill="#e0e0e0" stroke="#999999" points="257.5,-24.5 166.5,-24.5 166.5,-5.5 257.5,-5.5 257.5,-24.5"/>
<text text-anchor="middle" x="212" y="-12.5" font-family="Helvetica,sans-Serif" font-size="10.00">spdlog/logger.h</text>
</a>
</g>
</g>
<!-- Node2&#45;&gt;Node5 -->
<g id="edge4" class="edge">
<title>Node2&#45;&gt;Node5</title>
<path fill="none" stroke="#63b8ff" d="M258.03,-65.87C249.9,-57.05 237.07,-43.16 227.02,-32.27"/>
<polygon fill="#63b8ff" stroke="#63b8ff" points="229.36,-29.64 220,-24.67 224.21,-34.39 229.36,-29.64"/>
</g>
<!-- Node6 -->
<g id="node6" class="node">
<title>Node6</title>
<g id="a_node6"><a xlink:title=" ">
<polygon fill="#e0e0e0" stroke="#999999" points="364.5,-24.5 275.5,-24.5 275.5,-5.5 364.5,-5.5 364.5,-24.5"/>
<text text-anchor="middle" x="320" y="-12.5" font-family="Helvetica,sans-Serif" font-size="10.00">spdlog/async.h</text>
</a>
</g>
</g>
<!-- Node2&#45;&gt;Node6 -->
<g id="edge5" class="edge">
<title>Node2&#45;&gt;Node6</title>
<path fill="none" stroke="#63b8ff" d="M273.97,-65.87C282.1,-57.05 294.93,-43.16 304.98,-32.27"/>
<polygon fill="#63b8ff" stroke="#63b8ff" points="307.79,-34.39 312,-24.67 302.64,-29.64 307.79,-34.39"/>
</g>
<!-- Node7 -->
<g id="node7" class="node">
<title>Node7</title>
<g id="a_node7"><a xlink:title=" ">
<polygon fill="#e0e0e0" stroke="#999999" points="488,-30 382,-30 382,0 488,0 488,-30"/>
<text text-anchor="start" x="390" y="-18" font-family="Helvetica,sans-Serif" font-size="10.00">spdlog/sinks/basic</text>
<text text-anchor="middle" x="435" y="-7" font-family="Helvetica,sans-Serif" font-size="10.00">_file_sink.h</text>
</a>
</g>
</g>
<!-- Node2&#45;&gt;Node7 -->
<g id="edge6" class="edge">
<title>Node2&#45;&gt;Node7</title>
<path fill="none" stroke="#63b8ff" d="M290.57,-65.99C315.11,-57.5 353.53,-44.2 384.58,-33.45"/>
<polygon fill="#63b8ff" stroke="#63b8ff" points="386.06,-36.64 394.37,-30.06 383.78,-30.03 386.06,-36.64"/>
</g>
<!-- Node8 -->
<g id="node8" class="node">
<title>Node8</title>
<g id="a_node8"><a xlink:title=" ">
<polygon fill="#e0e0e0" stroke="#999999" points="560,-24.5 506,-24.5 506,-5.5 560,-5.5 560,-24.5"/>
<text text-anchor="middle" x="533" y="-12.5" font-family="Helvetica,sans-Serif" font-size="10.00">random</text>
</a>
</g>
</g>
<!-- Node2&#45;&gt;Node8 -->
<g id="edge7" class="edge">
<title>Node2&#45;&gt;Node8</title>
<path fill="none" stroke="#63b8ff" d="M291.3,-71.15C334.18,-65.15 423.61,-51.15 497,-30 499.15,-29.38 501.34,-28.69 503.54,-27.95"/>
<polygon fill="#63b8ff" stroke="#63b8ff" points="504.83,-31.2 513.04,-24.5 502.44,-24.62 504.83,-31.2"/>
</g>
</g>
</svg>
