<?xml version="1.0" encoding="UTF-8" standalone="no"?>
<!DOCTYPE svg PUBLIC "-//W3C//DTD SVG 1.1//EN"
 "http://www.w3.org/Graphics/SVG/1.1/DTD/svg11.dtd">
<!-- Generated by graphviz version 2.43.0 (0)
 -->
<!-- Title: plugins/player_info_plugin/Main.h Pages: 1 -->
<svg width="684pt" height="95pt"
 viewBox="0.00 0.00 684.00 95.00" xmlns="http://www.w3.org/2000/svg" xmlns:xlink="http://www.w3.org/1999/xlink">
<g id="graph0" class="graph" transform="scale(1 1) rotate(0) translate(4 91)">
<title>plugins/player_info_plugin/Main.h</title>
<!-- Node1 -->
<g id="node1" class="node">
<title>Node1</title>
<g id="a_node1"><a xlink:title=" ">
<polygon fill="#bfbfbf" stroke="black" points="275,-56.5 275,-86.5 385,-86.5 385,-56.5 275,-56.5"/>
<text text-anchor="start" x="283" y="-74.5" font-family="Helvetica,sans-Serif" font-size="10.00">plugins/player_info</text>
<text text-anchor="middle" x="330" y="-63.5" font-family="Helvetica,sans-Serif" font-size="10.00">_plugin/Main.h</text>
</a>
</g>
</g>
<!-- Node2 -->
<g id="node2" class="node">
<title>Node2</title>
<g id="a_node2"><a xlink:title=" ">
<polygon fill="none" stroke="#bfbfbf" points="0,-0.5 0,-19.5 62,-19.5 62,-0.5 0,-0.5"/>
<text text-anchor="middle" x="31" y="-7.5" font-family="Helvetica,sans-Serif" font-size="10.00">FLHook.h</text>
</a>
</g>
</g>
<!-- Node1&#45;&gt;Node2 -->
<g id="edge1" class="edge">
<title>Node1&#45;&gt;Node2</title>
<path fill="none" stroke="midnightblue" d="M274.84,-60.22C224.59,-50.75 148.09,-36.06 72.59,-20.29"/>
<polygon fill="midnightblue" stroke="midnightblue" points="72.93,-16.79 62.42,-18.16 71.49,-23.64 72.93,-16.79"/>
</g>
<!-- Node3 -->
<g id="node3" class="node">
<title>Node3</title>
<g id="a_node3"><a xlink:title=" ">
<polygon fill="none" stroke="#bfbfbf" points="80,-0.5 80,-19.5 144,-19.5 144,-0.5 80,-0.5"/>
<text text-anchor="middle" x="112" y="-7.5" font-family="Helvetica,sans-Serif" font-size="10.00">algorithm</text>
</a>
</g>
</g>
<!-- Node1&#45;&gt;Node3 -->
<g id="edge2" class="edge">
<title>Node1&#45;&gt;Node3</title>
<path fill="none" stroke="midnightblue" d="M278.61,-56.47C240.35,-46.03 188.79,-31.96 153.21,-22.25"/>
<polygon fill="midnightblue" stroke="midnightblue" points="153.73,-18.76 143.17,-19.51 151.89,-25.52 153.73,-18.76"/>
</g>
<!-- Node4 -->
<g id="node4" class="node">
<title>Node4</title>
<g id="a_node4"><a xlink:title=" ">
<polygon fill="none" stroke="#bfbfbf" points="162,-0.5 162,-19.5 194,-19.5 194,-0.5 162,-0.5"/>
<text text-anchor="middle" x="178" y="-7.5" font-family="Helvetica,sans-Serif" font-size="10.00">list</text>
</a>
</g>
</g>
<!-- Node1&#45;&gt;Node4 -->
<g id="edge3" class="edge">
<title>Node1&#45;&gt;Node4</title>
<path fill="none" stroke="midnightblue" d="M293.98,-56.4C266.2,-45.53 228.46,-30.75 203.68,-21.05"/>
<polygon fill="midnightblue" stroke="midnightblue" points="204.83,-17.74 194.24,-17.36 202.28,-24.26 204.83,-17.74"/>
</g>
<!-- Node5 -->
<g id="node5" class="node">
<title>Node5</title>
<g id="a_node5"><a xlink:title=" ">
<polygon fill="none" stroke="#bfbfbf" points="212,-0.5 212,-19.5 250,-19.5 250,-0.5 212,-0.5"/>
<text text-anchor="middle" x="231" y="-7.5" font-family="Helvetica,sans-Serif" font-size="10.00">map</text>
</a>
</g>
</g>
<!-- Node1&#45;&gt;Node5 -->
<g id="edge4" class="edge">
<title>Node1&#45;&gt;Node5</title>
<path fill="none" stroke="midnightblue" d="M306.54,-56.4C290.67,-46.86 269.81,-34.32 254.03,-24.84"/>
<polygon fill="midnightblue" stroke="midnightblue" points="255.78,-21.81 245.41,-19.66 252.17,-27.81 255.78,-21.81"/>
</g>
<!-- Node6 -->
<g id="node6" class="node">
<title>Node6</title>
<g id="a_node6"><a xlink:title=" ">
<polygon fill="none" stroke="#bfbfbf" points="268.5,-0.5 268.5,-19.5 319.5,-19.5 319.5,-0.5 268.5,-0.5"/>
<text text-anchor="middle" x="294" y="-7.5" font-family="Helvetica,sans-Serif" font-size="10.00">math.h</text>
</a>
</g>
</g>
<!-- Node1&#45;&gt;Node6 -->
<g id="edge5" class="edge">
<title>Node1&#45;&gt;Node6</title>
<path fill="none" stroke="midnightblue" d="M321.47,-56.4C316.4,-48.02 309.93,-37.33 304.54,-28.42"/>
<polygon fill="midnightblue" stroke="midnightblue" points="307.41,-26.4 299.24,-19.66 301.42,-30.03 307.41,-26.4"/>
</g>
<!-- Node7 -->
<g id="node7" class="node">
<title>Node7</title>
<g id="a_node7"><a xlink:title=" ">
<polygon fill="none" stroke="#bfbfbf" points="338,-0.5 338,-19.5 394,-19.5 394,-0.5 338,-0.5"/>
<text text-anchor="middle" x="366" y="-7.5" font-family="Helvetica,sans-Serif" font-size="10.00">plugin.h</text>
</a>
</g>
</g>
<!-- Node1&#45;&gt;Node7 -->
<g id="edge6" class="edge">
<title>Node1&#45;&gt;Node7</title>
<path fill="none" stroke="midnightblue" d="M338.53,-56.4C343.6,-48.02 350.07,-37.33 355.46,-28.42"/>
<polygon fill="midnightblue" stroke="midnightblue" points="358.58,-30.03 360.76,-19.66 352.59,-26.4 358.58,-30.03"/>
</g>
<!-- Node8 -->
<g id="node8" class="node">
<title>Node8</title>
<g id="a_node8"><a xlink:title=" ">
<polygon fill="none" stroke="#bfbfbf" points="412,-0.5 412,-19.5 462,-19.5 462,-0.5 412,-0.5"/>
<text text-anchor="middle" x="437" y="-7.5" font-family="Helvetica,sans-Serif" font-size="10.00">stdio.h</text>
</a>
</g>
</g>
<!-- Node1&#45;&gt;Node8 -->
<g id="edge7" class="edge">
<title>Node1&#45;&gt;Node8</title>
<path fill="none" stroke="midnightblue" d="M355.36,-56.4C372.67,-46.77 395.48,-34.09 412.58,-24.58"/>
<polygon fill="midnightblue" stroke="midnightblue" points="414.39,-27.58 421.43,-19.66 410.99,-21.46 414.39,-27.58"/>
</g>
<!-- Node9 -->
<g id="node9" class="node">
<title>Node9</title>
<g id="a_node9"><a xlink:title=" ">
<polygon fill="none" stroke="#bfbfbf" points="480,-0.5 480,-19.5 524,-19.5 524,-0.5 480,-0.5"/>
<text text-anchor="middle" x="502" y="-7.5" font-family="Helvetica,sans-Serif" font-size="10.00">string</text>
</a>
</g>
</g>
<!-- Node1&#45;&gt;Node9 -->
<g id="edge8" class="edge">
<title>Node1&#45;&gt;Node9</title>
<path fill="none" stroke="midnightblue" d="M370.76,-56.4C401.2,-45.87 442.2,-31.69 470.23,-21.99"/>
<polygon fill="midnightblue" stroke="midnightblue" points="471.61,-25.21 479.92,-18.64 469.33,-18.6 471.61,-25.21"/>
</g>
<!-- Node10 -->
<g id="node10" class="node">
<title>Node10</title>
<g id="a_node10"><a xlink:title=" ">
<polygon fill="none" stroke="#bfbfbf" points="542,-0.5 542,-19.5 590,-19.5 590,-0.5 542,-0.5"/>
<text text-anchor="middle" x="566" y="-7.5" font-family="Helvetica,sans-Serif" font-size="10.00">time.h</text>
</a>
</g>
</g>
<!-- Node1&#45;&gt;Node10 -->
<g id="edge9" class="edge">
<title>Node1&#45;&gt;Node10</title>
<path fill="none" stroke="midnightblue" d="M385.23,-57.12C423.78,-47.69 476.69,-34.6 531.9,-20.25"/>
<polygon fill="midnightblue" stroke="midnightblue" points="533.07,-23.56 541.87,-17.65 531.31,-16.78 533.07,-23.56"/>
</g>
<!-- Node11 -->
<g id="node11" class="node">
<title>Node11</title>
<g id="a_node11"><a xlink:title=" ">
<polygon fill="none" stroke="#bfbfbf" points="608,-0.5 608,-19.5 676,-19.5 676,-0.5 608,-0.5"/>
<text text-anchor="middle" x="642" y="-7.5" font-family="Helvetica,sans-Serif" font-size="10.00">windows.h</text>
</a>
</g>
</g>
<!-- Node1&#45;&gt;Node11 -->
<g id="edge10" class="edge">
<title>Node1&#45;&gt;Node11</title>
<path fill="none" stroke="midnightblue" d="M385.19,-60.49C437.38,-50.94 518.16,-35.95 597.57,-20.25"/>
<polygon fill="midnightblue" stroke="midnightblue" points="598.62,-23.61 607.75,-18.24 597.26,-16.75 598.62,-23.61"/>
</g>
</g>
</svg>
