<?xml version="1.0" encoding="UTF-8" standalone="no"?>
<!DOCTYPE svg PUBLIC "-//W3C//DTD SVG 1.1//EN"
 "http://www.w3.org/Graphics/SVG/1.1/DTD/svg11.dtd">
<!-- Generated by graphviz version 2.43.0 (0)
 -->
<!-- Title: plugins/message/Message.cpp Pages: 1 -->
<svg width="389pt" height="137pt"
 viewBox="0.00 0.00 389.00 137.00" xmlns="http://www.w3.org/2000/svg" xmlns:xlink="http://www.w3.org/1999/xlink">
<g id="graph0" class="graph" transform="scale(1 1) rotate(0) translate(4 133)">
<title>plugins/message/Message.cpp</title>
<!-- Node1 -->
<g id="node1" class="node">
<title>Node1</title>
<g id="a_node1"><a xlink:title=" ">
<polygon fill="#999999" stroke="#666666" points="266,-129 100,-129 100,-110 266,-110 266,-129"/>
<text text-anchor="middle" x="183" y="-117" font-family="Helvetica,sans-Serif" font-size="10.00">plugins/message/Message.cpp</text>
</a>
</g>
</g>
<!-- Node2 -->
<g id="node2" class="node">
<title>Node2</title>
<g id="a_node2"><a xlink:href="_message_8h.html" target="_top" xlink:title=" ">
<polygon fill="white" stroke="#666666" points="112.5,-74 43.5,-74 43.5,-55 112.5,-55 112.5,-74"/>
<text text-anchor="middle" x="78" y="-62" font-family="Helvetica,sans-Serif" font-size="10.00">Message.h</text>
</a>
</g>
</g>
<!-- Node1&#45;&gt;Node2 -->
<g id="edge1" class="edge">
<title>Node1&#45;&gt;Node2</title>
<path fill="none" stroke="#63b8ff" d="M166.13,-109.98C149.39,-101.54 123.5,-88.47 104.11,-78.68"/>
<polygon fill="#63b8ff" stroke="#63b8ff" points="105.68,-75.55 95.18,-74.17 102.53,-81.8 105.68,-75.55"/>
</g>
<!-- Node5 -->
<g id="node5" class="node">
<title>Node5</title>
<g id="a_node5"><a xlink:title=" ">
<polygon fill="#e0e0e0" stroke="#999999" points="235,-74 131,-74 131,-55 235,-55 235,-74"/>
<text text-anchor="middle" x="183" y="-62" font-family="Helvetica,sans-Serif" font-size="10.00">Features/Mail.hpp</text>
</a>
</g>
</g>
<!-- Node1&#45;&gt;Node5 -->
<g id="edge4" class="edge">
<title>Node1&#45;&gt;Node5</title>
<path fill="none" stroke="#63b8ff" d="M183,-109.75C183,-102.8 183,-92.85 183,-84.13"/>
<polygon fill="#63b8ff" stroke="#63b8ff" points="186.5,-84.09 183,-74.09 179.5,-84.09 186.5,-84.09"/>
</g>
<!-- Node6 -->
<g id="node6" class="node">
<title>Node6</title>
<g id="a_node6"><a xlink:title=" ">
<polygon fill="#e0e0e0" stroke="#999999" points="381,-74 253,-74 253,-55 381,-55 381,-74"/>
<text text-anchor="middle" x="317" y="-62" font-family="Helvetica,sans-Serif" font-size="10.00">Features/TempBan.hpp</text>
</a>
</g>
</g>
<!-- Node1&#45;&gt;Node6 -->
<g id="edge5" class="edge">
<title>Node1&#45;&gt;Node6</title>
<path fill="none" stroke="#63b8ff" d="M204.53,-109.98C226.47,-101.3 260.74,-87.75 285.69,-77.88"/>
<polygon fill="#63b8ff" stroke="#63b8ff" points="287.07,-81.1 295.08,-74.17 284.49,-74.59 287.07,-81.1"/>
</g>
<!-- Node3 -->
<g id="node3" class="node">
<title>Node3</title>
<g id="a_node3"><a xlink:title=" ">
<polygon fill="#e0e0e0" stroke="#999999" points="74,-19 0,-19 0,0 74,0 74,-19"/>
<text text-anchor="middle" x="37" y="-7" font-family="Helvetica,sans-Serif" font-size="10.00">FLHook.hpp</text>
</a>
</g>
</g>
<!-- Node2&#45;&gt;Node3 -->
<g id="edge2" class="edge">
<title>Node2&#45;&gt;Node3</title>
<path fill="none" stroke="#63b8ff" d="M71.23,-54.75C65.44,-47.26 56.94,-36.28 49.86,-27.13"/>
<polygon fill="#63b8ff" stroke="#63b8ff" points="52.53,-24.86 43.64,-19.09 46.99,-29.14 52.53,-24.86"/>
</g>
<!-- Node4 -->
<g id="node4" class="node">
<title>Node4</title>
<g id="a_node4"><a xlink:title=" ">
<polygon fill="#e0e0e0" stroke="#999999" points="148,-19 92,-19 92,0 148,0 148,-19"/>
<text text-anchor="middle" x="120" y="-7" font-family="Helvetica,sans-Serif" font-size="10.00">plugin.h</text>
</a>
</g>
</g>
<!-- Node2&#45;&gt;Node4 -->
<g id="edge3" class="edge">
<title>Node2&#45;&gt;Node4</title>
<path fill="none" stroke="#63b8ff" d="M84.94,-54.75C90.87,-47.26 99.57,-36.28 106.82,-27.13"/>
<polygon fill="#63b8ff" stroke="#63b8ff" points="109.73,-29.1 113.19,-19.09 104.24,-24.75 109.73,-29.1"/>
</g>
</g>
</svg>
