<?xml version="1.0" encoding="UTF-8" standalone="no"?>
<!DOCTYPE svg PUBLIC "-//W3C//DTD SVG 1.1//EN"
 "http://www.w3.org/Graphics/SVG/1.1/DTD/svg11.dtd">
<!-- Generated by graphviz version 2.43.0 (0)
 -->
<!-- Title: plugins/purchase_restrictions_plugin/Main.cpp Pages: 1 -->
<svg width="167pt" height="151pt"
 viewBox="0.00 0.00 167.00 151.00" xmlns="http://www.w3.org/2000/svg" xmlns:xlink="http://www.w3.org/1999/xlink">
<g id="graph0" class="graph" transform="scale(1 1) rotate(0) translate(4 147)">
<title>plugins/purchase_restrictions_plugin/Main.cpp</title>
<!-- Node1 -->
<g id="node1" class="node">
<title>Node1</title>
<g id="a_node1"><a xlink:title=" ">
<polygon fill="#bfbfbf" stroke="black" points="0,-112.5 0,-142.5 159,-142.5 159,-112.5 0,-112.5"/>
<text text-anchor="start" x="8" y="-130.5" font-family="Helvetica,sans-Serif" font-size="10.00">plugins/purchase_restrictions</text>
<text text-anchor="middle" x="79.5" y="-119.5" font-family="Helvetica,sans-Serif" font-size="10.00">_plugin/Main.cpp</text>
</a>
</g>
</g>
<!-- Node2 -->
<g id="node2" class="node">
<title>Node2</title>
<g id="a_node2"><a xlink:href="purchase__restrictions__plugin_2main_8h.html" target="_top" xlink:title=" ">
<polygon fill="none" stroke="black" points="54.5,-56.5 54.5,-75.5 104.5,-75.5 104.5,-56.5 54.5,-56.5"/>
<text text-anchor="middle" x="79.5" y="-63.5" font-family="Helvetica,sans-Serif" font-size="10.00">Main.h</text>
</a>
</g>
</g>
<!-- Node1&#45;&gt;Node2 -->
<g id="edge1" class="edge">
<title>Node1&#45;&gt;Node2</title>
<path fill="none" stroke="midnightblue" d="M79.5,-112.4C79.5,-104.47 79.5,-94.46 79.5,-85.86"/>
<polygon fill="midnightblue" stroke="midnightblue" points="83,-85.66 79.5,-75.66 76,-85.66 83,-85.66"/>
</g>
<!-- Node3 -->
<g id="node3" class="node">
<title>Node3</title>
<g id="a_node3"><a xlink:title=" ">
<polygon fill="none" stroke="#bfbfbf" points="10.5,-0.5 10.5,-19.5 72.5,-19.5 72.5,-0.5 10.5,-0.5"/>
<text text-anchor="middle" x="41.5" y="-7.5" font-family="Helvetica,sans-Serif" font-size="10.00">FLHook.h</text>
</a>
</g>
</g>
<!-- Node2&#45;&gt;Node3 -->
<g id="edge2" class="edge">
<title>Node2&#45;&gt;Node3</title>
<path fill="none" stroke="midnightblue" d="M73.23,-56.08C67.86,-48.46 59.98,-37.26 53.42,-27.94"/>
<polygon fill="midnightblue" stroke="midnightblue" points="56.28,-25.91 47.66,-19.75 50.55,-29.94 56.28,-25.91"/>
</g>
<!-- Node4 -->
<g id="node4" class="node">
<title>Node4</title>
<g id="a_node4"><a xlink:title=" ">
<polygon fill="none" stroke="#bfbfbf" points="90.5,-0.5 90.5,-19.5 146.5,-19.5 146.5,-0.5 90.5,-0.5"/>
<text text-anchor="middle" x="118.5" y="-7.5" font-family="Helvetica,sans-Serif" font-size="10.00">plugin.h</text>
</a>
</g>
</g>
<!-- Node2&#45;&gt;Node4 -->
<g id="edge3" class="edge">
<title>Node2&#45;&gt;Node4</title>
<path fill="none" stroke="midnightblue" d="M85.94,-56.08C91.45,-48.46 99.53,-37.26 106.26,-27.94"/>
<polygon fill="midnightblue" stroke="midnightblue" points="109.16,-29.91 112.18,-19.75 103.49,-25.81 109.16,-29.91"/>
</g>
</g>
</svg>
