<?xml version="1.0" encoding="UTF-8" standalone="no"?>
<!DOCTYPE svg PUBLIC "-//W3C//DTD SVG 1.1//EN"
 "http://www.w3.org/Graphics/SVG/1.1/DTD/svg11.dtd">
<!-- Generated by graphviz version 2.43.0 (0)
 -->
<!-- Title: plugins/rename/Main.cpp Pages: 1 -->
<svg width="357pt" height="148pt"
 viewBox="0.00 0.00 356.50 148.00" xmlns="http://www.w3.org/2000/svg" xmlns:xlink="http://www.w3.org/1999/xlink">
<g id="graph0" class="graph" transform="scale(1 1) rotate(0) translate(4 144)">
<title>plugins/rename/Main.cpp</title>
<!-- Node1 -->
<g id="node1" class="node">
<title>Node1</title>
<g id="a_node1"><a xlink:title=" ">
<polygon fill="#999999" stroke="#666666" points="243,-140 103,-140 103,-121 243,-121 243,-140"/>
<text text-anchor="middle" x="173" y="-128" font-family="Helvetica,sans-Serif" font-size="10.00">plugins/rename/Main.cpp</text>
</a>
</g>
</g>
<!-- Node2 -->
<g id="node2" class="node">
<title>Node2</title>
<g id="a_node2"><a xlink:href="rename_2_main_8h.html" target="_top" xlink:title=" ">
<polygon fill="white" stroke="#666666" points="103,-79.5 53,-79.5 53,-60.5 103,-60.5 103,-79.5"/>
<text text-anchor="middle" x="78" y="-67.5" font-family="Helvetica,sans-Serif" font-size="10.00">Main.h</text>
</a>
</g>
</g>
<!-- Node1&#45;&gt;Node2 -->
<g id="edge1" class="edge">
<title>Node1&#45;&gt;Node2</title>
<path fill="none" stroke="#63b8ff" d="M158.98,-120.87C143.69,-111.45 118.97,-96.23 100.86,-85.08"/>
<polygon fill="#63b8ff" stroke="#63b8ff" points="102.43,-81.93 92.08,-79.67 98.75,-87.89 102.43,-81.93"/>
</g>
<!-- Node5 -->
<g id="node5" class="node">
<title>Node5</title>
<g id="a_node5"><a xlink:title=" ">
<polygon fill="#e0e0e0" stroke="#999999" points="225,-79.5 121,-79.5 121,-60.5 225,-60.5 225,-79.5"/>
<text text-anchor="middle" x="173" y="-67.5" font-family="Helvetica,sans-Serif" font-size="10.00">Features/Mail.hpp</text>
</a>
</g>
</g>
<!-- Node1&#45;&gt;Node5 -->
<g id="edge4" class="edge">
<title>Node1&#45;&gt;Node5</title>
<path fill="none" stroke="#63b8ff" d="M173,-120.87C173,-112.75 173,-100.31 173,-89.89"/>
<polygon fill="#63b8ff" stroke="#63b8ff" points="176.5,-89.67 173,-79.67 169.5,-89.67 176.5,-89.67"/>
</g>
<!-- Node6 -->
<g id="node6" class="node">
<title>Node6</title>
<g id="a_node6"><a xlink:title=" ">
<polygon fill="#e0e0e0" stroke="#999999" points="348.5,-85 243.5,-85 243.5,-55 348.5,-55 348.5,-85"/>
<text text-anchor="start" x="251.5" y="-73" font-family="Helvetica,sans-Serif" font-size="10.00">Tools/Serialization</text>
<text text-anchor="middle" x="296" y="-62" font-family="Helvetica,sans-Serif" font-size="10.00">/Attributes.hpp</text>
</a>
</g>
</g>
<!-- Node1&#45;&gt;Node6 -->
<g id="edge5" class="edge">
<title>Node1&#45;&gt;Node6</title>
<path fill="none" stroke="#63b8ff" d="M190.89,-120.99C208.14,-112.79 234.84,-100.09 257.01,-89.55"/>
<polygon fill="#63b8ff" stroke="#63b8ff" points="258.66,-92.63 266.19,-85.18 255.66,-86.31 258.66,-92.63"/>
</g>
<!-- Node3 -->
<g id="node3" class="node">
<title>Node3</title>
<g id="a_node3"><a xlink:title=" ">
<polygon fill="#e0e0e0" stroke="#999999" points="74,-19 0,-19 0,0 74,0 74,-19"/>
<text text-anchor="middle" x="37" y="-7" font-family="Helvetica,sans-Serif" font-size="10.00">FLHook.hpp</text>
</a>
</g>
</g>
<!-- Node2&#45;&gt;Node3 -->
<g id="edge2" class="edge">
<title>Node2&#45;&gt;Node3</title>
<path fill="none" stroke="#63b8ff" d="M71.95,-60.37C65.89,-51.73 56.41,-38.2 48.86,-27.42"/>
<polygon fill="#63b8ff" stroke="#63b8ff" points="51.68,-25.35 43.07,-19.17 45.95,-29.37 51.68,-25.35"/>
</g>
<!-- Node4 -->
<g id="node4" class="node">
<title>Node4</title>
<g id="a_node4"><a xlink:title=" ">
<polygon fill="#e0e0e0" stroke="#999999" points="148,-19 92,-19 92,0 148,0 148,-19"/>
<text text-anchor="middle" x="120" y="-7" font-family="Helvetica,sans-Serif" font-size="10.00">plugin.h</text>
</a>
</g>
</g>
<!-- Node2&#45;&gt;Node4 -->
<g id="edge3" class="edge">
<title>Node2&#45;&gt;Node4</title>
<path fill="none" stroke="#63b8ff" d="M84.2,-60.37C90.4,-51.73 100.11,-38.2 107.86,-27.42"/>
<polygon fill="#63b8ff" stroke="#63b8ff" points="110.79,-29.33 113.78,-19.17 105.1,-25.25 110.79,-29.33"/>
</g>
</g>
</svg>
