<?xml version="1.0" encoding="UTF-8" standalone="no"?>
<!DOCTYPE svg PUBLIC "-//W3C//DTD SVG 1.1//EN"
 "http://www.w3.org/Graphics/SVG/1.1/DTD/svg11.dtd">
<!-- Generated by graphviz version 2.43.0 (0)
 -->
<!-- Title: plugins/sound_manager_plugin/Main.cpp Pages: 1 -->
<svg width="144pt" height="151pt"
 viewBox="0.00 0.00 144.00 151.00" xmlns="http://www.w3.org/2000/svg" xmlns:xlink="http://www.w3.org/1999/xlink">
<g id="graph0" class="graph" transform="scale(1 1) rotate(0) translate(4 147)">
<title>plugins/sound_manager_plugin/Main.cpp</title>
<!-- Node1 -->
<g id="node1" class="node">
<title>Node1</title>
<g id="a_node1"><a xlink:title=" ">
<polygon fill="#bfbfbf" stroke="black" points="2.5,-112.5 2.5,-142.5 135.5,-142.5 135.5,-112.5 2.5,-112.5"/>
<text text-anchor="start" x="10.5" y="-130.5" font-family="Helvetica,sans-Serif" font-size="10.00">plugins/sound_manager</text>
<text text-anchor="middle" x="69" y="-119.5" font-family="Helvetica,sans-Serif" font-size="10.00">_plugin/Main.cpp</text>
</a>
</g>
</g>
<!-- Node2 -->
<g id="node2" class="node">
<title>Node2</title>
<g id="a_node2"><a xlink:href="sound__manager__plugin_2main_8h.html" target="_top" xlink:title=" ">
<polygon fill="none" stroke="black" points="44,-56.5 44,-75.5 94,-75.5 94,-56.5 44,-56.5"/>
<text text-anchor="middle" x="69" y="-63.5" font-family="Helvetica,sans-Serif" font-size="10.00">Main.h</text>
</a>
</g>
</g>
<!-- Node1&#45;&gt;Node2 -->
<g id="edge1" class="edge">
<title>Node1&#45;&gt;Node2</title>
<path fill="none" stroke="midnightblue" d="M69,-112.4C69,-104.47 69,-94.46 69,-85.86"/>
<polygon fill="midnightblue" stroke="midnightblue" points="72.5,-85.66 69,-75.66 65.5,-85.66 72.5,-85.66"/>
</g>
<!-- Node3 -->
<g id="node3" class="node">
<title>Node3</title>
<g id="a_node3"><a xlink:title=" ">
<polygon fill="none" stroke="#bfbfbf" points="0,-0.5 0,-19.5 62,-19.5 62,-0.5 0,-0.5"/>
<text text-anchor="middle" x="31" y="-7.5" font-family="Helvetica,sans-Serif" font-size="10.00">FLHook.h</text>
</a>
</g>
</g>
<!-- Node2&#45;&gt;Node3 -->
<g id="edge2" class="edge">
<title>Node2&#45;&gt;Node3</title>
<path fill="none" stroke="midnightblue" d="M62.73,-56.08C57.36,-48.46 49.48,-37.26 42.92,-27.94"/>
<polygon fill="midnightblue" stroke="midnightblue" points="45.78,-25.91 37.16,-19.75 40.05,-29.94 45.78,-25.91"/>
</g>
<!-- Node4 -->
<g id="node4" class="node">
<title>Node4</title>
<g id="a_node4"><a xlink:title=" ">
<polygon fill="none" stroke="#bfbfbf" points="80,-0.5 80,-19.5 136,-19.5 136,-0.5 80,-0.5"/>
<text text-anchor="middle" x="108" y="-7.5" font-family="Helvetica,sans-Serif" font-size="10.00">plugin.h</text>
</a>
</g>
</g>
<!-- Node2&#45;&gt;Node4 -->
<g id="edge3" class="edge">
<title>Node2&#45;&gt;Node4</title>
<path fill="none" stroke="midnightblue" d="M75.44,-56.08C80.95,-48.46 89.03,-37.26 95.76,-27.94"/>
<polygon fill="midnightblue" stroke="midnightblue" points="98.66,-29.91 101.68,-19.75 92.99,-25.81 98.66,-29.91"/>
</g>
</g>
</svg>
