<?xml version="1.0" encoding="UTF-8" standalone="no"?>
<!DOCTYPE svg PUBLIC "-//W3C//DTD SVG 1.1//EN"
 "http://www.w3.org/Graphics/SVG/1.1/DTD/svg11.dtd">
<!-- Generated by graphviz version 2.43.0 (0)
 -->
<!-- Title: source/Features/Timers.cpp Pages: 1 -->
<svg width="262pt" height="137pt"
 viewBox="0.00 0.00 261.50 137.00" xmlns="http://www.w3.org/2000/svg" xmlns:xlink="http://www.w3.org/1999/xlink">
<g id="graph0" class="graph" transform="scale(1 1) rotate(0) translate(4 133)">
<title>source/Features/Timers.cpp</title>
<!-- Node1 -->
<g id="node1" class="node">
<title>Node1</title>
<g id="a_node1"><a xlink:title=" ">
<polygon fill="#999999" stroke="#666666" points="202.5,-129 51.5,-129 51.5,-110 202.5,-110 202.5,-129"/>
<text text-anchor="middle" x="127" y="-117" font-family="Helvetica,sans-Serif" font-size="10.00">source/Features/Timers.cpp</text>
</a>
</g>
</g>
<!-- Node2 -->
<g id="node2" class="node">
<title>Node2</title>
<g id="a_node2"><a xlink:href="_global_8hpp.html" target="_top" xlink:title=" ">
<polygon fill="white" stroke="#666666" points="71.5,-74 2.5,-74 2.5,-55 71.5,-55 71.5,-74"/>
<text text-anchor="middle" x="37" y="-62" font-family="Helvetica,sans-Serif" font-size="10.00">Global.hpp</text>
</a>
</g>
</g>
<!-- Node1&#45;&gt;Node2 -->
<g id="edge1" class="edge">
<title>Node1&#45;&gt;Node2</title>
<path fill="none" stroke="#63b8ff" d="M112.54,-109.98C98.58,-101.77 77.21,-89.18 60.75,-79.49"/>
<polygon fill="#63b8ff" stroke="#63b8ff" points="62.12,-76.23 51.72,-74.17 58.56,-82.26 62.12,-76.23"/>
</g>
<!-- Node4 -->
<g id="node4" class="node">
<title>Node4</title>
<g id="a_node4"><a xlink:title=" ">
<polygon fill="#e0e0e0" stroke="#999999" points="164,-74 90,-74 90,-55 164,-55 164,-74"/>
<text text-anchor="middle" x="127" y="-62" font-family="Helvetica,sans-Serif" font-size="10.00">WinSock2.h</text>
</a>
</g>
</g>
<!-- Node1&#45;&gt;Node4 -->
<g id="edge3" class="edge">
<title>Node1&#45;&gt;Node4</title>
<path fill="none" stroke="#63b8ff" d="M127,-109.75C127,-102.8 127,-92.85 127,-84.13"/>
<polygon fill="#63b8ff" stroke="#63b8ff" points="130.5,-84.09 127,-74.09 123.5,-84.09 130.5,-84.09"/>
</g>
<!-- Node5 -->
<g id="node5" class="node">
<title>Node5</title>
<g id="a_node5"><a xlink:title=" ">
<polygon fill="#e0e0e0" stroke="#999999" points="253.5,-74 182.5,-74 182.5,-55 253.5,-55 253.5,-74"/>
<text text-anchor="middle" x="218" y="-62" font-family="Helvetica,sans-Serif" font-size="10.00">WS2tcpip.h</text>
</a>
</g>
</g>
<!-- Node1&#45;&gt;Node5 -->
<g id="edge4" class="edge">
<title>Node1&#45;&gt;Node5</title>
<path fill="none" stroke="#63b8ff" d="M141.62,-109.98C155.86,-101.69 177.75,-88.94 194.45,-79.22"/>
<polygon fill="#63b8ff" stroke="#63b8ff" points="196.23,-82.23 203.11,-74.17 192.71,-76.18 196.23,-82.23"/>
</g>
<!-- Node3 -->
<g id="node3" class="node">
<title>Node3</title>
<g id="a_node3"><a xlink:title=" ">
<polygon fill="#e0e0e0" stroke="#999999" points="74,-19 0,-19 0,0 74,0 74,-19"/>
<text text-anchor="middle" x="37" y="-7" font-family="Helvetica,sans-Serif" font-size="10.00">FLHook.hpp</text>
</a>
</g>
</g>
<!-- Node2&#45;&gt;Node3 -->
<g id="edge2" class="edge">
<title>Node2&#45;&gt;Node3</title>
<path fill="none" stroke="#63b8ff" d="M37,-54.75C37,-47.8 37,-37.85 37,-29.13"/>
<polygon fill="#63b8ff" stroke="#63b8ff" points="40.5,-29.09 37,-19.09 33.5,-29.09 40.5,-29.09"/>
</g>
</g>
</svg>
