<?xml version="1.0" encoding="UTF-8" standalone="no"?>
<!DOCTYPE svg PUBLIC "-//W3C//DTD SVG 1.1//EN"
 "http://www.w3.org/Graphics/SVG/1.1/DTD/svg11.dtd">
<!-- Generated by graphviz version 2.43.0 (0)
 -->
<!-- Title: source/Features/UserCommands.cpp Pages: 1 -->
<svg width="211pt" height="137pt"
 viewBox="0.00 0.00 210.50 137.00" xmlns="http://www.w3.org/2000/svg" xmlns:xlink="http://www.w3.org/1999/xlink">
<g id="graph0" class="graph" transform="scale(1 1) rotate(0) translate(4 133)">
<title>source/Features/UserCommands.cpp</title>
<!-- Node1 -->
<g id="node1" class="node">
<title>Node1</title>
<g id="a_node1"><a xlink:title=" ">
<polygon fill="#999999" stroke="#666666" points="195,-129 0,-129 0,-110 195,-110 195,-129"/>
<text text-anchor="middle" x="97.5" y="-117" font-family="Helvetica,sans-Serif" font-size="10.00">source/Features/UserCommands.cpp</text>
</a>
</g>
</g>
<!-- Node2 -->
<g id="node2" class="node">
<title>Node2</title>
<g id="a_node2"><a xlink:href="_global_8hpp.html" target="_top" xlink:title=" ">
<polygon fill="white" stroke="#666666" points="80,-74 11,-74 11,-55 80,-55 80,-74"/>
<text text-anchor="middle" x="45.5" y="-62" font-family="Helvetica,sans-Serif" font-size="10.00">Global.hpp</text>
</a>
</g>
</g>
<!-- Node1&#45;&gt;Node2 -->
<g id="edge1" class="edge">
<title>Node1&#45;&gt;Node2</title>
<path fill="none" stroke="#63b8ff" d="M88.91,-109.75C81.34,-102.03 70.12,-90.6 60.99,-81.28"/>
<polygon fill="#63b8ff" stroke="#63b8ff" points="63.43,-78.78 53.93,-74.09 58.43,-83.68 63.43,-78.78"/>
</g>
<!-- Node4 -->
<g id="node4" class="node">
<title>Node4</title>
<g id="a_node4"><a xlink:title=" ">
<polygon fill="#e0e0e0" stroke="#999999" points="202.5,-74 98.5,-74 98.5,-55 202.5,-55 202.5,-74"/>
<text text-anchor="middle" x="150.5" y="-62" font-family="Helvetica,sans-Serif" font-size="10.00">Features/Mail.hpp</text>
</a>
</g>
</g>
<!-- Node1&#45;&gt;Node4 -->
<g id="edge3" class="edge">
<title>Node1&#45;&gt;Node4</title>
<path fill="none" stroke="#63b8ff" d="M106.25,-109.75C113.97,-102.03 125.4,-90.6 134.72,-81.28"/>
<polygon fill="#63b8ff" stroke="#63b8ff" points="137.31,-83.64 141.91,-74.09 132.36,-78.69 137.31,-83.64"/>
</g>
<!-- Node3 -->
<g id="node3" class="node">
<title>Node3</title>
<g id="a_node3"><a xlink:title=" ">
<polygon fill="#e0e0e0" stroke="#999999" points="82.5,-19 8.5,-19 8.5,0 82.5,0 82.5,-19"/>
<text text-anchor="middle" x="45.5" y="-7" font-family="Helvetica,sans-Serif" font-size="10.00">FLHook.hpp</text>
</a>
</g>
</g>
<!-- Node2&#45;&gt;Node3 -->
<g id="edge2" class="edge">
<title>Node2&#45;&gt;Node3</title>
<path fill="none" stroke="#63b8ff" d="M45.5,-54.75C45.5,-47.8 45.5,-37.85 45.5,-29.13"/>
<polygon fill="#63b8ff" stroke="#63b8ff" points="49,-29.09 45.5,-19.09 42,-29.09 49,-29.09"/>
</g>
</g>
</svg>
