<?xml version="1.0" encoding="UTF-8" standalone="no"?>
<!DOCTYPE svg PUBLIC "-//W3C//DTD SVG 1.1//EN"
 "http://www.w3.org/Graphics/SVG/1.1/DTD/svg11.dtd">
<!-- Generated by graphviz version 2.43.0 (0)
 -->
<!-- Title: plugins/stats/Main.cpp Pages: 1 -->
<svg width="436pt" height="148pt"
 viewBox="0.00 0.00 436.00 148.00" xmlns="http://www.w3.org/2000/svg" xmlns:xlink="http://www.w3.org/1999/xlink">
<g id="graph0" class="graph" transform="scale(1 1) rotate(0) translate(4 144)">
<title>plugins/stats/Main.cpp</title>
<!-- Node1 -->
<g id="node1" class="node">
<title>Node1</title>
<g id="a_node1"><a xlink:title=" ">
<polygon fill="#999999" stroke="#666666" points="307,-140 181,-140 181,-121 307,-121 307,-140"/>
<text text-anchor="middle" x="244" y="-128" font-family="Helvetica,sans-Serif" font-size="10.00">plugins/stats/Main.cpp</text>
</a>
</g>
</g>
<!-- Node2 -->
<g id="node2" class="node">
<title>Node2</title>
<g id="a_node2"><a xlink:href="stats_2_main_8h.html" target="_top" xlink:title=" ">
<polygon fill="white" stroke="#666666" points="221,-79.5 171,-79.5 171,-60.5 221,-60.5 221,-79.5"/>
<text text-anchor="middle" x="196" y="-67.5" font-family="Helvetica,sans-Serif" font-size="10.00">Main.h</text>
</a>
</g>
</g>
<!-- Node1&#45;&gt;Node2 -->
<g id="edge1" class="edge">
<title>Node1&#45;&gt;Node2</title>
<path fill="none" stroke="#63b8ff" d="M236.92,-120.87C229.76,-112.14 218.51,-98.43 209.61,-87.59"/>
<polygon fill="#63b8ff" stroke="#63b8ff" points="212.16,-85.18 203.11,-79.67 206.75,-89.62 212.16,-85.18"/>
</g>
<!-- Node8 -->
<g id="node8" class="node">
<title>Node8</title>
<g id="a_node8"><a xlink:title=" ">
<polygon fill="#e0e0e0" stroke="#999999" points="344.5,-85 239.5,-85 239.5,-55 344.5,-55 344.5,-85"/>
<text text-anchor="start" x="247.5" y="-73" font-family="Helvetica,sans-Serif" font-size="10.00">Tools/Serialization</text>
<text text-anchor="middle" x="292" y="-62" font-family="Helvetica,sans-Serif" font-size="10.00">/Attributes.hpp</text>
</a>
</g>
</g>
<!-- Node1&#45;&gt;Node8 -->
<g id="edge7" class="edge">
<title>Node1&#45;&gt;Node8</title>
<path fill="none" stroke="#63b8ff" d="M251.08,-120.87C257.11,-113.52 266.04,-102.63 274.02,-92.91"/>
<polygon fill="#63b8ff" stroke="#63b8ff" points="276.78,-95.07 280.42,-85.11 271.37,-90.63 276.78,-95.07"/>
</g>
<!-- Node3 -->
<g id="node3" class="node">
<title>Node3</title>
<g id="a_node3"><a xlink:title=" ">
<polygon fill="#e0e0e0" stroke="#999999" points="74,-19 0,-19 0,0 74,0 74,-19"/>
<text text-anchor="middle" x="37" y="-7" font-family="Helvetica,sans-Serif" font-size="10.00">FLHook.hpp</text>
</a>
</g>
</g>
<!-- Node2&#45;&gt;Node3 -->
<g id="edge2" class="edge">
<title>Node2&#45;&gt;Node3</title>
<path fill="none" stroke="#63b8ff" d="M172.88,-60.49C145.68,-50.49 100.33,-33.8 69.58,-22.49"/>
<polygon fill="#63b8ff" stroke="#63b8ff" points="70.74,-19.18 60.15,-19.02 68.32,-25.75 70.74,-19.18"/>
</g>
<!-- Node4 -->
<g id="node4" class="node">
<title>Node4</title>
<g id="a_node4"><a xlink:title=" ">
<polygon fill="#e0e0e0" stroke="#999999" points="147.5,-19 92.5,-19 92.5,0 147.5,0 147.5,-19"/>
<text text-anchor="middle" x="120" y="-7" font-family="Helvetica,sans-Serif" font-size="10.00">fstream</text>
</a>
</g>
</g>
<!-- Node2&#45;&gt;Node4 -->
<g id="edge3" class="edge">
<title>Node2&#45;&gt;Node4</title>
<path fill="none" stroke="#63b8ff" d="M184.79,-60.37C172.89,-51.21 153.86,-36.56 139.49,-25.51"/>
<polygon fill="#63b8ff" stroke="#63b8ff" points="141.32,-22.49 131.26,-19.17 137.05,-28.04 141.32,-22.49"/>
</g>
<!-- Node5 -->
<g id="node5" class="node">
<title>Node5</title>
<g id="a_node5"><a xlink:title=" ">
<polygon fill="#e0e0e0" stroke="#999999" points="226,-19 166,-19 166,0 226,0 226,-19"/>
<text text-anchor="middle" x="196" y="-7" font-family="Helvetica,sans-Serif" font-size="10.00">iostream</text>
</a>
</g>
</g>
<!-- Node2&#45;&gt;Node5 -->
<g id="edge4" class="edge">
<title>Node2&#45;&gt;Node5</title>
<path fill="none" stroke="#63b8ff" d="M196,-60.37C196,-52.25 196,-39.81 196,-29.39"/>
<polygon fill="#63b8ff" stroke="#63b8ff" points="199.5,-29.17 196,-19.17 192.5,-29.17 199.5,-29.17"/>
</g>
<!-- Node6 -->
<g id="node6" class="node">
<title>Node6</title>
<g id="a_node6"><a xlink:title=" ">
<polygon fill="#e0e0e0" stroke="#999999" points="354,-19 244,-19 244,0 354,0 354,-19"/>
<text text-anchor="middle" x="299" y="-7" font-family="Helvetica,sans-Serif" font-size="10.00">nlohmann/json.hpp</text>
</a>
</g>
</g>
<!-- Node2&#45;&gt;Node6 -->
<g id="edge5" class="edge">
<title>Node2&#45;&gt;Node6</title>
<path fill="none" stroke="#63b8ff" d="M211.2,-60.37C228.01,-50.82 255.32,-35.31 275.02,-24.12"/>
<polygon fill="#63b8ff" stroke="#63b8ff" points="276.77,-27.15 283.74,-19.17 273.32,-21.06 276.77,-27.15"/>
</g>
<!-- Node7 -->
<g id="node7" class="node">
<title>Node7</title>
<g id="a_node7"><a xlink:title=" ">
<polygon fill="#e0e0e0" stroke="#999999" points="428,-19 372,-19 372,0 428,0 428,-19"/>
<text text-anchor="middle" x="400" y="-7" font-family="Helvetica,sans-Serif" font-size="10.00">plugin.h</text>
</a>
</g>
</g>
<!-- Node2&#45;&gt;Node7 -->
<g id="edge6" class="edge">
<title>Node2&#45;&gt;Node7</title>
<path fill="none" stroke="#63b8ff" d="M216.2,-60.43C221.01,-58.53 226.15,-56.6 231,-55 255.09,-47.04 319.81,-30.5 361.81,-19.97"/>
<polygon fill="#63b8ff" stroke="#63b8ff" points="362.84,-23.32 371.7,-17.5 361.15,-16.53 362.84,-23.32"/>
</g>
</g>
</svg>
