<?xml version="1.0" encoding="UTF-8" standalone="no"?>
<!DOCTYPE svg PUBLIC "-//W3C//DTD SVG 1.1//EN"
 "http://www.w3.org/Graphics/SVG/1.1/DTD/svg11.dtd">
<!-- Generated by graphviz version 2.43.0 (0)
 -->
<!-- Title: plugins/tempban_plugin/Main.h Pages: 1 -->
<svg width="621pt" height="173pt"
 viewBox="0.00 0.00 620.50 173.00" xmlns="http://www.w3.org/2000/svg" xmlns:xlink="http://www.w3.org/1999/xlink">
<g id="graph0" class="graph" transform="scale(1 1) rotate(0) translate(4 169)">
<title>plugins/tempban_plugin/Main.h</title>
<!-- Node1 -->
<g id="node1" class="node">
<title>Node1</title>
<g id="a_node1"><a xlink:title=" ">
<polygon fill="#bfbfbf" stroke="black" points="251.5,-134.5 251.5,-164.5 385.5,-164.5 385.5,-134.5 251.5,-134.5"/>
<text text-anchor="start" x="259.5" y="-152.5" font-family="Helvetica,sans-Serif" font-size="10.00">plugins/tempban_plugin</text>
<text text-anchor="middle" x="318.5" y="-141.5" font-family="Helvetica,sans-Serif" font-size="10.00">/Main.h</text>
</a>
</g>
</g>
<!-- Node2 -->
<g id="node2" class="node">
<title>Node2</title>
<g id="a_node2"><a xlink:href="anti__jump__disconnect__plugin_2main_8h.html" target="_top" xlink:title=" ">
<polygon fill="none" stroke="black" points="0,-67.5 0,-97.5 161,-97.5 161,-67.5 0,-67.5"/>
<text text-anchor="start" x="8" y="-85.5" font-family="Helvetica,sans-Serif" font-size="10.00">plugins/anti_jump_disconnect</text>
<text text-anchor="middle" x="80.5" y="-74.5" font-family="Helvetica,sans-Serif" font-size="10.00">_plugin/Main.h</text>
</a>
</g>
</g>
<!-- Node1&#45;&gt;Node2 -->
<g id="edge1" class="edge">
<title>Node1&#45;&gt;Node2</title>
<path fill="none" stroke="midnightblue" d="M257.04,-131.71C218.31,-121.14 168.87,-107.63 132.17,-97.61"/>
<polygon fill="midnightblue" stroke="midnightblue" points="256.58,-135.22 267.15,-134.48 258.43,-128.46 256.58,-135.22"/>
</g>
<!-- Node4 -->
<g id="node4" class="node">
<title>Node4</title>
<g id="a_node4"><a xlink:href="header_8h.html" target="_top" xlink:title=" ">
<polygon fill="none" stroke="black" points="179,-67.5 179,-97.5 308,-97.5 308,-67.5 179,-67.5"/>
<text text-anchor="start" x="187" y="-85.5" font-family="Helvetica,sans-Serif" font-size="10.00">plugins/condata_plugin</text>
<text text-anchor="middle" x="243.5" y="-74.5" font-family="Helvetica,sans-Serif" font-size="10.00">/header.h</text>
</a>
</g>
</g>
<!-- Node1&#45;&gt;Node4 -->
<g id="edge3" class="edge">
<title>Node1&#45;&gt;Node4</title>
<path fill="none" stroke="midnightblue" d="M294.38,-127.6C283.06,-117.78 269.86,-106.34 259.74,-97.58"/>
<polygon fill="midnightblue" stroke="midnightblue" points="292.38,-130.49 302.23,-134.4 296.96,-125.2 292.38,-130.49"/>
</g>
<!-- Node6 -->
<g id="node6" class="node">
<title>Node6</title>
<g id="a_node6"><a xlink:href="message__plugin_2_main_8cpp.html" target="_top" xlink:title=" ">
<polygon fill="none" stroke="black" points="326.5,-67.5 326.5,-97.5 460.5,-97.5 460.5,-67.5 326.5,-67.5"/>
<text text-anchor="start" x="334.5" y="-85.5" font-family="Helvetica,sans-Serif" font-size="10.00">plugins/message_plugin</text>
<text text-anchor="middle" x="393.5" y="-74.5" font-family="Helvetica,sans-Serif" font-size="10.00">/Main.cpp</text>
</a>
</g>
</g>
<!-- Node1&#45;&gt;Node6 -->
<g id="edge5" class="edge">
<title>Node1&#45;&gt;Node6</title>
<path fill="none" stroke="midnightblue" d="M342.62,-127.6C353.94,-117.78 367.14,-106.34 377.26,-97.58"/>
<polygon fill="midnightblue" stroke="midnightblue" points="340.04,-125.2 334.77,-134.4 344.62,-130.49 340.04,-125.2"/>
</g>
<!-- Node7 -->
<g id="node7" class="node">
<title>Node7</title>
<g id="a_node7"><a xlink:href="tempban__plugin_2_main_8cpp.html" target="_top" xlink:title=" ">
<polygon fill="none" stroke="black" points="478.5,-67.5 478.5,-97.5 612.5,-97.5 612.5,-67.5 478.5,-67.5"/>
<text text-anchor="start" x="486.5" y="-85.5" font-family="Helvetica,sans-Serif" font-size="10.00">plugins/tempban_plugin</text>
<text text-anchor="middle" x="545.5" y="-74.5" font-family="Helvetica,sans-Serif" font-size="10.00">/Main.cpp</text>
</a>
</g>
</g>
<!-- Node1&#45;&gt;Node7 -->
<g id="edge6" class="edge">
<title>Node1&#45;&gt;Node7</title>
<path fill="none" stroke="midnightblue" d="M377.12,-131.71C414.06,-121.14 461.21,-107.63 496.22,-97.61"/>
<polygon fill="midnightblue" stroke="midnightblue" points="376.13,-128.36 367.48,-134.48 378.05,-135.09 376.13,-128.36"/>
</g>
<!-- Node3 -->
<g id="node3" class="node">
<title>Node3</title>
<g id="a_node3"><a xlink:href="anti__jump__disconnect__plugin_2_main_8cpp.html" target="_top" xlink:title=" ">
<polygon fill="none" stroke="black" points="0,-0.5 0,-30.5 161,-30.5 161,-0.5 0,-0.5"/>
<text text-anchor="start" x="8" y="-18.5" font-family="Helvetica,sans-Serif" font-size="10.00">plugins/anti_jump_disconnect</text>
<text text-anchor="middle" x="80.5" y="-7.5" font-family="Helvetica,sans-Serif" font-size="10.00">_plugin/Main.cpp</text>
</a>
</g>
</g>
<!-- Node2&#45;&gt;Node3 -->
<g id="edge2" class="edge">
<title>Node2&#45;&gt;Node3</title>
<path fill="none" stroke="midnightblue" d="M80.5,-57.11C80.5,-48.15 80.5,-38.32 80.5,-30.58"/>
<polygon fill="midnightblue" stroke="midnightblue" points="77,-57.4 80.5,-67.4 84,-57.4 77,-57.4"/>
</g>
<!-- Node5 -->
<g id="node5" class="node">
<title>Node5</title>
<g id="a_node5"><a xlink:href="condata__plugin_2_main_8cpp.html" target="_top" xlink:title=" ">
<polygon fill="none" stroke="black" points="179,-0.5 179,-30.5 308,-30.5 308,-0.5 179,-0.5"/>
<text text-anchor="start" x="187" y="-18.5" font-family="Helvetica,sans-Serif" font-size="10.00">plugins/condata_plugin</text>
<text text-anchor="middle" x="243.5" y="-7.5" font-family="Helvetica,sans-Serif" font-size="10.00">/Main.cpp</text>
</a>
</g>
</g>
<!-- Node4&#45;&gt;Node5 -->
<g id="edge4" class="edge">
<title>Node4&#45;&gt;Node5</title>
<path fill="none" stroke="midnightblue" d="M243.5,-57.11C243.5,-48.15 243.5,-38.32 243.5,-30.58"/>
<polygon fill="midnightblue" stroke="midnightblue" points="240,-57.4 243.5,-67.4 247,-57.4 240,-57.4"/>
</g>
</g>
</svg>
