<?xml version="1.0" encoding="UTF-8" standalone="no"?>
<!DOCTYPE svg PUBLIC "-//W3C//DTD SVG 1.1//EN"
 "http://www.w3.org/Graphics/SVG/1.1/DTD/svg11.dtd">
<!-- Generated by graphviz version 2.43.0 (0)
 -->
<!-- Title: plugins/tempban_plugin/Main.h Pages: 1 -->
<svg width="208pt" height="95pt"
 viewBox="0.00 0.00 207.50 95.00" xmlns="http://www.w3.org/2000/svg" xmlns:xlink="http://www.w3.org/1999/xlink">
<g id="graph0" class="graph" transform="scale(1 1) rotate(0) translate(4 91)">
<title>plugins/tempban_plugin/Main.h</title>
<!-- Node1 -->
<g id="node1" class="node">
<title>Node1</title>
<g id="a_node1"><a xlink:title=" ">
<polygon fill="#bfbfbf" stroke="black" points="41,-56.5 41,-86.5 175,-86.5 175,-56.5 41,-56.5"/>
<text text-anchor="start" x="49" y="-74.5" font-family="Helvetica,sans-Serif" font-size="10.00">plugins/tempban_plugin</text>
<text text-anchor="middle" x="108" y="-63.5" font-family="Helvetica,sans-Serif" font-size="10.00">/Main.h</text>
</a>
</g>
</g>
<!-- Node2 -->
<g id="node2" class="node">
<title>Node2</title>
<g id="a_node2"><a xlink:title=" ">
<polygon fill="none" stroke="#bfbfbf" points="0,-0.5 0,-19.5 62,-19.5 62,-0.5 0,-0.5"/>
<text text-anchor="middle" x="31" y="-7.5" font-family="Helvetica,sans-Serif" font-size="10.00">FLHook.h</text>
</a>
</g>
</g>
<!-- Node1&#45;&gt;Node2 -->
<g id="edge1" class="edge">
<title>Node1&#45;&gt;Node2</title>
<path fill="none" stroke="midnightblue" d="M89.75,-56.4C77.87,-47.22 62.39,-35.26 50.31,-25.92"/>
<polygon fill="midnightblue" stroke="midnightblue" points="52.26,-23 42.2,-19.66 47.98,-28.54 52.26,-23"/>
</g>
<!-- Node3 -->
<g id="node3" class="node">
<title>Node3</title>
<g id="a_node3"><a xlink:title=" ">
<polygon fill="none" stroke="#bfbfbf" points="80,-0.5 80,-19.5 136,-19.5 136,-0.5 80,-0.5"/>
<text text-anchor="middle" x="108" y="-7.5" font-family="Helvetica,sans-Serif" font-size="10.00">plugin.h</text>
</a>
</g>
</g>
<!-- Node1&#45;&gt;Node3 -->
<g id="edge2" class="edge">
<title>Node1&#45;&gt;Node3</title>
<path fill="none" stroke="midnightblue" d="M108,-56.4C108,-48.47 108,-38.46 108,-29.86"/>
<polygon fill="midnightblue" stroke="midnightblue" points="111.5,-29.66 108,-19.66 104.5,-29.66 111.5,-29.66"/>
</g>
<!-- Node4 -->
<g id="node4" class="node">
<title>Node4</title>
<g id="a_node4"><a xlink:title=" ">
<polygon fill="none" stroke="#bfbfbf" points="154.5,-0.5 154.5,-19.5 199.5,-19.5 199.5,-0.5 154.5,-0.5"/>
<text text-anchor="middle" x="177" y="-7.5" font-family="Helvetica,sans-Serif" font-size="10.00">utility</text>
</a>
</g>
</g>
<!-- Node1&#45;&gt;Node4 -->
<g id="edge3" class="edge">
<title>Node1&#45;&gt;Node4</title>
<path fill="none" stroke="midnightblue" d="M124.35,-56.4C134.9,-47.31 148.6,-35.49 159.38,-26.19"/>
<polygon fill="midnightblue" stroke="midnightblue" points="161.67,-28.84 166.96,-19.66 157.1,-23.54 161.67,-28.84"/>
</g>
</g>
</svg>
