<?xml version="1.0" encoding="UTF-8" standalone="no"?>
<!DOCTYPE svg PUBLIC "-//W3C//DTD SVG 1.1//EN"
 "http://www.w3.org/Graphics/SVG/1.1/DTD/svg11.dtd">
<!-- Generated by graphviz version 2.43.0 (0)
 -->
<!-- Title: plugins/tempban/Main.h Pages: 1 -->
<svg width="641pt" height="159pt"
 viewBox="0.00 0.00 640.50 159.00" xmlns="http://www.w3.org/2000/svg" xmlns:xlink="http://www.w3.org/1999/xlink">
<g id="graph0" class="graph" transform="scale(1 1) rotate(0) translate(4 155)">
<title>plugins/tempban/Main.h</title>
<!-- Node1 -->
<g id="node1" class="node">
<title>Node1</title>
<g id="a_node1"><a xlink:title=" ">
<polygon fill="#999999" stroke="#666666" points="391.5,-151 257.5,-151 257.5,-132 391.5,-132 391.5,-151"/>
<text text-anchor="middle" x="324.5" y="-139" font-family="Helvetica,sans-Serif" font-size="10.00">plugins/tempban/Main.h</text>
</a>
</g>
</g>
<!-- Node2 -->
<g id="node2" class="node">
<title>Node2</title>
<g id="a_node2"><a xlink:href="anti__jump__disconnect_2_main_8h.html" target="_top" xlink:title=" ">
<polygon fill="white" stroke="#666666" points="164,-96 3,-96 3,-66 164,-66 164,-96"/>
<text text-anchor="start" x="11" y="-84" font-family="Helvetica,sans-Serif" font-size="10.00">plugins/anti_jump_disconnect</text>
<text text-anchor="middle" x="83.5" y="-73" font-family="Helvetica,sans-Serif" font-size="10.00">/Main.h</text>
</a>
</g>
</g>
<!-- Node1&#45;&gt;Node2 -->
<g id="edge1" class="edge">
<title>Node1&#45;&gt;Node2</title>
<path fill="none" stroke="#63b8ff" d="M279.45,-129.56C240.45,-120.1 183.81,-106.35 141.44,-96.06"/>
<polygon fill="#63b8ff" stroke="#63b8ff" points="278.91,-133.04 289.46,-131.99 280.56,-126.23 278.91,-133.04"/>
</g>
<!-- Node4 -->
<g id="node4" class="node">
<title>Node4</title>
<g id="a_node4"><a xlink:href="condata_2_main_8h.html" target="_top" xlink:title=" ">
<polygon fill="white" stroke="#666666" points="314.5,-90.5 184.5,-90.5 184.5,-71.5 314.5,-71.5 314.5,-90.5"/>
<text text-anchor="middle" x="249.5" y="-78.5" font-family="Helvetica,sans-Serif" font-size="10.00">plugins/condata/Main.h</text>
</a>
</g>
</g>
<!-- Node1&#45;&gt;Node4 -->
<g id="edge3" class="edge">
<title>Node1&#45;&gt;Node4</title>
<path fill="none" stroke="#63b8ff" d="M305.32,-125.54C291.15,-114.49 272.37,-99.84 260.61,-90.67"/>
<polygon fill="#63b8ff" stroke="#63b8ff" points="303.4,-128.48 313.43,-131.87 307.7,-122.96 303.4,-128.48"/>
</g>
<!-- Node6 -->
<g id="node6" class="node">
<title>Node6</title>
<g id="a_node6"><a xlink:href="message_2_main_8h.html" target="_top" xlink:title=" ">
<polygon fill="white" stroke="#666666" points="468,-90.5 333,-90.5 333,-71.5 468,-71.5 468,-90.5"/>
<text text-anchor="middle" x="400.5" y="-78.5" font-family="Helvetica,sans-Serif" font-size="10.00">plugins/message/Main.h</text>
</a>
</g>
</g>
<!-- Node1&#45;&gt;Node6 -->
<g id="edge5" class="edge">
<title>Node1&#45;&gt;Node6</title>
<path fill="none" stroke="#63b8ff" d="M343.94,-125.54C358.29,-114.49 377.32,-99.84 389.24,-90.67"/>
<polygon fill="#63b8ff" stroke="#63b8ff" points="341.5,-122.99 335.71,-131.87 345.77,-128.54 341.5,-122.99"/>
</g>
<!-- Node8 -->
<g id="node8" class="node">
<title>Node8</title>
<g id="a_node8"><a xlink:href="tempban_2_main_8cpp.html" target="_top" xlink:title=" ">
<polygon fill="white" stroke="#666666" points="632.5,-90.5 486.5,-90.5 486.5,-71.5 632.5,-71.5 632.5,-90.5"/>
<text text-anchor="middle" x="559.5" y="-78.5" font-family="Helvetica,sans-Serif" font-size="10.00">plugins/tempban/Main.cpp</text>
</a>
</g>
</g>
<!-- Node1&#45;&gt;Node8 -->
<g id="edge7" class="edge">
<title>Node1&#45;&gt;Node8</title>
<path fill="none" stroke="#63b8ff" d="M368.53,-129.54C413.96,-118.23 483.85,-100.83 525.29,-90.52"/>
<polygon fill="#63b8ff" stroke="#63b8ff" points="367.53,-126.18 358.67,-131.99 369.22,-132.97 367.53,-126.18"/>
</g>
<!-- Node3 -->
<g id="node3" class="node">
<title>Node3</title>
<g id="a_node3"><a xlink:href="anti__jump__disconnect_2_main_8cpp.html" target="_top" xlink:title=" ">
<polygon fill="white" stroke="#666666" points="161,-30 0,-30 0,0 161,0 161,-30"/>
<text text-anchor="start" x="8" y="-18" font-family="Helvetica,sans-Serif" font-size="10.00">plugins/anti_jump_disconnect</text>
<text text-anchor="middle" x="80.5" y="-7" font-family="Helvetica,sans-Serif" font-size="10.00">/Main.cpp</text>
</a>
</g>
</g>
<!-- Node2&#45;&gt;Node3 -->
<g id="edge2" class="edge">
<title>Node2&#45;&gt;Node3</title>
<path fill="none" stroke="#63b8ff" d="M82.35,-55.54C81.95,-46.96 81.51,-37.61 81.16,-30.16"/>
<polygon fill="#63b8ff" stroke="#63b8ff" points="78.87,-55.97 82.83,-65.8 85.86,-55.64 78.87,-55.97"/>
</g>
<!-- Node5 -->
<g id="node5" class="node">
<title>Node5</title>
<g id="a_node5"><a xlink:href="condata_2_main_8cpp.html" target="_top" xlink:title=" ">
<polygon fill="white" stroke="#666666" points="320,-24.5 179,-24.5 179,-5.5 320,-5.5 320,-24.5"/>
<text text-anchor="middle" x="249.5" y="-12.5" font-family="Helvetica,sans-Serif" font-size="10.00">plugins/condata/Main.cpp</text>
</a>
</g>
</g>
<!-- Node4&#45;&gt;Node5 -->
<g id="edge4" class="edge">
<title>Node4&#45;&gt;Node5</title>
<path fill="none" stroke="#63b8ff" d="M249.5,-61.08C249.5,-49.13 249.5,-34.22 249.5,-24.91"/>
<polygon fill="#63b8ff" stroke="#63b8ff" points="246,-61.37 249.5,-71.37 253,-61.37 246,-61.37"/>
</g>
<!-- Node7 -->
<g id="node7" class="node">
<title>Node7</title>
<g id="a_node7"><a xlink:href="message_2_main_8cpp.html" target="_top" xlink:title=" ">
<polygon fill="white" stroke="#666666" points="484.5,-24.5 338.5,-24.5 338.5,-5.5 484.5,-5.5 484.5,-24.5"/>
<text text-anchor="middle" x="411.5" y="-12.5" font-family="Helvetica,sans-Serif" font-size="10.00">plugins/message/Main.cpp</text>
</a>
</g>
</g>
<!-- Node6&#45;&gt;Node7 -->
<g id="edge6" class="edge">
<title>Node6&#45;&gt;Node7</title>
<path fill="none" stroke="#63b8ff" d="M403.69,-61.45C405.75,-49.43 408.35,-34.32 409.97,-24.91"/>
<polygon fill="#63b8ff" stroke="#63b8ff" points="400.23,-60.92 401.98,-71.37 407.13,-62.11 400.23,-60.92"/>
</g>
</g>
</svg>
