<?xml version="1.0" encoding="UTF-8" standalone="no"?>
<!DOCTYPE svg PUBLIC "-//W3C//DTD SVG 1.1//EN"
 "http://www.w3.org/Graphics/SVG/1.1/DTD/svg11.dtd">
<!-- Generated by graphviz version 2.43.0 (0)
 -->
<!-- Title: plugins/warehouse/Main.cpp Pages: 1 -->
<svg width="194pt" height="148pt"
 viewBox="0.00 0.00 193.50 148.00" xmlns="http://www.w3.org/2000/svg" xmlns:xlink="http://www.w3.org/1999/xlink">
<g id="graph0" class="graph" transform="scale(1 1) rotate(0) translate(4 144)">
<title>plugins/warehouse/Main.cpp</title>
<!-- Node1 -->
<g id="node1" class="node">
<title>Node1</title>
<g id="a_node1"><a xlink:title=" ">
<polygon fill="#999999" stroke="#666666" points="162.5,-140 7.5,-140 7.5,-121 162.5,-121 162.5,-140"/>
<text text-anchor="middle" x="85" y="-128" font-family="Helvetica,sans-Serif" font-size="10.00">plugins/warehouse/Main.cpp</text>
</a>
</g>
</g>
<!-- Node2 -->
<g id="node2" class="node">
<title>Node2</title>
<g id="a_node2"><a xlink:href="warehouse_2_main_8h.html" target="_top" xlink:title=" ">
<polygon fill="white" stroke="#666666" points="62,-79.5 12,-79.5 12,-60.5 62,-60.5 62,-79.5"/>
<text text-anchor="middle" x="37" y="-67.5" font-family="Helvetica,sans-Serif" font-size="10.00">Main.h</text>
</a>
</g>
</g>
<!-- Node1&#45;&gt;Node2 -->
<g id="edge1" class="edge">
<title>Node1&#45;&gt;Node2</title>
<path fill="none" stroke="#63b8ff" d="M77.92,-120.87C70.76,-112.14 59.51,-98.43 50.61,-87.59"/>
<polygon fill="#63b8ff" stroke="#63b8ff" points="53.16,-85.18 44.11,-79.67 47.75,-89.62 53.16,-85.18"/>
</g>
<!-- Node4 -->
<g id="node4" class="node">
<title>Node4</title>
<g id="a_node4"><a xlink:title=" ">
<polygon fill="#e0e0e0" stroke="#999999" points="185.5,-85 80.5,-85 80.5,-55 185.5,-55 185.5,-85"/>
<text text-anchor="start" x="88.5" y="-73" font-family="Helvetica,sans-Serif" font-size="10.00">Tools/Serialization</text>
<text text-anchor="middle" x="133" y="-62" font-family="Helvetica,sans-Serif" font-size="10.00">/Attributes.hpp</text>
</a>
</g>
</g>
<!-- Node1&#45;&gt;Node4 -->
<g id="edge3" class="edge">
<title>Node1&#45;&gt;Node4</title>
<path fill="none" stroke="#63b8ff" d="M92.08,-120.87C98.11,-113.52 107.04,-102.63 115.02,-92.91"/>
<polygon fill="#63b8ff" stroke="#63b8ff" points="117.78,-95.07 121.42,-85.11 112.37,-90.63 117.78,-95.07"/>
</g>
<!-- Node3 -->
<g id="node3" class="node">
<title>Node3</title>
<g id="a_node3"><a xlink:title=" ">
<polygon fill="#e0e0e0" stroke="#999999" points="74,-19 0,-19 0,0 74,0 74,-19"/>
<text text-anchor="middle" x="37" y="-7" font-family="Helvetica,sans-Serif" font-size="10.00">FLHook.hpp</text>
</a>
</g>
</g>
<!-- Node2&#45;&gt;Node3 -->
<g id="edge2" class="edge">
<title>Node2&#45;&gt;Node3</title>
<path fill="none" stroke="#63b8ff" d="M37,-60.37C37,-52.25 37,-39.81 37,-29.39"/>
<polygon fill="#63b8ff" stroke="#63b8ff" points="40.5,-29.17 37,-19.17 33.5,-29.17 40.5,-29.17"/>
</g>
</g>
</svg>
