<?xml version="1.0" encoding="UTF-8" standalone="no"?>
<!DOCTYPE svg PUBLIC "-//W3C//DTD SVG 1.1//EN"
 "http://www.w3.org/Graphics/SVG/1.1/DTD/svg11.dtd">
<!-- Generated by graphviz version 2.43.0 (0)
 -->
<!-- Title: source/wildcards.hh Pages: 1 -->
<svg width="445pt" height="140pt"
 viewBox="0.00 0.00 445.00 140.00" xmlns="http://www.w3.org/2000/svg" xmlns:xlink="http://www.w3.org/1999/xlink">
<g id="graph0" class="graph" transform="scale(1 1) rotate(0) translate(4 136)">
<title>source/wildcards.hh</title>
<!-- Node1 -->
<g id="node1" class="node">
<title>Node1</title>
<g id="a_node1"><a xlink:title=" ">
<polygon fill="#bfbfbf" stroke="black" points="184,-112.5 184,-131.5 297,-131.5 297,-112.5 184,-112.5"/>
<text text-anchor="middle" x="240.5" y="-119.5" font-family="Helvetica,sans-Serif" font-size="10.00">source/wildcards.hh</text>
</a>
</g>
</g>
<!-- Node2 -->
<g id="node2" class="node">
<title>Node2</title>
<g id="a_node2"><a xlink:href="_hk_i_server_impl_8inl.html" target="_top" xlink:title=" ">
<polygon fill="none" stroke="black" points="26,-56.5 26,-75.5 163,-75.5 163,-56.5 26,-56.5"/>
<text text-anchor="middle" x="94.5" y="-63.5" font-family="Helvetica,sans-Serif" font-size="10.00">source/HkIServerImpl.inl</text>
</a>
</g>
</g>
<!-- Node1&#45;&gt;Node2 -->
<g id="edge1" class="edge">
<title>Node1&#45;&gt;Node2</title>
<path fill="none" stroke="midnightblue" d="M207.8,-108.91C180.35,-98.75 141.83,-84.51 117.53,-75.52"/>
<polygon fill="midnightblue" stroke="midnightblue" points="206.77,-112.26 217.37,-112.44 209.2,-105.69 206.77,-112.26"/>
</g>
<!-- Node4 -->
<g id="node4" class="node">
<title>Node4</title>
<g id="a_node4"><a xlink:href="_hk_timers_8cpp.html" target="_top" xlink:title=" ">
<polygon fill="none" stroke="black" points="181,-56.5 181,-75.5 300,-75.5 300,-56.5 181,-56.5"/>
<text text-anchor="middle" x="240.5" y="-63.5" font-family="Helvetica,sans-Serif" font-size="10.00">source/HkTimers.cpp</text>
</a>
</g>
</g>
<!-- Node1&#45;&gt;Node4 -->
<g id="edge3" class="edge">
<title>Node1&#45;&gt;Node4</title>
<path fill="none" stroke="midnightblue" d="M240.5,-101.8C240.5,-92.91 240.5,-82.78 240.5,-75.75"/>
<polygon fill="midnightblue" stroke="midnightblue" points="237,-102.08 240.5,-112.08 244,-102.08 237,-102.08"/>
</g>
<!-- Node5 -->
<g id="node5" class="node">
<title>Node5</title>
<g id="a_node5"><a xlink:href="source_2wildcards_8cpp.html" target="_top" xlink:title=" ">
<polygon fill="none" stroke="black" points="318,-56.5 318,-75.5 437,-75.5 437,-56.5 318,-56.5"/>
<text text-anchor="middle" x="377.5" y="-63.5" font-family="Helvetica,sans-Serif" font-size="10.00">source/wildcards.cpp</text>
</a>
</g>
</g>
<!-- Node1&#45;&gt;Node5 -->
<g id="edge4" class="edge">
<title>Node1&#45;&gt;Node5</title>
<path fill="none" stroke="midnightblue" d="M271.52,-108.77C297.26,-98.63 333.19,-84.47 355.89,-75.52"/>
<polygon fill="midnightblue" stroke="midnightblue" points="270.23,-105.52 262.21,-112.44 272.79,-112.03 270.23,-105.52"/>
</g>
<!-- Node3 -->
<g id="node3" class="node">
<title>Node3</title>
<g id="a_node3"><a xlink:href="_hk_client_server_interface_8cpp.html" target="_top" xlink:title=" ">
<polygon fill="none" stroke="black" points="0,-0.5 0,-19.5 189,-19.5 189,-0.5 0,-0.5"/>
<text text-anchor="middle" x="94.5" y="-7.5" font-family="Helvetica,sans-Serif" font-size="10.00">source/HkClientServerInterface.cpp</text>
</a>
</g>
</g>
<!-- Node2&#45;&gt;Node3 -->
<g id="edge2" class="edge">
<title>Node2&#45;&gt;Node3</title>
<path fill="none" stroke="midnightblue" d="M94.5,-45.8C94.5,-36.91 94.5,-26.78 94.5,-19.75"/>
<polygon fill="midnightblue" stroke="midnightblue" points="91,-46.08 94.5,-56.08 98,-46.08 91,-46.08"/>
</g>
</g>
</svg>
